<svg xmlns="http://www.w3.org/2000/svg" version="1.1" xmlns:xlink="http://www.w3.org/1999/xlink" xmlns:svgjs="http://svgjs.dev/svgjs" viewBox="0 0 800 800"><defs><linearGradient x1="50%" y1="0%" x2="50%" y2="100%" id="ccchaos-grad"><stop stop-color="hsl(265, 55%, 30%)" stop-opacity="1" offset="0%"></stop><stop stop-color="hsl(265, 55%, 60%)" stop-opacity="1" offset="100%"></stop></linearGradient></defs><g stroke-width="3" stroke="url(#ccchaos-grad)" fill="none" stroke-linecap="round"><path d="M386.92 44.51C392.72 46.31 398.45 48.61 404.12 51.28 409.79 54.08 415.39 57.03 420.92 60 431.98 65.2 442.76 69.39 453.25 72.18 463.75 72.97 473.96 72.61 483.91 71.67 493.89 70.24 503.63 69.69 513.15 70.62 522.77 72.97 532.23 77.53 541.55 84.2 551.05 92.38 560.5 102.05 569.91 112.65 579.6 123.37 589.34 134 599.14 144.14 609.27 153.19 619.52 161.36 629.85 168.66 640.51 174.78 651.22 180.37 661.93 185.7 672.83 190.5 683.59 195.59 694.08 201.19 704.49 206.95 714.41 213.56 723.66 221.04 732.46 229 740.32 237.87 747.06 247.53 753.02 257.64 757.64 268.41 760.79 279.65 762.99 291.19 763.68 303.04 762.84 315.05 761.19 327.2 758.2 339.38 754 351.48 751.76 357.55 749.28 363.59 746.61 369.57 743.92 375.57 741.09 381.51 738.14 387.38 735.28 393.26 732.38 399.01 729.5 404.62 726.77 410.23 724.09 415.7 721.48 421.04 716.92 431.72 712.82 441.89 709.23 451.6 706.68 461.41 704.62 470.9 702.98 480.2 702.2 489.83 701.62 499.54 701.09 509.53 701.04 520.2 700.73 531.48 700.02 543.55 699.37 556.52 698.05 570.39 695.96 585.11 693.62 600.4 690.35 616.06 686.16 631.62 681.54 646.54 675.96 660.25 669.46 672.03 662.52 681.59 654.73 688.26 646.18 691.71 637.27 692.67 627.7 690.95 617.56 687.28 607.2 683.48 596.38 680.04 585.2 678.28 573.9 679.92 562.32 685.1 550.54 694.12 538.72 706.85 526.74 721.9 514.68 737.64 502.62 752.38 490.49 763.9 478.33 770.48 466.19 771.73 454.03 767.1 441.88 757.48 435.8 751.64 429.73 745.3 423.67 738.79 417.6 732.62 411.54 726.92 405.48 721.98 399.42 718.25 393.44 715.76 387.53 714.6 381.63 714.94 375.79 716.59 370.03 719.41 358.49 728.35 347.23 739.27 336.27 749.82 325.26 758.54 314.52 762.89 304.06 761.93 293.53 756.03 283.26 745.28 273.24 731.06 263.14 715.21 253.28 699.2 243.66 684.56 233.93 672.63 224.43 663.84 215.17 658.24 205.8 655.96 196.65 655.83 187.76 656.86 178.76 658.82 170.01 660.03 161.55 659.75 153.01 658.13 144.78 654.1 136.9 647.68 128.98 639.38 121.45 628.98 114.34 616.95 107.27 603.75 100.65 589.65 94.55 575.1 88.53 560.27 83.05 545.5 78.14 531.03 73.36 516.76 69.17 502.92 65.6 489.56 62.15 476.47 59.33 463.78 57.15 451.42 55.08 439.23 53.65 427.25 52.86 415.42 52.5 409.52 52.29 403.65 52.25 397.79 52.29 389.02 53.17 371.59 54 363.06 54.61 357.41 55.36 351.84 56.25 346.37 58.02 335.44 60.33 324.93 63.15 314.9 65.9 304.95 69.12 295.54 72.79 286.75 76.34 278.04 80.31 269.95 84.67 262.46 88.89 254.94 93.49 247.88 98.44 241.18 103.26 234.12 108.44 227.11 113.97 219.93 119.4 211.97 125.21 203.52 131.38 194.45 137.49 184.39 144.01 173.69 150.91 162.45 157.81 150.7 165.13 138.96 172.84 127.65 180.61 116.94 188.79 107.5 197.36 99.74 206 93.49 215.04 89.21 224.43 86.84 233.91 85.5 243.73 85.24 253.86 85.46 264.07 84.9 274.56 83.58 285.29 81.06 296.08 76.63 307.08 70.94 318.26 64.43 329.47 57.3 340.83 50.85 352.29 45.95 360.91 43.52 378.22 42.78 386.91 44.5" stroke-dasharray="0 0" transform="rotate(0, 400, 400)" opacity="0.39"></path><path d="M385.26 54.77C396.45 58.7 407.43 64.12 418.16 70.13 428.9 75.41 439.39 79.78 449.63 82.84 459.88 83.96 469.91 83.89 479.7 83.12 489.53 81.68 499.17 80.87 508.63 81.28 518.2 82.88 527.64 86.52 536.98 92.22 546.5 99.48 555.98 108.38 565.46 118.45 575.18 128.94 584.95 139.67 594.78 150.18 604.9 159.89 615.1 168.87 625.36 177.05 635.87 184.07 646.4 190.42 656.86 196.33 667.44 201.51 677.83 206.69 687.89 212.11 697.82 217.42 707.22 223.34 715.91 229.95 724.16 236.85 731.46 244.55 737.67 253.02 743.13 261.85 747.3 271.37 750.09 281.44 752 291.79 752.49 302.56 751.55 313.61 749.88 324.8 746.96 336.15 742.92 347.55 738.56 358.99 733.44 370.41 727.76 381.72 722.37 393.04 716.95 403.97 711.7 414.51 707.24 425.08 703.15 435.33 699.53 445.32 696.85 455.45 694.62 465.48 692.77 475.53 691.75 485.94 690.91 496.62 690.14 507.73 689.85 519.45 689.36 531.81 688.53 544.88 687.81 558.6 686.51 572.97 684.54 587.82 682.37 602.78 679.37 617.63 675.53 631.85 671.33 645 666.23 656.54 660.27 665.87 653.91 672.98 646.74 677.31 638.82 678.78 630.57 678.32 621.65 675.86 612.16 672.21 602.45 669.14 592.25 667.04 581.66 667.03 570.94 670.48 559.91 677.33 548.65 687.59 537.33 700.93 525.82 715.92 514.2 730.97 502.56 744.57 490.83 754.77 479.04 760.1 467.27 760.43 455.45 755.35 443.62 745.78 431.81 734.19 419.98 722.06 408.16 711.72 396.34 705.79 384.79 704.75 373.53 708.49 362.25 716.67 351.24 726.91 340.5 737.12 329.72 745.99 319.19 751.08 308.93 751.4 298.6 747.13 288.51 738.09 278.67 725.38 268.74 710.58 259.04 694.95 249.57 679.97 240.01 666.99 230.66 656.6 221.54 649.1 212.32 644.8 203.32 642.87 194.57 642.54 185.73 643.69 177.13 644.79 168.82 645.08 160.45 644.66 152.38 642.36 144.66 637.98 136.92 632 129.56 623.95 122.61 614.12 115.71 603.02 109.26 590.69 103.31 577.57 97.45 563.89 92.11 549.93 87.34 535.96 82.7 521.96 78.63 508.2 75.18 494.79 71.85 481.52 69.14 468.62 67.05 456.09 65.09 443.69 63.74 431.58 63.03 419.74 62.41 407.95 62.4 396.37 63.03 385.01 63.7 373.64 64.95 362.74 66.76 352.32 68.55 341.9 70.87 331.97 73.66 322.59 76.39 313.22 79.57 304.41 83.17 296.16 86.66 287.9 90.55 280.14 94.81 272.85 98.93 265.37 103.41 258.17 108.23 251.11 112.91 243.56 117.94 235.87 123.3 227.85 128.56 219.04 134.17 209.69 140.13 199.75 146.03 189 152.3 177.78 158.95 166.29 165.57 154.61 172.6 143.25 180 132.61 187.43 122.83 195.26 114.48 203.46 107.89 211.72 102.76 220.36 99.46 229.35 97.84 238.4 96.96 247.79 96.85 257.48 96.94 267.23 96.06 277.27 94.29 287.55 91.29 297.88 86.47 308.43 80.52 319.16 73.91 329.92 66.85 340.84 60.57 351.87 55.88 362.91 52.91 374.05 52.52 385.25 54.77" stroke-dasharray="0 0" transform="rotate(2.90625, 400, 400)" opacity="0.39"></path><path d="M384.02 65.04C394.84 68.92 405.46 74.26 415.88 80.23 426.31 85.57 436.53 90.11 446.54 93.43 456.56 94.88 466.4 95.14 476.04 94.59 485.73 93.21 495.28 92.22 504.68 92.2 514.18 93.13 523.6 95.9 532.94 100.64 542.45 106.9 551.94 114.91 561.43 124.28 571.15 134.33 580.91 144.9 590.72 155.56 600.77 165.73 610.87 175.37 620.99 184.34 631.3 192.26 641.58 199.49 651.74 206.15 661.97 211.96 671.94 217.55 681.55 223.14 690.98 228.38 699.84 233.99 707.99 240.09 715.68 246.25 722.44 253.09 728.13 260.6 733.12 268.35 736.88 276.77 739.32 285.78 740.96 295 741.27 304.73 740.25 314.83 738.57 325.06 735.74 335.58 731.85 346.28 727.69 357.01 722.8 367.87 717.37 378.78 712.22 389.7 707.01 400.42 701.92 410.93 697.55 421.48 693.51 431.91 689.85 442.27 687.08 452.79 684.69 463.39 682.66 474.19 681.39 485.32 680.31 496.83 679.31 508.82 678.79 521.29 678.11 534.32 677.15 547.9 676.34 561.83 675.02 576.09 673.12 590.42 671.08 604.46 668.31 617.94 664.76 630.36 660.92 641.44 656.25 650.66 650.78 657.58 644.96 662.44 638.36 664.79 631.03 664.73 623.4 663.38 615.12 660.7 606.26 657.54 597.17 655.55 587.6 654.99 577.61 656.77 567.48 661.95 557.01 670.26 546.28 681.5 535.48 695.18 524.47 709.89 513.3 724.1 502.11 736.5 490.8 745.38 479.41 749.53 468.03 749.02 456.57 743.56 445.09 734.07 433.61 722.9 422.11 711.33 410.59 701.45 399.07 695.69 387.81 694.43 376.81 697.63 365.8 705.06 355.03 714.61 344.52 724.41 333.97 733.32 323.66 739.02 313.59 740.47 303.46 737.73 293.56 730.38 283.89 719.26 274.14 705.71 264.6 690.78 255.29 675.84 245.89 662.18 236.7 650.53 227.72 641.35 218.66 635.11 209.82 631.28 201.22 629.34 192.54 629.24 184.11 629.7 175.96 629.96 167.77 630.12 159.87 628.96 152.32 626.17 144.76 622.15 137.58 616.23 130.8 608.56 124.08 599.64 117.8 589.32 112.01 577.95 106.32 565.84 101.14 553.14 96.52 540.15 92.02 526.92 88.09 513.7 84.75 500.65 81.55 487.61 78.95 474.83 76.97 462.39 75.1 450.01 73.85 437.95 73.22 426.21 72.67 414.51 72.73 403.09 73.42 391.97 74.14 380.86 75.43 370.28 77.26 360.25 79.07 350.2 81.38 340.69 84.15 331.71 86.86 322.7 90 314.19 93.54 306.17 96.97 298.05 100.78 290.3 104.94 282.85 108.96 275.12 113.33 267.48 118.03 259.81 122.58 251.58 127.47 243.08 132.68 234.18 137.77 224.54 143.21 214.4 148.97 203.78 154.66 192.59 160.7 181.16 167.1 169.73 173.47 158.42 180.21 147.71 187.31 137.97 194.43 129.27 201.92 122.1 209.77 116.68 217.66 112.6 225.92 110.17 234.51 109.15 243.15 108.57 252.12 108.49 261.39 108.34 270.7 107.07 280.3 104.82 290.15 101.35 300.03 96.17 310.14 90 320.43 83.33 330.75 76.37 341.23 70.28 351.84 65.82 362.46 63.04 373.2 62.76 384.01 65.03" stroke-dasharray="0 0" transform="rotate(5.8125, 400, 400)" opacity="0.56"></path><path d="M383.26 75.3C393.71 79.13 404 84.39 414.12 90.31 424.24 95.68 434.2 100.37 443.99 103.94 453.79 105.73 463.45 106.32 472.95 106.04 482.5 104.79 491.94 103.72 501.27 103.37 510.7 103.71 520.07 105.7 529.38 109.49 538.85 114.74 548.32 121.77 557.79 130.28 567.46 139.69 577.16 149.88 586.88 160.43 596.81 170.8 606.76 180.9 616.68 190.52 626.75 199.26 636.73 207.36 646.55 214.85 656.38 221.46 665.91 227.7 675.04 233.74 683.95 239.26 692.28 244.92 699.88 250.86 707.03 256.68 713.26 262.99 718.46 269.85 722.99 276.81 726.36 284.37 728.49 292.51 729.88 300.79 730.03 309.6 728.95 318.87 727.27 328.22 724.52 337.96 720.79 348.02 716.82 358.1 712.16 368.45 706.98 379.01 702.06 389.58 697.06 400.13 692.14 410.65 687.87 421.22 683.87 431.84 680.21 442.56 677.35 453.42 674.83 464.52 672.62 475.9 671.14 487.56 669.83 499.62 668.6 512.12 667.86 524.93 666.99 538.14 665.88 551.67 664.96 565.24 663.61 578.8 661.74 592.05 659.79 604.69 657.19 616.4 653.89 626.74 650.36 635.62 646.06 642.55 641.02 647.25 635.69 650.2 629.61 651.01 622.85 649.96 615.8 648.23 608.12 645.83 599.86 643.56 591.39 642.89 582.42 643.99 573.02 647.54 563.49 654.28 553.59 663.82 543.4 675.77 533.13 689.53 522.62 703.74 511.93 716.99 501.22 728.16 490.34 735.74 479.37 738.77 468.39 737.51 457.32 731.74 446.2 722.37 435.08 711.62 423.91 700.6 412.71 691.19 401.51 685.59 390.54 684.13 379.81 686.82 369.07 693.52 358.56 702.37 348.27 711.71 337.96 720.56 327.87 726.73 317.99 729.15 308.08 727.82 298.36 722.12 288.86 712.64 279.3 700.5 269.94 686.53 260.78 671.96 251.55 658.02 242.52 645.48 233.71 634.92 224.82 626.92 216.14 621.23 207.7 617.54 199.2 615.9 190.95 615.26 182.97 614.96 174.96 615.1 167.25 614.49 159.87 612.73 152.51 610.18 145.51 606.02 138.92 600.27 132.39 593.43 126.29 585.13 120.68 575.64 115.16 565.34 110.15 554.23 105.67 542.56 101.33 530.52 97.54 518.24 94.33 505.92 91.26 493.49 88.77 481.19 86.89 469.1 85.13 457.03 83.96 445.21 83.41 433.7 82.95 422.21 83.07 411.01 83.8 400.14 84.57 389.26 85.9 378.94 87.74 369.16 89.56 359.35 91.87 350.06 94.62 341.25 97.3 332.38 100.4 323.92 103.88 315.85 107.25 307.59 110.99 299.58 115.06 291.72 119 283.5 123.27 275.24 127.84 266.82 132.28 257.84 137.03 248.54 142.09 238.83 147.03 228.51 152.3 217.8 157.87 206.77 163.37 195.44 169.2 184.11 175.36 173.06 181.49 162.4 187.96 152.58 194.78 143.93 201.6 136.39 208.77 130.41 216.29 126.12 223.83 123 231.71 121.28 239.92 120.71 248.17 120.29 256.74 120.09 265.6 119.62 274.49 117.91 283.67 115.16 293.08 111.23 302.53 105.73 312.21 99.38 322.08 92.69 331.97 85.86 342.04 79.99 352.25 75.75 362.46 73.18 372.81 73.02 383.25 75.3" stroke-dasharray="0 0" transform="rotate(8.71875, 400, 400)" opacity="0.93"></path><path d="M383 85.57C393.09 89.34 403.06 94.51 412.89 100.35 422.72 105.75 432.43 110.56 442 114.37 451.59 116.49 461.06 117.43 470.41 117.45 479.82 116.4 489.15 115.33 498.39 114.75 507.72 114.62 517.02 115.9 526.28 118.8 535.68 123.05 545.08 129.05 554.48 136.6 564.05 145.18 573.64 154.77 583.23 164.98 592.98 175.29 602.72 185.59 612.39 195.64 622.17 205.04 631.81 213.9 641.25 222.21 650.65 229.69 659.71 236.7 668.34 243.4 676.73 249.48 684.53 255.5 691.59 261.61 698.2 267.44 703.93 273.58 708.65 280.13 712.76 286.63 715.76 293.64 717.6 301.17 718.77 308.74 718.78 316.85 717.65 325.45 715.98 334.09 713.32 343.18 709.74 352.69 705.96 362.21 701.53 372.11 696.6 382.37 691.9 392.64 687.1 403.03 682.35 413.55 678.19 424.12 674.25 434.87 670.59 445.83 667.67 456.91 665.03 468.29 662.68 479.99 661 491.88 659.47 504.12 658.04 516.68 657.07 529.36 656.01 542.24 654.75 555.16 653.71 567.86 652.29 580.23 650.42 591.96 648.53 602.85 646.06 612.56 642.96 620.72 637.7 629.89 623.35 636.51 614.3 634.89 607.8 633.28 600.68 631.56 593 630.49 585.12 631.33 576.73 634.11 567.92 639.31 558.96 647.42 549.63 657.91 539.98 670.29 530.25 683.89 520.26 697.43 510.06 709.61 499.82 719.51 489.41 725.84 478.86 727.84 468.31 725.9 457.64 719.88 446.89 710.69 436.14 700.37 425.32 689.89 414.46 680.93 403.59 675.49 392.92 673.86 382.47 676.06 372.01 682.07 361.75 690.21 351.71 699.05 341.64 707.74 331.77 714.23 322.1 717.49 312.4 717.43 302.88 713.29 293.57 705.45 284.2 694.84 275.01 682.04 266.03 668.16 256.98 654.32 248.13 641.26 239.48 629.69 230.77 620.2 222.27 612.79 214.01 607.35 205.7 604 197.63 601.96 189.84 600.67 182.03 600.25 174.51 599.6 167.33 598.29 160.17 596.64 153.37 593.76 146.97 589.54 140.64 584.48 134.73 578.03 129.3 570.37 123.96 561.93 119.12 552.53 114.81 542.39 110.63 531.8 106.98 520.75 103.91 509.46 100.97 497.98 98.6 486.44 96.83 474.97 95.17 463.45 94.09 452.09 93.62 440.94 93.23 429.81 93.41 418.9 94.19 408.28 95 397.65 96.36 387.53 98.21 377.89 100.04 368.22 102.34 358.99 105.06 350.16 107.72 341.24 110.78 332.63 114.2 324.27 117.52 315.7 121.18 307.24 125.17 298.81 129.02 290 133.19 281.05 137.65 271.88 141.98 262.21 146.61 252.22 151.53 241.89 156.33 231.12 161.43 220.12 166.83 209.01 172.14 197.86 177.78 186.96 183.72 176.59 189.61 166.83 195.84 158.08 202.39 150.61 208.92 144.28 215.79 139.47 222.99 136.2 230.2 133.89 237.74 132.74 245.59 132.44 253.46 132.03 261.64 131.61 270.11 130.73 278.6 128.53 287.37 125.29 296.38 120.93 305.41 115.14 314.68 108.67 324.14 102 333.62 95.33 343.28 89.69 353.1 85.7 362.92 83.33 372.9 83.27 382.99 85.56" stroke-dasharray="0 0" transform="rotate(11.625, 400, 400)" opacity="0.63"></path><path d="M383.23 95.83C392.98 99.54 402.64 104.61 412.19 110.37 421.74 115.77 431.2 120.69 440.55 124.71 449.93 127.15 459.22 128.46 468.41 128.81 477.67 128.02 486.86 127.03 495.99 126.32 505.21 125.83 514.4 126.5 523.57 128.6 532.86 131.88 542.15 136.84 551.44 143.36 560.86 150.99 570.29 159.79 579.69 169.42 589.22 179.4 598.7 189.64 608.08 199.85 617.51 209.68 626.78 219.14 635.8 228.15 644.74 236.44 653.33 244.28 661.44 251.72 669.31 258.52 676.57 265.13 683.1 271.67 689.2 277.82 694.43 284.12 698.71 290.66 702.42 297.05 705.08 303.81 706.65 311.02 707.62 318.18 707.51 325.82 706.34 333.95 704.69 342.08 702.12 350.69 698.71 359.77 695.11 368.84 690.9 378.38 686.21 388.37 681.73 398.36 677.14 408.59 672.56 419.04 668.52 429.52 664.64 440.27 661 451.29 658.02 462.38 655.3 473.78 652.81 485.46 650.95 497.22 649.23 509.23 647.6 521.39 646.42 533.49 645.17 545.56 643.75 557.4 642.58 568.82 641.08 579.64 639.19 589.56 637.32 598.54 634.94 606.21 632 612.3 627.08 618.67 613.8 621.75 605.42 619.93 599.42 618.87 592.82 618.18 585.69 618.53 578.36 620.94 570.54 625.35 562.29 632.04 553.9 641.26 545.12 652.44 536.01 664.97 526.82 678.19 517.35 690.89 507.64 701.92 497.89 710.56 487.95 715.68 477.84 716.73 467.73 714.2 457.47 708 447.11 699.01 436.75 689.13 426.3 679.18 415.77 670.66 405.25 665.4 394.9 663.62 384.74 665.36 374.57 670.69 364.58 678.13 354.79 686.42 344.97 694.86 335.33 701.56 325.89 705.5 316.4 706.56 307.1 703.88 297.98 697.64 288.81 688.62 279.82 677.18 271.02 664.25 262.17 650.85 253.5 637.68 245.04 625.46 236.53 614.83 228.22 605.94 220.14 598.85 212.03 593.78 204.17 590.16 196.57 587.57 188.97 586.15 181.67 584.95 174.69 583.54 167.75 582.22 161.15 580.06 154.96 576.89 148.83 573.17 143.13 568.25 137.88 562.19 132.75 555.47 128.09 547.73 123.94 539.16 119.92 530.12 116.43 520.46 113.5 510.38 110.7 500.06 108.45 489.5 106.78 478.84 105.22 468.1 104.24 457.36 103.83 446.72 103.52 436.06 103.76 425.54 104.58 415.18 105.43 404.83 106.81 394.87 108.66 385.31 110.5 375.71 112.79 366.44 115.48 357.46 118.11 348.37 121.13 339.48 124.49 330.72 127.76 321.74 131.35 312.77 135.25 303.72 139.03 294.33 143.1 284.76 147.46 274.95 151.69 264.75 156.2 254.3 160.98 243.62 165.65 232.72 170.6 221.76 175.84 210.91 180.98 200.25 186.43 190.07 192.16 180.63 197.84 171.94 203.84 164.38 210.13 158.16 216.4 153.01 222.99 149.26 229.89 146.89 236.78 145.22 243.99 144.46 251.5 144.26 259.02 143.73 266.84 142.97 274.93 141.62 283.04 138.92 291.42 135.2 300.04 130.44 308.67 124.41 317.54 117.86 326.61 111.26 335.7 104.79 344.97 99.4 354.42 95.65 363.86 93.48 373.47 93.54 383.22 95.83" stroke-dasharray="0 0" transform="rotate(14.53125, 400, 400)" opacity="0.09"></path><path d="M383.96 106.1C393.38 109.74 402.73 114.69 412 120.36 421.29 125.75 430.5 130.75 439.63 134.96 448.78 137.71 457.88 139.38 466.91 140.08 475.99 139.6 485.03 138.78 494.02 138.04 503.1 137.31 512.16 137.49 521.2 138.88 530.34 141.27 539.48 145.22 548.6 150.68 557.83 157.26 567.05 165.12 576.22 173.97 585.47 183.38 594.65 193.28 603.69 203.39 612.74 213.37 621.6 223.18 630.17 232.69 638.65 241.66 646.73 250.23 654.33 258.41 661.67 265.99 668.4 273.3 674.42 280.43 680.02 287.12 684.79 293.82 688.65 300.63 691.97 307.18 694.32 314 695.65 321.14 696.44 328.17 696.23 335.6 695.03 343.47 693.42 351.3 690.94 359.6 687.68 368.36 684.27 377.12 680.28 386.36 675.83 396.09 671.57 405.83 667.17 415.85 662.77 426.12 658.84 436.43 655.04 447.01 651.43 457.85 648.42 468.72 645.62 479.83 643.02 491.13 641 502.41 639.11 513.79 637.29 525.14 635.91 536.27 634.48 547.16 632.91 557.57 631.59 567.44 629.99 576.51 628.06 584.53 625.02 594.51 616.41 605.79 610.63 607.16 604.04 606.81 587.66 605.64 577.97 607.8 571.17 611.77 563.88 617.67 556.16 625.63 548.32 635.7 540.08 647.27 531.5 659.7 522.84 672.34 513.88 684.08 504.67 693.91 495.42 701.29 485.94 705.28 476.29 705.45 466.62 702.41 456.79 696.1 446.83 687.34 436.87 677.91 426.79 668.49 416.62 660.4 406.45 655.31 396.43 653.39 386.58 654.71 376.71 659.4 367.01 666.14 357.48 673.85 347.92 681.97 338.53 688.74 329.32 693.21 320.07 695.24 310.98 693.88 302.07 689.19 293.13 681.78 284.34 671.8 275.74 660.04 267.1 647.41 258.64 634.49 250.37 622.01 242.08 610.61 233.98 600.57 226.1 592.06 218.21 585.36 210.56 580.12 203.18 576.08 195.81 573.36 188.72 571.2 181.96 569.22 175.25 567.67 168.88 565.69 162.89 563.04 156.99 560.16 151.49 556.32 146.44 551.5 141.51 546.2 137.04 539.93 133.06 532.8 129.22 525.24 125.89 516.98 123.09 508.16 120.43 499.08 118.31 489.61 116.74 479.88 115.29 470.04 114.4 460.06 114.06 450.01 113.82 439.94 114.11 429.86 114.96 419.82 115.85 409.77 117.24 399.99 119.1 390.47 120.94 380.91 123.21 371.56 125.87 362.38 128.48 353.09 131.45 343.89 134.76 334.71 137.96 325.34 141.49 315.89 145.32 306.32 149.01 296.48 153 286.45 157.26 276.22 161.38 265.76 165.78 255.14 170.45 244.44 174.99 233.72 179.8 223.14 184.88 212.87 189.87 203 195.14 193.78 200.68 185.46 206.16 177.96 211.93 171.63 217.99 166.62 224.02 162.56 230.34 159.75 236.96 158.09 243.56 156.89 250.46 156.33 257.65 156.09 264.83 155.31 272.31 154.13 280.04 152.26 287.79 149.06 295.8 144.87 304.05 139.76 312.31 133.55 320.8 126.97 329.5 120.48 338.2 114.23 347.11 109.1 356.19 105.6 365.28 103.64 374.54 103.8 383.95 106.09" stroke-dasharray="0 0" transform="rotate(17.4375, 400, 400)" opacity="0.09"></path><path d="M385.17 116.36C394.26 119.93 403.32 124.77 412.32 130.32 421.32 135.68 430.28 140.74 439.19 145.11 448.12 148.15 457.01 150.18 465.85 151.26 474.74 151.12 483.61 150.53 492.44 149.86 501.34 149 510.23 148.82 519.1 149.62 528.05 151.22 536.99 154.22 545.9 158.64 554.9 164.14 563.86 170.95 572.74 178.86 581.68 187.48 590.51 196.79 599.18 206.52 607.82 216.36 616.24 226.24 624.35 236 632.33 245.42 639.91 254.55 646.99 263.35 653.81 271.65 660.03 279.66 665.55 287.43 670.67 294.78 675 302.02 678.46 309.26 681.44 316.21 683.5 323.29 684.61 330.58 685.23 337.71 684.93 345.15 683.72 352.95 682.15 360.67 679.78 368.81 676.67 377.37 673.44 385.92 669.67 394.92 665.44 404.4 661.39 413.88 657.2 423.63 652.97 433.61 649.17 443.61 645.45 453.84 641.88 464.25 638.86 474.66 636 485.21 633.31 495.81 631.15 506.31 629.1 516.73 627.12 526.93 625.55 536.83 623.94 546.29 622.22 555.1 620.76 563.32 619.05 570.62 617.06 576.83 609.86 588.02 594.12 592.2 586.89 591.97 581.74 592.98 576.06 594.98 569.89 598.39 563.58 603.81 556.79 611.02 549.58 619.97 542.25 630.62 534.53 642.31 526.47 654.38 518.32 666.26 509.87 676.94 501.15 685.55 492.39 691.71 483.39 694.63 474.19 694.03 464.97 690.56 455.57 684.19 446.02 675.69 436.47 666.71 426.78 657.8 416.98 650.13 407.18 645.22 397.5 643.19 387.96 644.12 378.42 648.18 369.01 654.24 359.75 661.35 350.48 669.07 341.35 675.81 332.38 680.66 323.39 683.5 314.54 683.33 305.85 680.08 297.14 674.24 288.58 665.81 280.2 655.38 271.79 643.76 263.54 631.44 255.49 619.08 247.42 607.32 239.55 596.49 231.9 586.87 224.24 578.76 216.82 572 209.67 566.47 202.54 562.3 195.69 558.91 189.16 555.99 182.68 553.76 176.54 551.46 170.78 548.83 165.1 546.25 159.83 543 154.99 538.99 150.26 534.7 145.98 529.56 142.19 523.61 138.52 517.34 135.35 510.32 132.7 502.68 130.18 494.81 128.18 486.43 126.72 477.65 125.38 468.76 124.57 459.58 124.3 450.19 124.12 440.77 124.47 431.19 125.35 421.49 126.27 411.8 127.67 402.22 129.52 392.76 131.36 383.28 133.61 373.87 136.24 364.51 138.81 355.07 141.74 345.61 144.99 336.1 148.14 326.45 151.6 316.68 155.34 306.77 158.97 296.69 162.87 286.46 167.03 276.11 171.06 265.68 175.36 255.22 179.9 244.85 184.33 234.64 189.01 224.74 193.95 215.34 198.78 206.47 203.89 198.39 209.25 191.29 214.55 185.02 220.12 179.9 225.96 176 231.75 172.89 237.83 170.84 244.18 169.71 250.51 168.79 257.12 168.27 264 167.82 270.88 166.68 278.03 165.02 285.43 162.62 292.84 158.92 300.5 154.31 308.4 148.9 316.29 142.57 324.43 136 332.77 129.66 341.11 123.66 349.66 118.81 358.4 115.57 367.14 113.81 376.06 114.07 385.16 116.36" stroke-dasharray="0 0" transform="rotate(20.34375, 400, 400)" opacity="0.11"></path><path d="M386.81 126.62C395.59 130.11 404.35 134.82 413.07 140.26 421.81 145.56 430.51 150.66 439.18 155.17 447.87 158.48 456.55 160.85 465.18 162.3 473.86 162.54 482.52 162.24 491.16 161.72 499.86 160.85 508.54 160.44 517.2 160.79 525.92 161.72 534.63 163.86 543.28 167.3 552 171.72 560.66 177.44 569.21 184.31 577.8 191.97 586.25 200.47 594.5 209.57 602.72 218.98 610.68 228.63 618.3 238.36 625.79 247.94 632.86 257.38 639.43 266.6 645.74 275.45 651.45 284.05 656.49 292.42 661.15 300.4 665.06 308.22 668.16 315.96 670.81 323.41 672.61 330.89 673.52 338.46 674 345.87 673.63 353.47 672.42 361.32 670.89 369.09 668.62 377.18 665.67 385.62 662.62 394.04 659.05 402.84 655.05 412.05 651.22 421.26 647.22 430.66 643.17 440.23 639.49 449.8 635.87 459.51 632.35 469.29 629.33 479.04 626.43 488.79 623.67 498.44 621.4 507.93 619.21 517.19 617.08 526.06 615.34 534.58 613.57 542.53 611.7 549.72 609.18 559.19 603.12 572.1 599.29 575.38 595.04 577.15 584.1 578.36 577.33 579.67 572.54 581.98 567.26 585.43 561.51 590.3 555.64 597.01 549.31 605.27 542.58 614.94 535.74 625.86 528.51 637.4 520.94 648.92 513.3 659.9 505.34 669.44 497.1 676.82 488.82 681.81 480.29 683.75 471.54 682.45 462.78 678.63 453.81 672.26 444.68 664.06 435.55 655.53 426.26 647.13 416.84 639.87 407.42 635.13 398.09 633 388.89 633.57 379.67 637.05 370.58 642.44 361.61 648.93 352.63 656.2 343.78 662.8 335.07 667.9 326.34 671.38 317.75 672.24 309.31 670.3 300.85 665.98 292.54 659.09 284.39 650.11 276.22 639.72 268.22 628.27 260.4 616.39 252.58 604.67 244.95 593.44 237.54 583.06 230.13 573.85 222.96 565.79 216.05 558.87 209.17 553.24 202.57 548.51 196.28 544.43 190.05 541.19 184.16 538.17 178.63 535.12 173.19 532.36 168.14 529.21 163.52 525.55 159 521.81 154.92 517.39 151.32 512.28 147.83 506.97 144.83 500.95 142.32 494.3 139.95 487.47 138.07 480.07 136.72 472.18 135.48 464.2 134.76 455.81 134.56 447.07 134.44 438.31 134.83 429.26 135.74 419.96 136.68 410.66 138.09 401.33 139.93 391.99 141.76 382.64 143.98 373.26 146.58 363.83 149.11 354.35 151.99 344.78 155.18 335.11 158.28 325.36 161.67 315.48 165.34 305.5 168.89 295.45 172.71 285.32 176.77 275.18 180.72 265.1 184.91 255.13 189.34 245.41 193.66 235.99 198.22 227.03 203.01 218.71 207.71 210.99 212.67 204.13 217.86 198.27 222.98 193.19 228.36 189.18 233.99 186.25 239.57 183.91 245.42 182.43 251.53 181.62 257.6 180.79 263.95 180.14 270.55 179.37 277.13 177.79 283.98 175.61 291.07 172.66 298.15 168.49 305.49 163.52 313.05 157.87 320.61 151.46 328.4 144.97 336.41 138.81 344.41 133.08 352.62 128.53 361.02 125.55 369.42 123.99 378.02 124.35 386.8 126.62" stroke-dasharray="0 0" transform="rotate(23.25, 400, 400)" opacity="1.00"></path><path d="M388.84 136.89C397.31 140.29 405.78 144.87 414.23 150.17 422.68 155.4 431.13 160.5 439.55 165.13 447.99 168.68 456.42 171.37 464.83 173.2 473.27 173.84 481.7 173.88 490.11 173.59 498.57 172.81 507.01 172.29 515.42 172.32 523.88 172.72 532.3 174.14 540.66 176.68 549.06 180.08 557.38 184.72 565.58 190.49 573.78 197.08 581.81 204.6 589.63 212.87 597.39 221.58 604.88 230.73 612.01 240.13 619 249.57 625.56 259.03 631.62 268.4 637.43 277.57 642.66 286.56 647.24 295.35 651.48 303.85 655 312.18 657.74 320.38 660.1 328.32 661.65 336.22 662.39 344.13 662.75 351.87 662.32 359.7 661.12 367.68 659.64 375.58 657.48 383.69 654.69 392.05 651.81 400.38 648.45 408.99 644.67 417.9 641.04 426.8 637.24 435.8 633.36 444.85 629.82 453.89 626.3 462.95 622.84 471.95 619.83 480.89 616.91 489.69 614.1 498.25 611.73 506.63 609.43 514.63 607.17 522.13 604.31 532.54 598.63 548.93 595.53 554.52 588.4 560.59 574.02 565.7 567.66 568.83 563.18 572.48 558.25 577.31 552.88 583.48 547.41 591.24 541.51 600.28 535.21 610.37 528.83 621.29 522.07 632.44 514.97 643.21 507.8 653.18 500.32 661.55 492.55 667.72 484.74 671.6 476.67 672.64 468.38 670.75 460.06 666.65 451.53 660.34 442.83 652.45 434.11 644.37 425.23 636.46 416.2 629.6 407.17 625.05 398.21 622.84 389.34 623.08 380.48 626.01 371.71 630.74 363.05 636.6 354.38 643.38 345.82 649.75 337.39 654.96 328.95 658.92 320.63 660.64 312.46 659.88 304.27 656.97 296.22 651.6 288.32 644.1 280.42 635.08 272.68 624.75 265.12 613.65 257.56 602.33 250.19 591.11 243.03 580.36 235.89 570.41 228.98 561.36 222.33 553.28 215.72 546.32 209.38 540.26 203.35 534.94 197.38 530.51 191.74 526.5 186.46 522.7 178.86 517.63 165.81 506.46 160.46 499.74 157.16 495.01 154.32 489.68 151.97 483.75 149.74 477.71 147.99 471.11 146.74 463.97 145.61 456.77 144.96 449.08 144.82 440.98 144.76 432.84 145.19 424.32 146.12 415.44 147.09 406.57 148.5 397.55 150.32 388.43 152.14 379.31 154.34 370.07 156.89 360.72 159.38 351.36 162.21 341.87 165.34 332.27 168.38 322.66 171.7 312.94 175.29 303.18 178.77 293.45 182.51 283.73 186.48 274.12 190.34 264.68 194.43 255.49 198.75 246.68 202.96 238.26 207.4 230.42 212.07 223.3 216.64 216.78 221.45 211.15 226.48 206.48 234.04 200.94 250.29 194.93 258.98 193.67 264.82 192.76 270.91 191.83 277.25 190.64 283.56 188.56 290.12 185.84 296.92 182.37 303.7 177.78 310.73 172.49 317.98 166.66 325.22 160.25 332.68 153.88 340.36 147.94 348.04 142.51 355.92 138.27 364.01 135.55 372.08 134.18 380.37 134.63 388.84 136.89" stroke-dasharray="0 0" transform="rotate(26.15625, 400, 400)" opacity="0.90"></path><path d="M391.21 147.15C399.37 150.46 407.54 154.9 415.7 160.05 423.88 165.19 432.05 170.28 440.2 175 448.38 178.75 456.55 181.75 464.71 183.93 472.89 184.98 481.07 185.4 489.22 185.4 497.41 184.81 505.57 184.3 513.69 184.15 521.85 184.17 529.96 185 537.98 186.78 546.03 189.26 553.98 192.86 561.78 197.55 569.56 203.02 577.16 209.47 584.53 216.74 591.82 224.56 598.82 232.95 605.46 241.74 611.95 250.75 618.01 259.93 623.58 269.16 628.9 278.34 633.67 287.45 637.82 296.43 641.64 305.24 644.8 313.91 647.23 322.43 649.31 330.77 650.65 339.02 651.23 347.2 651.49 355.25 651.01 363.31 649.83 371.41 648.4 379.45 646.35 387.58 643.72 395.85 641.01 404.09 637.84 412.5 634.28 421.07 630.85 429.64 627.24 438.17 623.54 446.63 620.14 455.08 616.73 463.41 613.35 471.55 610.37 479.62 607.45 487.42 604.6 494.87 602.15 502.14 599.75 508.94 597.38 515.16 594.33 523.73 588.27 536.73 585.03 541.06 577.85 546.56 563.94 554.53 557.92 559.58 553.72 564.52 549.09 570.58 544.06 577.82 538.95 586.37 533.44 595.88 527.55 606.09 521.59 616.75 515.26 627.3 508.6 637.17 501.89 646.05 494.86 653.23 487.54 658.23 480.19 661.09 472.57 661.32 464.72 658.92 456.85 654.63 448.76 648.41 440.47 640.85 432.18 633.23 423.71 625.8 415.08 619.34 406.45 614.97 397.87 612.7 389.36 612.63 380.85 615.04 372.42 619.15 364.08 624.39 355.74 630.63 347.5 636.68 339.36 641.89 331.23 646.18 323.2 648.59 315.31 648.84 307.41 647.2 299.64 643.27 292.02 637.27 284.4 629.7 276.94 620.65 269.65 610.59 262.37 599.99 255.28 589.15 248.4 578.42 241.55 568.14 234.91 558.46 228.54 549.51 222.2 541.47 216.14 534.24 210.38 527.74 204.68 522.1 199.3 516.98 194.27 512.23 189.33 508.04 184.76 503.93 180.58 499.76 174.67 493.74 165.17 480.05 161.63 472.06 159.55 466.53 157.92 460.47 156.78 453.91 155.74 447.3 155.18 440.21 155.1 432.65 155.1 425.07 155.56 417.05 156.51 408.62 157.49 400.19 158.9 391.55 160.7 382.76 162.5 373.97 164.66 365.01 167.17 355.93 169.62 346.86 172.39 337.66 175.45 328.39 178.43 319.15 181.69 309.87 185.2 300.62 188.6 291.48 192.26 282.45 196.14 273.63 199.91 265.08 203.91 256.87 208.12 249.15 212.23 241.87 216.56 235.22 221.1 229.32 225.54 223.99 230.21 219.49 235.1 215.88 242.43 211.62 258.12 206.96 266.5 205.71 272.12 204.56 277.98 203.24 284.06 201.54 290.12 198.93 296.42 195.68 302.94 191.72 309.44 186.77 316.17 181.23 323.13 175.3 330.07 168.94 337.23 162.74 344.6 157.07 351.96 151.95 359.53 148.01 367.3 145.56 375.06 144.38 383.03 144.92 391.2 147.15" stroke-dasharray="0 0" transform="rotate(29.0625, 400, 400)" opacity="0.52"></path><path d="M393.83 157.42C401.69 160.63 409.56 164.92 417.43 169.91 425.31 174.94 433.2 179.99 441.08 184.76 448.97 188.69 456.87 191.95 464.74 194.48 472.65 195.94 480.54 196.76 488.39 197.11 496.28 196.77 504.14 196.39 511.94 196.19 519.76 195.98 527.52 196.39 535.18 197.56 542.84 199.24 550.39 201.92 557.77 205.58 565.12 209.95 572.27 215.29 579.17 221.47 585.98 228.25 592.49 235.7 598.64 243.66 604.63 251.96 610.2 260.58 615.29 269.38 620.16 278.27 624.48 287.2 628.22 296.11 631.66 304.95 634.48 313.71 636.62 322.36 638.45 330.89 639.6 339.33 640.05 347.67 640.21 355.91 639.7 364.11 638.54 372.26 637.18 380.37 635.24 388.48 632.76 396.61 630.22 404.73 627.25 412.89 623.89 421.09 620.66 429.29 617.25 437.33 613.72 445.17 610.46 452.99 607.16 460.58 603.87 467.87 600.93 475.09 598.02 481.94 595.16 488.36 591.42 497.5 584.5 512.66 581.17 518.47 574.74 526.84 563.54 536.09 558.9 539.68 555.69 543.03 552.11 547.08 548.18 551.97 544.2 558.05 539.85 565.12 535.12 573.16 530.33 582.19 525.16 591.88 519.65 601.93 514.07 612.1 508.15 621.86 501.91 630.73 495.61 638.47 489.01 644.47 482.13 648.36 475.22 650.28 468.04 649.8 460.62 646.99 453.19 642.56 445.53 636.48 437.67 629.28 429.8 622.12 421.74 615.16 413.51 609.07 405.29 604.89 397.09 602.58 388.95 602.24 380.82 604.16 372.74 607.67 364.74 612.28 356.74 617.96 348.82 623.64 341.01 628.72 333.19 633.2 325.48 636.13 317.89 637.22 310.3 636.71 302.83 634.11 295.5 629.54 288.19 623.44 281.02 615.79 274.03 606.94 267.05 597.34 260.25 587.19 253.66 576.86 247.11 566.64 240.77 556.72 234.68 547.28 228.64 538.49 222.86 530.34 217.37 522.84 211.96 516.1 206.85 509.91 202.08 504.16 197.4 498.99 193.07 494.06 189.12 489.23 183.55 482.44 174.62 468.23 171.32 460.4 169.38 455.08 167.88 449.33 166.84 443.14 165.9 436.93 165.42 430.27 165.39 423.16 165.44 416.04 165.94 408.49 166.89 400.51 167.88 392.53 169.29 384.33 171.07 375.96 172.84 367.59 174.97 359.07 177.42 350.43 179.83 341.83 182.54 333.13 185.53 324.41 188.45 315.77 191.63 307.16 195.05 298.66 198.38 290.32 201.95 282.19 205.74 274.37 209.42 266.85 213.33 259.76 217.43 253.21 221.44 247.09 225.66 241.62 230.08 236.88 236.68 230.86 250.79 223.04 258.32 220.89 265.97 219.08 282.29 215.15 290.96 212.01 296.78 208.87 302.83 205.12 309.09 200.73 315.32 195.47 321.78 189.77 328.45 183.8 335.1 177.55 341.97 171.57 349.04 166.19 356.1 161.4 363.37 157.78 370.84 155.58 378.3 154.59 385.96 155.21 393.82 157.42" stroke-dasharray="0 0" transform="rotate(31.96875, 400, 400)" opacity="0.23"></path><path d="M396.63 167.68C404.19 170.79 411.76 174.92 419.33 179.75 426.91 184.65 434.5 189.64 442.08 194.42 449.68 198.49 457.27 201.99 464.85 204.84 472.44 206.68 480.02 207.91 487.55 208.64 495.11 208.65 502.63 208.49 510.08 208.36 517.54 208.07 524.92 208.2 532.18 208.92 539.44 209.98 546.56 211.87 553.5 214.62 560.4 217.96 567.09 222.21 573.51 227.3 579.84 232.96 585.87 239.35 591.53 246.33 597.04 253.71 602.14 261.52 606.77 269.64 611.19 277.95 615.1 286.43 618.45 294.97 621.54 303.56 624.04 312.14 625.92 320.66 627.52 329.15 628.5 337.56 628.83 345.87 628.92 354.13 628.4 362.31 627.27 370.4 625.98 378.46 624.15 386.45 621.82 394.38 619.44 402.3 616.66 410.17 613.51 417.96 610.47 425.76 607.24 433.29 603.89 440.52 600.77 447.74 597.6 454.63 594.4 461.15 591.52 467.6 588.64 473.64 585.78 479.2 581.98 487.13 574.82 500.14 571.34 505.2 564.65 513.41 553.34 525.1 548.79 530.3 545.68 534.77 542.24 539.96 538.48 545.95 534.7 552.94 530.58 560.74 526.12 569.28 521.61 578.5 516.76 588.08 511.58 597.72 506.36 607.19 500.81 616.03 494.95 623.82 489.05 630.4 482.86 635.26 476.39 638.12 469.9 639.18 463.14 638.1 456.15 634.96 449.14 630.47 441.9 624.57 434.46 617.74 427.01 611.02 419.37 604.52 411.55 598.81 403.73 594.81 395.93 592.47 388.17 591.89 380.41 593.37 372.7 596.3 365.06 600.31 357.42 605.4 349.84 610.64 342.36 615.52 334.89 620.04 327.5 623.33 320.23 625.09 312.97 625.53 305.82 624.11 298.81 620.88 291.81 616.22 284.96 609.99 278.27 602.47 271.61 594.06 265.13 584.89 258.85 575.26 252.6 565.48 246.57 555.71 240.78 546.16 235.04 536.99 229.56 528.27 224.36 520.06 219.23 512.45 214.4 505.33 209.9 498.68 205.48 492.56 201.4 486.75 197.69 481.16 194.08 475.95 190.84 470.78 188 465.57 184.11 457.95 178.55 441.74 176.93 432.9 176.08 426.9 175.67 420.53 175.7 413.77 175.79 407.01 176.32 399.85 177.28 392.32 178.28 384.79 179.67 377.06 181.42 369.19 183.16 361.34 185.25 353.37 187.64 345.32 190 337.32 192.65 329.3 195.56 321.32 198.41 313.44 201.52 305.66 204.85 298.08 208.11 290.69 211.59 283.59 215.28 276.86 218.88 270.43 222.68 264.47 226.68 259.07 232.65 251.85 245.42 241.18 252.23 237.69 259.12 234.98 273.81 231.08 281.61 229.07 286.83 227.11 292.26 224.79 297.89 221.99 303.49 218.35 309.3 214.13 315.31 209.38 321.3 203.91 327.5 198.11 333.89 192.18 340.27 186.1 346.86 180.38 353.64 175.31 360.41 170.87 367.39 167.57 374.55 165.63 381.71 164.81 389.07 165.5 396.62 167.68" stroke-dasharray="0 0" transform="rotate(34.875, 400, 400)" opacity="0.35"></path><path d="M399.54 177.95C406.78 180.95 414.04 184.92 421.3 189.56 428.57 194.32 435.85 199.21 443.12 203.99 450.4 208.16 457.68 211.86 464.93 214.99 472.19 217.2 479.43 218.84 486.62 219.97 493.83 220.35 500.98 220.49 508.05 220.55 515.12 220.31 522.1 220.33 528.95 220.76 535.78 221.37 542.46 222.64 548.95 224.62 555.39 227.07 561.6 230.33 567.55 234.36 573.4 238.92 578.95 244.21 584.14 250.12 589.18 256.46 593.82 263.3 598.02 270.53 602.02 278.03 605.53 285.8 608.53 293.73 611.29 301.78 613.5 309.92 615.14 318.06 616.54 326.24 617.37 334.38 617.6 342.45 617.63 350.52 617.09 358.5 616.01 366.37 614.78 374.23 613.07 381.99 610.88 389.63 608.67 397.27 606.07 404.78 603.12 412.15 600.27 419.52 597.23 426.55 594.05 433.23 591.08 439.89 588.03 446.17 584.95 452.05 580.71 460.59 572.63 475.33 568.77 481.49 565.29 487.16 558.33 496.66 554.74 500.87 551.21 505.44 543.33 516.07 538.85 522.86 535.82 528.35 532.5 534.5 528.89 541.34 525.28 548.98 521.36 557.22 517.13 565.95 512.87 575.06 508.3 584.27 503.43 593.27 498.52 601.89 493.31 609.71 487.81 616.37 482.28 621.82 476.47 625.6 470.4 627.51 464.3 627.82 457.95 626.23 451.36 622.84 444.76 618.35 437.94 612.67 430.91 606.22 423.88 599.95 416.65 593.89 409.24 588.54 401.84 584.73 394.43 582.39 387.06 581.59 379.69 582.66 372.36 585.05 365.08 588.47 357.81 592.97 350.6 597.73 343.47 602.31 336.34 606.75 329.31 610.25 322.37 612.5 315.45 613.71 308.64 613.31 301.96 611.29 295.3 607.97 288.78 603.14 282.42 597.01 276.1 589.91 269.94 581.9 263.97 573.24 258.05 564.21 252.34 554.95 246.86 545.66 241.44 536.51 236.26 527.6 231.35 519.02 226.52 510.84 221.97 503.08 217.74 495.71 213.59 488.79 209.77 482.2 206.29 475.89 202.91 469.93 199.89 464.12 197.25 458.39 194.7 452.87 192.55 447.31 190.79 441.64 189.13 436.08 187.88 430.33 187.04 424.35 186.28 418.41 185.94 412.2 186.01 405.69 186.15 399.19 186.7 392.38 187.67 385.28 188.66 378.17 190.04 370.94 191.75 363.63 193.46 356.34 195.5 348.99 197.83 341.64 200.13 334.34 202.72 327.09 205.55 319.96 208.33 312.93 211.35 306.09 214.6 299.51 217.77 293.11 221.16 287.05 224.75 281.41 230.11 273.58 241.67 260.95 247.85 256.27 254.09 252.46 267.38 247.16 274.44 245.16 281.59 242.76 296.78 236.19 304.82 231.43 310.2 227.33 315.79 222.73 321.56 217.7 327.31 212.08 333.26 206.27 339.39 200.45 345.51 194.6 351.82 189.18 358.33 184.45 364.81 180.37 371.5 177.38 378.37 175.69 385.23 175.05 392.29 175.81 399.53 177.95" stroke-dasharray="0 0" transform="rotate(37.78125, 400, 400)" opacity="0.56"></path><path d="M402.46 188.21C409.38 191.1 416.33 194.9 423.27 199.36 430.22 203.95 437.17 208.73 444.11 213.46 451.06 217.69 458 221.54 464.9 224.92 471.82 227.47 478.7 229.49 485.52 231.02 492.35 231.82 499.11 232.32 505.78 232.64 512.45 232.58 519 232.64 525.42 232.95 531.81 233.28 538.04 234.11 544.08 235.5 550.05 237.22 555.8 239.63 561.27 242.72 566.65 246.26 571.73 250.48 576.46 255.32 581.05 260.56 585.25 266.35 589.04 272.58 592.64 279.11 595.79 285.98 598.46 293.1 600.92 300.4 602.87 307.86 604.3 315.4 605.51 323.03 606.2 330.68 606.36 338.3 606.34 345.96 605.8 353.55 604.76 361.05 603.61 368.56 602.01 375.96 599.97 383.22 597.91 390.48 595.49 397.59 592.74 404.52 590.07 411.45 587.21 418.02 584.21 424.22 581.39 430.4 578.47 436.2 575.5 441.61 571.37 449.48 563.35 463.2 559.47 469.1 555.9 474.75 548.75 485.05 545.07 490.11 541.47 495.78 533.55 509.13 529.13 517.34 526.16 523.65 522.94 530.52 519.46 537.93 515.98 545.91 512.24 554.28 508.21 562.89 504.18 571.64 499.86 580.25 495.26 588.44 490.64 596.09 485.74 602.83 480.58 608.36 472.66 614.1 455.52 615.22 446.35 610.66 440.14 606.22 433.72 600.79 427.1 594.73 420.48 588.89 413.66 583.27 406.66 578.28 399.67 574.66 392.67 572.32 385.69 571.34 378.72 572.03 371.77 573.92 364.87 576.77 357.98 580.69 351.14 584.93 344.37 589.15 337.62 593.41 330.94 596.97 324.36 599.55 317.8 601.34 311.34 601.78 305.01 600.8 298.7 598.7 292.52 595.19 286.51 590.41 280.52 584.68 274.7 577.95 269.07 570.44 263.49 562.41 258.1 553.95 252.94 545.26 247.84 536.5 242.97 527.76 238.37 519.18 233.83 510.82 229.58 502.72 225.62 494.93 221.74 487.47 218.17 480.3 214.93 473.41 211.78 466.82 208.97 460.43 206.53 454.19 204.17 448.16 202.18 442.19 200.57 436.22 199.05 430.37 197.91 424.45 197.17 418.41 196.5 412.43 196.22 406.29 196.34 399.96 196.52 393.65 197.09 387.14 198.05 380.43 199.05 373.73 200.39 366.99 202.07 360.25 203.75 353.53 205.73 346.84 208 340.22 210.23 333.66 212.74 327.22 215.49 320.96 218.2 314.81 221.13 308.9 224.28 303.29 229.01 295.31 239.36 281.66 244.94 276.15 250.59 271.41 262.65 264.36 269.06 261.79 275.54 259.26 289.29 253.92 296.56 250.5 301.42 247.51 306.46 244.12 311.68 240.31 316.86 235.81 322.23 230.92 327.77 225.7 333.29 220.04 338.99 214.29 344.88 208.65 350.74 203.07 356.79 197.99 363.01 193.62 369.23 189.89 375.63 187.23 382.2 185.78 388.77 185.3 395.52 186.12 402.45 188.21" stroke-dasharray="0 0" transform="rotate(40.6875, 400, 400)" opacity="0.81"></path><path d="M405.3 198.48C411.91 201.25 418.52 204.88 425.14 209.13 431.75 213.55 438.37 218.18 444.96 222.84 451.56 227.09 458.14 231.05 464.68 234.62 471.23 237.47 477.73 239.85 484.17 241.78 490.6 243 496.96 243.89 503.22 244.55 509.46 244.76 515.59 244.98 521.56 245.32 530.39 245.84 547 249.16 554.66 252.35 561.89 256.62 574.54 268.65 579.84 276.22 583.07 281.71 585.89 287.59 588.25 293.77 590.43 300.16 592.15 306.78 593.38 313.54 594.44 320.43 595.02 327.41 595.1 334.41 595.04 341.47 594.52 348.52 593.53 355.5 592.45 362.52 590.96 369.45 589.07 376.24 587.16 383.05 584.91 389.72 582.35 396.21 579.86 402.7 577.18 408.86 574.36 414.66 570.3 423.18 562.06 438.48 557.96 445.29 554.16 451.85 546.66 463.84 542.92 469.54 539.37 475.52 531.95 488.42 528 495.78 525.4 501.28 522.62 507.2 519.65 513.55 516.72 520.43 513.58 527.73 510.21 535.41 506.86 543.43 503.27 551.63 499.43 559.85 495.59 568.01 491.49 575.83 487.15 583.07 482.79 589.69 478.17 595.32 473.31 599.75 465.87 604.01 449.79 603.23 441.18 598.43 435.36 594.09 429.33 588.93 423.11 583.27 416.88 577.86 410.47 572.66 403.89 568.01 397.3 564.58 390.71 562.26 384.13 561.13 377.56 561.49 371 562.91 364.49 565.22 357.99 568.56 351.53 572.27 345.14 576.07 338.76 580.05 332.46 583.55 326.25 586.3 320.06 588.49 313.96 589.58 307.99 589.46 302.05 588.42 296.23 586.11 290.57 582.61 284.94 578.21 279.46 572.8 274.18 566.54 268.93 559.69 263.88 552.26 259.05 544.44 254.27 536.38 249.73 528.16 245.43 519.93 241.2 511.73 237.23 503.66 233.54 495.78 229.93 488.09 226.62 480.62 223.62 473.4 220.7 466.39 218.11 459.58 215.85 452.96 213.68 446.52 211.86 440.19 210.39 433.95 209.01 427.82 207.98 421.72 207.33 415.61 206.74 409.55 206.53 403.44 206.69 397.26 206.9 391.1 207.48 384.85 208.44 378.51 209.42 372.17 210.74 365.9 212.37 359.73 214.01 353.56 215.93 347.51 218.13 341.61 220.3 335.75 222.73 330.08 225.39 324.65 229.43 316.78 238.49 302.78 243.46 296.8 248.52 291.43 259.41 282.86 265.23 279.56 271.11 276.51 283.59 271 290.19 268.1 296.87 264.4 311 254.77 318.44 248.62 323.42 243.83 328.58 238.73 333.9 233.41 339.19 227.79 344.66 222.19 350.29 216.79 355.9 211.53 361.69 206.81 367.64 202.82 373.58 199.45 379.69 197.1 385.97 195.89 392.24 195.56 398.69 196.43 405.29 198.47" stroke-dasharray="0 0" transform="rotate(43.59375, 400, 400)" opacity="0.90"></path><path d="M407.99 208.74C414.27 211.39 420.55 214.84 426.82 218.88 433.09 223.11 439.35 227.58 445.59 232.12 451.83 236.35 458.04 240.38 464.2 244.1 470.36 247.2 476.47 249.9 482.51 252.19 494.55 254.83 506.24 256.42 517.34 257.7 528.28 258.16 538.5 259.8 547.71 263.1 556.57 267.23 564.23 273.52 570.43 281.7 576.08 290.9 580.13 301.6 582.41 313.26 583.33 319.29 583.81 325.47 583.84 331.74 583.76 338.08 583.25 344.46 582.32 350.83 581.31 357.24 579.93 363.61 578.18 369.9 576.42 376.2 574.34 382.4 571.96 388.47 569.65 394.54 567.15 400.32 564.5 405.81 560.66 413.91 552.77 428.76 548.78 435.58 546.3 440.12 543.76 444.47 541.18 448.69 536.56 457.54 531.64 466.36 526.4 475.61 521.65 486.24 516.35 498.04 510.42 511.2 504.72 525.81 498.19 541.25 490.84 556.56 483.51 570.94 475.25 582.79 466.11 590.54 459.11 593.45 444.03 591.08 435.96 586.15 430.5 581.96 424.85 577.1 419.02 571.84 413.18 566.86 407.17 562.06 400.99 557.75 394.82 554.51 388.63 552.22 382.45 550.97 376.28 551.02 370.13 552.02 364.01 553.83 357.9 556.6 351.83 559.77 345.83 563.11 339.84 566.75 333.92 570.06 328.09 572.84 316.49 577.17 305.28 577.5 294.64 573.57 284.14 566.5 274.27 555.82 265.22 542.69 256.37 528.2 248.42 512.86 241.53 497.55 234.92 482.5 229.44 468.03 225.23 454.31 223.24 447.63 221.58 441.1 220.25 434.7 219 428.39 218.08 422.17 217.51 416.02 217.01 409.92 216.85 403.86 217.05 397.82 217.29 391.8 217.88 385.79 218.83 379.8 219.8 373.8 221.08 367.96 222.66 362.29 225.18 353.9 231.5 338.18 235.23 330.97 237.76 326.31 240.51 321.95 243.45 317.92 249.18 310.06 255.67 303.57 262.82 298.48 269.71 293.36 277.28 289.17 285.42 285.49 293.35 280.67 301.91 275.37 311.06 269.09 320.04 260.74 329.66 251.19 339.88 240.88 344.95 235.39 350.18 230.01 355.56 224.9 360.93 220 366.45 215.67 372.13 212.06 377.8 209.06 383.62 207.01 389.6 206.02 395.57 205.84 401.7 206.75 407.98 208.74" stroke-dasharray="0 0" transform="rotate(46.5, 400, 400)" opacity="0.42"></path><path d="M410.44 219.01C422.32 224.54 434.19 232.43 445.92 241.32 457.66 249.31 469.23 256.44 480.48 262.23 491.69 265.69 502.51 268.07 512.71 269.91 522.77 270.66 532.08 272.1 540.42 274.74 548.44 277.77 555.31 282.58 560.83 289.1 565.87 296.41 569.44 305.22 571.4 315.13 572.87 325.54 572.78 336.63 571.12 348.02 569.22 359.55 566.01 371.12 561.58 382.45 557.38 393.77 552.5 404.29 547.19 414.02 542.47 423.86 537.43 433.17 532.18 442.19 527.56 451.77 522.63 461.63 517.39 472.09 512.61 483.68 507.32 496.31 501.48 509.89 495.87 524.29 489.54 538.91 482.48 552.76 475.48 565.24 467.65 574.97 459.03 580.72 450.4 582.91 440.95 580.48 430.76 573.84 420.55 565.66 409.62 556.22 398.07 547.48 386.53 542.47 374.95 540.91 363.5 542.59 352.09 547.8 340.85 553.9 329.94 559.28 319.11 563.95 308.66 565.45 298.76 563.35 289 558.59 279.84 550.41 271.45 539.62 263.27 527.26 255.93 513.59 249.59 499.45 243.51 485.15 238.49 471.06 234.66 457.52 231.1 444.25 228.76 431.49 227.73 419.27 226.92 407.2 227.39 395.45 229.21 384.1 231.13 372.75 234.22 362.29 238.3 352.82 242.31 343.41 247.24 335.09 252.93 328 258.46 320.98 264.71 315.13 271.58 310.35 278.25 305.26 285.54 300.71 293.38 296.32 301.03 290.67 309.27 284.39 318.05 277.18 326.68 268.21 335.9 258.36 345.66 248.14 355.34 237.61 365.61 228.29 376.42 221.35 387.19 216.71 398.55 215.83 410.43 219" stroke-dasharray="0 0" transform="rotate(49.40625, 400, 400)" opacity="0.93"></path><path d="M412.58 229.27C423.78 234.5 434.92 241.94 445.89 250.45 456.86 258.32 467.63 265.63 478.04 271.87 488.41 276.08 498.35 279.26 507.68 281.78 516.86 283.05 525.31 284.62 532.81 286.97 540.03 289.33 546.17 293.09 551.05 298.29 555.53 304.02 558.66 311.17 560.34 319.47 561.62 328.16 561.49 337.71 559.94 347.78 558.21 357.98 555.27 368.47 551.19 379.04 547.31 389.61 542.76 399.74 537.76 409.45 533.25 419.29 528.39 428.96 523.28 438.65 518.7 448.85 513.81 459.5 508.61 470.77 503.82 482.87 498.57 495.75 492.84 509.14 487.33 522.8 481.19 536.14 474.42 548.24 467.72 558.72 460.29 566.38 452.17 570.31 444.05 571.19 435.19 568.11 425.68 561.52 416.15 553.87 405.96 545.23 395.21 537.22 384.46 532.44 373.68 530.58 363.04 531.51 352.43 535.67 341.98 540.83 331.86 545.69 321.81 550.4 312.13 552.68 302.98 552.02 293.95 549.26 285.5 543.37 277.79 534.92 270.27 524.87 263.53 513.2 257.74 500.67 252.18 487.68 247.61 474.53 244.15 461.65 240.93 448.84 238.84 436.43 237.97 424.58 237.3 412.82 237.82 401.51 239.6 390.77 241.47 380.03 244.44 370.33 248.33 361.68 252.18 353.04 256.9 345.47 262.34 338.98 267.65 332.42 273.64 326.78 280.23 321.89 286.64 316.49 293.64 311.33 301.17 306.07 308.52 299.58 316.42 292.42 324.82 284.45 333.09 275.1 341.9 265.18 351.2 255.26 360.43 245.37 370.19 236.86 380.43 230.71 390.64 226.71 401.38 226.16 412.57 229.27" stroke-dasharray="0 0" transform="rotate(52.3125, 400, 400)" opacity="0.49"></path><path d="M414.35 239.54C424.84 244.45 435.25 251.43 445.44 259.5 455.62 267.16 465.58 274.53 475.16 281.11 484.68 285.97 493.76 289.91 502.23 293.15 510.56 295.08 518.17 297.05 524.89 299.45 531.35 301.55 536.81 304.68 541.11 308.97 545.07 313.51 547.82 319.33 549.26 326.26 550.37 333.47 550.22 341.61 548.79 350.47 547.22 359.42 544.54 368.9 540.8 378.76 537.24 388.62 533.02 398.4 528.33 408.08 524.05 417.88 519.39 427.81 514.45 437.96 509.96 448.52 505.15 459.58 500.04 471.16 495.29 483.25 490.11 495.8 484.51 508.44 479.12 520.91 473.18 532.64 466.69 542.8 460.28 551.27 453.23 557 445.59 559.34 437.95 559.14 429.66 555.61 420.8 549.2 411.92 542.12 402.45 534.27 392.48 526.95 382.52 522.43 372.54 520.32 362.7 520.59 352.88 523.76 343.24 527.96 333.91 532.17 324.64 536.66 315.74 539.37 307.33 539.75 299.04 538.59 291.3 534.7 284.26 528.41 277.38 520.66 271.24 511.14 265.99 500.5 260.94 489.22 256.8 477.45 253.7 465.65 250.81 453.76 248.96 442.09 248.24 430.87 247.69 419.69 248.25 408.96 249.98 398.83 251.8 388.69 254.63 379.6 258.34 371.53 262.01 363.41 266.51 356.26 271.68 350.02 276.75 343.57 282.47 337.79 288.75 332.5 294.89 326.58 301.58 320.69 308.76 314.55 315.8 307.29 323.35 299.43 331.36 290.95 339.25 281.46 347.64 271.72 356.46 262.28 365.22 253.14 374.46 245.49 384.12 240.13 393.76 236.76 403.86 236.5 414.35 239.54" stroke-dasharray="0 0" transform="rotate(55.21875, 400, 400)" opacity="0.47"></path><path d="M415.7 249.8C425.47 254.4 435.12 260.89 444.52 268.48 453.92 275.86 463.06 283.18 471.8 289.95 480.49 295.32 488.73 299.93 496.36 303.87 503.87 306.55 510.68 309.09 516.66 311.79 524.83 315.43 535.72 326.88 538.15 335.2 539.12 341.23 538.96 348.22 537.65 356.03 536.24 363.89 533.82 372.46 530.42 381.66 527.16 390.85 523.26 400.24 518.9 409.79 514.87 419.43 510.43 429.39 505.7 439.67 501.35 450.22 496.66 461.23 491.68 472.6 487 484.15 481.94 495.86 476.5 507.29 471.25 518.23 465.51 528.14 459.31 536.33 453.19 542.87 446.52 546.86 439.33 547.85 432.16 546.81 424.43 543.01 416.19 536.9 407.94 530.41 399.18 523.33 389.98 516.69 380.78 512.43 371.59 510.14 362.55 509.84 353.53 512.08 344.68 515.34 336.13 518.81 327.65 522.86 319.51 525.66 311.85 526.71 304.29 526.72 297.25 524.45 290.87 520.07 284.62 514.43 279.08 507.04 274.35 498.38 269.79 489.01 266.08 478.91 263.32 468.51 260.74 457.9 259.12 447.29 258.54 436.94 258.11 426.58 258.7 416.56 260.37 407.05 262.12 397.54 264.81 388.95 268.32 381.25 271.8 373.49 276.05 366.5 280.95 360.21 285.76 353.65 291.19 347.53 297.14 341.65 302.98 335.16 309.35 328.55 316.16 321.64 322.86 313.81 330.04 305.49 337.62 296.78 345.12 287.41 353.06 278.07 361.39 269.27 369.66 260.98 378.37 254.21 387.44 249.63 396.48 246.85 405.93 246.86 415.7 249.8" stroke-dasharray="0 0" transform="rotate(58.125, 400, 400)" opacity="0.88"></path><path d="M416.58 260.07C425.62 264.33 434.5 270.33 443.12 277.4 451.72 284.42 460.05 291.56 467.97 298.38 475.84 304.11 483.25 309.25 490.08 313.81 496.8 317.24 502.87 320.43 508.15 323.6 515.38 327.65 524.94 338.35 527.03 345.68 527.89 350.89 527.73 357 526.54 363.97 525.28 370.95 523.11 378.74 520.03 387.29 517.08 395.84 513.5 404.77 509.47 414.01 505.69 423.31 501.51 433.01 497.02 443.03 492.84 453.18 488.32 463.67 483.51 474.3 478.96 484.89 474.05 495.34 468.8 505.22 463.72 514.44 458.22 522.46 452.31 528.72 446.49 533.51 440.2 535.99 433.46 535.9 426.75 534.25 419.55 530.35 411.93 524.62 404.3 518.75 396.23 512.42 387.78 506.42 379.33 502.44 370.92 500.04 362.66 499.25 354.42 500.66 346.36 503.01 338.59 505.69 330.88 509.14 323.5 511.77 316.57 513.12 309.73 513.89 303.38 512.83 297.64 509.98 292.02 506.16 287.05 500.7 282.82 493.93 278.74 486.52 275.44 478.2 273.01 469.35 270.73 460.24 269.32 450.91 268.87 441.61 268.55 432.27 269.15 423.09 270.76 414.23 272.43 405.36 274.97 397.21 278.26 389.76 281.55 382.23 285.54 375.26 290.14 368.76 294.67 361.99 299.79 355.45 305.4 349 310.92 341.99 316.93 334.8 323.35 327.34 329.69 319.18 336.46 310.7 343.6 302.04 350.68 293.05 358.15 284.31 365.96 276.29 373.73 268.91 381.88 263.05 390.33 259.22 398.77 256.99 407.54 257.24 416.58 260.07" stroke-dasharray="0 0" transform="rotate(61.03125, 400, 400)" opacity="0.15"></path><path d="M416.98 270.33C425.27 274.26 433.37 279.76 441.2 286.27 449.02 292.86 456.54 299.71 463.65 306.43 470.72 312.35 477.35 317.86 483.42 322.92 492.07 328.92 505.75 339.27 510.48 344.62 514.1 350.09 516.59 364.4 515.46 373.48 514.34 379.78 512.4 386.9 509.64 394.82 506.98 402.74 503.73 411.11 500.02 419.82 496.53 428.57 492.63 437.7 488.4 447.07 484.43 456.46 480.12 466.02 475.52 475.51 471.15 484.79 466.43 493.71 461.41 501.86 456.54 509.29 451.3 515.46 445.71 519.96 440.2 523.2 434.29 524.45 428.01 523.55 421.75 521.5 415.09 517.66 408.06 512.38 401.04 507.13 393.64 501.52 385.93 496.16 378.22 492.47 370.58 490 363.09 488.81 355.62 489.5 348.33 491 341.34 492.89 334.38 495.62 327.75 497.87 321.54 499.23 312.56 500.23 297.37 494.06 291.42 487.07 287.81 481.44 284.89 474.85 282.77 467.57 280.78 460.04 279.57 452.07 279.24 443.93 279 435.72 279.62 427.45 281.14 419.27 282.72 411.09 285.11 403.38 288.18 396.13 291.25 388.8 294.97 381.81 299.26 375.09 303.5 368.13 308.28 361.24 313.52 354.34 318.69 347 324.32 339.47 330.34 331.74 336.28 323.56 342.62 315.21 349.29 306.9 355.91 298.5 362.89 290.54 370.16 283.41 377.4 276.99 384.96 272.01 392.79 268.9 400.6 267.18 408.68 267.63 416.98 270.33" stroke-dasharray="0 0" transform="rotate(63.9375, 400, 400)" opacity="0.43"></path><path d="M416.87 280.6C424.4 284.19 431.73 289.17 438.78 295.1 445.81 301.19 452.54 307.64 458.87 314.13 465.17 320.06 471.04 325.76 476.38 331.13 484 337.93 495.96 349.82 500.07 355.64 503.22 361.33 505.39 375.07 504.4 383.49 503.43 389.3 501.71 395.84 499.25 403.12 496.88 410.4 493.94 418.09 490.57 426.08 487.37 434.08 483.76 442.36 479.84 450.76 476.1 459.09 472.04 467.42 467.71 475.49 463.55 483.27 459.08 490.52 454.33 496.91 447.23 504.86 431.58 512.18 423 510.86 417.21 508.61 411.07 504.96 404.65 500.19 398.22 495.57 391.49 490.65 384.51 485.89 377.52 482.5 370.62 480.03 363.89 478.54 357.17 478.6 350.65 479.34 344.4 480.46 335.23 483.29 318.79 486.52 311.76 485.6 305.38 482.91 295.71 471.27 292.61 462.91 290.88 456.86 289.87 450.25 289.63 443.26 289.48 436.21 290.09 428.9 291.53 421.44 293.01 413.99 295.22 406.74 298.06 399.72 300.9 392.65 304.35 385.72 308.31 378.89 312.23 371.87 316.66 364.82 321.51 357.7 326.31 350.29 331.53 342.72 337.1 335.06 342.62 327.15 348.5 319.23 354.68 311.52 360.82 303.92 367.27 296.86 373.98 290.7 380.66 285.24 387.62 281.13 394.78 278.69 401.94 277.43 409.33 278.04 416.87 280.6" stroke-dasharray="0 0" transform="rotate(66.84375, 400, 400)" opacity="0.52"></path><path d="M416.26 290.86C423.03 294.1 429.59 298.56 435.86 303.9 442.12 309.43 448.08 315.39 453.66 321.51 459.21 327.28 464.36 332.96 469.02 338.46 475.67 345.76 486.04 358.93 489.59 365.25 492.33 371.3 494.23 384.94 493.36 392.88 492.53 398.31 491.04 404.33 488.87 410.95 486.77 417.57 484.15 424.49 481.12 431.59 478.21 438.69 474.92 445.91 471.32 453.11 467.86 460.21 464.09 467.13 460.06 473.67 456.16 479.9 451.97 485.51 447.54 490.24 440.9 495.89 426.36 499.9 418.46 497.92 413.14 495.64 407.54 492.28 401.71 488.06 395.88 484.06 389.81 479.81 383.53 475.63 377.26 472.54 371.09 470.12 365.1 468.42 356.23 468.02 339.71 470.24 332.27 471.53 319.42 471.5 305.18 461.97 302.53 455.47 301.05 450.72 300.21 445.33 300.06 439.43 299.97 433.48 300.58 427.11 301.92 420.41 303.29 413.71 305.32 406.99 307.92 400.32 310.52 393.62 313.67 386.89 317.29 380.15 320.88 373.29 324.93 366.33 329.37 359.31 333.77 352.12 338.56 344.84 343.66 337.57 348.72 330.22 354.11 323 359.77 316.1 365.39 309.43 371.29 303.37 377.4 298.21 383.5 293.7 389.83 290.41 396.32 288.58 402.81 287.73 409.48 288.47 416.26 290.86" stroke-dasharray="0 0" transform="rotate(69.75, 400, 400)" opacity="0.51"></path><path d="M415.17 301.13C427.18 307.46 438.3 317.3 448.04 328.62 457.68 339.19 465.79 349.73 471.87 359.7 477.69 368.2 481.39 376.91 482.6 386.21 483.61 395.01 482.29 405.28 478.48 417.15 474.88 429.01 469.45 441.41 462.84 453.34 456.65 464.79 449.25 474.78 441.02 481.79 433.09 487.02 424.12 488.17 414.39 484.81 404.75 480.35 394.19 473.3 383.05 465.36 371.91 460.81 361.27 458.11 351.61 456.96 342.03 458.58 333.56 459.4 326.73 458.27 320.09 457.1 315.2 452.85 312.52 445.7 310.08 438.15 309.89 428.18 312.3 416.33 314.85 404.47 319.68 391.94 326.19 379.21 332.67 366.26 340.78 352.82 350.01 339.64 359.15 326.65 369.46 314.87 380.45 306 391.42 299.44 403.15 297.49 415.17 301.13" stroke-dasharray="0 0" transform="rotate(72.65625, 400, 400)" opacity="0.28"></path><path d="M413.63 311.39C424.1 316.91 433.71 325.47 442.07 335.51 450.34 345.28 457.25 355.38 462.39 365.19 467.36 374.01 470.5 382.92 471.53 392.04 472.44 400.76 471.35 410.35 468.1 420.78 464.99 431.21 460.24 441.51 454.38 450.9 448.83 459.87 442.16 467.15 434.74 471.7 427.55 475.01 419.46 475.03 410.77 471.6 402.16 467.7 392.81 461.82 383.07 455.1 373.32 450.95 364.1 447.92 355.8 445.96 347.56 446.26 340.33 446.11 334.55 444.66 328.9 443.56 324.79 440.15 322.6 434.34 320.58 428.36 320.5 420.09 322.69 409.8 324.98 399.52 329.27 388.28 335.04 376.7 340.79 365.08 347.99 353.11 356.17 341.66 364.3 330.68 373.44 321.05 383.15 314.13 392.84 309.14 403.15 307.98 413.63 311.39" stroke-dasharray="0 0" transform="rotate(75.5625, 400, 400)" opacity="0.23"></path><path d="M411.69 321.66C420.63 326.35 428.76 333.6 435.79 342.24 442.75 350.91 448.53 360.15 452.81 369.33 456.99 377.93 459.63 386.62 460.51 395.25 461.32 403.62 460.43 412.36 457.71 421.31 455.09 430.26 451.02 438.55 445.95 445.64 441.09 452.41 435.22 457.47 428.69 460.18 422.32 462.15 415.19 461.55 407.59 458.39 400.05 455.16 391.94 450.4 383.58 444.83 375.22 441.14 367.38 438 360.39 435.49 350.42 434.17 336.21 428.77 332.76 422.33 331.12 417.41 331.13 410.54 333.07 401.82 335.1 393.1 338.82 383.42 343.82 373.43 348.82 363.51 355.06 353.45 362.15 344.05 369.21 335.23 377.13 327.74 385.51 322.64 393.89 319.04 402.75 318.54 411.69 321.66" stroke-dasharray="0 0" transform="rotate(78.46875, 400, 400)" opacity="0.91"></path><path d="M409.4 331.92C416.81 335.8 423.51 341.74 429.26 348.89 434.98 356.22 439.7 364.23 443.18 372.34 446.61 380.19 448.78 388.15 449.52 395.92 450.22 403.55 449.54 411.23 447.32 418.66 445.18 426.09 441.79 432.54 437.53 437.71 430.91 444.38 414.33 448.3 404.82 445.26 398.41 442.74 391.57 439.04 384.59 434.57 377.6 431.38 371.11 428.33 365.38 425.55 357.21 423.09 345.72 416.47 343 410.69 341.71 406.46 341.79 400.74 343.46 393.56 345.19 386.37 348.33 378.44 352.54 370.33 356.75 362.35 362.01 354.41 367.96 347.21 373.91 340.52 380.57 335.06 387.58 331.57 394.6 329.17 401.99 329.15 409.4 331.92" stroke-dasharray="0 0" transform="rotate(81.375, 400, 400)" opacity="0.82"></path><path d="M406.84 342.19C418.62 348.92 428.01 361.17 433.53 374.53 438.92 387.68 440.43 401.41 436.94 413.22 433.63 425.02 426.3 432.47 417.15 434.28 408.24 435.61 397.26 431.84 386.04 424.3 374.82 419.98 365.42 414.94 359.39 409.3 353.48 405.21 351.14 397.64 353.85 386.26 356.71 374.87 364.06 361.99 373.63 351.46 383.23 342.47 395.05 338.32 406.84 342.19" stroke-dasharray="0 0" transform="rotate(84.28125, 400, 400)" opacity="0.37"></path><path d="M404.07 352.45C412.85 357.36 419.8 366.31 423.89 376.3 427.92 386.41 429.1 397.04 426.55 405.8 424.1 414.57 418.56 419.69 411.59 420.76 404.75 421.82 396.36 419.38 387.91 414.04 379.46 410.49 372.49 405.71 368.11 400.37 363.78 395.99 362.12 389.49 364.23 381.01 366.43 372.54 371.98 363.73 379.18 357.09 386.42 351.37 395.29 349.19 404.07 352.45" stroke-dasharray="0 0" transform="rotate(87.1875, 400, 400)" opacity="0.82"></path><path d="M401.19 362.72C412.81 369.65 419.5 385.96 416.16 397.52 413.01 409.07 401.46 411.11 390.14 403.78 378.81 399.57 371.76 389.86 374.62 378.6 377.64 367.33 389.55 358.74 401.19 362.72" stroke-dasharray="0 0" transform="rotate(90.09375, 400, 400)" opacity="0.62"></path></g></svg>