<svg xmlns="http://www.w3.org/2000/svg" version="1.1" xmlns:xlink="http://www.w3.org/1999/xlink" xmlns:svgjs="http://svgjs.dev/svgjs" viewBox="0 0 800 800"><defs><linearGradient x1="50%" y1="0%" x2="50%" y2="100%" id="ccchaos-grad"><stop stop-color="hsl(265, 55%, 30%)" stop-opacity="1" offset="0%"></stop><stop stop-color="hsl(265, 55%, 60%)" stop-opacity="1" offset="100%"></stop></linearGradient></defs><g stroke-width="3" stroke="url(#ccchaos-grad)" fill="none" stroke-linecap="round"><path d="M375.15 43.57C383.54 42.74 399.93 42.63 407.91 43.37 418.5 44.94 428.76 47.57 438.7 51.17 448.68 55.19 458.39 60.06 467.88 65.65 477.49 71.42 486.99 77.75 496.43 84.51 506.15 91.19 515.97 98.17 525.98 105.34 536.44 112.23 547.25 119.25 558.5 126.33 570.34 133.05 582.71 139.83 595.63 146.67 609.15 153.14 623.17 159.73 637.6 166.45 652.35 172.88 667.25 179.53 682.02 186.41 696.55 193.1 710.46 200.11 723.39 207.45 735.3 214.71 745.63 222.35 754.03 230.39 760.71 238.4 765.04 246.84 766.83 255.68 766.7 264.53 764.11 273.8 759.18 283.45 752.94 293.12 745.05 303.17 735.97 313.56 726.99 323.97 717.92 334.7 709.37 345.74 705.72 351.25 702.39 356.84 699.46 362.51 697.12 368.17 695.27 373.9 693.94 379.71 693.3 385.51 693.22 391.32 693.69 397.12 694.83 402.93 696.48 408.73 698.58 414.54 704.47 426.17 711.59 437.81 719.41 449.46 728.1 461.18 736.4 472.94 743.77 484.76 750.48 496.68 755.39 508.7 758.22 520.81 759.42 533.06 758.2 545.43 754.59 557.9 749.2 570.5 741.61 583.17 732.12 595.86 721.28 608.59 709.02 621.24 695.7 633.68 681.74 645.97 667.23 657.88 652.47 669.23 637.7 680.15 623.04 690.26 608.65 699.38 594.63 707.75 581.04 714.9 567.92 720.69 555.3 725.52 543.12 728.88 531.36 730.73 520.03 731.71 509 731.31 498.2 729.66 487.7 727.58 477.3 724.65 466.94 721.12 456.73 717.93 446.45 714.71 436.05 711.74 425.72 709.92 415.19 708.85 404.47 708.71 396.41 709.65 380.02 713.46 371.69 716.3 366.11 718.63 360.56 721.13 355.02 723.75 349.49 726.63 343.98 729.56 338.5 732.5 327.55 738.72 316.74 744.46 306.13 749.38 295.58 753.84 285.26 756.92 275.24 758.43 265.3 758.84 255.69 757.43 246.46 754.23 237.33 749.79 228.6 743.65 220.3 736 212.07 727.38 204.27 717.56 196.9 706.79 189.55 695.54 182.58 683.69 176 671.49 169.32 659.25 162.96 646.92 156.9 634.64 150.62 622.65 144.57 610.83 138.72 599.24 132.58 588.06 126.59 577.11 120.78 566.39 114.64 556.05 108.68 545.86 102.93 535.77 96.92 525.96 91.18 516.15 85.77 506.3 80.24 496.62 75.13 486.79 70.51 476.78 65.92 466.86 61.91 456.69 58.55 446.25 55.33 435.84 52.82 425.12 51.06 414.11 49.96 405.81 48.83 388.84 48.81 380.16 49.09 371.45 50.72 354.04 52.04 345.35 54.07 333.79 56.81 322.31 60.19 310.94 63.65 299.63 67.69 288.49 72.23 277.56 76.72 266.73 81.62 256.17 86.88 245.94 91.94 235.84 97.27 226.13 102.83 216.85 108.1 207.73 113.56 199.09 119.19 190.97 124.52 183.01 130.04 175.59 135.77 168.72 141.26 161.98 147.02 155.76 153.08 150.07 159.01 144.41 165.32 139.2 172.02 134.42 178.72 129.52 185.88 124.94 193.48 120.64 201.18 116.06 209.36 111.65 217.98 107.37 226.75 102.67 235.96 98.04 245.56 93.48 255.3 88.46 265.4 83.51 275.8 78.68 286.31 73.5 297.07 68.53 308.01 63.89 319.02 59.13 330.17 54.87 341.38 51.24 349.81 48.72 366.7 44.85 375.14 43.57" stroke-dasharray="0 0" transform="rotate(0, 400, 400)" opacity="1.00"></path><path d="M372.66 53.77C383.49 52.58 394.08 52.48 404.41 53.44 414.74 54.91 424.84 57.42 434.7 60.88 444.61 64.76 454.35 69.46 463.96 74.89 473.7 80.52 483.42 86.71 493.16 93.34 503.17 99.93 513.35 106.83 523.76 113.95 534.59 120.83 545.79 127.85 557.4 134.95 569.52 141.72 582.12 148.55 595.18 155.44 608.69 161.99 622.59 168.63 636.74 175.37 651.06 181.83 665.36 188.47 679.37 195.31 693.01 201.95 705.9 208.86 717.72 216.07 728.47 223.16 737.62 230.6 744.87 238.4 750.48 246.15 753.87 254.29 754.89 262.81 754.17 271.32 751.2 280.23 746.12 289.52 739.94 298.8 732.29 308.47 723.62 318.48 715.13 328.5 706.62 338.85 698.61 349.54 692.25 360.21 687.32 371.21 684.16 382.51 683.57 393.82 685 405.17 688.25 416.55 693.64 427.94 700.2 439.4 707.45 450.89 715.6 462.43 723.46 474.06 730.55 485.75 737.15 497.53 742.17 509.4 745.32 521.37 747.06 533.44 746.58 545.61 743.89 557.84 739.55 570.15 733.11 582.48 724.81 594.76 715.19 607.02 704.11 619.13 691.89 630.96 678.94 642.58 665.31 653.75 651.29 664.31 637.12 674.39 622.9 683.65 608.81 691.9 594.96 699.43 581.41 705.76 568.24 710.78 555.47 714.93 543.08 717.71 531.09 719.09 519.48 719.72 508.17 719.12 497.13 717.39 486.37 715.35 475.76 712.57 465.26 709.29 454.91 706.39 444.57 703.51 434.19 700.89 423.88 699.37 413.47 698.55 402.95 698.59 392.44 700.14 381.78 702.66 371 706.11 360.21 710.88 349.55 716.11 339.05 721.52 328.56 727.45 318.25 732.93 308.18 737.67 298.14 742.04 288.36 745.15 278.89 746.82 269.48 747.51 260.41 746.52 251.71 743.85 243.07 740.03 234.82 734.59 226.98 727.68 219.18 719.83 211.77 710.78 204.76 700.75 197.72 690.19 191.04 678.97 184.7 667.29 178.24 655.51 172.05 643.54 166.12 631.52 159.97 619.69 154.01 607.96 148.23 596.39 142.15 585.15 136.21 574.1 130.42 563.26 124.33 552.75 118.39 542.39 112.66 532.14 106.68 522.17 100.97 512.22 95.57 502.28 90.06 492.5 84.95 482.64 80.33 472.65 75.74 462.76 71.72 452.67 68.34 442.39 65.12 432.14 62.59 421.64 60.81 410.9 59.28 400.17 58.53 389.18 58.59 377.96 58.91 366.73 60.04 355.54 61.92 344.43 64 333.34 66.77 322.35 70.18 311.51 73.69 300.72 77.75 290.11 82.3 279.76 86.8 269.48 91.71 259.48 96.95 249.84 101.99 240.3 107.3 231.15 112.82 222.43 118.05 213.85 123.46 205.73 129.03 198.12 134.29 190.63 139.72 183.64 145.34 177.17 150.7 170.79 156.31 164.88 162.17 159.46 167.89 154.03 173.94 148.99 180.34 144.34 186.71 139.54 193.49 135.01 200.68 130.72 207.92 126.14 215.62 121.7 223.74 117.37 231.96 112.64 240.6 107.96 249.64 103.35 258.78 98.31 268.28 93.34 278.09 88.5 287.99 83.34 298.16 78.41 308.54 73.81 318.97 69.12 329.57 64.92 340.28 61.34 351.01 57.97 361.81 55.4 372.65 53.77" stroke-dasharray="0 0" transform="rotate(2.90625, 400, 400)" opacity="0.20"></path><path d="M371.27 63.96C381.73 62.77 392.02 62.63 402.12 63.51 412.23 64.89 422.19 67.28 432 70.59 441.87 74.31 451.65 78.85 461.38 84.11 471.25 89.58 481.16 95.61 491.17 102.11 501.43 108.59 511.91 115.4 522.64 122.45 533.75 129.3 545.21 136.3 557.06 143.4 569.33 150.2 582 157.08 595.04 164.01 608.4 170.62 622.02 177.31 635.75 184.1 649.51 190.6 663.1 197.25 676.26 204.08 688.94 210.69 700.78 217.54 711.47 224.64 721.07 231.61 729.08 238.9 735.24 246.5 739.86 254.04 742.38 261.93 742.71 270.18 741.49 278.4 738.21 287 733.05 295.96 726.96 304.91 719.59 314.23 711.34 323.9 703.34 333.56 695.36 343.58 687.89 353.93 681.97 364.27 677.36 374.95 674.39 385.95 673.79 396.96 675.02 408.04 677.94 419.18 682.87 430.34 688.89 441.58 695.59 452.88 703.19 464.23 710.61 475.66 717.38 487.17 723.82 498.75 728.87 510.43 732.27 522.17 734.46 533.99 734.63 545.88 732.76 557.78 729.39 569.72 724.03 581.63 716.87 593.42 708.44 605.14 698.54 616.65 687.43 627.8 675.55 638.71 662.89 649.11 649.69 658.85 636.24 668.11 622.6 676.52 608.95 683.93 595.41 690.64 582.06 696.21 568.99 700.52 556.22 704.06 543.76 706.32 531.66 707.3 519.87 707.64 508.39 706.88 497.18 705.12 486.22 703.15 475.45 700.55 464.84 697.53 454.38 694.93 443.98 692.37 433.63 690.09 423.34 688.86 413.03 688.28 402.68 688.49 392.35 690.09 381.95 692.59 371.49 695.91 361.03 700.47 350.75 705.44 340.67 710.56 330.6 716.19 320.76 721.42 311.17 725.98 301.6 730.24 292.32 733.35 283.35 735.15 274.42 736.09 265.83 735.47 257.61 733.28 249.41 730.04 241.59 725.26 234.15 719.08 226.72 711.98 219.65 703.69 212.94 694.41 206.17 684.56 199.72 674 193.58 662.92 187.29 651.65 181.24 640.11 175.41 628.44 169.35 616.86 163.45 605.31 157.71 593.85 151.67 582.65 145.76 571.59 140 560.7 133.93 550.1 128.01 539.63 122.29 529.29 116.34 519.19 110.64 509.15 105.26 499.13 99.77 489.29 94.68 479.39 90.06 469.43 85.49 459.56 81.47 449.56 78.08 439.42 74.86 429.31 72.34 419.02 70.55 408.54 69.03 398.07 68.29 387.4 68.36 376.55 68.72 365.7 69.87 354.93 71.77 344.27 73.89 333.63 76.69 323.12 80.12 312.79 83.66 302.5 87.73 292.42 92.29 282.61 96.8 272.87 101.7 263.42 106.92 254.33 111.96 245.33 117.25 236.72 122.74 228.53 127.95 220.45 133.33 212.81 138.85 205.65 144.06 198.59 149.44 191.99 154.97 185.88 160.24 179.8 165.72 174.17 171.43 168.97 176.96 163.72 182.79 158.83 188.94 154.27 195.01 149.54 201.46 145.04 208.29 140.75 215.13 136.15 222.39 131.67 230.05 127.29 237.77 122.52 245.9 117.8 254.41 113.13 262.99 108.08 271.94 103.11 281.2 98.27 290.53 93.14 300.14 88.26 309.98 83.7 319.87 79.08 329.95 74.95 340.19 71.43 350.43 68.11 360.81 65.58 371.26 63.96" stroke-dasharray="0 0" transform="rotate(5.8125, 400, 400)" opacity="0.42"></path><path d="M371.05 74.15C381.17 72.96 391.18 72.78 401.09 73.59 411.01 74.88 420.85 77.14 430.61 80.3 440.44 83.86 450.26 88.23 460.1 93.31 470.07 98.6 480.15 104.47 490.36 110.81 500.82 117.17 511.51 123.87 522.47 130.82 533.74 137.62 545.36 144.59 557.3 151.68 569.58 158.49 582.18 165.4 595.05 172.36 608.12 179.03 621.33 185.77 634.5 192.6 647.59 199.15 660.37 205.82 672.61 212.65 684.29 219.26 695.05 226.07 704.62 233.11 713.1 240 720.02 247.16 725.16 254.62 728.86 261.98 730.61 269.68 730.32 277.7 728.67 285.68 725.17 294.01 719.97 302.69 714.02 311.34 706.95 320.35 699.13 329.71 691.62 339.05 684.17 348.75 677.2 358.79 671.71 368.81 667.42 379.19 664.61 389.9 664 400.61 665.07 411.43 667.67 422.31 672.15 433.22 677.65 444.22 683.81 455.29 690.88 466.4 697.83 477.6 704.27 488.88 710.5 500.2 715.53 511.61 719.11 523.06 721.65 534.56 722.38 546.09 721.24 557.59 718.75 569.08 714.39 580.5 708.31 591.73 701.03 602.86 692.27 613.7 682.29 624.15 671.51 634.31 659.85 643.92 647.57 652.84 634.93 661.28 621.98 668.86 608.9 675.46 595.82 681.41 582.81 686.27 569.97 689.94 557.34 692.92 544.96 694.73 532.87 695.38 521.03 695.49 509.47 694.62 498.18 692.87 487.1 691 476.24 688.59 465.56 685.84 455.03 683.54 444.62 681.31 434.29 679.35 424.04 678.39 413.83 678.04 403.64 678.4 393.48 680.06 383.31 682.52 373.14 685.72 362.97 690.07 353.04 694.78 343.35 699.62 333.66 704.96 324.23 709.94 315.08 714.3 305.94 718.44 297.1 721.54 288.59 723.43 280.09 724.58 271.92 724.29 264.11 722.54 256.31 719.84 248.85 715.69 241.76 710.18 234.64 703.82 227.85 696.28 221.4 687.74 214.85 678.62 208.59 668.75 202.6 658.3 196.43 647.61 190.48 636.56 184.72 625.31 178.72 614.08 172.86 602.8 167.14 591.54 161.13 580.47 155.23 569.49 149.47 558.63 143.42 548.01 137.52 537.51 131.81 527.13 125.88 516.97 120.2 506.87 114.83 496.83 109.38 486.94 104.31 477.04 99.7 467.12 95.16 457.28 91.16 447.37 87.77 437.36 84.58 427.4 82.06 417.3 80.28 407.07 78.78 396.86 78.05 386.49 78.14 376 78.52 365.51 79.69 355.14 81.6 344.92 83.75 334.7 86.57 324.66 90.01 314.82 93.56 305.02 97.64 295.45 102.19 286.16 106.7 276.92 111.6 268 116.8 259.42 121.83 250.93 127.11 242.81 132.58 235.11 137.78 227.48 143.14 220.29 148.63 213.54 153.81 206.85 159.14 200.6 164.62 194.79 169.82 188.99 175.2 183.59 180.79 178.57 186.18 173.47 191.84 168.68 197.77 164.19 203.6 159.49 209.77 155 216.28 150.69 222.77 146.07 229.65 141.55 236.89 137.11 244.17 132.3 251.84 127.54 259.86 122.84 267.94 117.77 276.38 112.8 285.13 107.98 293.93 102.89 303.03 98.06 312.38 93.56 321.75 89.01 331.36 84.96 341.16 81.5 350.96 78.25 360.93 75.76 371.04 74.15" stroke-dasharray="0 0" transform="rotate(8.71875, 400, 400)" opacity="0.37"></path><path d="M372.01 84.34C381.81 83.15 391.58 82.94 401.3 83.67 411.05 84.87 420.78 87 430.5 90.01 440.29 93.41 450.13 97.6 460.03 102.48 470.08 107.6 480.27 113.29 490.62 119.46 501.2 125.67 512.01 132.24 523.08 139.08 534.41 145.81 546.05 152.72 557.95 159.77 570.11 166.58 582.5 173.49 595.05 180.48 607.7 187.19 620.36 193.97 632.87 200.83 645.19 207.43 657.1 214.14 668.37 220.98 679.02 227.6 688.7 234.4 697.16 241.4 704.57 248.23 710.46 255.31 714.64 262.65 717.51 269.89 718.56 277.42 717.75 285.26 715.75 293.03 712.08 301.13 706.91 309.57 701.13 317.96 694.38 326.7 687 335.78 679.97 344.84 673.03 354.24 666.55 363.98 661.46 373.71 657.48 383.79 654.84 394.22 654.22 404.64 655.13 415.17 657.43 425.79 661.49 436.42 666.49 447.15 672.13 457.96 678.67 468.8 685.16 479.72 691.24 490.71 697.22 501.73 702.18 512.8 705.86 523.9 708.68 535.01 709.87 546.11 709.36 557.14 707.66 568.13 704.22 578.98 699.15 589.61 692.94 600.08 685.3 610.23 676.43 619.93 666.75 629.34 656.13 638.15 644.81 646.26 633.07 653.9 620.9 660.7 608.5 666.53 596 671.77 583.46 675.97 571 679.07 558.64 681.57 546.46 682.99 534.51 683.36 522.74 683.3 511.21 682.36 499.94 680.67 488.85 678.92 477.96 676.72 467.28 674.25 456.74 672.24 446.34 670.32 436.07 668.67 425.88 667.97 415.77 667.82 405.74 668.32 395.74 670.02 385.78 672.44 375.88 675.53 365.98 679.67 356.36 684.13 347.02 688.7 337.67 693.76 328.61 698.48 319.86 702.65 311.1 706.65 302.65 709.71 294.53 711.68 286.4 712.99 278.6 712.99 271.15 711.65 263.68 709.44 256.54 705.86 249.73 701.01 242.87 695.35 236.31 688.54 230.06 680.74 223.68 672.35 217.56 663.19 211.67 653.41 205.6 643.33 199.71 632.84 194 622.08 188.03 611.27 182.19 600.33 176.48 589.36 170.48 578.5 164.58 567.68 158.82 556.95 152.78 546.4 146.89 535.94 141.19 525.59 135.29 515.42 129.64 505.33 124.29 495.3 118.87 485.41 113.84 475.54 109.26 465.67 104.75 455.9 100.79 446.08 97.42 436.22 94.26 426.4 91.77 416.49 90 406.51 88.53 396.54 87.82 386.47 87.91 376.32 88.31 366.17 89.5 356.18 91.42 346.38 93.57 336.58 96.4 326.98 99.84 317.61 103.39 308.27 107.47 299.17 112 290.37 116.51 281.62 121.39 273.18 126.57 265.09 131.6 257.06 136.86 249.39 142.32 242.13 147.51 234.92 152.86 228.12 158.33 221.74 163.51 215.38 168.81 209.43 174.25 203.88 179.4 198.3 184.73 193.08 190.22 188.21 195.51 183.22 201.03 178.51 206.79 174.05 212.42 169.38 218.36 164.88 224.61 160.54 230.8 155.88 237.34 151.32 244.23 146.83 251.12 141.98 258.37 137.18 265.98 132.45 273.6 127.39 281.58 122.43 289.87 117.63 298.19 112.6 306.82 107.82 315.72 103.39 324.63 98.93 333.8 94.95 343.2 91.56 352.59 88.38 362.2 85.94 372 84.35" stroke-dasharray="0 0" transform="rotate(11.625, 400, 400)" opacity="0.29"></path><path d="M374.11 94.54C383.62 93.35 393.16 93.09 402.71 93.76 412.28 94.86 421.9 96.87 431.56 99.72 441.29 102.96 451.12 106.96 461.06 111.65 471.12 116.58 481.36 122.08 491.77 128.06 502.37 134.11 513.21 140.53 524.28 147.24 535.56 153.86 547.08 160.7 558.81 167.68 570.71 174.47 582.76 181.37 594.86 188.35 606.98 195.09 618.99 201.9 630.75 208.79 642.23 215.44 653.21 222.18 663.47 229.04 673.09 235.68 681.7 242.48 689.09 249.45 695.48 256.26 700.4 263.28 703.71 270.53 705.83 277.66 706.27 285.07 705.02 292.75 702.73 300.35 698.96 308.27 693.86 316.48 688.29 324.66 681.88 333.16 674.93 341.98 668.38 350.78 661.94 359.91 655.94 369.37 651.24 378.82 647.54 388.61 645.06 398.74 644.44 408.87 645.2 419.11 647.23 429.44 650.88 439.78 655.41 450.21 660.54 460.72 666.56 471.25 672.58 481.85 678.28 492.49 683.99 503.15 688.82 513.84 692.53 524.51 695.55 535.18 697.12 545.79 697.16 556.29 696.14 566.72 693.53 576.97 689.38 586.94 684.19 596.74 677.62 606.17 669.83 615.11 661.23 623.75 651.67 631.79 641.35 639.11 630.55 645.98 619.24 652.02 607.6 657.15 595.79 661.73 583.83 665.34 571.86 667.94 559.91 670 548.06 671.1 536.36 671.25 524.79 671.07 513.41 670.12 502.25 668.5 491.23 666.91 480.41 664.93 469.8 662.74 459.3 661.02 448.97 659.4 438.79 658.05 428.69 657.59 418.7 657.63 408.84 658.26 399 659.99 389.25 662.37 379.6 665.34 369.96 669.28 360.62 673.49 351.59 677.8 342.55 682.57 333.82 687.04 325.41 691.01 316.98 694.87 308.87 697.87 301.09 699.88 293.28 701.33 285.79 701.58 278.64 700.6 271.44 698.83 264.56 695.8 257.99 691.56 251.33 686.56 244.95 680.45 238.84 673.38 232.6 665.72 226.57 657.28 220.76 648.18 214.75 638.75 208.9 628.87 203.2 618.65 197.25 608.32 191.41 597.81 185.69 587.2 179.69 576.64 173.79 566.07 168.02 555.54 161.99 545.14 156.12 534.8 150.43 524.55 144.56 514.45 138.94 504.42 133.63 494.45 128.26 484.61 123.27 474.81 118.73 465.04 114.28 455.35 110.36 445.65 107.03 435.94 103.91 426.28 101.45 416.57 99.72 406.83 98.27 397.1 97.58 387.32 97.68 377.5 98.1 367.69 99.3 358.07 101.21 348.66 103.37 339.25 106.19 330.07 109.61 321.14 113.16 312.23 117.21 303.59 121.72 295.24 126.22 286.93 131.08 278.93 136.24 271.29 141.25 263.68 146.5 256.43 151.94 249.56 157.13 242.72 162.47 236.26 167.94 230.19 173.12 224.13 178.41 218.42 183.83 213.09 188.96 207.7 194.25 202.62 199.68 197.86 204.9 192.95 210.31 188.29 215.95 183.85 221.43 179.18 227.18 174.66 233.21 170.27 239.15 165.58 245.42 160.97 252.01 156.43 258.56 151.55 265.46 146.72 272.7 141.98 279.93 136.93 287.5 131.99 295.39 127.22 303.28 122.25 311.49 117.55 319.98 113.19 328.48 108.82 337.25 104.93 346.28 101.62 355.31 98.5 364.59 96.11 374.1 94.54" stroke-dasharray="0 0" transform="rotate(14.53125, 400, 400)" opacity="0.33"></path><path d="M377.26 104.73C386.51 103.55 395.82 103.26 405.2 103.85 414.6 104.86 424.1 106.74 433.68 109.44 443.32 112.51 453.1 116.32 463.01 120.81 473.03 125.53 483.23 130.83 493.62 136.61 504.16 142.48 514.91 148.73 525.86 155.29 536.97 161.79 548.26 168.52 559.69 175.42 571.22 182.16 582.8 189.02 594.35 195.98 605.82 202.72 617.1 209.55 628.03 216.45 638.63 223.13 648.64 229.9 657.89 236.77 666.49 243.44 674.06 250.25 680.43 257.2 685.85 263.99 689.88 270.97 692.4 278.15 693.85 285.21 693.77 292.51 692.15 300.06 689.65 307.53 685.84 315.28 680.85 323.31 675.51 331.29 669.45 339.58 662.95 348.16 656.86 356.72 650.9 365.6 645.36 374.79 641.03 383.97 637.61 393.48 635.29 403.31 634.67 413.15 635.28 423.08 637.05 433.1 640.32 443.12 644.4 453.23 649.05 463.4 654.56 473.58 660.11 483.81 665.42 494.06 670.82 504.31 675.48 514.56 679.17 524.77 682.32 534.94 684.18 545.02 684.66 554.94 684.25 564.77 682.37 574.38 679.06 583.67 674.81 592.77 669.23 601.47 662.47 609.66 654.94 617.54 646.42 624.81 637.1 631.38 627.29 637.52 616.89 642.87 606.08 647.34 595.04 651.33 583.76 654.42 572.37 656.57 560.95 658.28 549.54 659.11 538.21 659.1 526.95 658.84 515.83 657.91 504.88 656.4 494.04 654.98 483.37 653.23 472.9 651.32 462.52 649.88 452.31 648.56 442.27 647.48 432.29 647.25 422.46 647.47 412.77 648.21 403.11 649.97 393.57 652.29 384.15 655.14 374.74 658.89 365.66 662.87 356.92 666.92 348.15 671.41 339.71 675.63 331.6 679.4 323.46 683.1 315.64 686.02 308.14 688.06 300.61 689.61 293.38 690.07 286.47 689.4 279.5 688.04 272.82 685.5 266.42 681.83 259.93 677.46 253.68 672.03 247.68 665.65 241.52 658.72 235.56 650.99 229.79 642.59 223.81 633.84 217.97 624.59 212.27 614.95 206.32 605.17 200.47 595.14 194.73 584.96 188.73 574.78 182.83 564.54 177.05 554.29 171.04 544.12 165.18 533.98 159.51 523.9 153.69 513.94 148.12 504.03 142.84 494.19 137.54 484.46 132.61 474.76 128.12 465.12 123.74 455.55 119.87 446 116.59 436.46 113.53 426.97 111.12 417.47 109.42 407.98 108.01 398.49 107.34 388.99 107.46 379.5 107.89 370.01 109.09 360.74 110.99 351.71 113.15 342.67 115.95 333.89 119.33 325.37 122.86 316.86 126.88 308.63 131.35 300.71 135.82 292.8 140.65 285.21 145.78 277.97 150.78 270.74 156.01 263.85 161.43 257.33 166.62 250.81 171.96 244.65 177.42 238.85 182.61 233.02 187.91 227.53 193.31 222.36 198.45 217.12 203.71 212.16 209.11 207.46 214.28 202.62 219.63 197.98 225.17 193.53 230.54 188.85 236.15 184.31 242.01 179.87 247.77 175.14 253.81 170.49 260.15 165.9 266.43 161 273.03 156.16 279.95 151.41 286.84 146.38 294.06 141.47 301.59 136.75 309.11 131.86 316.95 127.23 325.08 122.96 333.21 118.69 341.63 114.89 350.33 111.66 359.02 108.62 368 106.28 377.25 104.73" stroke-dasharray="0 0" transform="rotate(17.4375, 400, 400)" opacity="0.46"></path><path d="M381.33 114.92C390.33 113.75 399.43 113.43 408.63 113.95 417.85 114.87 427.2 116.63 436.66 119.17 446.18 122.06 455.86 125.68 465.67 129.96 475.59 134.48 485.68 139.56 495.95 145.13 506.33 150.8 516.9 156.87 527.62 163.25 538.44 169.61 549.39 176.21 560.41 182.99 571.44 189.66 582.46 196.46 593.36 203.37 604.11 210.09 614.59 216.91 624.64 223.8 634.32 230.49 643.36 237.28 651.6 244.15 659.19 250.84 665.77 257.65 671.17 264.58 675.7 271.37 678.92 278.31 680.73 285.44 681.6 292.44 681.08 299.66 679.17 307.1 676.53 314.45 672.72 322.06 667.89 329.92 662.8 337.73 657.11 345.82 651.04 354.19 645.42 362.52 639.92 371.16 634.82 380.09 630.85 389.01 627.69 398.23 625.51 407.76 624.89 417.29 625.38 426.91 626.91 436.6 629.81 446.29 633.46 456.04 637.64 465.83 642.66 475.63 647.75 485.46 652.66 495.27 657.73 505.08 662.18 514.85 665.8 524.53 669 534.17 671.07 543.68 671.93 552.99 672.01 562.2 670.77 571.14 668.21 579.73 664.81 588.13 660.16 596.1 654.37 603.55 647.85 610.7 640.36 617.24 632.04 623.09 623.21 628.56 613.76 633.26 603.82 637.14 593.61 640.6 583.08 643.23 572.37 645 561.57 646.41 550.69 647.04 539.83 646.92 529 646.63 518.23 645.75 507.59 644.38 497.02 643.14 486.6 641.63 476.34 639.99 466.16 638.83 456.13 637.79 446.27 636.97 436.47 636.94 426.82 637.33 417.33 638.17 407.86 639.95 398.53 642.22 389.35 644.95 380.17 648.5 371.33 652.25 362.84 656.05 354.32 660.28 346.14 664.25 338.28 667.81 330.39 671.34 322.82 674.18 315.56 676.21 308.25 677.84 301.23 678.48 294.52 678.08 287.72 677.08 281.2 674.99 274.93 671.84 268.55 668.05 262.4 663.26 256.47 657.56 250.37 651.32 244.45 644.3 238.69 636.6 232.72 628.54 226.88 619.95 221.16 610.94 215.2 601.74 209.34 592.25 203.58 582.56 197.57 572.83 191.67 562.98 185.89 553.08 179.91 543.22 174.07 533.35 168.43 523.52 162.67 513.76 157.15 504.04 151.93 494.39 146.7 484.81 141.85 475.28 137.44 465.81 133.13 456.4 129.34 447.02 126.12 437.69 123.13 428.39 120.77 419.11 119.11 409.87 117.74 400.64 117.11 391.42 117.23 382.24 117.68 373.06 118.87 364.13 120.75 355.46 122.89 346.78 125.66 338.36 129 330.23 132.49 322.09 136.48 314.24 140.89 306.7 145.33 299.16 150.11 291.94 155.2 285.04 160.17 278.15 165.38 271.59 170.77 265.36 175.96 259.13 181.3 253.22 186.75 247.64 191.95 242.01 197.26 236.68 202.67 231.65 207.82 226.52 213.08 221.63 218.46 216.99 223.61 212.18 228.92 207.55 234.4 203.08 239.7 198.39 245.21 193.8 250.94 189.32 256.55 184.56 262.42 179.87 268.55 175.25 274.61 170.33 280.97 165.49 287.62 160.74 294.23 155.75 301.16 150.89 308.39 146.22 315.59 141.42 323.1 136.88 330.92 132.7 338.72 128.54 346.83 124.84 355.23 121.69 363.62 118.74 372.32 116.45 381.32 114.92" stroke-dasharray="0 0" transform="rotate(20.34375, 400, 400)" opacity="0.71"></path><path d="M386.16 125.12C394.92 123.95 403.81 123.6 412.81 124.05 421.84 124.89 431.01 126.52 440.32 128.9 449.67 131.62 459.18 135.05 468.84 139.11 478.58 143.41 488.48 148.27 498.53 153.61 508.67 159.08 518.95 164.94 529.33 171.12 539.77 177.31 550.27 183.76 560.76 190.41 571.23 196.96 581.6 203.67 591.76 210.5 601.74 217.18 611.37 223.96 620.51 230.83 629.25 237.51 637.32 244.29 644.58 251.15 651.21 257.85 656.84 264.65 661.35 271.57 665.07 278.34 667.55 285.25 668.74 292.32 669.12 299.28 668.23 306.42 666.11 313.76 663.38 321.01 659.62 328.49 654.98 336.2 650.17 343.85 644.85 351.76 639.22 359.91 634.04 368.04 629 376.44 624.32 385.11 620.68 393.77 617.77 402.71 615.74 411.93 615.12 421.15 615.5 430.44 616.8 439.77 619.36 449.1 622.6 458.48 626.34 467.87 630.87 477.25 635.5 486.64 640.01 495.98 644.74 505.31 648.94 514.56 652.44 523.7 655.64 532.77 657.85 541.69 658.98 550.37 659.48 558.93 658.78 567.19 656.88 575.09 654.24 582.8 650.43 590.05 645.55 596.79 639.98 603.24 633.47 609.09 626.12 614.28 618.28 619.11 609.77 623.23 600.73 626.59 591.39 629.58 581.67 631.81 571.7 633.27 561.59 634.45 551.34 634.92 541.04 634.74 530.71 634.45 520.4 633.66 510.15 632.45 499.95 631.39 489.84 630.13 479.88 628.77 469.96 627.87 460.18 627.09 450.56 626.52 440.99 626.68 431.55 627.21 422.28 628.14 413.03 629.93 403.92 632.14 394.97 634.76 386.02 638.12 377.42 641.65 369.16 645.21 360.88 649.17 352.92 652.89 345.28 656.25 337.61 659.61 330.24 662.34 323.18 664.35 316.05 666.03 309.21 666.81 302.64 666.64 295.98 665.96 289.58 664.26 283.4 661.59 277.11 658.35 271.02 654.16 265.12 649.1 259.06 643.53 253.15 637.2 247.38 630.19 241.42 622.82 235.56 614.9 229.82 606.54 223.85 597.96 217.97 589.05 212.19 579.9 206.19 570.67 200.3 561.27 194.53 551.79 188.58 542.31 182.78 532.78 177.19 523.26 171.49 513.78 166.05 504.32 160.9 494.91 155.77 485.55 151 476.24 146.67 466.98 142.46 457.77 138.76 448.61 135.62 439.5 132.7 430.43 130.41 421.39 128.8 412.4 127.48 403.43 126.87 394.5 127.01 385.63 127.46 376.76 128.64 368.15 130.5 359.81 132.61 351.47 135.34 343.4 138.63 335.61 142.07 327.82 145.99 320.32 150.34 313.12 154.73 305.92 159.46 299.02 164.49 292.43 169.43 285.84 174.6 279.55 179.96 273.58 185.14 267.58 190.47 261.88 195.91 256.48 201.13 251.02 206.45 245.82 211.86 240.89 217.02 235.84 222.3 231.01 227.68 226.39 232.83 221.59 238.12 216.96 243.56 212.47 248.82 207.75 254.26 203.13 259.9 198.61 265.4 193.82 271.14 189.1 277.12 184.45 283.01 179.54 289.18 174.71 295.61 169.98 301.99 165.03 308.67 160.24 315.64 155.64 322.57 150.93 329.81 146.5 337.35 142.42 344.87 138.36 352.7 134.77 360.83 131.71 368.95 128.84 377.39 126.62 386.15 125.12" stroke-dasharray="0 0" transform="rotate(23.25, 400, 400)" opacity="0.43"></path><path d="M391.55 135.31C400.07 134.15 408.74 133.78 417.53 134.17 426.34 134.91 435.31 136.42 444.41 138.64 453.55 141.2 462.84 144.42 472.27 148.26 481.76 152.34 491.39 156.97 501.14 162.07 510.94 167.31 520.83 172.95 530.78 178.92 540.75 184.92 550.71 191.19 560.6 197.67 570.42 204.09 580.07 210.68 589.45 217.41 598.6 224.01 607.36 230.72 615.58 237.53 623.4 244.18 630.52 250.93 636.84 257.76 642.55 264.44 647.31 271.22 651 278.11 653.97 284.86 655.81 291.73 656.47 298.75 656.43 305.65 655.25 312.72 652.98 319.96 650.22 327.12 646.56 334.47 642.14 342.03 637.63 349.54 632.68 357.26 627.49 365.22 622.74 373.14 618.13 381.31 613.84 389.72 610.53 398.11 607.86 406.76 605.96 415.66 605.36 424.56 605.62 433.5 606.71 442.46 608.96 451.42 611.82 460.4 615.13 469.35 619.2 478.31 623.38 487.22 627.49 496.07 631.85 504.89 635.78 513.6 639.12 522.17 642.25 530.66 644.53 538.96 645.87 547 646.69 554.92 646.44 562.52 645.11 569.73 643.14 576.75 640.09 583.33 636.03 589.38 631.35 595.17 625.75 600.38 619.34 604.96 612.45 609.23 604.87 612.83 596.74 615.72 588.29 618.32 579.42 620.22 570.23 621.43 560.87 622.42 551.31 622.79 541.63 622.59 531.89 622.34 522.1 621.65 512.34 620.61 502.58 619.76 492.87 618.74 483.26 617.64 473.69 617 464.22 616.47 454.88 616.13 445.58 616.46 436.41 617.12 427.39 618.13 418.39 619.91 409.52 622.07 400.8 624.56 392.09 627.75 383.71 631.05 375.67 634.38 367.6 638.08 359.85 641.57 352.41 644.72 344.93 647.9 337.74 650.52 330.84 652.48 323.87 654.18 317.16 655.07 310.7 655.1 304.15 654.69 297.83 653.35 291.72 651.11 285.48 648.36 279.43 644.73 273.55 640.27 267.5 635.35 261.59 629.67 255.81 623.34 249.84 616.66 243.97 609.41 238.2 601.7 232.23 593.77 226.34 585.47 220.55 576.9 214.57 568.21 208.69 559.33 202.94 550.31 197.05 541.27 191.31 532.15 185.77 522.99 180.16 513.86 174.8 504.71 169.75 495.6 164.72 486.52 160.06 477.47 155.83 468.48 151.73 459.52 148.13 450.61 145.08 441.76 142.25 432.93 140.04 424.15 138.48 415.45 137.21 406.75 136.64 398.11 136.78 389.54 137.24 380.97 138.41 372.68 140.23 364.66 142.3 356.64 144.98 348.89 148.2 341.43 151.58 333.96 155.44 326.77 159.71 319.88 164.03 312.97 168.69 306.36 173.65 300.04 178.54 293.7 183.66 287.65 188.98 281.89 194.14 276.09 199.45 270.56 204.88 265.31 210.1 259.97 215.42 254.88 220.84 250.01 226.03 245.03 231.32 240.23 236.7 235.62 241.87 230.83 247.16 226.18 252.58 221.66 257.82 216.92 263.22 212.28 268.8 207.72 274.24 202.91 279.88 198.17 285.75 193.52 291.51 188.62 297.52 183.81 303.79 179.12 309.98 174.24 316.45 169.51 323.21 165 329.92 160.4 336.92 156.07 344.22 152.1 351.49 148.17 359.07 144.68 366.96 141.72 374.83 138.94 383.02 136.78 391.54 135.31" stroke-dasharray="0 0" transform="rotate(26.15625, 400, 400)" opacity="0.90"></path><path d="M397.29 145.5C405.57 144.36 413.99 143.96 422.55 144.29 431.12 144.95 439.84 146.33 448.69 148.4 457.57 150.78 466.59 153.8 475.72 157.42 484.89 161.28 494.17 165.66 503.53 170.52 512.91 175.52 522.35 180.92 531.79 186.66 541.2 192.44 550.55 198.51 559.77 204.8 568.88 211.06 577.77 217.5 586.33 224.09 594.65 230.58 602.52 237.2 609.83 243.91 616.74 250.5 622.96 257.19 628.38 263.96 633.24 270.6 637.19 277.34 640.15 284.17 642.47 290.89 643.75 297.71 643.96 304.66 643.57 311.5 642.18 318.49 639.82 325.62 637.08 332.69 633.56 339.92 629.38 347.32 625.17 354.68 620.6 362.23 615.83 369.98 611.5 377.7 607.31 385.64 603.41 393.78 600.39 401.91 597.95 410.26 596.19 418.83 595.59 427.39 595.76 435.97 596.66 444.54 598.61 453.11 601.1 461.67 604.01 470.17 607.64 478.67 611.39 487.1 615.09 495.43 619.08 503.73 622.72 511.89 625.86 519.87 628.88 527.78 631.17 535.46 632.65 542.86 633.71 550.14 633.82 557.09 632.96 563.64 631.56 570.02 629.18 575.94 625.85 581.35 621.98 586.53 617.24 591.16 611.7 595.19 605.72 598.95 599.05 602.1 591.81 604.6 584.25 606.85 576.22 608.48 567.84 609.5 559.27 610.35 550.44 610.67 541.44 610.49 532.35 610.3 523.16 609.75 513.93 608.89 504.69 608.24 495.45 607.46 486.26 606.62 477.09 606.22 467.98 605.92 458.99 605.78 450.01 606.28 441.14 607.05 432.4 608.12 423.68 609.9 415.07 611.99 406.6 614.37 398.13 617.37 389.98 620.47 382.15 623.57 374.3 627.02 366.74 630.27 359.48 633.22 352.17 636.21 345.13 638.71 338.36 640.61 331.52 642.31 324.92 643.27 318.55 643.47 312.09 643.28 305.83 642.26 299.76 640.41 293.57 638.11 287.54 634.98 281.66 631.09 275.62 626.76 269.71 621.73 263.91 616.05 257.94 610.03 252.06 603.45 246.27 596.4 240.3 589.12 234.42 581.45 228.63 573.48 222.68 565.38 216.84 557.04 211.13 548.54 205.3 539.99 199.64 531.32 194.18 522.59 188.68 513.85 183.43 505.08 178.48 496.32 173.58 487.58 169.04 478.84 164.93 470.15 160.95 461.49 157.46 452.86 154.51 444.3 151.78 435.76 149.65 427.26 148.15 418.85 146.94 410.44 146.4 402.09 146.56 393.83 147.02 385.57 148.16 377.58 149.94 369.87 151.97 362.15 154.59 354.7 157.73 347.54 161.04 340.36 164.81 333.46 168.99 326.84 173.22 320.2 177.81 313.84 182.68 307.75 187.51 301.64 192.57 295.79 197.82 290.21 202.95 284.57 208.23 279.18 213.63 274.04 218.85 268.81 224.17 263.79 229.59 258.97 234.79 254.03 240.09 249.26 245.49 244.64 250.68 239.86 255.98 235.19 261.39 230.65 266.63 225.89 272.01 221.22 277.55 216.64 282.94 211.82 288.53 207.09 294.3 202.43 299.97 197.57 305.87 192.8 312 188.16 318.05 183.36 324.36 178.72 330.93 174.31 337.45 169.82 344.25 165.62 351.34 161.76 358.39 157.96 365.74 154.59 373.4 151.72 381.04 149.03 389 146.94 397.28 145.5" stroke-dasharray="0 0" transform="rotate(29.0625, 400, 400)" opacity="0.50"></path><path d="M403.13 155.69C411.17 154.57 419.34 154.15 427.63 154.41 435.93 154.99 444.37 156.25 452.91 158.17 461.48 160.38 470.17 163.2 478.94 166.59 487.73 170.22 496.59 174.36 505.49 178.96 514.39 183.71 523.3 188.86 532.15 194.34 540.95 199.9 549.64 205.74 558.15 211.81 566.51 217.88 574.61 224.14 582.34 230.56 589.81 236.91 596.81 243.39 603.24 249.99 609.28 256.48 614.64 263.08 619.23 269.76 623.31 276.34 626.54 283 628.84 289.75 630.59 296.41 631.39 303.16 631.23 310.02 630.58 316.79 629.04 323.68 626.66 330.7 623.98 337.65 620.62 344.76 616.7 352 612.82 359.2 608.62 366.57 604.27 374.11 600.34 381.62 596.54 389.31 593 397.18 590.28 405.04 588.05 413.08 586.42 421.3 585.83 429.53 585.91 437.73 586.63 445.9 588.3 454.07 590.46 462.19 592.99 470.23 596.19 478.26 599.52 486.19 602.83 493.99 606.44 501.76 609.77 509.36 612.69 516.76 615.56 524.08 617.8 531.16 619.34 537.94 620.56 544.6 620.95 550.92 620.48 556.84 618.66 565.26 609.94 579.42 603.24 585.01 598.1 588.33 592.3 591.09 585.91 593.25 579.21 595.23 572.04 596.65 564.47 597.53 556.7 598.29 548.63 598.59 540.34 598.46 531.94 598.36 523.39 597.95 514.75 597.29 506.07 596.85 497.35 596.29 488.64 595.7 479.93 595.52 471.25 595.43 462.63 595.5 454.03 596.13 445.5 597 437.07 598.13 428.66 599.89 420.34 601.92 412.13 604.18 403.92 607.01 396.01 609.9 388.39 612.78 380.75 615.99 373.38 619.01 366.28 621.75 359.13 624.56 352.24 626.92 345.58 628.75 338.86 630.42 332.36 631.43 326.06 631.76 319.67 631.76 313.46 631.01 307.42 629.5 301.27 627.6 295.25 624.94 289.37 621.56 283.35 617.8 277.43 613.35 271.63 608.3 265.66 602.92 259.78 596.99 253.99 590.59 248.04 583.96 242.18 576.93 236.42 569.58 230.52 562.08 224.73 554.32 219.09 546.37 213.35 538.35 207.78 530.18 202.43 521.91 197.04 513.63 191.92 505.28 187.1 496.92 182.34 488.56 177.94 480.19 173.96 471.84 170.12 463.52 166.76 455.22 163.91 446.97 161.3 438.74 159.25 430.55 157.82 422.44 156.67 414.34 156.17 406.3 156.33 398.34 156.8 390.39 157.91 382.7 159.65 375.28 161.62 367.86 164.16 360.7 167.22 353.81 170.44 346.9 174.11 340.26 178.18 333.88 182.32 327.49 186.81 321.34 191.58 315.46 196.33 309.54 201.31 303.86 206.49 298.43 211.56 292.93 216.79 287.66 222.15 282.6 227.35 277.45 232.66 272.49 238.06 267.71 243.28 262.8 248.59 258.04 253.99 253.42 259.19 248.64 264.5 243.96 269.92 239.39 275.16 234.63 280.54 229.95 286.05 225.35 291.42 220.55 296.96 215.83 302.67 211.2 308.28 206.38 314.08 201.67 320.1 197.1 326.04 192.4 332.21 187.86 338.63 183.56 344.99 179.2 351.62 175.13 358.51 171.4 365.37 167.73 372.52 164.48 379.95 161.71 387.37 159.12 395.09 157.1 403.12 155.7" stroke-dasharray="0 0" transform="rotate(31.96875, 400, 400)" opacity="0.09"></path><path d="M408.85 165.89C416.62 164.78 424.52 164.34 432.51 164.55 440.52 165.05 448.63 166.19 456.83 167.95 465.04 169.99 473.34 172.61 481.69 175.78 490.05 179.18 498.44 183.06 506.82 187.4 515.19 191.89 523.51 196.77 531.73 201.99 539.87 207.29 547.86 212.88 555.62 218.72 563.22 224.57 570.52 230.62 577.42 236.84 584.07 243.01 590.23 249.34 595.82 255.77 601.04 262.14 605.6 268.61 609.43 275.16 612.81 281.64 615.39 288.2 617.12 294.85 618.38 301.41 618.79 308.07 618.35 314.81 617.5 321.48 615.87 328.26 613.5 335.15 610.93 341.98 607.77 348.93 604.13 356 600.56 363.04 596.74 370.21 592.79 377.52 589.25 384.82 585.83 392.26 582.63 399.84 580.18 407.41 578.15 415.14 576.64 423.01 576.07 430.87 576.07 438.7 576.63 446.45 578.05 454.2 579.89 461.88 582.06 469.45 584.86 477 587.78 484.43 590.71 491.7 593.94 498.94 596.95 505.99 599.62 512.81 602.3 519.56 604.45 526.05 606 532.23 607.61 541.17 606.54 556.94 603.76 563.62 599.61 569.56 587.12 578.64 579.05 581.75 573.18 583.5 566.83 584.77 560.06 585.55 553.08 586.27 545.78 586.58 538.21 586.53 530.53 586.54 522.65 586.28 514.64 585.82 506.57 585.58 498.41 585.25 490.22 584.88 482.01 584.91 473.79 585.03 465.6 585.26 457.41 586.02 449.26 586.97 441.18 588.14 433.1 589.88 425.09 591.84 417.17 593.99 409.24 596.64 401.57 599.34 394.17 602.01 386.74 604.98 379.56 607.78 372.62 610.32 365.65 612.94 358.89 615.15 352.34 616.89 345.74 618.52 339.32 619.56 333.09 619.98 326.78 620.14 320.62 619.61 314.61 618.4 308.49 616.86 302.49 614.61 296.62 611.7 290.62 608.45 284.71 604.57 278.91 600.09 272.96 595.33 267.1 590.03 261.33 584.26 255.42 578.27 249.6 571.88 243.89 565.14 238.07 558.26 232.36 551.1 226.81 543.72 221.18 536.25 215.73 528.62 210.5 520.86 205.26 513.06 200.28 505.18 195.61 497.25 191.01 489.31 186.77 481.35 182.93 473.39 179.24 465.44 176.02 457.5 173.3 449.6 170.8 441.7 168.85 433.85 167.49 426.06 166.4 418.28 165.93 410.56 166.11 402.92 166.57 395.27 167.66 387.88 169.33 380.75 171.25 373.61 173.71 366.72 176.66 360.09 179.78 353.44 183.35 347.04 187.3 340.88 191.33 334.7 195.7 328.76 200.35 323.05 205 317.3 209.88 311.77 214.97 306.46 219.97 301.09 225.14 295.91 230.44 290.92 235.6 285.84 240.88 280.93 246.25 276.18 251.46 271.3 256.77 266.55 262.15 261.93 267.37 257.15 272.69 252.47 278.1 247.89 283.35 243.13 288.72 238.46 294.22 233.87 299.57 229.1 305.08 224.41 310.74 219.82 316.29 215.07 322.03 210.44 327.96 205.95 333.8 201.35 339.86 196.94 346.14 192.76 352.37 188.54 358.83 184.6 365.55 181.01 372.23 177.48 379.17 174.35 386.38 171.7 393.58 169.21 401.07 167.25 408.84 165.89" stroke-dasharray="0 0" transform="rotate(34.875, 400, 400)" opacity="0.81"></path><path d="M414.21 176.08C421.71 175 429.3 174.54 436.97 174.69 444.64 175.11 452.4 176.14 460.21 177.76 468.03 179.62 475.9 182.05 483.78 184.99 491.65 188.15 499.52 191.79 507.34 195.85 515.13 200.07 522.82 204.68 530.38 209.62 537.85 214.65 545.11 219.97 552.12 225.54 558.96 231.15 565.47 236.96 571.56 242.95 577.41 248.92 582.77 255.04 587.57 261.29 592.04 267.49 595.88 273.79 599.02 280.19 601.77 286.53 603.79 292.96 605.04 299.46 605.9 305.9 605.99 312.43 605.33 319.03 604.35 325.58 602.69 332.22 600.39 338.95 597.95 345.63 595.01 352.41 591.66 359.29 588.42 366.14 584.96 373.11 581.4 380.18 578.23 387.24 575.16 394.41 572.3 401.7 570.09 408.98 568.26 416.38 566.87 423.88 566.31 431.38 566.24 438.8 566.65 446.14 567.84 453.47 569.39 460.69 571.23 467.78 573.65 474.86 576.18 481.79 578.73 488.54 581.6 495.25 584.28 501.76 586.68 508.03 590.15 517.19 594.37 533.88 594.78 541.26 594.09 548.07 588.66 559.32 583.99 563.69 578.21 567.38 563.37 572.3 554.58 573.61 548.39 574.32 541.84 574.67 535 574.71 528.03 574.85 520.84 574.75 513.47 574.48 506.03 574.44 498.47 574.32 490.83 574.17 483.16 574.4 475.43 574.69 467.7 575.08 459.96 575.94 452.22 576.97 444.51 578.17 436.8 579.87 429.13 581.76 421.5 583.79 413.88 586.28 406.48 588.79 399.3 591.25 392.11 594 385.13 596.58 378.35 598.92 371.55 601.35 364.93 603.42 358.5 605.06 352.01 606.63 345.69 607.67 339.53 608.15 333.29 608.43 327.19 608.09 321.22 607.14 315.15 605.9 309.19 604.03 303.34 601.54 297.38 598.76 291.5 595.38 285.72 591.45 279.82 587.26 274 582.56 268.27 577.4 262.43 572.03 256.69 566.25 251.05 560.14 245.33 553.87 239.73 547.31 234.29 540.51 228.8 533.62 223.5 526.54 218.41 519.31 213.34 512.03 208.53 504.64 204.03 497.19 199.6 489.71 195.53 482.18 191.85 474.64 188.33 467.09 185.25 459.54 182.66 452.01 180.28 444.49 178.44 436.99 177.15 429.55 176.13 422.11 175.7 414.71 175.88 407.38 176.34 400.06 177.39 392.97 179.01 386.12 180.86 379.26 183.23 372.63 186.08 366.24 189.09 359.84 192.52 353.66 196.34 347.71 200.25 341.73 204.48 335.96 209 330.42 213.53 324.82 218.3 319.42 223.27 314.22 228.18 308.95 233.26 303.86 238.48 298.93 243.58 293.92 248.81 289.05 254.13 284.32 259.32 279.47 264.6 274.74 269.96 270.12 275.18 265.36 280.49 260.69 285.88 256.12 291.13 251.39 296.5 246.73 301.96 242.17 307.31 237.45 312.78 232.81 318.4 228.29 323.91 223.63 329.58 219.09 335.42 214.71 341.19 210.24 347.14 205.96 353.29 201.91 359.39 197.84 365.71 194.05 372.24 190.6 378.75 187.21 385.5 184.22 392.49 181.67 399.47 179.28 406.7 177.4 414.2 176.08" stroke-dasharray="0 0" transform="rotate(37.78125, 400, 400)" opacity="0.81"></path><path d="M418.99 186.27C426.19 185.22 433.46 184.74 440.77 184.85 448.09 185.19 455.46 186.11 462.85 187.58 470.23 189.28 477.63 191.51 485.01 194.23 492.37 197.15 499.69 200.53 506.91 204.32 514.09 208.27 521.14 212.58 528.02 217.23 534.79 221.98 541.34 227.02 547.6 232.31 553.7 237.64 559.44 243.19 564.77 248.92 569.87 254.65 574.48 260.55 578.56 266.57 582.34 272.56 585.52 278.67 588.07 284.87 590.28 291.03 591.82 297.29 592.67 303.62 593.2 309.9 593.05 316.26 592.24 322.69 591.19 329.08 589.54 335.55 587.35 342.09 585.07 348.6 582.36 355.19 579.31 361.85 576.39 368.5 573.29 375.23 570.1 382.05 567.28 388.85 564.55 395.75 561.99 402.72 560.03 409.69 558.38 416.75 557.09 423.88 556.55 431 556.43 438.03 556.71 444.94 557.68 451.84 558.96 458.62 560.49 465.24 562.56 471.84 564.72 478.28 566.91 484.52 569.41 490.73 571.77 496.72 573.9 502.45 577.04 510.83 581.09 525.96 581.69 532.6 579.28 543.75 568.52 555.99 562.57 558.48 555.77 560.48 539.7 562.68 530.66 563.04 524.4 563.3 517.89 563.37 511.16 563.29 504.37 563.44 497.42 563.52 490.34 563.57 483.23 563.97 476.03 564.42 468.77 564.95 461.51 565.9 454.21 566.98 446.9 568.2 439.59 569.87 432.27 571.68 424.97 573.6 417.67 575.93 410.55 578.25 403.61 580.52 396.67 583.05 389.9 585.41 383.3 587.56 376.68 589.8 370.22 591.72 363.91 593.26 357.56 594.74 351.35 595.77 345.27 596.29 339.13 596.66 333.1 596.47 327.19 595.73 321.19 594.75 315.29 593.2 309.48 591.09 303.58 588.73 297.77 585.82 292.04 582.39 286.21 578.73 280.46 574.58 274.81 570 269.07 565.22 263.42 560.05 257.9 554.53 252.31 548.87 246.85 542.91 241.55 536.69 236.23 530.38 231.09 523.87 226.18 517.18 221.29 510.44 216.67 503.57 212.35 496.61 208.12 489.62 204.23 482.55 200.73 475.45 197.38 468.34 194.46 461.2 192.01 454.07 189.76 446.94 188.02 439.82 186.82 432.73 185.86 425.64 185.47 418.59 185.66 411.58 186.11 404.58 187.12 397.79 188.68 391.22 190.45 384.64 192.72 378.27 195.45 372.12 198.34 365.95 201.64 359.99 205.31 354.23 209.08 348.44 213.16 342.84 217.53 337.44 221.92 331.99 226.55 326.71 231.38 321.61 236.18 316.44 241.15 311.43 246.26 306.57 251.28 301.61 256.43 296.79 261.68 292.09 266.82 287.29 272.05 282.58 277.37 277.99 282.56 273.26 287.84 268.62 293.2 264.07 298.44 259.38 303.78 254.77 309.21 250.26 314.53 245.61 319.97 241.05 325.53 236.61 331 232.06 336.6 227.64 342.36 223.37 348.04 219.05 353.89 214.91 359.92 211.01 365.89 207.1 372.06 203.47 378.42 200.16 384.75 196.93 391.3 194.07 398.06 191.64 404.8 189.36 411.78 187.55 418.98 186.27" stroke-dasharray="0 0" transform="rotate(40.6875, 400, 400)" opacity="0.61"></path><path d="M423 196.47C429.88 195.44 436.8 194.96 443.74 195.01 450.67 195.29 457.62 196.1 464.56 197.42 471.49 198.96 478.39 201 485.23 203.49 492.06 206.18 498.8 209.3 505.41 212.82 511.97 216.48 518.37 220.51 524.57 224.86 530.66 229.31 536.51 234.05 542.04 239.03 547.42 244.07 552.45 249.34 557.06 254.78 561.46 260.25 565.4 265.88 568.82 271.64 571.98 277.4 574.6 283.27 576.62 289.25 578.37 295.19 579.52 301.24 580.04 307.35 580.32 313.44 580 319.6 579.1 325.83 578.03 332.02 576.44 338.29 574.38 344.61 572.28 350.91 569.83 357.28 567.08 363.71 564.48 370.12 561.72 376.6 558.89 383.14 556.4 389.67 553.99 396.27 551.72 402.91 549.98 409.56 548.5 416.26 547.32 423.01 546.79 429.75 546.62 436.37 546.78 442.85 547.56 449.33 548.59 455.66 549.84 461.82 551.58 467.96 553.4 473.92 555.24 479.67 558.41 488.14 564.06 503.76 566.18 510.83 568.14 523.21 565.28 537.99 562.14 541.5 558.12 544.53 547.25 548.72 540.55 549.97 533.21 550.99 516.69 552.03 507.68 552.25 501.52 552.57 495.17 552.84 488.67 553.08 482.13 553.63 475.46 554.21 468.71 554.86 461.94 555.89 455.09 557.02 448.2 558.24 441.31 559.87 434.37 561.6 427.42 563.41 420.46 565.58 413.64 567.72 406.98 569.8 400.3 572.12 393.76 574.28 387.37 576.24 380.95 578.29 374.66 580.06 368.5 581.48 362.31 582.88 356.22 583.86 350.25 584.41 344.23 584.83 338.3 584.76 332.47 584.19 326.57 583.44 320.75 582.17 315.02 580.38 309.22 578.39 303.49 575.9 297.85 572.92 292.13 569.75 286.49 566.12 280.95 562.07 275.34 557.85 269.83 553.25 264.44 548.31 259.01 543.23 253.72 537.85 248.59 532.21 243.46 526.48 238.52 520.53 233.8 514.4 229.13 508.21 224.71 501.86 220.59 495.4 216.57 488.92 212.88 482.33 209.57 475.69 206.4 469.04 203.65 462.34 201.34 455.62 199.23 448.9 197.6 442.17 196.48 435.45 195.59 428.73 195.24 422.03 195.43 415.36 195.87 408.69 196.85 402.21 198.33 395.92 200.02 389.62 202.19 383.51 204.79 377.59 207.55 371.66 210.71 365.9 214.22 360.33 217.82 354.73 221.74 349.3 225.94 344.03 230.18 338.73 234.65 333.57 239.32 328.57 243.98 323.51 248.81 318.58 253.79 313.78 258.71 308.9 263.75 304.13 268.9 299.48 273.96 294.73 279.12 290.07 284.37 285.51 289.51 280.83 294.73 276.24 300.04 271.74 305.24 267.12 310.53 262.58 315.91 258.13 321.19 253.58 326.58 249.12 332.07 244.79 337.48 240.36 343.01 236.08 348.66 231.96 354.26 227.79 360 223.81 365.88 220.07 371.73 216.33 377.74 212.86 383.91 209.71 390.06 206.63 396.39 203.91 402.9 201.6 409.41 199.42 416.1 197.7 422.99 196.47" stroke-dasharray="0 0" transform="rotate(43.59375, 400, 400)" opacity="0.20"></path><path d="M426.07 206.66C432.62 205.66 439.17 205.17 445.7 205.18 452.23 205.39 458.74 206.1 465.2 207.29 471.65 208.67 478.04 210.52 484.34 212.79 490.61 215.25 496.77 218.11 502.77 221.35 514.6 228.25 525.62 236.48 535.46 245.74 544.74 255.26 552.51 265.62 558.42 276.56 563.46 287.52 566.45 298.96 567.23 310.71 567.24 322.39 565.26 334.37 561.52 346.54 559.63 352.6 557.43 358.72 554.98 364.88 552.68 371.03 550.26 377.24 547.76 383.48 545.59 389.71 543.48 395.99 541.47 402.3 539.94 408.61 538.62 414.95 537.54 421.3 537.04 427.65 536.82 433.87 536.88 439.93 537.89 448.93 541.46 466.03 543.73 474.06 545.54 479.32 547.26 484.35 548.82 489.12 552.32 498.54 554.59 506.86 555.32 513.91 554.83 523.43 543.04 535.51 532.09 538.35 523.67 540.07 513.87 541 503 541.37 497.47 541.85 491.71 542.28 485.78 542.68 479.81 543.37 473.68 544.08 467.43 544.83 461.16 545.91 454.79 547.07 448.33 548.29 441.87 549.87 435.34 551.52 428.75 553.21 422.16 555.23 415.67 557.2 409.29 559.1 402.91 561.22 396.63 563.18 390.45 564.95 384.27 566.83 378.18 568.43 372.19 569.74 366.17 571.04 360.25 571.97 354.41 572.51 342.62 573.3 331.12 572.28 319.95 569.45 308.55 565.92 297.42 560.58 286.68 553.64 275.77 546.07 265.28 537.11 255.44 527.05 245.64 516.63 236.66 505.35 228.77 493.5 224.97 487.52 221.49 481.43 218.37 475.26 215.4 469.08 212.82 462.83 210.66 456.54 208.7 450.24 207.18 443.92 206.14 437.58 205.33 431.25 205.01 424.91 205.21 418.58 205.63 412.25 206.57 406.08 207.98 400.08 209.58 394.07 211.64 388.22 214.11 382.54 216.72 376.84 219.72 371.3 223.06 365.91 226.49 360.5 230.24 355.24 234.25 350.12 242.39 339.76 251.41 329.89 261.08 320.52 270.58 310.87 280.59 301.57 290.94 292.67 300.96 283.38 311.34 274.4 322.01 265.8 332.36 256.85 343.11 248.34 354.24 240.46 359.73 236.46 365.34 232.66 371.07 229.08 376.77 225.52 382.6 222.23 388.57 219.24 394.53 216.32 400.63 213.74 406.87 211.55 413.12 209.48 419.51 207.84 426.06 206.66" stroke-dasharray="0 0" transform="rotate(46.5, 400, 400)" opacity="0.39"></path><path d="M428.09 216.85C440.47 215.1 452.73 215.25 464.68 217.18 476.6 219.82 488.11 224.15 498.96 229.94 509.59 236.26 519.34 243.86 527.9 252.46 535.96 261.34 542.56 271.05 547.44 281.35 551.61 291.72 553.92 302.58 554.3 313.75 554.1 324.9 552.2 336.34 548.78 347.95 545.48 359.52 541.33 371.28 536.73 383.12 533.31 394.96 530.22 406.91 527.77 418.82 527.31 430.74 527.71 442.04 528.82 452.61 531.46 463.12 534.17 472.82 536.57 481.55 539.55 490.15 541.5 497.69 542.16 504.06 541.96 512.75 532.21 523.99 522.79 526.89 515.52 528.75 506.9 529.95 497.19 530.64 487.23 532.11 476.4 533.46 464.92 534.84 453.38 537.38 441.33 540.14 428.92 543.02 416.51 547.01 404.34 550.65 392.51 553.71 380.64 557.17 369.03 559.54 357.73 560.62 346.32 561.46 335.14 560.69 324.26 558.31 313.22 555.37 302.44 550.79 292.05 544.72 281.55 538.13 271.51 530.2 262.11 521.2 252.8 511.87 244.32 501.66 236.89 490.83 229.88 479.86 224.15 468.42 219.98 456.72 216.52 445 214.79 433.08 214.98 421.12 216.02 409.17 218.9 397.72 223.39 386.85 228.46 375.93 234.91 365.51 242.45 355.61 250.22 345.58 258.85 335.95 268.13 326.77 277.32 317.33 287.03 308.22 297.08 299.47 306.89 290.4 317.05 281.64 327.48 273.27 337.65 264.63 348.18 256.43 359.02 248.88 369.69 241.26 380.8 234.46 392.3 228.75 403.75 223.33 415.69 219.27 428.08 216.85" stroke-dasharray="0 0" transform="rotate(49.40625, 400, 400)" opacity="0.99"></path><path d="M428.96 227.04C440.59 225.35 451.98 225.4 462.95 227.09 473.88 229.43 484.3 233.32 494 238.57 503.48 244.33 512.04 251.29 519.43 259.22 526.39 267.43 531.97 276.45 535.98 286.07 539.41 295.79 541.2 306.01 541.3 316.54 541 327.09 539.23 337.92 536.19 348.9 533.34 359.87 529.76 371 525.78 382.16 522.87 393.32 520.19 404.54 517.99 415.66 517.51 426.78 517.7 437.26 518.43 446.99 520.53 456.68 522.66 465.56 524.53 473.52 527.79 484.8 529.02 502 526 507.82 523.09 511.34 518.64 513.92 512.76 515.64 506.5 517.65 498.95 519.08 490.31 520.08 481.46 521.78 471.69 523.36 461.21 524.89 450.66 527.45 439.51 530.13 427.91 532.83 416.3 536.49 404.81 539.78 393.53 542.51 382.24 545.63 371.11 547.75 360.22 548.75 349.26 549.59 338.48 549.01 327.98 547 317.37 544.56 307.02 540.64 297.06 535.36 287.06 529.64 277.52 522.67 268.62 514.67 259.86 506.37 251.9 497.2 244.97 487.36 238.44 477.4 233.14 466.91 229.3 456.1 226.11 445.25 224.54 434.14 224.75 422.9 225.74 411.66 228.45 400.83 232.66 390.46 237.41 380.05 243.47 370.04 250.57 360.47 257.92 350.79 266.12 341.45 274.96 332.49 283.78 323.33 293.11 314.45 302.8 305.91 312.33 297.12 322.2 288.63 332.31 280.55 342.23 272.26 352.47 264.43 362.95 257.23 373.31 250.02 384.02 243.61 395.02 238.24 405.98 233.16 417.32 229.34 428.95 227.05" stroke-dasharray="0 0" transform="rotate(52.3125, 400, 400)" opacity="0.84"></path><path d="M428.66 237.24C439.51 235.6 450 235.57 460.01 237.04 469.96 239.07 479.33 242.54 487.92 247.28 496.33 252.47 503.8 258.79 510.15 266.03 516.14 273.56 520.84 281.87 524.12 290.77 526.97 299.79 528.36 309.31 528.3 319.15 527.97 329.03 526.41 339.19 523.75 349.49 521.35 359.8 518.32 370.24 514.93 380.69 512.48 391.14 510.18 401.6 508.22 411.92 507.73 422.25 507.73 431.93 508.13 440.87 509.73 449.78 511.33 457.9 512.7 465.16 515.27 475.47 516.1 491.28 513.49 496.77 509.14 501.46 493.44 507.59 482.49 509.68 474.65 511.57 465.89 513.33 456.37 514.99 446.79 517.54 436.55 520.11 425.77 522.64 414.99 525.99 404.21 528.94 393.55 531.35 382.88 534.13 372.31 536.02 361.92 536.9 351.48 537.71 341.19 537.26 331.15 535.56 321.07 533.53 311.22 530.18 301.77 525.59 292.33 520.66 283.35 514.56 275 507.48 266.83 500.15 259.43 491.96 253.01 483.09 247 474.1 242.13 464.55 238.62 454.61 235.71 444.64 234.3 434.34 234.53 423.84 235.46 413.34 237.99 403.13 241.9 393.29 246.33 383.42 251.97 373.86 258.62 364.67 265.51 355.37 273.24 346.37 281.59 337.69 289.97 328.85 298.87 320.26 308.13 312 317.29 303.55 326.79 295.39 336.51 287.64 346.1 279.75 355.97 272.32 366.03 265.53 376.01 258.75 386.25 252.74 396.7 247.72 407.12 242.97 417.81 239.4 428.66 237.24" stroke-dasharray="0 0" transform="rotate(55.21875, 400, 400)" opacity="0.17"></path><path d="M427.19 247.43C437.23 245.87 446.83 245.76 455.89 247.01 464.89 248.77 473.25 251.83 480.82 256.06 488.24 260.69 494.73 266.38 500.16 272.94 505.3 279.76 509.27 287.35 511.97 295.5 514.36 303.79 515.48 312.57 515.34 321.67 515.07 330.83 513.74 340.26 511.49 349.83 509.52 359.42 507.01 369.13 504.16 378.83 502.14 388.54 500.19 398.23 498.44 407.76 497.95 417.29 497.79 426.19 497.92 434.38 499.07 442.54 500.19 449.97 501.1 456.59 502.99 466.04 503.28 480.68 500.92 485.92 497.17 490.54 483.51 497.03 473.86 499.44 466.93 501.49 459.11 503.38 450.51 505.14 441.86 507.64 432.51 510.1 422.58 512.44 412.64 515.49 402.61 518.12 392.63 520.24 382.65 522.69 372.7 524.34 362.88 525.1 353.05 525.84 343.33 525.48 333.84 524.02 324.35 522.33 315.09 519.46 306.22 515.48 297.4 511.23 289.04 505.92 281.29 499.69 273.74 493.24 266.93 485.97 261.05 478.02 255.54 469.97 251.11 461.33 247.94 452.26 245.31 443.16 244.05 433.67 244.3 423.92 245.18 414.17 247.52 404.61 251.13 395.33 255.21 386.03 260.43 376.96 266.59 368.18 273.01 359.33 280.22 350.7 288.04 342.37 295.93 333.91 304.33 325.68 313.09 317.76 321.81 309.7 330.85 301.93 340.1 294.57 349.28 287.12 358.7 280.13 368.26 273.76 377.78 267.44 387.49 261.85 397.33 257.19 407.16 252.78 417.15 249.46 427.19 247.43" stroke-dasharray="0 0" transform="rotate(58.125, 400, 400)" opacity="0.98"></path><path d="M424.61 257.62C433.83 256.13 442.55 255.96 450.68 257.02 458.77 258.5 466.19 261.18 472.83 264.91 479.33 269.01 484.96 274.07 489.6 279.95 494.03 286.08 497.4 292.92 499.64 300.3 501.68 307.84 502.63 315.84 502.5 324.17 502.33 332.56 501.26 341.23 499.42 350.03 497.86 358.86 495.83 367.8 493.47 376.72 491.84 385.66 490.2 394.57 488.67 403.31 488.18 412.05 487.89 420.19 487.78 427.67 488.55 435.14 489.24 441.92 489.73 447.97 490.98 456.65 490.64 470.28 488.41 475.33 485.08 479.89 473.11 486.7 464.59 489.37 458.49 491.53 451.52 493.51 443.8 495.32 436.03 497.75 427.55 500.09 418.47 502.25 409.38 505 400.14 507.34 390.89 509.17 381.64 511.31 372.38 512.72 363.21 513.35 354.05 514 344.98 513.69 336.12 512.42 327.29 510.99 318.69 508.52 310.46 505.07 302.33 501.42 294.62 496.81 287.51 491.34 280.61 485.7 274.41 479.28 269.08 472.2 264.1 465.03 260.11 457.27 257.27 449.04 254.92 440.79 253.82 432.12 254.08 423.13 254.9 414.14 257.04 405.25 260.35 396.57 264.08 387.87 268.86 379.33 274.52 371.02 280.43 362.66 287.09 354.48 294.34 346.55 301.68 338.53 309.52 330.72 317.72 323.21 325.91 315.6 334.43 308.27 343.14 301.36 351.82 294.39 360.7 287.87 369.7 281.95 378.68 276.1 387.8 270.94 396.97 266.64 406.15 262.59 415.4 259.52 424.61 257.62" stroke-dasharray="0 0" transform="rotate(61.03125, 400, 400)" opacity="0.87"></path><path d="M421.04 267.82C429.42 266.41 437.27 266.18 444.52 267.05 451.73 268.29 458.28 270.6 464.08 273.86 469.78 277.43 474.65 281.89 478.62 287.1 482.45 292.53 485.33 298.63 487.24 305.24 489.03 312 489.88 319.21 489.82 326.74 489.78 334.34 488.99 342.21 487.54 350.21 486.37 358.25 484.77 366.39 482.87 374.52 481.59 382.67 480.23 390.79 478.89 398.75 478.41 406.7 478.03 414.11 477.73 420.92 478.32 430.81 479.26 447.41 478.94 454.08 475.64 464.86 462.41 476.6 454.88 479.46 449.5 481.68 443.32 483.71 436.41 485.54 429.47 487.88 421.84 490.08 413.61 492.06 405.37 494.53 396.95 496.58 388.46 498.15 380 499.99 371.48 501.18 363.02 501.67 354.6 502.21 346.25 501.92 338.09 500.79 329.98 499.56 322.1 497.43 314.57 494.43 307.15 491.29 300.15 487.28 293.71 482.5 287.48 477.6 281.9 471.96 277.13 465.68 272.68 459.34 269.13 452.41 266.62 445.01 264.54 437.58 263.58 429.72 263.85 421.5 264.61 413.27 266.56 405.09 269.56 397.03 272.93 388.96 277.27 381 282.41 373.22 287.79 365.4 293.87 357.72 300.51 350.26 307.26 342.75 314.5 335.42 322.07 328.37 329.67 321.27 337.58 314.44 345.68 308.01 353.78 301.56 362.06 295.55 370.42 290.1 378.78 284.73 387.25 280.01 395.71 276.09 404.18 272.38 412.66 269.57 421.04 267.82" stroke-dasharray="0 0" transform="rotate(63.9375, 400, 400)" opacity="0.71"></path><path d="M416.61 278.01C424.15 276.69 431.16 276.42 437.58 277.12 446.84 279.11 461.84 287.92 467.38 294.4 470.7 299.15 473.21 304.52 474.88 310.36 476.48 316.35 477.3 322.75 477.36 329.46 477.47 336.25 476.95 343.3 475.87 350.48 475.05 357.7 473.85 365.04 472.36 372.37 471.38 379.71 470.28 387.03 469.12 394.22 468.65 401.41 468.2 408.11 467.74 414.27 467.9 423.25 467.84 438.45 467.14 444.66 463.65 454.97 451.6 466.73 444.93 469.71 440.18 471.95 434.71 473.98 428.57 475.79 422.4 478.02 415.59 480.07 408.2 481.86 400.81 484.06 393.21 485.84 385.53 487.17 377.87 488.73 370.14 489.7 362.46 490.06 354.82 490.49 347.24 490.19 339.84 489.16 332.51 488.09 325.39 486.23 318.61 483.62 311.94 480.91 305.67 477.44 299.93 473.27 294.38 469.01 289.43 464.08 285.21 458.56 281.28 452.98 278.16 446.84 275.98 440.23 274.17 433.61 273.35 426.53 273.63 419.08 274.32 411.63 276.07 404.17 278.76 396.77 281.78 389.37 285.66 382.03 290.27 374.83 295.11 367.6 300.6 360.49 306.59 353.56 312.72 346.6 319.29 339.82 326.19 333.3 333.15 326.74 340.39 320.46 347.81 314.56 355.25 308.66 362.86 303.17 370.53 298.22 378.21 293.35 385.95 289.07 393.66 285.53 401.38 282.17 409.07 279.62 416.61 278.01" stroke-dasharray="0 0" transform="rotate(66.84375, 400, 400)" opacity="0.13"></path><path d="M411.51 288.2C421.31 286.83 438.17 288.85 445.06 292.05 451.22 296.31 460.04 308.3 462.65 315.71 464.13 320.92 464.96 326.53 465.15 332.43 465.42 338.4 465.16 344.61 464.41 350.97 463.91 357.37 463.06 363.88 461.93 370.41 461.21 376.94 460.34 383.48 459.34 389.91 458.65 399.34 457.63 415.99 457.07 423.16 455.62 435.46 449.5 449.91 445.52 453.51 440.88 457.1 428.34 463.33 420.49 466.08 415.04 468.17 409.01 470.06 402.45 471.67 395.89 473.61 389.12 475.13 382.27 476.24 375.44 477.54 368.54 478.31 361.68 478.54 354.85 478.85 348.09 478.53 341.5 477.59 334.97 476.62 328.65 474.99 322.65 472.7 316.76 470.36 311.23 467.35 306.19 463.73 301.33 460.04 297.01 455.76 293.34 450.92 289.93 446.05 287.23 440.66 285.36 434.81 283.81 428.95 283.12 422.65 283.4 415.98 284.03 409.3 285.58 402.57 287.96 395.87 290.63 389.17 294.05 382.49 298.14 375.91 302.42 369.33 307.29 362.83 312.63 356.49 318.09 350.15 323.98 343.96 330.16 338.01 336.42 332.06 342.94 326.36 349.63 321.02 356.35 315.7 363.22 310.76 370.14 306.32 377.08 301.95 384.06 298.13 390.98 294.96 397.92 291.96 404.8 289.67 411.51 288.2" stroke-dasharray="0 0" transform="rotate(69.75, 400, 400)" opacity="0.84"></path><path d="M405.93 298.39C417.7 296.36 427.55 297.51 435.17 301.31 442.66 305.82 447.86 312.73 450.65 321.34 453.47 330.36 454.24 340.76 453.18 351.8 452.94 362.98 451.67 374.59 449.57 385.96 449.18 397.32 448.22 407.29 446.66 415.65 446.2 424.06 444.36 431.04 440.94 436.49 437.77 442.34 432.5 447.09 425.13 450.69 417.7 455.17 408.11 458.88 396.61 461.48 385.1 465.07 372.92 466.98 360.84 467.12 348.92 467.55 337.29 465.74 326.77 461.75 316.67 457.64 307.99 451.25 301.54 442.89 295.93 434.42 292.92 424.09 293.18 412.29 294.57 400.48 299.09 388.37 306.01 376.57 313.62 364.76 323.24 353.22 334.05 342.58 345.14 331.96 357.18 322.33 369.41 314.4 381.74 306.8 394.17 301.2 405.93 298.39" stroke-dasharray="0 0" transform="rotate(72.65625, 400, 400)" opacity="0.46"></path><path d="M400.12 308.59C410.27 306.73 418.74 307.57 425.3 310.68 431.79 314.34 436.37 320.07 438.97 327.29 441.67 334.84 442.69 343.64 442.17 353.07 442.32 362.62 441.5 372.63 439.8 382.52 439.37 392.41 438.25 401.21 436.49 408.7 435.59 416.26 433.51 422.68 430.13 427.84 427.01 433.33 422.19 437.89 415.68 441.4 409.15 445.58 400.82 448.99 390.9 451.29 380.97 454.34 370.49 455.84 360.13 455.79 349.9 456.01 339.98 454.33 331.05 450.82 322.49 447.27 315.18 441.78 309.82 434.59 305.13 427.33 302.65 418.42 302.95 408.15 304.14 397.88 308 387.27 313.9 376.89 320.39 366.52 328.62 356.38 337.92 347.03 347.49 337.76 357.91 329.36 368.51 322.49 379.2 315.9 389.97 311.05 400.12 308.59" stroke-dasharray="0 0" transform="rotate(75.5625, 400, 400)" opacity="0.20"></path><path d="M394.3 318.78C402.88 317.12 410.05 317.71 415.65 320.18 421.22 323.05 425.25 327.68 427.69 333.59 430.25 339.74 431.47 347.01 431.39 354.88 431.84 362.84 431.38 371.27 430.02 379.71 429.59 388.15 428.4 395.79 426.55 402.4 425.35 409.08 423.14 414.87 419.87 419.65 416.85 424.68 412.47 428.94 406.76 432.25 401.08 436.05 393.96 439.1 385.56 441.09 377.17 443.63 368.36 444.78 359.7 444.58 351.16 444.6 342.92 443.04 335.57 439.98 328.5 436.92 322.53 432.25 318.2 426.15 314.38 420.02 312.41 412.47 312.73 403.72 313.72 394.97 316.93 385.9 321.84 376.99 327.22 368.11 334.08 359.43 341.86 351.44 349.89 343.53 358.66 336.4 367.6 330.58 376.63 325 385.72 320.89 394.3 318.78" stroke-dasharray="0 0" transform="rotate(78.46875, 400, 400)" opacity="0.91"></path><path d="M388.72 328.97C398.74 327.72 412.86 333.78 416.88 340.27 419.26 345.12 420.58 350.93 420.84 357.3 421.47 363.73 421.29 370.63 420.25 377.65 419.83 384.66 418.65 391.11 416.84 396.8 414.38 405.09 405.4 418.32 398.55 423.24 393.68 426.58 387.72 429.22 380.81 430.9 373.9 432.95 366.72 433.79 359.74 433.48 352.84 433.35 346.23 431.93 340.39 429.29 334.77 426.68 330.06 422.78 326.69 417.72 323.69 412.64 322.18 406.39 322.5 399.16 323.31 391.91 325.89 384.39 329.85 377 334.14 369.64 339.67 362.45 345.96 355.85 352.44 349.33 359.56 343.46 366.86 338.7 374.22 334.11 381.66 330.73 388.72 328.97" stroke-dasharray="0 0" transform="rotate(81.375, 400, 400)" opacity="0.39"></path><path d="M383.59 339.16C394.72 336.99 402.6 340.37 406.59 347.35 410.97 354.78 412.39 365.19 410.47 376.39 410.12 387.59 406.77 397.43 401.18 404.67 396.14 412.39 387.79 418.25 376.84 420.71 365.89 424.11 354.57 423.26 345.6 418.81 337.21 414.5 331.98 406.12 332.27 394.62 333.84 383.11 340.72 370.78 350.29 360.32 360.38 350.11 372.45 342.17 383.59 339.16" stroke-dasharray="0 0" transform="rotate(84.28125, 400, 400)" opacity="0.87"></path><path d="M379.12 349.36C390.44 348.76 401.24 363.83 400.7 376 400.29 384.39 397.39 392.05 392.79 397.87 388.51 403.96 381.95 408.61 373.81 410.51 365.66 412.95 357.53 412.1 351.25 408.59 345.31 405.19 341.7 398.85 342.05 390.28 343.14 381.7 348.04 372.59 354.92 364.91 362.12 357.4 370.86 351.58 379.12 349.36" stroke-dasharray="0 0" transform="rotate(87.1875, 400, 400)" opacity="0.97"></path><path d="M375.51 359.55C386.42 357.31 392.75 365.27 390.92 376.47 390.58 387.66 382.64 397.94 371.84 400.32 361.03 403.62 351.52 397.65 351.82 386.29 353.48 374.92 364.6 362.66 375.51 359.55" stroke-dasharray="0 0" transform="rotate(90.09375, 400, 400)" opacity="0.32"></path></g></svg>