<svg xmlns="http://www.w3.org/2000/svg" version="1.1" xmlns:xlink="http://www.w3.org/1999/xlink" xmlns:svgjs="http://svgjs.dev/svgjs" viewBox="0 0 800 800"><defs><linearGradient x1="50%" y1="0%" x2="50%" y2="100%" id="ccchaos-grad"><stop stop-color="hsl(265, 55%, 30%)" stop-opacity="1" offset="0%"></stop><stop stop-color="hsl(265, 55%, 60%)" stop-opacity="1" offset="100%"></stop></linearGradient></defs><g stroke-width="3" stroke="url(#ccchaos-grad)" fill="none" stroke-linecap="round"><path d="M377.43 44.36C385.87 45.94 402.33 50.55 410.35 53.43 420.97 57.48 431.24 62.03 441.15 66.88 451.07 71.4 460.67 75.99 469.96 80.55 479.32 84.5 488.45 88.37 497.4 92.14 506.52 95.34 515.56 98.56 524.6 101.88 533.96 104.86 543.45 108.13 553.15 111.79 563.33 115.41 573.85 119.61 584.75 124.43 596.23 129.47 608.17 135.24 620.55 141.74 633.46 148.58 646.76 156.17 660.31 164.45 674.15 173.08 688 182.35 701.65 192.18 715.08 202.29 727.9 212.87 739.79 223.85 750.83 235.01 760.47 246.48 768.41 258.18 774.93 269.99 779.39 281.98 781.62 294.06 782.19 306.21 780.49 318.42 776.58 330.65 771.32 342.9 764.24 355.16 755.63 367.35 751.14 373.46 746.4 379.55 741.46 385.61 736.57 391.68 731.59 397.72 726.58 403.73 721.76 409.74 717.07 415.64 712.56 421.44 708.37 427.24 704.43 432.92 700.77 438.49 694.72 449.61 690.02 460.26 686.71 470.41 685.26 480.53 685.05 490.13 685.9 499.21 688.18 508.27 691.04 516.82 694.18 524.88 697.97 532.97 701.47 540.64 704.39 547.94 707.2 555.42 708.99 562.67 709.59 569.79 709.54 577.3 708.08 584.87 705.19 592.61 701.45 600.98 696.28 609.7 689.77 618.86 682.47 628.78 673.98 639.2 664.47 650.08 654.36 661.6 643.44 673.42 631.87 685.34 619.94 697.42 607.56 709.17 594.86 720.27 582.01 730.75 568.98 740 555.89 747.7 542.77 754.03 529.65 758.4 516.61 760.61 503.61 761.23 490.7 759.77 477.95 756.36 465.24 751.96 452.67 746.26 440.27 739.69 434.08 736.48 427.93 733.24 421.81 730.02 415.71 727.05 409.63 724.21 403.6 721.58 397.57 719.34 391.64 717.41 385.82 715.8 380 714.67 374.27 713.88 368.65 713.44 357.37 714 346.47 715.72 335.94 718.34 325.34 722.15 315.07 726.11 305.12 729.83 295.07 733.55 285.31 736.26 275.82 737.64 266.18 738.09 256.78 736.8 247.6 733.72 238.24 729.36 229.08 723.24 220.1 715.53 210.91 706.76 201.89 696.73 193.05 685.71 184 674.14 175.14 661.97 166.48 649.44 157.65 636.86 149.07 624.22 140.77 611.65 132.39 599.34 124.35 587.24 116.7 575.39 109.08 563.9 101.92 552.65 95.27 541.6 88.75 530.89 82.8 520.29 77.48 509.76 72.34 499.46 67.85 489.12 64.04 478.69 60.44 468.39 57.52 457.92 55.3 447.25 53.26 436.63 51.91 425.76 51.26 414.63 50.93 406.26 51.16 389.18 51.72 380.47 52.17 374.65 52.77 368.83 53.53 363.03 54.3 357.22 55.22 351.43 56.28 345.66 58.4 334.13 61.06 322.71 64.22 311.44 67.29 300.24 70.81 289.24 74.74 278.51 78.51 267.89 82.63 257.59 87.09 247.69 91.32 237.93 95.85 228.61 100.66 219.8 105.24 211.15 110.11 203.03 115.26 195.47 120.22 188.05 125.49 181.16 131.09 174.82 136.58 168.51 142.45 162.66 148.7 157.23 154.93 151.66 161.6 146.37 168.69 141.3 175.86 135.88 183.48 130.54 191.54 125.22 199.72 119.4 208.35 113.51 217.39 107.55 226.57 101.07 236.14 94.56 246.05 88.11 256.09 81.33 266.44 74.8 277.05 68.65 287.76 62.57 298.68 57.17 309.75 52.61 320.89 48.52 332.13 45.53 343.44 43.75 351.93 42.97 368.93 43.28 377.42 44.35" stroke-dasharray="0 0" transform="rotate(0, 400, 400)" opacity="0.63"></path><path d="M374.6 54.62C385.49 56.67 396.1 59.71 406.42 63.56 416.74 67.55 426.77 72.05 436.51 76.87 446.27 81.39 455.78 85.99 465.06 90.59 474.42 94.62 483.62 98.58 492.7 102.44 501.97 105.74 511.23 109.04 520.53 112.4 530.15 115.39 539.93 118.62 549.94 122.17 560.39 125.62 571.16 129.58 582.3 134.09 593.94 138.74 605.97 144.06 618.36 150.06 631.18 156.35 644.27 163.34 657.52 171 670.92 178.98 684.23 187.59 697.23 196.76 709.92 206.2 721.93 216.13 732.95 226.48 743.11 237.02 751.87 247.9 758.98 259.04 764.72 270.3 768.52 281.75 770.22 293.34 770.38 305 768.45 316.74 764.46 328.51 759.27 340.32 752.4 352.13 744.12 363.88 735.46 375.66 726.07 387.36 716.35 398.95 707.36 410.53 698.96 421.7 691.46 432.42 685.48 443.14 680.72 453.4 677.22 463.19 675.44 472.96 674.82 482.26 675.19 491.09 676.93 499.93 679.25 508.32 681.89 516.3 685.21 524.35 688.35 532.07 691.03 539.52 693.71 547.17 695.51 554.69 696.28 562.16 696.54 570.04 695.53 578.03 693.22 586.24 690.17 595.04 685.78 604.19 680.14 613.75 673.76 623.97 666.23 634.6 657.68 645.6 648.56 657.08 638.59 668.73 627.93 680.34 616.91 691.96 605.37 703.13 593.45 713.55 581.34 723.27 568.99 731.74 556.5 738.65 543.95 744.26 531.35 747.97 518.77 749.65 506.2 749.89 493.68 748.2 481.27 744.73 468.89 740.39 456.61 734.89 444.48 728.59 432.38 722.61 420.39 716.71 408.56 711.32 396.72 707.42 385.28 704.69 374.22 703.24 363.14 703.56 352.41 704.98 342.03 707.25 331.58 710.67 321.44 714.31 311.61 717.77 301.67 721.35 292 724.06 282.59 725.62 273.03 726.4 263.69 725.61 254.57 723.17 245.27 719.59 236.15 714.33 227.2 707.54 218.07 699.72 209.1 690.61 200.31 680.47 191.33 669.71 182.53 658.25 173.94 646.33 165.22 634.24 156.73 621.97 148.53 609.66 140.28 597.5 132.36 585.46 124.84 573.59 117.35 562.01 110.33 550.62 103.81 539.43 97.43 528.52 91.6 517.75 86.39 507.07 81.38 496.61 77 486.16 73.3 475.69 69.81 465.34 66.99 454.89 64.87 444.31 62.95 433.78 61.7 423.08 61.15 412.19 60.75 401.32 61.01 390.23 61.94 378.96 62.96 367.69 64.59 356.5 66.78 345.43 68.97 334.38 71.68 323.47 74.86 312.77 77.95 302.11 81.46 291.69 85.36 281.57 89.09 271.53 93.16 261.84 97.54 252.56 101.69 243.39 106.13 234.66 110.82 226.42 115.29 218.31 120.02 210.69 125.02 203.59 129.82 196.58 134.92 190.06 140.31 184.01 145.59 177.94 151.21 172.26 157.19 166.94 163.13 161.42 169.48 156.13 176.23 151 183.01 145.51 190.23 140.06 197.87 134.6 205.6 128.66 213.75 122.64 222.3 116.57 230.97 110.04 240.01 103.5 249.4 97.04 258.89 90.33 268.7 83.88 278.76 77.86 288.91 71.94 299.29 66.69 309.84 62.3 320.44 58.39 331.17 55.54 341.98 53.87 352.82 52.89 363.71 53.13 374.59 54.62" stroke-dasharray="0 0" transform="rotate(2.90625, 400, 400)" opacity="0.65"></path><path d="M372.55 64.88C383.04 66.91 393.32 69.9 403.35 73.68 413.39 77.61 423.21 82.05 432.8 86.82 442.43 91.32 451.87 95.94 461.14 100.57 470.51 104.67 479.78 108.71 489 112.66 498.4 116.06 507.85 119.45 517.38 122.87 527.2 125.9 537.22 129.11 547.47 132.59 558.11 135.92 569.06 139.68 580.33 143.93 592.03 148.26 604.05 153.19 616.35 158.73 628.97 164.5 641.77 170.94 654.62 178.01 667.52 185.36 680.22 193.32 692.52 201.84 704.45 210.62 715.62 219.89 725.78 229.59 735.07 239.49 742.98 249.75 749.29 260.28 754.31 270.95 757.49 281.84 758.7 292.89 758.51 304.01 756.36 315.24 752.33 326.52 747.22 337.85 740.57 349.19 732.62 360.49 724.35 371.81 715.41 383.06 706.13 394.21 697.53 405.36 689.44 416.12 682.15 426.47 676.26 436.8 671.45 446.72 667.79 456.21 665.72 465.69 664.71 474.76 664.63 483.41 665.85 492.09 667.65 500.4 669.79 508.37 672.65 516.45 675.4 524.28 677.8 531.91 680.29 539.79 682.04 547.6 682.91 555.43 683.38 563.66 682.73 572.05 680.91 580.67 678.45 589.84 674.77 599.34 669.9 609.19 664.37 619.6 657.73 630.34 650.09 641.33 641.91 652.66 632.88 664.04 623.12 675.25 613 686.34 602.31 696.87 591.19 706.57 579.86 715.53 568.22 723.22 556.38 729.37 544.46 734.27 532.42 737.38 520.34 738.58 508.25 738.47 496.17 736.59 484.14 733.09 472.13 728.83 460.2 723.53 448.37 717.51 436.56 711.82 424.84 706.21 413.25 701.05 401.66 697.29 390.43 694.59 379.56 693.05 368.67 693.16 358.11 694.29 347.87 696.22 337.57 699.27 327.56 702.57 317.83 705.77 308.01 709.17 298.42 711.84 289.08 713.51 279.6 714.56 270.32 714.19 261.24 712.34 252 709.45 242.93 705 234.03 699.08 224.96 692.18 216.05 684 207.31 674.75 198.41 664.85 189.69 654.18 181.19 642.94 172.57 631.45 164.2 619.65 156.11 607.72 148 595.85 140.22 583.98 132.83 572.22 125.5 560.67 118.62 549.26 112.24 538.01 106.01 527.01 100.33 516.13 95.25 505.37 90.37 494.8 86.12 484.28 82.54 473.78 79.17 463.4 76.47 452.97 74.46 442.49 72.65 432.05 71.52 421.51 71.07 410.85 70.77 400.2 71.14 389.41 72.17 378.5 73.28 367.58 74.99 356.81 77.25 346.2 79.5 335.6 82.25 325.19 85.46 315.02 88.56 304.88 92.08 295.01 95.95 285.47 99.65 275.99 103.67 266.87 107.98 258.15 112.06 249.52 116.41 241.33 121.01 233.6 125.37 225.95 129.99 218.77 134.85 212.06 139.51 205.39 144.45 199.15 149.67 193.33 154.74 187.44 160.15 181.87 165.88 176.6 171.56 171.09 177.61 165.76 184.03 160.55 190.47 154.96 197.32 149.38 204.55 143.79 211.85 137.73 219.56 131.6 227.65 125.45 235.82 118.87 244.37 112.32 253.25 105.89 262.22 99.25 271.5 92.92 281.05 87.03 290.67 81.28 300.52 76.21 310.56 71.99 320.65 68.25 330.89 65.56 341.24 64 351.6 63.11 362.05 63.4 372.54 64.88" stroke-dasharray="0 0" transform="rotate(5.8125, 400, 400)" opacity="0.39"></path><path d="M371.34 75.14C381.46 77.14 391.42 80.08 401.2 83.79 410.98 87.65 420.61 92.02 430.07 96.73 439.57 101.21 448.95 105.83 458.23 110.48 467.6 114.65 476.94 118.76 486.27 122.8 495.78 126.31 505.38 129.79 515.08 133.28 525.07 136.36 535.25 139.6 545.66 143.04 556.41 146.29 567.45 149.9 578.75 153.93 590.41 157.99 602.32 162.58 614.43 167.72 626.77 173.03 639.19 178.96 651.55 185.48 663.88 192.24 675.93 199.59 687.49 207.47 698.63 215.59 708.97 224.21 718.27 233.27 726.71 242.51 733.81 252.12 739.36 262.04 743.71 272.1 746.31 282.39 747.08 292.87 746.56 303.43 744.25 314.13 740.2 324.89 735.19 335.7 728.77 346.55 721.15 357.38 713.27 368.23 704.75 379.04 695.9 389.77 687.68 400.49 679.91 410.86 672.84 420.86 667.04 430.85 662.22 440.47 658.42 449.7 656.09 458.94 654.72 467.83 654.23 476.36 654.96 484.94 656.26 493.23 657.92 501.25 660.3 509.4 662.64 517.38 664.73 525.23 666.99 533.34 668.64 541.44 669.53 549.61 670.14 558.16 669.76 566.9 668.33 575.87 666.37 585.32 663.29 595.07 659.11 605.11 654.34 615.6 648.52 626.33 641.74 637.2 634.44 648.28 626.3 659.28 617.43 670.01 608.19 680.5 598.35 690.36 588.03 699.33 577.49 707.52 566.59 714.44 555.43 719.86 544.17 724.1 532.73 726.64 521.2 727.41 509.64 726.99 498.03 724.95 486.43 721.44 474.84 717.29 463.27 712.18 451.78 706.45 440.29 701.04 428.87 695.71 417.54 690.79 406.21 687.16 395.21 684.49 384.54 682.87 373.85 682.79 363.46 683.64 353.36 685.25 343.21 687.95 333.33 690.9 323.7 693.83 313.99 697.03 304.49 699.61 295.22 701.35 285.82 702.59 276.61 702.58 267.58 701.23 258.41 698.97 249.39 695.27 240.54 690.17 231.54 684.15 222.7 676.88 214.03 668.53 205.22 659.5 196.6 649.65 188.19 639.17 179.7 628.35 171.46 617.15 163.51 605.71 155.54 594.22 147.91 582.67 140.68 571.13 133.52 559.73 126.8 548.41 120.58 537.22 114.52 526.21 108.99 515.31 104.06 504.54 99.33 493.93 95.22 483.38 91.76 472.9 88.53 462.52 85.95 452.15 84.06 441.76 82.37 431.43 81.34 421.04 81 410.6 80.81 400.17 81.28 389.67 82.39 379.1 83.6 368.53 85.38 358.14 87.7 347.97 90.01 337.81 92.79 327.87 96.01 318.2 99.13 308.55 102.64 299.2 106.49 290.18 110.16 281.22 114.14 272.61 118.39 264.41 122.42 256.26 126.7 248.54 131.21 241.25 135.49 234 140 227.18 144.75 220.79 149.28 214.39 154.08 208.37 159.13 202.71 164.04 196.93 169.24 191.42 174.76 186.15 180.19 180.62 185.97 175.22 192.1 169.9 198.22 164.2 204.72 158.49 211.59 152.76 218.49 146.6 225.78 140.39 233.44 134.16 241.15 127.56 249.23 121.03 257.64 114.65 266.11 108.11 274.89 101.91 283.95 96.17 293.06 90.6 302.42 85.73 311.98 81.69 321.57 78.13 331.34 75.58 341.25 74.14 351.17 73.33 361.21 73.66 371.33 75.14" stroke-dasharray="0 0" transform="rotate(8.71875, 400, 400)" opacity="0.68"></path><path d="M371 85.4C380.78 87.38 390.44 90.25 399.98 93.88 409.53 97.67 418.98 101.96 428.32 106.61 437.71 111.06 447.03 115.67 456.29 120.32 465.66 124.54 475.04 128.73 484.46 132.84 494.05 136.46 503.74 140.03 513.57 143.61 523.65 146.77 533.92 150.04 544.41 153.47 555.19 156.68 566.21 160.19 577.46 164.06 588.98 167.89 600.68 172.2 612.51 176.99 624.48 181.91 636.44 187.38 648.25 193.4 659.96 199.61 671.31 206.38 682.11 213.67 692.45 221.16 701.95 229.14 710.42 237.56 718.04 246.15 724.36 255.13 729.19 264.42 732.91 273.85 734.99 283.54 735.36 293.44 734.57 303.41 732.12 313.55 728.08 323.79 723.18 334.07 716.99 344.42 709.71 354.78 702.2 365.15 694.1 375.52 685.68 385.83 677.83 396.14 670.37 406.15 663.53 415.82 657.84 425.49 653.01 434.85 649.1 443.87 646.54 452.92 644.86 461.67 643.98 470.13 644.26 478.66 645.08 486.95 646.26 495.06 648.18 503.31 650.11 511.45 651.86 519.52 653.85 527.85 655.34 536.23 656.19 544.7 656.86 553.52 656.67 562.54 655.55 571.77 654 581.41 651.43 591.3 647.84 601.42 643.76 611.88 638.67 622.48 632.67 633.12 626.2 643.85 618.9 654.4 610.86 664.57 602.48 674.43 593.47 683.58 583.95 691.79 574.2 699.22 564.05 705.39 553.59 710.11 543.01 713.73 532.2 715.75 521.25 716.13 510.25 715.45 499.15 713.29 488.01 709.79 476.87 705.75 465.71 700.86 454.57 695.4 443.44 690.28 432.34 685.23 421.29 680.53 410.24 677.03 399.48 674.4 389.03 672.71 378.55 672.46 368.34 673.05 358.4 674.35 348.4 676.69 338.65 679.32 329.13 681.96 319.53 684.93 310.13 687.4 300.93 689.15 291.63 690.53 282.49 690.81 273.52 689.89 264.43 688.18 255.48 685.14 246.7 680.81 237.79 675.62 229.03 669.22 220.45 661.76 211.75 653.62 203.25 644.63 194.96 634.94 186.61 624.87 178.51 614.33 170.71 603.47 162.91 592.49 155.46 581.35 148.39 570.16 141.42 559.02 134.88 547.91 128.83 536.87 122.95 525.97 117.59 515.15 112.82 504.44 108.26 493.87 104.3 483.37 100.98 472.95 97.89 462.62 95.45 452.33 93.67 442.07 92.11 431.86 91.19 421.64 90.95 411.42 90.87 401.21 91.42 390.98 92.62 380.74 93.91 370.5 95.75 360.49 98.12 350.72 100.47 340.96 103.29 331.46 106.52 322.26 109.66 313.06 113.16 304.18 116.98 295.65 120.64 287.14 124.58 279 128.78 271.24 132.76 263.52 136.97 256.19 141.41 249.27 145.61 242.36 150.04 235.83 154.68 229.69 159.11 223.49 163.78 217.62 168.69 212.06 173.44 206.34 178.47 200.84 183.79 195.53 189 189.94 194.55 184.45 200.41 179.01 206.24 173.19 212.42 167.37 218.95 161.52 225.49 155.26 232.4 148.98 239.66 142.71 246.95 136.12 254.59 129.63 262.55 123.32 270.56 116.91 278.88 110.86 287.47 105.29 296.11 99.92 305 95.24 314.1 91.39 323.23 88 332.57 85.61 342.06 84.28 351.56 83.55 361.22 83.92 370.99 85.4" stroke-dasharray="0 0" transform="rotate(11.625, 400, 400)" opacity="1.00"></path><path d="M371.55 95.66C381 97.61 390.39 100.42 399.71 103.96 409.04 107.67 418.31 111.88 427.53 116.45 436.8 120.86 446.05 125.44 455.3 130.1 464.64 134.36 474.03 138.6 483.49 142.79 493.11 146.5 502.85 150.18 512.74 153.84 522.84 157.09 533.13 160.42 543.61 163.88 554.33 167.08 565.25 170.52 576.34 174.27 587.64 177.94 599.05 182.01 610.5 186.52 622.02 191.09 633.46 196.16 644.67 201.74 655.72 207.46 666.33 213.7 676.35 220.43 685.89 227.33 694.57 234.71 702.22 242.52 709.06 250.48 714.64 258.83 718.8 267.51 721.93 276.31 723.54 285.4 723.55 294.71 722.52 304.1 719.97 313.67 715.95 323.38 711.19 333.12 705.24 342.96 698.29 352.85 691.15 362.76 683.46 372.69 675.45 382.6 667.98 392.51 660.83 402.16 654.21 411.54 648.64 420.93 643.83 430.04 639.84 438.9 637.08 447.77 635.12 456.41 633.88 464.84 633.73 473.33 634.1 481.67 634.83 489.87 636.28 498.22 637.79 506.52 639.2 514.8 640.89 523.33 642.18 531.93 642.93 540.64 643.6 549.67 643.52 558.88 642.61 568.27 641.39 578.01 639.24 587.94 636.16 598.01 632.66 608.34 628.24 618.71 622.94 629.01 617.22 639.31 610.7 649.33 603.46 658.89 595.88 668.07 587.68 676.49 578.93 683.95 569.97 690.63 560.56 696.08 550.8 700.14 540.92 703.18 530.76 704.73 520.4 704.76 509.99 703.86 499.43 701.6 488.78 698.14 478.11 694.23 467.39 689.55 456.64 684.37 445.9 679.53 435.14 674.74 424.39 670.27 413.65 666.9 403.15 664.31 392.92 662.57 382.67 662.15 372.66 662.5 362.88 663.51 353.06 665.52 343.45 667.81 334.05 670.16 324.58 672.88 315.29 675.21 306.18 676.92 296.98 678.39 287.93 678.89 279.04 678.32 270.04 677.1 261.19 674.66 252.49 671.01 243.69 666.6 235.04 661.04 226.56 654.42 218 647.17 209.63 639.03 201.48 630.17 193.3 620.89 185.37 611.08 177.73 600.87 170.13 590.49 162.86 579.87 155.98 569.12 149.21 558.36 142.86 547.56 137.01 536.79 131.32 526.09 126.15 515.45 121.55 504.9 117.17 494.44 113.37 484.06 110.2 473.76 107.27 463.54 104.96 453.38 103.31 443.27 101.86 433.22 101.06 423.18 100.92 413.19 100.93 403.22 101.58 393.26 102.84 383.34 104.2 373.42 106.11 363.76 108.51 354.38 110.91 345 113.75 335.9 116.98 327.11 120.13 318.33 123.62 309.88 127.42 301.76 131.06 293.67 134.97 285.92 139.12 278.55 143.06 271.18 147.22 264.19 151.59 257.56 155.73 250.92 160.09 244.61 164.64 238.65 168.98 232.59 173.54 226.82 178.33 221.3 182.95 215.6 187.83 210.07 192.97 204.69 197.99 199.03 203.32 193.42 208.95 187.86 214.51 181.94 220.42 176 226.64 170.04 232.86 163.72 239.41 157.4 246.3 151.11 253.21 144.56 260.45 138.13 268 131.92 275.58 125.66 283.47 119.77 291.63 114.39 299.82 109.23 308.27 104.75 316.96 101.09 325.66 97.89 334.58 95.64 343.69 94.42 352.8 93.78 362.09 94.19 371.54 95.66" stroke-dasharray="0 0" transform="rotate(14.53125, 400, 400)" opacity="0.86"></path><path d="M372.97 105.92C382.11 107.83 391.24 110.58 400.34 114.03 409.46 117.66 418.57 121.78 427.66 126.26 436.8 130.62 445.97 135.16 455.17 139.8 464.46 144.09 473.82 148.37 483.28 152.63 492.87 156.43 502.61 160.21 512.48 163.96 522.53 167.31 532.76 170.71 543.14 174.21 553.72 177.43 564.45 180.86 575.3 184.53 586.28 188.08 597.32 191.98 608.33 196.25 619.34 200.54 630.19 205.27 640.75 210.46 651.1 215.74 660.97 221.51 670.2 227.74 678.94 234.1 686.82 240.92 693.68 248.15 699.77 255.51 704.65 263.26 708.19 271.35 710.79 279.54 711.96 288.04 711.65 296.78 710.43 305.59 707.8 314.61 703.83 323.78 699.21 333 693.51 342.34 686.89 351.76 680.12 361.2 672.83 370.7 665.23 380.23 658.11 389.76 651.27 399.08 644.89 408.19 639.45 417.3 634.68 426.2 630.63 434.9 627.7 443.63 625.48 452.19 623.93 460.58 623.39 469.06 623.33 477.43 623.62 485.73 624.63 494.17 625.72 502.6 626.77 511.05 628.14 519.72 629.19 528.49 629.8 537.36 630.4 546.52 630.36 555.83 629.61 565.28 628.61 575.01 626.8 584.86 624.15 594.79 621.15 604.87 617.29 614.91 612.62 624.79 607.58 634.59 601.77 644.02 595.26 652.92 588.44 661.39 581 669.08 573 675.79 564.79 681.74 556.12 686.51 547.06 689.95 537.87 692.46 528.36 693.58 518.61 693.31 508.8 692.22 498.8 689.9 488.65 686.49 478.49 682.72 468.22 678.27 457.89 673.35 447.56 668.79 437.17 664.26 426.75 660.01 416.33 656.78 406.12 654.23 396.14 652.45 386.14 651.87 376.34 652.01 366.74 652.74 357.11 654.42 347.66 656.39 338.4 658.44 329.08 660.91 319.91 663.06 310.91 664.7 301.83 666.2 292.89 666.86 284.1 666.58 275.23 665.76 266.49 663.84 257.9 660.81 249.23 657.11 240.71 652.32 232.36 646.53 223.96 640.12 215.75 632.83 207.77 624.8 199.77 616.34 192.03 607.3 184.58 597.81 177.18 588.09 170.13 578.07 163.45 567.86 156.89 557.57 150.77 547.19 145.11 536.78 139.63 526.4 134.67 516.03 130.26 505.71 126.06 495.46 122.44 485.27 119.43 475.17 116.65 465.12 114.48 455.13 112.96 445.22 111.64 435.35 110.95 425.54 110.9 415.79 111.02 406.06 111.74 396.38 113.07 386.76 114.49 377.15 116.45 367.83 118.88 358.8 121.31 349.77 124.16 341.05 127.4 332.64 130.55 324.23 134.03 316.15 137.81 308.4 141.42 300.66 145.3 293.25 149.41 286.2 153.32 279.13 157.43 272.4 161.75 266 165.84 259.56 170.12 253.42 174.6 247.57 178.86 241.6 183.34 235.87 188.02 230.35 192.53 224.63 197.27 219.05 202.26 213.58 207.12 207.82 212.26 202.11 217.68 196.43 223.02 190.41 228.67 184.37 234.62 178.34 240.54 171.98 246.79 165.63 253.35 159.36 259.9 152.87 266.78 146.54 273.96 140.46 281.14 134.36 288.63 128.66 296.4 123.48 304.18 118.53 312.23 114.27 320.53 110.8 328.82 107.78 337.36 105.69 346.11 104.58 354.85 104.02 363.81 104.46 372.96 105.92" stroke-dasharray="0 0" transform="rotate(17.4375, 400, 400)" opacity="0.33"></path><path d="M375.21 116.18C384.07 118.06 392.95 120.73 401.84 124.09 410.74 127.62 419.67 131.65 428.63 136.04 437.63 140.33 446.69 144.82 455.81 149.44 465.01 153.73 474.31 158.05 483.7 162.35 493.22 166.25 502.88 170.11 512.66 173.95 522.6 177.41 532.68 180.89 542.89 184.45 553.24 187.72 563.7 191.15 574.22 194.78 584.82 198.26 595.41 202.03 605.91 206.13 616.35 210.19 626.57 214.65 636.45 219.51 646.08 224.42 655.19 229.77 663.64 235.55 671.59 241.43 678.69 247.73 684.8 254.44 690.18 261.25 694.4 268.44 697.37 275.97 699.48 283.58 700.26 291.51 699.69 299.7 698.3 307.95 695.62 316.43 691.72 325.09 687.26 333.79 681.81 342.64 675.51 351.61 669.1 360.6 662.2 369.68 655 378.84 648.24 388 641.71 397.01 635.56 405.85 630.27 414.71 625.55 423.41 621.46 431.97 618.39 440.56 615.96 449.04 614.12 457.41 613.21 465.86 612.76 474.26 612.65 482.62 613.22 491.11 613.91 499.64 614.58 508.2 615.62 516.96 616.41 525.82 616.84 534.78 617.32 543.96 617.26 553.28 616.59 562.69 615.75 572.3 614.19 581.97 611.88 591.64 609.29 601.38 605.92 611 601.79 620.39 597.35 629.61 592.18 638.41 586.34 646.62 580.22 654.38 573.49 661.33 566.2 667.31 558.71 672.57 550.74 676.68 542.36 679.55 533.85 681.57 524.99 682.32 515.85 681.78 506.65 680.54 497.21 678.19 487.59 674.85 477.95 671.24 468.16 667 458.26 662.36 448.36 658.06 438.36 653.78 428.29 649.75 418.22 646.65 408.32 644.15 398.6 642.33 388.87 641.63 379.31 641.56 369.91 642.03 360.5 643.4 351.23 645.05 342.12 646.82 332.97 649.01 323.96 650.97 315.09 652.5 306.16 653.98 297.36 654.74 288.69 654.68 279.96 654.19 271.36 652.71 262.91 650.24 254.4 647.17 246.04 643.09 237.86 638.06 229.64 632.46 221.61 626.01 213.82 618.8 206.03 611.17 198.5 602.92 191.27 594.18 184.1 585.18 177.27 575.83 170.82 566.22 164.5 556.49 158.6 546.61 153.16 536.65 147.91 526.67 143.15 516.66 138.94 506.67 134.94 496.72 131.51 486.8 128.67 476.95 126.05 467.14 124.03 457.39 122.64 447.72 121.45 438.08 120.87 428.51 120.91 419.03 121.11 409.56 121.91 400.16 123.29 390.85 124.77 381.54 126.77 372.53 129.22 363.84 131.67 355.14 134.54 346.75 137.77 338.68 140.91 330.6 144.38 322.84 148.13 315.41 151.73 307.96 155.58 300.84 159.64 294.04 163.52 287.21 167.59 280.68 171.86 274.45 175.9 268.16 180.14 262.12 184.54 256.33 188.75 250.41 193.15 244.69 197.73 239.13 202.15 233.37 206.78 227.72 211.64 222.15 216.36 216.3 221.34 210.49 226.57 204.69 231.71 198.59 237.14 192.49 242.86 186.39 248.52 180.02 254.49 173.7 260.75 167.47 266.99 161.07 273.54 154.86 280.38 148.93 287.21 143.02 294.34 137.52 301.75 132.55 309.16 127.83 316.84 123.79 324.77 120.52 332.7 117.69 340.88 115.74 349.29 114.74 357.7 114.26 366.34 114.74 375.2 116.18" stroke-dasharray="0 0" transform="rotate(20.34375, 400, 400)" opacity="0.12"></path><path d="M378.21 126.44C386.79 128.28 395.43 130.88 404.1 134.14 412.79 137.58 421.54 141.49 430.34 145.79 439.18 150 448.11 154.43 457.1 159 466.18 163.29 475.36 167.63 484.64 171.97 494.03 175.93 503.54 179.88 513.17 183.8 522.91 187.36 532.78 190.94 542.73 194.57 552.78 197.9 562.89 201.36 573.01 204.99 583.16 208.43 593.24 212.12 603.17 216.09 613 219.99 622.56 224.22 631.73 228.82 640.62 233.42 648.98 238.43 656.65 243.82 663.84 249.27 670.19 255.12 675.58 261.35 680.29 267.66 683.91 274.34 686.36 281.35 688.02 288.43 688.47 295.82 687.66 303.49 686.13 311.21 683.44 319.17 679.63 327.34 675.33 335.54 670.14 343.93 664.16 352.47 658.11 361.02 651.59 369.7 644.78 378.5 638.37 387.3 632.14 396.01 626.23 404.61 621.09 413.21 616.44 421.73 612.34 430.14 609.16 438.6 606.53 446.98 604.44 455.31 603.21 463.72 602.4 472.11 601.9 480.49 602.07 489 602.36 497.56 602.67 506.17 603.36 514.95 603.86 523.81 604.08 532.76 604.41 541.88 604.28 551.09 603.62 560.36 602.87 569.75 601.48 579.14 599.43 588.46 597.17 597.78 594.2 606.9 590.54 615.72 586.62 624.33 582.02 632.46 576.77 639.96 571.29 647 565.2 653.23 558.57 658.51 551.76 663.1 544.46 666.61 536.73 668.95 528.88 670.54 520.66 670.94 512.13 670.19 503.52 668.82 494.66 666.46 485.57 663.23 476.45 659.77 467.15 655.76 457.7 651.38 448.25 647.34 438.66 643.31 428.96 639.49 419.27 636.52 409.7 634.08 400.27 632.24 390.83 631.41 381.53 631.15 372.36 631.39 363.18 632.46 354.12 633.81 345.2 635.28 336.25 637.21 327.41 638.94 318.7 640.35 309.95 641.76 301.31 642.57 292.81 642.66 284.25 642.43 275.82 641.33 267.54 639.32 259.21 636.82 251.04 633.38 243.05 629.06 235.04 624.21 227.23 618.55 219.65 612.14 212.09 605.32 204.8 597.87 197.8 589.9 190.88 581.66 184.3 573.01 178.1 564.06 172.03 554.96 166.37 545.65 161.17 536.21 156.15 526.72 151.62 517.16 147.62 507.57 143.83 497.99 140.59 488.41 137.92 478.88 135.47 469.38 133.6 459.92 132.34 450.54 131.28 441.18 130.8 431.89 130.93 422.69 131.22 413.5 132.08 404.39 133.52 395.39 135.05 386.38 137.07 377.68 139.53 369.3 142 360.9 144.87 352.82 148.08 345.04 151.22 337.26 154.67 329.77 158.39 322.61 161.96 315.41 165.78 308.51 169.81 301.92 173.65 295.27 177.69 288.89 181.9 282.78 185.91 276.58 190.1 270.61 194.45 264.85 198.6 258.94 202.94 253.19 207.45 247.58 211.78 241.76 216.32 236.02 221.07 230.36 225.67 224.43 230.51 218.52 235.58 212.64 240.56 206.48 245.8 200.33 251.3 194.22 256.74 187.87 262.46 181.59 268.46 175.44 274.42 169.16 280.68 163.11 287.22 157.35 293.74 151.64 300.54 146.37 307.62 141.63 314.69 137.14 322.03 133.31 329.64 130.25 337.23 127.6 345.08 125.8 353.18 124.91 361.27 124.51 369.62 125.02 378.2 126.44" stroke-dasharray="0 0" transform="rotate(23.25, 400, 400)" opacity="0.90"></path><path d="M381.87 136.7C390.19 138.5 398.58 141.02 407.04 144.18 415.51 147.51 424.06 151.32 432.68 155.5 441.34 159.62 450.09 163.98 458.93 168.49 467.83 172.76 476.85 177.1 485.95 181.46 495.15 185.48 504.46 189.49 513.85 193.5 523.34 197.15 532.91 200.82 542.53 204.53 552.21 207.94 561.91 211.46 571.56 215.1 581.2 218.55 590.72 222.2 600.04 226.08 609.23 229.86 618.1 233.93 626.56 238.32 634.71 242.68 642.31 247.39 649.24 252.45 655.69 257.55 661.32 263.01 666.04 268.82 670.13 274.69 673.19 280.9 675.16 287.45 676.43 294.04 676.57 300.94 675.58 308.13 673.95 315.35 671.26 322.83 667.55 330.54 663.43 338.27 658.49 346.22 652.84 354.34 647.13 362.47 640.98 370.78 634.55 379.23 628.49 387.69 622.55 396.1 616.89 404.46 611.91 412.82 607.35 421.13 603.26 429.4 599.99 437.7 597.21 445.98 594.9 454.23 593.38 462.56 592.24 470.9 591.39 479.26 591.17 487.73 591.08 496.25 591.04 504.83 591.38 513.54 591.59 522.32 591.57 531.17 591.7 540.13 591.46 549.14 590.76 558.16 590.04 567.24 588.76 576.26 586.9 585.14 584.88 593.96 582.24 602.53 578.96 610.74 575.48 618.69 571.37 626.13 566.65 632.92 561.73 639.25 556.23 644.77 550.21 649.38 544.02 653.35 537.34 656.3 530.24 658.16 523.01 659.35 515.4 659.47 507.46 658.54 499.45 657.09 491.14 654.74 482.59 651.61 474.01 648.32 465.2 644.54 456.21 640.42 447.22 636.63 438.06 632.85 428.75 629.23 419.45 626.39 410.23 624.01 401.12 622.15 392 621.22 382.98 620.79 374.07 620.81 365.15 621.61 356.33 622.66 347.62 623.85 338.89 625.5 330.26 627 321.75 628.25 313.2 629.56 304.76 630.37 296.44 630.57 288.09 630.52 279.87 629.72 271.78 628.11 263.68 626.09 255.73 623.22 247.95 619.53 240.18 615.38 232.61 610.45 225.28 604.81 217.98 598.77 210.94 592.11 204.21 584.91 197.56 577.43 191.24 569.52 185.3 561.26 179.5 552.84 174.1 544.16 169.15 535.3 164.38 526.36 160.09 517.31 156.31 508.19 152.73 499.06 149.68 489.89 147.19 480.75 144.92 471.61 143.2 462.49 142.07 453.44 141.13 444.41 140.77 435.43 140.98 426.54 141.35 417.66 142.27 408.85 143.74 400.15 145.31 391.45 147.35 383.05 149.82 374.95 152.3 366.85 155.15 359.04 158.35 351.53 161.47 344 164.89 336.76 168.57 329.81 172.13 322.82 175.91 316.11 179.89 309.67 183.71 303.16 187.71 296.89 191.88 290.86 195.85 284.72 200 278.78 204.3 273.01 208.41 267.09 212.68 261.3 217.13 255.63 221.4 249.75 225.86 243.94 230.51 238.18 235.01 232.18 239.74 226.21 244.68 220.27 249.51 214.08 254.58 207.92 259.9 201.82 265.15 195.53 270.66 189.33 276.43 183.29 282.15 177.17 288.15 171.29 294.41 165.73 300.65 160.25 307.17 155.21 313.95 150.7 320.72 146.45 327.75 142.86 335.05 139.99 342.34 137.53 349.89 135.88 357.69 135.09 365.49 134.76 373.55 135.29 381.87 136.7" stroke-dasharray="0 0" transform="rotate(26.15625, 400, 400)" opacity="0.18"></path><path d="M386.09 146.97C394.15 148.71 402.3 151.16 410.52 154.21 418.76 157.43 427.09 161.12 435.5 165.18 443.95 169.2 452.5 173.47 461.13 177.91 469.82 182.15 478.62 186.47 487.5 190.83 496.44 194.89 505.48 198.96 514.58 203.02 523.74 206.76 532.96 210.52 542.18 214.31 551.43 217.81 560.65 221.39 569.79 225.07 578.87 228.55 587.79 232.19 596.47 236.02 604.99 239.73 613.17 243.69 620.9 247.92 628.33 252.1 635.2 256.58 641.39 261.38 647.14 266.17 652.1 271.3 656.18 276.76 659.7 282.24 662.25 288.06 663.79 294.18 664.71 300.34 664.6 306.8 663.45 313.55 661.74 320.32 659.08 327.36 655.49 334.64 651.56 341.94 646.87 349.46 641.54 357.2 636.17 364.93 630.39 372.87 624.33 381 618.6 389.12 612.96 397.24 607.55 405.35 602.74 413.46 598.27 421.57 594.21 429.66 590.89 437.79 587.99 445.93 585.49 454.07 583.72 462.28 582.27 470.52 581.11 478.8 580.52 487.16 580.08 495.57 579.69 504.04 579.69 512.59 579.6 521.21 579.33 529.85 579.25 538.56 578.85 547.29 578.08 555.96 577.32 564.64 576.09 573.21 574.36 581.59 572.52 589.85 570.12 597.81 567.15 605.37 564.03 612.65 560.33 619.39 556.07 625.48 551.65 631.11 546.67 635.96 541.2 639.93 535.57 643.32 529.48 645.76 522.95 647.2 516.31 648.04 509.29 647.91 501.91 646.84 494.47 645.33 486.72 643.02 478.69 640.01 470.63 636.9 462.33 633.34 453.81 629.48 445.28 625.93 436.56 622.38 427.67 618.97 418.77 616.26 409.93 613.95 401.15 612.09 392.37 611.06 383.66 610.48 375.04 610.29 366.4 610.83 357.85 611.61 349.39 612.53 340.91 613.89 332.52 615.16 324.23 616.23 315.93 617.41 307.72 618.17 299.62 618.42 291.52 618.51 283.52 617.93 275.67 616.65 267.82 615.03 260.12 612.65 252.6 609.52 245.1 606 237.79 601.75 230.72 596.81 223.71 591.52 216.96 585.61 210.5 579.17 204.15 572.45 198.12 565.28 192.45 557.73 186.93 550.01 181.81 541.99 177.12 533.76 172.61 525.43 168.56 516.93 165 508.34 161.65 499.71 158.8 491.02 156.5 482.31 154.4 473.59 152.83 464.87 151.83 456.2 151.02 447.52 150.75 438.89 151.05 430.34 151.49 421.79 152.46 413.3 153.97 404.91 155.57 396.52 157.62 388.41 160.08 380.59 162.55 372.76 165.39 365.21 168.56 357.93 171.66 350.64 175.05 343.6 178.69 336.84 182.21 330.03 185.96 323.46 189.9 317.13 193.68 310.74 197.64 304.55 201.76 298.56 205.71 292.46 209.81 286.52 214.06 280.73 218.13 274.8 222.36 268.96 226.75 263.22 230.97 257.29 235.36 251.42 239.93 245.59 244.35 239.55 248.98 233.54 253.8 227.57 258.51 221.39 263.45 215.26 268.61 209.21 273.68 203.01 279.01 196.93 284.58 191.03 290.09 185.09 295.86 179.41 301.89 174.07 307.88 168.84 314.14 164.04 320.66 159.78 327.15 155.78 333.9 152.41 340.92 149.75 347.92 147.47 355.19 145.96 362.72 145.27 370.24 145.02 378.03 145.58 386.08 146.96" stroke-dasharray="0 0" transform="rotate(29.0625, 400, 400)" opacity="0.46"></path><path d="M390.74 157.23C398.53 158.93 406.43 161.29 414.4 164.23 422.4 167.34 430.49 170.9 438.67 174.83 446.88 178.74 455.18 182.91 463.57 187.26 472 191.45 480.52 195.73 489.11 200.08 497.76 204.15 506.46 208.26 515.21 212.37 523.99 216.19 532.79 220.02 541.56 223.88 550.33 227.47 559.03 231.12 567.6 234.86 576.1 238.38 584.39 242.04 592.41 245.86 600.26 249.54 607.73 253.43 614.75 257.55 621.46 261.59 627.62 265.9 633.12 270.48 638.2 275.04 642.52 279.9 646.03 285.06 650.06 292.96 652.71 310.27 651.28 319.66 649.53 326.03 646.91 332.66 643.46 339.55 639.71 346.45 635.29 353.59 630.27 360.95 625.23 368.32 619.8 375.9 614.1 383.7 608.7 391.5 603.36 399.34 598.19 407.18 593.56 415.04 589.21 422.92 585.2 430.82 581.85 438.74 578.85 446.71 576.21 454.69 574.21 462.73 572.5 470.81 571.05 478.93 570.13 487.12 569.36 495.35 568.65 503.61 568.32 511.94 567.92 520.3 567.4 528.65 567.08 537.03 566.5 545.37 565.62 553.62 564.79 561.83 563.56 569.89 561.89 577.7 560.16 585.36 557.94 592.69 555.22 599.58 552.39 606.17 549.03 612.22 545.15 617.62 541.15 622.58 536.64 626.79 531.64 630.18 526.53 633.03 520.96 635 514.96 636.06 508.87 636.61 502.39 636.28 495.56 635.1 488.66 633.56 481.44 631.31 473.93 628.44 466.38 625.5 458.57 622.16 450.53 618.56 442.48 615.25 434.2 611.93 425.73 608.71 417.26 606.13 408.81 603.88 400.39 602.03 391.98 600.93 383.6 600.21 375.29 599.84 366.97 600.14 358.71 600.66 350.53 601.31 342.34 602.4 334.22 603.43 326.2 604.3 318.16 605.33 310.22 606.01 302.38 606.26 294.55 606.42 286.82 606 279.24 604.97 271.67 603.69 264.25 601.72 257.01 599.08 249.8 596.11 242.8 592.46 236.02 588.18 229.32 583.57 222.87 578.38 216.72 572.65 210.67 566.67 204.94 560.23 199.57 553.4 194.34 546.38 189.5 539.05 185.09 531.46 180.84 523.77 177.05 515.88 173.72 507.85 170.6 499.77 167.96 491.59 165.84 483.36 163.91 475.11 162.5 466.83 161.63 458.56 160.93 450.29 160.77 442.04 161.13 433.84 161.64 425.65 162.66 417.5 164.19 409.43 165.81 401.35 167.87 393.54 170.32 385.98 172.78 378.42 175.59 371.11 178.72 364.05 181.79 356.96 185.14 350.12 188.73 343.5 192.21 336.85 195.91 330.4 199.81 324.17 203.55 317.86 207.47 311.73 211.55 305.76 215.46 299.7 219.52 293.76 223.73 287.95 227.76 281.99 231.95 276.12 236.28 270.33 240.45 264.37 244.79 258.45 249.28 252.59 253.64 246.54 258.18 240.52 262.9 234.56 267.51 228.43 272.33 222.37 277.35 216.4 282.29 210.33 287.45 204.4 292.85 198.68 298.17 192.95 303.75 187.5 309.56 182.39 315.33 177.42 321.36 172.89 327.64 168.87 333.88 165.13 340.39 161.99 347.15 159.52 353.89 157.43 360.89 156.06 368.15 155.47 375.41 155.28 382.93 155.86 390.73 157.22" stroke-dasharray="0 0" transform="rotate(31.96875, 400, 400)" opacity="0.83"></path><path d="M395.66 167.49C403.19 169.14 410.83 171.41 418.54 174.24 426.28 177.23 434.11 180.66 442.01 184.45 449.95 188.25 457.98 192.3 466.07 196.55 474.2 200.66 482.41 204.89 490.66 209.2 498.95 213.28 507.28 217.4 515.61 221.54 523.96 225.41 532.3 229.31 540.57 233.24 548.82 236.91 556.96 240.63 564.93 244.42 572.82 248 580.47 251.7 587.82 255.53 594.98 259.2 601.76 263.06 608.08 267.1 614.11 271.05 619.58 275.24 624.42 279.66 630.74 286.36 638.93 301.09 640.59 309.14 640.95 314.59 640.44 320.33 639.08 326.33 637.31 332.34 634.75 338.62 631.45 345.14 627.9 351.67 623.73 358.45 619.02 365.47 614.3 372.49 609.22 379.74 603.88 387.22 598.8 394.7 593.75 402.24 588.83 409.81 584.38 417.4 580.17 425.04 576.23 432.71 572.86 440.4 569.8 448.14 567.04 455.92 564.85 463.73 562.92 471.6 561.21 479.49 560 487.43 558.92 495.4 557.91 503.39 557.26 511.41 556.58 519.42 555.8 527.4 555.23 535.37 554.46 543.27 553.44 551.02 552.5 558.71 551.22 566.19 549.57 573.4 547.9 580.43 545.8 587.1 543.26 593.31 539.1 601.91 528.3 615.47 521.67 620.12 514.45 623.27 497.81 624.83 488.5 623.33 482.12 621.78 475.4 619.61 468.39 616.88 461.35 614.12 454.02 611.01 446.45 607.65 438.87 604.58 431.05 601.47 423.01 598.45 414.98 595.99 406.93 593.83 398.89 591.98 390.86 590.82 382.85 589.99 374.87 589.45 366.9 589.53 358.97 589.81 351.09 590.2 343.22 591.03 335.41 591.82 327.68 592.49 319.95 593.34 312.3 593.91 304.76 594.12 297.23 594.3 289.8 593.99 282.52 593.15 275.26 592.12 268.15 590.49 261.22 588.26 254.34 585.76 247.66 582.65 241.2 578.94 234.83 574.97 228.7 570.43 222.87 565.38 217.14 560.09 211.73 554.35 206.67 548.21 201.75 541.9 197.21 535.25 193.07 528.32 189.1 521.27 185.56 514 182.48 506.56 179.58 499.06 177.15 491.43 175.21 483.71 173.46 475.97 172.2 468.16 171.46 460.33 170.88 452.5 170.81 444.66 171.24 436.84 171.81 429.02 172.87 421.22 174.42 413.47 176.05 405.72 178.1 398.2 180.53 390.91 182.97 383.61 185.75 376.53 188.82 369.67 191.86 362.79 195.16 356.12 198.69 349.65 202.13 343.13 205.78 336.8 209.61 330.64 213.32 324.41 217.19 318.33 221.22 312.39 225.09 306.35 229.11 300.42 233.27 294.59 237.27 288.63 241.41 282.75 245.69 276.93 249.82 270.96 254.1 265.04 258.53 259.17 262.83 253.14 267.29 247.16 271.93 241.25 276.45 235.21 281.17 229.25 286.07 223.41 290.89 217.51 295.91 211.77 301.15 206.25 306.32 200.76 311.72 195.55 317.34 190.71 322.92 186 328.74 181.74 334.79 177.99 340.81 174.49 347.08 171.58 353.6 169.32 360.1 167.4 366.85 166.17 373.86 165.68 380.86 165.55 388.12 166.15 395.65 167.49" stroke-dasharray="0 0" transform="rotate(34.875, 400, 400)" opacity="0.25"></path><path d="M400.72 177.75C407.98 179.34 415.34 181.53 422.78 184.24 430.23 187.1 437.77 190.4 445.38 194.04 453.01 197.71 460.73 201.64 468.49 205.77 476.28 209.79 484.12 213.95 491.99 218.2 499.88 222.25 507.79 226.37 515.67 230.52 523.54 234.43 531.37 238.37 539.11 242.35 546.8 246.09 554.36 249.88 561.72 253.72 568.97 257.37 575.98 261.11 582.66 264.96 589.15 268.65 595.25 272.49 600.9 276.5 606.26 280.4 611.09 284.5 615.32 288.8 620.79 295.29 627.61 309.41 628.8 317.08 628.93 322.26 628.28 327.7 626.85 333.41 625.09 339.1 622.61 345.05 619.46 351.25 616.11 357.45 612.2 363.9 607.8 370.59 603.4 377.28 598.65 384.2 593.65 391.37 588.89 398.53 584.13 405.77 579.46 413.06 575.2 420.36 571.13 427.72 567.27 435.13 563.93 442.55 560.83 450.03 557.98 457.54 555.64 465.08 553.52 472.67 551.6 480.27 550.12 487.9 548.76 495.54 547.48 503.17 546.54 510.81 545.57 518.42 544.54 525.95 543.73 533.45 542.76 540.83 541.58 548.04 540.5 555.16 539.15 562.04 537.47 568.61 535.81 575 533.79 581 531.37 586.55 527.48 594.16 517.49 605.9 511.4 609.78 504.77 612.32 489.46 613.14 480.85 611.53 474.95 610.01 468.72 607.92 462.18 605.35 455.62 602.78 448.77 599.88 441.67 596.76 434.55 593.91 427.18 591.03 419.59 588.18 412 585.86 404.37 583.77 396.73 581.95 389.1 580.74 381.47 579.8 373.86 579.12 366.25 579 358.67 579.05 351.14 579.22 343.61 579.79 336.14 580.34 328.73 580.8 321.34 581.46 314.02 581.9 306.8 582.03 299.61 582.19 292.52 581.93 285.57 581.22 278.65 580.38 271.88 579.02 265.29 577.12 258.75 575.02 252.41 572.37 246.3 569.17 240.27 565.75 234.49 561.8 228.99 557.37 223.61 552.73 218.53 547.65 213.79 542.17 209.18 536.53 204.94 530.54 201.09 524.26 197.4 517.87 194.12 511.22 191.28 504.38 188.61 497.47 186.39 490.41 184.64 483.22 183.06 476 181.95 468.69 181.33 461.33 180.86 453.95 180.87 446.54 181.37 439.12 182 431.69 183.09 424.26 184.64 416.85 186.28 409.44 188.32 402.21 190.71 395.19 193.12 388.16 195.86 381.31 198.88 374.65 201.86 367.97 205.11 361.46 208.58 355.12 211.96 348.75 215.55 342.52 219.32 336.44 222.98 330.29 226.79 324.27 230.76 318.36 234.59 312.36 238.56 306.45 242.67 300.63 246.63 294.69 250.73 288.81 254.96 283 259.04 277.06 263.27 271.17 267.64 265.34 271.88 259.38 276.28 253.48 280.84 247.66 285.28 241.75 289.91 235.94 294.7 230.27 299.41 224.57 304.31 219.05 309.41 213.76 314.44 208.53 319.68 203.6 325.13 199.02 330.53 194.6 336.16 190.62 342.01 187.12 347.83 183.88 353.88 181.2 360.17 179.14 366.43 177.39 372.94 176.3 379.7 175.89 386.45 175.83 393.45 176.44 400.71 177.75" stroke-dasharray="0 0" transform="rotate(37.78125, 400, 400)" opacity="0.80"></path><path d="M405.76 188.01C412.74 189.55 419.81 191.64 426.95 194.23 434.1 196.97 441.33 200.12 448.61 203.61 455.91 207.14 463.27 210.93 470.67 214.92 478.08 218.84 485.53 222.91 492.98 227.08 500.43 231.09 507.87 235.17 515.26 239.3 522.63 243.23 529.93 247.2 537.1 251.2 544.22 254.99 551.17 258.83 557.91 262.72 564.53 266.43 570.89 270.21 576.91 274.09 582.75 277.81 588.2 281.66 593.2 285.64 600.05 291.54 610.51 304.11 613.91 310.86 616.11 317.75 616.46 332.66 614.62 340.7 612.88 346.12 610.5 351.79 607.52 357.69 604.37 363.59 600.71 369.73 596.61 376.11 592.51 382.48 588.1 389.1 583.43 395.95 578.97 402.8 574.49 409.72 570.08 416.71 566.02 423.71 562.1 430.77 558.35 437.87 555.04 444.99 551.93 452.16 549.02 459.36 546.57 466.57 544.3 473.82 542.19 481.07 540.49 488.32 538.89 495.57 537.36 502.79 536.15 509.98 534.93 517.12 533.66 524.15 532.61 531.13 531.43 537.96 530.08 544.59 528.86 551.1 527.4 557.35 525.67 563.28 522.99 571.7 515.94 585.94 511.5 591.52 506.61 595.99 494.86 601.18 488.01 601.84 480.73 601.39 464.41 597.25 455.44 593.85 449.33 591.46 442.94 588.78 436.29 585.9 429.63 583.26 422.71 580.58 415.57 577.92 408.42 575.73 401.22 573.72 394 571.93 386.79 570.68 379.55 569.66 372.32 568.86 365.11 568.56 357.91 568.4 350.74 568.35 343.59 568.68 336.47 569 329.43 569.25 322.4 569.72 315.44 570 308.58 570.04 301.75 570.13 295.02 569.88 288.43 569.24 281.88 568.53 275.47 567.37 269.24 565.74 263.08 563.96 257.1 561.69 251.35 558.93 245.69 555.98 240.27 552.56 235.12 548.68 230.08 544.63 225.34 540.16 220.93 535.29 216.65 530.28 212.71 524.93 209.16 519.27 205.75 513.51 202.73 507.48 200.13 501.23 197.69 494.92 195.68 488.42 194.11 481.77 192.7 475.09 191.74 468.29 191.23 461.4 190.88 454.5 190.97 447.53 191.52 440.52 192.2 433.5 193.31 426.45 194.87 419.39 196.5 412.32 198.51 405.41 200.87 398.65 203.24 391.89 205.92 385.28 208.88 378.82 211.81 372.35 214.98 366.01 218.38 359.82 221.7 353.59 225.22 347.47 228.92 341.48 232.51 335.43 236.26 329.48 240.16 323.62 243.94 317.69 247.86 311.83 251.9 306.04 255.82 300.15 259.87 294.32 264.04 288.56 268.08 282.69 272.25 276.87 276.56 271.12 280.75 265.27 285.08 259.5 289.56 253.82 293.93 248.08 298.47 242.46 303.17 237 307.78 231.53 312.57 226.26 317.53 221.24 322.44 216.28 327.53 211.64 332.82 207.35 338.06 203.22 343.51 199.52 349.17 196.29 354.79 193.31 360.64 190.85 366.7 188.98 372.75 187.41 379.02 186.44 385.53 186.12 392.03 186.11 398.77 186.74 405.75 188.01" stroke-dasharray="0 0" transform="rotate(40.6875, 400, 400)" opacity="0.32"></path><path d="M410.62 198.27C417.31 199.75 424.07 201.75 430.9 204.21 437.72 206.82 444.61 209.82 451.54 213.16 458.49 216.53 465.47 220.17 472.46 224.02 479.47 227.81 486.48 231.77 493.47 235.84 500.46 239.78 507.41 243.81 514.28 247.89 521.13 251.81 527.87 255.78 534.47 259.79 541 263.61 547.35 267.48 553.46 271.41 559.46 275.16 565.18 278.98 570.57 282.88 578.19 288.56 590.98 300.34 595.95 306.51 599.93 312.72 604.44 325.98 604.89 333.07 604.26 340.33 599.55 355.92 595.6 364.26 592.66 369.88 589.25 375.74 585.44 381.82 581.64 387.89 577.54 394.2 573.2 400.73 569.04 407.26 564.85 413.86 560.68 420.53 556.83 427.2 553.07 433.93 549.44 440.7 546.19 447.47 543.1 454.29 540.16 461.13 537.63 467.97 535.24 474.83 532.98 481.67 531.09 488.5 529.28 495.3 527.54 502.05 526.09 508.76 524.64 515.38 523.15 521.87 521.87 528.29 520.5 534.53 518.98 540.55 516.81 549.26 511.48 564.83 508.18 571.46 504.6 577.25 495.77 585.75 490.5 588.33 484.82 589.87 471.74 589.6 464.35 587.92 459.3 586.49 453.93 584.62 448.28 582.38 442.61 580.17 436.66 577.71 430.45 575.05 424.24 572.62 417.77 570.14 411.07 567.66 404.37 565.59 397.61 563.67 390.81 561.92 384.02 560.65 377.2 559.56 370.38 558.65 363.58 558.19 356.77 557.85 350 557.6 343.24 557.7 336.52 557.8 329.85 557.85 323.22 558.12 316.65 558.23 310.17 558.15 303.73 558.16 297.39 557.87 291.17 557.26 285.01 556.63 279 555.6 273.15 554.17 267.37 552.64 261.78 550.68 256.41 548.28 251.12 545.74 246.07 542.77 241.28 539.38 236.6 535.85 232.21 531.91 228.13 527.61 224.18 523.19 220.55 518.42 217.29 513.35 214.16 508.18 211.41 502.75 209.05 497.07 206.84 491.34 205.03 485.4 203.64 479.29 202.4 473.15 201.57 466.86 201.18 460.45 200.93 454.04 201.1 447.52 201.7 440.92 202.41 434.33 203.54 427.67 205.09 420.96 206.72 414.26 208.7 407.66 211 401.19 213.32 394.71 215.94 388.35 218.82 382.1 221.68 375.85 224.78 369.7 228.09 363.66 231.34 357.58 234.78 351.61 238.39 345.73 241.92 339.8 245.6 333.94 249.42 328.17 253.14 322.33 256.99 316.55 260.97 310.83 264.82 305.04 268.81 299.3 272.92 293.63 276.91 287.87 281.02 282.17 285.26 276.55 289.4 270.86 293.66 265.26 298.06 259.77 302.36 254.24 306.81 248.85 311.41 243.63 315.93 238.42 320.61 233.43 325.45 228.7 330.23 224.04 335.19 219.7 340.33 215.71 345.42 211.88 350.7 208.46 356.17 205.5 361.6 202.76 367.24 200.53 373.09 198.85 378.91 197.44 384.95 196.6 391.21 196.36 397.45 196.4 403.92 197.03 410.61 198.27" stroke-dasharray="0 0" transform="rotate(43.59375, 400, 400)" opacity="0.75"></path><path d="M415.15 208.53C421.54 209.95 427.98 211.85 434.47 214.19 440.95 216.66 447.48 219.51 454.04 222.68 460.59 225.89 467.17 229.37 473.74 233.06 480.31 236.71 486.87 240.53 493.38 244.48 506.36 252.05 519.05 259.98 531.15 268.1 542.96 275.6 553.91 283.32 563.63 291.28 572.68 298.71 580.16 306.55 585.72 314.85 590.29 322.84 592.71 331.48 592.81 340.8 592.03 347.81 587.43 362.77 583.72 370.74 580.98 376.11 577.83 381.69 574.3 387.48 570.79 393.26 567 399.26 562.98 405.47 559.11 411.67 555.2 417.95 551.28 424.27 547.64 430.59 544.05 436.97 540.55 443.37 537.38 449.78 534.33 456.21 531.4 462.64 528.81 469.07 526.34 475.49 523.97 481.88 520.2 494.6 516.61 507.07 513.02 518.98 510.25 530.58 507.03 541.33 503.18 550.84 499.62 559.64 495.08 566.84 489.46 572.1 480.4 577.43 462.64 577.77 455.79 576.11 448.61 573.88 432.85 567.78 424.31 564.22 418.52 562 412.49 559.71 406.24 557.4 399.98 555.46 393.66 553.62 387.29 551.92 380.94 550.64 374.54 549.5 368.15 548.5 361.76 547.9 355.37 547.4 349.01 546.96 342.67 546.86 336.36 546.75 330.1 546.61 317.68 546.94 305.53 546.61 293.87 545.34 282.42 544.1 271.55 541.45 261.5 537.33 251.79 532.8 243.02 526.71 235.41 519.21 228.28 511.3 222.43 502.12 218.04 491.93 215.25 484.05 211.8 467.25 211.17 458.43 211.01 452.49 211.25 446.43 211.9 440.27 212.64 434.1 213.78 427.83 215.32 421.49 216.92 415.16 218.86 408.89 221.1 402.71 223.37 396.53 225.92 390.43 228.71 384.42 231.5 378.4 234.51 372.46 237.72 366.59 240.88 360.71 244.23 354.89 247.75 349.15 254.54 337.55 261.95 326.16 269.83 315.03 277.31 303.67 285.29 292.51 293.71 281.68 301.75 270.68 310.31 260.1 319.37 250.19 328.15 240.42 337.54 231.61 347.55 224.1 352.48 220.57 357.6 217.44 362.88 214.74 370.85 211.25 387.7 207.14 396.59 206.61 402.57 206.7 408.76 207.33 415.14 208.53" stroke-dasharray="0 0" transform="rotate(46.5, 400, 400)" opacity="0.53"></path><path d="M419.23 218.79C431.36 221.68 443.66 226.26 455.96 232.18 468.27 238.3 480.55 245.35 492.6 253.02 504.57 260.39 516.17 268.15 527.12 276.15 537.78 283.62 547.54 291.33 556.09 299.26 564.04 306.72 570.5 314.53 575.16 322.74 578.99 330.64 580.86 339.1 580.65 348.14 579.64 357.03 576.69 366.63 571.87 376.93 566.77 387.17 560.3 398.19 552.75 409.94 545.77 421.69 538.64 433.65 531.68 445.67 525.84 457.68 520.31 469.7 515.15 481.53 511.1 493.26 507.19 504.64 503.29 515.4 500.14 525.83 496.63 535.37 492.59 543.68 488.88 551.34 484.34 557.49 478.89 561.85 473.47 565.36 466.99 567 459.44 566.71 451.82 565.83 443.11 563.36 433.38 559.53 423.6 555.94 412.84 551.7 401.21 547.14 389.58 543.85 377.68 540.9 365.74 538.4 353.85 537.32 341.96 536.43 330.27 535.54 318.7 535.49 307.41 534.89 296.58 533.52 285.97 532.28 275.93 529.86 266.68 526.15 257.75 522.19 249.72 516.83 242.8 510.18 236.31 503.21 231.03 495.04 227.12 485.85 223.7 476.48 221.7 466.24 221.21 455.35 221.17 444.39 222.59 432.88 225.54 420.96 228.74 409.04 233.15 397.27 238.55 385.77 243.91 374.23 250.12 362.87 256.99 351.77 263.6 340.56 270.82 329.5 278.5 318.69 285.83 307.72 293.65 296.96 301.87 286.55 309.77 276.06 318.15 266.04 326.99 256.72 335.57 247.6 344.71 239.44 354.39 232.55 363.92 226.26 374.09 221.55 384.89 218.67 395.63 216.7 407.08 216.7 419.22 218.79" stroke-dasharray="0 0" transform="rotate(49.40625, 400, 400)" opacity="0.90"></path><path d="M422.71 229.05C434.18 231.78 445.72 236.09 457.19 241.66 468.66 247.43 480.02 254.13 491.06 261.46 502.02 268.57 512.53 276.11 522.35 283.92 531.89 291.3 540.53 298.95 547.98 306.79 554.91 314.23 560.43 322 564.31 330.08 567.48 337.89 568.9 346.17 568.45 354.94 567.36 363.56 564.54 372.79 560.07 382.62 555.39 392.39 549.46 402.84 542.53 413.91 536.08 424.99 529.41 436.19 522.81 447.37 517.16 458.54 511.7 469.64 506.49 480.46 502.25 491.16 498.1 501.45 493.94 511.05 490.47 520.34 486.69 528.72 482.49 535.9 478.63 542.51 474.07 547.71 468.74 551.27 463.49 554.15 457.32 555.37 450.22 554.88 443.08 553.97 434.97 551.66 425.95 548.16 416.88 544.92 406.92 541.07 396.15 536.88 385.37 533.79 374.36 530.91 363.29 528.36 352.28 527.04 341.27 525.85 330.46 524.65 319.77 524.23 309.35 523.36 299.39 521.85 289.64 520.55 280.44 518.25 271.99 514.86 263.85 511.33 256.56 506.57 250.31 500.64 244.46 494.48 239.74 487.2 236.29 478.93 233.28 470.51 231.58 461.23 231.3 451.24 231.4 441.2 232.88 430.54 235.77 419.38 238.88 408.23 243.14 397.12 248.33 386.17 253.5 375.19 259.48 364.33 266.1 353.65 272.51 342.89 279.5 332.27 286.94 321.87 294.1 311.38 301.72 301.11 309.72 291.22 317.45 281.33 325.62 271.93 334.2 263.25 342.57 254.81 351.43 247.32 360.77 241.05 369.98 235.37 379.76 231.15 390.08 228.63 400.35 226.93 411.23 227.03 422.7 229.05" stroke-dasharray="0 0" transform="rotate(52.3125, 400, 400)" opacity="0.67"></path><path d="M425.5 239.31C436.28 241.89 447.04 245.92 457.65 251.12 468.26 256.54 478.67 262.85 488.71 269.8 498.65 276.6 508.1 283.87 516.83 291.43 525.3 298.66 532.88 306.16 539.33 313.87 545.32 321.23 550 328.89 553.19 336.82 555.8 344.51 556.83 352.6 556.22 361.08 555.09 369.43 552.43 378.29 548.31 387.64 544.04 396.95 538.64 406.81 532.3 417.19 526.38 427.58 520.18 438 513.96 448.32 508.53 458.62 503.19 468.76 498.01 478.55 493.65 488.23 489.32 497.42 484.98 505.9 481.24 514.09 477.26 521.37 472.92 527.52 468.91 533.17 464.32 537.53 459.09 540.42 453.97 542.76 448.07 543.63 441.37 543.02 434.66 542.12 427.1 540 418.73 536.83 410.33 533.93 401.13 530.46 391.2 526.62 381.27 523.73 371.12 520.95 360.94 518.38 350.8 516.87 340.69 515.42 330.78 513.94 320.98 513.18 311.44 512.05 302.36 510.37 293.47 508.97 285.11 506.72 277.47 503.55 270.11 500.33 263.56 496.05 257.97 490.72 252.75 485.24 248.56 478.74 245.56 471.3 242.94 463.75 241.54 455.34 241.43 446.21 241.67 437.04 243.17 427.22 245.99 416.84 249.02 406.46 253.1 396.04 258.06 385.7 263.02 375.34 268.74 365.03 275.08 354.86 281.26 344.65 287.99 334.54 295.17 324.65 302.11 314.73 309.49 305.04 317.24 295.76 324.75 286.53 332.68 277.81 340.98 269.81 349.09 262.09 357.65 255.28 366.63 249.64 375.49 244.54 384.84 240.8 394.66 238.63 404.43 237.18 414.73 237.37 425.5 239.31" stroke-dasharray="0 0" transform="rotate(55.21875, 400, 400)" opacity="0.32"></path><path d="M427.52 249.57C437.56 251.99 447.52 255.73 457.27 260.57 467 265.62 476.47 271.52 485.51 278.06 494.46 284.51 502.88 291.44 510.57 298.69 518.03 305.69 524.63 312.98 530.15 320.48 535.3 327.71 539.24 335.2 541.84 342.92 543.96 350.44 544.69 358.29 543.96 366.47 542.84 374.53 540.37 383 536.6 391.86 532.73 400.68 527.85 409.95 522.08 419.62 516.66 429.29 510.93 438.91 505.11 448.36 499.94 457.77 494.77 466.95 489.67 475.73 485.27 484.39 480.85 492.52 476.39 499.93 472.47 507.08 468.32 513.36 463.88 518.56 457.46 525.18 442.18 531.52 433.01 531.16 426.69 530.29 419.64 528.38 411.89 525.54 404.11 522.97 395.64 519.85 386.52 516.36 377.41 513.67 368.12 511 358.81 508.44 349.56 506.79 340.34 505.13 331.32 503.42 322.41 502.36 313.77 500.97 305.57 499.13 297.54 497.59 290.02 495.34 283.18 492.31 276.58 489.31 270.74 485.4 265.8 480.57 261.18 475.66 257.52 469.81 254.94 463.11 252.7 456.32 251.56 448.73 251.62 440.41 251.97 432.07 253.49 423.05 256.22 413.46 259.13 403.87 263.03 394.17 267.74 384.48 272.46 374.79 277.91 365.1 283.94 355.52 289.85 345.93 296.3 336.43 303.16 327.15 309.85 317.87 316.95 308.85 324.4 300.24 331.66 291.73 339.3 283.73 347.28 276.45 355.1 269.45 363.32 263.33 371.89 258.31 380.37 253.78 389.27 250.5 398.55 248.66 407.79 247.44 417.47 247.72 427.52 249.57" stroke-dasharray="0 0" transform="rotate(58.125, 400, 400)" opacity="0.47"></path><path d="M428.69 259.84C437.99 262.09 447.13 265.54 456 270 464.85 274.67 473.39 280.15 481.46 286.24 489.45 292.3 496.88 298.84 503.6 305.72 510.12 312.42 515.81 319.43 520.51 326.64 524.9 333.65 528.2 340.9 530.29 348.35 532.01 355.64 532.49 363.21 531.7 371.03 530.62 378.76 528.35 386.81 524.93 395.16 521.46 403.47 517.07 412.13 511.85 421.07 506.93 430.02 501.67 438.83 496.26 447.39 491.38 455.92 486.43 464.16 481.48 471.94 477.1 479.62 472.66 486.75 468.16 493.16 464.12 499.35 459.88 504.71 455.4 509.09 448.9 514.65 433.97 519.76 425.25 519.29 419.29 518.51 412.71 516.8 405.54 514.29 398.36 512.03 390.58 509.26 382.26 506.1 373.93 503.61 365.48 501.07 357.05 498.56 348.65 496.8 340.32 494.99 332.2 493.09 324.17 491.77 316.41 490.16 309.08 488.16 301.89 486.47 295.2 484.18 289.14 481.25 283.29 478.39 278.15 474.76 273.83 470.33 269.78 465.88 266.61 460.6 264.44 454.54 262.54 448.43 261.66 441.57 261.86 434.02 262.31 426.45 263.82 418.22 266.44 409.41 269.23 400.6 272.92 391.65 277.36 382.67 281.83 373.69 286.98 364.69 292.67 355.78 298.28 346.87 304.4 338.05 310.93 329.46 317.31 320.9 324.09 312.61 331.2 304.73 338.16 296.98 345.47 289.74 353.07 283.2 360.56 276.93 368.39 271.5 376.51 267.08 384.57 263.1 392.97 260.26 401.68 258.73 410.36 257.73 419.39 258.07 428.69 259.84" stroke-dasharray="0 0" transform="rotate(61.03125, 400, 400)" opacity="0.45"></path><path d="M428.98 270.1C437.51 272.18 445.83 275.34 453.83 279.42 461.81 283.7 469.43 288.73 476.57 294.35 483.63 299.98 490.14 306.09 495.96 312.54 501.61 318.88 506.48 325.52 510.45 332.37 514.16 339.08 516.9 346.01 518.57 353.13 519.96 360.12 520.26 367.34 519.46 374.75 518.43 382.1 516.37 389.69 513.31 397.49 510.22 405.26 506.3 413.28 501.62 421.49 497.19 429.69 492.39 437.68 487.41 445.37 482.85 453.04 478.15 460.35 473.41 467.19 469.12 473.94 464.74 480.13 460.28 485.63 454.07 493.23 440.98 503.81 433.81 506.53 426.44 507.95 409.49 506.02 399.82 503.08 393.2 501.12 386.09 498.68 378.53 495.84 370.97 493.56 363.34 491.16 355.76 488.72 348.21 486.9 340.74 484.98 333.5 482.95 326.34 481.42 319.45 479.62 312.96 477.49 306.6 475.65 300.7 473.32 295.39 470.44 288.03 465.97 277.21 453.68 274.06 445.79 272.49 440.27 271.83 434.07 272.15 427.24 272.68 420.39 274.17 412.92 276.67 404.9 279.31 396.87 282.78 388.68 286.94 380.45 291.12 372.22 295.94 363.96 301.28 355.78 306.56 347.62 312.32 339.56 318.46 331.71 324.5 323.93 330.92 316.41 337.63 309.31 344.23 302.35 351.16 295.89 358.34 290.09 365.44 284.56 372.83 279.79 380.47 275.95 388.05 272.51 395.92 270.09 404.02 268.83 412.11 268.03 420.45 268.43 428.98 270.1" stroke-dasharray="0 0" transform="rotate(63.9375, 400, 400)" opacity="0.98"></path><path d="M428.39 280.36C436.14 282.26 443.62 285.14 450.76 288.83 457.88 292.71 464.62 297.28 470.88 302.41 477.07 307.57 482.71 313.2 487.7 319.17 492.56 325.07 496.7 331.28 500.02 337.71 503.14 344.03 505.4 350.57 506.73 357.27 507.84 363.88 508.02 370.68 507.23 377.63 506.3 384.52 504.46 391.6 501.75 398.82 499.03 406.01 495.56 413.37 491.39 420.82 487.43 428.27 483.1 435.46 478.56 442.3 474.34 449.12 469.94 455.55 465.46 461.51 461.33 467.38 457.08 472.72 452.73 477.4 446.58 483.87 433.68 492.73 426.73 494.95 419.64 496.12 403.72 494.45 394.81 491.92 388.75 490.24 382.28 488.1 375.47 485.58 368.65 483.51 361.81 481.26 355.05 478.92 348.32 477.09 341.7 475.12 335.31 473.01 328.99 471.32 322.93 469.38 317.26 467.15 309.13 464 295.61 455.64 290.52 450.21 286.4 444.23 282.31 429.26 282.49 420.3 283.08 414.12 284.53 407.39 286.89 400.14 289.37 392.89 292.6 385.48 296.46 378.02 300.35 370.58 304.82 363.1 309.77 355.71 314.68 348.34 320.05 341.07 325.77 334.03 331.41 327.06 337.42 320.36 343.69 314.06 349.89 307.91 356.38 302.23 363.09 297.17 369.75 292.34 376.65 288.23 383.75 284.95 390.82 282.01 398.11 279.98 405.56 278.98 413.01 278.36 420.65 278.8 428.39 280.36" stroke-dasharray="0 0" transform="rotate(66.84375, 400, 400)" opacity="0.18"></path><path d="M426.93 290.62C433.88 292.35 440.54 294.93 446.84 298.24 453.13 301.71 459.02 305.81 464.44 310.43 469.81 315.1 474.65 320.21 478.9 325.64 483.03 331.06 486.52 336.77 489.28 342.69 491.9 348.55 493.76 354.61 494.8 360.82 495.7 366.97 495.79 373.28 495.06 379.7 494.22 386.08 492.61 392.59 490.23 399.18 487.87 405.76 484.83 412.43 481.17 419.12 477.66 425.81 473.8 432.2 469.69 438.23 465.84 444.23 461.79 449.84 457.6 454.97 451.67 462.33 439.51 474.05 433.23 478.2 427.02 481.48 413.61 484.31 406.3 483.92 398.75 482.94 382.17 478.47 373.15 475.31 367.05 473.45 360.97 471.38 355.01 469.17 349.07 467.37 343.27 465.39 337.7 463.26 329.55 460.45 315.03 453.9 308.91 449.92 303.49 445.72 295.78 435.06 293.69 428.52 292.54 421.48 294.22 404.87 297.12 395.37 299.42 388.89 302.39 382.26 305.93 375.61 309.5 368.97 313.6 362.3 318.13 355.72 322.65 349.18 327.59 342.75 332.85 336.54 338.06 330.4 343.61 324.53 349.39 319.05 355.13 313.7 361.13 308.79 367.32 304.45 373.48 300.32 379.84 296.82 386.36 294.07 392.86 291.6 399.53 289.94 406.31 289.17 413.08 288.71 419.98 289.17 426.93 290.62" stroke-dasharray="0 0" transform="rotate(69.75, 400, 400)" opacity="0.33"></path><path d="M424.65 300.88C436.94 304.18 448 310.32 457.33 318.42 466.47 326.75 473.63 336.65 478.29 347.37 482.54 357.99 484.17 369.39 482.93 381.05 481.44 392.63 477.4 404.62 470.94 416.47 464.97 428.32 457.71 438.88 449.84 447.7 442.8 456.35 435.06 463.04 426.88 467.34 419.25 471.37 410.76 473.03 401.57 472.25 392.52 471.65 382.45 469.19 371.65 465.05 360.84 462.06 350.34 458.16 340.72 453.69 331.25 450.29 322.88 445.85 316.24 440.33 309.95 435.27 305.61 428.61 303.71 420.38 302.29 412.21 303.39 402.29 307.34 390.83 311.63 379.38 318.21 367.53 326.39 356.02 334.56 344.64 344.22 333.81 354.76 324.34 365.18 315.33 376.54 308.07 388.33 303.33 400.07 299.48 412.36 298.49 424.65 300.88" stroke-dasharray="0 0" transform="rotate(72.65625, 400, 400)" opacity="0.72"></path><path d="M421.62 311.14C432.3 314.03 441.76 319.36 449.63 326.39 457.36 333.67 463.31 342.36 467.12 351.83 470.65 361.27 471.96 371.43 470.87 381.78 469.63 392.1 466.23 402.67 460.72 413 455.57 423.33 449.18 432.38 442.14 439.83 435.7 447.17 428.55 452.77 421 456.35 413.85 459.78 406.01 461.24 397.65 460.67 389.42 460.3 380.45 458.31 371.02 454.79 361.58 452.14 352.56 448.53 344.43 444.3 336.4 440.88 329.41 436.52 323.95 431.25 318.76 426.38 315.27 420.21 313.88 412.8 312.84 405.47 313.97 396.72 317.57 386.75 321.42 376.78 327.28 366.57 334.53 356.75 341.82 347.04 350.42 337.9 359.79 330 369.12 322.49 379.24 316.52 389.69 312.74 400.12 309.64 410.94 308.96 421.62 311.14" stroke-dasharray="0 0" transform="rotate(75.5625, 400, 400)" opacity="0.41"></path><path d="M417.92 321.4C427 323.88 434.94 328.39 441.45 334.36 447.87 340.55 452.75 347.99 455.83 356.13 458.73 364.29 459.79 373.09 458.88 382.03 457.9 390.97 455.1 400.08 450.49 408.89 446.15 417.69 440.65 425.31 434.51 431.52 428.77 437.67 422.35 442.33 415.55 445.31 409.04 448.23 401.97 449.55 394.54 449.18 387.21 449.02 379.36 447.47 371.27 444.53 363.17 442.23 355.58 438.98 348.84 435.09 342.17 431.79 336.46 427.63 332.08 422.72 327.89 418.12 325.15 412.49 324.19 405.92 323.48 399.42 324.6 391.83 327.79 383.33 331.19 374.82 336.28 366.23 342.58 358.06 348.91 349.98 356.39 342.47 364.54 336.08 372.67 329.98 381.48 325.22 390.51 322.29 399.55 319.87 408.85 319.45 417.92 321.4" stroke-dasharray="0 0" transform="rotate(78.46875, 400, 400)" opacity="0.43"></path><path d="M413.68 331.66C421.17 333.72 427.65 337.44 432.91 342.34 438.12 347.44 442.04 353.58 444.48 360.34 446.83 367.14 447.7 374.49 446.98 381.96 446.24 389.44 444.01 397.04 440.27 404.33 436.71 411.62 432.12 417.89 426.92 422.96 421.98 428.01 416.4 431.84 410.49 434.32 404.77 436.79 398.59 437.98 392.18 437.81 385.84 437.81 379.16 436.64 372.4 434.27 365.63 432.33 359.4 429.49 353.97 426.04 346.29 421.08 336.3 408.05 334.65 399.86 334.2 394.23 335.26 387.79 338.02 380.73 340.92 373.67 345.23 366.66 350.52 360.08 355.87 353.57 362.17 347.61 369.02 342.62 375.89 337.83 383.3 334.17 390.87 332 398.45 330.18 406.19 329.97 413.68 331.66" stroke-dasharray="0 0" transform="rotate(81.375, 400, 400)" opacity="0.27"></path><path d="M409.02 341.92C420.87 345.43 429.3 353.92 433.15 364.54 436.81 375.39 435.96 387.96 430.04 399.55 424.58 411.14 415.71 419.43 405.77 423.46 396.3 427.6 385.25 427.94 374.37 424.01 363.49 421.17 354.72 415.11 349.57 407.34 344.67 400.16 343.78 390.37 348.24 379.1 353.07 367.82 362.3 357.23 373.29 349.66 384.37 342.62 397.17 339.38 409.02 341.92" stroke-dasharray="0 0" transform="rotate(84.28125, 400, 400)" opacity="0.81"></path><path d="M404.09 352.18C412.87 354.77 419.06 361 421.89 368.83 424.65 376.83 424.12 386.16 419.82 394.8 415.76 403.44 409 409.67 401.33 412.83 393.91 416.09 385.34 416.57 377.13 413.75 368.91 411.53 362.51 406.69 358.92 400.49 355.45 394.63 354.99 386.94 358.47 378.5 362.17 370.05 369.13 362.44 377.38 357.21 385.72 352.27 395.3 350.15 404.09 352.18" stroke-dasharray="0 0" transform="rotate(87.1875, 400, 400)" opacity="0.13"></path><path d="M399.02 362.44C410.59 366.06 415.24 378.86 409.59 390.31 404.38 401.75 391.63 407.31 380.58 403.49 369.52 400.72 363.99 390.23 368.69 378.97 373.79 367.69 387.45 359.83 399.02 362.44" stroke-dasharray="0 0" transform="rotate(90.09375, 400, 400)" opacity="0.24"></path></g></svg>