<svg xmlns="http://www.w3.org/2000/svg" version="1.1" xmlns:xlink="http://www.w3.org/1999/xlink" xmlns:svgjs="http://svgjs.dev/svgjs" viewBox="0 0 800 800"><defs><linearGradient x1="50%" y1="0%" x2="50%" y2="100%" id="ccchaos-grad"><stop stop-color="hsl(265, 55%, 30%)" stop-opacity="1" offset="0%"></stop><stop stop-color="hsl(265, 55%, 60%)" stop-opacity="1" offset="100%"></stop></linearGradient></defs><g stroke-width="3" stroke="url(#ccchaos-grad)" fill="none" stroke-linecap="round"><path d="M361.95 71.93C371.82 70.5 381.51 70.15 391.02 70.88 400.53 72.19 409.88 74.55 419.07 77.9 428.32 81.74 437.46 86.47 446.54 91.96 455.75 97.75 464.97 104.16 474.27 111.08 483.81 118.04 493.53 125.36 503.49 132.92 513.82 140.31 524.5 147.84 535.58 155.44 547.11 162.7 559.12 169.99 571.59 177.25 584.53 184.12 597.91 190.98 611.67 197.84 625.74 204.32 640.03 210.84 654.36 217.44 668.66 223.71 682.7 230.13 696.22 236.73 709.18 243.1 721.21 249.72 731.99 256.61 741.63 263.35 749.62 270.42 755.69 277.84 760.16 285.18 762.45 292.9 762.45 301.01 760.75 309.07 756.81 317.54 750.72 326.43 743.34 335.28 734.25 344.56 723.74 354.27 712.88 363.95 701.34 374.08 689.55 384.65 678.6 395.22 668.43 406.01 659.36 417 651.99 428.03 646.09 439.29 641.73 450.77 639.32 462.32 638.37 474.13 638.73 486.17 640.73 498.32 643.64 510.72 647.17 523.33 651.68 536.04 656.27 548.94 660.66 561.97 665.29 575.01 669.23 588.08 672.29 601.06 674.99 613.88 676.49 626.43 676.71 638.54 676.24 650.21 674.38 661.19 671.17 671.27 667.19 680.58 661.91 688.72 655.45 695.5 648.31 701.22 640.15 705.38 631.1 707.87 621.57 709.22 611.34 708.9 600.56 706.93 589.48 704.09 578.01 699.89 566.27 694.54 554.4 688.96 542.37 682.78 530.28 676.34 518.15 670.61 506.03 665.3 493.98 660.74 481.95 657.82 470 656.21 458.2 656.11 446.42 658.12 434.77 661.8 423.29 667.05 411.8 674.17 400.71 682.24 390.01 690.86 379.28 700.29 368.9 709.45 358.85 717.93 348.73 726.04 338.89 732.74 329.34 737.77 319.66 741.56 310.21 743.3 300.97 742.94 291.57 741.01 282.34 736.99 273.27 731.04 264.01 723.68 254.87 714.67 245.86 704.29 236.65 692.98 227.55 680.7 218.59 667.73 209.44 654.37 200.45 640.68 191.63 626.89 182.7 613.16 173.99 599.55 165.55 586.21 157.1 573.17 148.98 560.49 141.26 548.2 133.64 536.3 126.48 524.78 119.84 513.61 113.41 502.8 107.56 492.26 102.35 481.95 97.41 471.89 93.14 461.95 89.57 452.1 86.3 442.4 83.74 432.69 81.91 422.94 80.34 413.25 79.49 403.47 79.36 393.57 79.44 383.68 80.2 373.66 81.64 363.51 83.19 353.35 85.34 343.31 88.01 333.42 90.68 323.54 93.82 313.84 97.37 304.35 100.8 294.91 104.58 285.72 108.66 276.84 112.53 268.04 116.65 259.58 120.99 251.53 125.04 243.57 129.29 236.03 133.71 228.97 137.82 222 142.11 215.49 146.58 209.49 150.77 203.54 155.19 198.05 159.82 193.02 164.25 187.97 168.97 183.31 173.97 179.02 178.87 174.58 184.12 170.42 189.72 166.49 195.3 162.26 201.29 158.17 207.67 154.17 214.09 149.74 220.94 145.33 228.17 140.9 235.49 135.99 243.2 131.05 251.27 126.08 259.42 120.67 267.92 115.29 276.7 110 285.55 104.42 294.67 99.06 303.99 94.03 313.36 88.95 322.91 84.38 332.59 80.44 342.28 76.75 352.08 73.87 361.94 71.93" stroke-dasharray="0 0" transform="rotate(0, 400, 400)" opacity="0.66"></path><path d="M361.5 81.85C371.03 80.39 380.45 79.99 389.76 80.64 399.07 81.85 408.3 84.08 417.45 87.28 426.65 90.96 435.83 95.51 445 100.83 454.31 106.46 463.7 112.71 473.21 119.47 482.95 126.32 492.91 133.53 503.13 141.02 513.69 148.37 524.59 155.89 535.86 163.5 547.52 170.82 559.61 178.18 572.08 185.53 584.92 192.52 598.12 199.51 611.58 206.5 625.23 213.12 638.98 219.77 652.66 226.48 666.2 232.87 679.38 239.38 691.94 246.04 703.9 252.45 714.87 259.08 724.59 265.94 733.2 272.63 740.19 279.63 745.35 286.94 749.03 294.14 750.66 301.7 750.16 309.62 748.13 317.49 744.04 325.74 737.97 334.41 730.78 343.02 722.02 352.07 711.96 361.53 701.62 370.98 690.64 380.87 679.42 391.21 668.97 401.56 659.2 412.13 650.43 422.93 643.19 433.74 637.27 444.81 632.74 456.09 630 467.42 628.6 479.01 628.42 490.8 629.77 502.66 632 514.75 634.86 526.99 638.7 539.28 642.69 551.7 646.59 564.17 650.8 576.58 654.47 588.95 657.42 601.12 660.13 613.08 661.82 624.68 662.38 635.76 662.37 646.36 661.12 656.22 658.63 665.14 655.47 673.3 651.09 680.3 645.58 685.98 639.46 690.68 632.33 693.91 624.31 695.58 615.82 696.26 606.6 695.42 596.78 693.12 586.66 690.11 576.08 685.91 565.17 680.73 554.1 675.46 542.8 669.71 531.37 663.79 519.88 658.62 508.33 653.89 496.78 649.89 485.23 647.44 473.71 646.21 462.27 646.36 450.85 648.47 439.5 652.08 428.27 657.13 417.03 663.9 406.15 671.54 395.61 679.68 385.05 688.6 374.79 697.3 364.83 705.39 354.81 713.22 345.04 719.79 335.52 724.86 325.89 728.85 316.46 730.99 307.22 731.19 297.84 729.98 288.6 726.81 279.52 721.81 270.27 715.49 261.13 707.57 252.12 698.28 242.93 688.04 233.87 676.79 224.93 664.76 215.86 652.27 206.93 639.35 198.2 626.2 189.38 612.99 180.79 599.8 172.49 586.75 164.19 573.9 156.23 561.31 148.67 549.04 141.23 537.08 134.25 525.44 127.79 514.14 121.54 503.14 115.87 492.41 110.82 481.93 106.05 471.68 101.94 461.59 98.52 451.64 95.41 441.83 92.99 432.08 91.29 422.35 89.87 412.7 89.15 403.01 89.14 393.29 89.34 383.59 90.22 373.82 91.77 363.99 93.44 354.17 95.67 344.52 98.43 335.07 101.18 325.63 104.37 316.4 107.96 307.44 111.43 298.5 115.23 289.85 119.32 281.52 123.19 273.25 127.3 265.34 131.61 257.83 135.64 250.39 139.85 243.36 144.22 236.78 148.28 230.25 152.51 224.17 156.9 218.55 161.01 212.94 165.33 207.75 169.84 202.97 174.14 198.13 178.69 193.63 183.51 189.45 188.2 185.08 193.21 180.95 198.54 177.01 203.83 172.75 209.48 168.59 215.51 164.5 221.54 159.99 227.97 155.48 234.78 150.95 241.63 145.95 248.87 140.92 256.45 135.88 264.09 130.43 272.07 125.02 280.35 119.71 288.68 114.14 297.29 108.8 306.12 103.79 314.99 98.76 324.07 94.23 333.31 90.32 342.56 86.66 351.97 83.8 361.49 81.85" stroke-dasharray="0 0" transform="rotate(4.275862068965517, 400, 400)" opacity="0.08"></path><path d="M362.23 91.77C371.45 90.29 380.62 89.84 389.74 90.4 398.88 91.51 408 93.61 417.1 96.65 426.26 100.17 435.46 104.54 444.71 109.66 454.09 115.11 463.61 121.18 473.28 127.77 483.16 134.47 493.29 141.56 503.68 148.94 514.37 156.24 525.38 163.71 536.74 171.3 548.42 178.66 560.45 186.06 572.81 193.48 585.44 200.58 598.32 207.69 611.37 214.79 624.51 221.55 637.63 228.34 650.58 235.16 663.3 241.69 675.57 248.3 687.16 255.03 698.11 261.52 708.05 268.19 716.74 275.07 724.35 281.76 730.4 288.72 734.72 295.96 737.66 303.08 738.7 310.52 737.76 318.31 735.44 326.03 731.24 334.11 725.23 342.58 718.24 351.01 709.82 359.84 700.22 369.09 690.38 378.32 679.95 387.98 669.29 398.09 659.33 408.21 649.97 418.56 641.49 429.11 634.4 439.7 628.49 450.51 623.82 461.53 620.8 472.6 618.99 483.88 618.3 495.34 619.05 506.84 620.64 518.52 622.85 530.3 626.02 542.08 629.41 553.92 632.78 565.73 636.54 577.44 639.89 589.01 642.65 600.32 645.29 611.36 647.06 621.97 647.84 632 648.19 641.53 647.43 650.28 645.54 658.07 643.08 665.14 639.49 671.07 634.84 675.73 629.63 679.5 623.45 681.9 616.39 682.87 608.89 682.99 600.64 681.74 591.76 679.19 582.58 676.09 572.89 671.96 562.81 667.01 552.56 662.07 542.02 656.78 531.27 651.39 520.46 646.77 509.51 642.6 498.49 639.14 487.46 637.13 476.41 636.25 465.37 636.63 454.34 638.82 443.33 642.37 432.39 647.21 421.44 653.64 410.79 660.85 400.43 668.53 390.05 676.95 379.94 685.18 370.09 692.9 360.18 700.42 350.5 706.83 341.02 711.89 331.46 716.04 322.07 718.5 312.85 719.2 303.5 718.63 294.29 716.24 285.21 712.13 275.99 706.8 266.88 699.91 257.89 691.68 248.76 682.52 239.75 672.3 230.88 661.26 221.9 649.69 213.07 637.6 204.45 625.18 195.77 612.61 187.33 599.94 179.18 587.31 171.06 574.78 163.29 562.42 155.91 550.3 148.67 538.41 141.89 526.78 135.63 515.46 129.58 504.37 124.11 493.55 119.25 482.99 114.66 472.62 110.73 462.44 107.48 452.44 104.52 442.57 102.25 432.8 100.7 423.11 99.42 413.5 98.83 403.92 98.94 394.37 99.27 384.84 100.25 375.31 101.9 365.79 103.67 356.27 105.99 346.98 108.81 337.94 111.63 328.9 114.87 320.12 118.5 311.63 122 303.15 125.82 294.99 129.91 287.16 133.79 279.38 137.89 271.95 142.18 264.92 146.2 257.93 150.38 251.35 154.71 245.18 158.74 239.04 162.93 233.32 167.26 228.01 171.31 222.67 175.55 217.72 179.96 213.13 184.15 208.43 188.58 204.04 193.24 199.92 197.75 195.59 202.56 191.44 207.67 187.46 212.69 183.14 218.06 178.91 223.77 174.71 229.47 170.1 235.53 165.49 241.95 160.85 248.39 155.77 255.19 150.66 262.33 145.56 269.51 140.07 277.02 134.64 284.84 129.32 292.69 123.78 300.83 118.47 309.22 113.5 317.62 108.52 326.27 104.05 335.11 100.18 343.96 96.56 353.01 93.73 362.22 91.77" stroke-dasharray="0 0" transform="rotate(8.551724137931034, 400, 400)" opacity="0.69"></path><path d="M364.11 101.69C373.04 100.2 381.99 99.7 390.94 100.17 399.91 101.17 408.92 103.14 417.97 106.01 427.07 109.36 436.27 113.54 445.57 118.46 454.99 123.71 464.57 129.58 474.34 135.98 484.31 142.52 494.52 149.46 504.99 156.7 515.71 163.91 526.74 171.31 538.06 178.86 549.64 186.21 561.52 193.64 573.63 201.1 585.94 208.28 598.41 215.47 610.93 222.67 623.47 229.56 635.89 236.47 648.05 243.42 659.91 250.07 671.25 256.8 681.86 263.62 691.8 270.21 700.73 276.95 708.42 283.86 715.08 290.58 720.26 297.54 723.79 304.75 726.06 311.83 726.56 319.2 725.24 326.89 722.69 334.49 718.42 342.44 712.5 350.75 705.72 359.01 697.65 367.66 688.5 376.7 679.16 385.73 669.28 395.17 659.16 405.05 649.68 414.92 640.73 425.02 632.54 435.31 625.63 445.62 619.74 456.15 614.97 466.85 611.7 477.58 609.52 488.49 608.37 499.54 608.57 510.61 609.55 521.79 611.14 533.02 613.67 544.22 616.46 555.4 619.29 566.48 622.57 577.42 625.55 588.14 628.05 598.53 630.54 608.63 632.29 618.24 633.21 627.21 633.8 635.69 633.4 643.36 632 650.09 628.67 658.6 616.26 668.59 607.42 669.8 600.84 669.45 593.51 667.89 585.52 665.19 577.25 662.07 568.43 658.08 559.18 653.4 549.74 648.84 539.96 644.01 529.92 639.15 519.8 635.07 509.47 631.44 499.03 628.48 488.55 626.89 477.99 626.33 467.38 626.93 456.78 629.17 446.15 632.65 435.51 637.29 424.88 643.39 414.49 650.19 404.35 657.41 394.18 665.34 384.24 673.12 374.52 680.44 364.75 687.65 355.17 693.87 345.77 698.89 336.29 703.14 326.97 705.85 317.79 706.98 308.5 706.97 299.34 705.3 290.3 702.01 281.14 697.59 272.09 691.69 263.16 684.48 254.11 676.37 245.19 667.19 236.41 657.14 227.56 646.54 218.86 635.34 210.38 623.72 201.87 611.88 193.61 599.84 185.64 587.74 177.73 575.65 170.16 563.64 163 551.8 155.99 540.1 149.43 528.61 143.38 517.37 137.56 506.32 132.29 495.51 127.64 484.95 123.26 474.55 119.51 464.35 116.43 454.35 113.65 444.47 111.55 434.72 110.14 425.11 109 415.56 108.54 406.1 108.77 396.72 109.21 387.36 110.3 378.06 112.03 368.83 113.89 359.6 116.28 350.64 119.16 341.97 122.03 333.3 125.32 324.92 128.96 316.85 132.5 308.8 136.33 301.07 140.42 293.69 144.31 286.33 148.41 279.33 152.69 272.72 156.7 266.12 160.86 259.91 165.17 254.1 169.18 248.27 173.34 242.83 177.63 237.77 181.64 232.65 185.81 227.87 190.16 223.41 194.27 218.82 198.59 214.48 203.13 210.38 207.5 206.04 212.14 201.85 217.05 197.8 221.86 193.41 226.98 189.07 232.43 184.76 237.82 180.05 243.56 175.33 249.64 170.59 255.71 165.43 262.13 160.26 268.89 155.1 275.65 149.59 282.74 144.15 290.14 138.84 297.56 133.33 305.27 128.07 313.25 123.15 321.24 118.24 329.49 113.83 337.98 110.01 346.46 106.45 355.17 103.64 364.1 101.69" stroke-dasharray="0 0" transform="rotate(12.827586206896552, 400, 400)" opacity="0.87"></path><path d="M367.09 111.61C375.76 110.11 384.49 109.56 393.28 109.95 402.08 110.85 410.98 112.68 419.95 115.38 428.99 118.55 438.15 122.53 447.45 127.23 456.86 132.27 466.46 137.93 476.26 144.11 486.23 150.46 496.44 157.22 506.9 164.31 517.56 171.39 528.49 178.69 539.67 186.16 551.04 193.48 562.64 200.89 574.41 208.36 586.29 215.59 598.25 222.85 610.17 230.12 622.03 237.12 633.69 244.14 645.01 251.19 655.98 257.97 666.37 264.81 676 271.73 684.97 278.42 692.91 285.23 699.65 292.19 705.42 298.98 709.78 305.95 712.59 313.15 714.25 320.22 714.28 327.55 712.63 335.16 709.89 342.68 705.58 350.52 699.79 358.69 693.24 366.81 685.52 375.29 676.82 384.14 667.97 392.96 658.62 402.19 649.02 411.81 640.02 421.44 631.47 431.26 623.59 441.25 616.85 451.26 611.03 461.44 606.19 471.77 602.7 482.12 600.2 492.6 598.64 503.17 598.32 513.74 598.73 524.36 599.74 534.97 601.65 545.51 603.84 555.97 606.13 566.26 608.91 576.39 611.47 586.24 613.67 595.69 615.95 604.83 617.61 613.43 618.55 621.37 619.22 632.16 615.54 648.32 611.1 653.25 605.15 656.01 588.5 654.83 578.12 651.17 570.7 648.1 562.73 644.3 554.27 639.94 545.64 635.76 536.62 631.4 527.28 627.07 517.85 623.52 508.17 620.4 498.31 617.92 488.41 616.72 478.37 616.46 468.22 617.24 458.08 619.53 447.84 622.93 437.56 627.37 427.27 633.15 417.17 639.55 407.27 646.32 397.35 653.78 387.6 661.11 378.04 668.04 368.44 674.91 358.99 680.92 349.7 685.86 340.34 690.15 331.11 693.08 322 694.56 312.81 695.05 303.73 694 294.76 691.46 285.7 687.89 276.74 682.92 267.9 676.68 258.98 669.59 250.18 661.43 241.53 652.38 232.84 642.76 224.31 632.48 216 621.72 207.69 610.68 199.64 599.35 191.88 587.88 184.2 576.34 176.87 564.8 169.95 553.34 163.18 541.96 156.86 530.72 151.05 519.68 145.47 508.78 140.44 498.09 136 487.62 131.84 477.28 128.29 467.14 125.4 457.21 122.81 447.37 120.86 437.7 119.6 428.19 118.61 418.74 118.28 409.41 118.62 400.21 119.17 391.04 120.35 381.96 122.17 373 124.1 364.04 126.55 355.39 129.47 347.06 132.39 338.72 135.7 330.7 139.37 323.02 142.92 315.33 146.77 307.99 150.86 301 154.75 294 158.85 287.37 163.11 281.11 167.12 274.84 171.28 268.94 175.57 263.41 179.57 257.85 183.71 252.63 187.97 247.75 191.96 242.79 196.1 238.13 200.39 233.75 204.44 229.2 208.69 224.88 213.13 220.75 217.39 216.38 221.89 212.13 226.65 207.98 231.28 203.49 236.2 199.05 241.42 194.62 246.56 189.82 252.03 184.99 257.81 180.15 263.57 174.93 269.65 169.7 276.06 164.5 282.46 158.98 289.18 153.55 296.21 148.26 303.24 142.8 310.57 137.6 318.19 132.75 325.8 127.92 333.7 123.58 341.85 119.83 350 116.33 358.41 113.56 367.08 111.61" stroke-dasharray="0 0" transform="rotate(17.103448275862068, 400, 400)" opacity="0.83"></path><path d="M371.07 121.52C379.49 120.02 388.02 119.43 396.64 119.73 405.28 120.53 414.04 122.22 422.92 124.76 431.86 127.74 440.95 131.51 450.2 135.99 459.56 140.8 469.11 146.22 478.86 152.18 488.75 158.31 498.88 164.87 509.22 171.77 519.73 178.69 530.46 185.87 541.39 193.22 552.46 200.47 563.69 207.84 575.01 215.28 586.37 222.52 597.73 229.81 608.98 237.12 620.1 244.2 630.96 251.3 641.4 258.43 651.47 265.32 660.92 272.26 669.58 279.26 677.59 286.06 684.6 292.95 690.43 299.97 695.37 306.81 698.97 313.83 701.12 321.02 702.24 328.1 701.85 335.4 699.93 342.95 697.05 350.41 692.74 358.16 687.09 366.2 680.79 374.19 673.42 382.51 665.17 391.16 656.8 399.8 647.97 408.79 638.89 418.15 630.36 427.51 622.21 437.03 614.64 446.69 608.09 456.35 602.34 466.16 597.46 476.06 593.8 485.98 591.02 495.97 589.09 506.01 588.3 516.02 588.19 526.02 588.64 535.95 589.96 545.8 591.58 555.5 593.33 564.97 595.59 574.25 597.72 583.2 599.58 591.71 601.58 599.91 603.08 607.54 603.97 614.49 603.39 630.58 593.32 643.03 586.69 642.8 581.7 641.83 575.99 639.92 569.62 637.16 563.01 634.21 555.82 630.65 548.13 626.63 540.28 622.86 531.99 618.98 523.35 615.16 514.62 612.11 505.59 609.48 496.32 607.46 487.01 606.61 477.5 606.62 467.84 607.57 458.17 609.9 448.36 613.21 438.45 617.45 428.54 622.92 418.76 628.93 409.13 635.27 399.49 642.27 389.97 649.15 380.6 655.68 371.2 662.22 361.92 667.99 352.76 672.82 343.56 677.11 334.46 680.18 325.46 681.95 316.41 682.87 307.45 682.38 298.59 680.51 289.67 677.72 280.84 673.6 272.13 668.29 263.37 662.16 254.73 654.99 246.25 646.93 237.75 638.29 229.43 628.96 221.32 619.09 213.25 608.9 205.43 598.35 197.92 587.58 190.5 576.69 183.44 565.71 176.77 554.74 170.27 543.79 164.22 532.91 158.67 522.18 153.35 511.54 148.56 501.06 144.36 490.77 140.42 480.59 137.09 470.59 134.4 460.79 131.99 451.08 130.22 441.53 129.1 432.17 128.26 422.86 128.05 413.69 128.5 404.69 129.15 395.7 130.42 386.85 132.3 378.15 134.29 369.45 136.79 361.09 139.74 353.07 142.7 345.04 146.03 337.34 149.7 329.99 153.27 322.63 157.12 315.62 161.2 308.96 165.1 302.28 169.19 295.95 173.45 289.98 177.46 283.98 181.61 278.33 185.89 273.02 189.89 267.65 194.02 262.59 198.27 257.85 202.25 252.99 206.36 248.39 210.62 244.04 214.64 239.51 218.83 235.17 223.2 230.98 227.38 226.55 231.78 222.21 236.41 217.95 240.9 213.37 245.66 208.82 250.68 204.27 255.62 199.37 260.86 194.45 266.4 189.53 271.88 184.25 277.68 178.98 283.79 173.75 289.87 168.24 296.27 162.83 302.98 157.59 309.66 152.2 316.66 147.07 323.95 142.29 331.23 137.56 338.8 133.31 346.66 129.62 354.5 126.19 362.64 123.46 371.06 121.53" stroke-dasharray="0 0" transform="rotate(21.379310344827587, 400, 400)" opacity="0.49"></path><path d="M375.94 131.44C384.13 129.94 392.45 129.3 400.89 129.53 409.36 130.22 417.97 131.77 426.72 134.14 435.53 136.93 444.51 140.48 453.66 144.72 462.89 149.3 472.33 154.48 481.95 160.18 491.69 166.09 501.65 172.42 511.79 179.1 522.04 185.84 532.49 192.84 543.07 200.05 553.74 207.19 564.5 214.47 575.29 221.84 586.06 229.06 596.76 236.35 607.28 243.67 617.62 250.79 627.64 257.94 637.19 265.12 646.36 272.09 654.87 279.11 662.59 286.18 669.68 293.06 675.79 300.02 680.78 307.09 684.94 313.99 687.85 321.04 689.41 328.24 690.05 335.33 689.3 342.61 687.16 350.1 684.18 357.51 679.91 365.17 674.41 373.08 668.37 380.95 661.36 389.11 653.55 397.56 645.66 406 637.33 414.75 628.76 423.83 620.68 432.9 612.93 442.1 605.67 451.39 599.32 460.68 593.67 470.07 588.78 479.51 584.99 488.94 581.98 498.41 579.72 507.86 578.51 517.27 577.92 526.62 577.85 535.84 578.61 544.95 579.67 553.87 580.91 562.5 582.65 570.94 584.33 579 585.8 586.59 588.12 597.22 590.32 614.59 589.78 620.96 584.55 627.71 568.32 626.88 560.15 623.21 554.27 620.43 547.81 617.14 540.84 613.49 533.72 610.14 526.14 606.73 518.18 603.43 510.12 600.85 501.73 598.69 493.05 597.08 484.34 596.57 475.37 596.83 466.21 597.92 457.04 600.27 447.68 603.49 438.18 607.54 428.67 612.69 419.24 618.33 409.9 624.26 400.57 630.8 391.32 637.24 382.17 643.38 373.01 649.57 363.94 655.09 354.96 659.78 345.94 664.03 337.01 667.19 328.17 669.19 319.29 670.45 310.49 670.45 301.79 669.18 293.05 667.08 284.39 663.76 275.86 659.3 267.3 654.09 258.87 647.87 250.59 640.77 242.33 633.1 234.24 624.71 226.38 615.76 218.58 606.45 211.03 596.73 203.79 586.72 196.66 576.55 189.88 566.21 183.5 555.82 177.29 545.39 171.53 534.98 166.25 524.65 161.2 514.37 156.68 504.2 152.71 494.19 149.02 484.25 145.91 474.48 143.42 464.88 141.2 455.36 139.6 446 138.64 436.83 137.94 427.7 137.86 418.73 138.4 409.94 139.15 401.16 140.5 392.54 142.43 384.1 144.48 375.65 147.02 367.56 149.98 359.82 152.96 352.07 156.3 344.66 159.97 337.61 163.54 330.53 167.39 323.8 171.45 317.41 175.35 311 179.44 304.92 183.68 299.19 187.69 293.4 191.84 287.94 196.11 282.79 200.12 277.56 204.25 272.61 208.49 267.94 212.47 263.14 216.58 258.57 220.81 254.21 224.81 249.66 228.97 245.27 233.29 241.01 237.41 236.5 241.74 232.06 246.27 227.69 250.66 223.01 255.29 218.34 260.16 213.69 264.94 208.7 269.99 203.7 275.31 198.7 280.58 193.39 286.14 188.1 291.99 182.86 297.8 177.38 303.92 172.01 310.35 166.82 316.74 161.51 323.44 156.47 330.44 151.79 337.42 147.16 344.71 143 352.29 139.4 359.86 136.04 367.74 133.36 375.93 131.44" stroke-dasharray="0 0" transform="rotate(25.655172413793103, 400, 400)" opacity="0.11"></path><path d="M381.54 141.36C389.5 139.86 397.61 139.19 405.87 139.34 414.14 139.93 422.58 141.34 431.18 143.53 439.82 146.13 448.63 149.46 457.62 153.46 466.68 157.78 475.93 162.7 485.35 168.14 494.86 173.79 504.56 179.87 514.4 186.31 524.33 192.83 534.4 199.64 544.55 206.66 554.73 213.66 564.96 220.81 575.14 228.08 585.25 235.23 595.24 242.47 604.99 249.75 614.52 256.87 623.68 264.04 632.35 271.23 640.61 278.25 648.21 285.32 655.03 292.43 661.24 299.37 666.51 306.38 670.72 313.47 674.16 320.43 676.44 327.5 677.48 334.69 677.69 341.78 676.64 349.04 674.33 356.46 671.28 363.82 667.07 371.39 661.76 379.17 655.99 386.91 649.34 394.9 641.97 403.15 634.54 411.37 626.7 419.87 618.63 428.64 611 437.41 603.63 446.25 596.69 455.14 590.56 464.04 585.03 472.97 580.15 481.91 576.26 490.84 573.06 499.74 570.52 508.57 568.93 517.36 567.91 526.02 567.37 534.51 567.61 542.88 568.14 551.01 568.87 558.81 570.1 566.41 571.32 573.61 572.4 580.31 574.23 589.63 576.01 604.49 575.55 609.73 571.14 614.82 557.05 612.88 549.81 609.36 544.59 606.79 538.8 603.81 532.5 600.55 526.05 597.62 519.14 594.68 511.83 591.86 504.42 589.75 496.65 588.02 488.56 586.8 480.43 586.59 472.02 587.07 463.37 588.29 454.7 590.64 445.81 593.77 436.73 597.62 427.65 602.47 418.6 607.75 409.6 613.27 400.6 619.37 391.65 625.39 382.77 631.14 373.88 636.97 365.05 642.22 356.28 646.74 347.51 650.91 338.79 654.12 330.15 656.29 321.49 657.84 312.89 658.24 304.39 657.49 295.87 656.02 287.43 653.41 279.12 649.74 270.8 645.38 262.61 640.06 254.59 633.88 246.59 627.15 238.79 619.7 231.2 611.66 223.7 603.25 216.45 594.38 209.51 585.18 202.69 575.78 196.23 566.16 190.15 556.41 184.26 546.59 178.79 536.72 173.8 526.88 169.05 517.05 164.79 507.28 161.09 497.63 157.64 488.03 154.76 478.55 152.48 469.24 150.46 459.97 149.03 450.86 148.22 441.92 147.66 433.02 147.69 424.28 148.34 415.73 149.17 407.19 150.58 398.81 152.56 390.62 154.65 382.42 157.21 374.59 160.19 367.11 163.18 359.62 166.52 352.47 170.17 345.67 173.74 338.85 177.57 332.36 181.61 326.2 185.5 320 189.57 314.13 193.8 308.57 197.81 302.95 201.96 297.62 206.22 292.58 210.24 287.45 214.37 282.57 218.6 277.94 222.59 273.16 226.7 268.58 230.92 264.18 234.92 259.59 239.06 255.12 243.35 250.77 247.44 246.17 251.72 241.63 256.18 237.14 260.49 232.36 265.02 227.6 269.78 222.84 274.43 217.78 279.33 212.72 284.48 207.67 289.56 202.34 294.92 197.04 300.56 191.82 306.15 186.38 312.03 181.07 318.21 175.95 324.35 170.75 330.79 165.81 337.54 161.23 344.25 156.72 351.28 152.67 358.61 149.15 365.93 145.88 373.57 143.26 381.53 141.36" stroke-dasharray="0 0" transform="rotate(29.931034482758623, 400, 400)" opacity="0.44"></path><path d="M387.7 151.28C395.44 149.78 403.34 149.08 411.38 149.16 419.45 149.65 427.69 150.92 436.08 152.93 444.51 155.34 453.12 158.44 461.88 162.19 470.71 166.26 479.71 170.91 488.85 176.07 498.07 181.44 507.43 187.25 516.9 193.42 526.42 199.7 536.02 206.27 545.66 213.08 555.3 219.89 564.92 226.88 574.44 234 583.86 241.04 593.09 248.18 602.03 255.38 610.75 262.46 619.05 269.6 626.83 276.77 634.22 283.79 640.94 290.87 646.89 297.98 652.28 304.95 656.76 311.98 660.25 319.07 663.05 326.05 664.76 333.12 665.33 340.29 665.18 347.36 663.89 354.57 661.45 361.93 658.37 369.21 654.25 376.68 649.15 384.32 643.65 391.92 637.37 399.73 630.42 407.74 623.45 415.74 616.09 423.97 608.5 432.41 601.3 440.85 594.33 449.32 587.7 457.79 581.8 466.26 576.4 474.71 571.57 483.12 567.61 491.52 564.25 499.84 561.48 508.03 559.57 516.18 558.16 524.15 557.19 531.9 556.95 539.54 556.99 546.88 557.22 553.87 558.34 563.86 560.7 581.01 561.44 587.89 557.95 599.81 545.19 598.94 538.75 595.64 534.11 593.32 528.92 590.68 523.22 587.82 517.4 585.31 511.11 582.82 504.41 580.47 497.62 578.79 490.44 577.47 482.93 576.61 475.37 576.67 467.51 577.34 459.37 578.67 451.21 581.02 442.8 584.04 434.16 587.7 425.53 592.26 416.88 597.18 408.24 602.32 399.61 607.99 390.99 613.59 382.41 618.96 373.83 624.44 365.28 629.4 356.79 633.72 348.28 637.78 339.82 640.99 331.42 643.27 323.02 645.04 314.68 645.78 306.42 645.48 298.17 644.56 290 642.59 281.95 639.63 273.91 636.06 266.01 631.57 258.28 626.25 250.59 620.43 243.09 613.89 235.82 606.74 228.64 599.23 221.73 591.24 215.11 582.86 208.64 574.27 202.5 565.4 196.75 556.36 191.19 547.21 186.04 537.95 181.36 528.68 176.9 519.37 172.94 510.08 169.49 500.87 166.3 491.67 163.66 482.57 161.58 473.6 159.76 464.66 158.51 455.85 157.85 447.2 157.42 438.58 157.57 430.11 158.3 421.82 159.21 413.54 160.68 405.42 162.69 397.48 164.82 389.55 167.39 381.96 170.36 374.73 173.34 367.48 176.67 360.57 180.3 353.99 183.85 347.38 187.65 341.09 191.67 335.12 195.54 329.11 199.6 323.39 203.8 317.96 207.8 312.47 211.94 307.24 216.19 302.27 220.22 297.2 224.35 292.35 228.58 287.71 232.58 282.93 236.7 278.32 240.91 273.86 244.92 269.2 249.06 264.66 253.32 260.21 257.41 255.52 261.65 250.88 266.06 246.28 270.32 241.41 274.79 236.56 279.45 231.72 284 226.61 288.78 221.5 293.81 216.42 298.74 211.09 303.94 205.81 309.4 200.62 314.8 195.25 320.48 190.03 326.45 185 332.37 179.91 338.58 175.09 345.1 170.62 351.58 166.24 358.37 162.3 365.47 158.89 372.55 155.71 379.96 153.15 387.69 151.28" stroke-dasharray="0 0" transform="rotate(34.206896551724135, 400, 400)" opacity="0.39"></path><path d="M394.24 161.2C401.75 159.71 409.42 158.98 417.23 158.99 425.07 159.38 433.07 160.51 441.22 162.35 449.41 164.56 457.75 167.44 466.24 170.93 474.78 174.74 483.46 179.11 492.26 183.97 501.1 189.05 510.06 194.57 519.09 200.45 528.13 206.46 537.22 212.77 546.28 219.32 555.32 225.91 564.28 232.69 573.09 239.62 581.78 246.51 590.24 253.5 598.37 260.58 606.26 267.57 613.71 274.63 620.64 281.73 627.17 288.71 633.06 295.75 638.19 302.82 642.81 309.77 646.57 316.79 649.4 323.85 651.61 330.81 652.83 337.85 653 344.96 652.54 352 651.05 359.14 648.52 366.39 645.46 373.59 641.45 380.93 636.56 388.4 631.35 395.85 625.43 403.46 618.91 411.22 612.38 418.98 605.48 426.9 598.36 435 591.6 443.09 585.01 451.17 578.71 459.19 573.04 467.21 567.79 475.18 563.03 483.04 559.04 490.89 555.57 498.61 552.6 506.17 550.4 513.67 548.66 520.96 547.31 527.98 546.62 534.9 546.21 541.49 545.99 547.71 546.41 556.55 547.59 571.44 547.91 577.27 538.62 585.91 520.66 578.91 513.17 575.3 507.91 573.21 502.19 571.16 496.05 569.25 489.83 567.98 483.23 567.03 476.26 566.5 469.26 566.81 461.93 567.65 454.3 569.07 446.65 571.4 438.73 574.32 430.55 577.78 422.38 582.06 414.15 586.64 405.91 591.41 397.67 596.66 389.42 601.85 381.17 606.84 372.94 611.96 364.71 616.63 356.52 620.73 348.33 624.65 340.17 627.82 332.06 630.17 323.96 632.09 315.91 633.1 307.95 633.18 300 632.72 292.14 631.32 284.39 629 276.69 626.14 269.11 622.42 261.7 617.91 254.36 612.93 247.21 607.26 240.28 600.98 233.46 594.35 226.9 587.22 220.64 579.68 214.53 571.91 208.74 563.83 203.34 555.53 198.12 547.09 193.3 538.51 188.94 529.85 184.79 521.13 181.11 512.39 177.94 503.68 175.01 494.96 172.6 486.29 170.73 477.72 169.11 469.17 168.03 460.72 167.52 452.4 167.22 444.11 167.48 435.95 168.29 427.94 169.27 419.95 170.79 412.11 172.82 404.44 174.97 396.77 177.54 389.43 180.49 382.43 183.46 375.41 186.77 368.72 190.35 362.34 193.88 355.93 197.65 349.81 201.62 344 205.47 338.13 209.49 332.54 213.66 327.21 217.66 321.81 221.78 316.64 226.01 311.71 230.04 306.67 234.17 301.83 238.4 297.17 242.41 292.36 246.53 287.7 250.75 283.16 254.77 278.45 258.91 273.82 263.17 269.27 267.25 264.49 271.47 259.76 275.85 255.07 280.08 250.13 284.49 245.21 289.09 240.31 293.57 235.16 298.26 230.04 303.18 224.95 308 219.65 313.06 214.41 318.38 209.28 323.62 204 329.13 198.87 334.91 193.95 340.65 188.99 346.66 184.31 352.97 179.97 359.24 175.73 365.81 171.91 372.69 168.6 379.55 165.52 386.73 163.03 394.23 161.2" stroke-dasharray="0 0" transform="rotate(38.48275862068966, 400, 400)" opacity="0.77"></path><path d="M400.96 171.12C408.23 169.65 415.65 168.89 423.21 168.83 430.79 169.13 438.52 170.13 446.39 171.79 454.29 173.81 462.33 176.45 470.48 179.69 478.67 183.23 486.98 187.3 495.38 191.86 503.79 196.65 512.29 201.85 520.81 207.42 529.32 213.13 537.83 219.15 546.28 225.42 554.67 231.75 562.94 238.28 571.02 244.98 578.96 251.66 586.63 258.48 593.96 265.38 601.03 272.23 607.66 279.16 613.75 286.13 619.48 293.03 624.58 299.98 628.95 306.96 632.86 313.86 635.96 320.8 638.19 327.79 639.89 334.69 640.67 341.66 640.5 348.68 639.79 355.64 638.14 362.69 635.57 369.81 632.54 376.89 628.67 384.07 624.02 391.36 619.09 398.62 613.53 406 607.43 413.49 601.33 420.98 594.89 428.59 588.23 436.32 581.89 444.05 575.67 451.7 569.69 459.27 564.27 466.83 559.2 474.29 554.53 481.6 550.54 488.9 546.98 496.03 543.87 502.95 541.44 509.82 539.4 516.44 537.71 522.77 536.22 531.93 534.93 548.15 534.75 554.99 525.61 571.85 509.29 566.05 502.51 563.02 495.14 560.52 478.19 557.02 468.71 556.48 462.24 557.01 455.42 558 448.29 559.48 441.15 561.79 433.72 564.59 426.01 567.86 418.3 571.86 410.52 576.12 402.69 580.52 394.87 585.38 387.01 590.17 379.14 594.79 371.28 599.54 363.41 603.91 355.56 607.79 347.72 611.53 339.91 614.62 332.13 616.99 324.38 619.02 316.67 620.24 309.04 620.62 301.44 620.56 293.93 619.63 286.53 617.88 279.18 615.65 271.97 612.63 264.93 608.86 257.96 604.68 251.18 599.82 244.63 594.37 238.19 588.59 232.01 582.3 226.13 575.58 220.39 568.64 214.98 561.35 209.93 553.8 205.07 546.11 200.6 538.23 196.56 530.23 192.73 522.16 189.35 514.01 186.45 505.85 183.78 497.66 181.61 489.49 179.95 481.37 178.52 473.26 177.61 465.21 177.24 457.28 177.07 449.35 177.42 441.53 178.31 433.85 179.36 426.17 180.91 418.63 182.96 411.23 185.11 403.84 187.67 396.75 190.59 389.98 193.54 383.19 196.8 376.7 200.34 370.5 203.83 364.27 207.55 358.31 211.47 352.62 215.28 346.89 219.27 341.39 223.39 336.14 227.36 330.81 231.46 325.69 235.67 320.77 239.69 315.75 243.82 310.89 248.03 306.19 252.06 301.35 256.18 296.64 260.4 292.03 264.43 287.25 268.57 282.54 272.82 277.91 276.91 273.06 281.13 268.26 285.48 263.49 289.69 258.5 294.07 253.54 298.62 248.6 303.05 243.45 307.67 238.32 312.49 233.26 317.22 228.01 322.18 222.84 327.37 217.78 332.48 212.62 337.85 207.61 343.46 202.81 349.03 198 354.87 193.47 360.98 189.27 367.06 185.18 373.43 181.5 380.09 178.3 386.73 175.33 393.69 172.91 400.95 171.12" stroke-dasharray="0 0" transform="rotate(42.758620689655174, 400, 400)" opacity="0.91"></path><path d="M407.65 181.04C414.66 179.59 421.82 178.81 429.1 178.69 436.4 178.9 443.83 179.76 451.38 181.26 458.94 183.08 466.63 185.5 474.41 188.48 482.2 191.74 490.09 195.52 498.03 199.76 505.97 204.23 513.94 209.11 521.91 214.35 529.85 219.74 537.75 225.44 545.54 231.4 553.26 237.43 560.82 243.69 568.16 250.11 575.34 256.55 582.24 263.13 588.76 269.81 595.05 276.47 600.88 283.21 606.19 290.02 611.15 296.77 615.51 303.58 619.19 310.42 622.44 317.21 624.95 324.03 626.66 330.9 627.89 337.7 628.3 344.55 627.85 351.44 626.94 358.29 625.18 365.19 622.6 372.15 619.64 379.07 615.93 386.07 611.52 393.13 606.89 400.18 601.68 407.31 595.99 414.51 590.31 421.7 584.32 428.98 578.1 436.32 572.17 443.66 566.32 450.89 560.67 457.99 555.49 465.08 550.61 472.03 546.05 478.8 542.09 485.54 538.5 492.09 535.27 498.4 532.65 504.65 530.37 510.64 528.4 516.31 526.37 524.5 523.91 538.76 523.15 544.67 512.71 558.46 497.6 553.44 491.42 550.99 484.71 549.07 469.18 546.66 460.44 546.55 454.46 547.26 448.14 548.37 441.51 549.91 434.85 552.17 427.9 554.86 420.67 557.94 413.44 561.68 406.11 565.62 398.71 569.67 391.33 574.15 383.88 578.56 376.42 582.8 368.96 587.21 361.49 591.27 354.02 594.9 346.57 598.45 339.13 601.42 331.73 603.77 324.36 605.86 317.03 607.22 309.77 607.85 302.56 608.1 295.43 607.59 288.42 606.32 281.47 604.65 274.65 602.24 268 599.15 261.44 595.68 255.07 591.58 248.92 586.91 242.89 581.93 237.11 576.44 231.62 570.53 226.27 564.39 221.24 557.89 216.57 551.1 212.07 544.17 207.95 537.01 204.24 529.69 200.73 522.29 197.65 514.77 195.03 507.2 192.62 499.59 190.68 491.95 189.23 484.33 187.99 476.7 187.25 469.11 187.01 461.58 186.96 454.06 187.41 446.62 188.36 439.29 189.46 431.95 191.03 424.72 193.09 417.62 195.24 410.51 197.78 403.68 200.66 397.14 203.57 390.58 206.78 384.29 210.25 378.26 213.69 372.2 217.35 366.39 221.21 360.81 224.97 355.19 228.9 349.78 232.97 344.59 236.91 339.32 240.97 334.23 245.14 329.31 249.14 324.3 253.25 319.43 257.45 314.69 261.47 309.82 265.59 305.06 269.8 300.39 273.84 295.55 277.99 290.79 282.23 286.08 286.32 281.19 290.53 276.33 294.87 271.51 299.07 266.5 303.42 261.52 307.92 256.57 312.32 251.44 316.88 246.36 321.63 241.34 326.29 236.17 331.16 231.1 336.23 226.14 341.24 221.11 346.47 216.24 351.94 211.59 357.36 206.94 363.04 202.57 368.96 198.53 374.86 194.59 381.03 191.06 387.47 187.99 393.9 185.12 400.62 182.79 407.64 181.04" stroke-dasharray="0 0" transform="rotate(47.03448275862069, 400, 400)" opacity="0.87"></path><path d="M414.1 190.95C420.85 189.54 427.72 188.74 434.69 188.56 441.68 188.69 448.78 189.42 455.97 190.75 463.17 192.38 470.46 194.57 477.82 197.29 485.18 200.28 492.6 203.76 500.03 207.69 507.46 211.83 514.88 216.37 522.26 221.27 529.6 226.31 536.85 231.67 543.97 237.29 551 243 557.84 248.94 564.44 255.05 570.88 261.2 577.02 267.51 582.77 273.93 588.3 280.34 593.38 286.85 597.94 293.44 602.2 299.99 605.88 306.6 608.92 313.26 611.59 319.88 613.57 326.54 614.82 333.22 615.66 339.87 615.75 346.56 615.07 353.27 614 359.95 612.18 366.67 609.63 373.42 606.76 380.15 603.22 386.93 599.06 393.74 594.72 400.54 589.88 407.38 584.58 414.26 579.32 421.14 573.75 428.06 567.97 435 562.44 441.94 556.96 448.73 551.63 455.36 546.71 461.97 542.03 468.41 537.61 474.65 533.71 480.86 530.1 486.84 526.81 492.57 522.81 500.93 516.87 515.98 514.75 522.53 505.15 545.03 495.02 544.66 490.63 542.82 485.76 541.09 473.95 537.84 467.04 536.67 459.69 536.42 443.19 538.17 434.11 540.35 427.93 542.56 421.46 545.13 414.7 548.02 407.94 551.5 401.07 555.13 394.13 558.85 387.19 562.96 380.19 567 373.15 570.89 366.13 574.94 359.08 578.69 352.02 582.07 344.99 585.4 337.96 588.24 330.97 590.53 324.01 592.62 317.1 594.07 310.25 594.88 303.46 595.38 296.75 595.2 290.16 594.35 283.63 593.16 277.24 591.29 271.01 588.8 264.88 585.98 258.93 582.56 253.2 578.61 247.59 574.37 242.23 569.65 237.15 564.49 232.21 559.13 227.57 553.4 223.28 547.36 219.15 541.18 215.38 534.74 212.01 528.11 208.82 521.39 206.04 514.53 203.69 507.57 201.54 500.56 199.83 493.49 198.59 486.4 197.54 479.29 196.95 472.18 196.84 465.1 196.9 458.02 197.43 450.98 198.44 444.02 199.58 437.06 201.17 430.16 203.22 423.36 205.36 416.56 207.86 410.01 210.69 403.69 213.55 397.37 216.69 391.28 220.09 385.42 223.46 379.54 227.05 373.86 230.83 368.4 234.53 362.89 238.39 357.56 242.4 352.42 246.28 347.21 250.3 342.15 254.41 337.24 258.39 332.24 262.47 327.36 266.64 322.59 270.65 317.71 274.75 312.91 278.95 308.19 282.99 303.32 287.12 298.51 291.36 293.76 295.45 288.85 299.65 283.97 303.96 279.13 308.16 274.13 312.48 269.16 316.94 264.24 321.3 259.16 325.82 254.14 330.5 249.2 335.1 244.14 339.88 239.19 344.85 234.36 349.76 229.48 354.87 224.78 360.2 220.29 365.48 215.82 371 211.62 376.74 207.75 382.46 203.98 388.43 200.6 394.65 197.65 400.86 194.9 407.34 192.66 414.09 190.96" stroke-dasharray="0 0" transform="rotate(51.310344827586206, 400, 400)" opacity="0.55"></path><path d="M420.12 200.87C426.58 199.49 433.15 198.68 439.79 198.45 446.44 198.49 453.17 199.11 459.97 200.27 466.78 201.71 473.64 203.68 480.54 206.14 487.44 208.86 494.35 212.04 501.25 215.64 514.99 223.45 528.53 232.73 541.5 243.13 554.08 253.94 565.73 265.58 575.98 277.77 585.37 290.03 592.91 302.69 598.19 315.53 602.15 328.29 603.55 341.23 602.18 354.22 601 360.69 599.15 367.18 596.65 373.69 593.9 380.18 590.55 386.69 586.65 393.21 582.61 399.73 578.11 406.27 573.21 412.8 568.35 419.34 563.2 425.88 557.84 432.4 552.69 438.93 547.58 445.28 542.58 451.43 537.93 457.58 533.45 463.53 529.19 469.24 525.37 474.94 521.79 480.39 518.47 485.56 515.6 490.69 512.97 495.52 510.57 500.03 507.04 508.84 504.1 516.2 501.45 521.92 495.45 531.55 478.8 530.7 468.71 527.67 463.05 526.82 449.92 526.31 442.49 526.91 437.41 527.92 432 529.21 426.29 530.8 420.58 532.95 414.57 535.39 408.28 538.11 401.99 541.33 395.59 544.67 389.11 548.07 382.63 551.82 376.08 555.5 369.49 559.04 362.92 562.74 356.31 566.19 349.7 569.3 343.11 572.41 336.52 575.08 329.97 577.28 316.98 581.19 304.18 582.8 291.82 582.03 279.74 580.14 268.23 575.88 257.54 569.5 247.31 562.15 238.07 553.03 230.09 542.54 222.74 531.49 216.79 519.46 212.45 506.83 210.55 500.44 209.07 493.96 208.02 487.41 207.15 480.85 206.72 474.24 206.73 467.63 206.89 461.02 207.5 454.41 208.55 447.84 209.72 441.27 211.33 434.74 213.35 428.26 215.46 421.78 217.92 415.51 220.69 409.44 223.48 403.37 226.55 397.49 229.86 391.8 233.15 386.09 236.65 380.57 240.34 375.22 243.96 369.82 247.74 364.59 251.66 359.5 259.19 349.15 267.2 339.27 275.57 329.82 283.4 319.95 291.6 310.32 300.14 300.93 308.17 290.99 316.65 281.18 325.58 271.59 334.13 261.51 343.29 251.72 353.09 242.45 357.9 237.74 362.9 233.21 368.08 228.91 373.23 224.63 378.59 220.62 384.15 216.92 389.69 213.33 395.45 210.11 401.45 207.3 407.43 204.68 413.65 202.52 420.11 200.88" stroke-dasharray="0 0" transform="rotate(55.58620689655172, 400, 400)" opacity="0.35"></path><path d="M425.53 210.79C437.85 208.34 450.46 208.06 463.22 209.82 475.98 212.59 488.85 217.29 501.56 223.65 514.17 230.78 526.45 239.32 538.07 248.96 549.3 259.02 559.54 269.94 568.41 281.42 576.48 293.03 582.8 305.07 587.02 317.31 590.11 329.54 590.89 341.94 589.21 354.38 586.46 366.78 581.43 379.24 574.29 391.65 566.75 404.05 557.75 416.43 547.71 428.63 538.42 440.83 529.31 452.24 520.79 462.71 513.76 473.09 507.5 482.41 502.03 490.5 496.32 501.59 487.99 516.01 483.94 519.13 479.88 520.61 466.94 518.44 457.48 516.41 450.66 516.19 442.56 516.37 433.23 517.21 423.82 519.91 413.25 523.59 401.61 528.19 389.96 534.54 377.88 541.05 365.61 547.27 353.41 554.11 341.08 559.83 328.86 564.06 316.8 567.87 304.94 569.68 293.51 569.4 282.36 568.22 271.77 564.91 261.99 559.65 252.64 553.55 244.25 545.77 237.04 536.63 230.42 526.97 225.12 516.29 221.32 504.91 218.18 493.32 216.59 481.27 216.67 469.03 217.33 456.76 219.59 444.4 223.48 432.13 227.69 419.85 233.14 408.22 239.56 397.24 245.91 386.19 253.05 375.7 260.77 365.73 268.15 355.56 276.01 345.76 284.23 336.33 291.98 326.53 300.11 316.94 308.55 307.56 316.55 297.74 324.96 288.07 333.77 278.63 342.24 268.83 351.26 259.34 360.83 250.4 370.2 241.38 380.25 233.16 391.02 226.06 401.7 219.38 413.2 214.18 425.52 210.79" stroke-dasharray="0 0" transform="rotate(59.862068965517246, 400, 400)" opacity="0.16"></path><path d="M430.15 220.71C441.83 218.32 453.68 217.93 465.55 219.41 477.43 221.81 489.27 225.99 500.86 231.72 512.32 238.17 523.35 245.96 533.66 254.81 543.58 264.09 552.5 274.22 560.07 284.92 566.94 295.81 572.16 307.14 575.45 318.69 577.8 330.29 578.08 342.06 576.17 353.85 573.4 365.64 568.62 377.45 561.98 389.15 555.05 400.87 546.8 412.48 537.57 423.82 529 435.16 520.49 445.66 512.4 455.19 505.58 464.65 499.33 473.05 493.73 480.26 487.45 490.16 477.64 502.94 472.96 505.8 468.44 507.39 455.53 506.51 446.57 505.41 440.19 505.73 432.67 506.38 424.05 507.57 415.37 510.38 405.62 513.97 394.89 518.27 384.15 524.09 373 529.98 361.67 535.57 350.41 541.76 339.04 546.96 327.78 550.87 316.68 554.53 305.79 556.44 295.32 556.52 285.13 555.91 275.48 553.39 266.61 549.1 258.15 544.12 250.59 537.55 244.16 529.66 238.26 521.31 233.59 511.91 230.32 501.74 227.63 491.36 226.38 480.43 226.68 469.18 227.49 457.9 229.79 446.39 233.61 434.83 237.73 423.27 242.99 412.18 249.18 401.62 255.33 391 262.24 380.8 269.7 371.03 276.9 361.08 284.58 351.43 292.6 342.07 300.24 332.42 308.25 322.94 316.55 313.67 324.47 304.04 332.77 294.58 341.43 285.38 349.79 275.91 358.64 266.79 367.96 258.23 377.11 249.66 386.86 241.88 397.21 235.17 407.49 228.87 418.47 223.95 430.14 220.71" stroke-dasharray="0 0" transform="rotate(64.13793103448276, 400, 400)" opacity="0.09"></path><path d="M433.86 230.63C444.84 228.31 455.89 227.82 466.86 229.04 477.81 231.08 488.62 234.76 499.07 239.87 509.4 245.64 519.21 252.67 528.25 260.72 536.94 269.19 544.62 278.49 551 288.37 556.78 298.46 561.03 309.01 563.53 319.79 565.26 330.66 565.13 341.71 563.08 352.77 560.36 363.86 555.87 374.95 549.74 385.89 543.41 396.85 535.88 407.66 527.44 418.14 519.56 428.63 511.65 438.24 504.03 446.91 497.45 455.51 491.3 463.08 485.64 469.52 478.94 478.4 467.91 489.94 462.68 492.69 457.7 494.5 444.71 494.92 436.16 494.68 430.14 495.47 423.13 496.53 415.16 498.01 407.15 500.87 398.18 504.35 388.32 508.35 378.46 513.66 368.24 518.96 357.85 523.95 347.54 529.5 337.14 534.19 326.87 537.75 316.74 541.18 306.83 543.11 297.35 543.45 288.12 543.26 279.42 541.39 271.46 537.93 263.88 533.91 257.15 528.42 251.48 521.67 246.28 514.52 242.21 506.32 239.45 497.31 237.19 488.11 236.26 478.27 236.76 468.02 237.7 457.71 240.02 447.08 243.75 436.26 247.74 425.45 252.8 414.95 258.73 404.85 264.65 394.69 271.29 384.84 278.47 375.33 285.44 365.67 292.89 356.23 300.68 347.04 308.16 337.61 315.99 328.33 324.1 319.25 331.9 309.9 340.04 300.73 348.51 291.85 356.72 282.78 365.36 274.07 374.4 265.95 383.29 257.86 392.69 250.53 402.6 244.23 412.44 238.33 422.87 233.7 433.86 230.63" stroke-dasharray="0 0" transform="rotate(68.41379310344827, 400, 400)" opacity="0.32"></path><path d="M436.53 240.55C446.79 238.31 457.01 237.74 467.04 238.72 477.06 240.41 486.83 243.61 496.17 248.11 505.38 253.22 514.02 259.5 521.86 266.73 529.39 274.38 535.93 282.81 541.25 291.83 546.06 301.07 549.46 310.77 551.3 320.72 552.51 330.78 552.08 341.02 549.97 351.29 547.34 361.6 543.16 371.9 537.55 382.04 531.81 392.2 524.99 402.18 517.31 411.8 510.1 421.43 502.8 430.21 495.66 438.06 489.38 445.87 483.38 452.7 477.75 458.49 470.79 466.52 458.81 477.15 453.12 479.92 447.73 482.01 434.62 483.68 426.4 484.21 420.69 485.41 414.14 486.81 406.76 488.51 399.36 491.39 391.12 494.73 382.11 498.43 373.1 503.25 363.78 507.98 354.35 512.4 344.97 517.34 335.55 521.51 326.26 524.71 317.11 527.87 308.19 529.74 299.68 530.24 291.41 530.36 283.65 529 276.6 526.23 269.88 523.02 263.96 518.47 259.02 512.73 254.49 506.67 251.01 499.58 248.72 491.66 246.87 483.56 246.24 474.79 246.9 465.51 247.96 456.18 250.27 446.43 253.88 436.38 257.72 426.34 262.57 416.47 268.21 406.87 273.87 397.24 280.21 387.81 287.07 378.62 293.78 369.32 300.94 360.18 308.45 351.23 315.71 342.11 323.31 333.12 331.18 324.33 338.8 315.34 346.74 306.54 354.95 298.05 362.96 289.44 371.33 281.21 380.04 273.56 388.63 265.99 397.65 259.15 407.06 253.28 416.43 247.77 426.27 243.45 436.53 240.55" stroke-dasharray="0 0" transform="rotate(72.6896551724138, 400, 400)" opacity="0.60"></path><path d="M438.09 250.47C447.59 248.33 456.95 247.68 466.05 248.43 475.12 249.81 483.87 252.54 492.13 256.46 500.26 260.92 507.79 266.46 514.53 272.88 520.99 279.69 526.5 287.25 530.87 295.37 534.83 303.73 537.52 312.53 538.8 321.59 539.6 330.78 538.96 340.17 536.86 349.58 534.36 359.05 530.52 368.51 525.43 377.8 520.26 387.13 514.12 396.26 507.18 405.04 500.63 413.82 493.93 421.79 487.29 428.9 481.35 435.97 475.58 442.15 470.05 447.4 462.97 454.71 450.34 464.7 444.29 467.57 438.57 469.98 425.35 472.81 417.43 474.01 411.99 475.54 405.85 477.21 399.03 479.08 392.19 481.93 384.65 485.1 376.45 488.51 368.25 492.86 359.82 497.06 351.31 500.93 342.86 505.28 334.39 508.95 326.09 511.78 317.91 514.63 309.96 516.38 302.42 516.95 295.09 517.26 288.25 516.29 282.08 514.08 276.19 511.54 271.05 507.79 266.81 502.94 262.92 497.84 260 491.75 258.15 484.84 256.68 477.78 256.31 470.01 257.11 461.68 258.25 453.3 260.54 444.43 264.01 435.18 267.69 425.92 272.28 416.73 277.62 407.7 282.99 398.64 289 389.68 295.51 380.9 301.9 372.04 308.74 363.28 315.92 354.68 322.9 345.96 330.22 337.35 337.79 328.93 345.16 320.39 352.82 312.04 360.72 304.01 368.47 295.92 376.52 288.22 384.84 281.08 393.08 274.05 401.65 267.72 410.53 262.29 419.38 257.2 428.58 253.19 438.09 250.47" stroke-dasharray="0 0" transform="rotate(76.96551724137932, 400, 400)" opacity="0.55"></path><path d="M438.48 260.38C447.2 258.35 455.69 257.65 463.86 258.2 471.99 259.28 479.74 261.57 486.97 264.94 494.09 268.77 500.58 273.58 506.3 279.21 511.79 285.19 516.38 291.87 519.94 299.09 523.15 306.53 525.24 314.41 526.09 322.55 526.57 330.83 525.8 339.3 523.76 347.82 521.43 356.4 517.95 364.98 513.37 373.41 508.75 381.87 503.26 390.15 497.04 398.1 491.14 406.04 485.03 413.25 478.91 419.67 473.36 426.07 467.86 431.67 462.52 436.45 455.46 443.17 442.47 452.7 436.2 455.73 430.24 458.45 417 462.32 409.37 464.07 404.18 465.86 398.42 467.72 392.12 469.7 385.81 472.49 378.92 475.48 371.5 478.59 364.08 482.48 356.51 486.18 348.91 489.54 341.35 493.33 333.82 496.51 326.48 498.96 319.24 501.48 312.24 503.06 305.65 503.63 296.25 503.7 280.66 498.03 274.88 492.42 271.6 488.14 269.19 482.95 267.74 476.96 266.61 470.84 266.48 464.02 267.4 456.6 268.6 449.14 270.83 441.14 274.14 432.7 277.63 424.25 281.96 415.77 286.97 407.35 292.01 398.91 297.66 390.51 303.77 382.21 309.82 373.87 316.29 365.58 323.08 357.42 329.73 349.19 336.7 341.05 343.9 333.1 350.96 325.08 358.28 317.26 365.81 309.76 373.22 302.24 380.88 295.12 388.76 288.53 396.58 282.07 404.65 276.26 412.95 271.28 421.23 266.62 429.76 262.93 438.48 260.38" stroke-dasharray="0 0" transform="rotate(81.24137931034483, 400, 400)" opacity="0.74"></path><path d="M437.69 270.3C445.61 268.39 453.23 267.65 460.48 268.01 467.7 268.83 474.49 270.71 480.74 273.55 486.9 276.78 492.44 280.9 497.25 285.75 501.87 290.92 505.66 296.73 508.51 303.05 511.1 309.57 512.69 316.51 513.21 323.72 513.45 331.05 512.62 338.59 510.7 346.18 508.57 353.85 505.45 361.52 501.38 369.08 497.3 376.66 492.44 384.08 486.91 391.21 481.64 398.35 476.12 404.82 470.54 410.62 465.39 416.39 460.23 421.47 455.14 425.85 448.24 432.06 435.19 441.27 428.83 444.46 422.75 447.46 409.61 452.19 402.3 454.39 397.35 456.36 391.97 458.35 386.17 460.38 380.36 463.07 374.1 465.86 367.43 468.68 360.76 472.13 354 475.34 347.27 478.23 340.58 481.48 333.96 484.2 327.54 486.27 318.17 489.14 301.33 490.53 294.25 488.84 288.07 485.98 279.56 475.51 277.51 468.14 276.69 462.89 276.75 456.94 277.75 450.38 278.99 443.8 281.15 436.65 284.27 429.02 287.55 421.39 291.59 413.65 296.24 405.9 300.93 398.15 306.19 390.37 311.88 382.64 317.53 374.88 323.58 367.15 329.93 359.53 336.19 351.86 342.75 344.28 349.53 336.89 356.2 329.46 363.11 322.23 370.2 315.32 377.2 308.43 384.41 301.91 391.79 295.91 399.11 290.03 406.64 284.76 414.3 280.25 421.96 276.02 429.78 272.65 437.69 270.3" stroke-dasharray="0 0" transform="rotate(85.51724137931035, 400, 400)" opacity="0.43"></path><path d="M435.76 280.22C442.85 278.43 449.61 277.68 455.97 277.88 465.24 279.21 481.14 286.71 487.47 292.55 491.32 296.93 494.41 301.89 496.68 307.32 498.75 312.94 499.95 318.94 500.22 325.22 500.3 331.6 499.46 338.19 497.69 344.86 495.79 351.59 493.03 358.35 489.46 365.03 485.9 371.73 481.65 378.31 476.78 384.65 472.11 390.99 467.19 396.78 462.15 401.98 457.44 407.17 452.66 411.78 447.89 415.8 441.28 421.57 428.48 430.49 422.17 433.84 416.1 437.05 403.25 442.44 396.28 444.96 389.1 448.06 373.14 454.95 364.35 458.76 358.39 461.79 352.42 464.56 346.53 467 337.79 470.89 321.29 476.15 313.84 477.15 301.41 475.49 288.96 464.85 287.45 458.56 287.01 451.49 290.46 434.27 294.4 424.3 297.45 417.49 301.17 410.51 305.45 403.48 309.77 396.45 314.59 389.35 319.83 382.26 325.04 375.17 330.62 368.07 336.49 361.07 342.3 354.05 348.39 347.11 354.67 340.34 360.89 333.57 367.32 327 373.9 320.73 380.42 314.51 387.11 308.63 393.92 303.23 400.69 297.97 407.61 293.24 414.6 289.2 421.59 285.4 428.67 282.36 435.76 280.22" stroke-dasharray="0 0" transform="rotate(89.79310344827586, 400, 400)" opacity="0.27"></path><path d="M432.73 290.14C445.25 287.16 456.32 287.7 465.42 291.23 474.27 295.8 480.81 302.99 484.51 312 487.66 321.61 487.8 332.58 484.75 344.02 481.37 355.68 475.23 367.5 466.64 378.65 458.71 389.79 449.82 399.12 440.76 406.48 432.8 413.93 424.54 419.69 416.18 423.88 408.54 428.68 400.25 432.59 391.34 435.77 382.63 440.34 372.9 444.78 362.36 448.84 351.83 454.45 341.51 458.76 332.05 461.38 322.77 464.43 314.64 465.04 308.3 463.04 302.45 460.84 298.7 455.87 297.58 448.38 297.07 440.69 299.29 430.68 304.54 418.69 310.21 406.7 318.16 393.97 327.62 381.22 337.07 368.49 347.87 355.69 359.37 343.54 370.71 331.47 382.83 320.18 395.19 310.52 407.5 301.37 420.21 294.27 432.73 290.14" stroke-dasharray="0 0" transform="rotate(94.06896551724138, 400, 400)" opacity="0.50"></path><path d="M428.7 300.06C439.56 297.32 448.96 297.56 456.53 300.32 463.92 303.89 469.23 309.71 472.1 317.13 474.61 325.03 474.58 334.18 471.9 343.84 469.04 353.67 463.84 363.76 456.51 373.42 449.67 383.07 441.85 391.33 433.72 398.04 426.39 404.85 418.66 410.36 410.81 414.64 403.51 419.42 395.7 423.46 387.49 426.81 379.45 431.21 370.72 435.34 361.52 438.92 352.32 443.67 343.53 447.17 335.63 449.18 324.51 451.78 309.96 446.24 307.9 437.8 307.73 431.32 309.9 422.78 314.67 412.4 319.77 402.02 326.86 390.89 335.27 379.67 343.71 368.49 353.36 357.23 363.63 346.55 373.83 336 384.68 326.17 395.67 317.79 406.65 309.86 417.84 303.69 428.7 300.06" stroke-dasharray="0 0" transform="rotate(98.3448275862069, 400, 400)" opacity="0.48"></path><path d="M423.8 309.98C433 307.52 440.83 307.51 447.01 309.59 453.07 312.27 457.32 316.83 459.54 322.77 461.52 329.08 461.42 336.49 459.15 344.44 456.8 352.52 452.51 360.94 446.38 369.15 440.61 377.36 433.88 384.56 426.76 390.6 420.19 396.73 413.18 401.9 406.02 406.12 399.25 410.72 392.08 414.72 384.7 418.07 377.44 422.17 369.75 425.91 361.86 429 353.97 432.94 346.61 435.71 340.14 437.17 331.08 439.05 319.7 434.12 318.41 427.03 318.5 421.63 320.56 414.45 324.8 405.66 329.3 396.87 335.48 387.38 342.78 377.77 350.15 368.21 358.56 358.57 367.5 349.45 376.43 340.48 385.9 332.13 395.43 325.05 404.96 318.34 414.59 313.11 423.8 309.98" stroke-dasharray="0 0" transform="rotate(102.62068965517241, 400, 400)" opacity="0.32"></path><path d="M418.17 319.9C428.91 317.66 443.54 322.68 446.9 328.98 448.46 333.82 448.36 339.63 446.52 345.96 444.66 352.39 441.22 359.21 436.25 366.01 431.51 372.81 425.9 378.94 419.86 384.25 414.18 389.63 408.04 394.35 401.74 398.33 395.71 402.59 389.36 406.36 382.91 409.53 376.56 413.22 369.96 416.49 363.36 419.08 337.94 423.55 330.33 408.89 334.93 398.72 338.78 391.48 344.01 383.65 350.16 375.7 356.39 367.8 363.5 359.85 371.03 352.34 378.59 344.96 386.58 338.12 394.57 332.33 402.58 326.82 410.59 322.52 418.17 319.9" stroke-dasharray="0 0" transform="rotate(106.89655172413792, 400, 400)" opacity="0.10"></path><path d="M411.98 329.81C423.91 326.56 431.66 329.21 434.29 335.79 436.66 343.02 433.97 353.26 426.12 364.1 418.85 374.94 408.61 384.3 397.91 391.26 387.84 398.95 376.61 405.38 365.98 409.16 351.24 415.05 338.97 406.85 345.06 391.82 351.46 380.39 362.16 367.16 374.27 355.29 386.49 343.83 400.04 334.31 411.98 329.81" stroke-dasharray="0 0" transform="rotate(111.17241379310344, 400, 400)" opacity="0.27"></path><path d="M405.43 339.73C417.06 337.92 422.63 351.74 415.99 363.5 410.6 371.62 402.77 379.07 394.46 384.88 386.48 391.11 377.69 396.31 369.64 399.25 358.62 403.3 350.3 396.43 355.2 385.22 360.1 376.75 368.18 367.04 377.27 358.39 386.47 350.01 396.61 343.07 405.43 339.73" stroke-dasharray="0 0" transform="rotate(115.44827586206897, 400, 400)" opacity="0.49"></path><path d="M398.71 349.65C410.26 346.27 413.35 353.37 405.85 364.22 398.93 375.06 385.08 385.68 374.22 389.33 363.35 394.38 359.08 390.31 365.33 379.15 372.09 367.99 387.14 354.34 398.71 349.65" stroke-dasharray="0 0" transform="rotate(119.72413793103449, 400, 400)" opacity="0.44"></path></g></svg>