<svg xmlns="http://www.w3.org/2000/svg" version="1.1" xmlns:xlink="http://www.w3.org/1999/xlink" xmlns:svgjs="http://svgjs.dev/svgjs" viewBox="0 0 800 800"><defs><linearGradient x1="50%" y1="0%" x2="50%" y2="100%" id="ccchaos-grad"><stop stop-color="hsl(265, 55%, 30%)" stop-opacity="1" offset="0%"></stop><stop stop-color="hsl(265, 55%, 60%)" stop-opacity="1" offset="100%"></stop></linearGradient></defs><g stroke-width="3" stroke="url(#ccchaos-grad)" fill="none" stroke-linecap="round"><path d="M386.65 32.5C392.96 32.11 399.14 31.56 405.19 30.88 414.17 29.42 431.41 26.24 439.66 24.82 447.74 23.66 463.17 23.07 470.53 23.87 477.77 25.5 491.67 31.4 498.39 35.6 502.89 38.79 507.31 42.32 511.69 46.15 516.14 50.14 520.57 54.35 525 58.75 529.55 63.17 534.13 67.7 538.77 72.28 543.57 76.78 548.46 81.27 553.48 85.72 558.7 90 564.08 94.19 569.64 98.28 575.44 102.15 581.46 105.91 587.7 109.55 594.21 112.96 600.97 116.28 607.98 119.51 615.25 122.53 622.78 125.5 630.55 128.44 638.55 131.23 646.76 134.03 655.17 136.86 663.73 139.61 672.42 142.44 681.19 145.36 690 148.26 698.81 151.3 707.54 154.5 716.17 157.72 724.6 161.12 732.77 164.72 740.65 168.38 748.14 172.25 755.15 176.32 761.7 180.49 767.64 184.87 772.92 189.45 779.52 196.58 787.62 211.93 788.97 220.11 788.86 225.7 787.88 231.44 786.07 237.31 783.66 243.26 780.5 249.32 776.68 255.48 772.48 261.7 767.78 268 762.7 274.37 757.55 280.79 752.25 287.26 746.92 293.76 741.89 300.3 737.09 306.87 732.63 313.46 728.83 320.07 725.6 326.69 723.05 333.3 721.43 339.93 720.64 346.54 720.72 353.14 721.86 359.74 723.91 366.32 726.86 372.87 730.81 379.41 735.56 385.92 741.04 392.38 747.25 398.84 753.89 405.17 760.78 411.38 768 417.58 775.18 423.65 782.16 429.58 789.02 435.52 795.39 441.31 801.15 446.98 806.38 452.65 810.77 458.18 814.24 463.59 817.72 471.64 817.97 487.2 814.71 494.74 811.31 499.77 806.93 504.73 801.65 509.62 795.65 514.57 788.91 519.48 781.53 524.37 773.69 529.35 765.39 534.35 756.76 539.36 747.94 544.51 738.97 549.72 729.97 555.01 721.04 560.46 712.24 566.03 703.63 571.73 695.33 577.62 687.34 583.66 679.71 589.87 672.53 596.28 665.77 602.87 659.46 609.62 653.65 616.56 648.3 623.66 643.39 630.89 638.99 638.26 635 645.71 631.38 653.23 628.21 660.78 625.36 668.31 622.78 675.77 620.56 683.13 618.53 690.32 616.65 697.27 615.03 703.96 613.46 710.31 611.92 716.23 607.56 730.47 599.9 743.62 596.65 745 588.78 743.53 573.97 736.62 567.98 733.82 561.58 731.68 547.44 730.09 539.74 731.16 534.47 732.88 529.01 735.29 523.35 738.38 517.65 742.26 511.78 746.74 505.75 751.76 499.69 757.33 493.48 763.23 487.15 769.29 480.8 775.5 474.32 781.58 467.74 787.36 461.15 792.78 454.46 797.58 447.68 801.6 440.9 804.85 434.03 807.09 427.08 808.21 420.13 808.35 413.18 807.33 406.25 805.21 399.31 802.2 392.39 798.26 385.48 793.51 378.57 788.22 371.68 782.42 364.8 776.28 357.92 770.07 351.05 763.83 344.2 757.72 337.35 751.99 330.51 746.66 323.69 741.82 316.86 737.67 310.05 734.15 303.26 731.3 296.47 729.24 289.69 727.85 282.94 727.08 276.19 727.02 269.47 727.45 262.78 728.28 256.1 729.6 249.45 731.11 242.85 732.71 236.27 734.47 229.75 736.11 223.28 737.52 216.85 738.79 210.49 739.66 204.22 740.04 198 740.05 191.87 739.46 185.85 738.25 179.9 736.55 174.07 734.18 168.37 731.16 162.76 727.62 157.29 723.47 151.98 718.73 146.77 713.56 141.72 707.88 136.85 701.77 132.09 695.34 127.5 688.57 123.11 681.54 118.82 674.33 114.72 666.96 110.81 659.47 106.99 651.95 103.37 644.41 99.92 636.89 96.56 629.43 93.36 622.05 90.34 614.79 87.37 607.66 84.55 600.67 81.88 593.83 79.22 587.16 76.7 580.64 74.29 574.28 71.88 568.09 69.56 562.05 67.35 556.13 65.1 550.37 62.92 544.71 60.83 539.14 57.63 531.02 51.48 515.13 48.52 507.28 45.52 499.52 39.83 483.85 37.17 475.88 34.54 467.86 29.82 451.36 27.77 442.85 26.44 437.14 25.26 431.31 24.24 425.36 23.23 419.41 22.38 413.35 21.71 407.16 21.06 400.97 20.59 394.66 20.3 388.23 20.05 381.81 20 375.34 20.13 368.85 20.32 362.36 20.69 355.85 21.27 349.32 21.89 342.8 22.72 336.27 23.74 329.74 24.82 323.22 26.09 316.72 27.56 310.23 29.08 303.77 30.8 297.34 32.71 290.96 34.66 284.6 36.79 278.31 39.1 272.08 41.44 265.91 43.94 259.81 46.59 253.82 49.25 247.88 52.04 242.06 54.96 236.37 57.86 230.75 60.87 225.28 63.96 219.96 68.58 212.2 78.04 197.69 82.84 190.98 87.55 184.59 96.99 172.9 101.72 167.56 106.35 162.46 115.7 153 120.46 148.54 125.19 144.07 135.03 135.15 140.18 130.57 145.43 125.68 156.59 115.21 162.53 109.55 166.58 105.52 170.78 101.39 175.12 97.15 179.52 92.72 184.07 88.22 188.77 83.67 193.54 78.99 198.45 74.32 203.51 69.69 208.63 65.04 213.89 60.5 219.27 56.13 224.73 51.84 230.3 47.8 235.99 44.04 241.74 40.48 247.58 37.27 253.52 34.44 259.52 31.89 265.59 29.76 271.74 28.06 277.93 26.66 284.18 25.68 290.47 25.11 296.81 24.79 303.18 24.82 309.57 25.18 316 25.66 322.44 26.38 328.88 27.28 335.35 28.15 341.81 29.09 348.26 30.06 354.72 30.83 361.15 31.54 367.55 32.13 373.96 32.42 380.32 32.55 386.64 32.5" stroke-dasharray="0 0" transform="rotate(0, 400, 400)" opacity="0.52"></path><path d="M381.17 43.28C387.22 42.89 393.16 42.35 398.98 41.68 407.64 40.25 424.35 37.09 432.38 35.64 440.29 34.41 455.52 33.55 462.86 34.14 470.12 35.51 484.26 40.79 491.2 44.66 495.86 47.63 500.5 50.96 505.11 54.59 509.82 58.4 514.54 62.46 519.28 66.72 524.16 71.04 529.09 75.5 534.11 80.04 539.29 84.53 544.58 89.05 550.01 93.55 555.63 97.92 561.42 102.22 567.39 106.45 573.58 110.48 579.98 114.42 586.58 118.24 593.41 121.85 600.47 125.36 607.74 128.78 615.22 131.99 622.91 135.13 630.79 138.21 638.84 141.13 647.04 144.03 655.37 146.92 663.78 149.71 672.25 152.54 680.73 155.43 689.18 158.26 697.56 161.19 705.79 164.24 713.85 167.28 721.67 170.47 729.16 173.81 736.33 177.19 743.06 180.75 749.29 184.48 755.04 188.28 760.17 192.27 764.64 196.45 770.07 202.94 776.08 216.94 776.56 224.44 775.97 229.57 774.59 234.85 772.46 240.27 769.82 245.77 766.53 251.38 762.66 257.11 758.49 262.9 753.91 268.79 749.01 274.75 744.12 280.77 739.13 286.85 734.15 292.99 729.51 299.16 725.11 305.38 721.06 311.63 717.66 317.91 714.82 324.2 712.62 330.51 711.3 336.83 710.75 343.16 711.02 349.48 712.28 355.81 714.38 362.12 717.31 368.42 721.17 374.72 725.77 380.99 731.03 387.23 736.98 393.47 743.32 399.6 749.91 405.61 756.8 411.63 763.67 417.53 770.37 423.32 776.97 429.11 783.14 434.79 788.75 440.36 793.9 445.93 798.29 451.4 801.83 456.76 805.58 464.79 806.89 480.45 804.39 488.13 801.55 493.27 797.78 498.38 793.14 503.45 787.79 508.6 781.71 513.74 774.97 518.89 767.74 524.14 760.02 529.43 751.93 534.77 743.59 540.24 735.04 545.8 726.38 551.44 717.72 557.24 709.1 563.16 700.6 569.2 692.31 575.41 684.25 581.77 676.48 588.26 669.07 594.92 662.01 601.71 655.34 608.64 649.11 615.69 643.28 622.84 637.85 630.07 632.89 637.36 628.31 644.68 624.1 651.97 620.32 659.24 616.86 666.41 613.68 673.43 610.86 680.29 608.27 686.91 605.86 693.23 602.71 702.06 597.1 716.91 594.43 722.66 584.28 730.92 571.51 728.79 566.86 726.28 561.86 723.81 550.54 719.89 544.23 719.02 537.58 719.57 523.12 724.69 515.34 729.38 510.04 733.43 504.57 738.01 498.92 743.06 493.24 748.59 487.41 754.37 481.43 760.28 475.43 766.28 469.29 772.12 463.03 777.64 456.75 782.8 450.36 787.36 443.86 791.17 437.35 794.25 430.74 796.37 424.03 797.44 417.32 797.59 410.59 796.64 403.86 794.66 397.12 791.84 390.39 788.12 383.65 783.63 376.91 778.62 370.17 773.09 363.43 767.2 356.7 761.21 349.97 755.15 343.25 749.17 336.53 743.49 329.82 738.14 323.12 733.21 316.43 728.89 309.74 725.14 303.07 721.98 296.41 719.57 289.77 717.78 283.16 716.57 276.55 716.06 269.98 716.05 263.44 716.45 256.92 717.36 250.44 718.52 244.02 719.83 237.63 721.37 231.29 722.88 225.03 724.24 218.81 725.56 212.67 726.57 206.63 727.2 197.7 727.47 180.52 724.71 172.31 721.53 166.97 718.74 161.78 715.35 156.76 711.39 151.82 707 147.06 702.09 142.47 696.73 137.98 691.01 133.68 684.92 129.55 678.5 125.53 671.85 121.69 664.98 118.03 657.92 114.46 650.77 111.06 643.51 107.85 636.21 104.7 628.91 101.71 621.62 98.89 614.38 96.1 607.21 93.46 600.13 90.95 593.16 88.46 586.3 86.08 579.57 83.82 572.97 81.53 566.51 79.35 560.17 77.25 553.95 75.1 547.88 73.03 541.91 71.03 536.04 68.97 530.29 66.97 524.62 65.03 519 62.03 510.75 56.23 494.5 53.44 486.42 50.61 478.39 45.32 462.18 42.89 453.95 40.52 445.68 36.4 428.72 34.69 420.02 33.61 414.2 32.69 408.27 31.94 402.25 31.21 396.23 30.67 390.11 30.31 383.9 30 377.69 29.88 371.46 29.97 365.22 30.1 358.98 30.44 352.73 30.98 346.49 31.59 340.25 32.39 334.02 33.4 327.81 34.48 321.61 35.75 315.44 37.23 309.31 38.76 303.2 40.49 297.14 42.41 291.14 44.38 285.17 46.53 279.27 48.85 273.46 51.2 267.7 53.72 262.03 56.38 256.47 59.05 250.97 61.85 245.59 64.77 240.35 69.18 232.66 78.38 218.16 83.13 211.38 87.82 204.88 97.29 192.87 102.04 187.34 106.67 182.03 115.93 172.17 120.57 167.55 125.12 162.96 134.36 153.98 139.1 149.46 143.85 144.72 153.76 134.74 158.98 129.41 164.31 123.67 175.66 111.4 181.69 104.89 185.8 100.36 190.04 95.79 194.43 91.2 198.87 86.52 203.45 81.88 208.16 77.31 212.93 72.75 217.84 68.34 222.87 64.12 227.95 60.01 233.16 56.17 238.48 52.62 243.86 49.29 249.34 46.31 254.91 43.72 260.53 41.4 266.24 39.49 272.02 38 277.85 36.79 283.74 35.99 289.68 35.57 295.66 35.37 301.68 35.51 307.74 35.95 313.82 36.49 319.93 37.25 326.05 38.17 332.19 39.04 338.34 39.97 344.48 40.92 350.63 41.68 356.77 42.36 362.89 42.94 369.01 43.21 375.1 43.33 381.16 43.28" stroke-dasharray="0 0" transform="rotate(2.657142857142857, 400, 400)" opacity="0.32"></path><path d="M376.67 54.05C385.34 53.41 402.2 51.09 410.38 49.61 418.46 47.95 434.12 45.21 441.73 44.39 449.26 44.09 463.98 45.6 471.21 47.53 480.95 51.19 490.59 56.44 500.24 63.07 510.26 70.45 520.5 78.76 531.08 87.67 542.27 96.53 554.03 105.48 566.43 114.29 579.6 122.45 593.52 130.24 608.17 137.65 623.47 144.26 639.32 150.59 655.52 156.77 671.81 162.4 687.92 168.16 703.42 174.16 718.05 180.01 731.29 186.36 742.63 193.28 752.05 200.34 758.9 208.08 762.84 216.49 764.38 225.17 762.95 234.5 758.68 244.42 752.7 254.59 744.74 265.26 735.43 276.34 730.81 281.95 726.14 287.64 721.53 293.39 717.27 299.19 713.27 305.04 709.63 310.94 706.61 316.86 704.13 322.83 702.26 328.82 701.22 334.82 700.91 340.85 701.35 346.89 702.71 352.93 704.85 358.98 707.76 365.03 711.52 371.08 715.96 377.12 721.02 383.15 726.72 389.18 732.77 395.12 739.05 400.97 745.63 406.83 752.19 412.59 758.61 418.26 764.95 423.94 770.91 429.53 776.36 435.04 781.42 440.56 785.78 446 789.38 451.37 793.36 459.42 795.62 475.29 793.81 483.16 788.44 493.8 779.67 504.43 768.03 515.16 754.38 526.27 739 537.66 722.61 549.4 705.97 561.68 689.45 574.41 673.58 587.6 658.83 601.25 645.32 615.23 633.22 629.35 622.75 643.48 613.67 657.3 605.81 670.44 599.38 682.75 593.78 693.71 588.73 702.93 582.49 713.21 569.92 720.11 562.5 717.63 557.28 715.05 551.22 712.05 544.3 709.36 537.18 708.32 529.18 708.9 520.33 711.58 515.83 713.98 511.13 716.96 506.24 720.5 501.31 724.69 496.19 729.34 490.9 734.4 485.58 739.86 480.09 745.51 474.45 751.25 468.79 757.03 462.98 762.63 457.03 767.89 451.06 772.81 444.97 777.13 438.75 780.73 432.53 783.64 426.19 785.65 419.73 786.67 413.28 786.82 406.79 785.95 400.28 784.09 393.77 781.45 387.24 777.96 380.7 773.73 374.16 768.98 367.61 763.72 361.06 758.1 354.51 752.33 347.95 746.47 341.4 740.62 334.85 735.03 328.3 729.69 321.77 724.7 315.24 720.25 308.72 716.3 302.22 712.88 289.27 708.11 276.41 705.56 263.7 704.94 251.1 706.38 238.72 708.63 226.63 711.01 214.75 713.53 203.24 714.88 192.19 714.59 181.46 712.95 171.28 709.11 161.72 703.09 152.54 695.41 144.03 685.8 136.24 674.61 128.81 662.36 122.06 649.14 116.01 635.33 110.18 621.28 104.93 607.13 100.23 593.14 95.52 579.43 91.22 566.08 87.28 553.14 83.12 540.65 79.21 528.53 75.54 516.74 71.53 505.32 67.73 494.08 64.18 482.92 61.38 474.68 56.06 458.19 53.6 449.89 51.18 441.59 46.91 424.74 45.1 416.16 43.96 410.43 42.97 404.63 42.15 398.75 41.36 392.88 40.75 386.94 40.32 380.93 39.95 374.92 39.78 368.91 39.81 362.91 39.9 356.92 40.2 350.94 40.7 344.98 41.28 339.02 42.06 333.1 43.05 327.21 44.12 321.33 45.39 315.5 46.86 309.72 48.39 303.96 50.13 298.27 52.05 292.65 54.02 287.07 56.18 281.57 58.5 276.16 63.26 265.47 68.61 255.23 74.46 245.53 80.25 236.04 86.4 227.14 92.82 218.89 98.97 210.83 105.28 203.39 111.72 196.56 117.76 189.76 123.9 183.42 130.13 177.44 136.01 171.19 142.05 165.06 148.3 158.9 154.33 152.12 160.68 145.09 167.39 137.73 174.05 129.59 181.18 121.09 188.79 112.33 196.5 103.05 204.75 93.8 213.5 84.85 222.43 76.07 231.87 68.11 241.76 61.28 251.84 55.33 262.33 50.88 273.14 48.04 281.37 46.69 298.2 46.14 306.77 46.77 312.51 47.36 318.29 48.14 324.1 49.07 329.92 49.95 335.75 50.87 341.6 51.8 347.45 52.53 353.31 53.19 359.15 53.74 365.01 54 370.84 54.11 376.66 54.05" stroke-dasharray="0 0" transform="rotate(5.314285714285714, 400, 400)" opacity="0.84"></path><path d="M373.37 64.82C381.73 64.19 398.08 61.93 406.06 60.48 416.66 58.15 426.98 56.26 437.03 55.13 447.15 54.5 457.09 55.22 466.91 57.41 476.91 60.65 486.94 65.44 497.07 71.61 507.58 78.58 518.38 86.54 529.58 95.2 541.34 103.94 553.64 112.89 566.56 121.82 580.11 130.21 594.29 138.32 609.04 146.08 624.23 153.09 639.77 159.79 655.42 166.28 670.94 172.17 686.05 178.07 700.33 184.09 713.6 189.86 725.36 195.98 735.15 202.55 743.07 209.15 748.49 216.33 751.17 224.11 751.68 232.06 749.49 240.63 744.77 249.78 738.64 259.12 730.84 268.98 721.97 279.28 713.49 289.72 705.35 300.54 698.32 311.62 693.69 322.79 691.35 334.17 691.71 345.68 693.16 351.44 695.34 357.23 698.21 363.04 701.87 368.85 706.16 374.67 711.01 380.5 716.45 386.33 722.23 392.1 728.21 397.8 734.48 403.51 740.74 409.16 746.87 414.74 758.9 425.91 769.14 436.88 776.89 447.65 782.35 458.5 784.41 469.26 782.99 479.98 778.67 490.91 771.09 501.93 760.7 513.12 748.29 524.66 734.04 536.5 718.6 548.68 702.68 561.29 686.62 574.27 670.91 587.57 656.02 601.14 642.12 614.83 629.39 628.45 618.08 641.83 608.04 654.68 599.16 666.63 591.63 677.61 584.99 687.13 578.99 694.85 571.48 703.08 557.4 707.24 549.77 704.41 544.58 702.04 538.72 699.53 532.11 697.55 525.39 697.32 517.87 698.71 509.57 702.12 501.12 708.13 491.91 716.14 481.99 725.75 471.96 736.74 461.28 747.86 450 758.12 444.34 762.78 438.54 766.88 432.6 770.28 426.67 773.03 420.6 774.92 414.41 775.89 408.22 776.05 401.99 775.25 395.72 773.52 389.46 771.05 383.17 767.78 376.85 763.79 364.23 754.43 351.54 743.52 338.82 732.08 326.16 721.39 313.49 711.83 300.89 703.98 288.38 698.57 275.96 695.24 263.72 693.77 251.63 694.38 239.76 695.96 228.22 697.9 216.91 700.27 205.99 701.81 195.56 702.06 185.44 701.27 175.88 698.56 166.94 693.84 158.36 687.62 150.44 679.49 143.21 669.73 136.3 658.84 130.04 646.8 124.43 633.97 118.99 620.69 114.1 607.09 109.7 593.42 105.26 579.85 101.19 566.47 97.44 553.38 93.44 540.62 89.66 528.18 86.09 516.05 82.17 504.24 78.43 492.65 74.9 481.22 71.05 470 67.48 458.82 64.25 447.63 60.85 436.53 57.9 425.33 55.48 414 53.76 405.5 51.16 388.28 50.33 379.57 49.79 370.85 49.83 353.56 50.42 345.01 51.59 333.65 53.61 322.5 56.45 311.61 59.58 300.79 63.47 290.31 68.07 280.23 72.83 270.28 78.18 260.79 84.02 251.84 89.82 243.05 95.97 234.82 102.4 227.17 108.56 219.62 114.89 212.6 121.32 206.08 127.37 199.48 133.51 193.21 139.72 187.18 145.55 180.78 151.52 174.39 157.65 167.9 163.52 160.76 169.67 153.34 176.11 145.59 182.46 137.14 189.22 128.4 196.4 119.48 203.63 110.2 211.35 101.06 219.53 92.34 227.85 83.92 236.65 76.39 245.89 70.03 255.27 64.58 265.07 60.6 275.21 58.17 285.48 56.7 296.04 56.59 306.82 57.63 317.68 58.91 328.7 60.71 339.82 62.68 348.19 63.7 364.97 64.84 373.36 64.82" stroke-dasharray="0 0" transform="rotate(7.9714285714285715, 400, 400)" opacity="0.39"></path><path d="M371.46 75.6C382.26 74.57 392.86 73.09 403.26 71.36 413.67 69.06 423.9 67.15 433.98 65.92 444.14 65.11 454.24 65.56 464.31 67.4 474.58 70.22 484.97 74.54 495.55 80.23 506.48 86.75 517.76 94.31 529.45 102.66 541.62 111.21 554.31 120.08 567.54 129.05 581.25 137.61 595.48 145.97 610.1 154.05 624.97 161.44 639.99 168.52 654.89 175.35 669.47 181.58 683.45 187.71 696.42 193.87 708.3 199.69 718.57 205.74 726.87 212.11 733.36 218.41 737.46 225.19 739.01 232.47 738.61 239.85 735.8 247.78 730.75 256.25 724.58 264.86 717.03 273.99 708.64 283.58 700.8 293.28 693.41 303.38 687.13 313.81 683.18 324.3 681.39 335.07 682.1 346.04 685.94 357.03 692.33 368.2 701 379.49 711.87 390.78 723.54 401.94 735.18 412.94 746.72 423.97 756.66 434.89 764.37 445.73 770.04 456.66 772.6 467.59 771.93 478.57 768.59 489.74 762.15 501.07 752.97 512.61 741.8 524.45 728.71 536.57 714.29 548.99 699.2 561.71 683.73 574.68 668.35 587.83 653.52 601.05 639.42 614.21 626.26 627.06 614.3 639.51 603.45 651.21 593.68 661.86 585.16 671.46 577.52 679.54 570.59 685.85 561.75 692.21 545.85 694.19 537.79 691.27 532.47 689.23 526.62 687.3 520.16 686.07 513.67 686.63 506.49 688.8 498.6 692.87 490.61 699.32 481.92 707.55 472.54 717.14 463.07 727.86 452.96 738.56 442.25 748.32 431.49 756.73 420.18 762.55 408.34 765.12 396.51 764.69 384.48 760.77 372.33 753.83 360.21 744.99 348 734.59 335.75 723.53 323.57 713.03 311.39 703.41 299.28 695.26 287.27 689.29 275.38 685.24 263.69 682.96 252.16 682.72 240.88 683.58 229.95 684.98 219.26 687.05 208.98 688.61 199.19 689.2 189.72 689.06 180.8 687.27 172.49 683.71 164.53 678.82 157.19 672.12 150.51 663.78 144.11 654.29 138.31 643.55 133.12 631.85 128.06 619.55 123.49 606.73 119.37 593.65 115.17 580.49 111.29 567.34 107.7 554.34 103.84 541.53 100.17 528.97 96.67 516.67 92.81 504.62 89.11 492.8 85.58 481.18 81.74 469.74 78.14 458.41 74.85 447.16 71.39 436 68.36 424.83 65.83 413.64 63.34 402.47 61.48 391.23 60.34 379.93 59.44 368.63 59.38 357.54 60.15 346.68 61.26 335.83 63.22 325.26 66.01 315.01 69.1 304.81 72.97 294.99 77.54 285.6 82.29 276.29 87.63 267.46 93.45 259.15 99.26 250.92 105.41 243.2 111.84 236 118.02 228.81 124.37 222.05 130.82 215.68 136.9 209.13 143.05 202.81 149.27 196.6 155.1 189.97 161.03 183.26 167.09 176.38 172.87 168.87 178.86 161.07 185.11 152.98 191.21 144.28 197.66 135.37 204.49 126.4 211.31 117.19 218.56 108.25 226.25 99.83 234.01 91.81 242.24 84.75 250.88 78.89 259.63 73.94 268.79 70.43 278.31 68.4 287.92 67.25 297.85 67.36 308.02 68.52 318.26 69.87 328.71 71.65 339.3 73.56 349.92 74.7 360.65 75.43 371.45 75.6" stroke-dasharray="0 0" transform="rotate(10.628571428571428, 400, 400)" opacity="0.08"></path><path d="M371.03 86.37C381.48 85.37 391.83 83.94 402.06 82.25 412.31 79.99 422.49 78.06 432.62 76.75 442.83 75.79 453.08 75.98 463.39 77.48 473.9 79.89 484.6 83.74 495.54 88.95 506.8 94.99 518.42 102.12 530.45 110.1 542.88 118.38 555.77 127.1 569.1 136.02 582.79 144.66 596.83 153.2 611.11 161.54 625.46 169.27 639.76 176.72 653.75 183.92 667.27 190.51 680.02 196.95 691.64 203.34 702.1 209.32 710.92 215.43 717.78 221.75 722.94 227.91 725.85 234.44 726.39 241.38 725.24 248.33 721.93 255.77 716.68 263.7 710.57 271.7 703.32 280.21 695.47 289.16 688.27 298.2 681.61 307.66 676.08 317.49 672.77 327.36 671.48 337.57 672.51 348.04 676.42 358.53 682.67 369.26 690.99 380.21 701.35 391.17 712.44 402.08 723.51 412.94 734.57 423.82 744.2 434.7 751.82 445.59 757.64 456.56 760.63 467.61 760.65 478.78 758.21 490.11 752.84 501.64 744.84 513.38 734.88 525.34 722.98 537.55 709.63 549.97 695.46 562.56 680.71 575.29 665.81 588.01 651.22 600.65 637.1 613.04 623.71 624.93 611.29 636.28 599.81 646.74 589.3 656.02 579.91 664.25 571.37 670.95 563.55 675.94 556.64 679.67 550.17 681.7 543.97 682.11 538.32 681.75 532.66 680.33 526.82 678.27 521.22 676.67 515.24 675.38 508.79 674.92 502.38 676.26 495.39 679.16 487.78 683.82 480.13 690.65 471.83 699.02 462.91 708.53 453.92 718.95 444.31 729.22 434.13 738.5 423.9 746.44 413.13 751.92 401.84 754.35 390.56 753.98 379.07 750.33 367.44 743.83 355.85 735.51 344.16 725.61 332.44 714.97 320.8 704.7 309.16 695.09 297.61 686.71 286.17 680.27 274.87 675.55 263.78 672.51 252.87 671.45 242.23 671.54 231.95 672.33 221.92 673.98 212.31 675.39 203.2 676.12 194.39 676.42 186.11 675.37 178.44 672.78 171.07 669.06 164.3 663.67 158.16 656.7 152.24 648.62 146.89 639.22 142.09 628.76 137.37 617.6 133.09 605.76 129.22 593.47 125.23 580.95 121.52 568.28 118.06 555.61 114.31 543.01 110.71 530.53 107.27 518.26 103.45 506.15 99.76 494.25 96.23 482.56 92.37 471.01 88.74 459.61 85.39 448.35 81.88 437.17 78.76 426.05 76.14 415 73.56 403.98 71.6 392.97 70.35 381.99 69.36 371.01 69.2 360.32 69.89 349.93 70.92 339.55 72.82 329.5 75.54 319.82 78.59 310.17 82.41 300.92 86.93 292.11 91.65 283.35 96.95 275.04 102.75 267.22 108.55 259.42 114.7 252.07 121.12 245.15 127.33 238.17 133.7 231.52 140.18 225.15 146.31 218.53 152.5 212.03 158.74 205.56 164.6 198.62 170.53 191.56 176.57 184.29 182.29 176.42 188.19 168.29 194.3 159.92 200.22 151.04 206.44 142.06 212.98 133.11 219.46 124.06 226.33 115.4 233.6 107.35 240.89 99.78 248.61 93.22 256.73 87.88 264.92 83.44 273.5 80.38 282.45 78.73 291.46 77.88 300.8 78.19 310.43 79.46 320.1 80.84 330.02 82.6 340.13 84.46 350.26 85.54 360.57 86.22 371.02 86.37" stroke-dasharray="0 0" transform="rotate(13.285714285714285, 400, 400)" opacity="0.72"></path><path d="M372.1 97.14C382.24 96.17 392.36 94.78 402.46 93.15 412.58 90.93 422.72 89.01 432.89 87.63 443.14 86.53 453.51 86.49 464.01 87.67 474.7 89.68 485.63 93.07 496.83 97.78 508.3 103.33 520.14 109.98 532.34 117.54 544.85 125.49 557.75 133.97 570.98 142.76 584.43 151.4 598.1 160.04 611.83 168.56 625.48 176.58 638.91 184.36 651.86 191.9 664.22 198.87 675.68 205.66 685.92 212.33 694.99 218.57 702.4 224.84 707.92 231.24 711.86 237.4 713.7 243.83 713.38 250.58 711.61 257.26 707.93 264.35 702.59 271.88 696.62 279.42 689.75 287.42 682.45 295.86 675.91 304.34 669.98 313.26 665.16 322.56 662.45 331.89 661.63 341.58 662.94 351.61 666.91 361.64 673.01 371.98 680.98 382.61 690.84 393.24 701.36 403.92 711.88 414.63 722.45 425.36 731.75 436.17 739.25 447.06 745.18 458.02 748.53 469.11 749.16 480.35 747.55 491.73 743.18 503.29 736.3 515.05 727.53 526.95 716.81 539.03 704.57 551.22 691.4 563.46 677.46 575.7 663.19 587.77 648.99 599.62 635.05 611.06 621.61 621.85 608.92 631.99 597 641.15 585.91 649.07 575.8 655.97 566.48 661.39 557.87 665.22 550.11 667.97 542.85 669.24 535.93 669.15 529.6 668.57 523.36 667.22 517.08 665.49 511.1 664.41 504.88 663.81 498.32 664.12 491.85 666.2 484.92 669.77 477.48 674.95 470.04 682.09 462.04 690.55 453.48 699.92 444.87 710.03 435.71 719.85 426 728.64 416.25 736.14 405.99 741.29 395.25 743.57 384.5 743.26 373.55 739.88 362.48 733.81 351.44 725.99 340.32 716.6 329.17 706.39 318.1 696.39 307.06 686.86 296.11 678.31 285.29 671.48 274.63 666.18 264.19 662.43 253.94 660.57 243.97 659.88 234.38 660.01 225.03 661.13 216.1 662.24 207.67 662.95 199.52 663.5 191.89 662.96 184.84 661.14 178.05 658.43 171.83 654.2 166.19 648.49 160.72 641.76 155.78 633.71 151.34 624.53 146.92 614.61 142.9 603.88 139.24 592.56 135.43 580.89 131.85 568.91 128.49 556.79 124.82 544.61 121.28 532.45 117.86 520.4 114.06 508.44 110.37 496.62 106.82 485 102.95 473.47 99.28 462.11 95.88 450.91 92.31 439.78 89.12 428.77 86.42 417.88 83.75 407.02 81.71 396.24 80.36 385.57 79.28 374.9 79.03 364.57 79.63 354.6 80.58 344.63 82.4 335.04 85.04 325.83 88.03 316.64 91.78 307.86 96.24 299.51 100.91 291.17 106.16 283.26 111.92 275.78 117.69 268.26 123.83 261.13 130.24 254.35 136.47 247.43 142.87 240.76 149.37 234.27 155.56 227.47 161.8 220.72 168.08 213.92 173.99 206.65 179.97 199.22 186.01 191.58 191.73 183.4 197.59 175 203.61 166.43 209.42 157.46 215.47 148.49 221.8 139.67 228.02 130.87 234.59 122.55 241.51 114.93 248.41 107.86 255.7 101.83 263.38 97.01 271.07 93.07 279.16 90.45 287.61 89.16 296.08 88.59 304.91 89.08 314.04 90.44 323.2 91.84 332.64 93.57 342.33 95.35 352.02 96.38 361.95 97.01 372.09 97.15" stroke-dasharray="0 0" transform="rotate(15.942857142857143, 400, 400)" opacity="0.29"></path><path d="M374.62 107.92C384.49 106.98 394.41 105.63 404.38 104.05 414.37 101.89 424.46 99.98 434.65 98.55 444.93 97.33 455.37 97.08 465.99 97.96 476.79 99.59 487.84 102.53 499.17 106.75 510.73 111.78 522.62 117.93 534.82 125.03 547.24 132.58 559.96 140.75 572.9 149.32 585.93 157.86 599.03 166.51 612.04 175.13 624.84 183.36 637.27 191.42 649.08 199.26 660.23 206.59 670.37 213.73 679.24 220.73 686.96 227.27 693.05 233.8 697.32 240.36 700.17 246.64 701.08 253.09 700.04 259.79 697.78 266.35 693.86 273.24 688.52 280.5 682.77 287.72 676.32 295.35 669.61 303.4 663.73 311.45 658.5 319.91 654.36 328.78 652.22 337.65 651.84 346.91 653.4 356.53 657.41 366.16 663.34 376.14 670.97 386.47 680.34 396.8 690.31 407.24 700.29 417.78 710.37 428.34 719.32 439.03 726.67 449.84 732.66 460.71 736.31 471.74 737.47 482.92 736.61 494.19 733.18 505.63 727.36 517.21 719.74 528.86 710.18 540.6 699.06 552.34 686.94 564.02 673.91 575.56 660.37 586.79 646.72 597.7 633.11 608.05 619.81 617.63 607.04 626.54 594.87 634.39 583.39 641 572.72 646.67 562.76 650.95 553.47 653.78 544.96 655.75 536.96 656.46 529.37 656.07 522.35 655.44 515.52 654.29 508.76 653 502.33 652.5 495.77 652.61 489.01 653.68 482.38 656.45 475.41 660.63 468.04 666.26 460.7 673.63 452.89 682.11 444.61 691.32 436.31 701.07 427.5 710.45 418.22 718.76 408.91 725.82 399.12 730.65 388.9 732.8 378.67 732.55 368.26 729.42 357.75 723.75 347.28 716.43 336.74 707.55 326.2 697.79 315.73 688.09 305.31 678.69 295.01 670.06 284.84 662.91 274.84 657.11 265.08 652.72 255.51 650.1 246.24 648.64 237.35 648.07 228.68 648.58 220.44 649.29 212.68 649.82 205.17 650.42 198.17 650.21 191.71 648.96 185.47 647.04 179.76 643.8 174.59 639.21 169.54 633.73 164.97 626.96 160.84 619.06 156.69 610.41 152.89 600.87 149.41 590.64 145.73 579.97 142.26 568.85 138.97 557.47 135.35 545.93 131.84 534.28 128.43 522.65 124.63 511.02 120.93 499.47 117.36 488.06 113.46 476.71 109.75 465.51 106.3 454.47 102.68 443.48 99.44 432.64 96.66 421.95 93.93 411.28 91.81 400.75 90.38 390.37 89.21 379.99 88.88 369.99 89.38 360.38 90.25 350.77 91.98 341.55 94.52 332.74 97.43 323.91 101.1 315.49 105.47 307.48 110.07 299.44 115.26 291.78 120.95 284.51 126.68 277.14 132.79 270.09 139.18 263.31 145.42 256.34 151.83 249.53 158.37 242.83 164.61 235.79 170.91 228.73 177.25 221.59 183.23 213.99 189.26 206.21 195.35 198.25 201.1 189.82 206.96 181.23 212.96 172.55 218.7 163.59 224.66 154.74 230.85 146.13 236.88 137.66 243.22 129.75 249.88 122.62 256.47 116.08 263.42 110.59 270.72 106.3 278.01 102.84 285.67 100.65 293.7 99.7 301.72 99.38 310.1 100.02 318.8 101.45 327.51 102.86 336.53 104.54 345.84 106.25 355.15 107.22 364.74 107.81 374.61 107.92" stroke-dasharray="0 0" transform="rotate(18.6, 400, 400)" opacity="0.07"></path><path d="M378.45 118.69C388.07 117.78 397.81 116.49 407.65 114.96 417.52 112.87 427.54 110.98 437.7 109.51 447.95 108.2 458.4 107.76 469.06 108.35 479.87 109.63 490.93 112.14 502.26 115.86 513.76 120.37 525.55 126 537.57 132.59 549.74 139.7 562.1 147.49 574.56 155.76 587 164.12 599.38 172.68 611.53 181.31 623.37 189.66 634.71 197.9 645.32 205.99 655.22 213.64 664.05 221.11 671.59 228.43 678.02 235.31 682.89 242.12 686.04 248.93 687.92 255.41 688.04 262 686.42 268.75 683.79 275.31 679.74 282.13 674.51 289.26 669.05 296.29 663.06 303.69 656.95 311.45 651.73 319.18 647.17 327.31 643.68 335.82 642.08 344.33 642.09 353.22 643.87 362.5 647.9 371.78 653.67 381.43 660.96 391.47 669.85 401.51 679.28 411.7 688.73 422.03 698.32 432.38 706.92 442.88 714.09 453.52 720.08 464.2 723.97 475.05 725.6 486.02 725.41 497.05 722.83 508.19 718.01 519.41 711.49 530.62 703.07 541.82 693.08 552.92 682.04 563.86 669.99 574.54 657.28 584.79 644.3 594.64 631.18 603.83 618.18 612.18 605.52 619.85 593.28 626.46 581.58 631.86 570.53 636.42 560.1 639.72 550.27 641.75 541.12 643.12 532.48 643.46 524.27 642.95 516.61 642.43 509.2 641.61 501.94 640.85 495.03 640.98 488.1 641.8 481.07 643.6 474.21 647.02 467.11 651.73 459.73 657.74 452.4 665.27 444.71 673.72 436.63 682.71 428.55 692.09 420.05 701.01 411.13 708.86 402.2 715.48 392.86 720.01 383.12 722.02 373.39 721.82 363.52 718.94 353.57 713.67 343.66 706.82 333.71 698.45 323.79 689.16 313.94 679.8 304.16 670.57 294.52 661.94 285.01 654.55 275.69 648.33 266.63 643.36 257.74 640.04 249.16 637.84 240.97 636.55 232.97 636.41 225.4 636.61 218.3 636.82 211.4 637.31 204.99 637.23 199.09 636.35 193.37 635.03 188.13 632.58 183.38 628.95 178.7 624.57 174.44 618.98 170.59 612.3 166.67 604.9 163.05 596.57 159.7 587.48 156.13 577.91 152.73 567.79 149.48 557.28 145.89 546.54 142.38 535.59 138.96 524.54 135.16 513.43 131.43 502.32 127.82 491.28 123.9 480.25 120.15 469.33 116.65 458.56 113 447.81 109.71 437.21 106.87 426.77 104.09 416.35 101.9 406.08 100.39 395.98 99.15 385.88 98.73 376.19 99.14 366.89 99.92 357.58 101.55 348.67 103.99 340.15 106.8 331.6 110.37 323.44 114.63 315.64 119.14 307.79 124.25 300.28 129.85 293.08 135.52 285.75 141.58 278.67 147.93 271.78 154.17 264.67 160.59 257.66 167.14 250.68 173.43 243.36 179.79 235.98 186.2 228.5 192.26 220.59 198.37 212.53 204.52 204.31 210.34 195.72 216.24 187.04 222.25 178.35 227.99 169.51 233.9 160.85 240.01 152.56 245.93 144.49 252.12 137.05 258.58 130.44 264.95 124.45 271.63 119.52 278.65 115.75 285.61 112.77 292.93 110.98 300.6 110.34 308.25 110.24 316.25 111.02 324.58 112.49 332.91 113.89 341.57 115.52 350.55 117.16 359.52 118.06 368.82 118.6 378.44 118.69" stroke-dasharray="0 0" transform="rotate(21.257142857142856, 400, 400)" opacity="0.67"></path><path d="M383.41 129.47C392.8 128.59 402.35 127.35 412.05 125.88 421.78 123.86 431.69 122 441.78 120.52 451.94 119.12 462.32 118.52 472.92 118.86 483.63 119.8 494.59 121.89 505.77 125.14 517.08 129.13 528.6 134.22 540.29 140.28 552.04 146.89 563.88 154.24 575.7 162.14 587.42 170.23 598.95 178.61 610.13 187.14 620.93 195.5 631.12 203.85 640.5 212.11 649.15 220 656.71 227.75 662.98 235.36 668.22 242.57 671.97 249.69 674.13 256.76 675.18 263.5 674.64 270.29 672.57 277.18 669.71 283.85 665.63 290.71 660.58 297.8 655.47 304.77 649.98 312.04 644.49 319.63 639.91 327.16 636.01 335.05 633.13 343.3 632.02 351.52 632.39 360.13 634.37 369.11 638.4 378.08 643.99 387.44 650.95 397.19 659.37 406.95 668.28 416.87 677.2 426.94 686.31 437.02 694.54 447.26 701.5 457.64 707.46 468.04 711.53 478.57 713.56 489.19 713.96 499.82 712.17 510.51 708.27 521.19 702.79 531.8 695.47 542.31 686.6 552.61 676.65 562.68 665.62 572.38 653.82 581.56 641.62 590.3 629.12 598.31 616.56 605.45 604.18 611.94 592.05 617.4 580.31 621.73 569.08 625.35 558.33 627.86 548.11 629.27 538.48 630.24 529.32 630.39 520.58 629.94 512.35 629.65 504.41 629.27 496.68 629.08 489.3 629.87 481.98 631.39 474.65 633.88 467.51 637.88 460.25 643.05 452.79 649.36 445.41 656.98 437.77 665.35 429.83 674.08 421.9 683.08 413.64 691.54 405.04 698.92 396.44 705.13 387.49 709.37 378.22 711.25 368.95 711.1 359.59 708.44 350.2 703.56 340.84 697.18 331.47 689.31 322.17 680.49 312.93 671.51 303.8 662.5 294.83 653.92 285.97 646.38 277.33 639.82 268.96 634.36 260.74 630.39 252.84 627.49 245.32 625.5 237.98 624.66 231.04 624.29 224.55 624.08 215.3 624.25 199.31 621.63 192.52 617.84 188.17 614.39 184.18 609.84 180.55 604.26 176.81 598.05 173.33 590.9 170.08 582.95 166.59 574.52 163.23 565.46 159.99 555.93 156.41 546.11 152.89 535.98 149.43 525.65 145.61 515.21 141.86 504.68 138.21 494.15 134.26 483.59 130.48 473.08 126.94 462.67 123.26 452.27 119.93 441.98 117.04 431.85 114.22 421.72 111.97 411.74 110.4 401.93 109.09 392.12 108.59 382.7 108.91 373.67 109.6 364.62 111.13 355.95 113.45 347.64 116.15 339.3 119.6 331.29 123.73 323.62 128.13 315.86 133.13 308.38 138.62 301.16 144.22 293.78 150.2 286.59 156.5 279.52 162.71 272.21 169.12 264.95 175.68 257.68 182.01 250.08 188.42 242.4 194.88 234.62 201.04 226.46 207.23 218.19 213.45 209.81 219.36 201.15 225.33 192.48 231.38 183.89 237.16 175.26 243.08 166.92 249.16 159.01 255.04 151.4 261.14 144.5 267.48 138.44 273.69 133.02 280.19 128.64 286.99 125.38 293.71 122.85 300.77 121.43 308.16 121.07 315.5 121.18 323.19 122.07 331.22 123.56 339.23 124.94 347.58 126.51 356.28 128.06 364.97 128.9 374 129.39 383.4 129.47" stroke-dasharray="0 0" transform="rotate(23.91428571428571, 400, 400)" opacity="0.13"></path><path d="M389.22 140.24C398.4 139.39 407.76 138.21 417.29 136.81 426.85 134.86 436.61 133.04 446.56 131.55 456.57 130.1 466.8 129.36 477.23 129.47 487.74 130.11 498.47 131.81 509.37 134.59 520.34 138.07 531.46 142.62 542.67 148.13 553.86 154.21 565.04 161.06 576.1 168.53 586.97 176.25 597.56 184.35 607.7 192.69 617.4 200.97 626.42 209.32 634.58 217.64 642.02 225.69 648.36 233.64 653.46 241.49 657.61 248.98 660.37 256.39 661.66 263.72 662.01 270.75 660.96 277.78 658.58 284.85 655.58 291.69 651.58 298.67 646.79 305.81 642.06 312.81 637.1 320.05 632.22 327.55 628.27 334.97 625 342.71 622.7 350.77 622.04 358.79 622.74 367.16 624.89 375.89 628.9 384.6 634.31 393.69 640.94 403.15 648.9 412.61 657.3 422.24 665.72 432 674.34 441.77 682.2 451.67 688.92 461.68 694.81 471.7 699.01 481.8 701.36 491.94 702.28 502.05 701.19 512.15 698.15 522.15 693.64 532.03 687.38 541.72 679.59 551.1 670.74 560.22 660.75 568.88 649.91 576.96 638.58 584.58 626.81 591.46 614.83 597.46 602.89 602.88 591.04 607.33 579.43 610.74 568.18 613.6 557.3 615.5 546.86 616.51 536.89 617.25 527.34 617.39 518.2 617.13 509.5 617.19 501.1 617.31 492.96 617.75 485.14 619.19 477.46 621.39 469.83 624.51 462.41 629.02 454.94 634.58 447.38 641.11 439.91 648.76 432.27 656.99 424.42 665.44 416.6 674.03 408.53 682.04 400.21 688.96 391.88 694.77 383.29 698.72 374.45 700.48 365.61 700.37 356.74 697.94 347.88 693.42 339.04 687.49 330.25 680.12 321.55 671.78 312.91 663.19 304.4 654.46 296.09 645.99 287.87 638.38 279.88 631.56 272.17 625.69 264.6 621.16 257.35 617.61 250.47 614.94 243.73 613.41 237.38 612.41 231.46 611.7 222.99 611.39 208.29 609.07 202 606.06 197.91 603.34 194.15 599.66 190.69 595.05 187.1 589.89 183.71 583.84 180.52 576.99 177.07 569.68 173.72 561.7 170.47 553.17 166.88 544.35 163.33 535.13 159.84 525.63 155.99 515.97 152.2 506.13 148.51 496.22 144.54 486.25 140.74 476.25 137.17 466.3 133.47 456.34 130.11 446.45 127.19 436.67 124.33 426.89 122.04 417.23 120.41 407.72 119.04 398.2 118.47 389.04 118.69 380.24 119.29 371.42 120.7 362.93 122.9 354.77 125.47 346.57 128.79 338.66 132.78 331.02 137.05 323.29 141.91 315.78 147.28 308.46 152.77 300.98 158.66 293.61 164.87 286.33 171.03 278.81 177.42 271.3 183.96 263.75 190.32 255.9 196.77 247.97 203.27 239.96 209.51 231.64 215.78 223.25 222.08 214.81 228.09 206.2 234.15 197.65 240.27 189.27 246.12 180.95 252.09 172.99 258.18 165.54 264.07 158.47 270.13 152.12 276.41 146.64 282.54 141.8 288.92 137.96 295.57 135.19 302.12 133.1 308.98 132.02 316.15 131.91 323.27 132.19 330.71 133.16 338.5 134.66 346.25 136.01 354.34 137.5 362.8 138.97 371.23 139.74 380.03 140.19 389.21 140.24" stroke-dasharray="0 0" transform="rotate(26.57142857142857, 400, 400)" opacity="0.38"></path><path d="M395.59 151.01C404.55 150.2 413.71 149.07 423.04 147.74 432.4 145.87 441.96 144.11 451.7 142.63 461.49 141.14 471.47 140.28 481.63 140.19 491.84 140.54 502.22 141.88 512.71 144.22 523.23 147.21 533.82 151.22 544.4 156.17 554.92 161.69 565.33 168 575.53 174.97 585.49 182.26 595.06 190 604.11 198.06 612.7 206.14 620.57 214.38 627.54 222.66 633.83 230.77 639.04 238.83 643.06 246.83 646.24 254.54 648.14 262.18 648.72 269.75 648.51 277.03 647.07 284.3 644.49 291.57 641.47 298.62 637.61 305.75 633.14 312.99 628.85 320.08 624.43 327.35 620.16 334.83 616.82 342.22 614.15 349.87 612.38 357.79 612.14 365.67 613.13 373.86 615.42 382.37 619.4 390.85 624.62 399.68 630.93 408.84 638.45 418.01 646.35 427.3 654.27 436.7 662.41 446.1 669.88 455.6 676.36 465.16 682.13 474.7 686.41 484.28 689.03 493.82 690.39 503.3 689.92 512.7 687.65 521.92 684.05 530.99 678.79 539.78 672.04 548.19 664.26 556.32 655.33 563.94 645.49 570.93 635.08 577.5 624.13 583.32 612.85 588.29 601.47 592.78 590.05 596.37 578.74 599.07 567.65 601.35 556.81 602.84 546.3 603.62 536.17 604.31 526.39 604.59 516.97 604.64 507.92 605.13 499.18 605.81 490.7 606.89 482.52 608.97 474.51 611.79 466.62 615.49 458.94 620.44 451.27 626.3 443.59 632.98 436.01 640.6 428.34 648.64 420.56 656.77 412.81 664.95 404.89 672.49 396.81 678.97 388.73 684.38 380.46 688.06 372.01 689.7 363.56 689.63 355.14 687.41 346.78 683.24 338.44 677.76 330.19 670.88 322.07 663.02 314 654.85 306.09 646.44 298.4 638.14 290.78 630.52 283.41 623.53 276.34 617.34 269.36 612.32 262.71 608.19 256.42 604.88 247.33 601.85 231.23 598.84 224.23 597.68 217.64 596.32 206.1 590.11 200.97 584.8 197.47 580.55 194.15 575.47 190.98 569.62 187.54 563.36 184.18 556.42 180.9 548.9 177.28 541.08 173.69 532.81 170.15 524.18 166.27 515.37 162.45 506.31 158.73 497.1 154.74 487.8 150.92 478.41 147.32 468.99 143.61 459.55 140.24 450.12 137.29 440.74 134.43 431.37 132.1 422.06 130.42 412.85 129 403.64 128.36 394.74 128.48 386.14 128.99 377.53 130.28 369.2 132.35 361.14 134.78 353.04 137.95 345.17 141.78 337.51 145.9 329.77 150.61 322.18 155.83 314.73 161.19 307.12 166.96 299.58 173.06 292.08 179.15 284.37 185.48 276.63 191.98 268.85 198.33 260.82 204.8 252.72 211.34 244.57 217.63 236.19 223.98 227.79 230.36 219.42 236.46 210.96 242.62 202.64 248.82 194.57 254.76 186.65 260.8 179.16 266.94 172.24 272.87 165.72 278.95 159.97 285.21 155.08 291.3 150.8 297.62 147.49 304.18 145.19 310.63 143.49 317.36 142.73 324.37 142.84 331.32 143.26 338.58 144.29 346.16 145.78 353.7 147.09 361.58 148.5 369.82 149.87 378.03 150.58 386.62 150.98 395.58 151.01" stroke-dasharray="0 0" transform="rotate(29.228571428571428, 400, 400)" opacity="0.23"></path><path d="M402.19 161.79C410.93 161 419.86 159.94 428.96 158.68 438.07 156.89 447.37 155.19 456.83 153.74 466.33 152.23 475.98 151.28 485.77 151.01 495.58 151.11 505.5 152.11 515.47 154.04 525.43 156.55 535.38 160.04 545.25 164.42 555 169.37 564.56 175.12 573.82 181.55 582.82 188.34 591.36 195.64 599.32 203.32 606.81 211.11 613.55 219.13 619.41 227.27 624.62 235.31 628.81 243.38 631.88 251.43 634.21 259.27 635.39 267.07 635.38 274.8 634.74 282.3 633.04 289.76 630.38 297.22 627.42 304.47 623.79 311.76 619.69 319.11 615.85 326.33 611.98 333.66 608.32 341.15 605.56 348.56 603.45 356.16 602.18 363.98 602.32 371.76 603.56 379.79 605.98 388.09 609.9 396.37 614.93 404.93 620.92 413.78 628.01 422.64 635.42 431.57 642.86 440.56 650.53 449.55 657.61 458.58 663.82 467.61 669.45 476.61 673.75 485.58 676.57 494.45 678.31 503.24 678.38 511.86 676.81 520.24 674.03 528.45 669.7 536.32 663.95 543.76 657.21 550.92 649.32 557.53 640.49 563.51 631.05 569.11 620.99 573.99 610.5 578.09 599.8 581.8 588.94 584.73 578.06 586.88 567.29 588.78 556.65 590.04 546.25 590.77 536.11 591.56 526.25 592.09 516.7 592.55 507.45 593.54 498.47 594.81 489.76 596.52 481.32 599.21 473.06 602.6 464.96 606.79 457.05 612.11 449.22 618.19 441.43 624.95 433.76 632.48 426.06 640.29 418.32 648.08 410.62 655.82 402.84 662.91 394.96 668.95 387.09 673.99 379.1 677.4 371.01 678.93 362.92 678.89 354.92 676.87 347.03 673.04 339.16 667.98 331.41 661.59 323.83 654.22 316.29 646.48 308.94 638.41 301.82 630.34 294.76 622.79 287.96 615.71 281.46 609.28 275.04 603.86 268.93 599.23 263.17 595.35 254.81 591.35 239.98 586.7 233.49 585.06 227.32 583.58 216.32 578.15 211.33 573.7 207.89 570.18 204.59 565.92 201.42 560.94 197.96 555.62 194.58 549.64 191.25 543.07 187.59 536.22 183.95 528.88 180.37 521.13 176.45 513.2 172.6 504.96 168.84 496.48 164.85 487.91 161.01 479.18 157.41 470.35 153.7 461.49 150.33 452.57 147.37 443.64 144.5 434.71 142.15 425.79 140.43 416.9 138.97 408.01 138.26 399.37 138.29 390.97 138.7 382.56 139.87 374.37 141.79 366.39 144.09 358.37 147.09 350.52 150.74 342.83 154.7 335.06 159.23 327.39 164.27 319.8 169.48 312.08 175.1 304.39 181.07 296.71 187.05 288.85 193.3 280.95 199.73 273.02 206.05 264.9 212.51 256.73 219.05 248.54 225.39 240.22 231.79 231.92 238.22 223.73 244.42 215.53 250.66 207.55 256.94 199.9 262.99 192.45 269.11 185.49 275.31 179.14 281.31 173.23 287.44 168.07 293.71 163.77 299.82 160.05 306.12 157.25 312.63 155.39 319.03 154.05 325.67 153.56 332.57 153.86 339.39 154.39 346.51 155.46 353.93 156.93 361.31 158.18 369.01 159.51 377.05 160.78 385.06 161.42 393.44 161.77 402.18 161.79" stroke-dasharray="0 0" transform="rotate(31.885714285714286, 400, 400)" opacity="0.29"></path><path d="M408.68 172.56C417.19 171.81 425.86 170.8 434.68 169.61 443.51 167.92 452.49 166.29 461.6 164.87 470.73 163.36 479.98 162.34 489.3 161.93 498.63 161.82 508 162.51 517.36 164.05 526.67 166.12 535.91 169.09 544.98 172.93 553.9 177.3 562.57 182.47 570.86 188.32 578.87 194.56 586.38 201.35 593.27 208.58 599.71 215.99 605.4 223.68 610.22 231.56 614.46 239.44 617.74 247.4 619.98 255.39 621.6 263.25 622.19 271.1 621.74 278.91 620.79 286.54 618.95 294.14 616.29 301.72 613.48 309.13 610.14 316.56 606.45 324.02 603.09 331.34 599.77 338.75 596.69 346.26 594.49 353.68 592.9 361.25 592.09 368.99 592.57 376.68 594.04 384.57 596.54 392.66 600.41 400.73 605.24 409.04 610.9 417.56 617.57 426.08 624.52 434.63 631.48 443.17 638.69 451.71 645.38 460.23 651.3 468.68 656.75 477.09 661.04 485.41 664.01 493.55 666.04 501.61 666.59 509.43 665.63 516.96 663.6 524.31 660.13 531.28 655.32 537.78 649.57 544.02 642.7 549.72 634.87 554.79 626.43 559.55 617.29 563.65 607.65 567.04 597.73 570.15 587.54 572.6 577.22 574.41 566.91 576.09 556.63 577.3 546.48 578.12 536.5 579.13 526.71 580.03 517.17 580.96 507.86 582.48 498.79 584.33 489.96 586.65 481.36 589.9 472.95 593.8 464.71 598.41 456.65 604 448.7 610.23 440.84 617 433.09 624.38 425.38 631.92 417.69 639.34 410.04 646.66 402.38 653.28 394.69 658.9 387.01 663.57 379.29 666.73 371.53 668.16 363.76 668.15 356.14 666.32 348.68 662.81 341.22 658.16 333.94 652.24 326.86 645.35 319.8 638.07 312.95 630.37 306.36 622.57 299.81 615.15 293.52 608.07 287.54 601.48 281.6 595.76 275.97 590.7 270.67 586.32 262.95 581.43 249.18 575.08 243.1 572.84 237.24 571.02 226.63 565.87 221.72 561.99 216.65 557.21 206.59 544.04 201.49 535.75 197.78 529.79 194.1 523.32 190.46 516.42 186.51 509.35 182.63 501.92 178.86 494.19 174.86 486.37 171.02 478.33 167.42 470.11 163.73 461.86 160.37 453.49 157.41 445.04 154.55 436.58 152.19 428.06 150.44 419.52 148.94 410.98 148.17 402.6 148.12 394.41 148.43 386.2 149.48 378.15 151.25 370.26 153.39 362.32 156.21 354.5 159.68 346.79 163.44 339 167.78 331.28 172.63 323.6 177.66 315.8 183.11 308.01 188.91 300.22 194.76 292.28 200.88 284.32 207.22 276.34 213.48 268.22 219.88 260.1 226.4 252 232.75 243.85 239.17 235.78 245.65 227.88 251.91 220.05 258.22 212.51 264.58 205.34 270.71 198.44 276.92 192.06 283.19 186.32 289.27 181.02 295.45 176.46 301.76 172.74 307.91 169.56 314.22 167.23 320.71 165.77 327.09 164.76 333.68 164.51 340.5 164.96 347.24 165.58 354.25 166.67 361.53 168.09 368.77 169.27 376.31 170.51 384.16 171.69 391.99 172.25 400.16 172.56 408.67 172.56" stroke-dasharray="0 0" transform="rotate(34.542857142857144, 400, 400)" opacity="0.32"></path><path d="M414.71 183.34C422.97 182.62 431.36 181.67 439.85 180.56 448.35 178.96 456.97 177.41 465.66 176.04 474.37 174.54 483.14 173.48 491.93 172.94 500.7 172.65 509.45 173.07 518.13 174.27 526.73 175.92 535.19 178.41 543.43 181.71 551.49 185.51 559.24 190.08 566.57 195.34 573.6 201 580.11 207.24 585.99 213.94 591.44 220.88 596.16 228.15 600.05 235.68 603.43 243.27 605.92 251.01 607.47 258.83 608.52 266.59 608.64 274.38 607.88 282.17 606.74 289.83 604.86 297.48 602.31 305.11 599.7 312.61 596.7 320.12 593.44 327.62 590.58 335.03 587.79 342.47 585.28 349.98 583.6 357.41 582.5 364.94 582.11 372.57 582.89 380.17 584.55 387.91 587.12 395.79 590.91 403.65 595.54 411.68 600.89 419.85 607.15 428.03 613.65 436.17 620.14 444.23 626.89 452.29 633.19 460.27 638.81 468.11 644.07 475.92 648.29 483.55 651.36 490.96 653.63 498.29 654.56 505.33 654.15 512.02 652.78 518.56 650.08 524.69 646.14 530.33 641.34 535.76 635.44 540.66 628.6 544.97 621.14 549.04 612.96 552.51 604.21 555.38 595.13 558.07 585.7 560.21 576.05 561.85 566.32 563.49 556.52 564.78 546.76 565.83 537.09 567.16 527.53 568.48 518.15 569.93 508.93 571.99 499.89 574.41 491.07 577.29 482.43 581.03 473.96 585.37 465.69 590.31 457.55 596.1 449.55 602.41 441.68 609.11 433.9 616.29 426.21 623.53 418.58 630.57 411.01 637.44 403.46 643.62 395.95 648.82 388.46 653.15 380.98 656.06 373.51 657.38 366.05 657.41 358.77 655.76 351.7 652.55 344.63 648.3 337.76 642.84 331.12 636.43 324.49 629.6 318.1 622.31 311.98 614.83 305.87 607.6 300.03 600.57 294.5 593.92 288.98 587.99 283.76 582.6 278.85 577.79 271.65 572.1 258.74 564.08 252.98 561.15 247.35 558.84 236.97 553.5 232.09 549.93 226.99 545.74 216.79 534.33 211.59 527.11 207.83 521.93 204.1 516.25 200.42 510.12 196.45 503.84 192.55 497.17 188.76 490.18 184.77 483.09 180.95 475.72 177.36 468.13 173.7 460.5 170.37 452.69 167.42 444.73 164.58 436.76 162.23 428.67 160.45 420.49 158.92 412.31 158.1 404.23 157.96 396.25 158.17 388.27 159.1 380.39 160.72 372.6 162.69 364.77 165.33 357.02 168.6 349.32 172.16 341.56 176.28 333.83 180.91 326.12 185.73 318.31 190.98 310.51 196.59 302.69 202.28 294.78 208.25 286.85 214.44 278.94 220.6 270.95 226.93 262.99 233.38 255.11 239.71 247.23 246.12 239.51 252.6 232.01 258.9 224.64 265.26 217.61 271.66 211 277.87 204.69 284.14 198.93 290.47 193.81 296.62 189.13 302.87 185.17 309.21 182 315.41 179.32 321.75 177.43 328.23 176.33 334.61 175.61 341.17 175.57 347.93 176.14 354.61 176.82 361.53 177.9 368.69 179.26 375.8 180.37 383.19 181.51 390.85 182.59 398.5 183.09 406.45 183.35 414.7 183.34" stroke-dasharray="0 0" transform="rotate(37.2, 400, 400)" opacity="0.46"></path><path d="M419.99 194.11C427.96 193.43 436.03 192.54 444.16 191.5 452.29 190 460.49 188.54 468.72 187.22 476.95 185.76 485.18 184.67 493.38 184.05 501.55 183.6 509.64 183.79 517.59 184.67 525.45 185.94 533.1 187.99 540.48 190.78 547.68 194.03 554.52 198.02 560.9 202.68 567.01 207.73 572.57 213.37 577.51 219.5 582.07 225.9 585.92 232.68 588.99 239.76 591.64 246.96 593.47 254.36 594.47 261.9 595.06 269.44 594.86 277.06 593.89 284.71 592.68 292.29 590.84 299.89 588.47 307.47 586.13 314.97 583.5 322.47 580.7 329.96 578.32 337.37 576.07 344.8 574.09 352.26 572.9 359.65 572.25 367.11 572.24 374.61 573.28 382.09 575.1 389.65 577.71 397.29 581.41 404.93 585.83 412.66 590.88 420.47 596.75 428.28 602.8 435.98 608.85 443.56 615.15 451.13 621.05 458.55 626.36 465.79 631.39 472.99 635.52 479.96 638.63 486.66 641.7 496.44 640.6 514 636.45 521.59 632.51 526.33 627.54 530.57 621.65 534.28 615.16 537.82 607.93 540.85 600.1 543.37 591.9 545.81 583.29 547.81 574.39 549.44 565.33 551.17 556.14 552.67 546.89 554.04 537.65 555.75 528.46 557.54 519.37 559.52 510.37 562.09 501.52 565.04 492.83 568.44 484.27 572.6 475.87 577.28 467.64 582.48 459.53 588.38 451.56 594.69 443.74 601.27 436 608.21 428.36 615.11 420.84 621.75 413.36 628.18 405.95 633.92 398.62 638.72 391.31 642.7 384.06 645.39 376.87 646.61 369.69 646.66 362.73 645.18 356 642.26 349.27 638.39 342.78 633.37 336.53 627.44 330.28 621.08 324.29 614.21 318.56 607.08 312.84 600.09 307.39 593.2 302.23 586.57 297.06 580.51 292.18 574.88 287.59 569.73 280.81 563.36 268.56 553.76 263.02 550.1 257.54 547.19 247.27 541.29 242.36 537.8 237.21 533.93 226.83 523.78 221.53 517.41 217.73 512.86 213.96 507.84 210.23 502.39 206.25 496.82 202.35 490.84 198.55 484.52 194.59 478.11 190.8 471.39 187.23 464.4 183.62 457.38 180.32 450.11 177.4 442.65 174.59 435.18 172.25 427.53 170.46 419.73 168.91 411.93 168.04 404.16 167.82 396.44 167.93 388.71 168.73 381.02 170.2 373.38 172.01 365.71 174.45 358.06 177.51 350.44 180.85 342.78 184.75 335.11 189.14 327.46 193.73 319.74 198.75 312.01 204.14 304.28 209.63 296.5 215.41 288.73 221.43 281 227.45 273.25 233.66 265.58 240 258.03 246.26 250.55 252.63 243.27 259.06 236.26 265.37 229.43 271.73 222.98 278.14 216.98 284.4 211.29 290.71 206.17 297.07 201.67 303.29 197.59 309.58 194.21 315.95 191.57 322.19 189.35 328.55 187.86 335.02 187.08 341.4 186.6 347.94 186.73 354.64 187.39 361.27 188.1 368.1 189.16 375.13 190.45 382.13 191.47 389.36 192.51 396.83 193.49 404.28 193.92 412 194.14 419.98 194.11" stroke-dasharray="0 0" transform="rotate(39.857142857142854, 400, 400)" opacity="0.52"></path><path d="M424.22 204.88C431.89 204.24 439.61 203.41 447.33 202.45 455.06 201.05 462.81 199.68 470.53 198.43 478.23 197.02 485.9 195.92 493.47 195.23 500.99 194.66 508.39 194.66 515.59 195.27 522.69 196.2 529.55 197.83 536.08 200.15 542.44 202.88 548.4 206.3 553.9 210.36 559.14 214.81 563.84 219.83 567.93 225.36 571.69 231.16 574.79 237.39 577.17 243.95 579.2 250.67 580.51 257.64 581.08 264.79 581.35 271.99 580.94 279.32 579.88 286.72 578.68 294.1 576.96 301.53 574.83 308.96 572.81 316.35 570.57 323.74 568.24 331.13 566.34 338.46 564.59 345.8 563.12 353.14 562.39 360.44 562.14 367.76 562.46 375.1 563.73 382.42 565.68 389.77 568.31 397.14 571.91 404.51 576.12 411.92 580.87 419.35 586.35 426.78 591.98 434.05 597.59 441.14 603.45 448.21 608.96 455.09 613.96 461.74 618.74 468.35 622.74 474.7 625.85 480.75 629.16 489.54 629.38 505.15 626.25 511.82 623.11 516.01 619 519.74 614.01 523.01 608.45 526.19 602.16 528.94 595.25 531.28 587.95 533.61 580.2 535.63 572.1 537.39 563.8 539.3 555.28 541.1 546.65 542.86 537.97 544.99 529.25 547.26 520.57 549.75 511.94 552.81 503.38 556.23 494.94 560.06 486.59 564.57 478.37 569.51 470.29 574.87 462.31 580.81 454.46 587.05 446.76 593.45 439.12 600.11 431.61 606.65 424.22 612.88 416.88 618.86 409.63 624.17 402.5 628.58 395.38 632.25 388.36 634.71 381.43 635.83 374.51 635.91 367.84 634.58 361.43 631.95 355.01 628.43 348.84 623.85 342.93 618.39 337.02 612.49 331.36 606.06 325.97 599.31 320.57 592.62 315.44 585.93 310.58 579.38 305.71 573.28 301.09 567.51 296.75 562.12 290.3 555.19 278.52 544.17 273.12 539.79 267.72 536.22 257.46 529.48 252.48 525.87 247.25 522.09 236.68 512.71 231.29 506.95 227.45 502.9 223.64 498.41 219.89 493.51 215.91 488.53 212.01 483.15 208.23 477.42 204.3 471.62 200.55 465.49 197.03 459.07 193.48 452.6 190.23 445.87 187.35 438.9 184.58 431.92 182.26 424.71 180.47 417.3 178.91 409.9 177.99 402.46 177.7 395.03 177.72 387.59 178.4 380.14 179.71 372.7 181.34 365.24 183.59 357.78 186.42 350.31 189.54 342.81 193.19 335.31 197.32 327.8 201.67 320.26 206.44 312.72 211.58 305.2 216.83 297.67 222.39 290.17 228.2 282.74 234.05 275.35 240.09 268.07 246.28 260.96 252.43 253.97 258.69 247.21 265.05 240.77 271.31 234.54 277.63 228.7 284.02 223.34 290.28 218.3 296.59 213.81 302.96 209.93 309.2 206.44 315.5 203.59 321.88 201.43 328.14 199.64 334.49 198.5 340.95 197.99 347.32 197.72 353.81 197.98 360.44 198.7 367.01 199.42 373.75 200.43 380.65 201.64 387.52 202.57 394.58 203.51 401.84 204.39 409.08 204.75 416.54 204.93 424.21 204.88" stroke-dasharray="0 0" transform="rotate(42.51428571428571, 400, 400)" opacity="0.11"></path><path d="M427.2 215.66C434.54 215.04 441.87 214.28 449.17 213.39 456.46 212.09 463.72 210.82 470.9 209.65 478.06 208.3 485.13 207.22 492.06 206.49 498.93 205.83 505.62 205.67 512.08 206.05 518.44 206.68 524.51 207.95 530.23 209.83 538.37 213.52 552.04 224.48 557.36 231.59 560.44 236.78 562.9 242.4 564.73 248.38 566.27 254.55 567.18 261 567.44 267.67 567.5 274.44 566.98 281.38 565.93 288.42 564.82 295.48 563.3 302.62 561.46 309.8 559.77 316.96 557.95 324.15 556.08 331.33 554.65 338.49 553.38 345.65 552.37 352.8 552.05 359.93 552.17 367.05 552.78 374.16 554.25 381.25 556.29 388.35 558.93 395.43 562.4 402.5 566.41 409.57 570.86 416.6 575.96 423.63 581.18 430.46 586.37 437.07 591.8 443.67 596.92 450.03 601.6 456.13 606.13 462.2 609.97 467.98 613.03 473.45 616.5 481.4 617.81 495.38 615.58 501.35 611.5 506.82 598.31 515.77 589.6 519.38 583.21 521.75 576.33 523.9 569.06 525.87 561.57 528.07 553.8 530.21 545.85 532.39 537.81 534.95 529.68 537.68 521.51 540.65 513.34 544.14 505.2 547.97 497.13 552.14 489.1 556.91 481.16 562.03 473.34 567.47 465.58 573.37 457.94 579.47 450.44 585.64 442.98 591.98 435.65 598.14 428.46 603.95 421.29 609.5 414.25 614.38 407.33 618.42 400.42 621.78 393.63 624.03 386.96 625.06 380.29 625.16 373.89 623.98 367.76 621.6 361.61 618.43 355.73 614.26 350.12 609.26 344.49 603.82 339.12 597.84 334.01 591.5 328.88 585.15 324 578.71 319.39 572.33 314.74 566.28 310.33 560.45 306.17 554.92 299.96 547.57 288.49 535.33 283.16 530.27 277.79 526.04 267.45 518.29 262.39 514.41 257.07 510.53 246.31 501.47 240.84 496.12 236.97 492.4 233.15 488.31 229.38 483.84 225.41 479.32 221.54 474.44 217.79 469.2 213.92 463.92 210.23 458.31 206.76 452.39 203.28 446.45 200.09 440.21 197.27 433.7 194.55 427.19 192.26 420.42 190.48 413.42 188.92 406.41 187.96 399.34 187.6 392.23 187.53 385.12 188.08 377.96 189.24 370.78 190.7 363.6 192.74 356.38 195.35 349.15 198.22 341.92 201.62 334.66 205.48 327.41 209.56 320.15 214.05 312.91 218.91 305.71 223.91 298.52 229.21 291.41 234.78 284.4 240.4 277.46 246.23 270.67 252.23 264.09 258.22 257.66 264.34 251.49 270.56 245.67 276.72 240.07 282.96 234.89 289.27 230.18 295.48 225.77 301.75 221.9 308.07 218.61 314.29 215.66 320.58 213.32 326.92 211.59 333.17 210.17 339.49 209.34 345.89 209.06 352.23 208.96 358.66 209.31 365.2 210.05 371.68 210.77 378.3 211.72 385.05 212.83 391.77 213.67 398.64 214.51 405.66 215.28 412.67 215.58 419.85 215.71 427.19 215.66" stroke-dasharray="0 0" transform="rotate(45.17142857142857, 400, 400)" opacity="0.86"></path><path d="M428.77 226.43C435.74 225.85 442.66 225.14 449.51 224.34 456.34 223.14 463.09 221.97 469.72 220.88 476.33 219.61 482.79 218.57 489.07 217.82 498.3 216.96 515.36 217.86 523 219.82 530.02 222.81 541.58 232.1 545.94 238.29 549.43 245.34 553.28 261.7 553.67 270.76 553.62 277.01 553.09 283.46 552.13 290.04 551.17 296.69 549.89 303.44 548.37 310.25 547.05 317.08 545.64 323.96 544.22 330.84 543.24 337.73 542.41 344.62 541.84 351.49 541.89 358.36 542.33 365.21 543.2 372.03 544.82 378.85 546.94 385.63 549.55 392.38 552.89 399.12 556.69 405.81 560.85 412.44 565.59 419.07 570.41 425.47 575.19 431.62 580.2 437.76 584.94 443.65 589.29 449.25 595.37 457.48 603.73 472.33 605.63 478.9 605.92 485.06 601.38 495.61 596.69 500.05 590.55 504.24 574.61 511.62 565.18 515.06 558.51 517.57 551.53 520.1 544.33 522.69 536.99 525.67 529.51 528.82 521.95 532.2 514.34 536.06 506.7 540.21 499.09 544.65 491.48 549.58 483.93 554.79 476.46 560.23 469.02 566.03 461.67 571.93 454.44 577.83 447.25 583.82 440.17 589.58 433.21 594.97 426.28 600.08 419.47 604.55 412.79 608.23 406.12 611.29 399.57 613.34 393.16 614.29 386.74 614.4 380.6 613.36 374.72 611.23 368.84 608.38 363.21 604.61 357.85 600.06 352.47 595.08 347.33 589.56 342.45 583.65 337.54 577.67 332.88 571.53 328.45 565.37 323.97 559.45 319.72 553.66 315.69 548.07 309.64 540.45 298.35 527.24 293.03 521.59 287.65 516.72 277.19 507.9 272.03 503.63 266.62 499.51 255.7 490.43 250.17 485.28 244.37 479.85 232.85 467.35 227.23 460.26 223.43 455.41 219.81 450.23 216.42 444.75 213.02 439.26 209.91 433.47 207.15 427.4 204.5 421.33 202.26 414.99 200.49 408.39 198.93 401.8 197.94 395.11 197.52 388.36 197.37 381.61 197.8 374.8 198.8 367.95 200.08 361.1 201.93 354.21 204.3 347.31 206.93 340.41 210.06 333.5 213.64 326.6 217.43 319.72 221.63 312.88 226.19 306.1 230.9 299.36 235.91 292.72 241.2 286.22 246.56 279.82 252.14 273.59 257.9 267.61 263.68 261.79 269.61 256.26 275.64 251.09 281.65 246.14 287.75 241.61 293.92 237.54 300.03 233.75 306.21 230.46 312.43 227.73 318.59 225.28 324.8 223.38 331.05 222.05 337.24 220.95 343.5 220.37 349.81 220.27 356.06 220.3 362.4 220.71 368.8 221.46 375.18 222.13 381.64 223.01 388.21 224.02 394.75 224.76 401.4 225.49 408.16 226.17 414.91 226.41 421.78 226.5 428.76 226.43" stroke-dasharray="0 0" transform="rotate(47.82857142857142, 400, 400)" opacity="0.10"></path><path d="M428.84 237.2C435.43 236.66 441.92 236.01 448.29 235.28 454.66 234.19 460.89 233.12 466.97 232.12 475.95 230.44 492.82 228.28 500.56 228.12 510.43 228.67 518.92 231.27 525.74 235.89 531.93 241.61 536.24 249.27 538.53 258.52 540.26 268.59 540.18 279.83 538.55 291.84 537.14 304.2 535 317.01 532.69 329.98 532.11 336.49 531.7 343.03 531.52 349.54 531.9 356.07 532.61 362.58 533.7 369.05 535.44 375.53 537.6 381.96 540.17 388.33 543.38 394.71 546.96 401.02 550.84 407.23 555.22 413.45 559.66 419.43 564.05 425.15 568.66 430.87 573.02 436.32 577.04 441.49 582.74 449.08 590.88 462.77 592.99 468.84 594.06 476.69 592 483.38 587.04 489.01 580.39 494.9 571.31 500.15 560.38 505.09 548.48 511.04 535.39 517.38 521.66 524.4 507.65 533.09 493.42 542.73 479.33 553.12 472.3 558.75 465.32 564.4 458.44 569.99 451.58 575.6 444.81 580.96 438.15 585.92 431.5 590.6 424.97 594.68 418.56 598.02 412.16 600.79 405.87 602.65 399.71 603.51 393.56 603.64 387.66 602.73 382.03 600.83 376.39 598.29 370.99 594.9 365.85 590.78 360.68 586.25 355.75 581.19 351.06 575.72 346.33 570.14 341.82 564.35 337.53 558.48 328.8 547.24 320.83 536.44 313.57 526.43 305.9 517.97 298.73 510.27 291.98 503.13 284.6 497.13 277.43 491.06 270.46 484.61 262.73 478.58 255.15 471.67 247.84 463.75 242.07 457.69 231.08 444.11 226.01 436.6 222.71 431.49 219.69 426.1 217.01 420.44 214.43 414.77 212.24 408.84 210.5 402.66 208.95 396.48 207.94 390.19 207.46 383.84 207.23 377.49 207.54 371.06 208.39 364.6 209.51 358.14 211.14 351.65 213.28 345.15 215.66 338.66 218.52 332.18 221.8 325.72 228.98 312.93 237.66 300.4 247.5 288.45 257.7 276.94 268.74 266.36 280.33 257.12 291.91 248.73 303.88 242.02 316.06 237.28 328.06 233.51 340.29 231.65 352.66 231.61 358.8 231.72 364.98 232.16 371.22 232.89 377.44 233.51 383.72 234.31 390.06 235.21 396.38 235.84 402.78 236.47 409.25 237.06 415.71 237.23 422.24 237.28 428.83 237.2" stroke-dasharray="0 0" transform="rotate(50.48571428571428, 400, 400)" opacity="0.74"></path><path d="M427.42 247.98C439.79 246.57 451.59 244.94 462.68 243.37 473.67 241.04 483.77 239.6 492.75 239.38 501.43 239.56 508.74 241.52 514.48 245.28 519.73 249.96 523.29 256.45 525.11 264.46 526.58 273.24 526.55 283.23 525.28 294.07 524.38 305.3 522.95 317.08 521.47 329.1 521.51 341.25 522.33 353.51 524.29 365.64 528.51 377.8 534.11 389.8 540.83 401.42 549.27 413.04 557.51 423.69 564.85 433.31 572.12 442.9 577.36 451.43 580.22 458.88 581.78 466.37 580.57 472.92 576.77 478.65 571.51 484.76 563.98 490.47 554.62 496.05 544.34 502.62 532.8 509.61 520.47 517.21 507.79 526.21 494.74 535.93 481.65 546.11 468.54 557.02 455.55 567.53 442.9 576.8 430.31 584.99 418.06 590.56 406.28 592.74 394.51 592.38 383.69 588.4 373.82 581.42 363.86 572.94 354.74 562.7 346.43 551.6 337.9 540.81 330.04 530.15 322.79 520.04 315.15 511.16 307.92 502.91 301.06 495.19 293.61 488.52 286.35 481.92 279.3 475.13 271.58 468.83 264.03 461.9 256.79 454.19 249.1 446.59 241.92 438.01 235.53 428.43 229.21 418.85 224.08 408.25 220.51 396.7 217.67 385.15 216.86 373.24 218.03 361.17 220.16 349.15 224.23 337.06 230 325.14 236.56 313.4 244.57 302.02 253.72 291.31 263.28 281.06 273.69 271.78 284.7 263.83 295.78 256.66 307.28 251.06 319.02 247.25 330.66 244.22 342.53 242.86 354.5 243.06 366.38 243.37 378.44 244.59 390.6 246.38 402.74 247.15 415.04 247.74 427.41 247.98" stroke-dasharray="0 0" transform="rotate(53.14285714285714, 400, 400)" opacity="0.80"></path><path d="M424.58 258.75C436.09 257.45 446.94 256 456.98 254.62 466.93 252.49 475.94 251.12 483.81 250.78 494.58 251.38 508.64 261.55 511.68 271.08 513.06 278.6 513.21 287.33 512.38 296.93 512.02 306.95 511.3 317.59 510.59 328.56 511.27 339.69 512.64 351 514.95 362.23 519.21 373.52 524.58 384.66 530.82 395.47 538.55 406.29 546.04 416.21 552.73 425.21 559.44 434.19 564.41 442.27 567.34 449.44 569.25 456.72 568.75 463.28 565.94 469.25 561.9 475.64 555.76 481.81 547.89 487.99 539.16 495.08 529.13 502.57 518.23 510.58 506.94 519.7 495.13 529.33 483.15 539.16 471.08 549.45 459.01 559.17 447.15 567.62 435.32 575.01 423.73 580.01 412.53 581.97 401.32 581.7 390.98 578.2 381.47 571.98 371.89 564.36 363.04 555.03 354.9 544.71 346.56 534.48 338.78 524.15 331.53 514.11 323.9 505.02 316.63 496.4 309.67 488.25 302.19 481.01 294.89 473.92 287.79 466.79 280.14 460.16 272.68 453.11 265.57 445.49 258.09 438.03 251.14 429.79 244.98 420.73 238.92 411.69 233.99 401.77 230.52 391.02 227.71 380.28 226.8 369.24 227.7 358.11 229.49 347.04 233.08 335.99 238.26 325.18 244.18 314.58 251.49 304.41 259.9 294.98 268.76 285.99 278.48 278 288.81 271.28 299.28 265.23 310.21 260.63 321.38 257.63 332.55 255.22 343.93 254.24 355.39 254.59 366.81 254.91 378.35 255.99 389.9 257.55 401.45 258.13 413.05 258.58 424.56 258.75" stroke-dasharray="0 0" transform="rotate(55.8, 400, 400)" opacity="0.18"></path><path d="M420.46 269.53C431.1 268.34 441.02 267.06 450.07 265.86 459.04 263.95 467.05 262.68 473.96 262.28 483.42 262.47 495.66 270.5 498.42 278.44 499.83 284.77 500.25 292.25 499.91 300.63 500.1 309.4 500.04 318.84 500.03 328.69 501.28 338.72 503.11 348.99 505.69 359.28 509.93 369.63 515.04 379.9 520.81 389.91 527.86 399.93 534.63 409.19 540.68 417.66 546.82 426.14 551.48 433.88 554.38 440.91 556.51 448.08 556.56 454.73 554.58 460.97 551.6 467.65 546.7 474.26 540.18 480.93 532.9 488.4 524.33 496.23 514.83 504.44 504.94 513.51 494.42 522.87 483.59 532.23 472.65 541.82 461.57 550.73 450.57 558.36 439.58 565 428.71 569.46 418.12 571.19 407.53 571.02 397.66 567.96 388.52 562.46 379.31 555.68 370.73 547.24 362.75 537.77 354.59 528.2 346.89 518.34 339.64 508.57 332.06 499.48 324.77 490.69 317.75 482.28 310.29 474.63 303 467.14 295.93 459.71 288.4 452.76 281.1 445.54 274.16 437.96 266.95 430.56 260.28 422.57 254.37 413.95 248.6 405.37 243.89 396.07 240.53 386.1 237.78 376.13 236.77 365.99 237.43 355.85 238.88 345.77 242 335.79 246.59 326.15 251.87 316.71 258.46 307.78 266.11 299.61 274.21 291.85 283.17 285.06 292.74 279.48 302.52 274.44 312.76 270.7 323.27 268.38 333.83 266.46 344.61 265.76 355.45 266.19 366.3 266.46 377.22 267.38 388.09 268.69 398.97 269.09 409.81 269.41 420.46 269.53" stroke-dasharray="0 0" transform="rotate(58.457142857142856, 400, 400)" opacity="0.50"></path><path d="M415.27 280.3C425.04 279.22 434.05 278.11 442.18 277.1 450.26 275.41 457.38 274.27 463.47 273.87 471.84 273.79 482.78 280.04 485.46 286.56 487 291.79 487.76 298.11 487.92 305.3 488.64 312.85 489.19 321.09 489.81 329.8 491.53 338.69 493.72 347.89 496.49 357.21 500.66 366.57 505.49 375.96 510.8 385.21 517.19 394.45 523.27 403.1 528.7 411.11 534.27 419.15 538.57 426.63 541.38 433.58 543.62 440.69 544.08 447.45 542.78 453.96 540.67 460.88 536.85 467.81 531.54 474.84 525.58 482.52 518.37 490.49 510.21 498.7 501.68 507.55 492.46 516.51 482.81 525.28 473.03 534.11 462.99 542.2 452.9 549.03 442.8 554.94 432.71 558.88 422.77 560.42 412.83 560.32 403.47 557.68 394.72 552.86 385.9 546.88 377.6 539.34 369.8 530.74 361.83 521.92 354.24 512.66 347.03 503.32 339.53 494.42 332.27 485.68 325.27 477.2 317.89 469.31 310.68 461.58 303.7 453.95 296.36 446.74 289.27 439.4 282.56 431.84 275.67 424.47 269.31 416.69 263.7 408.46 258.23 400.28 253.76 391.56 250.54 382.35 247.86 373.14 246.77 363.89 247.21 354.74 248.35 345.65 251 336.77 255.01 328.29 259.65 319.99 265.52 312.25 272.39 305.3 279.7 298.67 287.84 292.98 296.6 288.41 305.59 284.24 315.06 281.23 324.81 279.44 334.66 277.9 344.73 277.39 354.86 277.81 365.02 278.01 375.23 278.74 385.34 279.81 395.47 280.04 405.5 280.23 415.27 280.3" stroke-dasharray="0 0" transform="rotate(61.114285714285714, 400, 400)" opacity="0.26"></path><path d="M409.3 291.07C418.19 290.1 426.33 289.15 433.63 288.32 444.05 286.37 460.14 285.28 465.67 286.98 470.18 290.11 475.24 302.31 476.46 311.04 477.66 317.42 478.75 324.51 479.9 332.11 482 339.87 484.46 348.01 487.36 356.35 491.41 364.74 495.94 373.25 500.79 381.74 506.54 390.24 511.97 398.31 516.8 405.91 521.79 413.54 525.71 420.79 528.37 427.67 530.62 434.72 531.36 441.56 530.58 448.26 529.18 455.31 526.28 462.43 522.03 469.63 517.23 477.35 511.27 485.27 504.36 493.3 497.12 501.76 489.14 510.18 480.66 518.28 472.04 526.32 463.07 533.57 453.93 539.62 444.76 544.84 435.49 548.3 426.24 549.64 416.99 549.61 408.18 547.36 399.85 543.16 391.46 537.96 383.47 531.29 375.88 523.59 368.15 515.59 360.73 507.03 353.6 498.26 346.25 489.75 339.1 481.24 332.18 472.89 324.96 464.97 317.91 457.17 311.1 449.48 304.03 442.14 297.21 434.75 290.8 427.26 284.27 419.94 278.26 412.37 272.97 404.53 267.83 396.73 263.62 388.57 260.55 380.1 257.96 371.62 256.81 363.23 257.04 355.06 257.88 346.93 260.1 339.11 263.55 331.75 267.56 324.54 272.7 317.91 278.79 312.06 285.28 306.46 292.58 301.74 300.48 298.02 308.62 294.58 317.24 292.16 326.16 290.77 335.2 289.5 344.47 289.09 353.79 289.45 363.18 289.54 372.59 290.07 381.89 290.9 391.22 290.98 400.41 291.05 409.3 291.07" stroke-dasharray="0 0" transform="rotate(63.77142857142857, 400, 400)" opacity="0.26"></path><path d="M402.84 301.85C410.87 300.98 418.18 300.18 424.72 299.52 434.07 297.89 448.57 296.92 453.69 298.25 458.06 300.68 463.7 310.58 465.56 317.86 467.18 323.19 468.72 329.21 470.3 335.76 472.69 342.45 475.34 349.56 478.29 356.96 482.18 364.41 486.39 372.07 490.79 379.83 495.93 387.6 500.73 395.1 504.98 402.3 509.41 409.54 512.92 416.54 515.37 423.32 517.55 430.25 518.46 437.08 518.07 443.84 517.22 450.89 515.07 458.02 511.71 465.21 507.93 472.77 503.06 480.45 497.3 488.13 491.24 496.06 484.45 503.83 477.09 511.19 469.61 518.41 461.69 524.84 453.51 530.13 445.29 534.69 436.87 537.7 428.35 538.87 419.83 538.89 411.61 536.99 403.74 533.39 395.83 528.91 388.2 523.1 380.89 516.29 373.47 509.14 366.27 501.38 359.32 493.3 352.19 485.33 345.23 477.24 338.48 469.21 331.51 461.47 324.7 453.79 318.15 446.21 311.4 438.89 304.93 431.57 298.86 424.24 292.74 417.06 287.12 409.74 282.18 402.3 277.4 394.89 273.46 387.28 270.56 379.52 268.08 371.75 266.89 364.2 266.94 356.96 267.51 349.75 269.31 342.91 272.22 336.59 275.62 330.37 280.05 324.75 285.36 319.86 291.04 315.16 297.47 311.25 304.48 308.23 311.73 305.39 319.45 303.4 327.48 302.29 335.64 301.2 344.02 300.82 352.48 301.07 361.01 301.03 369.57 301.36 378.01 301.96 386.49 301.89 394.82 301.87 402.84 301.85" stroke-dasharray="0 0" transform="rotate(66.42857142857143, 400, 400)" opacity="0.13"></path><path d="M396.24 312.62C403.42 311.86 409.96 311.2 415.81 310.7 430.8 309.02 446.56 311.66 449.74 315.17 452.8 319.69 458.15 332.66 461.01 340.8 463.59 346.5 466.34 352.66 469.27 359.17 472.95 365.71 476.82 372.56 480.78 379.62 485.33 386.68 489.53 393.62 493.23 400.4 497.12 407.21 500.22 413.92 502.42 420.51 504.46 427.23 505.43 433.93 505.31 440.6 504.87 447.49 503.31 454.45 500.7 461.43 497.76 468.66 493.85 475.92 489.1 483.08 484.11 490.37 478.4 497.42 472.11 503.99 465.7 510.37 458.81 515.99 451.57 520.56 444.3 524.5 436.75 527.09 428.99 528.1 421.23 528.17 413.65 526.58 406.3 523.52 398.92 519.73 391.73 514.73 384.76 508.8 377.71 502.53 370.83 495.62 364.14 488.33 357.33 481.03 350.65 473.53 344.17 465.99 337.53 458.63 331.06 451.26 324.84 443.96 318.5 436.85 312.44 429.75 306.77 422.7 301.09 415.75 295.89 408.76 291.33 401.76 286.93 394.79 283.28 387.74 280.57 380.67 278.22 373.6 277.01 366.84 276.9 360.46 277.22 354.1 278.64 348.17 281.04 342.77 283.87 337.43 287.61 332.69 292.15 328.61 297.02 324.66 302.59 321.41 308.7 318.94 315.04 316.54 321.83 314.88 328.93 313.94 336.16 312.94 343.62 312.53 351.17 312.65 358.79 312.46 366.45 312.59 374.01 312.98 381.6 312.79 389.06 312.67 396.24 312.62" stroke-dasharray="0 0" transform="rotate(69.08571428571429, 400, 400)" opacity="0.64"></path><path d="M389.83 323.39C399.1 322.47 414.76 320.86 421.1 320.57 431.35 321.7 442.61 329.54 445.48 334.53 448.78 340.29 456.06 354.64 460.29 362.98 463.72 368.69 467.25 374.75 470.77 381.12 474.76 387.49 478.4 393.86 481.58 400.17 484.93 406.51 487.61 412.85 489.54 419.15 491.39 425.54 492.35 431.96 492.4 438.38 492.24 444.94 491.12 451.55 489.11 458.13 486.86 464.86 483.76 471.56 479.88 478.08 475.83 484.63 471.09 490.88 465.77 496.64 460.36 502.18 454.44 507.01 448.13 510.9 441.79 514.27 435.09 516.47 428.12 517.32 421.16 517.43 414.25 516.12 407.48 513.57 400.69 510.41 394.01 506.19 387.47 501.12 380.89 495.72 374.41 489.69 368.09 483.25 361.68 476.73 355.39 469.95 349.27 463.05 343.06 456.24 337.01 449.36 331.21 442.52 325.34 435.79 319.74 429.08 314.53 422.42 309.34 415.85 304.6 409.29 300.44 402.78 296.42 396.31 293.09 389.84 290.58 383.46 287.77 374.06 287.57 357.32 290.04 350.15 293.86 343.57 305.66 333.44 313.25 330 318.68 327.94 324.53 326.49 330.68 325.63 336.96 324.67 343.48 324.19 350.09 324.15 356.77 323.82 363.51 323.77 370.18 323.96 376.87 323.66 383.47 323.48 389.83 323.39" stroke-dasharray="0 0" transform="rotate(71.74285714285715, 400, 400)" opacity="0.08"></path><path d="M383.95 334.17C395.1 332.57 404.44 331.84 411.83 332.2 419.3 331.76 425.14 333.3 429.53 336.93 434.66 340.64 439.15 346.68 443.27 354.72 449.03 362.89 455 372.85 460.76 384.22 467.98 395.58 473.5 407.32 476.76 419.02 479.93 430.95 480.01 443.16 477.06 455.12 473.48 467.36 467.01 479.08 458.2 489.11 449.11 498.3 438.12 504.56 425.8 506.55 413.48 506.22 401.07 501.37 389.08 493.21 376.97 483.87 365.07 472.44 353.83 460.19 342.39 447.99 331.59 435.42 322.16 423.14 312.88 411.05 305.38 399.05 300.59 387.64 296.78 376.22 296.47 366.41 299.21 358.51 303.06 350.68 309.66 344.87 318.22 341.28 327.47 337.59 338.19 335.73 349.49 335.56 361.03 334.33 372.8 333.9 383.95 334.17" stroke-dasharray="0 0" transform="rotate(74.4, 400, 400)" opacity="0.31"></path><path d="M378.9 344.94C388.53 343.62 396.79 343.2 403.56 343.76 410.44 343.6 416.11 345.07 420.67 348.24 425.85 351.34 430.53 356.4 434.79 363.22 440.27 370.09 445.73 378.65 450.75 388.65 456.87 398.65 461.44 409.2 464.11 419.82 466.81 430.59 467 441.58 464.7 452.22 462 462.92 456.84 472.97 449.58 481.39 442.11 489.03 432.83 494.18 422.14 495.77 411.44 495.61 400.44 491.73 389.65 485.05 378.81 477.37 368.07 467.75 357.91 457.22 347.68 446.57 338.04 435.43 329.67 424.49 321.5 413.63 314.88 402.92 310.6 392.86 307.09 382.81 306.55 374.31 308.59 367.56 311.48 360.8 316.73 355.79 323.7 352.62 331.22 349.23 340.09 347.34 349.58 346.84 359.26 345.44 369.26 344.81 378.9 344.94" stroke-dasharray="0 0" transform="rotate(77.05714285714286, 400, 400)" opacity="0.52"></path><path d="M374.94 355.72C383.11 354.65 390.34 354.48 396.47 355.21 405.41 356.06 420.04 364.44 426.54 372.36 431.59 378.13 436.45 385.41 440.74 394.04 445.82 402.67 449.51 411.88 451.6 421.21 453.8 430.59 453.98 440.12 452.15 449.22 450.11 458.26 446.02 466.6 440.12 473.44 434.08 479.63 426.39 483.75 417.32 485 408.26 484.97 398.76 481.95 389.33 476.64 379.89 470.53 370.48 462.69 361.58 453.94 352.68 445 344.32 435.5 337.09 426.08 330.05 416.67 324.35 407.37 320.61 398.69 317.46 390.01 316.75 382.71 318.19 376.93 320.24 371.11 324.26 366.72 329.77 363.83 335.69 360.69 342.81 358.75 350.56 357.96 358.46 356.46 366.77 355.69 374.94 355.72" stroke-dasharray="0 0" transform="rotate(79.71428571428571, 400, 400)" opacity="0.50"></path><path d="M372.29 366.49C382.14 365.68 398.68 367.63 405.54 370.9 410.24 373.28 414.6 376.93 418.51 381.78 422.99 386.6 427.17 392.68 430.73 399.93 434.82 407.18 437.7 414.94 439.27 422.77 440.95 430.62 441.06 438.51 439.57 445.95 438 453.27 434.79 459.91 430.07 465.25 425.28 470.1 419.06 473.28 411.61 474.23 404.16 474.29 396.23 472.03 388.29 467.95 380.37 463.29 372.44 457.16 364.92 450.2 357.46 443.03 350.46 435.28 344.42 427.49 338.56 419.69 333.8 411.92 330.62 404.63 327.47 394.26 330.82 379.36 336.48 374.77 340.95 371.86 346.46 369.91 352.59 368.92 358.83 367.39 365.52 366.55 372.29 366.49" stroke-dasharray="0 0" transform="rotate(82.37142857142857, 400, 400)" opacity="0.41"></path><path d="M371.07 377.26C381.85 375.56 391.56 377.25 399.21 381.92 407.72 386 415.45 394.14 420.72 405.83 427.33 417.51 429.51 430.67 427.1 442.23 424.58 453.31 417.04 461.56 405.3 463.45 393.55 463.14 380.14 456.16 368.05 445.84 356.2 434.85 346.03 421.92 340.63 410.18 336.33 398.42 338.01 389.95 343.89 385.26 350.46 379.84 360.28 376.98 371.07 377.26" stroke-dasharray="0 0" transform="rotate(85.02857142857142, 400, 400)" opacity="1.00"></path><path d="M371.35 388.04C379.44 386.93 387.22 388.6 393.64 392.5 400.53 396.01 406.7 402.41 410.71 411.23 415.45 420.05 416.8 429.7 414.85 437.92 412.92 445.78 407.38 451.48 398.71 452.68 390.04 452.65 380.06 447.95 371.06 440.74 362.27 433.08 354.72 423.72 350.64 414.86 347.63 402.62 359.79 389.32 371.35 388.04" stroke-dasharray="0 0" transform="rotate(87.68571428571428, 400, 400)" opacity="0.43"></path><path d="M373.12 398.81C383.96 397.07 395.67 403.86 400.7 415.69 407 427.51 403.56 440.06 392.19 441.91 380.81 441.6 366.35 430.15 360.65 418.29 356.11 406.42 362.27 398.52 373.12 398.81" stroke-dasharray="0 0" transform="rotate(90.34285714285714, 400, 400)" opacity="0.31"></path></g></svg>