<svg xmlns="http://www.w3.org/2000/svg" version="1.1" xmlns:xlink="http://www.w3.org/1999/xlink" xmlns:svgjs="http://svgjs.dev/svgjs" viewBox="0 0 800 800"><defs><linearGradient x1="50%" y1="0%" x2="50%" y2="100%" id="ccchaos-grad"><stop stop-color="hsl(265, 55%, 30%)" stop-opacity="1" offset="0%"></stop><stop stop-color="hsl(265, 55%, 60%)" stop-opacity="1" offset="100%"></stop></linearGradient></defs><g stroke-width="3" stroke="url(#ccchaos-grad)" fill="none" stroke-linecap="round"><path d="M383.14 86.54C393.58 90.47 403.88 94.57 414.01 98.61 424.14 101.91 434.13 104.88 443.94 107.43 453.78 109.04 463.48 110.26 473.04 111.18 482.66 111.38 492.18 111.55 501.61 111.87 511.15 111.96 520.64 112.56 530.11 113.8 539.74 115.34 549.38 117.81 559.04 121.26 568.91 125.35 578.82 130.54 588.77 136.78 598.91 143.73 609.07 151.67 619.19 160.48 629.42 169.87 639.55 179.98 649.46 190.64 659.33 201.66 668.84 213.07 677.87 224.74 686.61 236.54 694.67 248.47 701.91 260.44 708.6 272.4 714.29 284.34 718.85 296.22 722.68 308.03 725.28 319.77 726.59 331.45 727.17 343.05 726.51 354.62 724.67 366.16 722.31 377.65 718.99 389.15 714.83 400.67 710.61 412.18 705.91 423.74 700.9 435.3 696.37 446.87 691.98 458.18 687.86 469.17 684.58 480.13 681.7 490.71 679.25 500.84 677.69 510.85 676.47 520.31 675.54 529.09 675.29 537.64 675.11 545.39 674.87 552.24 673.9 567.87 666.64 580.15 661.29 581.12 657.09 581.86 652.03 582.45 646.16 583.19 639.93 584.97 632.93 587.49 625.26 591.11 617.28 596.47 608.71 603.4 599.62 612.07 590.33 622.75 580.62 635.16 570.56 649.14 560.39 664.48 549.95 680.66 539.31 697.09 528.62 713.3 517.78 728.46 506.83 741.8 495.88 752.95 484.86 761.03 473.79 765.49 462.74 766.59 451.65 763.72 440.57 756.98 429.5 747.46 418.42 735.09 407.35 720.67 396.29 705.86 385.5 691.29 374.98 677.91 364.44 666.8 354.16 658.17 344.15 652.36 334.1 649.9 324.29 650.24 314.74 653.03 305.13 658.4 295.75 665.17 286.61 672.64 277.39 680.88 268.39 688.53 259.61 694.97 250.73 700.48 242.06 703.91 233.61 705.05 225.05 704.35 216.7 701.16 208.57 695.62 200.34 688.28 192.33 678.92 184.57 667.91 176.74 655.68 169.17 642.33 161.89 628.25 154.58 613.65 147.59 598.79 140.98 583.93 134.37 569.08 128.17 554.5 122.42 540.34 116.74 526.44 111.54 513.02 106.85 500.11 102.29 487.5 98.27 475.34 94.83 463.61 91.53 452.11 88.83 440.92 86.74 430 84.79 419.21 83.46 408.6 82.77 398.14 82.19 387.73 82.23 377.4 82.9 367.18 83.64 356.95 84.97 347.05 86.84 337.49 88.72 327.94 91.1 318.75 93.94 309.96 96.73 301.19 99.95 292.86 103.56 285 107.06 277.19 110.93 269.87 115.13 263.07 119.2 256.3 123.58 250.03 128.27 244.24 132.8 238.4 137.64 232.97 142.77 227.9 147.76 222.62 153.06 217.56 158.66 212.64 164.17 207.29 170 201.91 176.15 196.42 182.24 190.31 188.68 183.95 195.46 177.31 202.22 169.97 209.34 162.33 216.81 154.44 224.29 146.01 232.12 137.47 240.27 128.97 248.46 120.33 256.98 112.04 265.78 104.3 274.63 96.94 283.76 90.48 293.14 85.12 302.56 80.58 312.2 77.36 322.05 75.54 331.91 74.65 341.96 75.12 352.15 76.87 362.35 79.22 372.69 82.5 383.13 86.54" stroke-dasharray="0 0" transform="rotate(0, 400, 400)" opacity="0.26"></path><path d="M383.01 97.11C393.11 101.08 403.08 105.22 412.93 109.3 422.79 112.69 432.53 115.75 442.13 118.41 451.77 120.15 461.3 121.5 470.72 122.54 480.21 122.83 489.63 123.05 498.97 123.34 508.43 123.34 517.86 123.75 527.27 124.71 536.83 125.87 546.4 127.85 555.99 130.74 565.75 134.17 575.54 138.63 585.33 144.09 595.27 150.22 605.18 157.32 615.02 165.3 624.92 173.88 634.66 183.2 644.14 193.13 653.53 203.48 662.53 214.28 671.01 225.41 679.19 236.75 686.67 248.3 693.34 259.94 699.48 271.65 704.65 283.39 708.74 295.1 712.16 306.79 714.42 318.43 715.47 330 715.87 341.53 715.13 353 713.28 364.39 710.99 375.77 707.8 387.09 703.84 398.35 699.83 409.6 695.37 420.81 690.6 431.93 686.27 443.05 682.05 453.8 678.05 464.15 674.81 474.45 671.91 484.29 669.39 493.59 667.69 502.78 666.29 511.34 665.15 519.19 664.46 530.25 663.53 547.69 662.64 553.88 658.47 561.71 644.57 568.45 636.92 571.08 631.24 574.07 624.83 577.91 617.76 582.89 610.41 589.54 602.47 597.67 594.01 607.39 585.34 618.85 576.24 631.78 566.77 645.96 557.18 661.18 547.29 676.92 537.17 692.62 527 707.86 516.63 721.89 506.14 734.02 495.63 743.99 485.02 750.99 474.34 754.57 463.67 755.03 452.95 751.82 442.2 745.06 431.47 735.78 420.71 723.89 409.95 710.1 399.19 695.96 388.68 681.98 378.42 669.04 368.15 658.12 358.12 649.42 348.33 643.27 338.51 640.17 328.92 639.68 319.56 641.5 310.15 645.81 300.96 651.57 291.98 658.18 282.94 665.73 274.1 672.97 265.47 679.33 256.75 685.08 248.23 689.11 239.91 691.15 231.5 691.67 223.29 689.93 215.3 685.99 207.22 680.4 199.37 672.83 191.75 663.57 184.08 653.06 176.67 641.31 169.55 628.65 162.41 615.33 155.59 601.53 149.14 587.54 142.71 573.38 136.68 559.3 131.09 545.47 125.57 531.76 120.53 518.42 115.99 505.49 111.57 492.79 107.69 480.5 104.38 468.63 101.2 456.94 98.61 445.6 96.62 434.6 94.77 423.7 93.52 413.06 92.9 402.66 92.39 392.3 92.48 382.13 93.2 372.15 93.99 362.17 95.34 352.6 97.22 343.44 99.11 334.27 101.48 325.53 104.3 317.22 107.07 308.92 110.25 301.08 113.8 293.71 117.26 286.34 121.06 279.46 125.19 273.05 129.17 266.61 133.47 260.61 138.05 255.04 142.49 249.33 147.21 243.96 152.21 238.87 157.07 233.49 162.23 228.25 167.66 223.07 173 217.43 178.64 211.7 184.58 205.82 190.45 199.32 196.65 192.57 203.17 185.54 209.66 177.89 216.49 169.98 223.64 161.86 230.79 153.31 238.28 144.72 246.07 136.25 253.89 127.74 262.02 119.64 270.44 112.15 278.88 105.09 287.61 98.97 296.58 93.95 305.57 89.75 314.81 86.84 324.24 85.31 333.69 84.66 343.34 85.32 353.14 87.22 362.95 89.67 372.91 93.03 383 97.11" stroke-dasharray="0 0" transform="rotate(4.275862068965517, 400, 400)" opacity="0.47"></path><path d="M383.43 107.68C393.18 111.68 402.85 115.85 412.42 119.97 422.01 123.43 431.5 126.58 440.9 129.35 450.33 131.23 459.68 132.72 468.96 133.88 478.3 134.29 487.59 134.59 496.84 134.89 506.18 134.85 515.51 135.13 524.83 135.86 534.27 136.7 543.73 138.26 553.19 140.63 562.79 143.45 572.39 147.22 581.97 151.93 591.65 157.25 601.27 163.51 610.77 170.64 620.29 178.36 629.61 186.84 638.63 195.97 647.52 205.55 655.99 215.64 663.91 226.12 671.53 236.87 678.45 247.88 684.56 259.06 690.18 270.36 694.85 281.75 698.5 293.14 701.53 304.58 703.48 315.98 704.31 327.31 704.55 338.65 703.73 349.9 701.89 361.05 699.67 372.21 696.62 383.26 692.86 394.19 689.06 405.12 684.83 415.93 680.3 426.57 676.17 437.21 672.11 447.4 668.24 457.11 665.05 466.78 662.15 475.91 659.57 484.46 657.74 492.9 656.19 500.68 654.86 507.73 653.82 517.67 652.29 533.22 651.22 538.8 647.15 546.69 634.36 556.1 627.37 560.43 622.19 564.62 616.32 569.74 609.82 575.99 603.06 583.79 595.72 592.94 587.86 603.5 579.81 615.54 571.31 628.77 562.43 642.97 553.42 657.89 544.09 673.04 534.51 687.91 524.86 702.13 514.99 715.01 504.97 725.95 494.92 734.77 484.74 740.75 474.48 743.5 464.21 743.38 453.87 739.89 443.48 733.13 433.1 724.11 422.67 712.7 412.23 699.53 401.79 686.04 391.57 672.66 381.58 660.16 371.58 649.47 361.8 640.74 352.25 634.29 342.66 630.64 333.28 629.37 324.13 630.28 314.92 633.58 305.91 638.33 297.11 644.03 288.25 650.82 279.57 657.53 271.09 663.65 262.54 669.46 254.17 673.87 246 676.61 237.75 678.12 229.7 677.61 221.85 675.11 213.94 671.12 206.24 665.24 198.79 657.68 191.29 648.89 184.04 638.77 177.1 627.62 170.14 615.73 163.5 603.18 157.22 590.25 150.98 577.02 145.13 563.69 139.7 550.44 134.36 537.18 129.48 524.16 125.1 511.45 120.84 498.87 117.1 486.64 113.92 474.8 110.87 463.09 108.39 451.74 106.5 440.74 104.75 429.83 103.59 419.22 103.04 408.91 102.6 398.63 102.75 388.61 103.5 378.85 104.32 369.09 105.7 359.8 107.58 350.97 109.47 342.13 111.84 333.75 114.63 325.83 117.37 317.88 120.51 310.41 124.02 303.4 127.42 296.35 131.16 289.75 135.21 283.59 139.12 277.35 143.34 271.49 147.82 265.98 152.16 260.28 156.78 254.84 161.65 249.6 166.4 244.02 171.42 238.52 176.7 233.01 181.88 227.02 187.34 220.91 193.09 214.61 198.76 207.73 204.74 200.61 211.02 193.23 217.25 185.3 223.81 177.17 230.67 168.89 237.51 160.28 244.68 151.72 252.14 143.34 259.6 135.01 267.37 127.15 275.42 119.95 283.48 113.24 291.82 107.47 300.4 102.81 309 98.97 317.83 96.39 326.88 95.13 335.93 94.73 345.19 95.58 354.63 97.61 364.06 100.16 373.66 103.57 383.42 107.67" stroke-dasharray="0 0" transform="rotate(8.551724137931034, 400, 400)" opacity="0.57"></path><path d="M384.36 118.25C393.79 122.27 403.16 126.45 412.46 130.6 421.78 134.12 431.03 137.36 440.22 140.24 449.43 142.26 458.6 143.9 467.71 145.2 476.88 145.75 486.03 146.15 495.14 146.51 504.34 146.47 513.53 146.67 522.71 147.23 532 147.81 541.3 149.02 550.57 150.93 559.96 153.2 569.33 156.33 578.64 160.33 588.01 164.88 597.29 170.32 606.41 176.6 615.51 183.44 624.37 191.04 632.9 199.33 641.27 208.06 649.2 217.35 656.57 227.08 663.63 237.12 670 247.49 675.58 258.07 680.68 268.83 684.9 279.73 688.13 290.67 690.81 301.7 692.47 312.73 693.1 323.7 693.2 334.71 692.33 345.64 690.52 356.45 688.37 367.28 685.47 377.98 681.89 388.51 678.3 399.05 674.3 409.42 670 419.55 666.07 429.69 662.18 439.32 658.42 448.43 655.29 457.5 652.4 465.99 649.78 473.87 647.85 481.66 646.15 488.79 644.65 495.21 643.3 504.29 641.18 518.6 639.91 523.93 638.49 528.67 633.21 536.4 629.05 540.21 625.88 543.45 622.04 547.08 617.56 551.31 612.83 556.67 607.46 562.96 601.48 570.35 595.27 579.12 588.5 589.11 581.22 600.3 573.76 612.69 565.84 626.04 557.53 640.05 549.1 654.52 540.33 668.97 531.28 682.92 522.16 696.07 512.81 707.8 503.27 717.57 493.7 725.29 483.97 730.3 474.13 732.29 464.28 731.66 454.34 727.92 444.32 721.2 434.31 712.45 424.24 701.51 414.13 688.96 404.02 676.11 394.1 663.32 384.39 651.28 374.67 640.83 365.15 632.12 355.83 625.44 346.49 621.29 337.33 619.32 328.38 619.38 319.38 621.7 310.57 625.47 301.95 630.25 293.27 636.21 284.77 642.3 276.45 648.05 268.07 653.74 259.87 658.33 251.86 661.56 243.78 663.82 235.89 664.34 228.21 663.07 220.47 660.5 212.95 656.16 205.67 650.2 198.35 643.08 191.29 634.6 184.53 625 177.77 614.61 171.32 603.44 165.23 591.72 159.18 579.61 153.51 567.23 148.27 554.77 143.12 542.2 138.41 529.72 134.19 517.44 130.09 505.2 126.5 493.24 123.45 481.59 120.55 470.04 118.18 458.81 116.4 447.92 114.75 437.11 113.67 426.6 113.18 416.42 112.81 406.28 113.01 396.42 113.8 386.87 114.66 377.32 116.05 368.27 117.93 359.71 119.82 351.12 122.17 343.01 124.93 335.38 127.65 327.7 130.75 320.48 134.19 313.7 137.54 306.85 141.22 300.41 145.19 294.36 149.04 288.19 153.17 282.33 157.56 276.76 161.81 270.96 166.33 265.35 171.09 259.86 175.72 254.01 180.61 248.18 185.76 242.3 190.79 235.94 196.09 229.43 201.66 222.73 207.15 215.49 212.92 208.03 218.97 200.35 224.97 192.21 231.27 183.92 237.86 175.55 244.42 166.95 251.29 158.47 258.43 150.25 265.57 142.16 273 134.59 280.7 127.73 288.4 121.39 296.37 116.01 304.59 111.73 312.81 108.25 321.27 105.99 329.95 105.01 338.63 104.85 347.52 105.88 356.59 108.03 365.67 110.66 374.93 114.12 384.35 118.24" stroke-dasharray="0 0" transform="rotate(12.827586206896552, 400, 400)" opacity="0.25"></path><path d="M385.79 128.82C394.9 132.85 403.98 137.04 413.01 141.2 422.06 144.78 431.07 148.1 440.03 151.07 449.02 153.23 457.99 155.03 466.92 156.48 475.9 157.2 484.87 157.72 493.81 158.17 502.83 158.17 511.85 158.34 520.85 158.79 529.94 159.18 539.02 160.1 548.06 161.62 557.19 163.41 566.27 165.97 575.26 169.32 584.29 173.13 593.18 177.78 601.88 183.24 610.53 189.21 618.91 195.93 626.93 203.33 634.78 211.19 642.16 219.62 648.98 228.53 655.49 237.77 661.32 247.38 666.39 257.27 671.02 267.37 674.79 277.64 677.65 288.02 680 298.51 681.41 309.04 681.86 319.54 681.84 330.1 680.93 340.6 679.15 350.97 677.09 361.38 674.32 371.65 670.94 381.72 667.56 391.82 663.77 401.71 659.7 411.32 655.96 420.94 652.24 430.04 648.61 438.58 645.55 447.1 642.68 455.03 640.03 462.34 638.01 469.6 636.18 476.21 634.53 482.16 632.89 490.64 630.2 504.33 628.72 509.74 627.18 514.86 622.02 524.33 618.12 529.47 615.19 533.69 611.66 538.39 607.53 543.75 603.2 550.18 598.28 557.52 592.78 565.87 587.08 575.43 580.83 586.04 574.1 597.65 567.19 610.21 559.84 623.46 552.09 637.13 544.22 651 536 664.64 527.48 677.61 518.9 689.67 510.06 700.25 501.01 708.88 491.92 715.55 482.66 719.66 473.26 720.96 463.84 719.86 454.31 715.92 444.68 709.27 435.06 700.8 425.35 690.34 415.58 678.39 405.81 666.17 396.21 653.96 386.79 642.38 377.36 632.21 368.11 623.56 359.04 616.7 349.94 612.13 341.02 609.53 332.28 608.8 323.51 610.2 314.9 613.01 306.46 616.87 297.99 621.97 289.67 627.35 281.53 632.61 273.34 638.03 265.32 642.62 257.48 646.12 249.58 648.93 241.88 650.24 234.37 649.99 226.82 648.65 219.49 645.68 212.39 641.19 205.28 635.62 198.42 628.71 191.85 620.65 185.3 611.79 179.05 602.05 173.16 591.66 167.32 580.79 161.85 569.52 156.8 558.02 151.84 546.33 147.31 534.59 143.26 522.93 139.34 511.24 135.9 499.72 132.99 488.44 130.22 477.21 127.99 466.24 126.3 455.59 124.76 444.98 123.77 434.67 123.34 424.68 123.04 414.72 123.29 405.06 124.1 395.71 124.99 386.35 126.39 377.51 128.26 369.16 130.15 360.79 132.47 352.89 135.2 345.44 137.89 337.94 140.94 330.87 144.33 324.21 147.63 317.46 151.24 311.07 155.14 305.01 158.92 298.79 162.97 292.84 167.27 287.1 171.43 281.11 175.85 275.25 180.51 269.45 185.03 263.29 189.81 257.09 194.82 250.81 199.72 244.08 204.87 237.19 210.27 230.12 215.59 222.57 221.17 214.82 227.01 206.91 232.8 198.62 238.86 190.24 245.2 181.87 251.5 173.35 258.08 165.02 264.94 157.03 271.77 149.23 278.89 142 286.26 135.51 293.63 129.58 301.25 124.6 309.12 120.7 316.99 117.59 325.1 115.66 333.42 114.96 341.74 115.02 350.28 116.22 359.01 118.48 367.75 121.19 376.67 124.69 385.78 128.81" stroke-dasharray="0 0" transform="rotate(17.103448275862068, 400, 400)" opacity="0.49"></path><path d="M387.67 139.38C396.47 143.41 405.26 147.59 414.02 151.77 422.79 155.39 431.55 158.78 440.28 161.85 449.04 164.15 457.78 166.1 466.51 167.71 475.27 168.6 484.04 169.28 492.78 169.85 501.58 169.93 510.38 170.12 519.16 170.52 528 170.78 536.82 171.47 545.59 172.68 554.4 174.06 563.15 176.12 571.78 178.89 580.42 182.03 588.9 185.95 597.15 190.62 605.32 195.75 613.2 201.61 620.7 208.13 628.01 215.08 634.85 222.62 641.13 230.67 647.1 239.05 652.42 247.84 657.01 256.94 661.18 266.28 664.55 275.84 667.05 285.54 669.11 295.4 670.29 305.32 670.58 315.24 670.46 325.25 669.53 335.21 667.8 345.07 665.82 354.97 663.2 364.74 660 374.31 656.82 383.91 653.25 393.29 649.4 402.39 645.85 411.49 642.29 420.07 638.8 428.11 635.81 436.13 632.96 443.58 630.31 450.45 628.21 457.27 626.28 463.51 624.5 469.15 622.6 477.28 619.37 490.9 617.68 496.65 615.99 502.39 610.87 513.92 607.17 520.44 604.43 525.62 601.16 531.33 597.34 537.73 593.36 545.1 588.82 553.32 583.75 562.45 578.52 572.59 572.76 583.62 566.53 595.43 560.15 607.95 553.33 620.93 546.11 634.1 538.79 647.26 531.1 660.01 523.11 671.95 515.05 682.9 506.72 692.35 498.16 699.88 489.57 705.56 480.77 708.83 471.82 709.5 462.85 708 453.73 703.9 444.51 697.34 435.28 689.17 425.95 679.18 416.53 667.82 407.12 656.22 397.85 644.59 388.73 633.48 379.61 623.61 370.63 615.05 361.82 608.07 353 603.13 344.32 599.97 335.8 598.53 327.26 599.06 318.87 600.96 310.64 603.9 302.38 608.12 294.26 612.75 286.32 617.42 278.33 622.43 270.5 626.86 262.85 630.45 255.16 633.59 247.65 635.48 240.34 636.03 233 635.7 225.87 633.91 218.98 630.71 212.08 626.56 205.43 621.12 199.07 614.53 192.74 607.16 186.71 598.87 181.02 589.83 175.4 580.29 170.14 570.23 165.29 559.82 160.53 549.15 156.2 538.31 152.32 527.43 148.58 516.45 145.3 505.54 142.54 494.79 139.91 484.03 137.8 473.46 136.22 463.15 134.78 452.87 133.87 442.84 133.51 433.1 133.27 423.39 133.56 413.95 134.4 404.81 135.31 395.67 136.71 387.02 138.58 378.84 140.45 370.64 142.76 362.88 145.44 355.54 148.09 348.15 151.09 341.15 154.42 334.51 157.67 327.76 161.22 321.33 165.04 315.17 168.74 308.83 172.72 302.7 176.93 296.73 181.01 290.49 185.34 284.32 189.89 278.18 194.32 271.68 198.98 265.12 203.86 258.45 208.64 251.38 213.65 244.14 218.9 236.75 224.05 228.94 229.46 220.99 235.11 212.92 240.7 204.56 246.55 196.18 252.65 187.87 258.71 179.51 265.04 171.41 271.62 163.7 278.17 156.25 284.99 149.41 292.06 143.33 299.12 137.82 306.42 133.26 313.97 129.76 321.5 127.02 329.27 125.41 337.26 124.98 345.25 125.26 353.45 126.61 361.85 128.98 370.26 131.75 378.86 135.27 387.66 139.38" stroke-dasharray="0 0" transform="rotate(21.379310344827587, 400, 400)" opacity="0.56"></path><path d="M389.94 149.95C398.43 153.96 406.93 158.13 415.41 162.3 423.91 165.95 432.41 169.4 440.89 172.57 449.4 175 457.9 177.1 466.39 178.88 474.92 179.95 483.44 180.81 491.95 181.51 500.5 181.72 509.04 181.97 517.55 182.37 526.1 182.56 534.62 183.1 543.06 184.07 551.53 185.13 559.91 186.76 568.14 189.03 576.36 191.58 584.38 194.83 592.16 198.78 599.84 203.12 607.21 208.14 614.18 213.82 620.96 219.88 627.26 226.53 633.02 233.69 638.48 241.18 643.3 249.1 647.43 257.36 651.18 265.88 654.17 274.65 656.36 283.61 658.14 292.73 659.11 301.96 659.27 311.22 659.08 320.59 658.13 329.94 656.45 339.22 654.58 348.55 652.1 357.76 649.08 366.79 646.09 375.85 642.74 384.71 639.1 393.3 635.74 401.89 632.34 410 628.98 417.6 626.07 425.17 623.27 432.23 620.61 438.76 617.45 448.27 612.41 464.75 610.32 471.86 608.68 478.74 604.94 491.57 602.51 498.02 600.83 502.8 598.74 507.81 596.22 513.17 593.64 519.24 590.58 525.87 587.02 533.16 583.34 541.31 579.15 550.23 574.47 559.93 569.64 570.46 564.33 581.69 558.57 593.5 552.68 605.79 546.36 618.34 539.65 630.88 532.84 643.23 525.67 655.02 518.19 665.9 510.64 675.75 502.81 684.09 494.74 690.57 486.63 695.32 478.31 697.82 469.8 697.92 461.28 696.06 452.6 691.85 443.78 685.41 434.96 677.54 426.01 668.03 416.97 657.25 407.92 646.26 398.99 635.2 390.19 624.56 381.38 615.01 372.71 606.58 364.17 599.53 355.62 594.3 347.2 590.65 338.93 588.56 330.64 588.3 322.48 589.32 314.47 591.39 306.43 594.71 298.54 598.54 290.8 602.57 283.03 607.05 275.42 611.18 267.98 614.69 260.51 617.95 253.21 620.21 246.11 621.34 239 621.8 232.09 620.98 225.42 618.88 218.75 615.99 212.34 611.87 206.2 606.63 200.1 600.69 194.3 593.8 188.83 586.11 183.44 577.91 178.4 569.11 173.75 559.86 169.21 550.31 165.07 540.48 161.38 530.49 157.82 520.37 154.71 510.2 152.09 500.09 149.61 489.94 147.62 479.9 146.15 470.04 144.81 460.18 143.99 450.52 143.69 441.1 143.51 431.7 143.84 422.52 144.7 413.61 145.63 404.69 147.03 396.23 148.88 388.2 150.74 380.14 153.01 372.48 155.65 365.21 158.26 357.87 161.21 350.87 164.47 344.19 167.66 337.39 171.14 330.84 174.88 324.51 178.52 318.01 182.41 311.65 186.54 305.39 190.54 298.88 194.78 292.4 199.23 285.9 203.56 279.07 208.11 272.17 212.88 265.15 217.53 257.78 222.42 250.26 227.52 242.61 232.53 234.63 237.77 226.55 243.25 218.4 248.65 210.06 254.3 201.77 260.19 193.61 266.02 185.49 272.11 177.68 278.44 170.31 284.74 163.25 291.28 156.83 298.07 151.19 304.83 146.13 311.84 142 319.07 138.9 326.29 136.53 333.75 135.25 341.42 135.07 349.09 135.56 356.97 137.06 365.06 139.5 373.14 142.33 381.43 145.85 389.93 149.95" stroke-dasharray="0 0" transform="rotate(25.655172413793103, 400, 400)" opacity="0.08"></path><path d="M392.52 160.52C400.71 164.5 408.92 168.64 417.12 172.79 425.34 176.47 433.56 179.97 441.78 183.21 450.01 185.77 458.26 188.02 466.48 189.97 474.74 191.23 483 192.27 491.23 193.14 499.5 193.51 507.74 193.86 515.94 194.31 524.17 194.49 532.34 194.95 540.42 195.75 548.51 196.56 556.48 197.86 564.28 199.7 572.05 201.75 579.6 204.42 586.89 207.72 594.07 211.33 600.92 215.59 607.36 220.46 613.62 225.67 619.4 231.45 624.65 237.74 629.61 244.33 633.97 251.37 637.67 258.78 641.02 266.43 643.66 274.38 645.56 282.54 647.1 290.87 647.9 299.35 647.95 307.9 647.69 316.57 646.74 325.25 645.13 333.9 643.35 342.6 641.01 351.22 638.18 359.7 635.38 368.2 632.23 376.53 628.8 384.63 625.63 392.74 622.39 400.4 619.16 407.62 616.34 414.82 613.59 421.57 610.94 427.86 607.72 437.08 602.34 453.51 600.02 460.9 598.15 468.23 594.03 482.6 591.52 490.11 589.82 495.63 587.76 501.44 585.33 507.65 582.87 514.51 579.97 521.92 576.64 529.93 573.21 538.69 569.32 548.11 564.98 558.17 560.52 568.87 555.61 580.1 550.27 591.72 544.82 603.62 538.96 615.59 532.73 627.38 526.4 638.84 519.73 649.63 512.74 659.43 505.69 668.19 498.34 675.46 490.75 680.96 483.12 684.84 475.26 686.64 467.21 686.23 459.14 684.07 450.89 679.79 442.49 673.49 434.08 665.93 425.53 656.88 416.87 646.69 408.2 636.28 399.62 625.79 391.15 615.63 382.68 606.41 374.31 598.15 366.06 591.08 357.8 585.62 349.66 581.56 341.65 578.9 333.62 577.91 325.71 578.12 317.94 579.33 310.16 581.78 302.5 584.8 294.99 588.11 287.46 592 280.08 595.69 272.87 598.97 265.64 602.19 258.58 604.62 251.71 606.13 244.84 607.15 238.17 607.08 231.74 605.89 225.32 604.04 219.14 601.07 213.24 597.05 207.39 592.4 201.83 586.82 196.6 580.42 191.44 573.53 186.63 565.99 182.2 557.92 177.87 549.53 173.94 540.77 170.44 531.76 167.06 522.58 164.12 513.26 161.66 503.89 159.32 494.45 157.46 485.04 156.1 475.71 154.86 466.38 154.12 457.17 153.89 448.12 153.76 439.09 154.12 430.23 155 421.56 155.94 412.9 157.34 404.63 159.16 396.73 161.01 388.81 163.24 381.23 165.83 373.98 168.39 366.67 171.29 359.64 174.48 352.86 177.61 345.97 181.01 339.27 184.67 332.75 188.24 326.04 192.05 319.44 196.09 312.89 200.01 306.11 204.15 299.32 208.5 292.5 212.74 285.38 217.19 278.18 221.84 270.88 226.39 263.27 231.14 255.55 236.11 247.73 240.98 239.67 246.07 231.55 251.38 223.43 256.62 215.19 262.08 207.07 267.76 199.14 273.4 191.32 279.26 183.87 285.36 176.89 291.41 170.28 297.71 164.32 304.22 159.14 310.72 154.53 317.44 150.84 324.39 148.15 331.32 146.14 338.48 145.16 345.84 145.23 353.2 145.92 360.78 147.55 368.56 150.07 376.34 152.93 384.32 156.46 392.51 160.52" stroke-dasharray="0 0" transform="rotate(29.931034482758623, 400, 400)" opacity="0.53"></path><path d="M395.34 171.09C403.23 175.03 411.14 179.13 419.05 183.25 426.97 186.94 434.91 190.48 442.84 193.79 450.79 196.47 458.75 198.86 466.69 200.97 474.65 202.43 482.61 203.66 490.53 204.71 498.48 205.25 506.4 205.75 514.25 206.29 522.12 206.53 529.92 206.96 537.6 207.67 545.28 208.31 552.81 209.36 560.16 210.87 567.46 212.5 574.53 214.68 581.31 217.42 587.98 220.39 594.31 223.96 600.24 228.09 605.98 232.51 611.26 237.47 616.02 242.93 620.52 248.66 624.44 254.84 627.73 261.4 630.72 268.18 633.04 275.28 634.68 282.63 636.01 290.14 636.65 297.84 636.6 305.66 636.3 313.58 635.36 321.57 633.82 329.56 632.14 337.61 629.94 345.61 627.29 353.53 624.67 361.47 621.72 369.28 618.5 376.92 615.51 384.56 612.43 391.83 609.34 398.72 606.61 405.6 603.92 412.12 601.3 418.26 599.1 424.41 596.96 430.23 594.89 435.74 592.37 443.97 587.76 459.63 585.46 467.38 584.08 472.84 582.5 478.4 580.68 484.15 578.94 490.35 576.9 496.88 574.52 503.81 572.15 511.32 569.38 519.33 566.23 527.89 563.01 537.05 559.38 546.76 555.33 556.97 551.19 567.65 546.64 578.69 541.69 589.94 536.64 601.31 531.21 612.59 525.42 623.53 519.55 634.04 513.33 643.81 506.81 652.53 500.23 660.23 493.36 666.48 486.23 671.04 479.07 674.12 471.67 675.28 464.06 674.43 456.44 672.03 448.62 667.71 440.64 661.57 432.65 654.34 424.51 645.75 416.23 636.12 407.95 626.3 399.74 616.36 391.61 606.69 383.48 597.82 375.44 589.75 367.5 582.71 359.55 577.08 351.7 572.68 343.97 569.52 336.22 567.88 328.59 567.34 321.08 567.75 313.56 569.35 306.16 571.55 298.9 574.13 291.63 577.34 284.5 580.52 277.54 583.44 270.56 586.45 263.76 588.87 257.14 590.56 250.53 591.95 244.12 592.41 237.94 591.91 231.78 590.91 225.87 588.9 220.22 585.92 214.63 582.41 209.32 578 204.33 572.79 199.42 567.14 194.85 560.79 190.64 553.88 186.53 546.66 182.81 538.98 179.51 530.98 176.31 522.79 173.55 514.36 171.24 505.8 169.05 497.16 167.32 488.44 166.06 479.73 164.93 470.99 164.26 462.29 164.09 453.68 164.01 445.07 164.41 436.56 165.3 428.18 166.25 419.8 167.64 411.73 169.44 403.97 171.25 396.19 173.44 388.69 175.98 381.45 178.49 374.15 181.32 367.07 184.44 360.19 187.5 353.2 190.83 346.36 194.41 339.62 197.9 332.73 201.63 325.89 205.57 319.08 209.41 312.06 213.46 305.01 217.71 297.91 221.85 290.57 226.2 283.14 230.74 275.63 235.18 267.88 239.81 260.05 244.64 252.16 249.39 244.11 254.34 236.05 259.49 228.04 264.56 220.01 269.85 212.14 275.35 204.53 280.79 197.08 286.45 190.03 292.33 183.51 298.16 177.36 304.21 171.89 310.48 167.19 316.72 163.06 323.18 159.81 329.86 157.51 336.51 155.86 343.38 155.18 350.46 155.48 357.53 156.35 364.81 158.1 372.29 160.68 379.76 163.56 387.45 167.07 395.33 171.09" stroke-dasharray="0 0" transform="rotate(34.206896551724135, 400, 400)" opacity="0.33"></path><path d="M398.31 181.66C405.89 185.55 413.5 189.6 421.11 193.68 428.73 197.36 436.36 200.93 443.99 204.29 451.64 207.07 459.28 209.6 466.91 211.86 474.55 213.52 482.18 214.95 489.77 216.19 497.37 216.93 504.92 217.6 512.4 218.27 519.88 218.61 527.27 219.08 534.53 219.76 541.77 220.31 548.85 221.2 555.73 222.46 562.54 223.78 569.12 225.56 575.4 227.83 581.56 230.26 587.39 233.23 592.81 236.71 598.05 240.42 602.85 244.63 607.14 249.33 611.2 254.24 614.71 259.6 617.63 265.35 620.28 271.29 622.32 277.57 623.73 284.12 624.86 290.81 625.37 297.73 625.25 304.81 624.91 311.98 624 319.26 622.53 326.6 620.95 333.98 618.9 341.38 616.42 348.74 613.98 356.12 611.22 363.43 608.2 370.64 605.38 377.84 602.47 384.76 599.52 391.38 596.88 398 594.26 404.33 591.69 410.39 589.47 416.47 587.3 422.32 585.17 427.95 583.4 433.66 581.62 439.22 579.83 444.68 578.33 450.32 576.75 455.94 575.06 461.63 573.56 467.6 571.89 473.73 570.01 480.11 568.23 486.88 566.18 494 563.84 501.51 561.52 509.5 558.86 517.94 555.85 526.84 552.81 536.21 549.39 546.01 545.6 556.17 541.74 566.63 537.5 577.31 532.89 588.04 528.21 598.75 523.16 609.22 517.78 619.26 512.32 628.79 506.54 637.51 500.46 645.18 494.32 651.85 487.9 657.13 481.22 660.83 474.51 663.18 467.56 663.77 460.39 662.54 453.21 659.94 445.83 655.61 438.27 649.66 430.7 642.76 422.97 634.63 415.08 625.55 407.2 616.3 399.37 606.91 391.59 597.72 383.82 589.22 376.12 581.39 368.5 574.42 360.88 568.68 353.34 564.01 345.9 560.43 338.46 558.2 331.11 556.98 323.88 556.65 316.65 557.45 309.53 558.85 302.54 560.67 295.55 563.18 288.7 565.76 282 568.22 275.31 570.9 268.78 573.16 262.43 574.86 256.1 576.4 249.96 577.2 244.05 577.19 235.35 576.18 219.3 569.19 212.04 563.34 207.39 558.79 203.05 553.56 199.08 547.73 195.2 541.61 191.69 535 188.58 527.99 185.59 520.8 183 513.29 180.84 505.57 178.8 497.75 177.19 489.78 176.04 481.72 175.01 473.63 174.42 465.49 174.3 457.36 174.28 449.22 174.71 441.11 175.6 433.04 176.56 424.97 177.93 417.14 179.69 409.53 181.48 401.91 183.62 394.5 186.09 387.28 188.55 380.01 191.31 372.9 194.35 365.92 197.34 358.86 200.59 351.88 204.08 344.97 207.49 337.92 211.13 330.9 214.97 323.87 218.73 316.66 222.68 309.42 226.83 302.12 230.88 294.64 235.13 287.08 239.55 279.45 243.88 271.66 248.4 263.82 253.1 255.97 257.72 248.02 262.53 240.13 267.53 232.34 272.46 224.59 277.58 217.05 282.9 209.83 288.16 202.81 293.63 196.23 299.3 190.19 304.92 184.55 310.75 179.58 316.78 175.37 322.78 171.71 328.99 168.9 335.41 166.99 341.8 165.68 348.4 165.29 355.19 165.81 361.98 166.84 368.97 168.69 376.16 171.32 383.34 174.21 390.72 177.69 398.3 181.65" stroke-dasharray="0 0" transform="rotate(38.48275862068966, 400, 400)" opacity="0.14"></path><path d="M401.33 192.23C408.6 196.05 415.9 200.04 423.2 204.06 430.5 207.74 437.82 211.31 445.13 214.71 452.45 217.58 459.76 220.23 467.05 222.64 474.35 224.48 481.62 226.11 488.84 227.56 496.07 228.51 503.24 229.38 510.31 230.2 517.38 230.68 524.34 231.25 531.16 231.96 537.94 232.5 544.55 233.3 550.95 234.4 557.28 235.49 563.36 236.98 569.14 238.88 577.47 242.12 592 251.15 598.02 256.94 603.23 263.42 610.61 278.62 612.7 287.16 613.67 293.08 614.06 299.24 613.89 305.6 613.53 312.04 612.65 318.64 611.26 325.33 609.78 332.07 607.87 338.87 605.56 345.7 603.3 352.54 600.73 359.38 597.9 366.18 595.25 372.98 592.5 379.59 589.69 385.98 587.16 392.37 584.62 398.57 582.09 404.59 579.89 410.64 577.7 416.54 575.53 422.33 573.68 428.2 571.82 434.02 569.94 439.81 568.32 445.78 566.62 451.82 564.83 457.97 563.23 464.38 561.47 471 559.53 477.87 557.69 485.09 555.63 492.64 553.3 500.55 551.02 508.84 548.44 517.52 545.55 526.56 542.64 535.94 539.41 545.63 535.83 555.55 532.21 565.64 528.25 575.79 523.95 585.88 519.59 595.82 514.89 605.42 509.87 614.5 504.8 623.03 499.42 630.72 493.75 637.36 488.03 643.05 482.04 647.43 475.79 650.33 469.51 652.02 462.99 652.11 456.26 650.55 449.51 647.8 442.55 643.5 435.41 637.76 428.26 631.19 420.94 623.52 413.46 614.98 405.98 606.29 398.53 597.45 391.13 588.74 383.72 580.62 376.37 573.04 369.09 566.19 361.81 560.4 354.6 555.53 347.48 551.6 340.36 548.87 333.32 547.05 326.39 546.04 319.47 546.08 312.64 546.72 305.95 547.8 299.26 549.58 292.7 551.52 286.29 553.45 279.89 555.68 273.65 557.64 267.6 559.2 258.64 561.2 241.82 561.64 234.04 559.83 226.61 556.77 213.31 546.53 207.53 539.56 203.88 534.46 200.59 528.84 197.68 522.78 194.88 516.54 192.46 509.94 190.46 503.05 188.57 496.06 187.09 488.85 186.04 481.47 185.1 474.05 184.59 466.51 184.53 458.89 184.55 451.26 185 443.57 185.9 435.85 186.86 428.13 188.21 420.56 189.94 413.14 191.68 405.71 193.78 398.41 196.18 391.24 198.58 384.03 201.26 376.92 204.22 369.89 207.13 362.78 210.3 355.72 213.69 348.69 217.01 341.55 220.56 334.4 224.3 327.23 227.96 319.93 231.82 312.57 235.86 305.18 239.82 297.64 243.95 290.05 248.26 282.43 252.49 274.7 256.89 266.96 261.46 259.25 265.96 251.52 270.63 243.88 275.48 236.4 280.27 229.02 285.23 221.89 290.38 215.11 295.47 208.58 300.75 202.51 306.22 196.99 311.64 191.88 317.26 187.43 323.07 183.72 328.84 180.53 334.81 178.14 340.97 176.61 347.11 175.63 353.45 175.5 359.97 176.22 366.48 177.4 373.19 179.34 380.08 182 386.97 184.89 394.05 188.33 401.32 192.22" stroke-dasharray="0 0" transform="rotate(42.758620689655174, 400, 400)" opacity="0.36"></path><path d="M404.31 202.8C411.27 206.55 418.24 210.45 425.22 214.41 432.2 218.05 439.18 221.62 446.15 225.05 453.13 228 460.09 230.75 467.02 233.29 473.95 235.31 480.85 237.13 487.68 238.78 494.51 239.95 501.27 241.02 507.92 242.04 514.56 242.69 521.07 243.4 527.43 244.19 533.75 244.78 539.89 245.57 545.81 246.6 554.44 248.2 570.13 253.18 577.02 256.7 583.27 260.79 593.32 271.23 596.99 277.53 599.83 284.36 602.59 299.77 602.53 308.19 602.16 313.94 601.32 319.88 600.01 325.97 598.64 332.09 596.86 338.34 594.72 344.66 592.63 350.99 590.24 357.39 587.6 363.83 585.12 370.26 582.53 376.58 579.86 382.77 577.44 388.97 574.98 395.07 572.52 401.06 570.33 407.1 568.15 413.07 565.96 419 564.06 425.03 562.13 431.07 560.17 437.16 558.45 443.41 556.66 449.78 554.78 456.3 553.08 463.05 551.24 470.03 549.25 477.26 547.36 484.77 545.27 492.59 542.95 500.7 540.69 509.11 538.17 517.83 535.37 526.81 532.58 536.01 529.49 545.41 526.1 554.92 522.69 564.48 518.96 574 514.93 583.33 510.86 592.42 506.47 601.11 501.79 609.21 497.07 616.73 492.06 623.41 486.76 629.07 481.44 633.84 475.84 637.38 470.01 639.56 464.14 640.66 458.04 640.31 451.72 638.49 445.39 635.63 438.85 631.39 432.12 625.87 425.39 619.64 418.48 612.42 411.41 604.41 404.34 596.27 397.28 587.96 390.25 579.74 383.23 572.01 376.24 564.72 369.31 558.02 362.39 552.24 355.52 547.22 348.73 543.02 341.95 539.88 335.24 537.53 328.64 535.92 322.03 535.26 315.53 535.18 309.15 535.55 302.78 536.61 296.53 537.88 290.43 539.23 284.35 540.94 278.42 542.5 272.66 543.79 264.17 545.61 248.25 546.57 240.9 545.4 233.9 543.24 221.41 535.25 216 529.55 212.59 525.34 209.51 520.61 206.81 515.42 204.2 510.07 201.96 504.32 200.11 498.23 198.36 492.05 197.01 485.58 196.07 478.88 195.22 472.13 194.78 465.2 194.76 458.1 194.83 451 195.3 443.77 196.2 436.43 197.15 429.08 198.48 421.81 200.16 414.61 201.87 407.41 203.9 400.27 206.24 393.2 208.56 386.1 211.17 379.04 214.03 372.01 216.86 364.93 219.93 357.85 223.22 350.78 226.46 343.62 229.9 336.43 233.54 329.22 237.1 321.91 240.86 314.55 244.78 307.16 248.63 299.68 252.66 292.18 256.85 284.67 260.96 277.11 265.25 269.58 269.69 262.13 274.06 254.7 278.6 247.41 283.3 240.33 287.94 233.39 292.76 226.74 297.73 220.47 302.66 214.47 307.76 208.94 313.03 203.96 318.27 199.39 323.68 195.46 329.26 192.24 334.82 189.51 340.56 187.54 346.47 186.37 352.37 185.7 358.45 185.82 364.7 186.72 370.94 188.03 377.37 190.05 383.97 192.71 390.57 195.59 397.35 198.98 404.3 202.79" stroke-dasharray="0 0" transform="rotate(47.03448275862069, 400, 400)" opacity="0.18"></path><path d="M407.15 213.37C413.79 217.03 420.43 220.84 427.07 224.72 433.71 228.32 440.35 231.87 446.96 235.3 453.58 238.31 460.17 241.15 466.72 243.81 473.27 245.99 479.77 247.99 486.2 249.83 492.62 251.23 498.95 252.51 505.16 253.73 511.36 254.59 517.42 255.46 523.31 256.39 532 257.51 548.18 260.45 555.55 262.5 562.44 264.84 574.29 271.34 579.1 275.56 583.24 280.28 588.95 291.62 590.49 298.18 591.3 305.14 590.41 320.42 588.78 328.63 587.51 334.19 585.88 339.91 583.9 345.77 581.96 351.64 579.75 357.63 577.3 363.72 574.99 369.81 572.55 375.87 570.03 381.88 567.72 387.9 565.35 393.9 562.96 399.87 560.81 405.88 558.64 411.91 556.46 417.96 554.52 424.09 552.54 430.3 550.53 436.61 548.74 443.06 546.87 449.66 544.92 456.44 543.13 463.4 541.22 470.59 539.17 478.01 537.23 485.65 535.12 493.55 532.8 501.68 530.55 510.03 528.07 518.6 525.35 527.33 522.65 536.2 519.69 545.15 516.46 554.11 513.22 563.02 509.7 571.78 505.9 580.28 502.08 588.48 497.98 596.22 493.6 603.33 489.2 609.87 484.52 615.58 479.58 620.31 472.01 625.61 455.62 628.74 446.85 626.35 440.93 623.42 434.8 619.27 428.48 613.99 422.16 608.1 415.66 601.33 409 593.84 402.34 586.24 395.68 578.46 389.04 570.72 382.4 563.39 375.79 556.41 369.23 549.9 362.67 544.17 356.17 539.08 349.73 534.68 343.3 531.2 336.94 528.4 330.67 526.27 324.41 524.99 318.24 524.24 312.19 523.94 303.2 524.6 285.91 527.33 277.67 528.79 269.66 530.25 254.67 531.22 247.78 530.43 241.21 528.88 229.54 522.63 224.49 517.97 219.9 512.53 212.51 499.07 209.78 491.23 208.18 485.79 206.95 480.03 206.11 473.98 205.36 467.9 204.99 461.56 205.01 455 205.12 448.44 205.61 441.67 206.5 434.74 207.44 427.8 208.74 420.86 210.38 413.94 212.03 407 214 400.08 216.26 393.16 218.51 386.22 221.03 379.28 223.8 372.33 226.54 365.35 229.51 358.34 232.69 351.31 235.82 344.23 239.16 337.1 242.68 329.95 246.14 322.74 249.79 315.49 253.59 308.23 257.34 300.92 261.25 293.61 265.31 286.33 269.31 279.05 273.47 271.83 277.77 264.73 282.02 257.71 286.42 250.86 290.97 244.24 295.47 237.81 300.13 231.69 304.94 225.96 309.7 220.52 314.62 215.56 319.71 211.14 324.75 207.11 329.96 203.7 335.33 200.97 343.42 197.9 360.41 196.08 369.31 197.31 375.29 198.74 381.43 200.8 387.74 203.47 394.04 206.32 400.51 209.64 407.14 213.36" stroke-dasharray="0 0" transform="rotate(51.310344827586206, 400, 400)" opacity="0.38"></path><path d="M409.77 223.93C416.07 227.5 422.38 231.21 428.67 235 434.96 238.53 441.23 242.04 447.48 245.46 453.72 248.51 459.93 251.42 466.09 254.18 472.24 256.5 478.33 258.67 484.34 260.7 496.31 263.5 507.87 266.01 518.77 268.47 529.49 269.95 539.39 271.98 548.2 274.82 556.61 277.42 563.74 281.24 569.33 286.34 576.03 294.9 579.99 312.19 579.82 318.86 579.09 325.84 575.66 340.97 573.09 349.03 571.31 354.47 569.28 360.09 567 365.87 564.85 371.65 562.57 377.46 560.19 383.29 557.99 389.14 555.73 395.02 553.42 400.94 551.32 406.91 549.18 412.94 547.01 419.05 545.06 425.23 543.06 431.53 541.01 437.96 537.49 451.17 533.62 465.12 529.32 479.82 525.45 495.16 520.88 511.3 515.53 527.89 510.3 544.62 504.1 561.15 496.94 576.63 489.73 590.81 481.48 602.63 472.28 611.08 465.22 615.24 449.93 616.84 441.75 614.14 436.21 611.18 430.48 607.15 424.57 602.12 418.65 596.58 412.56 590.25 406.31 583.27 400.05 576.19 393.79 568.93 387.55 561.68 381.3 554.76 375.08 548.1 368.9 541.83 362.72 536.2 356.58 531.09 350.51 526.56 344.45 522.82 338.45 519.66 332.53 517.08 320.74 514.19 309.32 512.98 298.42 512.79 287.63 514.26 277.42 515.46 267.98 515.75 258.73 516.23 250.32 515 242.94 511.86 235.85 508.25 229.86 502.64 225.16 495.17 221.99 489.13 217.48 474.97 216.18 466.98 215.51 461.5 215.21 455.74 215.28 449.72 215.42 443.68 215.92 437.4 216.8 430.89 217.73 424.38 219 417.81 220.58 411.2 222.18 404.58 224.08 397.92 226.25 391.22 228.42 384.52 230.85 377.77 233.51 370.99 236.15 364.19 239.02 357.34 242.08 350.45 248.09 336.61 254.86 322.58 262.28 308.55 269.47 294.51 277.3 280.61 285.69 267.21 293.85 254.25 302.63 242.24 311.95 231.67 321.1 222.27 330.86 214.87 341.19 209.92 348.96 207.47 365.23 206.52 373.73 208 379.43 209.51 385.29 211.62 391.3 214.27 397.3 217.07 403.46 220.31 409.76 223.93" stroke-dasharray="0 0" transform="rotate(55.58620689655172, 400, 400)" opacity="0.60"></path><path d="M412.08 234.5C424.01 241.29 435.9 248.46 447.62 255.54 459.35 261.3 470.88 266.6 482.04 271.34 493.15 274.58 503.8 277.52 513.79 280.36 523.59 282.19 532.57 284.42 540.51 287.28 548.08 289.76 554.44 293.26 559.37 297.86 563.82 302.46 566.77 308.3 568.12 315.3 569.03 322.4 568.45 330.61 566.41 339.81 564.27 349.03 560.99 359.17 556.7 370.14 552.84 381.11 548.5 392.44 543.89 404.08 540.01 415.85 535.9 428.12 531.61 440.9 528 454.03 524.04 467.88 519.69 482.35 515.75 497.22 511.18 512.64 505.94 528.22 500.85 543.66 494.91 558.61 488.11 572.3 481.3 584.62 473.57 594.59 464.97 601.38 456.31 605.52 446.79 605.77 436.49 601.87 426.17 595.4 415.1 585.45 403.41 572.7 391.72 559.6 379.99 546.28 368.39 533.78 356.82 523.43 345.4 514.89 334.29 508.33 323.24 504.44 312.54 502.07 302.35 500.72 292.27 501.02 282.75 501.31 273.97 501.01 265.37 501.14 257.57 499.94 250.75 497.18 244.2 494.18 238.7 489.43 234.39 482.97 230.41 476.2 227.66 467.87 226.27 458.16 225.18 448.31 225.43 437.25 227.1 425.12 228.96 413 232.06 400.44 236.21 387.63 240.37 374.81 245.49 361.71 251.4 348.45 257.18 335.17 263.71 321.74 270.85 308.37 277.79 295.12 285.34 282.12 293.43 269.73 301.31 257.88 309.77 247.04 318.73 237.68 327.54 229.44 336.92 223.13 346.81 219.12 356.6 216.57 366.98 216.44 377.87 218.78 388.72 222.17 400.14 227.52 412.07 234.5" stroke-dasharray="0 0" transform="rotate(59.862068965517246, 400, 400)" opacity="0.74"></path><path d="M414 245.07C425.24 251.62 436.39 258.58 447.33 265.52 458.27 271.32 468.97 276.76 479.27 281.75 489.51 285.39 499.27 288.75 508.36 291.97 517.26 294.21 525.37 296.73 532.47 299.72 539.25 302.24 544.91 305.59 549.25 309.88 553.18 314.05 555.76 319.32 556.9 325.67 557.69 332.03 557.13 339.48 555.26 347.95 553.33 356.41 550.34 365.86 546.4 376.26 542.83 386.67 538.76 397.59 534.38 408.95 530.61 420.41 526.57 432.46 522.33 445.03 518.66 457.85 514.66 471.3 510.29 485.22 506.3 499.34 501.76 513.76 496.62 528.08 491.65 542.07 485.93 555.34 479.47 567.22 473.02 577.73 465.76 585.95 457.71 591.23 449.63 594.19 440.77 593.69 431.19 589.54 421.58 583.26 411.29 573.94 400.41 562.14 389.52 550.02 378.6 537.6 367.78 525.77 357 515.68 346.35 507.03 336 500.02 325.72 495.29 315.76 491.9 306.3 489.49 296.94 488.66 288.12 487.98 280 486.99 272.06 486.57 264.88 485.17 258.63 482.52 252.62 479.83 247.59 475.64 243.68 469.94 240.06 464.04 237.59 456.68 236.39 447.94 235.45 439.1 235.76 429.02 237.4 417.79 239.21 406.57 242.18 394.8 246.14 382.69 250.12 370.61 255.01 358.18 260.65 345.6 266.19 333.07 272.44 320.43 279.28 307.93 285.95 295.64 293.21 283.7 300.97 272.45 308.56 261.79 316.68 252.19 325.26 244.04 333.72 236.97 342.69 231.71 352.12 228.58 361.48 226.74 371.34 227.08 381.67 229.65 391.97 233.11 402.76 238.34 413.99 245.07" stroke-dasharray="0 0" transform="rotate(64.13793103448276, 400, 400)" opacity="0.52"></path><path d="M415.49 255.64C426.01 261.93 436.4 268.65 446.55 275.4 456.69 281.19 466.56 286.73 476 291.9 485.38 295.9 494.26 299.64 502.47 303.24 510.52 305.91 517.79 308.76 524.12 311.97 532.67 316.33 543.58 328.52 545.66 336.84 546.36 342.65 545.84 349.5 544.14 357.35 542.41 365.17 539.7 374.01 536.1 383.87 532.82 393.72 529.02 404.17 524.87 415.12 521.25 426.16 517.32 437.79 513.15 449.9 509.48 462.17 505.47 474.96 501.11 488.05 497.11 501.17 492.61 514.38 487.58 527.27 482.73 539.69 477.23 551.23 471.08 561.32 464.97 570.11 458.13 576.72 450.61 580.64 443.07 582.58 434.82 581.46 425.93 577.18 417.02 571.14 407.48 562.44 397.39 551.57 387.31 540.42 377.18 528.9 367.16 517.77 357.17 508.04 347.31 499.41 337.74 492.1 328.22 486.71 319.03 482.47 310.3 479.14 301.68 477.24 293.57 475.61 286.12 473.87 278.84 472.78 272.28 470.99 266.59 468.26 261.11 465.62 256.55 461.75 253.03 456.58 249.76 451.31 247.56 444.71 246.53 436.82 245.74 428.85 246.1 419.68 247.7 409.36 249.45 399.04 252.28 388.12 256.05 376.83 259.83 365.58 264.47 353.99 269.83 342.26 275.1 330.64 281.06 318.96 287.57 307.5 293.95 296.31 300.89 285.55 308.3 275.53 315.56 266.12 323.33 257.77 331.52 250.84 339.6 244.88 348.14 240.63 357.1 238.31 366 237.11 375.34 237.87 385.09 240.62 394.81 244.11 404.97 249.19 415.49 255.64" stroke-dasharray="0 0" transform="rotate(68.41379310344827, 400, 400)" opacity="0.72"></path><path d="M416.48 266.21C426.27 272.22 435.89 278.66 445.24 285.19 454.58 290.92 463.62 296.49 472.21 301.79 480.74 306.07 488.77 310.15 496.14 314.1 503.37 317.19 509.86 320.4 515.46 323.87 523.04 328.55 532.63 340.57 534.43 348.44 535.04 353.87 534.58 360.25 533.05 367.59 531.51 374.89 529.08 383.17 525.8 392.47 522.79 401.76 519.27 411.68 515.38 422.1 511.92 432.57 508.12 443.6 504.07 455.04 500.43 466.55 496.46 478.44 492.17 490.47 488.18 502.4 483.75 514.24 478.86 525.58 474.13 536.38 468.84 546.21 462.99 554.58 457.19 561.75 450.76 566.91 443.73 569.64 436.7 570.7 429.04 569.11 420.81 564.77 412.57 559.02 403.76 550.97 394.46 541 385.16 530.8 375.83 520.18 366.61 509.78 357.41 500.49 348.35 492.01 339.56 484.56 330.82 478.69 322.39 473.78 314.41 469.66 306.52 466.82 299.13 464.3 292.35 461.81 285.73 459.99 279.78 457.72 274.63 454.74 267.63 450.09 258.54 435.51 256.71 425.33 256.05 418.11 256.45 409.77 258 400.34 259.68 390.91 262.37 380.9 265.92 370.52 269.49 360.2 273.87 349.56 278.93 338.83 283.93 328.24 289.56 317.66 295.73 307.36 301.79 297.37 308.38 287.86 315.41 279.12 322.33 270.98 329.7 263.88 337.47 258.12 345.14 253.23 353.24 249.9 361.71 248.33 370.11 247.7 378.92 248.81 388.07 251.68 397.2 255.16 406.69 260.06 416.48 266.21" stroke-dasharray="0 0" transform="rotate(72.6896551724138, 400, 400)" opacity="0.23"></path><path d="M416.96 276.78C426 282.48 434.85 288.61 443.4 294.88 451.93 300.49 460.14 306.03 467.9 311.38 475.61 315.88 482.82 320.23 489.39 324.47 495.85 327.95 501.6 331.52 506.54 335.27 513.23 340.33 521.64 352.49 523.21 360.08 523.76 365.27 523.35 371.29 521.99 378.19 520.63 385.04 518.46 392.82 515.5 401.54 512.77 410.26 509.52 419.57 505.89 429.32 502.62 439.12 498.99 449.39 495.09 459.95 491.53 470.53 487.64 481.34 483.45 492.13 479.52 502.74 475.18 513.11 470.44 522.86 465.87 532.04 460.79 540.22 455.24 546.98 449.75 552.68 443.71 556.54 437.15 558.26 430.61 558.59 423.51 556.63 415.92 552.34 408.33 546.91 400.23 539.51 391.7 530.43 383.17 521.16 374.64 511.44 366.21 501.8 357.8 493.02 349.53 484.8 341.52 477.35 333.57 471.19 325.91 465.79 318.67 461.05 311.52 457.42 304.83 454.12 298.72 450.93 290.07 446.99 276.51 437.35 271.9 430.81 269.31 426.2 267.62 420.62 266.91 414.05 266.37 407.45 266.82 399.86 268.3 391.3 269.9 382.74 272.43 373.66 275.76 364.26 279.12 354.92 283.22 345.33 287.96 335.7 292.65 326.23 297.95 316.84 303.75 307.78 309.47 299.04 315.68 290.81 322.3 283.37 328.84 276.47 335.8 270.58 343.11 265.94 350.35 262.04 357.98 259.56 365.91 258.64 373.81 258.5 382.05 259.9 390.58 262.84 399.09 266.26 407.91 270.96 416.96 276.78" stroke-dasharray="0 0" transform="rotate(76.96551724137932, 400, 400)" opacity="0.14"></path><path d="M416.89 287.35C425.18 292.71 433.25 298.5 441 304.47 448.74 309.9 456.14 315.34 463.1 320.68 470.01 325.31 476.43 329.85 482.25 334.31 490.52 340.06 503.26 351.48 507.5 357.67 510.63 363.93 512.33 379.27 510.96 388.65 509.78 395.11 507.85 402.4 505.2 410.52 502.73 418.65 499.76 427.27 496.41 436.26 493.34 445.26 489.91 454.63 486.19 464.18 482.76 473.69 479 483.28 474.94 492.73 471.11 501.95 466.91 510.81 462.36 518.98 457.95 526.61 453.11 533.23 447.86 538.52 442.68 542.9 437.03 545.64 430.93 546.51 424.86 546.26 418.32 544.07 411.35 539.89 404.38 534.82 396.98 528.07 389.21 519.86 381.44 511.49 373.68 502.66 366.03 493.81 358.41 485.6 350.93 477.75 343.7 470.46 336.52 464.17 329.62 458.46 323.12 453.3 316.69 449.05 310.7 445.11 305.24 441.32 297.52 436.47 285.5 425.83 281.45 419.31 279.17 414.83 277.71 409.57 277.14 403.5 276.72 397.43 277.19 390.52 278.6 382.8 280.12 375.07 282.48 366.93 285.57 358.55 288.7 350.22 292.52 341.73 296.92 333.27 301.3 324.96 306.23 316.8 311.63 309.02 316.98 301.53 322.79 294.58 328.98 288.4 335.1 282.7 341.61 277.94 348.44 274.33 355.21 271.34 362.33 269.61 369.71 269.26 377.07 269.52 384.72 271.13 392.61 274.09 400.48 277.42 408.6 281.88 416.89 287.35" stroke-dasharray="0 0" transform="rotate(81.24137931034483, 400, 400)" opacity="0.65"></path><path d="M416.3 297.92C423.82 302.92 431.11 308.34 438.07 313.96 445.02 319.16 451.64 324.43 457.82 329.67 463.96 334.34 469.64 338.98 474.76 343.57 482.02 349.69 493.17 361.79 496.85 368.18 499.61 374.56 501.14 389.56 499.96 398.46 498.95 404.55 497.26 411.34 494.9 418.84 492.69 426.34 490 434.21 486.93 442.35 484.08 450.48 480.87 458.85 477.37 467.27 474.1 475.63 470.51 483.95 466.64 492 462.96 499.83 458.94 507.2 454.6 513.86 450.4 520.03 445.82 525.23 440.89 529.21 433.39 533.34 416.52 532.58 407.16 527.42 400.8 522.75 394.08 516.65 387.05 509.29 380.02 501.8 373.03 493.86 366.16 485.8 359.31 478.23 352.61 470.84 346.15 463.83 339.73 457.59 333.58 451.76 327.8 446.35 322.09 441.67 316.77 437.26 311.96 433.02 305.13 427.4 294.58 415.83 291.06 409.27 288.47 402.33 287.33 385.43 288.9 375.37 290.32 368.44 292.51 361.23 295.36 353.87 298.24 346.56 301.76 339.17 305.81 331.89 309.85 324.75 314.41 317.82 319.39 311.29 324.34 305.03 329.72 299.31 335.43 294.32 341.11 289.74 347.14 286.02 353.45 283.33 359.73 281.14 366.3 280.06 373.11 280.17 379.89 280.76 386.93 282.52 394.15 285.44 401.36 288.64 408.77 292.82 416.3 297.92" stroke-dasharray="0 0" transform="rotate(85.51724137931035, 400, 400)" opacity="0.97"></path><path d="M415.19 308.48C421.94 313.1 428.45 318.12 434.64 323.35 440.82 328.26 446.67 333.3 452.11 338.35 457.52 342.97 462.49 347.61 466.96 352.23 473.3 358.55 482.98 371.11 486.18 377.63 488.6 384.1 489.99 398.74 489 407.15 488.14 412.88 486.67 419.16 484.6 425.99 482.64 432.82 480.23 439.9 477.45 447.12 474.84 454.32 471.88 461.63 468.63 468.88 465.56 476.06 462.18 483.08 458.54 489.77 455.05 496.23 451.25 502.2 447.18 507.45 441.06 514.27 427.37 521.87 419.78 522.05 414.63 521.06 409.16 518.69 403.41 514.95 397.65 510.7 391.6 505.25 385.3 498.72 379.01 492.09 372.76 485.01 366.66 477.78 360.56 470.88 354.62 464.05 348.91 457.44 343.24 451.39 337.82 445.62 332.75 440.15 327.72 435.25 323.07 430.55 318.87 426.02 312.91 419.85 303.76 407.55 300.75 400.97 298.54 394.18 297.71 378.48 299.2 369.47 300.52 363.3 302.52 356.98 305.12 350.62 307.75 344.3 310.95 338.01 314.63 331.88 318.32 325.87 322.48 320.12 327.02 314.79 331.55 309.68 336.46 305.1 341.68 301.2 346.88 297.62 352.39 294.83 358.16 292.94 363.9 291.44 369.9 290.9 376.1 291.38 382.28 292.22 388.68 294.05 395.21 296.87 401.75 299.9 408.43 303.79 415.19 308.48" stroke-dasharray="0 0" transform="rotate(89.79310344827586, 400, 400)" opacity="0.20"></path><path d="M413.59 319.05C425.56 327.33 436.53 336.87 446.02 346.72 455.4 355.29 463.17 364.15 468.86 373.11 474.32 381.01 477.65 389.69 478.55 399.29 479.37 408.51 477.98 419.26 474.3 431.52 470.99 443.78 466.02 456.48 459.96 468.73 454.42 480.65 447.69 491.42 440.06 499.76 432.75 506.77 424.29 510.3 414.9 509.41 405.59 506.61 395.18 499.41 384.02 488.15 372.86 476.58 362.02 463.78 352.04 451.23 342.16 440.28 333.29 429.89 326 420.27 318.95 411.97 313.62 403.51 310.53 394.6 307.76 386.06 307.28 376.34 309.5 365.47 311.97 354.59 316.8 343.65 323.4 333.47 330.03 323.66 338.33 315.22 347.74 309.09 357.1 303.94 367.59 301.68 378.72 302.88 389.83 305.1 401.62 310.54 413.59 319.05" stroke-dasharray="0 0" transform="rotate(94.06896551724138, 400, 400)" opacity="0.51"></path><path d="M411.57 329.62C422 337.06 431.47 345.72 439.6 354.79 447.66 362.95 454.29 371.5 459.12 380.17 463.81 388.07 466.68 396.56 467.49 405.64 468.26 414.44 467.14 424.29 464 435.09 461.14 445.89 456.75 456.63 451.34 466.62 446.31 476.32 440.17 484.7 433.24 490.82 426.56 495.93 418.9 498.05 410.51 496.55 402.18 493.72 392.99 487.32 383.24 477.59 373.49 467.61 364.12 456.42 355.57 445.18 347.09 435.01 339.53 425.08 333.38 415.7 327.4 407.29 322.93 398.83 320.39 390.27 318.09 382.02 317.78 373.09 319.8 363.61 322.01 354.13 326.29 345.01 332.11 336.83 337.97 328.93 345.3 322.42 353.62 318 361.91 314.28 371.19 313.04 381 314.67 390.8 316.98 401.15 322 411.57 329.62" stroke-dasharray="0 0" transform="rotate(98.3448275862069, 400, 400)" opacity="0.51"></path><path d="M409.19 340.19C418.07 346.74 426.09 354.41 432.94 362.55 439.73 370.09 445.29 378.08 449.34 386.2 453.31 393.79 455.76 401.84 456.48 410.21 457.2 418.38 456.32 427.2 453.7 436.48 451.28 445.75 447.49 454.6 442.76 462.49 438.3 470.15 432.85 476.44 426.71 480.7 420.74 484.26 413.96 485.33 406.61 483.5 399.31 480.8 391.34 475.25 383 467.02 374.64 458.61 366.7 449.04 359.52 439.24 352.38 430.11 346.08 420.96 341 412.19 336.03 404.06 332.37 395.95 330.34 387.96 328.48 380.19 328.3 372.15 330.1 364.02 332.04 355.89 335.74 348.42 340.76 342.03 345.83 335.8 352.16 330.95 359.34 327.93 366.52 325.36 374.53 324.87 382.97 326.72 391.42 329 400.3 333.51 409.19 340.19" stroke-dasharray="0 0" transform="rotate(102.62068965517241, 400, 400)" opacity="0.50"></path><path d="M406.51 350.76C413.87 356.35 420.47 362.95 426.09 370.02 431.67 376.72 436.24 383.89 439.56 391.19 442.84 398.17 444.89 405.49 445.54 412.92 446.19 420.24 445.52 427.88 443.4 435.6 441.41 443.32 438.24 450.36 434.23 456.36 428.06 464.47 412.36 472.05 403.18 470.31 396.97 467.87 390.25 463.22 383.28 456.45 376.32 449.56 369.76 441.62 363.9 433.36 358.05 425.49 352.95 417.42 348.87 409.58 344.86 402.14 341.94 394.72 340.37 387.54 338.92 380.52 338.85 373.47 340.4 366.66 342.06 359.85 345.17 353.89 349.37 349.02 353.61 344.25 358.92 340.75 364.92 338.81 370.94 337.13 377.65 337.15 384.7 339.04 391.76 341.15 399.15 345.07 406.51 350.76" stroke-dasharray="0 0" transform="rotate(106.89655172413792, 400, 400)" opacity="0.78"></path><path d="M403.63 361.33C415.32 370.35 424.51 382.61 429.82 395.21 435.04 407.13 436.48 420.22 433.1 432.51 430.06 444.79 423.15 453.77 414.39 457.45 405.93 460.1 395.26 456.39 384.1 445.88 372.93 435.07 363.33 421.15 356.99 407.71 350.83 395.15 348.21 382.37 350.7 371.38 353.47 360.38 360.81 353.03 370.4 350.57 380.08 348.6 391.93 352.05 403.63 361.33" stroke-dasharray="0 0" transform="rotate(111.17241379310344, 400, 400)" opacity="0.10"></path><path d="M400.63 371.9C409.34 378.86 416.17 388.43 420.14 398.33 424.09 407.94 425.25 418.26 422.8 427.39 420.53 436.52 415.26 442.6 408.55 444.62 401.99 446.14 393.81 443.12 385.42 435.31 377.02 427.33 369.94 416.79 365.37 406.39 360.88 396.37 359.05 386.22 361 377.88 363.11 369.53 368.62 364.4 375.81 363.08 383.06 361.93 391.92 364.78 400.63 371.9" stroke-dasharray="0 0" transform="rotate(115.44827586206897, 400, 400)" opacity="0.81"></path><path d="M397.61 382.47C409.14 391.85 415.73 408.54 412.5 420.58 409.6 432.6 398.44 434.87 387.2 424.74 375.95 414.32 368.67 397.04 371.3 385.75 374.22 374.45 386.08 372.81 397.61 382.47" stroke-dasharray="0 0" transform="rotate(119.72413793103449, 400, 400)" opacity="0.46"></path></g></svg>