<svg xmlns="http://www.w3.org/2000/svg" version="1.1" xmlns:xlink="http://www.w3.org/1999/xlink" xmlns:svgjs="http://svgjs.dev/svgjs" viewBox="0 0 800 800"><defs><linearGradient x1="50%" y1="0%" x2="50%" y2="100%" id="ccchaos-grad"><stop stop-color="hsl(265, 55%, 30%)" stop-opacity="1" offset="0%"></stop><stop stop-color="hsl(265, 55%, 60%)" stop-opacity="1" offset="100%"></stop></linearGradient></defs><g stroke-width="3" stroke="url(#ccchaos-grad)" fill="none" stroke-linecap="round"><path d="M380.58 19.08C386.8 17.99 392.86 17.11 398.76 16.46 407.51 15.69 424.19 15.5 432.14 16.1 439.94 17.11 454.96 20.6 462.26 23.06 469.59 25.93 484.36 32.99 491.97 37.15 497.25 40.07 502.67 43.19 508.29 46.5 514.15 49.87 520.27 53.4 526.67 57.09 533.39 60.82 540.46 64.68 547.9 68.68 555.68 72.68 563.86 76.8 572.43 81.01 581.34 85.22 590.61 89.51 600.22 93.87 610.06 98.2 620.14 102.6 630.4 107.06 640.67 111.47 650.96 115.93 661.14 120.43 671.06 124.87 680.64 129.35 689.76 133.87 698.27 138.32 706.07 142.81 713.01 147.32 721.54 154.01 731.33 167.45 732.3 174.22 730.51 180.93 720.49 194.48 713.18 201.34 708.04 205.88 702.82 210.48 697.78 215.14 691.63 222.11 686.05 236.33 687.88 243.61 691.4 248.46 696.6 253.39 703.48 258.41 711.98 263.4 721.86 268.49 732.9 273.66 744.81 278.81 757.22 284.06 769.72 289.4 781.94 294.73 793.41 300.15 803.7 305.67 812.51 311.18 819.41 316.78 824.12 322.49 826.58 328.18 826.56 333.98 824.03 339.87 819.31 345.75 812.4 351.74 803.61 357.82 793.57 363.9 782.52 370.09 770.96 376.37 759.7 382.64 749.05 389.02 739.52 395.51 731.81 401.99 726.14 408.5 722.75 415.03 721.87 421.56 723.36 428.12 727.08 434.7 732.97 441.29 740.54 447.9 749.35 454.53 759.19 461.17 769.34 467.84 779.31 474.52 788.86 481.21 797.31 487.93 804.28 494.66 809.68 501.4 813.03 508.16 814.2 514.93 813.3 521.71 810.17 528.5 804.94 535.3 797.87 542.11 789.11 548.91 778.96 555.72 767.77 562.52 755.85 569.31 743.56 576.08 731.25 582.85 719.23 589.58 707.8 596.27 697.21 602.94 687.68 609.55 679.35 616.1 672.38 622.6 666.78 629.02 662.54 635.34 659.73 641.6 658.17 647.73 657.73 653.73 658.42 659.64 659.93 665.39 662.04 670.95 666.29 679.03 675.36 693.88 679.15 700.58 682.3 712.06 676.4 725.53 670.6 728.66 665.79 730.46 660.26 731.94 654.08 733.1 647.37 734.11 640.14 734.81 632.49 735.23 624.47 735.55 616.15 735.61 607.62 735.44 598.89 735.22 590.05 734.82 581.19 734.25 572.24 733.72 563.35 733.08 554.54 732.37 545.75 731.78 537.09 731.17 528.6 730.58 520.16 730.2 511.91 729.89 503.85 729.69 495.87 729.78 488.08 730.02 480.47 730.44 472.94 731.21 465.58 732.19 458.39 733.39 451.26 734.97 444.28 736.79 437.43 738.84 430.63 741.27 423.94 743.91 417.37 746.75 410.82 749.92 404.37 753.25 398 756.7 391.65 760.39 385.38 764.15 379.18 767.91 372.98 771.8 366.93 775.56 361.02 779.17 355.11 782.75 349.34 786.08 343.7 789.11 335.31 793.27 319.24 799.24 311.55 800.9 304 801.61 289.57 799.97 282.68 797.64 275.88 794.29 262.76 784.82 256.38 778.81 252.07 774.43 247.82 769.7 243.61 764.66 239.28 759.43 234.95 753.95 230.62 748.26 226.14 742.45 221.61 736.48 217.03 730.37 212.27 724.23 207.44 718.01 202.51 711.73 197.4 705.48 192.19 699.21 186.88 692.94 181.4 686.76 175.83 680.61 170.19 674.5 164.42 668.52 158.61 662.59 152.78 656.74 146.9 651.03 141.05 645.4 135.27 639.84 129.52 634.43 123.9 629.1 118.45 623.85 113.12 618.74 108.01 613.69 103.16 608.7 98.5 603.84 94.13 599.03 90.07 594.25 84.47 587.26 75.12 573.48 71.3 566.64 67.91 559.88 62.12 546.24 59.54 539.31 56.92 532.37 51.57 518.12 48.77 510.78 45.71 503.36 39.4 488.01 36.25 480.06 34.11 474.72 32.08 469.27 30.18 463.71 28.29 458.14 26.59 452.46 25.1 446.67 23.68 440.87 22.5 434.96 21.58 428.94 20.77 422.92 20.22 416.79 19.94 410.55 19.78 404.31 19.88 397.97 20.23 391.53 20.67 385.08 21.32 378.62 22.18 372.14 23.06 365.66 24.1 359.17 25.28 352.68 26.41 346.19 27.64 339.7 28.95 333.22 30.15 326.75 31.4 320.29 32.69 313.84 33.84 307.4 35.01 300.99 36.21 294.61 37.29 288.24 38.41 281.91 39.58 275.62 40.69 269.35 41.89 263.12 43.22 256.96 44.56 250.82 46.09 244.74 47.82 238.73 49.65 232.75 51.75 226.85 54.12 221.03 56.66 215.25 59.5 209.57 62.66 203.98 66 198.44 69.64 193 73.57 187.68 77.65 182.41 81.98 177.26 86.51 172.24 91.12 167.27 95.88 162.44 100.74 157.75 105.59 153.11 110.47 148.63 115.36 144.29 120.12 140.01 124.84 135.89 129.49 131.92 136.13 126.13 148.56 115.42 154.36 110.5 159.76 105.79 170.05 97.17 175.07 93.23 179.98 89.44 190.16 82.48 195.55 79.27 201.15 76.11 213.35 70.15 220 67.31 226.99 64.43 242.1 58.8 250.17 56.03 255.71 54.1 261.4 52.21 267.22 50.35 273.13 48.39 279.16 46.47 285.27 44.59 291.46 42.62 297.72 40.68 304.03 38.81 310.39 36.85 316.79 34.95 323.2 33.13 329.64 31.24 336.09 29.45 342.5 27.76 348.95 26.03 355.35 24.43 361.7 22.97 368.06 21.51 374.36 20.2 380.57 19.08" stroke-dasharray="0 0" transform="rotate(0, 400, 400)" opacity="0.79"></path><path d="M374.37 29.48C383.24 27.94 400.43 26.02 408.74 25.68 416.96 25.72 432.98 27.17 440.84 28.6 448.73 30.44 464.6 35.5 472.7 38.7 478.26 41.01 483.93 43.54 489.74 46.27 495.74 49.09 501.93 52.11 508.35 55.31 515 58.57 521.92 62 529.14 65.59 536.62 69.22 544.43 73 552.55 76.9 560.94 80.82 569.65 84.85 578.65 88.99 587.85 93.13 597.29 97.35 606.92 101.66 616.62 105.94 626.38 110.29 636.14 114.7 645.75 119.07 655.17 123.5 664.31 127.98 673.02 132.4 681.24 136.86 688.84 141.36 695.75 145.81 701.84 150.28 707 154.79 712.87 161.48 717.69 174.93 716.59 181.69 713.26 188.4 701.81 201.94 694.69 208.78 687.81 215.59 677.19 229.44 674.83 236.48 675.05 241.16 676.67 245.91 679.8 250.73 684.58 255.52 690.89 260.39 698.67 265.33 707.83 270.25 718.12 275.26 729.3 280.34 741.08 285.41 753.12 290.56 765.03 295.8 776.47 301.02 787.03 306.34 796.32 311.74 804.09 317.14 809.99 322.62 813.76 328.2 815.41 333.78 814.74 339.44 811.74 345.21 806.74 350.96 799.77 356.81 791.09 362.76 781.32 368.71 770.66 374.75 759.59 380.89 748.83 387.03 738.65 393.27 729.53 399.61 722.11 405.95 716.58 412.32 713.15 418.71 712.06 425.1 713.19 431.51 716.4 437.95 721.69 444.4 728.58 450.86 736.72 457.35 745.92 463.84 755.54 470.36 765.11 476.89 774.45 483.42 782.9 489.98 790.1 496.54 795.96 503.12 800.02 509.7 802.1 516.3 802.3 522.89 800.4 529.49 796.49 536.09 790.78 542.69 783.36 549.28 774.47 555.86 764.42 562.43 753.46 568.97 741.91 575.49 730.08 581.98 718.27 588.44 706.77 594.84 695.83 601.2 685.67 607.51 676.46 613.72 668.38 619.9 661.48 625.97 655.82 631.93 649.9 640.7 645.51 657.38 646.37 665.22 649.02 672.69 656.34 686.33 660.04 692.42 664.52 708.79 655.34 719.75 648.74 721.37 643.59 722.24 637.85 722.83 631.6 723.17 624.94 723.42 617.88 723.46 610.5 723.28 602.84 723.09 594.95 722.74 586.91 722.25 578.71 721.82 570.45 721.3 562.16 720.72 553.81 720.28 545.51 719.83 537.28 719.41 529.05 719.2 520.93 719.07 512.95 719.04 504.99 719.29 497.19 719.69 489.54 720.26 481.94 721.15 474.5 722.25 467.21 723.55 459.97 725.2 452.88 727.07 445.94 729.15 439.03 731.57 432.26 734.2 425.62 737 419.01 740.1 412.51 743.34 406.14 746.69 399.77 750.26 393.51 753.88 387.37 757.51 381.22 761.25 375.24 764.87 369.43 768.34 363.61 771.79 357.96 775 352.46 777.93 344.27 781.97 328.63 787.87 321.16 789.59 313.79 790.42 299.65 789.23 292.84 787.2 286.06 784.23 272.8 775.61 266.25 770.08 261.79 766.01 257.36 761.6 252.93 756.88 248.36 751.98 243.77 746.81 239.15 741.42 234.37 735.9 229.52 730.2 224.61 724.36 219.52 718.46 214.36 712.45 209.1 706.37 203.67 700.3 198.17 694.18 192.58 688.04 186.85 681.97 181.07 675.9 175.25 669.85 169.34 663.9 163.44 657.99 157.56 652.14 151.67 646.4 145.87 640.73 140.18 635.12 134.57 629.64 129.13 624.22 123.89 618.87 118.81 613.65 113.99 608.5 109.44 603.39 105.11 598.41 101.08 593.47 97.36 588.58 92.27 581.41 83.89 567.29 80.51 560.31 77.49 553.42 72.29 539.59 69.92 532.61 67.44 525.64 62.25 511.4 59.46 504.12 56.37 496.77 49.91 481.64 46.65 473.84 43.37 465.95 37.45 449.66 34.99 441.26 33.51 435.62 32.28 429.88 31.32 424.04 30.5 418.2 29.96 412.25 29.71 406.21 29.61 400.17 29.78 394.03 30.22 387.8 30.77 381.57 31.54 375.33 32.52 369.07 33.53 362.82 34.69 356.56 35.98 350.3 37.22 344.04 38.54 337.79 39.91 331.54 41.16 325.31 42.44 319.09 43.72 312.89 44.85 306.7 45.99 300.54 47.12 294.41 48.11 288.29 49.13 282.22 50.18 276.19 51.14 270.18 52.19 264.22 53.35 258.32 54.5 252.45 55.83 246.64 57.36 240.9 58.98 235.19 60.85 229.57 63 224.03 65.32 218.53 67.94 213.12 70.87 207.81 74.01 202.54 77.45 197.38 81.2 192.34 85.12 187.34 89.3 182.46 93.72 177.71 98.25 173.01 102.96 168.44 107.81 164.01 112.67 159.63 117.61 155.39 122.59 151.3 127.48 147.26 132.36 143.37 137.19 139.63 144.15 134.16 157.29 124.03 163.44 119.37 169.17 114.9 179.95 106.69 185.09 102.93 190.02 99.29 199.93 92.56 205.02 89.44 210.2 86.34 221.28 80.47 227.25 77.67 233.48 74.8 246.92 69.18 254.13 66.41 261.61 63.52 277.42 57.79 285.69 54.95 291.3 52.97 297 51.04 302.78 49.17 308.61 47.21 314.5 45.32 320.43 43.5 326.39 41.62 332.38 39.83 338.38 38.15 344.4 36.43 350.42 34.83 356.42 33.37 362.43 31.91 368.41 30.61 374.36 29.48" stroke-dasharray="0 0" transform="rotate(2.657142857142857, 400, 400)" opacity="0.59"></path><path d="M371.27 39.88C379.84 38.33 396.72 36.36 405.03 35.97 413.32 35.95 429.82 37.24 438.09 38.57 443.66 39.64 449.28 40.95 454.95 42.5 460.72 44.15 466.58 46.03 472.56 48.14 484.91 52.65 497.97 58 511.9 64.1 526.61 70.47 542.36 77.49 559.16 85.07 576.58 92.73 594.74 100.85 613.27 109.33 631.44 117.74 648.97 126.44 665.07 135.35 679.11 144.08 690.37 152.99 698.11 162.04 702.5 170.86 702.91 179.82 699.45 188.91 693.67 197.76 685.67 206.78 676.82 215.96 669.62 224.94 664.77 234.12 663.88 243.53 668.58 252.78 678.83 262.3 694.49 272.09 714.64 281.78 737.31 291.77 760.04 302.09 770.65 307.22 780.26 312.44 788.54 317.74 797.77 325.72 803.39 342.11 799.35 350.53 794.13 356.16 787.12 361.88 778.58 367.7 769.1 373.52 758.84 379.43 748.24 385.43 737.97 391.43 728.26 397.53 719.54 403.73 712.4 409.92 707.01 416.14 703.56 422.38 702.29 428.63 703.07 434.89 705.81 441.18 710.51 447.47 716.76 453.78 724.23 460.11 732.8 466.44 741.85 472.79 750.99 479.15 760.05 485.51 768.42 491.89 775.76 498.27 781.98 504.66 786.61 511.05 789.49 517.44 790.06 530.22 782.97 542.98 769.19 555.63 750.5 568.25 728.67 580.7 706 592.91 684.47 604.98 665.74 616.7 650.91 627.95 640.67 638.92 634.82 649.28 632.69 658.92 634.1 668.12 637.34 676.45 641.18 683.79 647.05 693.43 647.35 706.3 639.79 709.55 631.95 710.96 621.84 711.46 609.95 711.18 596.78 710.91 582.53 710.18 567.65 709.19 552.28 708.76 536.8 708.46 521.49 708.49 513.82 708.89 506.23 709.44 498.76 710.15 491.29 711.16 483.95 712.36 476.73 713.75 469.54 715.46 462.48 717.37 455.56 719.47 448.66 721.89 441.9 724.49 435.26 727.25 428.65 730.28 422.16 733.43 415.79 736.68 409.44 740.13 403.2 743.62 397.08 747.11 390.96 750.71 385.03 754.19 379.27 757.51 373.5 760.83 367.9 763.92 362.46 766.76 354.35 770.67 338.85 776.49 331.42 778.25 324.06 779.19 309.83 778.42 302.91 776.68 293.52 773.17 284.36 767.95 275.31 761.17 265.79 753.44 256.2 744.44 246.44 734.41 236.07 723.87 225.41 712.64 214.45 700.94 202.95 689.2 191.25 677.27 179.47 665.31 167.57 653.63 155.94 642.08 144.83 630.72 134.2 619.79 124.49 609.09 115.91 598.6 108.2 588.55 101.71 578.66 96.45 568.88 91.82 559.46 88.07 550.04 84.99 540.58 81.78 531.36 78.74 521.99 75.67 512.44 71.88 503.01 67.9 493.31 63.76 483.32 60.32 475.82 53.53 460.41 50.35 452.48 47.38 444.48 42.66 428 41.05 419.54 40.22 413.87 39.7 408.11 39.49 402.26 39.44 396.4 39.68 390.47 40.21 384.44 40.86 378.42 41.74 372.39 42.84 366.35 43.96 360.32 45.24 354.28 46.64 348.25 47.98 342.23 49.38 336.21 50.82 330.21 52.14 324.21 53.45 318.24 54.75 312.28 55.89 306.34 57 300.43 58.09 294.56 59.02 288.71 59.95 282.89 60.9 277.12 62.5 265.65 64.5 254.41 67.09 243.45 70.02 232.62 74.01 222.12 79.18 212.01 85.18 202.06 92.42 192.55 100.76 183.53 109.68 174.69 119.29 166.36 129.33 158.6 139.21 151.01 149.05 143.98 158.64 137.53 167.5 131.2 175.94 125.41 183.99 120.18 191.24 114.96 198.25 110.21 205.17 105.91 211.61 101.5 218.25 97.44 225.23 93.71 232.11 89.71 239.55 85.94 247.57 82.38 255.73 78.45 264.54 74.67 273.94 71.05 281.16 68.12 296.32 62.33 304.21 59.5 312.24 56.6 328.72 51.09 337.12 48.53 342.75 46.82 348.41 45.23 354.11 43.77 359.81 42.32 365.53 41.01 371.26 39.88" stroke-dasharray="0 0" transform="rotate(5.314285714285714, 400, 400)" opacity="0.18"></path><path d="M371.65 50.28C380 48.72 396.72 46.7 405.1 46.28 416.33 46.1 427.69 46.86 439.27 48.55 451.08 50.65 463.31 53.68 476.09 57.6 489.32 61.89 503.3 67.02 518.12 72.89 533.48 79.03 549.68 85.83 566.6 93.19 583.71 100.66 601.08 108.59 618.25 116.9 634.58 125.17 649.72 133.74 662.95 142.55 673.91 151.21 681.93 160.05 686.49 169.05 688.11 177.84 686.27 186.78 681.33 195.84 675 204.69 667.4 213.69 659.9 222.84 654.75 231.8 652.48 240.95 654.36 250.3 661.59 259.49 673.88 268.92 690.8 278.61 711.27 288.18 733.35 298.04 754.71 308.19 773.15 318.28 786.26 328.68 792.21 339.42 790.8 350.11 781.67 361.15 766.09 372.53 756.91 378.22 747.05 384 736.92 389.86 727.13 395.73 717.88 401.68 709.55 407.73 702.69 413.78 697.44 419.85 693.99 425.94 692.55 432.03 693.01 438.13 695.3 444.26 705.26 456.51 720.03 468.83 736.97 481.18 754.13 493.53 767.97 505.91 776.41 518.25 778.89 530.57 774.23 542.83 763.04 554.96 746.79 567.01 726.84 578.87 705.23 590.44 683.8 601.84 664.19 612.85 647.62 623.37 634.92 633.59 626.24 643.19 621.25 652.06 619.92 660.5 620.93 668.08 623.25 674.72 630.06 689.11 618.65 699.14 605.61 699.15 594.99 699.01 583 698.5 570.07 697.79 556.46 697.66 542.41 697.69 528.21 698.04 513.81 699.41 499.56 701.36 485.6 703.98 471.66 707.82 458.1 712.35 445 717.49 438.46 720.45 432.04 723.52 425.73 726.66 419.43 729.99 413.24 733.36 407.15 736.71 401.07 740.16 395.16 743.5 389.42 746.7 383.67 749.89 378.07 752.86 372.63 755.59 361.7 760.72 351.3 764.54 341.38 766.89 331.29 768.3 321.56 768.02 312.1 766.07 302.33 763 292.67 758.3 283.03 752.11 272.92 744.99 262.68 736.63 252.22 727.22 241.24 717.28 230.01 706.6 218.54 695.41 206.71 684.09 194.81 672.51 183.01 660.83 171.28 649.34 160 637.9 149.4 626.59 139.42 615.64 130.46 604.87 122.68 594.28 115.77 584.09 110.05 574.04 105.49 564.11 101.44 554.51 98.15 544.94 95.4 535.37 92.4 526.03 89.46 516.59 86.39 507.02 82.55 497.58 78.45 487.92 74.16 478.04 69.3 468.21 64.59 458.09 60.29 447.68 56.14 437.29 52.89 426.57 50.76 415.55 49.7 407.24 49.43 390.23 50.2 381.54 50.94 375.72 51.93 369.9 53.12 364.08 54.36 358.26 55.74 352.45 57.24 346.65 60.03 335.06 62.93 323.53 65.77 312.11 67.88 300.74 69.85 289.51 71.73 278.49 73.12 267.54 74.82 256.83 77.03 246.43 79.51 236.13 83.01 226.17 87.64 216.61 93.1 207.19 99.82 198.2 107.7 189.7 116.27 181.34 125.66 173.49 135.62 166.18 145.6 159 155.67 152.36 165.63 146.26 174.98 140.25 183.98 134.74 192.58 129.74 200.39 124.73 207.87 120.15 215.16 115.98 221.84 111.67 228.56 107.68 235.45 103.99 242.08 100.02 249.1 96.27 256.6 92.7 264.08 88.77 272.13 84.98 280.74 81.34 289.44 77.32 298.69 73.46 308.41 69.8 318.22 65.85 328.44 62.18 339.02 58.89 346.99 56.4 363.31 52.07 371.64 50.28" stroke-dasharray="0 0" transform="rotate(7.9714285714285715, 400, 400)" opacity="0.48"></path><path d="M375.46 60.68C386.37 58.51 397.48 57.14 408.79 56.59 420.18 56.34 431.88 57 443.96 58.56 456.25 60.5 469.08 63.35 482.5 67.06 496.27 71.15 510.74 76.05 525.9 81.68 541.35 87.59 557.35 94.15 573.69 101.27 589.83 108.53 605.76 116.26 620.98 124.37 635.02 132.49 647.45 140.91 657.67 149.58 665.61 158.14 670.63 166.91 672.45 175.83 671.86 184.57 668.46 193.47 662.77 202.49 656.55 211.32 649.94 220.29 644.23 229.41 641.36 238.34 641.72 247.45 646.25 256.74 655.73 265.88 669.69 275.23 687.49 284.81 707.93 294.29 729.15 304.02 749 314.02 765.55 323.95 776.73 334.18 781.04 344.71 778.53 355.2 768.96 366.01 753.62 377.14 735.51 388.26 716.51 399.72 699.56 411.51 687.99 423.3 682.96 435.16 684.88 447.06 693.69 458.97 707.2 470.92 723.06 482.87 739.61 494.82 753.56 506.75 762.92 518.61 767.07 530.45 764.65 542.19 755.98 553.74 742.24 565.22 724.4 576.45 704.23 587.35 683.41 598.08 663.47 608.39 645.7 618.17 631.02 627.66 619.85 636.52 612.15 644.64 607.28 655.81 610.11 673.04 613.04 678.92 614.56 683.22 607.02 687.11 597.48 687.21 589.32 687.23 579.64 686.95 568.77 686.53 557.17 686.7 544.82 687.03 532.03 687.69 518.94 689.32 505.71 691.49 492.54 694.26 479.31 698.16 466.27 702.68 453.53 707.74 440.82 713.72 428.41 719.98 416.36 726.31 404.3 732.99 392.83 739.11 381.89 744.43 370.88 749.39 360.32 753.14 350.13 755.52 339.77 757.04 329.66 756.99 319.72 755.37 309.47 752.71 299.25 748.51 288.97 742.88 278.28 736.36 267.42 728.62 256.35 719.84 244.89 710.51 233.24 700.41 221.46 689.74 209.52 678.89 197.65 667.71 186.05 656.36 174.72 645.13 163.99 633.87 154.08 622.68 144.9 611.78 136.79 601.01 129.88 590.39 123.8 580.11 118.84 569.96 114.93 559.92 111.41 550.19 108.51 540.51 106.02 530.85 103.16 521.41 100.23 511.9 97.11 502.31 93.16 492.86 88.9 483.24 84.44 473.44 79.42 463.7 74.55 453.73 70.12 443.52 65.89 433.33 62.6 422.87 60.45 412.15 59.06 401.43 58.99 390.43 60.19 379.19 61.96 367.94 64.59 356.72 67.8 345.56 70.77 334.42 73.82 323.36 76.76 312.44 78.93 301.56 80.88 290.84 82.67 280.34 83.89 269.91 85.33 259.73 87.2 249.86 89.25 240.09 92.23 230.66 96.31 221.63 101.17 212.72 107.31 204.23 114.64 196.22 122.74 188.33 131.78 180.92 141.52 174.02 151.46 167.24 161.64 160.95 171.85 155.17 181.63 149.45 191.14 144.2 200.3 139.41 208.72 134.58 216.8 130.14 224.59 126.08 231.72 121.85 238.76 117.92 245.82 114.25 252.49 110.31 259.41 106.56 266.67 102.98 273.77 99.05 281.35 95.25 289.43 91.6 297.49 87.58 306.09 83.73 315.2 80.08 324.32 76.15 333.93 72.51 343.99 69.24 354.05 65.86 364.54 62.97 375.45 60.68" stroke-dasharray="0 0" transform="rotate(10.628571428571428, 400, 400)" opacity="0.49"></path><path d="M382.25 71.08C393.01 68.92 404.1 67.52 415.52 66.92 427.02 66.6 438.96 67.16 451.35 68.58 463.91 70.37 477.03 73.04 490.71 76.55 504.61 80.42 519.07 85.09 534 90.47 548.97 96.14 564.17 102.45 579.3 109.32 593.93 116.35 607.93 123.86 620.8 131.76 632.29 139.69 641.92 147.95 649.2 156.46 654.37 164.9 656.81 173.55 656.44 182.37 654.3 191.05 650.03 199.88 644.28 208.84 638.77 217.63 633.64 226.56 630.03 235.63 629.59 244.53 632.51 253.59 639.47 262.81 650.88 271.9 666.13 281.18 684.43 290.66 704.51 300.04 724.65 309.65 742.85 319.5 757.52 329.29 766.84 339.35 769.62 349.67 766.12 359.96 756.23 370.55 741.17 381.42 723.78 392.29 705.7 403.46 689.57 414.94 678.42 426.42 673.27 437.95 674.53 449.49 682.26 461.03 694.52 472.58 709.28 484.1 725.11 495.62 739 507.09 749.05 518.45 754.63 529.78 754.26 540.96 747.99 551.93 736.76 562.8 721.19 573.4 702.78 583.63 683.01 593.68 663.27 603.28 644.87 612.35 628.74 621.13 615.51 629.27 605.38 636.69 596.53 646.87 593.2 662.41 594.79 667.65 594.54 673.32 576.16 675.55 563.55 675.4 553.98 675.85 543.45 676.49 532.24 677.44 520.66 679.3 508.68 681.67 496.52 684.58 484.24 688.53 471.94 693.02 459.73 697.99 447.52 703.79 435.45 709.83 423.57 715.91 411.7 722.31 400.26 728.18 389.23 733.29 378.14 738.08 367.38 741.74 356.87 744.13 346.2 745.75 335.68 745.9 325.23 744.58 314.51 742.32 303.75 738.58 292.89 733.49 281.7 727.55 270.36 720.42 258.85 712.26 247.09 703.54 235.25 694.03 223.41 683.92 211.59 673.57 200.01 662.84 188.86 651.87 178.14 640.95 168.15 629.94 159.09 618.94 150.8 608.16 143.61 597.46 137.6 586.87 132.34 576.56 128.11 566.37 124.8 556.28 121.73 546.46 119.14 536.7 116.81 526.98 114 517.47 111.03 507.92 107.77 498.33 103.67 488.86 99.23 479.28 94.58 469.56 89.4 459.91 84.4 450.08 79.86 440.06 75.58 430.06 72.26 419.84 70.14 409.4 68.82 398.97 68.84 388.31 70.18 377.45 72.12 366.58 74.92 355.77 78.3 345.05 81.45 334.35 84.65 323.75 87.71 313.32 89.96 302.92 91.94 292.7 93.69 282.71 94.8 272.79 96.03 263.12 97.59 253.78 99.24 244.52 101.73 235.6 105.23 227.07 109.47 218.65 114.96 210.64 121.67 203.08 129.19 195.63 137.75 188.64 147.13 182.13 156.87 175.7 167.01 169.74 177.34 164.25 187.41 158.79 197.34 153.76 207 149.15 216.04 144.48 224.74 140.16 233.12 136.18 240.85 132.03 248.38 128.14 255.83 124.49 262.81 120.56 269.89 116.81 277.18 113.21 284.21 109.28 291.61 105.47 299.42 101.81 307.13 97.81 315.33 93.97 324.04 90.33 332.7 86.44 341.89 82.82 351.6 79.57 361.28 76.23 371.49 73.36 382.24 71.08" stroke-dasharray="0 0" transform="rotate(13.285714285714285, 400, 400)" opacity="0.46"></path><path d="M391.2 81.48C401.84 79.32 412.89 77.9 424.34 77.25 435.86 76.87 447.85 77.33 460.3 78.62 472.87 80.27 485.94 82.76 499.46 86.07 513.05 89.72 527.01 94.14 541.17 99.28 555.15 104.69 569.03 110.74 582.48 117.36 595.2 124.14 606.95 131.41 617.29 139.08 626.18 146.8 633.11 154.86 637.73 163.2 640.54 171.49 640.94 180 639.05 188.69 636.02 197.27 631.56 206.01 626.38 214.89 622.1 223.62 618.81 232.49 617.49 241.49 619.48 250.34 624.82 259.34 633.93 268.49 646.9 277.51 663.06 286.71 681.47 296.09 700.92 305.37 719.77 314.86 736.25 324.57 749.04 334.21 756.59 344.09 757.96 354.22 753.61 364.31 743.47 374.67 728.76 385.29 712.09 395.89 694.92 406.78 679.58 417.94 668.85 429.09 663.61 440.27 664.27 451.43 670.97 462.58 682.01 473.72 695.64 484.8 710.68 495.86 724.34 506.84 734.86 517.68 741.64 528.47 743.08 539.09 739.06 549.45 730.29 559.72 717.09 569.67 700.66 579.24 682.33 588.62 663.29 597.54 644.8 605.9 627.78 614 612.99 621.47 600.83 628.24 591.58 634.66 584.99 640.33 580.65 645.18 577.3 659.44 564.47 664.16 554.57 664.41 546.88 665.15 538.12 666.07 528.51 667.28 518.5 669.37 507.89 671.9 496.86 674.93 485.68 678.91 474.26 683.37 462.72 688.23 451.15 693.86 439.54 699.68 427.93 705.51 416.33 711.64 404.99 717.25 393.91 722.15 382.78 726.77 371.83 730.34 361.03 732.73 350.1 734.43 339.21 734.76 328.32 733.72 317.22 731.81 306.04 728.52 294.75 723.93 283.24 718.55 271.61 712.01 259.9 704.47 248.09 696.36 236.32 687.45 224.69 677.91 213.25 668.1 202.21 657.85 191.73 647.31 181.81 636.76 172.71 626.06 164.6 615.31 157.29 604.71 151.05 594.15 145.93 583.65 141.45 573.39 137.87 563.21 135.07 553.13 132.36 543.28 129.98 533.49 127.72 523.74 124.87 514.19 121.78 504.63 118.35 495.05 114.04 485.59 109.4 476.05 104.56 466.43 99.23 456.87 94.12 447.17 89.5 437.32 85.2 427.51 81.9 417.52 79.81 407.36 78.58 397.2 78.71 386.87 80.17 376.37 82.26 365.87 85.22 355.46 88.75 345.17 92.07 334.9 95.42 324.75 98.61 314.79 100.98 304.85 103.02 295.12 104.77 285.63 105.82 276.2 106.9 267.03 108.2 258.19 109.49 249.41 111.52 240.98 114.46 232.93 118.06 224.97 122.87 217.41 128.88 210.29 135.74 203.24 143.7 196.63 152.57 190.47 161.95 184.37 171.89 178.7 182.16 173.47 192.37 168.24 202.57 163.4 212.63 158.95 222.2 154.41 231.49 150.19 240.48 146.28 248.86 142.19 257 138.33 264.98 134.69 272.45 130.77 279.91 127.01 287.47 123.4 294.7 119.47 302.17 115.66 309.98 111.99 317.6 108 325.66 104.17 334.18 100.55 342.61 96.69 351.56 93.12 361.06 89.9 370.51 86.59 380.55 83.75 391.19 81.48" stroke-dasharray="0 0" transform="rotate(15.942857142857143, 400, 400)" opacity="0.20"></path><path d="M401.21 91.88C411.75 89.73 422.7 88.3 434.06 87.6 445.46 87.16 457.3 87.52 469.53 88.69 481.82 90.19 494.48 92.5 507.42 95.6 520.31 99.04 533.33 103.22 546.27 108.1 558.87 113.25 571.05 119.04 582.5 125.38 593.1 131.9 602.48 138.91 610.31 146.33 616.77 153.83 621.29 161.67 623.69 169.8 624.65 177.91 623.65 186.26 620.9 194.8 617.65 203.25 613.62 211.88 609.54 220.64 606.87 229.29 605.66 238.07 606.71 246.98 611.03 255.76 618.57 264.68 629.48 273.74 643.64 282.69 660.3 291.79 678.49 301.05 697.04 310.23 714.45 319.6 729.16 329.15 740.1 338.64 745.98 348.35 746.08 358.27 740.99 368.16 730.7 378.29 716.37 388.64 700.44 398.99 684.15 409.58 669.59 420.4 659.27 431.22 653.98 442.03 654.08 452.79 659.81 463.56 669.68 474.26 682.18 484.88 696.34 495.47 709.63 505.95 720.42 516.25 728.14 526.5 731.17 536.54 729.21 546.3 722.8 555.95 711.97 565.27 697.7 574.18 681.11 582.91 663.19 591.17 645.12 598.87 627.78 606.33 611.98 613.17 598.26 619.32 586.96 625.18 578.08 630.32 571.42 634.7 561.27 647.83 550.16 652.91 542.39 653.57 536.29 654.57 529.09 655.76 520.95 657.23 512.44 659.51 503.17 662.19 493.32 665.31 483.29 669.31 472.82 673.72 462.04 678.48 451.21 683.93 440.15 689.53 428.91 695.11 417.66 700.97 406.51 706.33 395.45 711.02 384.37 715.47 373.34 718.94 362.33 721.32 351.25 723.08 340.12 723.58 328.94 722.79 317.63 721.21 306.22 718.33 294.72 714.22 283.12 709.37 271.47 703.41 259.82 696.46 248.24 688.96 236.8 680.66 225.66 671.7 214.85 662.44 204.56 652.71 194.95 642.64 185.98 632.5 177.89 622.16 170.81 611.72 164.47 601.38 159.17 591.01 154.89 580.68 151.11 570.53 148.1 560.43 145.71 550.41 143.24 540.58 140.96 530.81 138.68 521.09 135.72 511.54 132.45 502 128.78 492.45 124.26 483.03 119.41 473.56 114.37 464.02 108.92 454.56 103.72 445 99.06 435.34 94.77 425.7 91.5 415.93 89.48 406.04 88.35 396.16 88.59 386.14 90.16 376 92.38 365.85 95.48 355.83 99.15 345.95 102.62 336.09 106.13 326.38 109.45 316.87 111.96 307.39 114.1 298.12 115.9 289.11 116.94 280.14 117.91 271.45 119.02 263.08 120 254.77 121.61 246.8 124.02 239.2 127 231.67 131.11 224.53 136.38 217.8 142.5 211.12 149.76 204.86 158 199.02 166.86 193.21 176.41 187.81 186.44 182.8 196.59 177.77 206.89 173.1 217.18 168.78 227.16 164.35 236.93 160.22 246.46 156.36 255.48 152.31 264.25 148.47 272.82 144.83 280.89 140.92 288.88 137.15 296.87 133.53 304.49 129.6 312.26 125.79 320.26 122.12 328.04 118.15 336.16 114.34 344.68 110.74 353.08 106.93 361.97 103.39 371.37 100.2 380.73 96.94 390.65 94.14 401.2 91.88" stroke-dasharray="0 0" transform="rotate(18.6, 400, 400)" opacity="0.54"></path><path d="M411.07 102.28C421.49 100.15 432.26 98.7 443.37 97.96 454.5 97.46 465.97 97.74 477.71 98.78 489.44 100.13 501.38 102.27 513.39 105.17 525.25 108.38 536.98 112.33 548.39 116.94 559.33 121.83 569.61 127.34 578.94 133.4 587.39 139.65 594.5 146.39 600.03 153.54 604.36 160.79 606.91 168.39 607.64 176.29 607.36 184.19 605.6 192.35 602.66 200.7 599.78 209 596.72 217.48 594.16 226.11 593.37 234.64 594.35 243.31 597.72 252.1 604.2 260.79 613.62 269.62 625.96 278.56 640.92 287.41 657.72 296.41 675.38 305.54 692.8 314.6 708.65 323.83 721.56 333.22 730.73 342.55 735.04 352.08 733.99 361.78 728.27 371.46 717.92 381.35 704.01 391.43 688.83 401.5 673.4 411.78 659.6 422.26 649.7 432.74 644.37 443.17 643.97 453.52 648.78 463.87 657.52 474.14 668.89 484.27 682.11 494.39 694.9 504.35 705.77 514.11 714.2 523.81 718.56 533.28 718.44 542.43 714.25 551.49 705.77 560.18 693.74 568.46 679.12 576.56 662.69 584.19 645.49 591.27 628.37 598.12 612.12 604.38 597.35 609.99 584.46 615.34 573.64 620.01 564.87 623.98 551.07 632.74 541.81 639.77 538.56 640.67 534.23 641.83 519.98 644.85 510.09 647.26 502.87 649.72 494.83 652.53 486.07 655.73 477.15 659.72 467.65 664.08 457.66 668.72 447.61 673.99 437.17 679.37 426.37 684.71 415.58 690.31 404.71 695.42 393.8 699.9 382.89 704.18 371.9 707.55 360.86 709.9 349.78 711.71 338.6 712.34 327.33 711.78 316.03 710.5 304.63 708.01 293.18 704.36 281.76 700.01 270.36 694.6 259.07 688.23 247.98 681.33 237.16 673.63 226.75 665.26 216.78 656.57 207.42 647.38 198.83 637.81 190.9 628.13 183.87 618.2 177.83 608.12 172.46 598.09 168.03 587.99 164.5 577.88 161.32 567.91 158.76 557.95 156.64 548.05 154.31 538.31 152.03 528.6 149.63 518.96 146.49 509.45 142.98 499.96 139.05 490.49 134.29 481.13 129.22 471.74 124.01 462.33 118.46 452.98 113.2 443.56 108.53 434.08 104.28 424.63 101.09 415.09 99.15 405.46 98.13 395.84 98.47 386.13 100.15 376.33 102.49 366.53 105.71 356.88 109.5 347.41 113.11 337.94 116.76 328.65 120.23 319.58 122.89 310.53 125.16 301.7 127.04 293.15 128.13 284.62 129.06 276.38 130.03 268.46 130.77 260.58 132.01 253.04 133.94 245.86 136.32 238.73 139.74 231.97 144.26 225.6 149.59 219.27 156.06 213.32 163.56 207.76 171.76 202.22 180.76 197.04 190.36 192.23 200.26 187.37 210.45 182.84 220.77 178.63 230.96 174.3 241.06 170.23 251 166.41 260.56 162.39 269.9 158.57 279.04 154.92 287.74 151.01 296.31 147.24 304.81 143.61 312.95 139.68 321.15 135.87 329.48 132.2 337.57 128.25 345.92 124.47 354.58 120.91 363.11 117.14 372.04 113.64 381.44 110.5 390.78 107.29 400.64 104.52 411.06 102.28" stroke-dasharray="0 0" transform="rotate(21.257142857142856, 400, 400)" opacity="0.29"></path><path d="M419.59 112.68C429.83 110.57 440.33 109.11 451.03 108.33 461.74 107.78 472.65 107.97 483.65 108.89 494.61 110.11 505.56 112.07 516.38 114.77 526.98 117.77 537.23 121.47 546.93 125.82 556.12 130.44 564.47 135.67 571.74 141.44 578.18 147.4 583.28 153.85 586.87 160.71 589.53 167.69 590.65 175.03 590.31 182.68 589.41 190.35 587.52 198.28 584.99 206.43 582.99 214.55 581.31 222.85 580.57 231.3 581.8 239.69 584.95 248.22 590.49 256.87 598.86 265.44 609.82 274.13 623.2 282.94 638.56 291.68 655.15 300.54 671.99 309.53 688.11 318.45 702.32 327.52 713.44 336.73 720.91 345.9 723.78 355.22 721.71 364.71 715.48 374.16 705.13 383.8 691.69 393.59 677.25 403.38 662.67 413.34 649.61 423.46 640.12 433.58 634.78 443.62 633.93 453.56 637.88 463.49 645.53 473.3 655.78 482.95 668.02 492.58 680.2 502.03 690.97 511.24 699.88 520.4 705.33 529.3 706.82 537.86 704.66 546.33 698.43 554.43 688.66 562.1 676.17 569.61 661.49 576.64 645.56 583.14 629.14 589.45 612.98 595.17 597.72 600.29 583.76 605.18 571.45 609.45 560.91 613.07 548.73 617.93 533.72 624.52 529.14 626.51 521.82 629.57 505.39 634.66 496.83 637.39 490.62 640 483.58 642.92 475.77 646.18 467.82 650.16 459.2 654.44 449.98 658.96 440.71 664.05 430.91 669.21 420.64 674.31 410.37 679.64 399.89 684.52 389.26 688.79 378.65 692.9 367.87 696.15 356.98 698.48 346.09 700.31 335.08 701.06 323.98 700.7 312.92 699.7 301.8 697.56 290.69 694.34 279.71 690.47 268.84 685.59 258.19 679.78 247.83 673.47 237.84 666.36 228.37 658.58 219.4 650.47 211.11 641.84 203.63 632.8 196.77 623.61 190.8 614.13 185.77 604.46 181.29 594.79 177.63 585.01 174.73 575.18 172.02 565.44 169.76 555.69 167.8 545.97 165.49 536.37 163.1 526.8 160.5 517.27 157.12 507.86 153.32 498.47 149.11 489.11 144.11 479.85 138.84 470.57 133.48 461.29 127.85 452.08 122.57 442.82 117.92 433.53 113.75 424.28 110.66 414.96 108.82 405.6 107.91 396.24 108.36 386.82 110.14 377.36 112.59 367.9 115.9 358.61 119.79 349.52 123.53 340.43 127.32 331.55 130.93 322.89 133.75 314.25 136.18 305.85 138.18 297.72 139.36 289.61 140.32 281.8 141.21 274.29 141.78 266.82 142.72 259.67 144.22 252.88 146.06 246.11 148.82 239.7 152.6 233.66 157.12 227.63 162.75 221.96 169.43 216.66 176.84 211.34 185.13 206.36 194.14 201.72 203.57 197.01 213.44 192.6 223.58 188.48 233.76 184.22 243.98 180.2 254.15 176.41 264.08 172.42 273.85 168.6 283.45 164.95 292.71 161.04 301.83 157.26 310.83 153.62 319.52 149.69 328.19 145.89 336.92 142.24 345.42 138.32 354.07 134.57 362.95 131.04 371.69 127.32 380.75 123.88 390.17 120.78 399.53 117.62 409.33 114.9 419.58 112.69" stroke-dasharray="0 0" transform="rotate(23.91428571428571, 400, 400)" opacity="0.78"></path><path d="M425.73 123.08C435.74 120.99 445.85 119.53 456.02 118.72 466.17 118.12 476.35 118.22 486.45 119.02 496.46 120.11 506.28 121.91 515.77 124.4 525 127.18 533.7 130.64 541.69 134.73 549.18 139.08 555.72 144.02 561.16 149.49 565.9 155.16 569.37 161.3 571.51 167.87 573.01 174.56 573.29 181.62 572.5 188.98 571.57 196.4 570.11 204.09 568.5 212 567.78 219.9 567.77 227.99 568.98 236.25 572.24 244.45 577.45 252.81 584.91 261.29 594.85 269.7 606.97 278.25 620.98 286.9 636.38 295.48 652.44 304.19 668.23 313.01 682.91 321.77 695.43 330.67 704.8 339.68 710.65 348.66 712.21 357.77 709.25 367.01 702.61 376.23 692.35 385.6 679.41 395.09 665.71 404.58 651.96 414.22 639.62 423.97 630.55 433.72 625.21 443.37 623.96 452.87 627.12 462.37 633.73 471.73 642.88 480.89 654.1 490.04 665.57 498.97 676.09 507.65 685.26 516.28 691.55 524.61 694.41 532.61 694.05 540.52 689.93 548.04 682.37 555.14 672.07 562.09 659.36 568.58 645 574.55 629.71 580.35 614.13 585.6 598.9 590.28 584.42 594.78 571.13 598.7 559.25 602.04 548.9 605.24 540.06 607.89 532.58 610.01 523.98 612.91 511.88 616.88 506.87 618.34 502.13 620.15 490.11 624.59 482.32 627.62 476.76 630.35 470.44 633.36 463.37 636.65 456.2 640.6 448.34 644.81 439.82 649.2 431.26 654.1 422.11 659.05 412.4 663.91 402.7 668.99 392.71 673.62 382.49 677.7 372.31 681.62 361.92 684.76 351.37 687.04 340.88 688.89 330.26 689.74 319.58 689.56 309 688.81 298.42 687 287.92 684.17 277.62 680.75 267.52 676.37 257.73 671.11 248.3 665.36 239.32 658.83 230.93 651.64 223.06 644.12 215.89 636.05 209.53 627.56 203.74 618.89 198.77 609.9 194.65 600.68 190.93 591.42 187.92 582.01 185.5 572.51 183.11 563.07 181.02 553.58 179.08 544.09 176.67 534.69 174.09 525.3 171.21 515.95 167.54 506.69 163.43 497.44 158.93 488.23 153.7 479.1 148.25 469.98 142.77 460.86 137.1 451.8 131.84 442.73 127.25 433.65 123.19 424.59 120.21 415.51 118.5 406.41 117.71 397.32 118.27 388.2 120.13 379.06 122.67 369.93 126.06 360.99 130.03 352.27 133.88 343.54 137.79 335.04 141.54 326.78 144.54 318.53 147.13 310.52 149.29 302.8 150.61 295.08 151.64 287.66 152.52 280.54 152.99 273.44 153.71 266.66 154.86 260.21 156.22 253.78 158.38 247.68 161.45 241.92 165.17 236.17 169.95 230.74 175.75 225.66 182.29 220.54 189.75 215.73 198.01 211.24 206.78 206.65 216.12 202.34 225.86 198.29 235.79 194.09 245.9 190.12 256.06 186.34 266.14 182.37 276.16 178.55 286.06 174.9 295.73 170.99 305.27 167.21 314.69 163.56 323.86 159.65 332.97 155.86 342.06 152.22 350.97 148.34 359.94 144.63 369.03 141.14 378.02 137.48 387.2 134.1 396.63 131.05 406.02 127.95 415.71 125.27 425.72 123.09" stroke-dasharray="0 0" transform="rotate(26.57142857142857, 400, 400)" opacity="0.55"></path><path d="M428.75 133.48C438.44 131.42 448.07 129.96 457.6 129.12 467.11 128.47 476.46 128.5 485.56 129.19 494.55 130.14 503.18 131.77 511.32 134.07 519.19 136.64 526.41 139.86 532.83 143.68 538.81 147.76 543.83 152.4 547.79 157.57 551.22 162.93 553.55 168.77 554.78 175.03 555.67 181.41 555.68 188.16 555.02 195.24 554.59 202.37 554.02 209.78 553.71 217.43 554.54 225.08 556.34 232.94 559.53 240.96 564.71 248.96 571.76 257.11 580.83 265.39 591.96 273.62 604.85 281.97 619.1 290.43 634.19 298.84 649.44 307.37 663.98 315.99 677.13 324.57 687.94 333.27 695.62 342.06 699.98 350.82 700.35 359.7 696.63 368.69 689.7 377.65 679.59 386.74 667.17 395.92 654.21 405.1 641.27 414.39 629.63 423.77 620.97 433.14 615.67 442.38 614.05 451.46 616.48 460.53 622.11 469.42 630.18 478.1 640.37 486.77 651.06 495.19 661.17 503.35 670.41 511.46 677.3 519.26 681.27 526.71 682.49 534.08 680.28 541.07 674.83 547.63 666.72 554.07 656.07 560.06 643.52 565.55 629.7 570.9 615.12 575.73 600.42 580.03 585.97 584.2 572.23 587.83 559.5 590.93 547.92 593.94 537.61 596.46 528.54 598.52 520.74 600.57 513.98 602.25 508.04 603.58 500.75 605.7 488.21 609.57 481.89 611.7 477.73 613.62 473.07 615.68 467.83 617.92 462.57 620.76 456.67 623.84 450.1 627.16 443.48 631.07 436.2 635.18 428.28 639.43 420.33 644.15 411.78 648.88 402.66 653.51 393.54 658.34 384.11 662.74 374.43 666.61 364.78 670.36 354.93 673.38 344.93 675.61 335.01 677.46 324.99 678.38 314.95 678.37 305.06 677.84 295.23 676.33 285.56 673.86 276.14 670.87 267 666.96 258.24 662.21 249.87 657 242 651.05 234.77 644.43 228.01 637.49 221.95 630 216.67 622.06 211.85 613.93 207.78 605.46 204.43 596.72 201.34 587.91 198.8 578.92 196.7 569.8 194.48 560.71 192.42 551.53 190.37 542.33 187.76 533.19 184.9 524.04 181.69 514.9 177.69 505.84 173.27 496.79 168.48 487.77 163.04 478.82 157.44 469.87 151.88 460.95 146.21 452.08 141.01 443.21 136.52 434.35 132.59 425.52 129.75 416.68 128.17 407.85 127.52 399.03 128.18 390.2 130.12 381.38 132.73 372.57 136.19 363.97 140.21 355.6 144.16 347.23 148.18 339.09 152.06 331.2 155.23 323.31 158.01 315.68 160.35 308.33 161.83 300.98 162.99 293.91 163.93 287.15 164.37 280.39 164.95 273.94 165.84 267.81 166.8 261.67 168.44 255.85 170.86 250.36 173.82 244.84 177.76 239.64 182.67 234.74 188.28 229.79 194.83 225.13 202.21 220.75 210.18 216.27 218.8 212.04 227.93 208.05 237.37 203.9 247.12 199.95 257.04 196.19 267.02 192.23 277.04 188.42 287.01 184.76 296.88 180.86 306.66 177.08 316.34 173.43 325.85 169.54 335.28 165.77 344.65 162.15 353.87 158.32 363.1 154.66 372.35 151.21 381.52 147.62 390.79 144.3 400.17 141.3 409.53 138.27 419.05 135.64 428.74 133.49" stroke-dasharray="0 0" transform="rotate(29.228571428571428, 400, 400)" opacity="0.45"></path><path d="M428.29 143.88C437.58 141.85 446.66 140.39 455.49 139.53 464.29 138.84 472.78 138.79 480.87 139.38 488.85 140.2 496.33 141.68 503.22 143.78 509.87 146.14 515.8 149.12 520.91 152.68 527.61 158.66 535.89 173.51 537.61 182.2 538.41 188.26 538.69 194.7 538.65 201.45 539.12 208.29 539.8 215.4 541.03 222.75 543.54 230.13 547.17 237.72 552.23 245.48 559.12 253.24 567.71 261.15 578.02 269.19 589.97 277.21 603.21 285.34 617.33 293.58 631.81 301.79 646.01 310.1 659.17 318.5 670.71 326.87 679.85 335.33 685.92 343.88 688.9 352.41 688.22 361.04 683.87 369.75 676.74 378.44 666.84 387.23 654.98 396.08 642.74 404.94 630.59 413.87 619.64 422.86 611.39 431.85 606.15 440.68 604.21 449.32 605.96 457.96 610.67 466.4 617.7 474.61 626.85 482.79 636.7 490.73 646.29 498.38 655.41 505.98 662.67 513.27 667.49 520.22 670.03 527.08 669.52 533.57 666.01 539.64 660.01 545.61 651.46 551.14 640.85 556.21 628.75 561.16 615.55 565.63 601.79 569.61 587.87 573.49 574.2 576.89 561.15 579.81 548.84 582.67 537.51 585.11 527.21 587.14 517.97 589.2 509.71 590.94 502.31 592.38 492.85 594.72 476.96 599.16 469.59 601.61 464.91 603.71 459.95 605.93 454.6 608.32 449.32 611.24 443.55 614.37 437.25 617.69 430.94 621.54 424.06 625.55 416.62 629.67 409.16 634.19 401.14 638.71 392.6 643.11 384.06 647.69 375.22 651.86 366.16 655.53 357.14 659.11 347.94 662 338.63 664.17 329.42 666.01 320.17 667 310.96 667.12 301.91 666.79 293 665.55 284.32 663.42 275.91 660.81 267.83 657.35 260.2 653.09 252.93 648.4 246.2 643 240.1 636.95 234.42 630.58 229.39 623.66 225.08 616.29 221.1 608.71 217.76 600.77 215.01 592.54 212.37 584.21 210.13 575.67 208.19 566.98 205.98 558.28 203.81 549.47 201.54 540.6 198.65 531.77 195.45 522.91 191.88 514.04 187.53 505.23 182.8 496.42 177.74 487.63 172.13 478.9 166.42 470.18 160.82 461.48 155.2 452.82 150.09 444.18 145.73 435.56 141.96 426.97 139.29 418.39 137.86 409.83 137.34 401.28 138.1 392.75 140.11 384.25 142.78 375.75 146.28 367.48 150.35 359.45 154.36 351.42 158.48 343.63 162.48 336.09 165.82 328.55 168.78 321.26 171.32 314.25 173.01 307.24 174.34 300.51 175.39 294.07 175.88 287.62 176.4 281.47 177.12 275.62 178.38 266.96 184.68 251.1 190.29 243.85 194.96 239.05 200.56 234.52 206.99 230.23 214.03 225.84 221.78 221.68 230.12 217.73 238.87 213.62 248.03 209.7 257.47 205.95 267.09 202 276.85 198.19 286.66 194.53 296.48 190.64 306.26 186.87 315.98 183.23 325.63 179.36 335.19 175.62 344.67 172.03 354.07 168.25 363.42 164.64 372.72 161.25 381.97 157.73 391.22 154.48 400.47 151.55 409.71 148.58 418.99 146.01 428.28 143.89" stroke-dasharray="0 0" transform="rotate(31.885714285714286, 400, 400)" opacity="0.82"></path><path d="M424.4 154.29C433.22 152.29 441.71 150.84 449.83 149.95 457.91 149.23 465.56 149.11 472.72 149.59 479.77 150.3 486.24 151.62 492.08 153.53 500.17 157.06 512.25 167.3 516.16 173.87 519.15 181.21 522.61 198.18 524.06 207.66 525.72 214.17 527.85 220.96 530.73 228 534.91 235.08 540.26 242.37 546.98 249.84 555.29 257.33 565.07 264.97 576.23 272.74 588.59 280.51 601.81 288.39 615.47 296.38 629.08 304.34 642.05 312.41 653.7 320.56 663.64 328.69 671.14 336.9 675.71 345.18 677.43 353.45 675.84 361.8 670.99 370.21 663.75 378.61 654.12 387.08 642.83 395.6 631.32 404.12 619.94 412.69 609.65 421.28 601.8 429.88 596.64 438.29 594.44 446.5 595.57 454.71 599.41 462.69 605.45 470.44 613.57 478.16 622.52 485.62 631.49 492.79 640.33 499.92 647.74 506.73 653.18 513.19 656.77 519.59 657.71 525.62 655.95 531.25 651.92 536.79 645.41 541.92 636.8 546.61 626.59 551.21 615.01 555.37 602.56 559.08 589.59 562.73 576.48 565.94 563.59 568.72 551.08 571.49 539.22 573.87 528.14 575.9 517.85 578 508.41 579.82 499.78 581.39 491.94 583.14 484.74 584.74 478.05 586.24 471.93 588.04 466.07 589.84 460.34 591.67 454.92 593.93 449.43 596.3 443.74 598.79 438.19 601.78 432.32 604.93 426.07 608.24 419.85 612.02 413.2 615.93 406.1 619.9 399 624.23 391.44 628.53 383.43 632.71 375.43 637.05 367.2 640.99 358.81 644.47 350.46 647.86 341.99 650.64 333.48 652.73 325.07 654.55 316.68 655.58 308.41 655.82 300.3 655.66 292.4 654.66 284.78 652.85 277.42 650.6 270.45 647.55 263.94 643.75 257.75 639.56 252.1 634.68 247.06 629.18 242.33 623.37 238.2 617.02 234.69 610.21 231.38 603.19 228.58 595.79 226.24 588.09 223.87 580.27 221.75 572.21 219.79 563.98 217.46 555.71 215.06 547.31 212.47 538.82 209.23 530.35 205.65 521.82 201.69 513.27 197.02 504.76 192 496.23 186.71 487.72 180.96 479.24 175.19 470.78 169.6 462.34 164.07 453.93 159.1 445.54 154.9 437.19 151.33 428.85 148.84 420.54 147.56 412.27 147.17 404.01 148.03 395.77 150.1 387.59 152.81 379.4 156.34 371.45 160.42 363.75 164.49 356.04 168.68 348.58 172.79 341.37 176.29 334.15 179.44 327.19 182.18 320.5 184.11 313.81 185.64 307.38 186.86 301.23 187.74 292.12 189.54 275.27 191.37 267.52 193.04 262.4 195.47 257.55 198.7 252.95 202.47 248.28 207.1 243.85 212.56 239.64 218.6 235.33 225.38 231.22 232.81 227.3 240.68 223.24 249.06 219.33 257.8 215.59 266.82 211.66 276.08 207.86 285.47 204.19 294.97 200.32 304.51 196.57 314.04 192.94 323.57 189.11 333.05 185.41 342.45 181.86 351.82 178.14 361.12 174.59 370.31 171.26 379.49 167.82 388.59 164.64 397.61 161.77 406.62 158.88 415.56 156.37 424.38 154.29" stroke-dasharray="0 0" transform="rotate(34.542857142857144, 400, 400)" opacity="0.77"></path><path d="M417.54 164.69C425.85 162.73 433.74 161.29 441.18 160.39 448.58 159.63 455.47 159.45 461.83 159.84 470.93 161.01 485.82 166.55 491.49 170.85 496.34 176 503.17 188.97 505.67 196.65 507.6 202.04 509.56 207.8 511.77 213.88 514.79 220.05 518.43 226.5 522.92 233.2 528.64 239.95 535.49 246.93 543.58 254.08 552.98 261.26 563.55 268.61 575.15 276.08 587.55 283.56 600.41 291.17 613.31 298.87 625.82 306.56 637.42 314.35 647.53 322.22 655.86 330.08 661.82 338.01 665 346 665.61 353.99 663.24 362.04 658 370.13 650.74 378.22 641.43 386.36 630.73 394.52 619.94 402.68 609.31 410.88 599.66 419.07 592.21 427.27 587.15 435.27 584.72 443.05 585.29 450.83 588.33 458.37 593.42 465.67 600.53 472.94 608.56 479.95 616.83 486.66 625.24 493.34 632.61 499.7 638.43 505.72 643.88 514.49 640.17 530.07 631.24 536.83 622.98 541.13 613.19 545.03 602.29 548.52 590.63 551.97 578.49 555.04 566.23 557.73 554.01 560.43 542.11 562.8 530.72 564.85 519.84 567 509.63 568.91 500.1 570.61 491.21 572.5 482.94 574.26 475.21 575.94 468.01 577.91 461.18 579.89 454.61 581.88 448.38 584.28 442.23 586.76 436.07 589.35 430.08 592.38 423.94 595.54 417.59 598.82 411.3 602.52 404.73 606.3 397.86 610.12 390.99 614.27 383.79 618.36 376.27 622.31 368.76 626.41 361.12 630.13 353.4 633.42 345.72 636.63 338.01 639.28 330.33 641.3 322.75 643.08 315.27 644.14 307.97 644.48 300.82 644.47 293.93 643.69 287.37 642.15 281.04 640.23 275.11 637.56 269.65 634.2 264.45 630.47 259.75 626.09 255.6 621.11 251.67 615.85 248.25 610.05 245.33 603.8 242.49 597.34 240.04 590.5 237.91 583.33 235.61 576.04 233.45 568.49 231.32 560.74 228.75 552.93 226.02 544.97 223.04 536.91 219.41 528.83 215.44 520.68 211.1 512.49 206.12 504.32 200.84 496.12 195.37 487.91 189.54 479.74 183.76 471.57 178.23 463.42 172.84 455.29 168.04 447.19 164.04 439.12 160.68 431.06 158.39 423.04 157.28 415.06 157.03 407.09 157.98 399.16 160.09 391.29 162.83 383.42 166.36 375.78 170.45 368.4 174.55 361 178.79 353.85 182.98 346.95 186.63 340.05 189.97 333.39 192.92 326.99 195.09 320.58 196.86 314.43 198.29 308.55 199.4 299.82 201.05 283.62 202.42 276.14 204.51 268.83 212.73 255.26 219.09 248.95 224.12 244.71 229.88 240.64 236.3 236.75 243.19 232.72 250.63 228.84 258.52 225.1 266.73 221.19 275.26 217.41 284.01 213.75 292.94 209.9 301.99 206.17 311.09 202.57 320.27 198.78 329.43 195.13 338.53 191.63 347.66 187.98 356.7 184.5 365.62 181.24 374.56 177.88 383.38 174.78 392.04 171.99 400.71 169.17 409.22 166.72 417.53 164.69" stroke-dasharray="0 0" transform="rotate(37.2, 400, 400)" opacity="0.40"></path><path d="M408.56 175.09C416.33 173.17 423.64 171.75 430.46 170.84 440.38 169.94 457.47 171.11 464.54 173.18 470.94 176.09 481.01 184.76 484.95 190.43 488.87 196.79 497.03 211.72 502.15 220.13 506.53 225.95 511.62 232.05 517.57 238.39 524.61 244.8 532.66 251.43 541.75 258.24 551.86 265.09 562.83 272.11 574.49 279.26 586.56 286.42 598.76 293.72 610.65 301.11 621.91 308.5 632.06 315.99 640.6 323.54 647.39 331.1 651.89 338.73 653.82 346.4 653.46 354.07 650.45 361.8 644.93 369.56 637.72 377.31 628.79 385.1 618.68 392.9 608.6 400.7 598.69 408.51 589.67 416.3 582.62 424.09 577.68 431.68 575.06 439.04 575.14 446.39 577.43 453.51 581.63 460.37 587.75 467.22 594.86 473.79 602.35 480.07 610.22 486.32 617.38 492.27 623.36 497.88 629.81 506.07 630.26 520.62 624.07 526.94 617.74 530.99 609.82 534.67 600.63 537.99 590.52 541.29 579.68 544.25 568.43 546.88 556.95 549.54 545.48 551.92 534.25 554.02 523.26 556.23 512.72 558.24 502.7 560.07 493.13 562.09 484.11 564.01 475.59 565.85 467.52 567.98 459.85 570.1 452.53 572.24 445.52 574.75 438.72 577.32 432.05 579.98 425.55 583.03 419.06 586.18 412.53 589.41 406.06 593.02 399.47 596.68 392.73 600.34 386 604.29 379.09 608.17 371.99 611.91 364.9 615.77 357.79 619.28 350.72 622.37 343.67 625.42 336.69 627.93 329.83 629.87 323.05 631.6 316.44 632.69 310.07 633.1 300.85 632.92 284.38 628.56 277.33 624.44 270.98 619.19 260.77 605.39 256.77 597.06 254.19 591.15 251.87 584.85 249.75 578.23 247.36 571.47 245 564.44 242.58 557.2 239.67 549.88 236.54 542.39 233.14 534.78 229.11 527.14 224.74 519.4 220.05 511.6 214.8 503.81 209.33 495.97 203.73 488.11 197.87 480.28 192.15 472.43 186.73 464.6 181.52 456.79 176.94 448.99 173.16 441.23 170.03 433.48 167.95 425.76 167.01 418.09 166.89 410.43 167.93 402.81 170.08 395.25 172.83 387.69 176.35 380.37 180.42 373.29 184.53 366.2 188.8 359.35 193.06 352.75 196.84 346.13 200.35 339.76 203.5 333.63 205.92 327.49 207.95 321.59 209.62 315.95 211.04 307.56 212.83 291.95 213.91 284.71 215.41 277.6 221.65 264.33 226.7 258.13 230.75 253.94 235.5 249.92 240.9 246.06 246.75 242.06 253.17 238.2 260.07 234.48 267.33 230.6 274.97 226.83 282.89 223.19 291.05 219.38 299.4 215.68 307.86 212.12 316.45 208.38 325.07 204.79 333.67 201.35 342.34 197.77 350.95 194.37 359.43 191.19 367.96 187.92 376.34 184.91 384.54 182.19 392.76 179.46 400.78 177.07 408.55 175.09" stroke-dasharray="0 0" transform="rotate(39.857142857142854, 400, 400)" opacity="0.36"></path><path d="M398.54 185.49C405.76 183.62 412.54 182.22 418.84 181.3 428.01 180.36 443.86 181.24 450.54 183.08 456.75 185.7 467.3 193.61 472 198.83 475.34 202.61 478.67 206.81 482.14 211.37 486.13 216.06 490.48 221.11 495.34 226.45 500.98 231.9 507.33 237.63 514.48 243.61 522.54 249.65 531.44 255.91 541.15 262.36 551.57 268.86 562.56 275.52 573.91 282.32 585.36 289.15 596.63 296.1 607.33 303.15 617.23 310.21 625.88 317.37 632.89 324.59 638.2 331.82 641.37 339.11 642.19 346.44 641 353.78 637.48 361.16 631.79 368.57 624.71 375.97 616.18 383.39 606.69 390.81 597.29 398.24 588.09 405.66 579.68 413.04 573.03 420.43 568.22 427.6 565.46 434.55 565.09 441.49 566.71 448.19 570.07 454.64 575.25 461.07 581.42 467.24 588.11 473.12 595.33 478.98 602.13 484.54 608.07 489.79 615.16 497.45 619.01 511.09 615.3 517.04 610.79 520.88 604.71 524.38 597.31 527.56 588.9 530.75 579.58 533.63 569.63 536.23 559.24 538.87 548.61 541.27 537.96 543.43 527.33 545.72 516.91 547.82 506.83 549.78 497 551.92 487.59 553.98 478.62 555.97 469.97 558.23 461.71 560.48 453.82 562.75 446.2 565.34 438.85 567.98 431.72 570.68 424.77 573.73 417.94 576.85 411.19 580.03 404.52 583.53 397.86 587.05 391.19 590.56 384.54 594.32 377.85 597.99 371.1 601.51 364.36 605.14 357.73 608.44 351.23 611.34 344.75 614.21 338.43 616.59 332.32 618.44 323.33 620.67 306.86 621.7 299.54 620.42 292.76 618.07 281.33 609.86 276.68 604.13 272.37 597.51 264.96 581.72 261.49 572.76 258.87 566.54 256.19 560.04 253.38 553.31 250.07 546.5 246.51 539.5 242.66 532.36 238.24 525.18 233.52 517.89 228.53 510.51 223.07 503.13 217.45 495.69 211.8 488.21 205.98 480.75 200.37 473.26 195.11 465.78 190.13 458.31 185.79 450.85 182.27 443.41 179.39 435.99 177.53 428.59 176.76 421.24 176.78 413.9 177.9 406.59 180.07 399.35 182.82 392.11 186.31 385.09 190.34 378.31 194.44 371.53 198.72 364.97 203.02 358.64 206.91 352.31 210.57 346.2 213.91 340.33 217.72 331.61 222.62 315.28 224.04 307.66 224.79 300.2 226.88 286.25 228.81 279.72 231.53 273.25 240.51 261.01 246.82 255.2 251.63 251.24 257.01 247.41 262.89 243.71 269.11 239.86 275.75 236.12 282.73 232.51 289.97 228.75 297.45 225.09 305.1 221.58 312.92 217.91 320.83 214.38 328.75 211.01 336.78 207.51 344.78 204.2 352.69 201.11 360.65 197.94 368.49 195.01 376.15 192.38 383.83 189.73 391.31 187.42 398.53 185.49" stroke-dasharray="0 0" transform="rotate(42.51428571428571, 400, 400)" opacity="0.73"></path><path d="M388.7 195.89C395.4 194.07 401.7 192.7 407.59 191.77 416.19 190.79 431.36 191.42 437.99 193.03 444.36 195.36 456.09 202.54 461.82 207.32 465.96 210.79 470.23 214.65 474.75 218.87 479.8 223.21 485.27 227.89 491.28 232.86 497.97 237.94 505.31 243.29 513.34 248.88 522.06 254.54 531.43 260.43 541.36 266.49 551.72 272.61 562.37 278.9 573.09 285.33 583.66 291.79 593.81 298.38 603.2 305.06 611.67 311.77 618.83 318.57 624.37 325.43 628.33 332.3 630.3 339.24 630.15 346.21 628.27 353.19 624.37 360.21 618.6 367.24 611.72 374.28 603.63 381.32 594.75 388.36 586.04 395.4 577.51 402.42 569.69 409.4 563.43 416.38 558.78 423.15 555.9 429.69 555.15 436.23 556.16 442.53 558.75 448.59 563.03 454.63 568.29 460.41 574.14 465.92 580.65 471.41 586.96 476.62 592.7 481.53 600.08 488.72 606.54 501.57 604.96 507.21 602.12 510.87 597.78 514.23 592.12 517.31 585.45 520.4 577.78 523.24 569.33 525.82 560.3 528.46 550.83 530.89 541.12 533.12 531.23 535.47 521.35 537.68 511.61 539.75 501.96 542.01 492.57 544.18 483.5 546.31 474.62 548.67 466.09 551.03 457.89 553.39 449.89 556.04 442.18 558.73 434.75 561.45 427.45 564.49 420.36 567.56 413.45 570.66 406.62 574.04 399.9 577.43 393.28 580.77 386.69 584.34 380.17 587.8 373.72 591.11 367.27 594.52 361.04 597.61 355.03 600.33 346.15 604.14 329.71 609.18 322.25 610.25 315.18 610.41 302.86 607.44 297.63 604.33 292.75 600.29 284.36 589.31 280.64 582.52 277.99 577.67 275.41 572.44 272.83 566.89 269.87 561.21 266.79 555.24 263.54 549.03 259.79 542.74 255.8 536.25 251.54 529.59 246.76 522.9 241.74 516.06 236.51 509.14 230.91 502.19 225.24 495.17 219.59 488.11 213.89 481.04 208.44 473.94 203.41 466.83 198.68 459.73 194.63 452.63 191.38 445.54 188.77 438.46 187.13 431.4 186.53 424.38 186.68 417.37 187.87 410.39 190.06 403.47 192.8 396.55 196.24 389.84 200.21 383.36 204.27 376.86 208.54 370.59 212.86 364.53 216.82 358.47 220.61 352.62 224.12 346.98 228.3 338.61 234.04 322.89 235.83 315.53 236.82 308.29 238.78 294.71 240.29 288.31 242.3 281.97 249.17 269.9 254.18 264.15 258.01 260.23 262.39 256.44 267.27 252.77 272.45 248.97 278.06 245.28 284.05 241.71 290.28 238 296.8 234.4 303.55 230.94 310.46 227.35 317.53 223.9 324.67 220.61 331.92 217.21 339.2 214 346.42 210.99 353.71 207.93 360.92 205.1 367.98 202.55 375.07 200 381.99 197.76 388.69 195.89" stroke-dasharray="0 0" transform="rotate(45.17142857142857, 400, 400)" opacity="0.89"></path><path d="M380.22 206.29C389.39 203.86 406.12 201.25 413.72 201.12 421.06 201.64 434.68 205.1 441.21 208.01 447.97 211.57 462.37 220.84 470.45 226.48 476.41 230.47 482.81 234.79 489.71 239.38 497.17 244.08 505.17 249.05 513.7 254.25 522.72 259.52 532.17 265.01 541.96 270.69 551.92 276.42 561.92 282.31 571.76 288.35 581.25 294.42 590.14 300.63 598.15 306.93 605.18 313.25 610.9 319.67 615.06 326.15 617.78 332.65 618.7 339.21 617.73 345.8 615.3 352.4 611.13 359.04 605.38 365.69 598.76 372.34 591.13 379 582.87 385.64 574.82 392.28 566.95 398.9 559.7 405.48 553.83 412.06 549.34 418.43 546.4 424.57 545.31 430.72 545.78 436.64 547.66 442.31 551.09 447.98 555.48 453.4 560.49 458.57 566.23 463.72 571.95 468.61 577.33 473.22 588.84 486.07 590.38 502.66 584.97 507.27 580.01 510.3 574 513.1 567.13 515.68 559.62 518.33 551.51 520.8 543 523.1 534.19 525.52 525.19 527.81 516.15 529.99 507.06 532.34 498.06 534.62 489.26 536.85 480.53 539.3 472.05 541.74 463.84 544.17 455.75 546.86 447.94 549.57 440.39 552.29 432.95 555.28 425.75 558.29 418.78 561.31 411.86 564.56 405.14 567.8 398.6 570.98 392.09 574.35 385.72 577.61 379.52 580.71 373.32 583.9 367.41 586.78 361.8 589.32 353.52 592.9 338.48 597.69 331.76 598.78 319.78 597.87 304.72 590.49 300.54 586.01 296.31 580.78 287.94 568.01 283.5 560.62 280.13 555.46 276.61 550.01 272.91 544.32 268.74 538.55 264.34 532.57 259.71 526.41 254.65 520.21 249.4 513.85 244.01 507.4 238.36 500.91 232.7 494.33 227.15 487.7 221.61 481.05 216.4 474.36 211.63 467.65 207.21 460.94 203.46 454.21 200.5 447.49 198.16 440.77 196.75 434.07 196.33 427.39 196.61 420.72 197.86 414.08 200.05 407.49 202.76 400.89 206.14 394.49 210.03 388.3 214.03 382.11 218.25 376.11 222.56 370.32 226.58 364.51 230.46 358.91 234.12 353.51 238.65 345.47 245.25 330.32 247.47 323.19 248.81 316.18 250.99 302.94 252.29 296.69 253.84 290.46 259.09 278.58 262.99 272.9 267.72 267.16 279.93 256.1 287.25 250.77 292.47 247.13 298.02 243.61 303.82 240.22 309.79 236.72 315.96 233.35 322.25 230.15 328.66 226.86 335.13 223.75 341.63 220.85 348.19 217.89 354.72 215.17 361.17 212.72 367.64 210.26 374 208.1 380.21 206.29" stroke-dasharray="0 0" transform="rotate(47.82857142857142, 400, 400)" opacity="0.34"></path><path d="M374.15 216.69C382.71 214.34 398.79 211.74 406.36 211.52 413.82 211.9 428.33 214.9 435.61 217.5 445.92 221.63 456.9 227.28 469.03 234.23 482.7 241.63 498.08 250.22 515.07 259.75 533.14 269.57 551.79 280.21 569.63 291.43 585.56 302.82 597.92 314.68 604.97 326.83 606.59 332.94 606.6 339.1 604.97 345.3 602.12 351.51 597.8 357.75 592.15 364 585.83 370.25 578.69 376.52 571.04 382.76 563.64 389 556.41 395.22 549.71 401.4 544.22 407.57 539.92 413.55 536.93 419.31 535.57 427.85 541.22 443.8 547.17 451.19 552.12 456.03 557.19 460.62 562.09 464.97 571.72 473.64 578.05 481.35 580.07 488.06 578.74 494.84 572.69 500.76 562.76 505.86 550.28 511.27 535.49 516.11 519.59 520.49 503.02 525.51 486.5 530.36 470.62 535.08 462.75 537.78 455.08 540.49 447.66 543.19 440.3 546.12 433.16 549.05 426.27 551.96 419.42 555.09 412.78 558.17 406.37 561.18 399.98 564.35 393.79 567.41 387.81 570.3 379 574.62 363.05 581.66 355.87 584.22 348.98 586.21 336.73 587.68 331.33 587.11 324.12 585.48 317.86 581.9 312.3 576.56 305.95 570.51 299.72 562.87 293.25 553.92 285.3 544.5 276.62 534.02 267.16 522.77 256.36 511.3 245.25 499.26 234.5 486.89 229.2 480.69 224.26 474.42 219.81 468.12 215.72 461.82 212.31 455.49 209.65 449.15 207.59 442.81 206.41 436.48 206.16 430.16 206.56 423.84 207.86 417.54 210.04 411.28 212.71 405.02 216.01 398.93 219.8 393.04 223.71 387.14 227.87 381.42 232.14 375.89 236.18 370.34 240.13 364.98 243.9 359.8 247.21 354.6 250.25 349.57 253 344.73 256.85 334.94 259.79 325.8 262.22 317.33 263.4 308.62 265.12 300.46 267.84 292.87 270.7 284.92 275.21 277.41 281.37 270.39 288.24 262.94 296.7 255.91 306.37 249.41 311.41 246 316.69 242.74 322.14 239.64 327.69 236.47 333.37 233.47 339.13 230.67 344.95 227.83 350.8 225.22 356.65 222.86 362.52 220.51 368.36 218.44 374.14 216.69" stroke-dasharray="0 0" transform="rotate(50.48571428571428, 400, 400)" opacity="0.91"></path><path d="M371.21 227.09C382 223.88 392.41 222.18 402.48 221.96 412.73 222.14 422.98 223.89 433.51 227.08 444.73 230.75 456.83 235.82 470.06 242.12 484.44 248.83 500.15 256.67 516.87 265.41 533.98 274.43 550.94 284.25 566.48 294.64 579.8 305.2 589.46 316.24 594.13 327.56 594.4 338.97 589.15 350.6 578.93 362.29 566.71 374 552.87 385.72 539.72 397.27 530.74 408.82 526.17 419.63 526.18 429.6 531.19 439.55 538.75 448.66 547.07 456.87 556.06 465.07 562.67 472.41 565.89 478.88 566.59 485.45 563.16 491.27 556.1 496.38 546.66 501.81 534.69 506.75 521.18 511.28 506.73 516.39 491.81 521.32 477.1 526.11 462.34 531.69 448.14 537.23 434.79 542.64 421.55 548.76 409.1 554.61 397.57 559.9 386.04 565.49 375.85 569.85 366.93 572.83 357.9 575.53 350 576.54 343.12 575.85 335.88 574.56 329.34 571.51 323.24 566.84 316.29 561.57 309.26 554.8 301.88 546.8 293.18 538.36 283.83 528.88 273.89 518.63 262.98 508.15 252.02 497.07 241.68 485.62 231.92 474.09 224.04 462.3 218.84 450.41 215.86 438.53 216.23 426.59 220.03 414.74 225.59 402.89 233.12 391.68 241.59 381.14 249.36 370.56 256.69 360.6 263.13 351.31 267.62 341.9 271.21 333.06 274.19 324.81 275.8 316.36 277.64 308.39 280.14 300.94 282.43 293.17 286.03 285.82 291.02 278.93 296.43 271.66 303.3 264.82 311.41 258.5 319.91 251.85 329.39 245.78 339.5 240.47 349.76 235.01 360.4 230.48 371.2 227.09" stroke-dasharray="0 0" transform="rotate(53.14285714285714, 400, 400)" opacity="0.46"></path><path d="M371.75 237.49C381.89 234.41 392.05 232.73 402.26 232.42 412.64 232.46 423.38 233.94 434.63 236.75 446.46 239.97 459.2 244.5 472.91 250.17 487.37 256.21 502.73 263.3 518.53 271.27 534.15 279.49 549.07 288.48 562.12 298.03 572.86 307.75 580 317.94 582.6 328.43 581.47 339 575.66 349.8 565.73 360.66 554.38 371.55 541.75 382.46 529.73 393.23 521.31 403.99 516.6 414.08 515.77 423.4 519.37 432.72 525.38 441.28 532.38 449.03 540.46 456.8 546.95 463.81 550.87 470.06 553.04 476.43 551.73 482.16 547.16 487.28 540.53 492.7 531.33 497.7 520.33 502.33 508.28 507.49 495.35 512.46 482.2 517.27 468.82 522.74 455.67 528.13 443.11 533.32 430.58 539.11 418.7 544.59 407.62 549.5 396.55 554.67 386.71 558.69 378.01 561.46 369.17 564 361.28 565.03 354.2 564.53 346.71 563.53 339.69 560.95 332.89 556.9 325.27 552.32 317.45 546.38 309.25 539.26 299.95 531.75 290.13 523.24 279.95 513.96 269.13 504.46 258.53 494.34 248.75 483.8 239.72 473.19 232.61 462.26 228.08 451.19 225.61 440.11 226.24 428.92 230.02 417.77 235.42 406.61 242.68 396 250.92 385.98 258.64 375.93 266.12 366.42 272.9 357.5 277.97 348.47 282.21 339.94 285.81 331.94 288 323.75 290.2 316 292.76 308.72 294.85 301.17 297.91 294 302.1 287.28 306.44 280.24 312.08 273.61 318.89 267.5 325.95 261.12 334.05 255.31 342.96 250.23 351.97 245.04 361.61 240.73 371.75 237.49" stroke-dasharray="0 0" transform="rotate(55.8, 400, 400)" opacity="0.36"></path><path d="M375.73 247.89C385.28 244.95 395.19 243.31 405.43 242.92 415.83 242.84 426.81 244.06 438.4 246.51 450.4 249.32 463.25 253.32 476.82 258.39 490.75 263.78 505.17 270.15 519.5 277.35 533.27 284.79 545.9 292.95 556.43 301.67 564.7 310.53 569.58 319.87 570.42 329.51 568.2 339.23 562.07 349.18 552.57 359.22 542.12 369.29 530.67 379.39 519.74 389.38 511.89 399.37 507.11 408.76 505.58 417.47 507.92 426.17 512.45 434.2 518.1 441.53 525.09 448.89 531.11 455.6 535.28 461.65 538.36 467.82 538.63 473.45 536.1 478.56 531.9 483.95 525.24 488.97 516.69 493.66 507.1 498.81 496.34 503.77 485.01 508.53 473.33 513.86 461.54 519.06 450.01 524.01 438.46 529.46 427.31 534.57 416.76 539.1 406.2 543.86 396.65 547.56 388.04 550.1 379.28 552.48 371.26 553.5 363.82 553.15 355.98 552.41 348.4 550.23 340.89 546.73 332.64 542.79 324.15 537.59 315.31 531.3 305.63 524.68 295.58 517.09 285.4 508.74 274.91 500.2 264.84 491.02 255.75 481.4 247.55 471.7 241.24 461.65 237.38 451.4 235.41 441.13 236.28 430.71 240.01 420.27 245.22 409.82 252.18 399.82 260.12 390.34 267.73 380.83 275.26 371.78 282.28 363.24 287.86 354.61 292.71 346.41 296.94 338.68 299.81 330.79 302.52 323.28 305.37 316.21 307.58 308.9 310.47 301.96 314.22 295.44 317.9 288.66 322.67 282.28 328.53 276.41 334.48 270.33 341.48 264.79 349.41 259.96 357.38 255.05 366.17 250.97 375.73 247.89" stroke-dasharray="0 0" transform="rotate(58.457142857142856, 400, 400)" opacity="0.08"></path><path d="M382.64 258.29C391.67 255.51 401.27 253.91 411.36 253.45 421.59 253.26 432.47 254.26 443.96 256.37 455.7 258.79 468.1 262.3 480.95 266.79 493.84 271.56 506.81 277.24 519.3 283.69 530.97 290.35 541.24 297.7 549.32 305.59 555.33 313.61 558.26 322.1 557.67 330.89 554.65 339.75 548.41 348.87 539.46 358.08 529.94 367.32 519.64 376.62 509.75 385.85 502.48 395.08 497.7 403.78 495.6 411.89 496.82 420 499.99 427.54 504.3 434.47 510.08 441.43 515.37 447.85 519.4 453.7 523.55 462.43 518.71 478.06 510.14 485.25 502.88 490.33 494.29 495.23 484.85 499.9 475.02 505.05 464.77 510.02 454.46 514.7 444.08 519.8 433.82 524.53 423.85 528.7 413.89 533.06 404.65 536.43 396.09 538.77 387.4 540.97 379.2 541.96 371.38 541.73 363.19 541.19 355.1 539.37 346.98 536.36 338.27 532.99 329.3 528.48 320.08 522.95 310.27 517.15 300.28 510.43 290.36 502.98 280.39 495.36 271.02 487.1 262.76 478.38 255.44 469.58 249.95 460.4 246.75 450.98 245.26 441.54 246.34 431.9 250 422.17 254.99 412.44 261.61 403.08 269.2 394.15 276.62 385.19 284.1 376.62 291.26 368.48 297.23 360.27 302.62 352.43 307.44 345 311.02 337.44 314.34 330.22 317.65 323.39 320.23 316.37 323.24 309.69 326.87 303.41 330.26 296.93 334.55 290.84 339.78 285.24 344.98 279.47 351.19 274.23 358.36 269.67 365.51 265.05 373.61 261.2 382.64 258.29" stroke-dasharray="0 0" transform="rotate(61.114285714285714, 400, 400)" opacity="0.48"></path><path d="M391.66 268.69C400.18 266.06 409.36 264.52 419.09 264.02 428.9 263.74 439.34 264.53 450.29 266.33 461.33 268.39 472.82 271.44 484.45 275.37 495.9 279.55 507.1 284.57 517.51 290.3 527 296.21 534.96 302.77 540.79 309.85 544.81 317.04 546.11 324.69 544.42 332.64 540.89 340.65 534.73 348.93 526.43 357.33 517.85 365.75 508.64 374.26 499.76 382.74 493.07 391.22 488.36 399.25 485.83 406.78 486.09 414.32 488.03 421.37 491.06 427.9 495.58 434.48 499.94 440.59 503.51 446.23 507.91 454.67 506.64 470 500.8 477.09 495.58 482.06 488.99 486.83 481.38 491.37 473.39 496.29 464.74 501 455.72 505.4 446.63 510.14 437.35 514.49 428.06 518.3 418.77 522.27 409.9 525.33 401.43 527.45 392.88 529.47 384.57 530.41 376.44 530.28 368.04 529.9 359.6 528.38 351.08 525.8 342.14 522.94 332.97 519.05 323.66 514.23 314.01 509.17 304.35 503.28 294.94 496.67 285.7 489.92 277.18 482.55 269.82 474.71 263.43 466.8 258.77 458.48 256.21 449.88 255.17 441.27 256.42 432.41 259.99 423.41 264.73 414.42 270.98 405.71 278.17 397.34 285.31 388.96 292.65 380.9 299.82 373.19 306.07 365.43 311.87 357.98 317.2 350.89 321.45 343.69 325.41 336.79 329.26 330.26 332.36 323.56 335.71 317.19 339.49 311.2 342.91 305.05 347.03 299.27 351.94 293.97 356.72 288.54 362.41 283.62 369.03 279.34 375.6 275.03 383.14 271.42 391.66 268.69" stroke-dasharray="0 0" transform="rotate(63.77142857142857, 400, 400)" opacity="0.80"></path><path d="M401.69 279.09C409.7 276.63 418.32 275.16 427.45 274.62 436.61 274.26 446.29 274.87 456.31 276.39 466.3 278.11 476.49 280.73 486.57 284.15 496.32 287.77 505.56 292.16 513.84 297.2 521.2 302.4 527.02 308.2 530.86 314.49 533.21 320.87 533.23 327.7 530.77 334.82 526.96 342.01 521.06 349.46 513.48 357.05 505.83 364.67 497.68 372.4 489.76 380.14 483.65 387.89 479.09 395.26 476.24 402.22 475.7 409.19 476.57 415.76 478.41 421.9 481.68 428.08 485.01 433.88 487.9 439.28 491.97 447.39 492.8 462.27 489.03 469.19 485.46 473.98 480.56 478.58 474.58 482.92 468.28 487.58 461.16 492 453.44 496.1 445.63 500.46 437.39 504.45 428.86 507.9 420.33 511.49 411.92 514.24 403.68 516.15 395.37 517.99 387.1 518.87 378.87 518.8 370.45 518.54 361.91 517.29 353.28 515.09 344.38 512.67 335.34 509.33 326.26 505.15 317.05 500.79 307.98 495.65 299.31 489.84 290.96 483.91 283.4 477.39 277.01 470.39 271.56 463.34 267.72 455.86 265.77 448.08 265.14 440.29 266.54 432.22 269.98 423.97 274.45 415.71 280.28 407.67 287.03 399.9 293.82 392.12 300.91 384.58 307.97 377.35 314.34 370.07 320.42 363.05 326.13 356.34 330.95 349.54 335.51 343.02 339.91 336.81 343.6 330.49 347.41 324.47 351.49 318.81 355.16 313.02 359.36 307.59 364.17 302.62 368.81 297.56 374.22 292.97 380.45 288.99 386.62 284.99 393.69 281.64 401.69 279.09" stroke-dasharray="0 0" transform="rotate(66.42857142857143, 400, 400)" opacity="0.19"></path><path d="M411.52 289.49C418.97 287.21 426.91 285.81 435.22 285.26 443.54 284.84 452.19 285.29 460.98 286.55 469.68 287.97 478.34 290.19 486.67 293.13 494.61 296.23 501.88 300.03 508.11 304.41 515.48 311.47 520.19 328.15 516.8 337.49 512.94 343.87 507.44 350.51 500.63 357.32 493.9 364.14 486.77 371.11 479.77 378.13 474.24 385.14 469.88 391.87 466.84 398.27 465.66 404.67 465.61 410.75 466.4 416.49 469.62 425 476.13 440.58 477.66 447.72 477.76 454.86 471.22 468.27 464.8 474.56 459.93 478.92 454.17 483.03 447.66 486.8 441.07 490.79 433.87 494.4 426.17 497.5 418.46 500.71 410.63 503.17 402.76 504.87 394.86 506.52 386.85 507.33 378.77 507.3 370.58 507.14 362.24 506.11 353.82 504.24 345.28 502.21 336.67 499.36 328.13 495.76 319.63 492.02 311.38 487.57 303.63 482.51 296.29 477.35 289.78 471.63 284.39 465.44 279.88 459.21 276.81 452.56 275.43 445.58 275.17 438.59 276.68 431.31 279.97 423.81 284.14 416.31 289.54 408.95 295.79 401.8 302.15 394.64 308.89 387.67 315.71 380.94 322.06 374.18 328.25 367.63 334.19 361.35 339.43 355 344.46 348.89 349.33 343.07 353.59 337.16 357.88 331.53 362.32 326.24 366.37 320.85 370.77 315.81 375.63 311.19 380.3 306.51 385.58 302.28 391.53 298.61 397.42 294.93 404.07 291.85 411.52 289.49" stroke-dasharray="0 0" transform="rotate(69.08571428571429, 400, 400)" opacity="0.10"></path><path d="M419.94 299.89C426.78 297.8 433.93 296.49 441.27 295.93 448.6 295.47 456.05 295.79 463.45 296.81 470.71 297.96 477.75 299.82 484.31 302.31 493.19 306.55 505.19 318.01 507.27 325.01 507.3 329.88 505.75 335.13 502.63 340.69 498.89 346.28 493.9 352.14 487.9 358.18 482.07 364.24 475.9 370.45 469.78 376.76 464.83 383.06 460.72 389.15 457.6 394.97 455.55 403.6 456.68 419.6 458.5 426.98 460.79 434.23 462.17 447.75 460.52 454.05 457.6 460.39 446.6 472.18 438.84 477.5 433.34 481.1 427.14 484.34 420.29 487.1 413.45 489.95 406.32 492.12 399.01 493.61 391.7 495.08 384.17 495.81 376.52 495.8 368.83 495.71 360.99 494.86 353.11 493.28 345.22 491.58 337.33 489.17 329.6 486.1 322.03 482.91 314.78 479.1 308.09 474.73 301.85 470.28 296.41 465.3 292.03 459.89 288.41 454.44 286.08 448.58 285.22 442.4 285.28 436.2 286.85 429.69 289.96 422.95 293.8 416.21 298.74 409.55 304.45 403.04 310.32 396.53 316.61 390.15 323.07 383.97 329.23 377.76 335.36 371.73 341.35 365.92 346.82 360.06 352.15 354.41 357.34 349.03 362.05 343.58 366.75 338.38 371.51 333.49 375.93 328.55 380.58 323.92 385.53 319.69 390.3 315.41 395.52 311.55 401.22 308.2 406.87 304.86 413.1 302.05 419.94 299.89" stroke-dasharray="0 0" transform="rotate(71.74285714285715, 400, 400)" opacity="0.16"></path><path d="M425.95 310.29C438.28 306.56 451 305.63 463.07 307.17 474.57 309.1 484.24 313.47 490.45 319.81 494.58 326.44 494.01 334.85 488.32 344.45 481.23 354.16 471.05 364.88 459.79 376.07 452.11 387.27 446.97 397.87 444.37 407.56 445.39 417.37 446.65 426.48 446.64 434.66 447.19 443.24 444.77 451.16 439.07 458.05 433.04 465.49 423.89 471.93 411.96 476.7 400.03 481.73 386.67 484.25 372.74 484.31 358.9 484.13 344.62 481.32 331.04 476.18 318.32 470.74 307.42 463.1 299.97 453.78 295.09 444.32 294.86 433.37 299.95 421.41 307.41 409.45 318.07 397.64 330.08 386.46 341.45 375.22 352.91 364.48 363.86 354.71 373.43 344.77 383.12 335.72 393.23 328.11 402.76 320.4 413.62 314.23 425.95 310.29" stroke-dasharray="0 0" transform="rotate(74.4, 400, 400)" opacity="0.27"></path><path d="M428.81 320.69C439.67 317.36 450.17 316.43 459.51 317.63 471.75 320.91 480.24 337.05 473.98 348.78 467.83 357.05 459.3 366.3 449.8 376.1 442.98 385.89 437.79 395.31 434.36 404.03 433.75 412.86 433.44 421.16 432.42 428.66 432.18 436.46 429.85 443.65 424.98 449.88 420.02 456.5 412.38 462.16 402.18 466.3 391.98 470.64 380.36 472.78 368.23 472.82 356.29 472.73 344.13 470.39 332.83 466.07 322.44 461.54 313.83 455.11 308.28 447.15 304.8 439.11 305.18 429.68 309.94 419.24 316.58 408.81 326 398.39 336.78 388.45 347.31 378.47 358.23 368.88 368.88 360.14 378.62 351.29 388.42 343.23 398.29 336.46 407.76 329.64 417.96 324.19 428.81 320.69" stroke-dasharray="0 0" transform="rotate(77.05714285714286, 400, 400)" opacity="0.92"></path><path d="M428.18 331.09C437.47 328.17 445.85 327.28 452.77 328.2 461.59 330.73 465.62 343.91 459.71 353.69 454.6 360.6 447.66 368.42 439.81 376.83 433.9 385.23 428.88 393.43 424.98 401.12 423.16 408.89 421.57 416.26 419.59 422.97 418.41 429.89 415.83 436.27 411.44 441.75 407.1 447.51 400.66 452.39 392.13 455.9 383.6 459.56 373.91 461.34 363.86 461.36 354.04 461.3 344.22 459.38 335.34 455.8 327.27 452.09 320.85 446.76 317.01 440.1 314.74 433.37 315.58 425.41 319.93 416.5 325.71 407.6 333.83 398.61 343.2 389.98 352.61 381.32 362.58 372.97 372.47 365.33 381.86 357.64 391.3 350.63 400.57 344.75 409.6 338.85 418.89 334.14 428.18 331.09" stroke-dasharray="0 0" transform="rotate(79.71428571428571, 400, 400)" opacity="0.62"></path><path d="M424.13 341.49C442.18 339.68 450.68 351.23 445.6 359.16 441.55 364.78 436.11 371.22 429.82 378.24 424.85 385.26 420.23 392.2 416.23 398.78 413.63 405.41 411.14 411.77 408.44 417.57 406.42 423.51 403.5 428.98 399.42 433.67 395.44 438.52 389.99 442.6 383.04 445.5 376.08 448.5 368.37 449.94 360.52 449.93 352.88 449.89 345.43 448.33 338.91 445.42 330.8 440.28 325.5 423.94 329.92 413.28 334.8 405.89 341.57 398.37 349.43 391.1 357.46 383.83 366.13 376.78 374.84 370.32 383.35 363.84 391.91 357.93 400.19 352.98 408.36 348.03 416.46 344.07 424.13 341.49" stroke-dasharray="0 0" transform="rotate(82.37142857142857, 400, 400)" opacity="0.92"></path><path d="M417.15 351.89C432.66 348.56 433.24 364.47 419.83 380.3 412.8 391.56 405.75 402.91 399.15 412.42 394.45 422.25 386.92 430.59 376 435.1 365.07 439.86 353.05 439.52 343.84 434.98 336.37 430.29 334.17 421.42 339.91 409.66 348.32 397.89 361.9 385.58 376.25 375.14 390.48 364.69 405.07 356.1 417.15 351.89" stroke-dasharray="0 0" transform="rotate(85.02857142857142, 400, 400)" opacity="0.63"></path><path d="M408.09 362.3C419.25 359.65 419.27 371.1 409.84 382.94 404.32 391.42 397.98 400.12 391.76 407.48 386.65 415 379.97 421.33 371.87 424.7 359.78 428.05 345.5 417.8 349.9 405.75 356.19 396.98 366.26 387.71 377.05 379.83 388.01 371.96 399.22 365.49 408.09 362.3" stroke-dasharray="0 0" transform="rotate(87.68571428571428, 400, 400)" opacity="0.85"></path><path d="M398.05 372.7C409.59 368.58 409.68 374.72 399.85 386.08 393.14 397.44 381.93 409.92 371.15 414.3 360.36 418.92 353.83 413.29 359.89 401.68 368.78 390.05 386.51 377.04 398.05 372.7" stroke-dasharray="0 0" transform="rotate(90.34285714285714, 400, 400)" opacity="0.44"></path></g></svg>