<svg xmlns="http://www.w3.org/2000/svg" version="1.1" xmlns:xlink="http://www.w3.org/1999/xlink" xmlns:svgjs="http://svgjs.dev/svgjs" viewBox="0 0 800 800"><defs><linearGradient x1="50%" y1="0%" x2="50%" y2="100%" id="ccchaos-grad"><stop stop-color="hsl(265, 55%, 30%)" stop-opacity="1" offset="0%"></stop><stop stop-color="hsl(265, 55%, 60%)" stop-opacity="1" offset="100%"></stop></linearGradient></defs><g stroke-width="3" stroke="url(#ccchaos-grad)" fill="none" stroke-linecap="round"><path d="M388.03 73.13C398.6 72.61 409.24 73.15 419.93 74.69 430.66 76.71 441.48 79.66 452.4 83.45 463.39 87.56 474.54 92.36 485.83 97.74 497.24 103.2 508.83 109.09 520.57 115.3 532.42 121.37 544.39 127.65 556.4 134.06 568.38 140.19 580.25 146.4 591.85 152.67 603.14 158.59 613.87 164.58 623.83 170.64 633.08 176.38 641.23 182.25 648.06 188.25 653.89 194.02 658.23 200.01 661.04 206.23 662.93 212.3 663.51 218.67 662.96 225.36 662.22 231.98 661.03 238.97 659.82 246.31 659.59 253.64 660.17 261.36 661.95 269.44 665.64 277.54 670.93 286.01 677.81 294.83 686.45 303.67 696.13 312.85 706.33 322.34 716.76 331.85 726.36 341.66 734.38 351.75 740.61 361.84 744.08 372.2 744.4 382.83 742.06 393.45 736.76 404.09 729.08 414.72 720.07 425.36 710.01 436.02 699.7 446.68 690.15 457.38 681.57 468.12 674.37 478.88 669.18 489.72 665.66 500.61 663.67 511.55 663.46 522.59 664.17 533.7 665.36 544.83 667.18 556.06 668.58 567.31 669.18 578.52 669.25 589.75 667.92 600.88 665.09 611.8 661.16 622.6 655.63 633.07 648.63 643.07 640.63 652.74 631.41 661.76 621.23 669.99 610.44 677.66 599.05 684.37 587.28 689.98 575.32 694.86 563.23 698.57 551.16 701.03 539.17 702.79 527.31 703.37 515.63 702.84 504.12 701.87 492.79 700.04 481.64 697.51 470.64 695.07 459.76 692.33 449.01 689.5 438.33 687.37 427.72 685.55 417.15 684.23 406.62 684.06 396.09 684.6 385.58 685.87 375.08 688.36 364.83 691.38 354.86 694.75 344.88 698.86 335.19 702.88 325.8 706.59 316.42 710.34 307.36 713.33 298.64 715.38 289.93 716.89 281.55 717.16 273.53 716.12 265.48 714.25 257.75 711 250.34 706.44 242.82 701.04 235.55 694.45 228.5 686.82 221.24 678.56 214.13 669.48 207.12 659.73 199.82 649.67 192.56 639.16 185.35 628.35 177.81 617.5 170.33 606.5 162.92 595.46 155.31 584.55 147.87 573.66 140.7 562.85 133.53 552.23 126.78 541.7 120.57 531.25 114.59 521 109.29 510.8 104.74 500.64 100.57 490.63 97.19 480.6 94.63 470.55 92.38 460.59 90.84 450.55 89.98 440.43 89.19 430.34 88.88 420.14 89 409.82 88.88 399.51 89.02 389.07 89.37 378.51 89.32 367.95 89.46 357.52 89.8 347.26 89.85 337 90.24 326.92 91.03 317.07 91.81 307.24 93.19 297.65 95.21 288.36 97.5 279.11 100.56 270.18 104.41 261.61 108.64 253.11 113.66 244.98 119.39 237.28 125.43 229.64 132.07 222.43 139.21 215.67 146.43 208.95 154 202.66 161.82 196.8 169.49 190.92 177.29 185.43 185.16 180.3 192.75 175.06 200.38 170.11 208.05 165.42 215.41 160.5 222.85 155.75 230.39 151.15 237.69 146.21 245.16 141.35 252.83 136.55 260.36 131.37 268.16 126.23 276.26 121.16 284.28 115.75 292.63 110.46 301.31 105.36 309.97 100.07 318.97 95.1 328.31 90.56 337.63 86.07 347.28 82.18 357.24 79 367.19 76.14 377.46 74.15 388.02 73.13" stroke-dasharray="0 0" transform="rotate(0, 400, 400)" opacity="0.29"></path><path d="M392.01 83.34C402.33 82.82 412.75 83.31 423.27 84.77 433.82 86.7 444.5 89.52 455.3 93.16 466.16 97.11 477.17 101.75 488.31 106.97 499.53 112.29 510.88 118.04 522.32 124.13 533.79 130.12 545.29 136.34 556.7 142.71 568 148.83 579.05 155.05 589.69 161.34 599.93 167.31 609.52 173.35 618.23 179.45 626.23 185.25 633.11 191.16 638.72 197.18 643.43 202.97 646.8 208.94 648.82 215.1 650.15 221.11 650.41 227.38 649.82 233.93 649.28 240.38 648.52 247.17 647.94 254.28 648.43 261.35 649.8 268.78 652.36 276.55 656.71 284.32 662.51 292.45 669.69 300.92 678.39 309.38 687.92 318.19 697.77 327.32 707.7 336.45 716.75 345.89 724.24 355.63 730.02 365.37 733.22 375.4 733.48 385.71 731.29 396.02 726.34 406.38 719.14 416.75 710.65 427.15 701.09 437.58 691.17 448.04 681.83 458.54 673.25 469.09 665.83 479.67 660.18 490.32 656.04 501.02 653.34 511.76 652.34 522.58 652.32 533.43 652.9 544.3 654.25 555.21 655.43 566.1 656.06 576.9 656.42 587.68 655.65 598.3 653.59 608.65 650.65 618.84 646.26 628.65 640.48 637.94 633.76 646.88 625.82 655.15 616.85 662.62 607.24 669.54 596.89 675.52 586.03 680.45 574.87 684.72 563.44 687.88 551.9 689.89 540.33 691.28 528.77 691.62 517.32 690.95 505.96 689.93 494.74 688.16 483.67 685.78 472.72 683.53 461.9 681.03 451.23 678.48 440.62 676.61 430.11 675.03 419.71 673.9 409.33 673.84 399.02 674.42 388.79 675.65 378.55 678.02 368.62 680.86 359 684.01 349.37 687.86 340.05 691.63 331.05 695.12 322.03 698.71 313.34 701.6 304.99 703.65 296.6 705.25 288.54 705.72 280.79 704.99 272.97 703.53 265.44 700.79 258.17 696.81 250.75 692.05 243.54 686.15 236.5 679.22 229.23 671.69 222.05 663.31 214.96 654.24 207.58 644.82 200.23 634.9 192.92 624.62 185.33 614.23 177.8 603.64 170.39 592.93 162.82 582.29 155.46 571.62 148.41 560.98 141.41 550.49 134.86 540.04 128.88 529.68 123.16 519.46 118.13 509.3 113.85 499.19 109.95 489.21 106.83 479.24 104.5 469.27 102.47 459.38 101.13 449.46 100.43 439.49 99.78 429.56 99.59 419.56 99.79 409.49 99.74 399.43 99.92 389.28 100.28 379.07 100.24 368.85 100.35 358.8 100.64 348.95 100.62 339.11 100.92 329.47 101.58 320.07 102.22 310.69 103.41 301.58 105.22 292.76 107.27 283.99 110.08 275.53 113.65 267.43 117.58 259.37 122.3 251.69 127.75 244.41 133.51 237.18 139.89 230.34 146.81 223.91 153.86 217.51 161.29 211.49 169.01 205.86 176.64 200.18 184.44 194.84 192.34 189.82 200 184.67 207.72 179.77 215.47 175.08 222.94 170.16 230.46 165.39 238.06 160.73 245.41 155.75 252.88 150.84 260.52 145.98 267.98 140.77 275.67 135.61 283.6 130.52 291.44 125.13 299.56 119.88 307.99 114.84 316.36 109.63 325.06 104.76 334.08 100.31 343.08 95.94 352.41 92.15 362.07 89.06 371.71 86.28 381.69 84.34 392 83.35" stroke-dasharray="0 0" transform="rotate(4.275862068965517, 400, 400)" opacity="0.61"></path><path d="M396.67 93.56C406.73 93.03 416.93 93.48 427.24 94.86 437.58 96.68 448.05 99.38 458.64 102.86 469.27 106.66 480.03 111.13 490.89 116.17 501.78 121.34 512.74 126.94 523.71 132.9 534.65 138.79 545.5 144.92 556.16 151.23 566.63 157.33 576.74 163.54 586.32 169.83 595.47 175.83 603.88 181.91 611.37 188.05 618.18 193.91 623.91 199.86 628.43 205.91 632.2 211.72 634.78 217.69 636.22 223.83 637.18 229.8 637.32 236 636.86 242.44 636.64 248.77 636.41 255.39 636.51 262.31 637.73 269.17 639.87 276.36 643.14 283.87 648.07 291.36 654.28 299.18 661.69 307.34 670.38 315.48 679.7 323.95 689.17 332.75 698.6 341.53 707.1 350.64 714.06 360.04 719.42 369.45 722.36 379.15 722.56 389.15 720.52 399.16 715.9 409.22 709.16 419.34 701.19 429.46 692.13 439.65 682.62 449.88 673.53 460.14 665.01 470.46 657.44 480.81 651.43 491.22 646.74 501.67 643.38 512.15 641.64 522.67 640.88 533.22 640.81 543.73 641.62 554.26 642.45 564.72 642.96 575.05 643.42 585.31 643 595.36 641.54 605.1 639.39 614.64 635.96 623.76 631.27 632.33 625.74 640.54 619.02 648.06 611.27 654.79 602.85 661 593.62 666.3 583.77 670.59 573.56 674.29 562.94 676.96 552.09 678.58 541.12 679.67 530.06 679.8 519.01 679.03 507.97 678 497.01 676.31 486.17 674.09 475.39 672.04 464.74 669.8 454.22 667.51 443.76 665.88 433.42 664.53 423.2 663.58 413.01 663.62 402.92 664.24 392.94 665.44 382.96 667.68 373.3 670.34 363.99 673.28 354.65 676.88 345.64 680.41 336.95 683.69 328.23 687.09 319.83 689.88 311.74 691.9 303.6 693.56 295.75 694.2 288.19 693.75 280.52 692.65 273.09 690.36 265.88 686.92 258.5 682.77 251.28 677.52 244.19 671.28 236.86 664.46 229.61 656.79 222.41 648.4 214.94 639.65 207.51 630.35 200.12 620.65 192.5 610.78 184.97 600.65 177.59 590.36 170.1 580.07 162.87 569.69 155.98 559.31 149.19 549.02 142.89 538.75 137.17 528.52 131.74 518.42 127 508.36 123.01 498.35 119.39 488.45 116.53 478.58 114.44 468.73 112.63 458.95 111.48 449.16 110.93 439.37 110.42 429.61 110.33 419.82 110.59 409.99 110.61 400.18 110.83 390.33 111.2 380.45 111.16 370.56 111.26 360.88 111.5 351.42 111.43 341.97 111.64 332.74 112.19 323.78 112.68 314.83 113.7 306.15 115.31 297.78 117.13 289.44 119.67 281.42 122.95 273.74 126.59 266.1 130.99 258.81 136.11 251.91 141.57 245.02 147.67 238.51 154.32 232.37 161.15 226.23 168.4 220.43 175.97 214.99 183.51 209.47 191.26 204.25 199.15 199.31 206.85 194.22 214.63 189.33 222.45 184.64 230.02 179.7 237.64 174.89 245.31 170.18 252.75 165.16 260.28 160.19 267.93 155.29 275.4 150.06 283.04 144.88 290.89 139.8 298.62 134.45 306.6 129.25 314.84 124.26 323.02 119.16 331.49 114.39 340.28 110.05 349.02 105.79 358.09 102.11 367.49 99.11 376.86 96.42 386.59 94.54 396.66 93.56" stroke-dasharray="0 0" transform="rotate(8.551724137931034, 400, 400)" opacity="0.40"></path><path d="M401.6 103.77C411.42 103.24 421.37 103.65 431.43 104.95 441.5 106.67 451.7 109.23 461.98 112.56 472.29 116.19 482.69 120.49 493.13 125.35 503.57 130.35 514 135.8 524.36 141.61 534.62 147.38 544.71 153.41 554.5 159.63 564.05 165.68 573.15 171.86 581.64 178.13 589.68 184.15 596.95 190.25 603.3 196.42 609.03 202.32 613.73 208.31 617.34 214.39 620.35 220.24 622.35 226.22 623.41 232.35 624.2 238.3 624.39 244.45 624.2 250.82 624.41 257.06 624.77 263.56 625.57 270.32 627.51 277.02 630.35 284 634.27 291.29 639.69 298.54 646.24 306.1 653.78 313.98 662.4 321.83 671.45 330.01 680.51 338.49 689.43 346.97 697.39 355.76 703.85 364.85 708.8 373.93 711.49 383.33 711.65 393.02 709.74 402.72 705.45 412.49 699.15 422.32 691.69 432.17 683.13 442.08 674.05 452.05 665.24 462.03 656.83 472.08 649.19 482.16 642.88 492.27 637.74 502.42 633.79 512.57 631.35 522.75 629.88 532.91 629.13 543.01 629.34 553.09 629.73 563.06 629.99 572.86 630.39 582.56 630.15 592 629.08 601.09 627.53 609.96 624.89 618.37 621.12 626.21 616.64 633.7 611.05 640.5 604.44 646.52 597.2 652.05 589.11 656.71 580.33 660.43 571.14 663.61 561.45 665.85 551.42 667.12 541.2 667.96 530.78 667.93 520.28 667.11 509.74 666.1 499.19 664.51 488.69 662.46 478.23 660.62 467.85 658.62 457.58 656.59 447.35 655.2 437.23 654.05 427.24 653.27 417.27 653.42 407.41 654.07 397.68 655.23 387.95 657.35 378.55 659.84 369.49 662.57 360.41 665.93 351.65 669.22 343.2 672.28 334.72 675.5 326.53 678.17 318.63 680.15 310.66 681.84 302.95 682.61 295.48 682.39 287.89 681.61 280.5 679.73 273.29 676.79 265.9 673.2 258.62 668.57 251.45 662.99 244.05 656.85 236.7 649.88 229.41 642.19 221.87 634.11 214.37 625.46 206.94 616.37 199.33 607.08 191.84 597.47 184.54 587.65 177.19 577.78 170.13 567.78 163.45 557.72 156.91 547.71 150.89 537.68 145.46 527.68 140.35 517.76 135.92 507.86 132.23 498.02 128.9 488.26 126.31 478.53 124.46 468.83 122.86 459.2 121.88 449.58 121.48 439.98 121.09 430.41 121.09 420.84 121.42 411.27 121.49 401.71 121.74 392.15 122.12 382.59 122.09 373.03 122.16 363.7 122.37 354.62 122.25 345.53 122.39 336.7 122.83 328.14 123.21 319.59 124.07 311.32 125.48 303.35 127.07 295.41 129.35 287.77 132.34 280.48 135.67 273.21 139.74 266.27 144.53 259.69 149.65 253.1 155.43 246.87 161.77 240.97 168.33 235.05 175.34 229.44 182.71 224.13 190.12 218.74 197.76 213.6 205.58 208.71 213.28 203.65 221.08 198.77 228.94 194.05 236.59 189.09 244.3 184.23 252.05 179.47 259.58 174.41 267.18 169.4 274.88 164.47 282.39 159.22 290.05 154.05 297.87 148.98 305.56 143.68 313.46 138.55 321.59 133.64 329.64 128.64 337.96 123.98 346.56 119.76 355.11 115.63 363.96 112.06 373.13 109.16 382.28 106.55 391.77 104.73 401.59 103.77" stroke-dasharray="0 0" transform="rotate(12.827586206896552, 400, 400)" opacity="0.58"></path><path d="M406.4 113.98C415.96 113.46 425.63 113.82 435.38 115.04 445.14 116.66 454.99 119.09 464.89 122.26 474.79 125.73 484.72 129.84 494.63 134.52 504.51 139.34 514.3 144.61 523.93 150.26 533.43 155.89 542.67 161.79 551.52 167.91 560.11 173.89 568.18 180.01 575.6 186.25 582.58 192.26 588.78 198.37 594.1 204.54 598.89 210.48 602.74 216.5 605.63 222.6 608.07 228.48 609.68 234.48 610.55 240.61 611.34 246.56 611.73 252.68 611.92 258.99 612.64 265.17 613.63 271.57 615.13 278.22 617.75 284.77 621.25 291.6 625.73 298.7 631.55 305.74 638.34 313.08 645.94 320.71 654.42 328.32 663.17 336.22 671.8 344.43 680.2 352.61 687.62 361.11 693.6 369.9 698.16 378.68 700.62 387.77 700.73 397.16 698.95 406.55 694.97 416.02 689.11 425.56 682.13 435.1 674.07 444.72 665.43 454.38 656.95 464.06 648.7 473.79 641.05 483.55 634.54 493.32 629.02 503.11 624.55 512.87 621.48 522.64 619.32 532.37 617.92 542 617.49 551.58 617.36 561.02 617.26 570.24 617.46 579.33 617.23 588.13 616.37 596.55 615.23 604.74 613.18 612.45 610.16 619.58 606.58 626.35 601.97 632.46 596.41 637.8 590.27 642.7 583.29 646.78 575.57 649.97 567.44 652.71 558.74 654.57 549.6 655.55 540.24 656.18 530.59 656.04 520.76 655.19 510.84 654.22 500.83 652.75 490.81 650.89 480.78 649.26 470.78 647.49 460.86 645.72 450.95 644.55 441.12 643.6 431.4 642.98 421.7 643.21 412.1 643.89 402.62 645.02 393.14 647.03 383.98 649.35 375.15 651.88 366.29 655 357.74 658.05 349.48 660.91 341.17 663.94 333.13 666.47 325.36 668.39 317.5 670.09 309.86 670.96 302.43 670.94 294.87 670.43 287.47 668.92 280.21 666.43 272.78 663.35 265.44 659.31 258.17 654.35 250.7 648.87 243.27 642.57 235.89 635.57 228.32 628.17 220.8 620.19 213.38 611.73 205.83 603.05 198.44 594.01 191.26 584.71 184.1 575.32 177.26 565.76 170.84 556.1 164.6 546.44 158.89 536.73 153.79 527.01 149.01 517.34 144.91 507.68 141.53 498.05 138.5 488.49 136.18 478.96 134.56 469.46 133.16 460.02 132.36 450.6 132.08 441.22 131.8 431.86 131.88 422.53 132.26 413.22 132.38 403.93 132.65 394.65 133.03 385.41 133.01 376.17 133.08 367.18 133.25 358.45 133.1 349.72 133.17 341.25 133.53 333.07 133.79 324.88 134.5 316.98 135.73 309.39 137.1 301.8 139.13 294.52 141.83 287.57 144.84 280.61 148.58 273.97 153.01 267.67 157.78 261.35 163.2 255.34 169.21 249.65 175.45 243.89 182.18 238.43 189.29 233.23 196.49 227.92 203.98 222.85 211.67 217.98 219.3 212.93 227.07 208.04 234.92 203.29 242.61 198.3 250.37 193.41 258.18 188.59 265.79 183.5 273.47 178.47 281.23 173.5 288.81 168.27 296.5 163.11 304.33 158.08 312.02 152.84 319.89 147.79 327.95 142.98 335.92 138.09 344.13 133.55 352.58 129.45 360.98 125.45 369.66 122 378.63 119.2 387.57 116.68 396.82 114.92 406.39 113.98" stroke-dasharray="0 0" transform="rotate(17.103448275862068, 400, 400)" opacity="0.57"></path><path d="M410.66 124.19C419.94 123.67 429.3 123.99 438.69 125.13 448.09 126.66 457.52 128.95 466.95 131.96 476.37 135.26 485.75 139.18 495.05 143.66 504.28 148.3 513.35 153.39 522.19 158.85 530.87 164.32 539.21 170.09 547.12 176.08 554.75 181.96 561.82 188.01 568.23 194.18 574.24 200.17 579.5 206.25 583.93 212.42 587.94 218.37 591.12 224.4 593.48 230.51 595.56 236.42 596.97 242.44 597.82 248.56 598.76 254.52 599.46 260.62 600.12 266.89 601.39 273.02 603.02 279.36 605.2 285.9 608.46 292.35 612.54 299.04 617.49 305.98 623.63 312.86 630.57 320 638.16 327.42 646.44 334.8 654.85 342.46 663.03 350.4 670.91 358.33 677.81 366.55 683.31 375.05 687.5 383.54 689.74 392.33 689.81 401.41 688.16 410.49 684.47 419.65 679.03 428.87 672.53 438.1 664.97 447.39 656.78 456.72 648.64 466.06 640.61 475.43 633.02 484.82 626.37 494.2 620.56 503.58 615.66 512.92 612.01 522.23 609.23 531.47 607.18 540.58 606.11 549.63 605.42 558.49 604.89 567.1 604.77 575.57 604.4 583.71 603.59 591.45 602.66 598.96 601.02 605.97 598.56 612.41 595.69 618.51 591.92 623.95 587.26 628.67 582.12 632.99 576.16 636.53 569.46 639.26 562.37 641.59 554.66 643.13 546.47 643.88 538.02 644.35 529.21 644.13 520.14 643.29 510.94 642.4 501.58 641.06 492.13 639.39 482.64 637.96 473.11 636.43 463.61 634.9 454.11 633.94 444.64 633.18 435.25 632.71 425.87 633.02 416.56 633.72 407.34 634.8 398.12 636.7 389.2 638.87 380.57 641.21 371.92 644.09 363.55 646.92 355.43 649.57 347.27 652.4 339.34 654.8 331.64 656.65 323.85 658.33 316.25 659.27 308.82 659.4 301.26 659.12 293.83 657.94 286.51 655.85 279.03 653.25 271.62 649.73 264.27 645.36 256.75 640.51 249.28 634.87 241.87 628.52 234.3 621.81 226.82 614.49 219.46 606.69 212.03 598.64 204.79 590.2 197.8 581.46 190.88 572.61 184.32 563.54 178.2 554.33 172.3 545.09 166.93 535.75 162.18 526.38 157.75 517.04 153.99 507.67 150.93 498.32 148.19 489.02 146.13 479.73 144.74 470.48 143.54 461.27 142.89 452.09 142.73 442.95 142.55 433.84 142.7 424.76 143.12 415.73 143.27 406.72 143.56 397.73 143.95 388.81 143.93 379.88 143.99 371.22 144.14 362.82 143.97 354.43 143.99 346.3 144.27 338.46 144.43 330.61 145.01 323.05 146.06 315.79 147.24 308.52 149.02 301.55 151.43 294.89 154.13 288.22 157.53 281.84 161.59 275.77 165.99 269.67 171.03 263.84 176.66 258.31 182.55 252.7 188.94 247.34 195.75 242.22 202.69 236.98 209.95 231.93 217.46 227.07 224.95 222.03 232.62 217.12 240.41 212.34 248.09 207.32 255.85 202.39 263.67 197.53 271.33 192.42 279.07 187.37 286.86 182.4 294.5 177.19 302.23 172.07 310.07 167.09 317.78 161.93 325.64 156.97 333.65 152.26 341.57 147.51 349.7 143.1 358.03 139.12 366.31 135.26 374.83 131.94 383.59 129.24 392.34 126.81 401.36 125.11 410.65 124.19" stroke-dasharray="0 0" transform="rotate(21.379310344827587, 400, 400)" opacity="0.58"></path><path d="M414.01 134.41C423 133.88 432 134.17 440.99 135.23 449.97 136.65 458.94 138.81 467.84 141.66 476.72 144.79 485.49 148.52 494.11 152.8 502.65 157.24 510.97 162.13 518.98 167.39 526.83 172.7 534.29 178.3 541.27 184.14 547.99 189.9 554.14 195.85 559.65 201.93 564.81 207.86 569.28 213.9 573 220.03 576.4 225.98 579.1 232.01 581.12 238.11 583 244.03 584.38 250.05 585.37 256.18 586.57 262.13 587.68 268.22 588.87 274.45 590.72 280.56 592.98 286.83 595.8 293.29 599.62 299.65 604.19 306.23 609.54 313.03 615.9 319.76 622.91 326.73 630.41 333.95 638.43 341.13 646.47 348.58 654.18 356.28 661.55 363.96 667.94 371.92 672.99 380.14 676.83 388.35 678.86 396.84 678.9 405.61 677.37 414.37 673.96 423.21 668.91 432.09 662.88 440.98 655.81 449.92 648.08 458.88 640.32 467.85 632.54 476.84 625.06 485.81 618.36 494.78 612.34 503.71 607.09 512.57 602.95 521.39 599.6 530.11 596.95 538.66 595.25 547.14 593.97 555.4 592.95 563.38 592.42 571.21 591.79 578.7 590.89 585.76 590.01 592.6 588.59 598.93 586.52 604.71 582.61 612.58 570.34 624.46 562.05 628.32 555.93 630.3 549.18 631.58 541.91 632.14 534.39 632.49 526.45 632.23 518.18 631.43 509.77 630.62 501.12 629.43 492.31 627.95 483.44 626.74 474.47 625.43 465.46 624.13 456.43 623.37 447.39 622.78 438.37 622.45 429.36 622.83 420.37 623.54 411.44 624.59 402.51 626.38 393.82 628.39 385.4 630.55 376.95 633.21 368.74 635.82 360.75 638.27 352.72 640.9 344.88 643.15 337.22 644.91 329.49 646.56 321.91 647.54 314.46 647.79 306.9 647.71 299.44 646.8 292.07 645.07 284.56 642.89 277.11 639.86 269.72 636.04 262.19 631.77 254.72 626.75 247.33 621.05 239.83 615 232.44 608.35 225.21 601.19 217.97 593.79 210.94 585.97 204.21 577.83 197.59 569.54 191.35 561.01 185.58 552.3 180.04 543.53 175.05 534.64 170.66 525.67 166.6 516.7 163.18 507.69 160.43 498.68 157.99 489.69 156.19 480.7 155 471.74 153.99 462.81 153.48 453.9 153.43 445.04 153.33 436.21 153.54 427.41 153.99 418.67 154.18 409.94 154.48 401.25 154.87 392.64 154.86 384.03 154.92 375.68 155.05 367.61 154.85 359.53 154.84 351.72 155.05 344.2 155.13 336.66 155.59 329.41 156.48 322.44 157.47 315.46 159.01 308.77 161.15 302.36 163.55 295.93 166.6 289.77 170.29 283.89 174.31 277.97 178.96 272.3 184.18 266.89 189.69 261.39 195.7 256.11 202.15 251.04 208.77 245.85 215.75 240.82 223 235.95 230.29 230.91 237.79 225.98 245.44 221.16 253.03 216.12 260.73 211.16 268.51 206.28 276.17 201.17 283.91 196.12 291.7 191.16 299.38 185.99 307.13 180.92 314.96 176.01 322.68 170.95 330.52 166.09 338.48 161.5 346.37 156.89 354.41 152.62 362.62 148.78 370.78 145.06 379.15 141.86 387.71 139.27 396.25 136.93 405.02 135.29 414 134.41" stroke-dasharray="0 0" transform="rotate(25.655172413793103, 400, 400)" opacity="0.40"></path><path d="M416.19 144.62C424.84 144.1 433.45 144.35 442 145.33 450.54 146.65 458.99 148.68 467.33 151.36 475.63 154.32 483.76 157.86 491.68 161.93 499.51 166.16 507.06 170.84 514.27 175.9 521.31 181.01 527.94 186.43 534.07 192.1 539.97 197.72 545.31 203.54 550.04 209.51 554.5 215.36 558.33 221.33 561.52 227.4 564.49 233.31 566.89 239.31 568.75 245.39 570.6 251.31 572.09 257.32 573.34 263.42 574.9 269.37 576.48 275.44 578.23 281.63 580.65 287.7 583.5 293.92 586.9 300.3 591.21 306.59 596.19 313.07 601.83 319.74 608.33 326.34 615.33 333.16 622.67 340.2 630.4 347.2 638.03 354.44 645.27 361.91 652.12 369.36 658.01 377.06 662.64 385.01 666.14 392.94 667.97 401.14 667.98 409.58 666.57 418.02 663.42 426.52 658.77 435.05 653.18 443.59 646.59 452.16 639.32 460.73 631.96 469.3 624.48 477.86 617.17 486.39 610.48 494.9 604.33 503.35 598.81 511.7 594.27 520 590.43 528.17 587.23 536.15 584.92 544.03 583.07 551.68 581.52 559.03 580.53 566.22 579.55 573.06 578.43 579.46 576.78 588.5 570.91 603.49 566.28 609.24 560.54 613.88 545.26 619.4 535.93 620.35 529.3 620.62 522.21 620.36 514.75 619.62 507.14 618.91 499.24 617.88 491.11 616.59 482.92 615.58 474.55 614.49 466.08 613.41 457.59 612.84 449.02 612.41 440.42 612.2 431.82 612.64 423.19 613.37 414.57 614.38 405.95 616.06 397.53 617.93 389.31 619.91 381.08 622.36 373.03 624.76 365.16 627 357.26 629.44 349.51 631.53 341.9 633.19 334.23 634.78 326.68 635.78 319.23 636.13 311.69 636.2 304.22 635.53 296.83 634.11 289.33 632.3 281.88 629.72 274.51 626.39 267.03 622.67 259.62 618.23 252.32 613.15 244.96 607.73 237.74 601.72 230.71 595.21 223.71 588.46 216.97 581.27 210.55 573.74 204.27 566.05 198.4 558.09 193.01 549.91 187.86 541.66 183.26 533.25 179.26 524.74 175.57 516.21 172.49 507.6 170.06 498.97 167.91 490.34 166.34 481.7 165.36 473.07 164.52 464.47 164.14 455.87 164.18 447.33 164.16 438.79 164.41 430.3 164.88 421.86 165.09 413.43 165.4 405.06 165.79 396.76 165.79 388.46 165.84 380.42 165.96 372.66 165.76 364.89 165.71 357.38 165.87 350.15 165.89 342.9 166.24 335.93 166.99 329.22 167.8 322.5 169.13 316.04 171 309.85 173.1 303.63 175.82 297.66 179.15 291.94 182.77 286.17 187.01 280.62 191.82 275.31 196.9 269.89 202.5 264.68 208.56 259.65 214.81 254.48 221.43 249.46 228.37 244.59 235.38 239.54 242.64 234.59 250.08 229.75 257.51 224.7 265.08 219.73 272.74 214.84 280.34 209.73 288.01 204.71 295.75 199.78 303.4 194.66 311.13 189.67 318.91 184.84 326.62 179.9 334.41 175.16 342.3 170.71 350.13 166.24 358.07 162.12 366.14 158.42 374.18 154.85 382.37 151.78 390.7 149.29 399.03 147.06 407.52 145.48 416.18 144.62" stroke-dasharray="0 0" transform="rotate(29.931034482758623, 400, 400)" opacity="0.84"></path><path d="M416.99 154.83C425.28 154.32 433.48 154.53 441.55 155.44 449.62 156.66 457.55 158.56 465.29 161.07 473 163.85 480.49 167.2 487.71 171.05 494.85 175.07 501.67 179.53 508.12 184.37 514.42 189.28 520.29 194.5 525.67 199.98 530.86 205.43 535.53 211.1 539.64 216.92 543.56 222.66 546.93 228.53 549.75 234.51 552.47 240.36 554.73 246.31 556.59 252.34 558.54 258.22 560.26 264.2 561.86 270.26 563.83 276.2 565.91 282.23 568.22 288.38 571.18 294.41 574.58 300.58 578.48 306.88 583.21 313.1 588.5 319.48 594.33 326.02 600.88 332.51 607.8 339.18 614.92 346.05 622.31 352.88 629.52 359.92 636.28 367.16 642.62 374.39 648.04 381.84 652.26 389.51 655.44 397.17 657.09 405.07 657.06 413.18 655.76 421.29 652.87 429.44 648.58 437.61 643.43 445.77 637.31 453.94 630.51 462.1 623.55 470.25 616.4 478.36 609.32 486.42 602.71 494.45 596.5 502.4 590.81 510.21 585.95 517.98 581.68 525.58 578 532.97 575.14 540.26 572.74 547.29 570.67 554.01 568.47 563.68 564.45 580.68 561.93 587.79 558.93 593.98 549.95 603.05 543.83 605.87 536.77 607.77 519.66 608.64 509.84 607.86 503.01 607.27 495.85 606.4 488.42 605.31 480.9 604.5 473.17 603.62 465.28 602.75 457.35 602.34 449.29 602.06 441.14 601.97 432.98 602.46 424.75 603.2 416.47 604.17 408.19 605.74 400.05 607.47 392.06 609.28 384.06 611.53 376.2 613.72 368.47 615.77 360.72 618.02 353.07 619.95 345.54 621.5 337.96 623.02 330.46 624.01 323.05 624.42 315.56 624.61 308.14 624.14 300.78 622.98 293.35 621.51 285.97 619.32 278.68 616.44 271.32 613.22 264.06 609.33 256.92 604.82 249.77 600 242.79 594.62 236.03 588.73 229.34 582.61 222.94 576.06 216.88 569.14 210.99 562.07 205.53 554.69 200.54 547.08 195.81 539.38 191.62 531.49 188 523.47 184.68 515.42 181.95 507.26 179.82 499.06 177.94 490.84 176.6 482.59 175.8 474.33 175.12 466.09 174.85 457.84 174.97 449.64 175.01 441.44 175.3 433.27 175.78 425.15 176 417.05 176.32 408.99 176.7 401.01 176.71 393.02 176.77 385.29 176.88 377.82 176.68 370.35 176.61 363.13 176.73 356.16 176.69 349.19 176.96 342.47 177.58 336 178.23 329.51 179.36 323.26 180.99 317.26 182.81 311.22 185.21 305.41 188.17 299.83 191.41 294.18 195.23 288.73 199.61 283.49 204.26 278.15 209.42 272.98 215.04 267.97 220.87 262.84 227.09 257.83 233.65 252.95 240.33 247.9 247.27 242.94 254.42 238.09 261.61 233.04 268.96 228.07 276.43 223.19 283.88 218.12 291.43 213.13 299.04 208.26 306.6 203.22 314.23 198.32 321.92 193.6 329.55 188.78 337.26 184.19 345.03 179.87 352.76 175.56 360.57 171.6 368.47 168.05 376.35 164.63 384.34 161.69 392.42 159.32 400.5 157.18 408.69 155.66 416.98 154.83" stroke-dasharray="0 0" transform="rotate(34.206896551724135, 400, 400)" opacity="0.92"></path><path d="M416.36 165.04C424.27 164.54 432.02 164.71 439.61 165.55 447.19 166.67 454.58 168.44 461.74 170.79 468.87 173.39 475.73 176.54 482.3 180.17 488.79 183.98 494.94 188.21 500.7 192.82 506.35 197.51 511.56 202.51 516.32 207.78 520.94 213.05 525.08 218.53 528.73 224.19 532.26 229.79 535.33 235.53 537.96 241.39 540.57 247.14 542.84 253 544.83 258.95 546.99 264.78 549.02 270.7 551.03 276.71 553.45 282.59 556.02 288.58 558.86 294.66 562.33 300.64 566.2 306.74 570.52 312.96 575.56 319.1 581.08 325.38 587.02 331.8 593.53 338.17 600.29 344.7 607.15 351.39 614.17 358.05 620.93 364.9 627.21 371.92 633.06 378.92 638.01 386.13 641.84 393.52 644.72 400.9 646.2 408.49 646.14 416.26 644.95 424.04 642.3 431.83 638.36 439.6 633.63 447.38 627.97 455.14 621.64 462.86 615.1 470.57 608.31 478.23 601.49 485.79 595.02 493.33 588.84 500.76 583.04 508.03 577.95 515.25 573.35 522.28 569.27 529.08 565.92 535.78 563 542.21 560.42 548.32 557.5 557.08 552.49 572.32 549.8 578.63 542.86 588.05 527.3 596.08 520.14 596.73 515.04 596.93 509.48 596.74 503.51 596.18 497.42 595.72 490.96 595.01 484.2 594.11 477.36 593.49 470.26 592.81 462.95 592.13 455.6 591.88 448.07 591.74 440.39 591.74 432.71 592.29 424.89 593.03 416.98 593.96 409.06 595.43 401.23 597.02 393.5 598.68 385.77 600.73 378.12 602.72 370.57 604.58 362.99 606.63 355.5 608.41 348.08 609.84 340.63 611.27 333.24 612.23 325.91 612.68 318.54 612.96 311.22 612.64 303.97 611.71 296.67 610.52 289.44 608.68 282.31 606.2 275.15 603.43 268.1 600.04 261.21 596.07 254.34 591.81 247.67 587.02 241.25 581.74 234.93 576.24 228.92 570.31 223.27 564 217.81 557.54 212.78 550.76 208.22 543.73 203.93 536.6 200.14 529.26 196.92 521.76 193.96 514.21 191.56 506.54 189.72 498.8 188.09 491.03 186.97 483.2 186.34 475.36 185.79 467.51 185.62 459.65 185.81 451.81 185.89 443.97 186.2 436.15 186.7 428.38 186.93 420.61 187.24 412.88 187.62 405.21 187.64 397.55 187.7 390.12 187.81 382.94 187.61 375.76 187.54 368.81 187.62 362.1 187.54 355.38 187.74 348.89 188.25 342.64 188.77 336.36 189.72 330.3 191.12 324.47 192.68 318.59 194.76 312.92 197.38 307.45 200.24 301.91 203.66 296.56 207.6 291.37 211.8 286.1 216.5 280.97 221.66 275.99 227.03 270.87 232.81 265.88 238.94 261 245.22 255.96 251.78 251.02 258.58 246.16 265.45 241.14 272.5 236.19 279.7 231.34 286.92 226.32 294.25 221.4 301.66 216.6 309.05 211.67 316.52 206.88 324.04 202.27 331.53 197.6 339.08 193.16 346.68 189 354.26 184.86 361.89 181.06 369.58 177.67 377.26 174.4 385 171.6 392.79 169.34 400.59 167.29 408.45 165.85 416.35 165.04" stroke-dasharray="0 0" transform="rotate(38.48275862068966, 400, 400)" opacity="0.29"></path><path d="M414.35 175.25C421.84 174.75 429.15 174.9 436.25 175.66 443.34 176.69 450.2 178.33 456.8 180.52 463.37 182.95 469.66 185.89 475.63 189.3 481.54 192.88 487.1 196.88 492.28 201.25 497.37 205.7 502.06 210.47 506.33 215.51 510.5 220.57 514.26 225.85 517.61 231.32 520.9 236.75 523.82 242.33 526.4 248.04 529.04 253.67 531.44 259.41 533.65 265.25 536.09 270.99 538.49 276.82 540.93 282.74 543.79 288.55 546.84 294.46 550.16 300.46 554.06 306.37 558.32 312.39 562.98 318.5 568.24 324.55 573.88 330.72 579.84 337.01 586.24 343.25 592.79 349.63 599.34 356.15 605.96 362.63 612.26 369.28 618.06 376.07 623.42 382.85 627.93 389.8 631.39 396.91 633.99 404.01 635.3 411.28 635.23 418.71 634.13 426.14 631.71 433.55 628.11 440.94 623.78 448.32 618.57 455.65 612.7 462.92 606.59 470.18 600.18 477.36 593.66 484.43 587.39 491.46 581.3 498.37 575.49 505.09 570.25 511.76 565.41 518.23 560.99 524.45 557.24 530.58 553.86 536.43 550.82 541.95 547.18 549.86 541.05 563.47 538.05 569.05 531.24 577.34 517.11 584.36 510.75 584.94 503.77 585.09 487.61 583.98 478.57 583 472.36 582.56 465.87 582.06 459.12 581.56 452.34 581.46 445.34 581.44 438.15 581.54 430.95 582.12 423.58 582.85 416.05 583.74 408.53 585.12 401.04 586.58 393.6 588.09 386.17 589.95 378.77 591.75 371.44 593.42 364.09 595.29 356.79 596.91 349.54 598.22 342.28 599.55 335.06 600.47 327.89 600.93 320.7 601.26 313.56 601.07 306.49 600.33 299.41 599.37 292.4 597.83 285.51 595.71 278.63 593.34 271.88 590.4 265.3 586.91 258.79 583.19 252.5 578.95 246.47 574.24 240.58 569.32 235 563.99 229.8 558.28 224.8 552.42 220.21 546.24 216.1 539.79 212.23 533.24 208.86 526.46 206.02 519.51 203.41 512.49 201.33 505.33 199.76 498.07 198.37 490.78 197.44 483.41 196.96 476 196.53 468.58 196.45 461.13 196.68 453.68 196.81 446.23 197.13 438.78 197.62 431.36 197.86 423.94 198.17 416.55 198.54 409.22 198.56 401.88 198.63 394.76 198.74 387.86 198.56 380.96 198.48 374.28 198.55 367.82 198.44 361.34 198.58 355.07 199 349.02 199.41 342.94 200.19 337.05 201.39 331.37 202.71 325.64 204.51 320.1 206.8 314.73 209.3 309.29 212.31 304.02 215.82 298.9 219.58 293.68 223.81 288.6 228.49 283.64 233.39 278.56 238.69 273.59 244.35 268.72 250.17 263.72 256.29 258.8 262.67 253.96 269.15 248.99 275.84 244.09 282.69 239.29 289.59 234.35 296.62 229.52 303.75 224.81 310.89 220 318.11 215.34 325.39 210.88 332.66 206.37 339.99 202.09 347.35 198.09 354.71 194.13 362.11 190.5 369.53 187.27 376.95 184.16 384.41 181.5 391.88 179.35 399.35 177.41 406.85 176.03 414.34 175.26" stroke-dasharray="0 0" transform="rotate(42.758620689655174, 400, 400)" opacity="0.26"></path><path d="M411.12 185.47C418.19 184.98 425.05 185.09 431.67 185.78 438.28 186.72 444.64 188.23 450.73 190.26 456.79 192.51 462.55 195.25 468 198.44 473.4 201.8 478.47 205.55 483.17 209.67 487.82 213.88 492.11 218.4 496.03 223.2 499.9 228.02 503.41 233.08 506.59 238.33 509.78 243.56 512.68 248.95 515.33 254.48 518.09 259.95 520.69 265.55 523.2 271.24 525.96 276.85 528.74 282.57 531.61 288.36 534.88 294.08 538.37 299.88 542.1 305.77 546.35 311.58 550.92 317.48 555.81 323.48 561.2 329.41 566.87 335.45 572.77 341.59 578.99 347.69 585.27 353.91 591.46 360.24 597.66 366.55 603.5 372.98 608.82 379.54 613.72 386.09 617.8 392.77 620.91 399.59 623.24 406.4 624.4 413.35 624.31 420.42 623.31 427.5 621.11 434.53 617.83 441.51 613.88 448.48 609.11 455.39 603.69 462.2 598.02 469.01 592 475.71 585.82 482.27 579.8 488.81 573.85 495.18 568.1 501.37 562.8 507.51 557.8 513.42 553.15 519.09 549.07 524.67 545.32 529.96 541.87 534.93 537.56 542.04 530.26 554.18 526.85 559.11 519.83 566.43 506.52 572.65 500.76 573.2 494.49 573.43 479.94 572.69 471.74 571.97 466.1 571.7 460.17 571.38 453.96 571.04 447.72 571.07 441.23 571.16 434.53 571.34 427.81 571.95 420.88 572.68 413.77 573.53 406.66 574.82 399.54 576.15 392.43 577.51 385.33 579.2 378.23 580.82 371.17 582.31 364.1 584 357.05 585.46 350.04 586.64 343.02 587.86 336.04 588.72 329.11 589.17 322.18 589.54 315.3 589.44 308.49 588.84 301.7 588.08 295 586.79 288.43 584.99 281.9 582.97 275.52 580.43 269.33 577.39 263.24 574.14 257.38 570.41 251.8 566.24 246.36 561.88 241.26 557.11 236.53 551.98 232 546.71 227.88 541.11 224.21 535.24 220.77 529.26 217.8 523.05 215.32 516.64 213.05 510.17 211.26 503.53 209.94 496.78 208.77 489.98 208.02 483.09 207.67 476.14 207.34 469.17 207.33 462.15 207.6 455.1 207.75 448.06 208.08 441 208.56 433.95 208.79 426.9 209.09 419.86 209.45 412.86 209.49 405.85 209.56 399.04 209.68 392.43 209.51 385.82 209.44 379.39 209.5 373.17 209.38 366.93 209.48 360.88 209.82 355.01 210.46 346.26 213.67 329.57 216.42 321.58 218.58 316.25 221.22 311.06 224.31 306 227.62 300.85 231.39 295.82 235.59 290.9 240 285.87 244.8 280.94 249.96 276.11 255.29 271.15 260.93 266.28 266.84 261.49 272.87 256.59 279.12 251.76 285.56 247.04 292.06 242.21 298.72 237.48 305.49 232.9 312.29 228.23 319.19 223.72 326.15 219.41 333.12 215.08 340.15 210.98 347.21 207.16 354.28 203.38 361.38 199.93 368.48 196.86 375.6 193.91 382.72 191.4 389.83 189.36 396.94 187.52 404.05 186.21 411.11 185.47" stroke-dasharray="0 0" transform="rotate(47.03448275862069, 400, 400)" opacity="0.35"></path><path d="M406.96 195.68C413.59 195.2 420 195.28 426.16 195.9 432.31 196.75 438.21 198.13 443.83 200.01 452.09 203.36 467.07 212.47 473.75 218.09 478.07 222.04 482.07 226.31 485.76 230.84 489.44 235.42 492.84 240.23 495.97 245.24 499.15 250.24 502.13 255.42 504.93 260.74 507.88 266.02 510.74 271.43 513.57 276.94 516.66 282.4 519.81 287.96 523.08 293.6 526.73 299.18 530.57 304.85 534.64 310.59 539.15 316.28 543.93 322.04 548.95 327.89 554.38 333.69 560.01 339.57 565.76 345.55 571.74 351.48 577.7 357.52 583.51 363.65 589.27 369.75 594.65 375.97 599.49 382.28 603.94 388.58 607.62 394.99 610.39 401.5 612.48 408.01 613.5 414.63 613.39 421.34 612.48 428.05 610.49 434.69 607.51 441.26 603.93 447.82 599.58 454.29 594.6 460.65 589.37 467 583.76 473.22 577.94 479.29 572.21 485.33 566.48 491.19 560.85 496.86 555.56 502.48 550.5 507.87 545.71 513 539.35 520.45 528.65 533.68 524.11 539.35 516.48 548.57 504.98 558.06 500.55 559.73 495.84 560.97 484.74 561.85 478.31 561.68 471.48 561.5 456.14 560.84 447.71 560.57 441.97 560.72 435.97 560.91 429.73 561.16 423.48 561.79 417.01 562.51 410.33 563.32 403.64 564.51 396.92 565.73 390.18 566.95 383.44 568.47 376.69 569.92 369.95 571.24 363.21 572.75 356.47 574.05 349.77 575.1 343.07 576.21 336.39 577 329.77 577.42 323.17 577.8 316.62 577.76 310.16 577.28 303.74 576.67 297.42 575.6 291.24 574.06 285.13 572.35 279.18 570.16 273.44 567.52 267.81 564.7 262.43 561.43 257.33 557.75 252.39 553.9 247.78 549.67 243.53 545.09 239.47 540.37 235.81 535.33 232.58 530.02 229.56 524.61 226.97 518.95 224.84 513.09 222.89 507.16 221.37 501.06 220.28 494.81 219.3 488.53 218.7 482.13 218.46 475.65 218.22 469.14 218.26 462.57 218.55 455.95 218.71 449.33 219.04 442.67 219.5 436 219.73 429.34 220.02 422.66 220.37 416 220.41 409.33 220.5 402.84 220.62 396.51 220.47 390.19 220.42 384.03 220.47 378.04 220.39 369.11 221.21 352.04 222.34 343.87 223.91 335.78 229.25 320.18 233.09 312.64 235.98 307.58 239.3 302.61 243.02 297.75 246.93 292.8 251.23 287.93 255.88 283.15 260.69 278.27 265.82 273.47 271.22 268.76 276.75 263.94 282.52 259.22 288.48 254.6 294.53 249.9 300.74 245.31 307.09 240.87 313.48 236.36 319.98 232.03 326.55 227.89 333.16 223.74 339.82 219.83 346.51 216.2 353.22 212.61 359.96 209.35 366.7 206.45 373.44 203.66 380.19 201.29 386.9 199.37 393.63 197.64 400.32 196.39 406.95 195.68" stroke-dasharray="0 0" transform="rotate(51.310344827586206, 400, 400)" opacity="0.08"></path><path d="M402.21 205.89C411.38 205.45 428.56 207.43 436.52 209.77 444.18 212.85 458.13 221.29 464.41 226.51 472.57 234 479.74 242.61 486.01 252.07 492.62 261.59 498.8 271.77 504.84 282.4 511.92 292.89 519.48 303.78 527.73 314.95 537.44 325.95 547.91 337.27 558.77 348.86 564.47 354.61 570.07 360.44 575.47 366.34 580.78 372.23 585.69 378.2 590.08 384.25 594.09 390.29 597.39 396.41 599.85 402.61 601.7 408.8 602.6 415.08 602.47 421.42 601.65 427.75 599.85 434.01 597.16 440.16 593.93 446.3 589.98 452.34 585.44 458.25 580.64 464.14 575.45 469.89 570.02 475.48 564.61 481.04 559.14 486.41 553.69 491.58 543.64 501.78 534.28 511.03 525.82 519.11 518.93 526.86 512.64 533.33 506.65 538.34 501.58 543.02 496.13 546.29 490 548.15 480.56 550.28 462.61 550.41 455.72 550.19 448.49 550.21 432.66 550.54 424.09 550.99 418.29 551.64 412.26 552.35 406.01 553.11 399.76 554.21 393.45 555.32 387.11 556.41 380.77 557.77 374.4 559.05 368.03 560.22 361.67 561.55 355.31 562.7 348.97 563.62 342.64 564.61 336.35 565.31 330.11 565.7 317.72 566.37 305.64 565.47 294.12 562.96 282.92 559.91 272.5 555.14 263.17 548.8 254.45 541.91 247.06 533.61 241.25 524.14 236.16 514.32 232.65 503.56 230.76 492.13 229.95 486.36 229.48 480.45 229.32 474.44 229.15 468.41 229.23 462.29 229.53 456.11 229.7 449.92 230.01 443.68 230.46 437.4 230.67 431.13 230.95 424.82 231.29 418.51 231.34 412.2 231.43 406.02 231.56 399.99 231.42 391.01 231.38 373.74 231.66 365.45 231.84 359.94 232.28 354.56 233.01 349.32 234.58 338.71 237.63 328.53 242.17 318.81 247.33 308.81 254.07 299.14 262.19 289.84 270.92 280.2 280.84 270.88 291.65 261.99 302.82 252.83 314.65 244.2 326.86 236.31 333.03 232.37 339.26 228.66 345.53 225.22 351.83 221.83 358.15 218.75 364.47 216.02 370.81 213.41 377.14 211.18 383.44 209.38 389.74 207.74 396 206.57 402.2 205.89" stroke-dasharray="0 0" transform="rotate(55.58620689655172, 400, 400)" opacity="0.50"></path><path d="M397.27 216.1C408.79 215.39 419.46 216.6 429.2 219.55 438.91 223.19 447.68 228.41 455.51 234.96 463.39 241.91 470.49 249.96 476.94 258.84 483.8 267.84 490.43 277.5 497.06 287.63 504.64 297.68 512.69 308.15 521.3 318.88 531.09 329.49 541.37 340.41 551.78 351.54 562.51 362.59 572.39 373.92 580.58 385.46 587.35 396.97 591.21 408.74 591.56 420.66 589.48 432.58 584.11 444.07 576.2 455.01 567.27 465.9 557.13 476.15 546.6 485.58 536.79 494.86 527.39 503.2 518.66 510.43 511.25 517.4 504.38 523.18 497.85 527.65 492.21 531.88 486.39 534.86 480.12 536.62 474.16 538.39 467.36 539.21 459.65 539.22 451.92 539.74 443.15 539.88 433.39 539.78 423.58 540.73 412.81 541.77 401.18 542.89 389.55 545.22 377.67 547.39 365.74 549.23 353.87 551.7 342.02 553.36 330.39 554.01 318.91 554.64 307.78 553.9 297.26 551.72 287.07 549.13 277.69 545 269.41 539.44 261.68 533.43 255.22 526.08 250.24 517.61 245.85 508.83 242.89 499.1 241.38 488.68 240.07 478.11 239.85 466.98 240.54 455.51 240.71 444 241.31 432.21 242.21 420.3 242.06 408.39 242.13 396.9 242.48 385.91 242.14 374.89 242.52 364.28 243.79 354.15 245.08 343.88 247.66 333.97 251.57 324.46 255.97 314.72 261.82 305.28 268.96 296.19 276.65 286.83 285.49 277.79 295.22 269.2 305.33 260.42 316.13 252.18 327.35 244.68 338.75 237.26 350.43 230.8 362.17 225.6 373.97 220.83 385.73 217.58 397.26 216.1" stroke-dasharray="0 0" transform="rotate(59.862068965517246, 400, 400)" opacity="0.76"></path><path d="M392.56 226.32C403.24 225.61 413.18 226.67 422.32 229.35 431.44 232.64 439.8 237.41 447.39 243.43 455.1 249.84 462.24 257.3 468.93 265.58 476.05 274.01 483.08 283.11 490.19 292.68 498.15 302.23 506.51 312.19 515.29 322.43 524.96 332.58 534.91 343.02 544.73 353.65 554.67 364.21 563.66 375 570.99 385.93 577 396.85 580.39 407.94 580.64 419.09 578.8 430.24 574 440.91 566.87 450.99 558.78 461.02 549.43 470.38 539.53 478.93 530.09 487.36 520.82 494.88 512.01 501.35 504.25 507.63 496.93 512.82 489.96 516.84 483.81 520.71 477.6 523.48 471.13 525.18 465.03 526.96 458.31 527.92 450.87 528.17 443.5 528.92 435.25 529.31 426.15 529.46 417.02 530.52 407.03 531.6 396.25 532.68 385.48 534.8 374.47 536.72 363.44 538.29 352.47 540.44 341.55 541.85 330.89 542.37 320.39 542.93 310.29 542.28 300.82 540.37 291.69 538.17 283.37 534.59 276.11 529.71 269.34 524.47 263.77 517.99 259.54 510.45 255.79 502.64 253.32 493.91 252.13 484.45 251.04 474.86 250.9 464.68 251.57 454.08 251.73 443.45 252.28 432.48 253.12 421.29 253.01 410.11 253.12 399.25 253.5 388.78 253.21 378.28 253.56 368.11 254.68 358.33 255.74 348.45 257.92 338.86 261.28 329.61 265 320.19 270.03 311.03 276.24 302.22 282.93 293.2 290.71 284.5 299.37 276.26 308.38 267.9 318.1 260.09 328.28 253.02 338.65 246.05 349.34 240.01 360.13 235.17 370.99 230.73 381.86 227.7 392.55 226.32" stroke-dasharray="0 0" transform="rotate(64.13793103448276, 400, 400)" opacity="0.25"></path><path d="M388.47 236.53C398.35 235.83 407.62 236.76 416.23 239.17 424.86 242.12 432.88 246.45 440.33 251.94 447.93 257.79 455.14 264.66 462.06 272.32 469.4 280.14 476.75 288.63 484.21 297.59 492.37 306.58 500.85 315.97 509.59 325.64 518.99 335.27 528.45 345.17 537.61 355.22 546.71 365.24 554.81 375.44 561.3 385.73 566.61 396.01 569.56 406.4 569.72 416.77 568.09 427.15 563.83 437.01 557.46 446.25 550.18 455.46 541.65 463.99 532.45 471.72 523.5 479.36 514.51 486.14 505.78 491.96 497.87 497.64 490.28 502.33 482.98 505.98 476.42 509.55 469.87 512.17 463.19 513.86 456.9 515.68 450.17 516.78 442.92 517.26 435.77 518.21 427.94 518.82 419.4 519.18 410.87 520.34 401.59 521.44 391.64 522.47 381.69 524.4 371.58 526.07 361.48 527.39 351.45 529.24 341.51 530.41 331.87 530.79 322.4 531.26 313.36 530.66 304.97 528.96 296.89 527.06 289.6 523.94 283.33 519.66 277.47 515.1 272.71 509.4 269.17 502.71 265.99 495.8 263.93 487.99 263 479.46 262.08 470.81 262 461.55 262.62 451.82 262.75 442.05 263.25 431.89 264.04 421.45 263.96 411.01 264.11 400.79 264.52 390.87 264.31 380.93 264.65 371.24 265.67 361.86 266.54 352.4 268.4 343.18 271.29 334.27 274.41 325.21 278.71 316.41 284.07 307.94 289.81 299.31 296.59 291.02 304.21 283.19 312.13 275.29 320.77 267.94 329.9 261.32 339.21 254.82 348.89 249.22 358.72 244.73 368.63 240.63 378.6 237.82 388.47 236.53" stroke-dasharray="0 0" transform="rotate(68.41379310344827, 400, 400)" opacity="0.58"></path><path d="M385.37 246.74C394.46 246.07 403.11 246.86 411.26 249.01 419.44 251.64 427.19 255.53 434.53 260.49 442.03 265.8 449.29 272.06 456.39 279.07 463.86 286.27 471.39 294.1 479.02 302.41 487.21 310.78 495.61 319.56 504.13 328.6 513.09 337.64 521.95 346.93 530.37 356.35 538.61 365.77 545.83 375.33 551.53 384.94 556.17 394.54 558.71 404.2 558.81 413.8 557.38 423.4 553.62 432.46 547.97 440.91 541.48 449.32 533.76 457.07 525.32 464.07 516.96 470.99 508.39 477.11 499.91 482.35 492.02 487.51 484.33 491.78 476.88 495.14 470.03 498.48 463.23 500.98 456.4 502.69 449.92 504.55 443.17 505.8 436.05 506.49 429.07 507.61 421.56 508.41 413.53 508.95 405.5 510.17 396.89 511.28 387.74 512.26 378.59 514 369.36 515.45 360.21 516.54 351.11 518.1 342.18 519.04 333.58 519.27 325.14 519.63 317.16 519.06 309.82 517.52 302.76 515.85 296.46 513.12 291.11 509.35 286.09 505.37 282.06 500.37 279.11 494.45 276.42 488.34 274.71 481.4 273.98 473.74 273.19 465.98 273.13 457.6 273.69 448.72 273.79 439.81 274.22 430.46 274.96 420.78 274.91 411.09 275.11 401.53 275.55 392.2 275.42 382.84 275.78 373.67 276.72 364.74 277.48 355.76 279.08 346.97 281.57 338.45 284.19 329.83 287.84 321.44 292.45 313.38 297.34 305.21 303.18 297.37 309.82 290 316.7 282.61 324.29 275.75 332.4 269.6 340.66 263.59 349.32 258.42 358.22 254.3 367.17 250.52 376.27 247.94 385.37 246.74" stroke-dasharray="0 0" transform="rotate(72.6896551724138, 400, 400)" opacity="0.08"></path><path d="M383.49 256.95C391.85 256.3 399.92 256.98 407.64 258.87 415.39 261.19 422.87 264.65 430.08 269.1 437.45 273.86 444.7 279.51 451.86 285.87 459.33 292.41 466.88 299.57 474.5 307.2 482.53 314.9 490.68 323 498.81 331.37 507.2 339.75 515.36 348.38 522.98 357.13 530.35 365.88 536.71 374.76 541.66 383.66 545.69 392.55 547.86 401.47 547.89 410.29 546.65 419.11 543.36 427.39 538.39 435.08 532.67 442.74 525.77 449.77 518.1 456.08 510.41 462.35 502.38 467.89 494.29 472.64 486.62 477.34 479.02 481.26 471.57 484.39 464.6 487.53 457.68 489.96 450.77 491.7 444.19 493.61 437.43 494.98 430.45 495.86 423.6 497.13 416.4 498.08 408.81 498.76 401.25 500.02 393.26 501.13 384.87 502.05 376.48 503.61 368.11 504.85 359.9 505.73 351.73 507.03 343.78 507.75 336.21 507.84 328.76 508.08 321.8 507.5 315.47 506.07 306.67 503.38 293.48 493.16 289.35 485.73 287.06 480.36 285.63 474.2 285.04 467.35 284.35 460.43 284.28 452.89 284.78 444.83 284.82 436.75 285.2 428.21 285.88 419.28 285.86 410.36 286.09 401.49 286.58 392.77 286.53 384.04 286.93 375.43 287.83 367.01 288.51 358.56 289.92 350.26 292.09 342.2 294.31 334.08 297.41 326.17 301.37 318.57 305.51 310.92 310.51 303.59 316.25 296.72 322.18 289.86 328.78 283.52 335.92 277.86 343.17 272.35 350.86 267.63 358.85 263.87 366.88 260.42 375.13 258.06 383.49 256.95" stroke-dasharray="0 0" transform="rotate(76.96551724137932, 400, 400)" opacity="0.19"></path><path d="M383.02 267.16C390.67 266.54 398.17 267.1 405.46 268.75 412.78 270.77 419.96 273.82 427 277.77 434.16 281.99 441.28 287.03 448.37 292.74 455.7 298.62 463.1 305.09 470.52 312 478.22 319 485.94 326.38 493.53 334.03 501.24 341.72 508.63 349.63 515.42 357.66 521.92 365.71 527.46 373.86 531.71 382.02 535.16 390.18 536.99 398.34 536.97 406.38 535.9 414.42 533.05 421.95 528.72 428.91 523.73 435.85 517.63 442.21 510.78 447.91 503.8 453.59 496.41 458.6 488.85 462.92 481.54 467.22 474.2 470.85 466.94 473.78 460.02 476.77 453.13 479.14 446.28 480.91 439.69 482.86 433 484.34 426.2 485.37 419.52 486.75 412.61 487.82 405.46 488.61 398.35 489.89 390.94 490.98 383.28 491.83 375.62 493.22 368.08 494.28 360.76 494.97 353.47 496.02 346.47 496.54 339.87 496.5 330.36 496.3 314.43 492.23 308.35 488.18 303.3 483.2 297.29 469.2 296.18 460.39 295.55 454.23 295.46 447.49 295.87 440.23 295.86 432.95 296.18 425.19 296.79 417.04 296.81 408.88 297.08 400.72 297.6 392.65 297.64 384.58 298.08 376.57 298.97 368.72 299.62 360.85 300.89 353.1 302.81 345.57 304.71 338 307.37 330.63 310.77 323.56 314.28 316.47 318.54 309.7 323.49 303.37 328.57 297.07 334.28 291.28 340.52 286.12 346.84 281.12 353.62 276.84 360.75 273.44 367.91 270.32 375.36 268.18 383.02 267.16" stroke-dasharray="0 0" transform="rotate(81.24137931034483, 400, 400)" opacity="0.91"></path><path d="M383.97 277.38C390.95 276.78 397.88 277.24 404.71 278.66 411.58 280.4 418.41 283.05 425.17 286.51 432.03 290.21 438.91 294.65 445.76 299.7 452.79 304.92 459.87 310.68 466.9 316.86 474.12 323.14 481.26 329.78 488.2 336.68 495.15 343.62 501.72 350.79 507.67 358.06 513.32 365.36 518.07 372.76 521.66 380.15 524.59 387.56 526.12 394.95 526.05 402.22 525.14 409.49 522.7 416.28 518.97 422.55 514.67 428.81 509.36 434.53 503.31 439.68 497.1 444.81 490.42 449.36 483.49 453.3 476.69 457.25 469.77 460.61 462.85 463.39 456.16 466.23 449.47 468.55 442.81 470.35 436.35 472.32 429.84 473.88 423.29 475.03 416.84 476.48 410.26 477.64 403.56 478.51 396.89 479.78 390.06 480.83 383.1 481.62 376.14 482.85 369.38 483.73 362.91 484.25 353.4 485.25 336.42 484.92 329.26 483.32 322.85 481.09 313.47 473.06 310.57 467.27 308.35 460.73 306.71 444.5 306.96 435 306.9 428.49 307.16 421.51 307.71 414.13 307.75 406.74 308.05 399.31 308.6 391.92 308.73 384.53 309.23 377.18 310.12 369.95 310.77 362.7 311.95 355.56 313.68 348.62 315.34 341.65 317.65 334.88 320.6 328.39 323.58 321.91 327.23 315.73 331.49 309.97 335.83 304.27 340.75 299.03 346.19 294.39 351.67 289.89 357.62 286.06 363.95 283.02 370.3 280.22 377 278.3 383.97 277.38" stroke-dasharray="0 0" transform="rotate(85.51724137931035, 400, 400)" opacity="0.09"></path><path d="M386.28 287.59C392.59 287.03 398.95 287.39 405.29 288.6 411.66 290.07 418.05 292.34 424.43 295.33 430.88 298.52 437.36 302.38 443.83 306.79 450.41 311.34 456.99 316.4 463.49 321.84 470.08 327.38 476.54 333.26 482.72 339.39 488.86 345.57 494.58 351.95 499.7 358.45 504.53 364.98 508.54 371.6 511.53 378.21 513.98 384.84 515.23 391.46 515.14 397.96 514.37 404.47 512.3 410.55 509.12 416.16 505.47 421.77 500.92 426.9 495.67 431.53 490.24 436.16 484.32 440.28 478.11 443.89 471.93 447.51 465.57 450.64 459.14 453.27 452.86 455.97 446.52 458.22 440.21 460.04 434.03 462 427.82 463.6 421.61 464.84 415.49 466.33 409.3 467.53 403.08 468.45 396.89 469.68 390.63 470.69 384.34 471.41 375.05 472.84 358.02 474.3 350.46 474.12 337.64 471.83 323.93 462.84 321.46 457.73 319.5 451.99 317.91 437.69 318.04 429.28 317.94 423.5 318.14 417.28 318.63 410.66 318.69 404.04 319.01 397.35 319.59 390.68 319.8 384 320.36 377.34 321.26 370.77 321.93 364.2 323.05 357.72 324.64 351.41 326.13 345.1 328.17 338.97 330.75 333.11 333.32 327.27 336.46 321.71 340.14 316.55 343.85 311.46 348.1 306.79 352.82 302.67 357.57 298.68 362.78 295.29 368.38 292.6 373.98 290.13 379.97 288.42 386.28 287.59" stroke-dasharray="0 0" transform="rotate(89.79310344827586, 400, 400)" opacity="0.11"></path><path d="M389.75 297.8C401.07 296.98 412.8 299.33 424.5 304.24 436.4 309.82 448.47 317.66 460.1 327 471.81 336.67 482.68 347.57 491.5 358.96 499.3 370.45 503.92 382.29 504.22 393.79 502.44 405.29 496.55 415.32 487.85 423.6 478.42 431.89 467.32 438.55 455.64 443.45 444.26 448.64 432.54 452.43 420.97 454.8 409.64 457.97 398.15 460.17 386.91 461.2 375.67 463.31 365.66 463.94 357.25 463.09 348.91 462.72 342.3 460.37 337.77 456.08 333.23 451.79 330.57 445.38 329.83 437.07 328.44 428.69 328.35 418.48 329.54 406.78 329.34 395.07 330.31 383.04 332.35 371.31 333.58 359.6 336.5 348.2 341.13 337.77 345.6 327.46 352.07 318.28 360.28 310.98 368.5 304.13 378.43 299.49 389.75 297.8" stroke-dasharray="0 0" transform="rotate(94.06896551724138, 400, 400)" opacity="0.56"></path><path d="M394.08 308.01C404.09 307.24 414.58 309.15 425.09 313.25 435.7 317.87 446.4 324.46 456.55 332.39 466.63 340.59 475.79 349.91 483.05 359.71 489.45 369.6 493.16 379.85 493.3 389.86 491.88 399.87 487.05 408.66 479.81 416 471.91 423.38 462.39 429.42 452.19 434 442.07 438.83 431.53 442.49 421.11 444.9 410.83 447.94 400.51 450.04 390.59 450.98 380.66 452.75 371.99 453.13 364.83 452.19 354.86 450.52 343.03 438.93 341.04 428.91 339.67 421.66 339.46 412.81 340.46 402.63 340.36 392.44 341.38 381.93 343.39 371.67 344.7 361.44 347.44 351.5 351.6 342.43 355.55 333.49 361.17 325.58 368.31 319.32 375.41 313.44 384.07 309.47 394.08 308.01" stroke-dasharray="0 0" transform="rotate(98.3448275862069, 400, 400)" opacity="0.98"></path><path d="M398.91 318.23C407.59 317.51 416.72 319.02 425.84 322.35 435.01 326.09 444.16 331.48 452.69 338.04 461.09 344.81 468.57 352.57 474.36 360.81 479.46 369.12 482.36 377.79 482.38 386.33 481.28 394.87 477.42 402.44 471.55 408.86 465.13 415.32 457.23 420.72 448.6 424.93 439.94 429.35 430.8 432.8 421.7 435.16 412.68 437.97 403.65 439.92 395.06 440.77 386.46 442.22 379.04 442.4 372.96 441.4 364.46 439.67 354.15 429.39 352.21 420.79 350.87 414.6 350.56 407.06 351.38 398.38 351.36 389.7 352.39 380.73 354.34 371.98 355.71 363.26 358.3 354.81 362.05 347.14 365.57 339.59 370.47 332.93 376.65 327.7 382.77 322.78 390.24 319.45 398.91 318.23" stroke-dasharray="0 0" transform="rotate(102.62068965517241, 400, 400)" opacity="0.64"></path><path d="M403.84 328.44C411.15 327.79 418.81 328.95 426.41 331.57 434.02 334.48 441.51 338.75 448.38 344 455.09 349.41 460.96 355.66 465.4 362.37 469.34 369.12 471.52 376.24 471.47 383.33 470.64 390.41 467.66 396.79 463.05 402.27 458.03 407.79 451.72 412.5 444.72 416.27 437.63 420.2 430.04 423.34 422.41 425.55 414.81 428.08 407.19 429.82 399.94 430.56 389.58 431.73 374.18 429.03 369.25 425.06 365.21 420.07 361.84 404.52 362.3 394.19 362.34 387 363.35 379.58 365.17 372.36 366.56 365.18 368.97 358.23 372.32 351.96 375.47 345.79 379.72 340.37 384.99 336.14 390.2 332.14 396.52 329.44 403.84 328.44" stroke-dasharray="0 0" transform="rotate(106.89655172413792, 400, 400)" opacity="0.66"></path><path d="M408.44 338.65C420.26 337.78 432.92 342.39 443.49 350.31 453.54 358.65 460.28 369.68 460.55 380.98 458.91 392.28 451.08 401.68 440.41 408.05 429.37 414.86 416.56 419.38 404.83 420.35 393.1 422.35 384.45 420.38 379.62 415.23 374.26 410.33 371.87 401.67 373.21 390.23 372.99 378.78 376.32 366.81 382.29 356.94 387.65 347.39 396.61 340.44 408.44 338.65" stroke-dasharray="0 0" transform="rotate(111.17241379310344, 400, 400)" opacity="0.94"></path><path d="M412.32 348.86C421.27 348.11 430.5 351.32 437.94 356.99 445.02 362.91 449.61 370.92 449.63 379.38 448.6 387.83 443.16 395.12 435.55 400.27 427.65 405.66 418.2 409.32 409.32 410.14 397.05 410.67 384.29 398.5 384.13 386.65 384.11 378.11 386.97 369.3 391.83 362.14 396.31 355.17 403.37 350.14 412.32 348.86" stroke-dasharray="0 0" transform="rotate(115.44827586206897, 400, 400)" opacity="0.93"></path><path d="M415.17 359.07C427.17 358.18 438.46 367.31 438.72 378.58 437.15 389.84 424.95 398.98 413.01 399.92 401.05 401.88 393.63 394.93 395.05 383.59 394.81 372.25 403.15 360.92 415.17 359.07" stroke-dasharray="0 0" transform="rotate(119.72413793103449, 400, 400)" opacity="0.91"></path></g></svg>