<svg xmlns="http://www.w3.org/2000/svg" version="1.1" xmlns:xlink="http://www.w3.org/1999/xlink" xmlns:svgjs="http://svgjs.dev/svgjs" viewBox="0 0 800 800"><defs><linearGradient x1="50%" y1="0%" x2="50%" y2="100%" id="ccchaos-grad"><stop stop-color="hsl(265, 55%, 30%)" stop-opacity="1" offset="0%"></stop><stop stop-color="hsl(265, 55%, 60%)" stop-opacity="1" offset="100%"></stop></linearGradient></defs><g stroke-width="3" stroke="url(#ccchaos-grad)" fill="none" stroke-linecap="round"><path d="M388.71 41.96C397.42 42.21 414.53 44.4 422.92 46.3 434.07 49.35 444.95 53.32 455.56 58.06 466.17 62.94 476.53 68.36 486.61 74.16 496.73 79.77 506.63 85.58 516.3 91.49 526.05 96.98 535.64 102.49 545.08 108 554.68 113.04 564.21 118.11 573.67 123.24 583.37 127.98 593.07 132.89 602.79 138.01 612.8 142.92 622.86 148.17 632.94 153.81 643.28 159.4 653.62 165.48 663.89 172.06 674.29 178.72 684.5 185.93 694.38 193.68 704.15 201.57 713.4 210 721.97 218.92 730.11 228 737.32 237.55 743.46 247.5 748.89 257.58 753.06 268.02 755.87 278.76 757.86 289.59 758.47 300.66 757.72 311.93 756.3 323.24 753.71 334.7 750.08 346.25 748.17 352.04 746.07 357.84 743.79 363.65 741.54 369.46 739.16 375.29 736.7 381.12 734.33 386.95 731.95 392.71 729.57 398.41 727.36 404.1 725.19 409.73 723.09 415.29 719.52 426.4 716.31 437.25 713.51 447.83 711.62 458.45 710.06 468.84 708.77 479.02 708.17 489.3 707.6 499.45 706.92 509.5 706.56 519.73 705.8 529.96 704.54 540.23 703.21 550.79 701.15 561.49 698.29 572.34 695.11 583.55 691.02 594.97 686.02 606.58 680.6 618.51 674.27 630.58 667.09 642.69 659.52 654.93 651.18 667.02 642.16 678.77 632.85 690.27 622.95 701.12 612.58 711.07 602.03 720.29 591.09 728.28 579.86 734.82 568.54 740.24 557 744.02 545.28 746.07 533.56 746.98 521.71 746.28 509.77 744.09 497.86 741.26 485.88 737.42 473.87 732.86 461.88 728.6 449.86 724.32 437.84 720.36 431.83 718.83 425.82 717.5 419.82 716.38 413.81 715.66 407.8 715.21 401.8 715.03 395.79 715.29 389.86 715.82 384 716.62 378.13 717.8 372.34 719.21 366.61 720.79 355.16 724.86 343.97 729.22 333.07 733.53 322.14 738.1 311.48 741.92 301.09 744.7 290.65 746.82 280.47 747.42 270.56 746.39 260.58 744.22 250.84 740.31 241.37 734.76 231.8 728.1 222.47 720 213.4 710.68 204.22 700.64 195.27 689.73 186.59 678.19 177.8 666.41 169.27 654.31 161.03 642.08 152.69 629.99 144.66 617.95 136.96 606.06 129.21 594.5 121.83 583.14 114.85 571.99 107.88 561.2 101.34 550.57 95.29 540.06 89.3 529.85 83.83 519.68 78.91 509.49 74.08 499.49 69.84 489.39 66.2 479.14 62.67 468.99 59.76 458.62 57.49 448.03 55.33 437.46 53.79 426.63 52.91 415.52 52.38 407.15 52.15 390.07 52.45 381.36 52.71 375.52 53.13 369.7 53.7 363.88 54.28 358.06 55 352.25 55.87 346.46 57.6 334.9 59.88 323.42 62.67 312.09 65.41 300.8 68.64 289.7 72.31 278.85 75.88 268.08 79.89 257.61 84.28 247.5 88.56 237.52 93.23 227.93 98.25 218.82 103.16 209.86 108.44 201.4 114.07 193.47 119.6 185.7 125.52 178.46 131.8 171.78 138.03 165.18 144.66 159.1 151.67 153.5 158.68 147.87 166.1 142.63 173.92 137.74 181.77 132.64 190.03 127.77 198.67 123.06 207.37 117.98 216.46 112.97 225.9 107.98 235.41 102.52 245.26 97.06 255.42 91.62 265.64 85.75 276.14 79.98 286.88 74.4 297.68 68.61 308.69 63.2 319.88 58.31 331.1 53.56 342.48 49.56 353.96 46.46 359.71 45.09 365.48 43.97 371.28 43.14 377.07 42.45 382.88 42.05 388.7 41.96" stroke-dasharray="0 0" transform="rotate(0, 400, 400)" opacity="0.54"></path><path d="M387.3 52.16C398.55 52.43 409.6 53.86 420.42 56.36 431.24 59.32 441.83 63.18 452.19 67.79 462.55 72.58 472.69 77.9 482.6 83.62 492.56 89.19 502.32 94.97 511.9 100.88 521.57 106.41 531.12 111.97 540.54 117.55 550.11 122.67 559.63 127.82 569.11 133 578.8 137.81 588.5 142.74 598.2 147.85 608.15 152.71 618.13 157.87 628.09 163.35 638.27 168.75 648.4 174.57 658.4 180.85 668.48 187.15 678.32 193.97 687.78 201.28 697.1 208.69 705.86 216.61 713.92 225.01 721.54 233.54 728.25 242.52 733.91 251.9 738.89 261.4 742.67 271.27 745.17 281.44 746.91 291.7 747.36 302.23 746.54 312.97 745.11 323.75 742.6 334.72 739.11 345.81 735.43 356.92 731.11 368.13 726.33 379.41 721.91 390.69 717.48 401.76 713.2 412.61 709.68 423.46 706.46 434.11 703.6 444.56 701.59 455.04 699.88 465.36 698.4 475.53 697.59 485.8 696.81 496 695.95 506.14 695.43 516.47 694.57 526.83 693.27 537.25 691.96 547.93 690 558.75 687.32 569.72 684.38 580.98 680.62 592.41 676.01 603.97 671.04 615.76 665.21 627.61 658.58 639.41 651.59 651.24 643.85 662.81 635.43 673.97 626.73 684.79 617.45 694.89 607.67 704.05 597.71 712.47 587.33 719.66 576.63 725.43 565.84 730.16 554.78 733.33 543.53 734.88 532.25 735.43 520.81 734.5 509.27 732.21 497.74 729.41 486.12 725.71 474.45 721.39 462.8 717.4 451.11 713.41 439.4 709.74 427.71 707.25 415.99 705.56 404.28 704.84 392.56 705.72 381.12 707.54 369.95 710.16 358.76 713.94 347.84 718 337.19 722.04 326.5 726.38 316.07 730.07 305.91 732.83 295.69 735.05 285.72 735.89 276.01 735.24 266.22 733.58 256.67 730.28 247.37 725.43 237.98 719.54 228.81 712.24 219.89 703.72 210.87 694.47 202.09 684.3 193.55 673.42 184.92 662.23 176.55 650.63 168.45 638.8 160.28 627 152.41 615.17 144.86 603.41 137.28 591.89 130.06 580.5 123.23 569.29 116.43 558.38 110.05 547.62 104.15 536.99 98.31 526.62 92.97 516.31 88.18 506.03 83.5 495.93 79.37 485.78 75.84 475.54 72.43 465.4 69.62 455.11 67.44 444.65 65.36 434.23 63.91 423.59 63.1 412.75 62.37 401.91 62.27 390.84 62.81 379.56 63.4 368.28 64.58 357.06 66.33 345.94 68.07 334.83 70.35 323.85 73.12 313.05 75.83 302.29 79.01 291.74 82.61 281.45 86.12 271.25 90.05 261.35 94.34 251.83 98.52 242.41 103.07 233.4 107.96 224.84 112.73 216.42 117.86 208.46 123.33 201.02 128.7 193.69 134.43 186.86 140.5 180.54 146.52 174.26 152.91 168.43 159.67 163.03 166.41 157.56 173.55 152.42 181.05 147.59 188.58 142.51 196.5 137.61 204.79 132.86 213.12 127.72 221.83 122.62 230.87 117.55 239.97 112.03 249.41 106.51 259.14 101.03 268.92 95.16 278.99 89.41 289.3 83.87 299.65 78.16 310.22 72.85 320.98 68.05 331.76 63.41 342.7 59.52 353.77 56.52 364.85 53.97 376.03 52.49 387.29 52.16" stroke-dasharray="0 0" transform="rotate(2.90625, 400, 400)" opacity="0.31"></path><path d="M386.27 62.35C397.15 62.62 407.85 64 418.35 66.41 428.86 69.28 439.17 73.02 449.28 77.51 459.4 82.19 469.34 87.4 479.08 93.03 488.88 98.54 498.52 104.29 508 110.18 517.58 115.73 527.06 121.34 536.44 126.97 545.97 132.17 555.46 137.39 564.91 142.65 574.56 147.52 584.21 152.5 593.84 157.61 603.69 162.46 613.54 167.56 623.34 172.93 633.3 178.18 643.17 183.81 652.87 189.83 662.59 195.84 672.03 202.31 681.05 209.23 689.9 216.22 698.16 223.69 705.7 231.61 712.82 239.62 719.04 248.08 724.23 256.94 728.79 265.88 732.21 275.2 734.41 284.85 735.93 294.55 736.23 304.55 735.35 314.79 733.93 325.06 731.5 335.55 728.15 346.19 724.64 356.85 720.53 367.66 715.96 378.57 711.73 389.48 707.46 400.25 703.31 410.84 699.84 421.45 696.64 431.91 693.73 442.22 691.61 452.57 689.75 462.82 688.1 472.98 687.09 483.23 686.12 493.45 685.08 503.66 684.4 514.04 683.42 524.48 682.06 534.99 680.75 545.73 678.85 556.59 676.31 567.57 673.58 578.8 670.09 590.13 665.84 601.54 661.27 613.1 655.9 624.63 649.77 636.02 643.32 647.35 636.14 658.36 628.31 668.85 620.21 678.96 611.52 688.3 602.33 696.67 592.95 704.29 583.15 710.71 572.99 715.75 562.73 719.83 552.18 722.45 541.41 723.56 530.6 723.78 519.6 722.66 508.48 720.33 497.35 717.58 486.12 714.03 474.82 709.95 463.53 706.23 452.18 702.53 440.8 699.13 429.43 696.85 418.03 695.31 406.62 694.64 395.21 695.46 384.06 697.14 373.16 699.54 362.25 703.04 351.59 706.82 341.18 710.59 330.74 714.7 320.54 718.23 310.6 720.95 300.6 723.24 290.83 724.28 281.31 723.96 271.72 722.74 262.35 720.01 253.22 715.82 244 710.65 235.01 704.13 226.24 696.4 217.39 687.94 208.76 678.52 200.38 668.36 191.92 657.81 183.7 646.78 175.76 635.42 167.76 624.02 160.05 612.5 152.67 600.96 145.26 589.58 138.21 578.27 131.55 567.09 124.91 556.15 118.7 545.33 112.95 534.64 107.27 524.18 102.09 513.79 97.44 503.45 92.89 493.28 88.89 483.1 85.48 472.88 82.18 462.76 79.48 452.54 77.39 442.21 75.41 431.92 74.04 421.48 73.3 410.88 72.64 400.3 72.6 389.54 73.18 378.62 73.81 367.71 75.02 356.9 76.78 346.23 78.53 335.57 80.8 325.08 83.54 314.78 86.23 304.53 89.36 294.51 92.9 284.78 96.35 275.11 100.19 265.76 104.39 256.79 108.48 247.91 112.91 239.42 117.68 231.38 122.33 223.44 127.32 215.95 132.63 208.94 137.83 202 143.38 195.52 149.26 189.5 155.08 183.48 161.25 177.86 167.77 172.62 174.26 167.26 181.12 162.19 188.33 157.37 195.55 152.29 203.15 147.35 211.09 142.53 219.07 137.32 227.4 132.15 236.06 127 244.77 121.42 253.79 115.86 263.11 110.35 272.48 104.5 282.12 98.78 292 93.3 301.92 87.68 312.06 82.46 322.4 77.78 332.75 73.26 343.27 69.48 353.93 66.57 364.6 64.11 375.39 62.68 386.26 62.35" stroke-dasharray="0 0" transform="rotate(5.8125, 400, 400)" opacity="0.64"></path><path d="M385.67 72.55C396.18 72.8 406.54 74.13 416.74 76.46 426.94 79.23 436.98 82.85 446.85 87.22 456.74 91.77 466.48 96.87 476.06 102.39 485.69 107.83 495.2 113.52 504.58 119.39 514.06 124.95 523.46 130.58 532.78 136.25 542.23 141.53 551.66 146.83 561.05 152.15 570.6 157.1 580.16 162.13 589.68 167.27 599.38 172.14 609.04 177.21 618.63 182.51 628.33 187.66 637.9 193.13 647.25 198.95 656.59 204.72 665.59 210.9 674.16 217.49 682.52 224.12 690.28 231.18 697.33 238.67 703.94 246.22 709.69 254.2 714.44 262.57 718.6 271.01 721.68 279.82 723.61 288.96 724.91 298.15 725.09 307.65 724.16 317.41 722.76 327.19 720.41 337.22 717.2 347.44 713.87 357.66 709.95 368.07 705.6 378.63 701.55 389.2 697.44 399.66 693.42 410.02 690.02 420.38 686.83 430.65 683.89 440.83 681.67 451.05 679.68 461.21 677.88 471.33 676.68 481.54 675.52 491.75 674.32 501.99 673.47 512.37 672.37 522.82 670.94 533.35 669.6 544.07 667.74 554.89 665.3 565.8 662.74 576.89 659.48 588.04 655.53 599.19 651.31 610.42 646.36 621.54 640.69 632.45 634.74 643.22 628.09 653.59 620.81 663.39 613.28 672.75 605.17 681.32 596.55 688.9 587.75 695.76 578.51 701.43 568.9 705.8 559.19 709.28 549.16 711.39 538.88 712.11 528.56 712.06 518.02 710.8 507.34 708.44 496.64 705.76 485.81 702.39 474.9 698.55 463.99 695.1 453 691.68 441.96 688.55 430.94 686.47 419.86 685.06 408.77 684.44 397.67 685.2 386.81 686.74 376.19 688.94 365.56 692.18 355.15 695.67 344.99 699.18 334.8 703.04 324.84 706.42 315.1 709.07 305.33 711.38 295.77 712.58 286.43 712.55 277.04 711.73 267.86 709.51 258.89 705.93 249.86 701.45 241.03 695.66 232.43 688.71 223.75 681.03 215.29 672.38 207.07 662.95 198.78 653.09 190.73 642.68 182.95 631.88 175.13 620.96 167.6 609.82 160.38 598.6 153.16 587.46 146.28 576.34 139.79 565.28 133.34 554.4 127.3 543.61 121.71 532.93 116.2 522.44 111.17 512.03 106.67 501.69 102.27 491.49 98.4 481.32 95.11 471.14 91.94 461.05 89.34 450.92 87.34 440.72 85.46 430.57 84.17 420.31 83.5 409.96 82.91 399.62 82.92 389.16 83.55 378.59 84.22 368.03 85.45 357.62 87.22 347.38 88.98 337.15 91.23 327.12 93.94 317.32 96.6 307.54 99.69 298.03 103.17 288.81 106.55 279.65 110.32 270.82 114.43 262.36 118.42 253.97 122.76 245.97 127.41 238.39 131.93 230.89 136.79 223.81 141.95 217.17 147 210.57 152.39 204.38 158.08 198.61 163.7 192.8 169.66 187.34 175.95 182.21 182.2 176.92 188.8 171.89 195.74 167.06 202.67 161.95 209.95 156.96 217.57 152.06 225.2 146.79 233.18 141.54 241.47 136.32 249.8 130.7 258.44 125.1 267.36 119.58 276.32 113.76 285.55 108.09 295.02 102.67 304.51 97.15 314.24 92.05 324.16 87.48 334.1 83.1 344.21 79.43 354.48 76.62 364.74 74.25 375.15 72.86 385.66 72.55" stroke-dasharray="0 0" transform="rotate(8.71875, 400, 400)" opacity="0.94"></path><path d="M385.5 82.75C395.65 82.99 405.69 84.27 415.59 86.51 425.5 89.18 435.28 92.68 444.92 96.9 454.58 101.33 464.12 106.3 473.53 111.71 482.99 117.06 492.36 122.69 501.62 128.5 510.98 134.05 520.27 139.7 529.5 145.4 538.85 150.73 548.18 156.1 557.46 161.49 566.89 166.51 576.3 171.61 585.66 176.8 595.16 181.7 604.6 186.77 613.92 192.03 623.32 197.12 632.55 202.48 641.52 208.14 650.44 213.72 659 219.67 667.1 225.99 674.97 232.3 682.23 239.02 688.78 246.13 694.91 253.28 700.2 260.83 704.53 268.76 708.31 276.73 711.07 285.08 712.75 293.75 713.87 302.47 713.93 311.49 712.97 320.8 711.59 330.13 709.32 339.71 706.26 349.53 703.1 359.34 699.38 369.38 695.23 379.6 691.37 389.82 687.42 400 683.52 410.12 680.19 420.24 677.03 430.32 674.07 440.35 671.78 450.43 669.68 460.49 667.74 470.54 666.37 480.67 665.03 490.83 663.66 501.03 662.65 511.36 661.43 521.76 659.91 532.23 658.52 542.84 656.67 553.54 654.32 564.28 651.88 575.14 648.82 586.01 645.12 596.82 641.22 607.63 636.63 618.27 631.38 628.62 625.88 638.77 619.72 648.46 612.95 657.53 605.96 666.15 598.4 673.94 590.34 680.75 582.11 686.87 573.43 691.84 564.36 695.58 555.19 698.51 545.69 700.17 535.92 700.55 526.09 700.28 516.03 698.91 505.8 696.56 495.54 693.98 485.14 690.79 474.62 687.2 464.11 684.01 453.5 680.86 442.82 677.98 432.15 676.1 421.41 674.82 410.64 674.24 399.87 674.95 389.31 676.36 378.97 678.36 368.62 681.34 358.49 684.56 348.57 687.81 338.63 691.43 328.9 694.63 319.39 697.19 309.83 699.5 300.48 700.82 291.34 701.02 282.14 700.55 273.15 698.79 264.36 695.77 255.51 691.92 246.87 686.85 238.43 680.63 229.93 673.72 221.65 665.85 213.59 657.16 205.49 648.02 197.62 638.28 190.02 628.09 182.38 617.71 175.03 607.05 168 596.23 160.97 585.43 154.28 574.57 147.97 563.73 141.7 553.01 135.84 542.34 130.43 531.75 125.09 521.32 120.23 510.95 115.88 500.65 111.63 490.49 107.91 480.36 104.74 470.25 101.69 460.24 99.21 450.2 97.31 440.15 95.52 430.14 94.32 420.07 93.71 409.96 93.19 399.86 93.26 389.69 93.91 379.47 94.62 369.24 95.88 359.21 97.64 349.38 99.4 339.56 101.64 329.97 104.32 320.63 106.95 311.31 109.99 302.26 113.41 293.53 116.74 284.84 120.43 276.48 124.45 268.49 128.35 260.54 132.59 252.97 137.12 245.81 141.54 238.69 146.27 231.96 151.29 225.64 156.2 219.32 161.42 213.38 166.94 207.8 172.38 202.15 178.14 196.8 184.21 191.74 190.24 186.5 196.59 181.47 203.26 176.61 209.92 171.46 216.9 166.41 224.21 161.43 231.52 156.09 239.16 150.78 247.1 145.49 255.07 139.84 263.33 134.24 271.87 128.72 280.44 122.94 289.27 117.33 298.35 112 307.44 106.59 316.76 101.61 326.28 97.17 335.82 92.92 345.54 89.38 355.42 86.67 365.3 84.38 375.33 83.05 385.49 82.75" stroke-dasharray="0 0" transform="rotate(11.625, 400, 400)" opacity="0.80"></path><path d="M385.77 92.95C395.58 93.18 405.31 94.4 414.92 96.55 424.54 99.12 434.05 102.49 443.46 106.58 452.89 110.87 462.22 115.71 471.46 120.98 480.74 126.23 489.95 131.77 499.08 137.52 508.29 143.05 517.45 148.7 526.56 154.4 535.77 159.78 544.96 165.21 554.1 170.65 563.36 175.76 572.58 180.92 581.73 186.16 590.99 191.11 600.15 196.2 609.18 201.45 618.23 206.51 627.08 211.8 635.65 217.35 644.14 222.8 652.24 228.56 659.85 234.65 667.23 240.71 674 247.14 680.07 253.93 685.73 260.73 690.57 267.9 694.51 275.44 697.94 283 700.4 290.92 701.85 299.18 702.8 307.45 702.77 316.05 701.78 324.93 700.43 333.83 698.26 343.01 695.34 352.43 692.33 361.86 688.8 371.53 684.86 381.43 681.18 391.32 677.4 401.22 673.63 411.09 670.37 420.97 667.24 430.85 664.28 440.72 661.93 450.62 659.73 460.55 657.67 470.49 656.14 480.5 654.64 490.56 653.11 500.67 651.94 510.88 650.59 521.15 648.99 531.48 647.53 541.91 645.67 552.39 643.36 562.88 641.02 573.42 638.12 583.92 634.64 594.3 631 604.62 626.74 614.71 621.85 624.45 616.76 633.94 611.06 642.92 604.77 651.25 598.28 659.12 591.25 666.15 583.72 672.22 576.02 677.63 567.89 681.95 559.36 685.11 550.72 687.53 541.74 688.8 532.48 688.9 523.15 688.44 513.58 687 503.81 684.69 494.01 682.22 484.04 679.22 473.94 675.88 463.84 672.95 453.62 670.07 443.31 667.44 433.01 665.73 422.63 664.57 412.19 664.04 401.76 664.7 391.51 665.98 381.46 667.8 371.4 670.53 361.54 673.49 351.88 676.48 342.19 679.85 332.7 682.86 323.41 685.32 314.09 687.61 304.95 689 296.01 689.4 287.02 689.22 278.22 687.87 269.62 685.35 260.97 682.1 252.5 677.68 244.25 672.17 235.94 666.01 227.84 658.89 219.97 650.95 212.05 642.55 204.38 633.51 196.96 623.97 189.53 614.19 182.37 604.08 175.53 593.74 168.7 583.35 162.21 572.85 156.09 562.31 150.02 551.84 144.34 541.37 139.11 530.96 133.96 520.66 129.27 510.41 125.07 500.23 120.98 490.15 117.41 480.12 114.37 470.13 111.46 460.21 109.08 450.31 107.28 440.43 105.6 430.58 104.47 420.71 103.93 410.84 103.48 400.98 103.59 391.1 104.28 381.21 105.02 371.31 106.29 361.64 108.05 352.21 109.81 342.78 112.03 333.59 114.68 324.68 117.27 315.79 120.27 307.18 123.62 298.89 126.89 290.63 130.51 282.69 134.44 275.12 138.27 267.57 142.4 260.38 146.83 253.58 151.14 246.78 155.75 240.35 160.63 234.29 165.41 228.2 170.48 222.45 175.84 217.02 181.11 211.48 186.68 206.21 192.55 201.19 198.36 195.96 204.48 190.91 210.9 186 217.3 180.81 224.01 175.69 231.02 170.63 238.03 165.23 245.35 159.86 252.95 154.53 260.57 148.86 268.48 143.26 276.66 137.76 284.85 132.04 293.3 126.52 302 121.28 310.7 116 319.64 111.15 328.78 106.84 337.92 102.73 347.26 99.32 356.77 96.71 366.28 94.51 375.95 93.23 385.76 92.95" stroke-dasharray="0 0" transform="rotate(14.53125, 400, 400)" opacity="0.11"></path><path d="M386.48 103.15C395.96 103.36 405.37 104.53 414.7 106.59 424.03 109.05 433.29 112.3 442.46 116.24 451.65 120.38 460.78 125.08 469.82 130.21 478.91 135.35 487.94 140.79 496.91 146.46 505.95 151.94 514.95 157.56 523.9 163.26 532.94 168.67 541.95 174.14 550.9 179.63 559.94 184.81 568.94 190.04 577.84 195.33 586.81 200.34 595.66 205.47 604.35 210.73 613.03 215.78 621.48 221.04 629.62 226.51 637.65 231.86 645.28 237.48 652.41 243.4 659.3 249.26 665.59 255.45 671.18 261.97 676.39 268.47 680.82 275.32 684.38 282.52 687.47 289.72 689.66 297.27 690.91 305.14 691.71 313.02 691.6 321.22 690.6 329.72 689.28 338.22 687.2 347.01 684.42 356.08 681.58 365.14 678.24 374.46 674.49 384.04 670.99 393.62 667.37 403.23 663.73 412.84 660.56 422.48 657.47 432.14 654.52 441.82 652.12 451.53 649.84 461.28 647.67 471.07 646 480.92 644.35 490.82 642.68 500.76 641.35 510.78 639.87 520.86 638.17 530.96 636.64 541.13 634.75 551.32 632.47 561.46 630.19 571.61 627.41 581.67 624.11 591.54 620.7 601.31 616.72 610.79 612.16 619.87 607.44 628.68 602.14 636.94 596.3 644.53 590.27 651.65 583.73 657.94 576.7 663.31 569.52 668.05 561.91 671.77 553.9 674.4 545.79 676.38 537.32 677.3 528.56 677.16 519.74 676.56 510.65 675.08 501.35 672.84 492.02 670.5 482.5 667.7 472.82 664.61 463.14 661.93 453.32 659.31 443.4 656.91 433.48 655.38 423.46 654.33 413.37 653.85 403.28 654.45 393.35 655.61 383.61 657.25 373.85 659.75 364.27 662.45 354.87 665.19 345.45 668.32 336.21 671.14 327.15 673.47 318.06 675.7 309.14 677.14 300.41 677.69 291.64 677.75 283.05 676.76 274.65 674.69 266.2 671.97 257.93 668.16 249.87 663.33 241.77 657.87 233.86 651.49 226.19 644.3 218.48 636.64 211 628.31 203.79 619.45 196.56 610.33 189.61 600.81 182.97 591.01 176.36 581.12 170.07 571.05 164.15 560.9 158.28 550.76 152.81 540.58 147.76 530.42 142.8 520.34 138.29 510.28 134.25 500.27 130.33 490.35 126.91 480.47 124 470.64 121.22 460.88 118.97 451.15 117.27 441.45 115.68 431.79 114.64 422.14 114.16 412.52 113.77 402.91 113.93 393.31 114.65 383.74 115.42 374.17 116.7 364.84 118.45 355.78 120.21 346.71 122.4 337.91 125.01 329.4 127.57 320.9 130.51 312.69 133.81 304.8 137.02 296.92 140.56 289.37 144.41 282.16 148.16 274.96 152.2 268.1 156.52 261.59 160.73 255.07 165.22 248.89 169.98 243.04 174.63 237.13 179.56 231.52 184.76 226.19 189.87 220.74 195.27 215.51 200.94 210.49 206.55 205.26 212.45 200.18 218.64 195.21 224.79 189.96 231.24 184.78 237.98 179.65 244.69 174.2 251.71 168.78 259 163.42 266.29 157.76 273.86 152.17 281.69 146.72 289.53 141.07 297.63 135.64 305.95 130.52 314.29 125.38 322.85 120.67 331.62 116.5 340.4 112.54 349.37 109.26 358.52 106.75 367.67 104.64 376.99 103.42 386.47 103.15" stroke-dasharray="0 0" transform="rotate(17.4375, 400, 400)" opacity="0.20"></path><path d="M387.6 113.34C396.75 113.55 405.86 114.67 414.9 116.63 423.95 118.99 432.95 122.1 441.88 125.88 450.83 129.88 459.73 134.42 468.57 139.41 477.44 144.41 486.28 149.74 495.06 155.31 503.91 160.73 512.71 166.3 521.47 171.98 530.3 177.4 539.08 182.89 547.81 188.41 556.6 193.65 565.32 198.94 573.93 204.28 582.58 209.35 591.09 214.53 599.4 219.81 607.68 224.88 615.7 230.12 623.4 235.55 630.96 240.84 638.12 246.37 644.77 252.15 651.18 257.85 656.99 263.85 662.13 270.15 666.91 276.41 670.93 282.99 674.15 289.9 676.93 296.78 678.87 304 679.94 311.53 680.6 319.06 680.42 326.91 679.42 335.05 678.14 343.19 676.15 351.63 673.52 360.35 670.83 369.07 667.68 378.06 664.13 387.32 660.8 396.59 657.33 405.91 653.83 415.27 650.75 424.64 647.72 434.06 644.78 443.52 642.34 453.01 640 462.55 637.74 472.13 635.95 481.76 634.16 491.44 632.36 501.16 630.89 510.93 629.28 520.73 627.48 530.53 625.86 540.37 623.94 550.17 621.66 559.89 619.42 569.59 616.73 579.13 613.58 588.44 610.36 597.61 606.61 606.45 602.35 614.85 597.95 622.95 593.01 630.48 587.57 637.34 581.97 643.73 575.88 649.33 569.32 654.02 562.63 658.15 555.51 661.32 548.01 663.47 540.4 665.07 532.44 665.69 524.18 665.36 515.85 664.66 507.25 663.18 498.41 661.01 489.55 658.82 480.47 656.23 471.23 653.38 461.98 650.95 452.58 648.57 443.05 646.39 433.52 645.03 423.88 644.09 414.14 643.65 404.41 644.21 394.81 645.26 385.38 646.73 375.93 648.99 366.64 651.45 357.51 653.94 348.37 656.83 339.39 659.45 330.57 661.65 321.73 663.79 313.05 665.25 304.54 665.91 296 666.18 287.63 665.49 279.43 663.81 271.2 661.58 263.15 658.33 255.3 654.11 247.41 649.33 239.72 643.65 232.25 637.18 224.76 630.25 217.49 622.66 210.49 614.5 203.49 606.05 196.76 597.17 190.34 587.96 183.94 578.62 177.87 569.06 172.16 559.35 166.51 549.63 161.24 539.82 156.39 529.99 151.62 520.19 147.29 510.4 143.43 500.64 139.68 490.94 136.41 481.27 133.65 471.66 131 462.09 128.87 452.57 127.27 443.09 125.78 433.65 124.82 424.24 124.4 414.88 124.07 405.53 124.27 396.22 125.02 386.96 125.81 377.7 127.09 368.71 128.84 359.99 130.58 351.27 132.76 342.83 135.32 334.69 137.84 326.54 140.74 318.69 143.97 311.16 147.11 303.62 150.59 296.4 154.35 289.51 158.02 282.61 161.97 276.02 166.19 269.77 170.3 263.48 174.68 257.49 179.31 251.8 183.84 246.03 188.64 240.52 193.69 235.26 198.65 229.85 203.88 224.64 209.37 219.61 214.79 214.36 220.49 209.23 226.46 204.2 232.38 198.9 238.58 193.66 245.06 188.47 251.51 182.98 258.24 177.54 265.23 172.16 272.21 166.52 279.47 160.98 286.97 155.58 294.47 150.03 302.22 144.72 310.2 139.72 318.19 134.73 326.4 130.17 334.81 126.15 343.23 122.34 351.85 119.19 360.65 116.79 369.46 114.77 378.44 113.6 387.59 113.34" stroke-dasharray="0 0" transform="rotate(20.34375, 400, 400)" opacity="0.91"></path><path d="M389.1 123.54C397.93 123.73 406.74 124.8 415.49 126.67 424.26 128.92 432.99 131.89 441.66 135.52 450.36 139.36 459.03 143.74 467.64 148.56 476.29 153.43 484.9 158.62 493.47 164.07 502.08 169.41 510.67 174.92 519.19 180.55 527.78 185.96 536.31 191.45 544.76 196.99 553.26 202.27 561.68 207.6 569.96 212.99 578.25 218.12 586.38 223.34 594.29 228.66 602.15 233.76 609.73 239.01 616.97 244.42 624.07 249.67 630.74 255.13 636.92 260.82 642.85 266.41 648.21 272.26 652.91 278.38 657.28 284.44 660.93 290.8 663.82 297.45 666.32 304.08 668.03 311.01 668.93 318.25 669.47 325.47 669.24 332.99 668.24 340.81 667.01 348.63 665.12 356.73 662.63 365.13 660.1 373.51 657.12 382.19 653.76 391.14 650.6 400.1 647.29 409.13 643.93 418.21 640.94 427.3 637.97 436.46 635.06 445.66 632.6 454.89 630.21 464.18 627.88 473.51 625.98 482.87 624.08 492.27 622.15 501.69 620.54 511.15 618.82 520.61 616.92 530.04 615.21 539.47 613.24 548.83 610.96 558.06 608.73 567.24 606.11 576.22 603.08 584.92 600 593.46 596.46 601.62 592.44 609.32 588.33 616.72 583.72 623.53 578.63 629.67 573.42 635.38 567.74 640.31 561.62 644.38 555.39 647.94 548.74 650.61 541.71 652.35 534.58 653.61 527.11 653.98 519.33 653.51 511.49 652.74 503.36 651.28 494.99 649.23 486.59 647.19 477.97 644.8 469.17 642.2 460.35 640 451.36 637.86 442.23 635.9 433.11 634.69 423.85 633.85 414.48 633.45 405.11 633.96 395.86 634.91 386.75 636.22 377.63 638.27 368.64 640.48 359.79 642.74 350.94 645.39 342.23 647.8 333.66 649.85 325.09 651.9 316.65 653.34 308.38 654.08 300.09 654.5 291.94 654.06 283.98 652.74 275.98 650.93 268.16 648.18 260.52 644.54 252.86 640.38 245.4 635.37 238.15 629.59 230.9 623.38 223.87 616.5 217.09 609.05 210.32 601.29 203.82 593.08 197.63 584.5 191.46 575.76 185.62 566.76 180.13 557.56 174.7 548.31 169.65 538.94 165 529.5 160.43 520.07 156.3 510.61 152.61 501.17 149.03 491.75 145.92 482.36 143.3 473.01 140.79 463.69 138.77 454.42 137.28 445.2 135.89 436.01 135.01 426.86 134.65 417.77 134.38 408.7 134.62 399.68 135.38 390.73 136.19 381.78 137.48 373.11 139.21 364.72 140.94 356.33 143.08 348.22 145.61 340.41 148.09 332.59 150.92 325.06 154.09 317.84 157.18 310.61 160.57 303.67 164.26 297.05 167.84 290.4 171.7 284.05 175.82 278 179.84 271.89 184.11 266.05 188.63 260.48 193.04 254.82 197.7 249.38 202.61 244.15 207.43 238.77 212.5 233.56 217.82 228.49 223.06 223.22 228.57 218.04 234.33 212.95 240.04 207.61 246.01 202.32 252.24 197.08 258.44 191.58 264.9 186.13 271.61 180.76 278.31 175.16 285.26 169.68 292.45 164.37 299.64 158.93 307.06 153.74 314.72 148.88 322.36 144.05 330.24 139.66 338.31 135.79 346.39 132.13 354.67 129.12 363.14 126.83 371.61 124.9 380.26 123.79 389.09 123.54" stroke-dasharray="0 0" transform="rotate(23.25, 400, 400)" opacity="0.83"></path><path d="M390.93 133.74C399.45 133.92 407.95 134.93 416.42 136.71 424.89 138.85 433.35 141.68 441.76 145.15 450.2 148.83 458.61 153.04 466.97 157.69 475.37 162.4 483.74 167.44 492.06 172.76 500.42 177.99 508.75 183.42 517.01 188.98 525.31 194.35 533.55 199.82 541.7 205.36 549.88 210.66 557.95 216.02 565.87 221.44 573.78 226.62 581.51 231.88 589 237.23 596.42 242.37 603.55 247.63 610.32 253.03 616.95 258.28 623.15 263.7 628.86 269.32 634.33 274.82 639.24 280.56 643.53 286.54 647.51 292.45 650.82 298.62 653.4 305.06 655.64 311.47 657.14 318.16 657.89 325.13 658.33 332.08 658.05 339.32 657.07 346.85 655.89 354.36 654.1 362.17 651.75 370.25 649.37 378.33 646.56 386.69 643.39 395.34 640.4 403.98 637.25 412.71 634.02 421.5 631.13 430.3 628.23 439.16 625.36 448.08 622.89 457.02 620.47 466 618.09 475.02 616.09 484.07 614.09 493.14 612.05 502.2 610.32 511.28 608.48 520.34 606.5 529.33 604.7 538.29 602.67 547.16 600.37 555.86 598.14 564.46 595.57 572.84 592.63 580.91 589.67 588.79 586.29 596.27 582.49 603.27 578.62 609.97 574.29 616.08 569.53 621.54 564.67 626.59 559.37 630.9 553.65 634.4 547.84 637.45 541.62 639.68 535.04 641.05 528.38 642.02 521.37 642.21 514.05 641.63 506.68 640.82 499.02 639.41 491.11 637.48 483.16 635.6 474.99 633.42 466.62 631.06 458.24 629.1 449.67 627.18 440.96 625.42 432.23 624.36 423.36 623.62 414.37 623.25 405.38 623.72 396.49 624.56 387.7 625.72 378.92 627.57 370.25 629.56 361.7 631.58 353.15 633.99 344.72 636.2 336.43 638.09 328.13 640.03 319.95 641.43 311.93 642.21 303.9 642.74 296.01 642.51 288.28 641.48 280.54 640.04 272.95 637.75 265.56 634.62 258.15 631.04 250.93 626.66 243.92 621.54 236.91 616.01 230.12 609.83 223.59 603.07 217.07 596.01 210.81 588.48 204.85 580.55 198.93 572.45 193.33 564.04 188.06 555.4 182.87 546.68 178.03 537.8 173.59 528.82 169.24 519.82 165.3 510.76 161.79 501.68 158.39 492.62 155.44 483.55 152.96 474.52 150.59 465.5 148.7 456.52 147.3 447.59 146.01 438.69 145.21 429.82 144.91 421.03 144.7 412.25 144.97 403.53 145.75 394.89 146.58 386.25 147.86 377.89 149.57 369.82 151.28 361.74 153.39 353.94 155.87 346.42 158.3 338.9 161.08 331.66 164.18 324.72 167.2 317.75 170.52 311.07 174.12 304.67 177.63 298.23 181.4 292.07 185.42 286.18 189.34 280.21 193.5 274.5 197.9 269.01 202.2 263.42 206.74 258.02 211.51 252.81 216.2 247.44 221.12 242.21 226.27 237.11 231.35 231.81 236.68 226.59 242.24 221.45 247.75 216.07 253.51 210.75 259.51 205.49 265.47 199.99 271.68 194.56 278.12 189.21 284.55 183.68 291.22 178.28 298.11 173.07 305 167.76 312.12 162.72 319.46 158.01 326.79 153.35 334.34 149.12 342.09 145.42 349.84 141.92 357.79 139.04 365.94 136.87 374.08 135.03 382.41 133.97 390.93 133.74" stroke-dasharray="0 0" transform="rotate(26.15625, 400, 400)" opacity="0.63"></path><path d="M393.04 143.94C401.24 144.11 409.44 145.06 417.62 146.75 425.8 148.78 433.97 151.47 442.11 154.77 450.26 158.29 458.4 162.31 466.5 166.78 474.62 171.32 482.72 176.21 490.77 181.37 498.85 186.48 506.88 191.8 514.84 197.26 522.84 202.58 530.76 208 538.57 213.51 546.39 218.81 554.09 224.19 561.62 229.62 569.13 234.84 576.43 240.13 583.48 245.5 590.45 250.67 597.12 255.95 603.43 261.35 609.59 266.6 615.33 272 620.58 277.56 625.61 283.01 630.1 288.67 634 294.53 637.61 300.32 640.59 306.34 642.89 312.61 644.89 318.83 646.21 325.31 646.83 332.05 647.18 338.76 646.87 345.75 645.92 353.01 644.79 360.25 643.1 367.76 640.89 375.55 638.65 383.33 636.01 391.39 633.02 399.73 630.2 408.06 627.2 416.48 624.11 424.95 621.32 433.44 618.5 441.99 615.68 450.58 613.22 459.19 610.78 467.84 608.35 476.5 606.28 485.18 604.19 493.86 602.07 502.52 600.23 511.17 598.29 519.77 596.22 528.27 594.33 536.73 592.24 545.04 589.91 553.16 587.67 561.17 585.13 568.92 582.26 576.33 579.4 583.55 576.16 590.35 572.54 596.66 568.87 602.68 564.79 608.13 560.32 612.94 555.76 617.38 550.8 621.12 545.45 624.1 540.02 626.7 534.21 628.54 528.05 629.61 521.82 630.34 515.25 630.37 508.38 629.73 501.45 628.92 494.24 627.58 486.78 625.78 479.29 624.07 471.56 622.1 463.62 619.97 455.67 618.23 447.53 616.53 439.22 614.96 430.9 614.03 422.43 613.38 413.83 613.05 405.23 613.48 396.69 614.23 388.26 615.25 379.82 616.9 371.47 618.67 363.24 620.48 355 622.65 346.87 624.65 338.86 626.38 330.85 628.19 322.96 629.52 315.21 630.31 307.45 630.92 299.82 630.85 292.35 630.07 284.88 628.95 277.56 627.05 270.41 624.39 263.27 621.33 256.31 617.52 249.55 613.01 242.81 608.14 236.28 602.63 229.99 596.55 223.74 590.18 217.74 583.32 212.03 576.06 206.36 568.6 201 560.82 195.97 552.78 191.02 544.63 186.41 536.29 182.18 527.81 178.05 519.3 174.3 510.68 170.98 502.03 167.76 493.37 164.97 484.68 162.64 476.01 160.41 467.34 158.64 458.69 157.34 450.09 156.15 441.5 155.42 432.96 155.18 424.48 155.02 416.01 155.33 407.6 156.12 399.27 156.96 390.94 158.23 382.89 159.92 375.11 161.61 367.32 163.68 359.81 166.1 352.58 168.49 345.33 171.21 338.35 174.23 331.64 177.19 324.91 180.43 318.44 183.94 312.23 187.36 305.98 191.05 299.97 194.97 294.2 198.79 288.35 202.85 282.72 207.14 277.29 211.33 271.76 215.75 266.39 220.38 261.17 224.93 255.81 229.71 250.56 234.71 245.43 239.63 240.1 244.79 234.85 250.16 229.67 255.48 224.28 261.04 218.94 266.82 213.68 272.55 208.21 278.53 202.81 284.72 197.53 290.89 192.09 297.3 186.79 303.92 181.7 310.52 176.54 317.35 171.65 324.39 167.11 331.41 162.63 338.65 158.58 346.1 155.04 353.53 151.7 361.17 148.97 368.99 146.9 376.82 145.16 384.83 144.16 393.03 143.94" stroke-dasharray="0 0" transform="rotate(29.0625, 400, 400)" opacity="0.57"></path><path d="M395.37 154.14C403.25 154.29 411.14 155.19 419.02 156.79 426.9 158.7 434.77 161.25 442.62 164.39 450.49 167.73 458.33 171.58 466.14 175.85 473.97 180.21 481.77 184.92 489.51 189.92 497.28 194.88 505 200.07 512.64 205.42 520.29 210.65 527.86 216.01 535.3 221.46 542.74 226.73 550.05 232.09 557.17 237.51 564.25 242.75 571.12 248.05 577.73 253.43 584.24 258.63 590.45 263.93 596.3 269.32 602 274.57 607.28 279.95 612.1 285.48 616.7 290.89 620.79 296.48 624.32 302.25 627.59 307.94 630.26 313.84 632.31 319.96 634.09 326.02 635.24 332.32 635.75 338.85 636.03 345.36 635.7 352.11 634.77 359.12 633.7 366.1 632.11 373.35 630.03 380.85 627.94 388.35 625.47 396.11 622.66 404.13 619.99 412.14 617.15 420.24 614.2 428.38 611.51 436.54 608.77 444.74 606.01 452.98 603.58 461.22 601.13 469.5 598.68 477.77 596.56 486.03 594.4 494.29 592.2 502.49 590.27 510.67 588.23 518.77 586.08 526.74 584.12 534.65 581.97 542.39 579.61 549.9 577.35 557.3 574.82 564.4 572 571.16 569.21 577.71 566.08 583.85 562.62 589.5 559.12 594.87 555.26 599.69 551.04 603.89 544.43 609.38 529.28 616.47 520.79 618.03 514.96 618.58 508.8 618.5 502.35 617.82 495.86 617.03 489.08 615.78 482.05 614.13 474.99 612.6 467.7 610.83 460.19 608.94 452.66 607.4 444.94 605.91 437.05 604.52 429.14 603.72 421.08 603.15 412.86 602.86 404.65 603.25 396.49 603.9 388.41 604.79 380.33 606.26 372.32 607.83 364.41 609.42 356.5 611.37 348.69 613.16 340.98 614.72 333.28 616.38 325.68 617.64 318.22 618.41 310.75 619.06 303.41 619.11 296.21 618.53 289.02 617.67 281.98 616.11 275.11 613.86 268.24 611.27 261.56 607.98 255.07 604.04 248.6 599.77 242.35 594.89 236.33 589.46 230.35 583.76 224.61 577.57 219.16 570.96 213.76 564.17 208.65 557.02 203.87 549.59 199.16 542.04 194.79 534.28 190.78 526.34 186.86 518.35 183.32 510.23 180.18 502.04 177.15 493.83 174.52 485.57 172.33 477.3 170.24 469.03 168.59 460.75 167.4 452.51 166.3 444.27 165.65 436.07 165.46 427.92 165.35 419.78 165.69 411.69 166.49 403.68 167.33 395.66 168.6 387.91 170.25 380.42 171.92 372.92 173.94 365.68 176.31 358.7 178.65 351.71 181.3 344.96 184.24 338.47 187.13 331.94 190.29 325.66 193.71 319.61 197.05 313.51 200.64 307.63 204.46 301.96 208.19 296.21 212.15 290.65 216.32 285.26 220.4 279.76 224.7 274.41 229.21 269.2 233.63 263.83 238.27 258.57 243.11 253.41 247.88 248.07 252.87 242.81 258.07 237.61 263.21 232.23 268.57 226.91 274.15 221.66 279.67 216.24 285.42 210.91 291.38 205.71 297.31 200.38 303.46 195.21 309.82 190.25 316.15 185.26 322.7 180.55 329.45 176.18 336.19 171.89 343.13 168.02 350.28 164.65 357.41 161.48 364.73 158.89 372.25 156.94 379.76 155.29 387.47 154.34 395.36 154.14" stroke-dasharray="0 0" transform="rotate(31.96875, 400, 400)" opacity="0.37"></path><path d="M397.83 164.34C405.4 164.48 412.98 165.32 420.55 166.83 428.12 168.63 435.68 171.04 443.23 174 450.78 177.17 458.32 180.82 465.82 184.9 473.33 189.07 480.81 193.59 488.23 198.4 495.66 203.2 503.03 208.23 510.32 213.45 517.61 218.57 524.8 223.83 531.85 229.2 538.9 234.42 545.78 239.74 552.48 245.12 559.13 250.35 565.55 255.64 571.71 261.01 577.77 266.22 583.52 271.52 588.91 276.9 594.16 282.15 599.01 287.52 603.4 293.01 607.6 298.39 611.31 303.92 614.49 309.6 617.45 315.21 619.84 321.01 621.66 326.99 623.24 332.91 624.24 339.05 624.66 345.4 624.87 351.71 624.53 358.25 623.64 365.02 622.63 371.77 621.13 378.76 619.19 385.98 617.24 393.2 614.93 400.66 612.29 408.35 609.78 416.05 607.09 423.81 604.28 431.6 601.71 439.4 599.05 447.24 596.36 455.09 593.96 462.95 591.52 470.81 589.07 478.65 586.9 486.47 584.69 494.26 582.44 501.97 580.42 509.64 578.32 517.21 576.1 524.62 574.06 531.97 571.86 539.11 569.46 546.01 567.18 552.78 564.66 559.25 561.88 565.35 559.14 571.26 556.11 576.76 552.77 581.77 547.59 588.65 535.51 599.17 528.6 602.68 521.28 605.14 504.98 606.68 496.04 605.93 489.95 605.18 483.59 604.04 476.97 602.54 470.33 601.18 463.46 599.62 456.37 597.94 449.26 596.61 441.96 595.31 434.47 594.09 426.98 593.41 419.32 592.92 411.5 592.66 403.69 593.01 395.91 593.59 388.19 594.35 380.48 595.64 372.83 597.02 365.26 598.41 357.69 600.13 350.2 601.73 342.81 603.12 335.43 604.63 328.15 605.78 320.98 606.52 313.82 607.18 306.78 607.31 299.88 606.88 292.99 606.24 286.24 604.96 279.66 603.07 273.09 600.89 266.69 598.07 260.49 594.64 254.32 590.93 248.35 586.64 242.61 581.82 236.91 576.75 231.45 571.21 226.27 565.24 221.14 559.09 216.3 552.59 211.76 545.78 207.3 538.85 203.17 531.67 199.39 524.3 195.69 516.86 192.35 509.27 189.4 501.58 186.55 493.86 184.09 486.06 182.05 478.23 180.1 470.38 178.57 462.52 177.47 454.66 176.46 446.81 175.88 438.97 175.75 431.17 175.68 423.38 176.05 415.62 176.85 407.93 177.7 400.24 178.95 392.78 180.58 385.58 182.21 378.36 184.19 371.38 186.49 364.64 188.77 357.88 191.36 351.35 194.22 345.05 197.03 338.71 200.11 332.59 203.44 326.68 206.69 320.72 210.18 314.95 213.9 309.36 217.53 303.7 221.38 298.19 225.43 292.84 229.41 287.38 233.59 282.05 237.96 276.84 242.26 271.48 246.76 266.22 251.46 261.05 256.09 255.72 260.92 250.45 265.94 245.27 270.91 239.91 276.09 234.63 281.46 229.44 286.79 224.1 292.32 218.86 298.06 213.76 303.76 208.56 309.66 203.54 315.77 198.75 321.85 193.94 328.13 189.41 334.61 185.23 341.07 181.14 347.72 177.46 354.57 174.26 361.41 171.26 368.44 168.82 375.65 166.97 382.85 165.42 390.25 164.53 397.82 164.34" stroke-dasharray="0 0" transform="rotate(34.875, 400, 400)" opacity="0.87"></path><path d="M400.36 174.53C407.61 174.66 414.87 175.46 422.12 176.87 429.37 178.56 436.62 180.82 443.84 183.61 451.07 186.61 458.28 190.06 465.45 193.93 472.63 197.9 479.76 202.22 486.83 206.83 493.91 211.45 500.92 216.31 507.82 221.36 514.73 226.34 521.52 231.48 528.17 236.74 534.8 241.88 541.26 247.12 547.52 252.45 553.73 257.63 559.71 262.9 565.41 268.23 571.02 273.43 576.32 278.7 581.27 284.06 586.09 289.3 590.51 294.64 594.5 300.08 598.32 305.43 601.68 310.9 604.54 316.51 607.2 322.04 609.34 327.73 610.94 333.59 612.35 339.39 613.22 345.38 613.55 351.55 613.71 357.69 613.36 364.03 612.51 370.56 611.57 377.09 610.17 383.82 608.36 390.76 606.55 397.7 604.39 404.86 601.92 412.22 599.57 419.59 597.03 427 594.36 434.43 591.9 441.86 589.34 449.31 586.73 456.75 584.37 464.19 581.96 471.62 579.51 478.99 577.32 486.35 575.08 493.65 572.78 500.84 570.71 507.98 568.54 515 566.27 521.84 564.16 528.6 561.91 535.15 559.49 541.43 557.18 547.58 554.66 553.42 551.91 558.9 547.74 566.64 538.05 579.56 532.48 584.56 526.57 588.65 513.18 593.67 505.7 594.62 497.88 594.81 480.8 592.87 471.6 591.02 465.37 589.83 458.9 588.47 452.22 587 445.52 585.86 438.62 584.74 431.55 583.69 424.46 583.11 417.21 582.69 409.79 582.46 402.38 582.78 394.99 583.28 387.65 583.93 380.31 585.06 373.02 586.25 365.8 587.44 358.58 588.96 351.44 590.36 344.39 591.58 337.34 592.93 330.38 593.97 323.54 594.65 316.7 595.29 309.98 595.47 303.39 595.16 296.81 594.68 290.37 593.64 284.1 592.04 277.84 590.22 271.74 587.81 265.84 584.85 259.97 581.64 254.3 577.89 248.85 573.64 243.44 569.16 238.28 564.23 233.37 558.88 228.52 553.36 223.94 547.48 219.67 541.29 215.46 534.97 211.57 528.39 208.01 521.6 204.54 514.73 201.41 507.69 198.65 500.53 195.98 493.32 193.69 486.01 191.79 478.64 189.98 471.25 188.57 463.82 187.57 456.38 186.65 448.93 186.14 441.48 186.05 434.05 186.03 426.62 186.41 419.21 187.22 411.85 188.07 404.48 189.3 397.33 190.89 390.4 192.48 383.47 194.41 376.74 196.65 370.23 198.87 363.7 201.38 357.37 204.16 351.25 206.89 345.09 209.89 339.13 213.11 333.34 216.28 327.51 219.67 321.84 223.27 316.33 226.8 310.74 230.55 305.3 234.48 299.98 238.34 294.57 242.4 289.26 246.65 284.06 250.82 278.73 255.18 273.48 259.73 268.32 264.22 263.02 268.89 257.79 273.75 252.63 278.55 247.34 283.55 242.13 288.73 237.01 293.86 231.78 299.19 226.66 304.71 221.69 310.19 216.65 315.86 211.8 321.72 207.18 327.55 202.57 333.58 198.24 339.79 194.26 345.98 190.37 352.36 186.89 358.92 183.87 365.47 181.04 372.2 178.74 379.11 177.01 386.01 175.55 393.09 174.71 400.35 174.53" stroke-dasharray="0 0" transform="rotate(37.78125, 400, 400)" opacity="0.62"></path><path d="M402.88 184.73C409.81 184.85 416.74 185.59 423.67 186.91 430.59 188.49 437.51 190.61 444.39 193.23 451.29 196.04 458.15 199.3 464.97 202.95 471.79 206.71 478.57 210.82 485.27 215.21 491.97 219.63 498.59 224.3 505.11 229.16 511.61 233.99 517.99 238.97 524.22 244.09 530.42 249.12 536.45 254.26 542.27 259.49 548.04 264.6 553.57 269.8 558.83 275.08 563.99 280.23 568.86 285.47 573.38 290.78 577.78 295.98 581.8 301.27 585.42 306.66 588.87 311.96 591.9 317.36 594.46 322.89 596.85 328.34 598.76 333.93 600.17 339.66 601.42 345.34 602.18 351.18 602.44 357.18 602.56 363.15 602.21 369.29 601.41 375.6 600.53 381.9 599.23 388.38 597.55 395.04 595.87 401.7 593.86 408.55 591.55 415.58 589.35 422.61 586.96 429.66 584.43 436.71 582.09 443.76 579.63 450.8 577.11 457.81 574.8 464.82 572.43 471.79 570.01 478.68 567.81 485.55 565.55 492.34 563.23 498.99 561.11 505.61 558.9 512.06 556.59 518.33 554.44 524.51 552.14 530.46 549.7 536.14 546.11 544.32 538.02 558.69 533.44 564.73 528.64 570.03 517.69 577.87 511.52 580.37 505.04 582.09 490.67 582.94 482.8 582.24 477.45 581.64 471.84 580.73 466.01 579.56 460.16 578.55 454.08 577.38 447.79 576.12 441.5 575.15 435 574.2 428.33 573.29 421.65 572.82 414.79 572.47 407.78 572.26 400.77 572.55 393.77 572.98 386.81 573.52 379.85 574.5 372.94 575.52 366.08 576.53 359.23 577.85 352.44 579.06 345.73 580.1 339.03 581.29 332.42 582.21 325.91 582.82 319.41 583.42 313.02 583.62 306.76 583.38 300.51 583.03 294.4 582.18 288.44 580.83 282.5 579.3 276.73 577.25 271.14 574.7 265.58 571.93 260.21 568.67 255.07 564.94 249.97 561.01 245.09 556.65 240.47 551.89 235.9 546.96 231.6 541.68 227.58 536.09 223.64 530.37 219.99 524.39 216.66 518.17 213.41 511.88 210.49 505.4 207.92 498.77 205.44 492.09 203.31 485.29 201.55 478.4 199.88 471.5 198.58 464.52 197.68 457.51 196.85 450.49 196.4 443.44 196.36 436.39 196.38 429.34 196.78 422.29 197.59 415.26 198.43 408.24 199.64 401.39 201.19 394.74 202.74 388.09 204.61 381.61 206.78 375.33 208.93 369.02 211.37 362.9 214.06 356.95 216.71 350.96 219.6 345.14 222.73 339.48 225.79 333.77 229.08 328.2 232.57 322.77 236 317.27 239.63 311.89 243.44 306.62 247.19 301.27 251.12 296 255.23 290.83 259.28 285.55 263.5 280.34 267.9 275.22 272.24 269.98 276.76 264.81 281.45 259.72 286.09 254.52 290.91 249.4 295.9 244.39 300.85 239.29 305.98 234.32 311.28 229.51 316.55 224.66 322 219.99 327.62 215.57 333.22 211.17 338.99 207.05 344.94 203.28 350.87 199.6 356.98 196.32 363.25 193.48 369.52 190.82 375.96 188.66 382.56 187.05 389.16 185.68 395.93 184.9 402.87 184.73" stroke-dasharray="0 0" transform="rotate(40.6875, 400, 400)" opacity="0.60"></path><path d="M405.31 194.93C411.91 195.04 418.51 195.72 425.1 196.95 431.69 198.42 438.26 200.39 444.79 202.84 451.34 205.47 457.84 208.53 464.3 211.96 470.75 215.51 477.15 219.39 483.46 223.55 489.78 227.76 496 232.22 502.11 236.87 508.2 241.51 514.16 246.32 519.96 251.27 525.73 256.16 531.32 261.16 536.71 266.26 542.03 271.28 547.12 276.38 551.94 281.56 556.68 286.64 561.12 291.81 565.23 297.04 569.23 302.18 572.88 307.41 576.14 312.72 579.26 317.95 581.98 323.27 584.27 328.7 587.26 336.8 590.79 353.54 591.32 362.2 591.41 367.99 591.08 373.93 590.32 380.01 589.5 386.08 588.3 392.31 586.74 398.69 585.19 405.06 583.33 411.59 581.19 418.28 579.13 424.96 576.89 431.64 574.5 438.29 572.27 444.94 569.93 451.57 567.49 458.14 565.25 464.7 562.93 471.2 560.55 477.6 558.36 483.98 556.11 490.25 553.78 496.37 551.63 502.44 549.39 508.34 547.06 514.03 543.71 522.34 536.49 537.45 532.53 544.11 528.48 550.19 519.37 560.09 514.25 563.82 508.89 566.85 496.91 570.42 490.29 571.01 483.39 571.1 468.36 569.57 460.26 568.18 454.77 567.33 449.07 566.35 443.17 565.27 437.26 564.48 431.16 563.68 424.88 562.92 418.59 562.53 412.14 562.25 405.53 562.06 398.92 562.32 392.32 562.68 385.75 563.13 379.18 563.97 372.64 564.82 366.16 565.67 359.68 566.8 353.26 567.82 346.91 568.7 340.57 569.73 334.31 570.52 328.15 571.04 322 571.58 315.96 571.77 310.04 571.57 301.24 570.95 284.4 567.3 276.41 564.22 271.18 561.85 266.13 559.02 261.29 555.75 256.5 552.32 251.92 548.48 247.59 544.26 243.31 539.9 239.29 535.19 235.54 530.16 231.85 525.03 228.45 519.62 225.35 513.98 222.32 508.25 219.61 502.33 217.23 496.23 214.93 490.09 212.96 483.8 211.35 477.41 209.81 470.99 208.63 464.49 207.81 457.92 207.07 451.34 206.69 444.71 206.68 438.05 206.74 431.4 207.16 424.72 207.96 418.04 208.79 411.35 209.97 404.83 211.47 398.46 212.98 392.09 214.79 385.87 216.89 379.81 218.97 373.74 221.32 367.81 223.91 362.04 226.47 356.23 229.27 350.56 232.28 345.03 235.25 339.46 238.43 334 241.8 328.66 245.12 323.26 248.62 317.95 252.31 312.75 255.94 307.47 259.74 302.27 263.72 297.15 267.63 291.95 271.72 286.81 275.97 281.76 280.16 276.6 284.52 271.53 289.05 266.54 293.52 261.46 298.17 256.47 302.97 251.6 307.73 246.67 312.66 241.87 317.75 237.24 322.81 232.58 328.04 228.13 333.43 223.92 338.79 219.74 344.32 215.85 350.01 212.28 355.68 208.83 361.52 205.74 367.51 203.09 373.5 200.6 379.64 198.59 385.94 197.08 392.24 195.81 398.69 195.08 405.3 194.93" stroke-dasharray="0 0" transform="rotate(43.59375, 400, 400)" opacity="0.68"></path><path d="M407.57 205.13C413.84 205.23 420.11 205.86 426.34 207 432.58 208.35 438.8 210.19 444.98 212.46 451.15 214.91 457.29 217.76 463.37 220.97 469.44 224.29 475.45 227.94 481.37 231.87 493.18 239.86 504.58 248.76 515.37 258.29 526 267.67 535.88 277.52 544.76 287.69 553.32 297.56 560.7 307.76 566.69 318.24 572.18 328.44 576.17 339.02 578.49 349.96 579.76 358.13 580.11 374.99 579.25 383.7 578.49 389.53 577.39 395.5 575.95 401.58 574.53 407.66 572.81 413.87 570.82 420.2 568.91 426.53 566.81 432.83 564.57 439.08 562.46 445.33 560.22 451.52 557.89 457.64 555.72 463.75 553.47 469.77 551.14 475.68 548.98 481.56 546.74 487.32 544.42 492.91 540.27 503.95 535.7 514.21 530.68 523.4 526.06 532.21 520.78 539.75 514.79 545.79 508.95 551.29 502.24 555.21 494.66 557.45 487.08 559.3 478.57 559.69 469.19 558.76 462.02 558.04 446.62 555.79 438.42 554.49 432.88 553.85 427.16 553.2 421.27 552.55 415.38 552.26 409.32 552.02 403.12 551.86 396.91 552.09 390.7 552.39 384.52 552.76 378.34 553.46 372.19 554.17 366.09 554.86 359.99 555.8 353.94 556.65 347.97 557.37 342 558.24 336.11 558.9 330.31 559.32 318.75 560.26 307.59 559.85 296.99 557.97 286.5 555.68 276.63 551.7 267.54 546.13 258.62 540.02 250.56 532.4 243.53 523.53 236.74 514.27 231.04 503.96 226.58 492.87 224.45 487.26 222.65 481.48 221.17 475.59 219.76 469.66 218.69 463.63 217.97 457.51 217.3 451.38 216.98 445.18 217.02 438.93 217.1 432.67 217.53 426.37 218.32 420.05 219.15 413.72 220.29 407.51 221.74 401.44 223.2 395.36 224.95 389.4 226.96 383.58 228.97 377.75 231.23 372.03 233.72 366.44 236.19 360.82 238.88 355.32 241.78 349.93 247.45 339.03 253.93 328.49 261.08 318.34 268.03 307.91 275.66 297.76 283.9 287.94 291.94 277.81 300.63 267.99 309.89 258.65 319.01 249.13 328.76 240.24 339.09 232.23 344.22 228.29 349.5 224.63 354.94 221.29 360.35 218.05 365.92 215.17 371.63 212.7 377.33 210.39 383.18 208.52 389.17 207.12 395.16 205.94 401.29 205.27 407.56 205.13" stroke-dasharray="0 0" transform="rotate(46.5, 400, 400)" opacity="0.99"></path><path d="M409.61 215.33C421.47 215.71 433.27 218.05 444.87 222.09 456.49 226.76 467.89 232.88 478.93 240.16 489.92 247.69 500.48 256.11 510.41 265.18 520.2 274.17 529.23 283.66 537.29 293.49 545.06 303.09 551.72 313.03 557.07 323.22 562.01 333.19 565.56 343.49 567.6 354.08 569.24 364.54 569.44 375.39 568.19 386.6 566.79 397.76 564.19 409.34 560.45 421.27 557 433.2 552.87 444.91 548.3 456.26 544.27 467.56 539.87 478.41 535.16 488.6 531.01 498.63 526.44 507.84 521.46 516.01 516.84 523.85 511.63 530.48 505.79 535.73 500.12 540.55 493.67 543.95 486.46 545.86 479.26 547.52 471.24 547.9 462.43 547.14 453.58 546.62 443.95 545.42 433.62 543.75 423.26 543.01 412.22 542.28 400.6 541.67 388.99 542.41 377.38 543.26 365.94 544.1 354.52 545.86 343.3 547.13 332.42 547.68 321.6 548.46 311.17 548.07 301.27 546.4 291.48 544.44 282.28 541 273.83 536.12 265.55 530.81 258.08 524.12 251.58 516.22 245.3 507.99 240.05 498.73 235.96 488.66 232.13 478.43 229.49 467.54 228.14 456.22 227.02 444.86 227.18 433.14 228.69 421.21 230.33 409.28 233.16 397.71 237.02 386.57 240.85 375.38 245.63 364.56 251.22 354.13 256.67 343.57 262.89 333.31 269.75 323.38 276.44 313.24 283.78 303.34 291.68 293.78 299.42 283.98 307.76 274.52 316.63 265.55 325.38 256.49 334.71 248.06 344.56 240.52 354.33 233.21 364.68 227.04 375.54 222.32 386.37 218.21 397.74 215.8 409.6 215.33" stroke-dasharray="0 0" transform="rotate(49.40625, 400, 400)" opacity="0.60"></path><path d="M411.35 225.52C422.51 225.87 433.58 228 444.43 231.72 455.28 236.01 465.89 241.68 476.11 248.45 486.29 255.47 496.01 263.39 505.09 271.95 514.04 280.5 522.25 289.56 529.53 298.98 536.55 308.24 542.54 317.84 547.31 327.67 551.73 337.34 554.89 347.3 556.68 357.5 558.15 367.59 558.31 378 557.16 388.67 555.9 399.3 553.52 410.26 550.08 421.44 546.89 432.63 543.04 443.51 538.71 453.96 534.85 464.37 530.58 474.27 525.98 483.47 521.87 492.53 517.35 500.77 512.43 508 507.84 514.95 502.72 520.78 497.04 525.35 491.52 529.6 485.33 532.57 478.46 534.24 471.63 535.76 464.05 536.18 455.78 535.6 447.5 535.31 438.49 534.4 428.85 533.06 419.19 532.56 408.89 532 398.07 531.47 387.25 532.12 376.43 532.79 365.76 533.39 355.13 534.82 344.67 535.79 334.55 536.13 324.48 536.73 314.78 536.32 305.6 534.79 296.52 533.09 288 530.08 280.2 525.79 272.55 521.18 265.66 515.29 259.69 508.29 253.93 501 249.12 492.72 245.4 483.62 241.91 474.38 239.52 464.45 238.34 454.02 237.37 443.56 237.58 432.66 239.06 421.48 240.65 410.29 243.36 399.34 247.04 388.73 250.71 378.07 255.27 367.69 260.59 357.63 265.81 347.46 271.75 337.53 278.31 327.9 284.72 318.11 291.75 308.54 299.31 299.31 306.73 289.92 314.7 280.87 323.17 272.34 331.53 263.78 340.43 255.85 349.8 248.8 359.1 242 368.92 236.29 379.19 231.94 389.44 228.16 400.18 225.95 411.34 225.52" stroke-dasharray="0 0" transform="rotate(52.3125, 400, 400)" opacity="1.00"></path><path d="M412.75 235.72C423.2 236.02 433.52 237.97 443.6 241.36 453.68 245.28 463.49 250.48 472.89 256.73 482.25 263.24 491.14 270.61 499.4 278.63 507.54 286.68 514.96 295.26 521.5 304.2 527.82 313.05 533.17 322.23 537.41 331.64 541.37 340.93 544.17 350.48 545.74 360.22 547.05 369.89 547.19 379.81 546.14 389.9 545.01 399.98 542.86 410.28 539.72 420.71 536.78 431.14 533.19 441.2 529.12 450.77 525.44 460.3 521.34 469.28 516.89 477.56 512.85 485.71 508.41 493.05 503.58 499.44 499.06 505.61 494.05 510.74 488.54 514.73 483.19 518.49 477.24 521.13 470.71 522.63 464.22 524.07 457.08 524.56 449.32 524.17 441.57 524.09 433.16 523.46 424.19 522.42 415.2 522.13 405.64 521.72 395.6 521.27 385.55 521.83 375.52 522.34 365.64 522.73 355.78 523.85 346.1 524.54 336.74 524.67 327.43 525.09 318.48 524.62 310.01 523.18 301.65 521.66 293.81 519 286.65 515.21 279.63 511.18 273.33 506 267.89 499.79 262.62 493.36 258.25 485.98 254.89 477.8 251.72 469.49 249.59 460.48 248.57 450.93 247.73 441.34 247.99 431.27 249.43 420.84 250.97 410.4 253.55 400.11 257.04 390.05 260.53 379.97 264.86 370.07 269.91 360.43 274.87 350.71 280.53 341.19 286.76 331.93 292.88 322.55 299.58 313.39 306.77 304.57 313.85 295.64 321.45 287.08 329.5 279.03 337.45 271 345.9 263.62 354.77 257.08 363.58 250.8 372.87 245.55 382.55 241.57 392.21 238.11 402.3 236.1 412.75 235.72" stroke-dasharray="0 0" transform="rotate(55.21875, 400, 400)" opacity="0.51"></path><path d="M413.76 245.92C423.48 246.18 433.05 247.94 442.35 251.02 451.65 254.57 460.66 259.31 469.25 265.03 477.8 271.01 485.88 277.81 493.35 285.25 500.7 292.76 507.37 300.8 513.22 309.2 518.88 317.56 523.64 326.25 527.4 335.17 530.92 344 533.41 353.08 534.79 362.31 535.97 371.48 536.1 380.86 535.15 390.34 534.15 399.81 532.21 409.43 529.35 419.1 526.67 428.76 523.34 438 519.54 446.72 516.06 455.41 512.14 463.52 507.87 470.93 503.94 478.24 499.61 484.78 494.93 490.41 490.5 495.89 485.63 500.42 480.31 503.94 475.14 507.3 469.45 509.68 463.24 511.07 457.09 512.47 450.37 513.04 443.11 512.86 435.86 512.98 428.04 512.6 419.71 511.84 411.38 511.72 402.53 511.45 393.26 511.07 383.98 511.56 374.73 511.92 365.63 512.12 356.55 512.96 347.65 513.4 339.05 513.33 330.5 513.55 322.29 513 314.55 511.61 306.89 510.21 299.74 507.82 293.21 504.44 286.82 500.9 281.1 496.33 276.16 490.83 271.39 485.15 267.45 478.59 264.43 471.25 261.59 463.81 259.69 455.68 258.82 446.97 258.1 438.23 258.4 428.98 259.79 419.31 261.27 409.65 263.73 400.03 267.02 390.57 270.31 381.1 274.4 371.74 279.16 362.58 283.85 353.37 289.2 344.32 295.1 335.5 300.89 326.61 307.24 317.93 314.05 309.59 320.76 301.19 327.96 293.16 335.57 285.65 343.11 278.2 351.08 271.37 359.44 265.36 367.75 259.61 376.48 254.83 385.55 251.22 394.6 248.08 404.03 246.25 413.76 245.92" stroke-dasharray="0 0" transform="rotate(58.125, 400, 400)" opacity="0.39"></path><path d="M414.34 256.12C423.33 256.34 432.14 257.92 440.66 260.69 449.18 263.88 457.39 268.16 465.19 273.34 472.94 278.78 480.23 285 486.94 291.83 493.54 298.76 499.5 306.2 504.7 314.01 509.74 321.82 513.97 329.96 517.29 338.31 520.42 346.62 522.62 355.15 523.84 363.81 524.9 372.43 525.02 381.21 524.18 390.04 523.3 398.87 521.57 407.79 518.98 416.68 516.54 425.57 513.49 434.01 509.96 441.91 506.69 449.79 502.98 457.08 498.92 463.7 495.14 470.24 490.97 476.04 486.45 481.03 482.16 485.9 477.45 489.92 472.35 493.04 467.39 496.08 461.96 498.27 456.09 499.6 450.28 500.98 443.96 501.65 437.19 501.66 430.43 501.97 423.18 501.82 415.48 501.3 407.79 501.34 399.64 501.19 391.13 500.87 382.61 501.28 374.13 501.52 365.8 501.56 357.5 502.15 349.37 502.36 341.53 502.1 333.74 502.13 326.27 501.49 319.24 500.12 312.28 498.8 305.8 496.61 299.91 493.56 294.13 490.42 288.97 486.38 284.54 481.48 280.25 476.47 276.71 470.64 274.03 464.08 271.49 457.44 269.82 450.13 269.09 442.24 268.49 434.32 268.83 425.87 270.16 416.98 271.57 408.08 273.88 399.17 276.97 390.35 280.06 381.52 283.89 372.75 288.35 364.14 292.76 355.5 297.78 346.99 303.31 338.69 308.77 330.35 314.75 322.22 321.15 314.42 327.48 306.61 334.25 299.16 341.39 292.23 348.48 285.38 355.97 279.14 363.79 273.67 371.58 268.44 379.73 264.12 388.17 260.88 396.6 258.05 405.35 256.41 414.34 256.12" stroke-dasharray="0 0" transform="rotate(61.03125, 400, 400)" opacity="0.67"></path><path d="M414.49 266.32C422.73 266.51 430.77 267.9 438.52 270.38 446.26 273.21 453.69 277.03 460.71 281.69 467.68 286.58 474.21 292.2 480.19 298.4 486.08 304.72 491.38 311.53 495.97 318.7 500.44 325.9 504.18 333.42 507.09 341.15 509.87 348.87 511.82 356.79 512.89 364.81 513.85 372.83 513.97 380.96 513.23 389.11 512.47 397.26 510.93 405.45 508.61 413.57 506.41 421.68 503.63 429.34 500.38 436.46 497.34 443.55 493.86 450.09 490.03 455.98 486.43 461.81 482.45 466.97 478.14 471.39 471.77 477.53 457.36 485.92 449.26 488.24 443.8 489.63 437.9 490.4 431.61 490.59 425.33 491.06 418.64 491.12 411.56 490.81 404.49 490.98 397.04 490.94 389.26 490.68 381.49 491.02 373.77 491.15 366.22 491.05 358.67 491.42 351.31 491.42 344.22 491 337.18 490.85 330.44 490.11 324.11 488.75 317.85 487.46 312.03 485.42 306.76 482.65 299.27 478.03 287.63 464.85 283.69 456.41 281.45 450.5 279.99 443.95 279.4 436.84 278.9 429.71 279.26 422.04 280.53 413.92 281.87 405.8 284.02 397.62 286.89 389.47 289.77 381.32 293.33 373.2 297.47 365.2 301.59 357.18 306.26 349.27 311.42 341.56 316.52 333.84 322.09 326.32 328.06 319.12 333.98 311.94 340.3 305.12 346.96 298.79 353.57 292.57 360.54 286.92 367.81 282 375.05 277.3 382.6 273.44 390.4 270.55 398.19 268.02 406.25 266.57 414.49 266.32" stroke-dasharray="0 0" transform="rotate(63.9375, 400, 400)" opacity="0.13"></path><path d="M414.19 276.51C421.68 276.67 428.95 277.9 435.93 280.08 442.9 282.57 449.56 285.95 455.82 290.08 462.05 294.42 467.85 299.44 473.14 305 478.35 310.67 483.02 316.82 487.06 323.32 491 329.86 494.28 336.71 496.83 343.77 499.28 350.83 501.01 358.09 501.95 365.43 502.82 372.77 502.95 380.21 502.31 387.64 501.66 395.08 500.31 402.53 498.24 409.87 496.28 417.21 493.76 424.1 490.79 430.48 488 436.84 484.77 442.66 481.2 447.89 475.94 455.38 463.96 467.1 457.25 471.27 450.37 474.78 434.94 478.87 426.4 479.66 420.61 480.27 414.46 480.49 408 480.37 401.55 480.65 394.77 480.69 387.73 480.48 380.69 480.76 373.72 480.8 366.92 480.59 360.13 480.77 353.51 480.6 347.17 480.04 337.85 479.3 321.03 475.28 313.77 471.78 307.13 467.61 296.86 455.87 293.42 448.36 291.46 443.12 290.21 437.28 289.72 430.91 289.33 424.52 289.7 417.63 290.9 410.28 292.15 402.93 294.15 395.49 296.79 388.05 299.45 380.62 302.73 373.19 306.54 365.85 310.34 358.51 314.65 351.26 319.41 344.2 324.12 337.14 329.28 330.28 334.79 323.74 340.27 317.23 346.11 311.07 352.26 305.38 358.37 299.79 364.8 294.75 371.49 290.37 378.15 286.2 385.09 282.78 392.23 280.24 399.36 278.01 406.71 276.73 414.19 276.51" stroke-dasharray="0 0" transform="rotate(66.84375, 400, 400)" opacity="0.93"></path><path d="M413.46 286.71C420.19 286.84 426.7 287.9 432.92 289.8 439.13 291.96 445.04 294.9 450.57 298.52 456.07 302.32 461.18 306.73 465.81 311.64 470.39 316.66 474.47 322.13 477.99 327.92 481.44 333.77 484.31 339.92 486.53 346.25 488.69 352.61 490.2 359.15 491.04 365.77 491.82 372.4 491.96 379.1 491.41 385.8 490.87 392.5 489.7 399.18 487.88 405.76 486.14 412.33 483.88 418.48 481.21 424.14 477.19 432.39 467.54 446.26 462.01 451.79 456.36 456.74 443.68 463.82 436.66 466.03 429.42 467.9 413.49 469.77 404.84 469.98 399 470.34 392.89 470.44 386.57 470.28 380.25 470.51 374.02 470.47 367.96 470.18 358.97 470.04 342.15 468.3 334.53 466.47 327.33 464.29 315.14 457.24 310.33 452.29 306.18 446.75 300.99 432.86 300.08 424.61 299.77 418.93 300.15 412.78 301.26 406.2 302.43 399.63 304.25 392.94 306.66 386.24 309.09 379.54 312.08 372.84 315.55 366.21 319.02 359.59 322.95 353.05 327.29 346.69 331.6 340.34 336.3 334.19 341.34 328.33 346.35 322.53 351.69 317.05 357.29 312 362.88 307.07 368.74 302.63 374.82 298.79 380.89 295.14 387.19 292.15 393.65 289.95 400.11 288 406.73 286.89 413.46 286.71" stroke-dasharray="0 0" transform="rotate(69.75, 400, 400)" opacity="0.95"></path><path d="M412.32 296.91C424.25 297.36 435.3 300.96 444.98 307.02 454.57 313.72 462.66 322.5 468.8 332.58 474.73 342.9 478.63 354.27 480.15 365.98 481.54 377.75 480.72 389.78 477.51 401.4 474.54 413.02 469.75 423.07 463.69 431.26 458.05 439.4 451.1 445.7 443.21 449.99 435.58 454.43 426.81 457.17 417.17 458.23 407.61 460 397.04 460.64 385.82 460.08 374.6 460.76 363.82 460.22 353.97 458.54 344.19 457.55 335.48 454.86 328.34 450.46 321.39 446.19 316.15 439.89 313.08 431.74 310.25 423.55 309.63 413.49 311.63 401.87 313.79 390.24 318.27 378.2 324.51 366.43 330.73 354.7 338.64 343.32 347.72 332.97 356.73 322.86 366.93 314.03 377.84 307.27 388.73 301.14 400.39 297.45 412.32 296.91" stroke-dasharray="0 0" transform="rotate(72.65625, 400, 400)" opacity="0.92"></path><path d="M410.81 307.11C421.21 307.45 430.77 310.48 439.09 315.6 447.35 321.24 454.28 328.71 459.51 337.35 464.61 346.21 467.96 356.03 469.28 366.19 470.54 376.41 469.88 386.88 467.14 396.98 464.58 407.09 460.37 415.84 454.99 423 449.92 430.15 443.65 435.76 436.54 439.7 429.64 443.8 421.75 446.49 413.16 447.73 404.64 449.54 395.31 450.3 385.51 449.88 375.7 450.4 366.35 449.74 357.87 448 349.45 446.83 341.99 444.2 335.93 440.13 330 436.22 325.56 430.62 323.01 423.47 320.64 416.31 320.19 407.56 322 397.45 323.94 387.33 327.91 376.86 333.41 366.63 338.92 356.46 345.92 346.61 353.94 337.72 361.92 329.05 370.95 321.53 380.56 315.83 390.17 310.64 400.4 307.53 410.81 307.11" stroke-dasharray="0 0" transform="rotate(75.5625, 400, 400)" opacity="0.17"></path><path d="M408.96 317.31C417.84 317.56 425.95 320.03 432.97 324.26 439.94 328.89 445.78 335.08 450.16 342.29 454.47 349.7 457.31 357.96 458.46 366.55 459.57 375.2 459.07 384.08 456.77 392.7 454.61 401.31 450.99 408.8 446.33 414.99 441.87 421.19 436.35 426.14 430.1 429.72 423.99 433.47 417.05 436.04 409.56 437.39 402.11 439.17 394.04 439.98 385.63 439.69 377.22 440.07 369.27 439.33 362.13 437.62 355.01 436.34 348.76 433.81 343.71 430.1 338.76 426.55 335.09 421.62 333.02 415.43 331.07 409.25 330.76 401.75 332.37 393.14 334.07 384.52 337.51 375.62 342.26 366.96 347.03 358.35 353.09 350.07 360.01 342.63 366.93 335.38 374.73 329.15 383.01 324.46 391.29 320.17 400.08 317.63 408.96 317.31" stroke-dasharray="0 0" transform="rotate(78.46875, 400, 400)" opacity="0.27"></path><path d="M406.84 327.51C414.2 327.68 420.89 329.64 426.66 333.02 432.4 336.69 437.19 341.65 440.79 347.47 444.34 353.44 446.7 360.16 447.68 367.18 448.64 374.26 448.27 381.58 446.41 388.72 444.63 395.85 441.61 402.12 437.68 407.36 433.89 412.62 429.18 416.9 423.84 420.11 418.6 423.44 412.68 425.83 406.33 427.2 400.01 428.87 393.21 429.68 386.2 429.49 379.18 429.75 372.6 429.01 366.74 427.39 358.34 424.91 346.21 415.13 343.1 407.75 341.55 402.52 341.35 396.26 342.73 389.12 344.19 381.97 347.09 374.65 351.07 367.55 355.08 360.51 360.15 353.77 365.96 347.76 371.77 341.91 378.3 336.91 385.22 333.19 392.15 329.76 399.47 327.74 406.84 327.51" stroke-dasharray="0 0" transform="rotate(81.375, 400, 400)" opacity="1.00"></path><path d="M404.51 337.7C416.23 338.18 425.69 344.06 431.42 352.93 437.05 362.22 438.99 373.84 436.04 385.21 433.32 396.58 426.53 405.46 417.76 410.89 409.22 416.7 398.43 419.82 387.18 419.29 375.93 419.93 366.28 416.91 359.91 411.16 353.65 405.78 350.86 396.93 353.1 385.55 355.52 374.18 362.49 362.52 371.8 353.18 381.14 344.25 392.79 338.28 404.51 337.7" stroke-dasharray="0 0" transform="rotate(84.28125, 400, 400)" opacity="0.58"></path><path d="M402.04 347.9C410.78 348.16 417.81 352.34 422.08 358.72 426.31 365.36 427.82 373.84 425.67 382.33 423.65 390.82 418.5 397.69 411.82 402.1 405.25 406.75 397.02 409.37 388.56 409.09 380.09 409.46 372.95 406.91 368.3 402.31 363.71 397.94 361.72 391.1 363.47 382.6 365.32 374.11 370.57 365.6 377.55 358.92 384.57 352.48 393.3 348.24 402.04 347.9" stroke-dasharray="0 0" transform="rotate(87.1875, 400, 400)" opacity="0.17"></path><path d="M399.51 358.1C411.09 358.59 418.12 368.91 415.3 380.2 412.7 391.48 401.62 399.41 390.29 398.89 378.95 399.52 371.48 391.67 373.83 380.39 376.39 369.09 387.92 358.69 399.51 358.1" stroke-dasharray="0 0" transform="rotate(90.09375, 400, 400)" opacity="0.34"></path></g></svg>