<svg xmlns="http://www.w3.org/2000/svg" version="1.1" xmlns:xlink="http://www.w3.org/1999/xlink" xmlns:svgjs="http://svgjs.dev/svgjs" viewBox="0 0 800 800"><defs><linearGradient x1="50%" y1="0%" x2="50%" y2="100%" id="ccchaos-grad"><stop stop-color="hsl(265, 55%, 30%)" stop-opacity="1" offset="0%"></stop><stop stop-color="hsl(265, 55%, 60%)" stop-opacity="1" offset="100%"></stop></linearGradient></defs><g stroke-width="3" stroke="url(#ccchaos-grad)" fill="none" stroke-linecap="round"><path d="M371.14 47.43C379.48 49.65 396.06 55.14 404.33 58.25 415.38 62.31 426.47 66.56 437.67 70.83 449.07 74.48 460.77 77.97 472.9 81.28 485.44 83.87 498.63 86.35 512.56 88.79 527.07 90.75 542.43 92.92 558.57 95.41 575.13 97.81 592.21 100.81 609.49 104.48 626.4 108.42 642.73 113.21 657.85 118.86 671.29 124.98 682.47 131.99 690.76 139.85 696.29 148.18 698.4 157.29 697.04 167.06 693.37 177.2 687.18 187.89 679.37 199.01 671.97 210.36 665.35 222.04 660.89 233.94 660.41 245.95 664.13 258.11 672.61 270.36 686.02 282.64 703.38 294.98 723.38 307.34 744.4 319.69 764.2 332.07 780.55 344.44 791.91 356.8 796.54 369.17 793.7 381.52 789.8 387.7 784.22 393.87 777.14 400.04 768.99 406.2 759.85 412.36 750.04 418.5 740.11 424.64 730.3 430.69 720.97 436.65 712.49 442.61 705.06 448.47 698.87 454.23 691.21 465.72 689.82 476.78 694.33 487.34 704.34 497.83 717.44 507.77 731.53 517.09 745.39 526.29 756.24 534.84 762.65 542.68 764.46 550.38 760.56 557.39 751.37 563.71 737.89 569.96 720.85 575.62 701.63 580.77 681.46 586.09 661.55 591.11 642.92 596 626.26 601.43 612.06 607.05 600.45 613.05 591.57 620 584.96 627.62 580.11 636.03 577.1 645.61 574.87 656.06 572.85 667.31 571.4 679.48 569.35 692.12 566.37 704.92 563.12 717.79 558.62 730.11 552.82 741.39 546.5 751.55 538.93 759.86 530.24 765.9 521.13 769.93 511.09 771.3 500.28 769.95 489.26 766.67 477.66 761.11 465.59 753.67 459.53 749.69 453.38 745.44 447.15 741.02 440.91 736.68 434.59 732.33 428.21 728.05 421.82 724.09 415.44 720.41 409.07 717.05 402.7 714.19 396.33 711.75 389.98 709.74 377.26 707.5 364.55 707.07 351.83 708.26 339.05 711.39 326.22 715.42 313.33 719.86 300.36 724.89 287.32 729.32 274.26 732.69 261.2 735.28 248.19 736.11 235.35 734.99 222.73 732.4 210.45 727.72 198.69 721.09 187.44 713.06 176.91 703.4 167.28 692.42 158.36 680.59 150.42 667.92 143.54 654.71 137.27 641.3 131.91 627.75 127.35 614.27 122.94 601.03 118.97 588.05 115.26 575.4 111.1 563.17 106.86 551.29 102.43 539.73 97.26 528.56 91.87 517.63 86.34 506.86 80.34 496.37 74.53 485.92 69.14 475.44 63.9 465.12 59.48 454.67 56.06 444.05 53.24 433.49 51.58 422.69 51.08 411.64 51.14 403.33 52.57 386.37 53.81 377.72 54.68 371.94 55.67 366.16 56.73 360.39 57.71 354.62 58.73 348.86 59.77 343.13 61.41 331.67 63.03 320.33 64.61 309.15 65.62 298.04 66.78 287.16 68.23 276.57 69.62 266.11 71.72 256 74.68 246.32 78.19 236.8 82.84 227.77 88.63 219.27 95.17 210.95 102.76 203.19 111.23 196.01 120.06 188.95 129.4 182.43 139.01 176.44 148.37 170.43 157.65 164.83 166.72 159.58 175.13 154.09 183.22 148.8 191.02 143.61 198.13 137.97 205.07 132.28 211.98 126.5 218.43 120.13 225.07 113.62 232 106.98 238.78 99.83 246.02 92.67 253.77 85.62 261.57 78.38 269.93 71.51 278.82 65.22 287.83 59.2 297.34 54.06 307.28 50 317.3 46.61 327.69 44.49 338.37 43.71 346.42 43.73 362.81 45.62 371.13 47.43" stroke-dasharray="0 0" transform="rotate(0, 400, 400)" opacity="0.38"></path><path d="M373.63 57.75C384.48 60.63 395.45 64.29 406.54 68.5 417.69 72.56 429.06 76.81 440.69 81.1 452.53 84.81 464.79 88.39 477.57 91.78 490.69 94.48 504.46 97.06 518.9 99.57 533.73 101.58 549.2 103.74 565.18 106.16 581.25 108.43 597.45 111.21 613.41 114.58 628.65 118.14 642.88 122.48 655.52 127.61 666.33 133.14 674.72 139.53 680.24 146.72 683.27 154.37 683.25 162.78 680.3 171.87 675.72 181.34 669.37 191.38 662.16 201.9 656.01 212.66 651.2 223.8 648.93 235.22 650.66 246.76 656.47 258.51 666.62 270.38 681.08 282.31 698.8 294.32 718.45 306.36 738.52 318.42 756.96 330.5 771.77 342.56 781.71 354.63 785.27 366.68 781.88 378.67 772.58 390.68 757.85 402.62 739.49 414.46 720.69 426.31 703.48 437.75 689.97 448.76 681.95 459.74 679.7 470.25 682.98 480.25 691.55 490.18 703.34 499.56 716.48 508.34 729.94 517.03 741.12 525.09 748.61 532.51 752.16 539.85 750.53 546.58 743.86 552.72 732.98 558.88 718.3 564.58 700.97 569.9 682.11 575.47 662.78 580.89 644.02 586.29 626.51 592.29 610.89 598.57 597.44 605.28 586.38 612.91 577.5 621.19 570.48 630.22 565.4 640.28 561.43 651.07 558.08 662.51 555.61 674.66 553 687.09 549.87 699.5 546.8 711.8 542.8 723.41 537.75 733.87 532.39 743.17 525.89 750.63 518.31 755.89 510.42 759.25 501.54 760.11 491.81 758.45 481.88 755.04 471.23 749.53 459.98 742.31 448.66 734.57 436.82 726.18 424.54 717.74 412.25 710.5 399.84 704.44 387.35 699.87 374.86 697.46 362.27 696.72 349.61 697.5 336.93 700.12 324.16 703.65 311.33 707.65 298.51 712.32 285.65 716.54 272.83 719.91 260.13 722.69 247.57 723.94 235.29 723.44 223.33 721.65 211.83 717.93 200.94 712.36 190.61 705.46 181.07 696.94 172.46 687.06 164.52 676.28 157.53 664.55 151.53 652.14 146.01 639.41 141.28 626.38 137.21 613.27 133.15 600.25 129.38 587.37 125.76 574.71 121.58 562.37 117.24 550.31 112.65 538.54 107.31 527.11 101.74 515.91 96.04 504.9 89.91 494.15 84 483.5 78.54 472.89 73.29 462.44 68.89 451.93 65.53 441.34 62.84 430.81 61.32 420.14 60.99 409.3 61.22 398.47 62.4 387.46 64.36 376.26 66.27 365.06 68.49 353.96 70.82 342.98 72.54 332.02 74.17 321.23 75.7 310.65 76.6 300.12 77.58 289.86 78.79 279.93 79.88 270.1 81.63 260.64 84.18 251.62 87.25 242.73 91.43 234.31 96.75 226.41 102.84 218.63 110.02 211.37 118.15 204.64 126.75 197.97 135.96 191.78 145.55 186.03 155.05 180.2 164.57 174.7 173.96 169.47 182.8 163.97 191.35 158.59 199.61 153.26 207.18 147.46 214.53 141.6 221.74 135.63 228.42 129.1 235.16 122.44 242.06 115.69 248.69 108.48 255.66 101.31 263.03 94.3 270.33 87.16 278.12 80.43 286.41 74.3 294.73 68.49 303.56 63.56 312.85 59.7 322.17 56.5 331.93 54.54 342.08 53.88 352.24 53.96 362.76 55.27 373.62 57.74" stroke-dasharray="0 0" transform="rotate(2.90625, 400, 400)" opacity="0.93"></path><path d="M378.92 68.06C389.58 70.93 400.5 74.56 411.67 78.74 422.9 82.77 434.48 87.03 446.43 91.33 458.56 95.1 471.17 98.75 484.31 102.23 497.7 105.04 511.66 107.72 526.15 110.32 540.83 112.4 555.91 114.58 571.18 116.96 586.25 119.14 601.08 121.74 615.28 124.86 628.5 128.1 640.39 132.03 650.45 136.69 658.67 141.68 664.45 147.46 667.52 154.02 668.48 160.99 666.83 168.72 662.85 177.11 657.91 185.87 651.9 195.24 645.71 205.1 641.1 215.23 638.26 225.76 638.18 236.61 642.01 247.63 649.68 258.88 661.24 270.28 676.47 281.78 694.29 293.38 713.41 305.03 732.41 316.72 749.44 328.43 762.75 340.12 771.34 351.83 773.91 363.51 770.02 375.11 760.75 386.72 746.51 398.25 728.95 409.65 710.96 421.04 694.38 432.01 681.1 442.53 672.79 453.02 669.75 463.03 671.87 472.53 679.05 481.98 689.5 490.88 701.6 499.22 714.5 507.49 725.76 515.19 734.03 522.32 739.05 529.42 739.43 536.01 735.12 542.11 726.8 548.31 714.56 554.16 699.36 559.75 682.19 565.67 663.93 571.54 645.56 577.51 627.78 584.09 611.28 591.01 596.48 598.38 583.61 606.62 572.72 615.48 563.66 625 556.47 635.41 550.6 646.42 545.64 657.91 541.78 669.92 538.16 682.03 534.41 693.95 530.99 705.62 526.99 716.47 522.21 726.1 517.33 734.56 511.5 741.19 504.71 745.71 497.7 748.44 489.76 748.84 480.93 746.89 471.94 743.38 462.17 737.95 451.69 730.96 441.14 723.53 429.98 715.5 418.25 707.42 406.52 700.46 394.54 694.56 382.39 690.01 370.26 687.46 357.96 686.43 345.54 686.82 333.15 688.96 320.66 692 308.12 695.54 295.68 699.82 283.24 703.81 270.91 707.1 258.8 710 246.92 711.56 235.41 711.59 224.3 710.5 213.73 707.65 203.85 703.06 194.54 697.23 186.05 689.83 178.48 681.04 171.5 671.34 165.42 660.61 160.21 649.11 155.35 637.16 151.14 624.79 147.45 612.19 143.62 599.57 139.95 586.95 136.3 574.45 132.03 562.15 127.52 550.06 122.72 538.21 117.18 526.63 111.41 515.27 105.54 504.11 99.29 493.18 93.3 482.37 87.81 471.67 82.58 461.11 78.25 450.56 74.99 440 72.44 429.51 71.08 418.94 70.94 408.3 71.37 397.67 72.75 386.92 74.91 376.08 77.01 365.24 79.39 354.55 81.84 344.05 83.65 333.56 85.31 323.29 86.81 313.27 87.64 303.3 88.49 293.62 89.49 284.3 90.32 275.04 91.72 266.18 93.88 257.76 96.49 249.42 100.18 241.55 104.99 234.16 110.57 226.84 117.27 220 124.97 213.63 133.24 207.26 142.21 201.29 151.68 195.71 161.2 189.98 170.86 184.51 180.5 179.26 189.71 173.68 198.7 168.17 207.42 162.68 215.51 156.72 223.34 150.67 230.97 144.51 238.04 137.83 245.06 131.05 252.14 124.21 258.85 116.99 265.78 109.84 273.01 102.89 280.06 95.87 287.53 89.31 295.45 83.37 303.3 77.77 311.65 73.06 320.47 69.4 329.28 66.4 338.56 64.6 348.31 64.06 358.05 64.22 368.25 65.58 378.91 68.06" stroke-dasharray="0 0" transform="rotate(5.8125, 400, 400)" opacity="0.98"></path><path d="M386.47 78.37C396.98 81.23 407.84 84.82 419.04 88.95 430.3 92.97 441.97 97.21 454.06 101.52 466.28 105.33 478.98 109.05 492.14 112.62 505.44 115.54 519.19 118.33 533.28 121.03 547.36 123.19 561.57 125.42 575.67 127.79 589.33 129.92 602.42 132.39 614.56 135.31 625.58 138.28 635.06 141.85 642.6 146.08 648.4 150.57 651.89 155.81 652.93 161.76 652.31 168.08 649.58 175.13 645.13 182.83 640.33 190.89 635.09 199.55 630.27 208.72 627.4 218.18 626.59 228.06 628.64 238.29 634.41 248.71 643.69 259.39 656.39 270.26 672.11 281.25 689.8 292.37 708.2 303.55 726.04 314.8 741.65 326.08 753.49 337.35 760.8 348.64 762.45 359.9 758.13 371.08 748.92 382.27 735.18 393.36 718.4 404.3 701.23 415.25 685.27 425.76 672.24 435.82 663.71 445.86 659.96 455.42 661 464.48 666.85 473.51 675.96 482.03 686.95 490.02 699.12 497.98 710.25 505.43 719.03 512.39 725.2 519.37 727.33 525.93 725.18 532.11 719.29 538.44 709.52 544.54 696.59 550.49 681.39 556.81 664.59 563.17 647.11 569.71 629.61 576.85 612.79 584.37 597.15 592.34 582.96 601.1 570.44 610.42 559.58 620.31 550.43 630.94 542.66 642.03 535.99 653.44 530.51 665.19 525.58 676.89 520.83 688.24 516.64 699.21 512.18 709.28 507.24 718.08 502.39 725.7 496.83 731.54 490.47 735.35 484 737.51 476.7 737.49 468.56 735.3 460.31 731.71 451.27 726.38 441.49 719.62 431.65 712.5 421.15 704.84 410.01 697.11 398.87 690.42 387.42 684.68 375.74 680.17 364.09 677.49 352.23 676.2 340.24 676.22 328.33 677.91 316.32 680.46 304.31 683.55 292.44 687.43 280.65 691.13 269.04 694.3 257.71 697.23 246.7 699.02 236.13 699.47 226.01 698.98 216.49 696.89 207.69 693.2 199.45 688.38 192 682.04 185.43 674.34 179.36 665.72 174.09 656.03 169.57 645.48 165.24 634.42 161.43 622.82 157.98 610.87 154.26 598.78 150.58 586.58 146.81 574.39 142.36 562.29 137.63 550.32 132.59 538.53 126.82 526.94 120.85 515.53 114.82 504.32 108.48 493.3 102.45 482.42 96.96 471.67 91.8 461.05 87.56 450.49 84.44 439.98 82.05 429.54 80.88 419.09 80.92 408.63 81.55 398.19 83.12 387.71 85.46 377.2 87.74 366.69 90.27 356.39 92.83 346.34 94.73 336.29 96.45 326.49 97.96 317 98.75 307.53 99.49 298.39 100.32 289.61 100.92 280.89 102.01 272.55 103.79 264.65 105.95 256.79 109.14 249.38 113.41 242.41 118.43 235.47 124.59 228.95 131.78 222.85 139.6 216.7 148.23 210.88 157.46 205.38 166.87 199.69 176.55 194.2 186.33 188.85 195.82 183.16 205.18 177.5 214.32 171.83 222.92 165.69 231.26 159.46 239.38 153.14 246.94 146.34 254.39 139.46 261.79 132.56 268.78 125.34 275.88 118.24 283.18 111.39 290.23 104.53 297.61 98.15 305.36 92.42 312.98 87.05 321.05 82.57 329.59 79.12 338.07 76.31 347.04 74.67 356.52 74.25 365.97 74.5 375.94 75.89 386.46 78.37" stroke-dasharray="0 0" transform="rotate(8.71875, 400, 400)" opacity="0.26"></path><path d="M395.45 88.68C405.85 91.52 416.62 95.07 427.76 99.15 438.95 103.13 450.56 107.35 462.56 111.66 474.65 115.52 487.14 119.29 499.98 122.94 512.87 125.97 526.02 128.88 539.28 131.67 552.38 133.94 565.34 136.24 577.9 138.63 589.86 140.73 600.99 143.13 610.94 145.89 619.73 148.63 626.88 151.91 632.11 155.77 636.6 162.19 633.59 178.85 627.55 189.08 623.36 196.44 619.26 204.39 616.04 212.87 615.02 221.62 616.24 230.82 620.29 240.39 627.78 250.16 638.42 260.23 651.95 270.51 667.91 280.92 685.25 291.5 702.79 302.16 719.39 312.9 733.57 323.7 743.98 334.49 750.09 345.33 750.9 356.13 746.21 366.85 737.1 377.59 723.86 388.24 707.85 398.73 691.47 409.22 676.14 419.3 663.4 428.93 654.7 438.55 650.33 447.72 650.37 456.42 654.95 465.1 662.74 473.31 672.57 481.05 683.89 488.8 694.67 496.1 703.71 502.99 710.75 509.95 714.32 516.58 714.08 522.92 710.45 529.47 703.08 535.88 692.49 542.23 679.45 548.97 664.43 555.84 648.25 562.92 631.54 570.58 614.94 578.62 599 587.1 584.02 596.27 570.32 605.93 558.03 616.06 547.19 626.77 537.69 637.81 529.34 649.02 522.19 660.41 515.78 671.6 509.82 682.32 504.54 692.56 499.29 701.82 493.83 709.79 488.62 716.6 482.94 721.68 476.67 724.83 470.41 726.46 463.45 726.06 455.77 723.67 448.02 720.04 439.54 714.81 430.36 708.3 421.13 701.49 411.23 694.18 400.7 686.8 390.18 680.38 379.31 674.81 368.2 670.34 357.13 667.55 345.86 666.03 334.47 665.71 323.19 666.96 311.85 669.05 300.55 671.69 289.44 675.15 278.47 678.54 267.76 681.52 257.37 684.41 247.36 686.35 237.86 687.13 228.8 687.14 220.37 685.71 212.67 682.82 205.46 678.93 199.01 673.58 193.36 666.92 188.09 659.38 183.5 650.74 179.52 641.19 175.6 631.07 172.03 620.33 168.7 609.13 164.96 597.71 161.17 586.05 157.2 574.31 152.51 562.58 147.51 550.88 142.2 539.28 136.21 527.82 130.05 516.49 123.88 505.33 117.48 494.32 111.44 483.45 105.99 472.73 100.94 462.12 96.85 451.6 93.88 441.18 91.68 430.82 90.7 420.5 90.93 410.23 91.75 399.98 93.5 389.75 96 379.55 98.45 369.35 101.11 359.42 103.79 349.78 105.8 340.13 107.58 330.78 109.11 321.76 109.9 312.74 110.58 304.08 111.28 295.78 111.68 287.51 112.5 279.63 113.91 272.16 115.65 264.71 118.33 257.67 122.04 251.04 126.48 244.39 132.03 238.11 138.65 232.19 145.94 226.17 154.11 220.43 162.97 214.94 172.15 209.23 181.71 203.66 191.49 198.19 201.14 192.36 210.75 186.53 220.23 180.67 229.28 174.37 238.11 167.98 246.73 161.5 254.83 154.6 262.77 147.66 270.61 140.74 278.01 133.56 285.45 126.55 292.99 119.83 300.24 113.14 307.72 106.97 315.49 101.46 323.1 96.33 331.09 92.08 339.51 88.85 347.84 86.24 356.64 84.76 365.96 84.45 375.23 84.78 385.05 86.21 395.44 88.68" stroke-dasharray="0 0" transform="rotate(11.625, 400, 400)" opacity="0.84"></path><path d="M404.93 98.99C415.2 101.81 425.82 105.31 436.79 109.32 447.79 113.27 459.16 117.46 470.84 121.76 482.56 125.64 494.57 129.47 506.78 133.19 518.93 136.33 531.14 139.35 543.26 142.25 555.07 144.63 566.5 147.01 577.31 149.46 587.42 151.58 596.51 153.93 604.3 156.58 613.5 160.67 621.33 171.54 619.92 178.57 617.71 183.71 614.42 189.5 610.53 195.89 607.3 202.57 604.62 209.84 603.16 217.62 604.04 225.66 607.21 234.17 613.08 243.06 622.05 252.15 633.76 261.56 647.84 271.22 663.78 281.01 680.59 290.99 697.13 301.09 712.44 311.28 725.19 321.54 734.25 331.82 739.22 342.15 739.27 352.47 734.27 362.72 725.29 372.99 712.56 383.17 697.3 393.22 681.71 403.27 667 412.93 654.58 422.18 645.76 431.42 640.86 440.24 639.98 448.64 643.36 457.04 649.85 465.02 658.48 472.6 668.84 480.2 679.1 487.44 688.15 494.35 695.77 501.37 700.49 508.13 701.9 514.71 700.31 521.52 695.2 528.27 686.93 535.04 676.15 542.2 663.14 549.53 648.59 557.11 633.1 565.23 617.21 573.71 601.51 582.58 586.27 592.05 571.9 601.93 558.63 612.16 546.48 622.83 535.54 633.69 525.7 644.59 516.97 655.52 509.08 666.13 501.81 676.16 495.28 685.63 489.01 694.08 482.79 701.23 476.92 707.25 470.82 711.61 464.35 714.15 457.98 715.29 451.1 714.56 443.64 712.01 436.16 708.35 428.07 703.26 419.36 696.99 410.61 690.48 401.26 683.52 391.32 676.49 381.39 670.34 371.15 664.94 360.68 660.52 350.27 657.64 339.69 655.91 329.04 655.29 318.5 656.13 307.97 657.77 297.54 659.96 287.31 662.99 277.3 666.04 267.61 668.8 258.23 671.59 249.29 673.59 240.9 674.6 232.92 675.01 225.56 674.15 218.91 671.96 212.66 668.89 207.11 664.47 202.25 658.79 197.63 652.28 193.57 644.68 189.99 636.14 186.3 627.01 182.84 617.18 179.48 606.82 175.63 596.16 171.63 585.18 167.38 574.01 162.41 562.76 157.12 551.47 151.52 540.2 145.32 529 138.99 517.88 132.71 506.89 126.29 496 120.29 485.24 114.93 474.63 110.02 464.1 106.11 453.69 103.33 443.4 101.34 433.16 100.56 423 100.98 412.94 101.99 402.89 103.91 392.91 106.55 383.01 109.15 373.12 111.94 363.52 114.71 354.25 116.83 344.98 118.7 336.02 120.28 327.41 121.09 318.81 121.74 310.55 122.35 302.67 122.6 294.79 123.18 287.28 124.27 280.17 125.6 273.04 127.8 266.28 130.95 259.9 134.78 253.45 139.7 247.33 145.67 241.52 152.36 235.56 159.97 229.83 168.35 224.3 177.15 218.51 186.45 212.83 196.09 207.21 205.74 201.23 215.47 195.23 225.16 189.18 234.56 182.72 243.8 176.19 252.85 169.6 261.47 162.64 269.92 155.67 278.23 148.76 286.13 141.65 294 134.76 301.9 128.19 309.48 121.71 317.22 115.76 325.17 110.49 332.93 105.62 341 101.61 349.43 98.6 357.76 96.19 366.52 94.87 375.75 94.66 384.94 95.07 394.65 96.53 404.92 98.99" stroke-dasharray="0 0" transform="rotate(14.53125, 400, 400)" opacity="0.49"></path><path d="M413.87 109.31C423.99 112.09 434.39 115.53 445.06 119.48 455.75 123.38 466.7 127.53 477.85 131.81 488.99 135.71 500.27 139.59 511.58 143.37 522.75 146.61 533.78 149.73 544.51 152.75 554.85 155.25 564.62 157.73 573.59 160.25 585.4 163.58 601.2 171.22 604.5 175.93 604.87 181.23 598.84 194.86 594.43 203.27 592.46 209.32 591.38 215.92 591.75 223.03 594.48 230.38 599.45 238.19 606.92 246.4 617.11 254.79 629.6 263.53 643.96 272.54 659.65 281.68 675.74 291.04 691.19 300.55 705.18 310.14 716.53 319.84 724.27 329.59 728.2 339.38 727.56 349.19 722.31 358.95 713.49 368.74 701.27 378.46 686.75 388.08 671.93 397.7 657.85 406.96 645.76 415.86 636.9 424.76 631.53 433.29 629.82 441.45 632.07 449.62 637.3 457.43 644.72 464.92 654.05 472.45 663.63 479.69 672.47 486.68 680.4 493.8 685.98 500.76 688.73 507.6 688.93 514.69 685.9 521.79 679.84 528.96 671.34 536.51 660.46 544.26 647.78 552.25 633.86 560.74 619.12 569.55 604.12 578.7 589.15 588.35 574.63 598.3 560.86 608.5 547.87 619.01 535.86 629.58 524.83 640.06 514.75 650.45 505.52 660.41 496.99 669.72 489.2 678.41 481.82 686.05 474.7 692.4 467.99 697.66 461.26 701.35 454.38 703.32 447.66 704.02 440.62 703 433.19 700.32 425.78 696.67 417.9 691.71 409.53 685.69 401.14 679.49 392.25 672.87 382.87 666.17 373.49 660.29 363.87 655.06 354.1 650.71 344.38 647.77 334.55 645.85 324.72 644.94 315 645.4 305.36 646.61 295.88 648.37 286.61 650.97 277.61 653.65 268.99 656.15 260.66 658.79 252.79 660.78 245.48 661.94 238.52 662.65 232.16 662.24 226.45 660.65 221.03 658.31 216.22 654.73 212 649.96 207.87 644.43 204.17 637.82 200.8 630.28 197.2 622.15 193.71 613.27 190.2 603.8 186.12 593.98 181.84 583.76 177.26 573.26 171.98 562.63 166.38 551.86 160.52 541.05 154.12 530.23 147.67 519.45 141.32 508.74 134.93 498.09 129.01 487.54 123.79 477.12 119.07 466.77 115.36 456.53 112.8 446.42 111.03 436.35 110.46 426.39 111.07 416.55 112.25 406.73 114.32 397 117.1 387.4 119.82 377.79 122.73 368.51 125.6 359.58 127.83 350.64 129.79 342.04 131.43 333.79 132.3 325.53 132.96 317.63 133.52 310.08 133.66 302.52 134.05 295.32 134.86 288.48 135.82 281.6 137.56 275.05 140.17 268.83 143.39 262.52 147.66 256.48 152.95 250.7 158.96 244.75 165.92 238.98 173.71 233.36 182.01 227.47 190.9 221.65 200.24 215.86 209.72 209.72 219.41 203.55 229.16 197.34 238.76 190.75 248.28 184.11 257.67 177.43 266.72 170.44 275.63 163.48 284.39 156.62 292.8 149.63 301.12 142.89 309.43 136.5 317.43 130.25 325.52 124.55 333.74 119.53 341.76 114.92 350.01 111.16 358.55 108.37 366.98 106.16 375.77 104.99 384.98 104.89 394.13 105.38 403.75 106.86 413.86 109.3" stroke-dasharray="0 0" transform="rotate(17.4375, 400, 400)" opacity="0.67"></path><path d="M421.34 119.62C431.25 122.36 441.34 125.75 451.59 129.62 461.84 133.46 472.22 137.57 482.66 141.82 493.05 145.73 503.42 149.63 513.63 153.46 523.66 156.8 533.37 160.02 542.6 163.15 551.41 165.78 559.5 168.37 566.68 170.97 581.38 178.14 587.8 191.2 585.25 197.04 582.38 203.59 579.37 219.67 581.87 229.13 586.32 235.81 592.9 242.95 601.71 250.49 612.83 258.2 625.82 266.26 640.2 274.61 655.43 283.1 670.66 291.82 684.93 300.72 697.58 309.7 707.56 318.82 714.07 328.01 717.02 337.25 715.77 346.54 710.33 355.82 701.69 365.12 689.99 374.39 676.2 383.58 662.13 392.78 648.68 401.68 636.96 410.27 628.09 418.85 622.33 427.13 619.89 435.1 621.08 443.08 625.12 450.79 631.33 458.23 639.56 465.73 648.34 473.02 656.78 480.14 664.76 487.39 670.9 494.55 674.71 501.67 676.4 509.03 675.21 516.45 671.21 523.98 664.91 531.86 656.2 539.95 645.54 548.27 633.43 557.02 620.18 566.05 606.29 575.36 592.07 585.04 577.91 594.95 564.12 604.99 550.79 615.22 538.16 625.4 526.32 635.36 515.22 645.15 504.91 654.42 495.31 662.96 486.36 670.87 477.93 677.71 469.88 683.29 462.27 687.83 454.81 690.88 447.39 692.34 440.17 692.65 432.82 691.38 425.26 688.6 417.76 684.98 409.95 680.17 401.79 674.41 393.64 668.52 385.12 662.23 376.24 655.86 367.36 650.24 358.34 645.19 349.27 640.92 340.23 637.92 331.18 635.84 322.2 634.67 313.32 634.77 304.59 635.58 296.09 636.92 287.78 639.09 279.79 641.4 272.21 643.61 264.87 646.04 258.01 647.96 251.69 649.19 242.88 650.08 228.34 645.82 222.44 640.46 218.62 635.83 215.1 630.17 211.78 623.59 208.13 616.44 204.47 608.53 200.7 599.97 196.33 591.04 191.7 581.65 186.77 571.9 181.17 561.98 175.28 551.83 169.17 541.58 162.62 531.27 156.09 520.92 149.73 510.6 143.41 500.3 137.63 490.06 132.58 479.92 128.09 469.83 124.62 459.83 122.3 449.96 120.77 440.13 120.41 430.4 121.2 420.81 122.55 411.24 124.76 401.78 127.65 392.46 130.49 383.14 133.49 374.16 136.46 365.54 138.79 356.91 140.85 348.61 142.58 340.67 143.52 332.71 144.22 325.09 144.77 317.82 144.85 310.52 145.1 303.55 145.67 296.9 146.31 290.2 147.63 283.79 149.73 277.66 152.36 271.42 155.96 265.41 160.56 259.61 165.84 253.62 172.09 247.77 179.2 242.02 186.87 236.01 195.23 230.04 204.11 224.09 213.26 217.8 222.73 211.48 232.37 205.13 241.98 198.44 251.62 191.72 261.2 185 270.56 178.02 279.81 171.11 288.94 164.35 297.78 157.5 306.53 150.94 315.23 144.78 323.66 138.77 332.11 133.33 340.63 128.58 348.96 124.24 357.44 120.74 366.13 118.16 374.72 116.15 383.58 115.13 392.77 115.14 401.91 115.69 411.42 117.2 421.33 119.62" stroke-dasharray="0 0" transform="rotate(20.34375, 400, 400)" opacity="0.67"></path><path d="M426.53 129.93C436.17 132.63 445.87 135.95 455.59 139.75 465.3 143.52 474.99 147.57 484.59 151.78 494.11 155.68 503.45 159.6 512.48 163.48 521.29 166.89 529.64 170.22 537.38 173.44 547.97 177.56 563.77 185.16 568.46 188.94 570.91 197.02 567.08 212.77 566.25 219.69 567.29 224.62 569.59 230.04 573.5 235.93 579.52 241.99 587.46 248.49 597.33 255.38 609.1 262.43 622.3 269.84 636.46 277.55 651.05 285.38 665.28 293.47 678.33 301.76 689.63 310.13 698.29 318.66 703.64 327.3 705.71 335.99 703.92 344.75 698.33 353.55 689.91 362.36 678.73 371.18 665.65 379.98 652.32 388.77 639.49 397.33 628.16 405.63 619.34 413.93 613.27 421.99 610.17 429.8 610.4 437.64 613.29 445.27 618.33 452.7 625.42 460.2 633.3 467.56 641.17 474.81 648.97 482.21 655.41 489.57 659.97 496.93 662.86 504.53 663.24 512.23 661.08 520.05 656.84 528.18 650.24 536.52 641.63 545.07 631.49 553.96 619.98 563.09 607.53 572.42 594.46 582.02 581.09 591.76 567.77 601.52 554.57 611.37 541.8 621.06 529.59 630.44 517.88 639.56 506.82 648.11 496.42 655.88 486.55 663 477.23 669.06 468.36 673.9 459.9 677.77 451.71 680.24 443.72 681.22 435.95 681.19 428.2 679.71 420.41 676.86 412.71 673.29 404.87 668.65 396.84 663.14 388.83 657.55 380.6 651.6 372.15 645.55 363.69 640.18 355.23 635.32 346.81 631.13 338.42 628.1 330.12 625.89 321.96 624.49 313.89 624.26 306.04 624.68 298.48 625.62 291.07 627.37 284.01 629.29 277.38 631.19 267.94 634.27 251.77 637.53 245.04 636.94 238.83 634.64 227.91 624.13 222.73 616.06 218.89 609.86 214.96 602.89 210.85 595.25 206.13 587.23 201.13 578.7 195.83 569.77 189.92 560.61 183.77 551.18 177.47 541.56 170.82 531.85 164.25 522.04 157.94 512.2 151.76 502.35 146.16 492.51 141.34 482.74 137.1 472.98 133.9 463.3 131.83 453.74 130.54 444.19 130.4 434.75 131.37 425.44 132.88 416.14 135.21 406.97 138.2 397.93 141.13 388.9 144.23 380.21 147.28 371.87 149.72 363.51 151.88 355.49 153.7 347.81 154.75 340.1 155.51 332.72 156.09 325.66 156.15 318.56 156.3 311.75 156.7 305.24 157.07 298.66 158.01 292.33 159.65 286.24 161.72 280.02 164.68 273.99 168.58 268.12 173.12 262.06 178.61 256.1 184.97 250.22 191.92 244.09 199.61 237.97 207.9 231.86 216.56 225.44 225.62 219.01 234.97 212.54 244.41 205.79 253.97 199.04 263.57 192.32 273.06 185.39 282.5 178.58 291.86 171.95 301.01 165.29 310.09 158.94 319.09 153.02 327.88 147.28 336.66 142.13 345.44 137.65 354.06 133.58 362.77 130.33 371.6 127.98 380.34 126.16 389.26 125.29 398.4 125.39 407.51 126.01 416.88 127.53 426.52 129.93" stroke-dasharray="0 0" transform="rotate(23.25, 400, 400)" opacity="0.63"></path><path d="M428.88 140.24C438.19 142.89 447.42 146.14 456.53 149.85 465.62 153.56 474.55 157.54 483.25 161.69 491.85 165.58 500.13 169.5 507.97 173.4 515.59 176.89 522.64 180.3 529 183.62 537.59 187.92 549.65 195.84 552.87 199.7 554.39 207.6 553.28 222.32 554.62 228.66 557.22 233.13 561.14 238.05 566.61 243.41 573.96 248.89 582.99 254.81 593.64 261.11 605.76 267.53 618.92 274.31 632.63 281.41 646.42 288.61 659.57 296.08 671.35 303.78 681.33 311.55 688.73 319.5 693 327.6 694.26 335.74 692.01 343.99 686.33 352.32 678.14 360.65 667.48 369.04 655.1 377.45 642.49 385.87 630.29 394.1 619.36 402.14 610.63 410.18 604.32 418.04 600.65 425.72 600.01 433.43 601.84 441 605.73 448.43 611.68 455.94 618.58 463.38 625.75 470.75 633.17 478.27 639.65 485.8 644.67 493.37 648.46 501.16 650.11 509.05 649.54 517.08 647.14 525.38 642.53 533.86 635.93 542.52 627.81 551.44 618.17 560.54 607.39 569.76 595.78 579.17 583.58 588.61 571.13 598 558.53 607.36 546.06 616.49 533.91 625.23 522.04 633.65 510.64 641.44 499.77 648.44 489.3 654.78 479.34 660.1 469.84 664.23 460.69 667.47 451.89 669.41 443.38 669.98 435.09 669.64 426.95 667.99 418.91 665.11 410.97 661.6 403.03 657.14 395.07 651.9 387.13 646.6 379.11 640.97 371.02 635.24 362.93 630.13 354.96 625.45 347.13 621.36 339.32 618.31 331.69 615.98 324.3 614.38 316.96 613.85 309.9 613.92 303.17 614.47 296.54 615.81 290.3 617.35 284.48 618.92 276.13 621.63 261.76 624.86 255.66 624.66 249.82 623.04 238.93 614.54 233.44 607.71 229.31 602.4 225.02 596.33 220.52 589.59 215.42 582.48 210.05 574.82 204.4 566.72 198.22 558.38 191.86 549.71 185.41 540.79 178.72 531.76 172.19 522.56 165.98 513.28 159.98 503.96 154.62 494.61 150.06 485.27 146.12 475.94 143.21 466.64 141.41 457.43 140.38 448.23 140.45 439.12 141.59 430.12 143.24 421.14 145.68 412.26 148.75 403.52 151.76 394.77 154.93 386.36 158.06 378.28 160.6 370.18 162.86 362.4 164.79 354.94 165.95 347.45 166.82 340.26 167.46 333.36 167.54 326.41 167.65 319.73 167.92 313.3 168.08 306.78 168.71 300.49 169.94 294.39 171.49 288.16 173.86 282.07 177.08 276.12 180.87 269.98 185.58 263.91 191.15 257.89 197.31 251.64 204.24 245.39 211.82 239.15 219.83 232.64 228.34 226.12 237.21 219.59 246.29 212.82 255.58 206.08 264.99 199.4 274.41 192.58 283.85 185.9 293.26 179.44 302.56 173 311.8 166.9 320.98 161.24 330.02 155.8 339.01 150.93 347.96 146.74 356.81 142.96 365.67 139.96 374.58 137.82 383.42 136.2 392.35 135.47 401.39 135.67 410.41 136.34 419.57 137.88 428.87 140.24" stroke-dasharray="0 0" transform="rotate(26.15625, 400, 400)" opacity="0.75"></path><path d="M428.16 150.56C437.06 153.15 445.76 156.32 454.22 159.94 462.65 163.56 470.8 167.47 478.59 171.56 486.28 175.41 493.54 179.33 500.27 183.24 506.81 186.78 512.72 190.26 517.91 193.68 529.55 202.28 538.05 214.1 538.38 218.19 538.77 222.35 541.24 232.2 544.8 238.04 548.9 242.13 554.28 246.62 561.08 251.51 569.51 256.5 579.35 261.88 590.46 267.64 602.67 273.49 615.55 279.7 628.62 286.22 641.48 292.82 653.48 299.71 663.97 306.85 672.67 314.04 678.87 321.44 682.14 329.02 682.68 336.63 680.04 344.38 674.31 352.25 666.39 360.13 656.25 368.11 644.55 376.15 632.65 384.2 621.07 392.13 610.56 399.92 601.97 407.71 595.48 415.39 591.34 422.95 589.91 430.55 590.75 438.06 593.55 445.49 598.37 453 604.24 460.48 610.6 467.95 617.47 475.55 623.76 483.2 628.99 490.91 633.36 498.81 635.99 506.82 636.71 514.96 635.9 523.32 633.08 531.83 628.38 540.47 622.23 549.31 614.5 558.25 605.51 567.25 595.57 576.35 584.83 585.4 573.57 594.31 561.95 603.12 550.21 611.62 538.54 619.67 526.92 627.37 515.59 634.4 504.64 640.63 493.93 646.22 483.64 650.82 473.78 654.3 464.18 656.96 454.96 658.41 446.06 658.61 437.36 658.01 428.9 656.24 420.65 653.34 412.5 649.92 404.46 645.64 396.53 640.66 388.63 635.66 380.79 630.35 372.99 624.92 365.2 620.07 357.64 615.58 350.32 611.59 343 608.55 335.95 606.12 329.2 604.34 322.48 603.54 316.08 603.29 310.04 603.48 301.25 605.01 285.71 609.11 278.96 610.85 272.54 612.13 260.99 611.09 255.54 608.41 251.62 605.94 247.7 602.65 243.69 598.58 239.2 594.08 234.51 588.85 229.59 582.97 224.12 576.73 218.39 569.94 212.44 562.67 206.04 555.16 199.52 547.28 193.01 539.11 186.35 530.8 179.92 522.27 173.89 513.62 168.13 504.89 163.05 496.09 158.79 487.25 155.17 478.4 152.56 469.55 151.05 460.75 150.27 451.95 150.55 443.21 151.85 434.56 153.63 425.91 156.16 417.36 159.3 408.91 162.38 400.47 165.6 392.32 168.8 384.49 171.43 376.64 173.79 369.08 175.83 361.81 177.13 354.51 178.11 347.47 178.84 340.7 178.99 333.86 179.11 327.26 179.31 320.88 179.32 314.41 179.71 308.11 180.59 301.98 181.69 295.72 183.51 289.57 186.09 283.53 189.18 277.3 193.11 271.12 197.87 264.99 203.2 258.64 209.3 252.29 216.08 245.95 223.33 239.39 231.13 232.82 239.38 226.28 247.91 219.54 256.74 212.86 265.77 206.28 274.9 199.6 284.14 193.1 293.4 186.86 302.65 180.67 311.88 174.84 321.05 169.47 330.16 164.33 339.22 159.77 348.22 155.87 357.16 152.36 366.07 149.62 374.95 147.7 383.79 146.26 392.64 145.67 401.51 145.96 410.36 146.68 419.25 148.23 428.15 150.55" stroke-dasharray="0 0" transform="rotate(29.0625, 400, 400)" opacity="0.11"></path><path d="M424.43 160.87C432.87 163.41 441.01 166.49 448.81 170.01 456.57 173.54 463.95 177.36 470.9 181.37 477.75 185.19 484.1 189.08 489.88 192.99 497.99 198.34 510.55 208.23 514.89 212.79 520.23 220.79 524.95 232.93 527.08 237.52 529.53 240.61 532.7 244.03 536.83 247.78 542.27 251.54 548.89 255.68 556.78 260.17 566 264.73 576.35 269.65 587.65 274.93 599.69 280.27 612.07 285.96 624.34 291.96 636.17 298.02 646.97 304.37 656.19 310.98 663.65 317.63 668.73 324.51 671.09 331.6 670.98 338.7 668.02 345.99 662.29 353.43 654.65 360.87 645.03 368.45 634 376.14 622.8 383.84 611.82 391.47 601.75 399.03 593.35 406.59 586.75 414.09 582.21 421.53 580.09 428.99 580.03 436.43 581.8 443.84 585.51 451.32 590.34 458.81 595.81 466.32 601.99 473.95 607.89 481.65 613.08 489.43 617.75 497.35 621.05 505.39 622.78 513.53 623.28 521.84 622 530.27 619 538.77 614.68 547.41 608.82 556.09 601.64 564.75 593.48 573.44 584.36 582 574.54 590.36 564.2 598.56 553.51 606.39 542.68 613.73 531.72 620.68 520.85 626.96 510.18 632.44 499.61 637.31 489.34 641.23 479.41 644.1 469.66 646.24 460.24 647.26 451.17 647.14 442.24 646.32 433.59 644.44 425.22 641.57 416.92 638.25 408.84 634.16 400.95 629.45 393.1 624.74 385.39 619.73 377.84 614.61 370.3 610.01 363.07 605.71 356.16 601.84 349.25 598.8 342.66 596.31 336.42 594.38 327.23 593.06 310.68 593.61 303.33 594.89 296.3 596.74 283.7 599.38 277.94 599.57 272 598.86 259.85 593.48 253.3 588.72 248.4 584.95 243.3 580.49 237.98 575.4 232.16 569.99 226.13 564.02 219.93 557.57 213.38 550.89 206.8 543.8 200.29 536.38 193.73 528.82 187.48 521 181.68 513 176.22 504.92 171.46 496.71 167.54 488.43 164.27 480.11 161.98 471.76 160.75 463.41 160.22 455.06 160.7 446.73 162.15 438.45 164.05 430.17 166.66 421.96 169.85 413.82 172.98 405.69 176.25 397.82 179.49 390.22 182.2 382.61 184.67 375.26 186.83 368.16 188.26 361.03 189.38 354.13 190.23 347.45 190.49 340.72 190.65 334.17 190.84 327.82 190.77 321.37 190.98 315.07 191.58 308.9 192.31 302.6 193.65 296.39 195.66 290.26 198.08 283.96 201.27 277.7 205.24 271.48 209.72 265.06 214.97 258.66 220.9 252.27 227.3 245.7 234.29 239.14 241.78 232.63 249.6 225.98 257.8 219.41 266.27 212.97 274.92 206.48 283.74 200.21 292.66 194.21 301.63 188.3 310.64 182.77 319.63 177.7 328.62 172.88 337.57 168.63 346.46 165.03 355.32 161.81 364.13 159.32 372.86 157.61 381.58 156.35 390.25 155.89 398.84 156.26 407.44 157.04 415.97 158.58 424.42 160.87" stroke-dasharray="0 0" transform="rotate(31.96875, 400, 400)" opacity="0.72"></path><path d="M418.09 171.18C426.03 173.66 433.6 176.65 440.76 180.06 447.89 183.5 454.57 187.22 460.77 191.15 466.9 194.9 472.5 198.75 477.52 202.65 484.59 208.03 495.51 218.15 499.38 222.87 505.14 231.18 513.05 243.5 517.01 247.99 520.73 250.96 525.23 254.22 530.63 257.76 537.21 261.28 544.84 265.13 553.51 269.3 563.24 273.5 573.82 278.03 585.03 282.9 596.67 287.8 608.37 293.03 619.71 298.56 630.43 304.14 640.01 310 647.99 316.13 654.26 322.29 658.3 328.69 659.84 335.32 659.18 341.96 655.95 348.8 650.27 355.83 642.92 362.86 633.82 370.07 623.46 377.43 612.93 384.79 602.56 392.13 592.94 399.45 584.76 406.78 578.12 414.09 573.25 421.39 570.54 428.72 569.68 436.05 570.49 443.4 573.14 450.81 576.93 458.26 581.46 465.75 586.84 473.35 592.19 481.02 597.12 488.76 601.84 496.62 605.52 504.58 607.95 512.62 609.45 520.78 609.43 529 607.89 537.26 605.21 545.59 601.08 553.9 595.65 562.13 589.26 570.32 581.83 578.33 573.58 586.07 564.72 593.61 555.34 600.74 545.62 607.35 535.64 613.56 525.56 619.1 515.51 623.86 505.44 628.05 495.52 631.35 485.84 633.66 476.23 635.31 466.9 635.95 457.86 635.56 448.93 634.57 440.27 632.62 431.9 629.79 423.59 626.59 415.54 622.7 407.73 618.25 399.96 613.82 392.39 609.12 385.06 604.3 377.72 599.94 370.76 595.83 364.17 592.09 357.57 589.08 351.33 586.55 345.45 584.49 336.78 582.82 321.17 582.4 314.18 583.16 307.37 584.55 294.8 586.69 288.81 586.89 282.5 586.43 269.28 582.16 262.08 578.22 256.79 575.07 251.3 571.3 245.61 566.93 239.51 562.28 233.25 557.08 226.89 551.41 220.28 545.51 213.71 539.2 207.29 532.53 200.91 525.72 194.9 518.62 189.4 511.29 184.29 503.88 179.89 496.3 176.34 488.6 173.42 480.86 171.47 473.03 170.52 465.17 170.24 457.3 170.92 449.4 172.51 441.53 174.51 433.65 177.18 425.79 180.39 417.98 183.56 410.17 186.86 402.59 190.14 395.23 192.93 387.86 195.49 380.71 197.76 373.77 199.34 366.8 200.61 360.03 201.6 353.44 201.99 346.79 202.25 340.31 202.48 333.97 202.39 327.55 202.5 321.24 202.9 315.04 203.33 308.71 204.27 302.46 205.78 296.27 207.6 289.93 210.12 283.63 213.34 277.35 217.01 270.92 221.39 264.51 226.45 258.12 231.96 251.59 238.07 245.1 244.71 238.68 251.71 232.16 259.13 225.75 266.89 219.51 274.88 213.26 283.11 207.24 291.48 201.52 299.99 195.92 308.58 190.71 317.19 185.97 325.86 181.48 334.51 177.54 343.11 174.24 351.73 171.3 360.27 169.06 368.72 167.55 377.18 166.47 385.54 166.14 393.78 166.58 402.02 167.4 410.14 168.94 418.08 171.18" stroke-dasharray="0 0" transform="rotate(34.875, 400, 400)" opacity="0.54"></path><path d="M409.82 181.49C417.24 183.9 424.25 186.8 430.82 190.1 437.37 193.43 443.46 197.05 449.05 200.87 457.11 206.45 470.52 217.61 475.86 223 480.66 227.9 488.21 237.13 491.36 241.55 494.87 245.62 503.33 253.99 509.09 258.43 513.98 261.35 519.62 264.49 526.1 267.89 533.56 271.23 541.9 274.86 551.07 278.78 561.02 282.69 571.54 286.91 582.43 291.42 593.47 295.96 604.33 300.8 614.65 305.92 624.22 311.07 632.58 316.51 639.36 322.21 644.52 327.93 647.61 333.9 648.42 340.11 647.27 346.32 643.84 352.76 638.25 359.4 631.22 366.05 622.62 372.9 612.91 379.93 603.04 386.97 593.28 394.03 584.12 401.11 576.19 408.19 569.56 415.31 564.46 422.44 561.25 429.6 559.67 436.8 559.62 444.03 561.27 451.32 564.04 458.66 567.61 466.07 572.12 473.55 576.8 481.1 581.29 488.72 585.82 496.43 589.61 504.21 592.45 512.03 594.65 519.93 595.59 527.85 595.23 535.76 593.94 543.68 591.34 551.54 587.5 559.25 582.79 566.88 577.03 574.28 570.37 581.36 563.09 588.21 555.15 594.62 546.74 600.5 537.98 605.99 528.95 610.82 519.8 614.9 510.51 618.45 501.25 621.17 492.09 622.98 482.93 624.2 473.94 624.51 465.18 623.89 456.46 622.76 447.99 620.78 439.77 618.01 431.61 614.94 423.69 611.26 416.03 607.07 408.4 602.92 401.01 598.52 393.87 593.99 386.72 589.87 379.98 585.96 373.63 582.34 367.25 579.39 361.25 576.82 355.6 574.67 347.25 572.7 332.1 571.38 325.2 571.65 318.36 572.57 305.36 574.1 298.96 574.23 292.16 573.9 277.74 570.44 269.93 567.16 264.28 564.55 258.46 561.36 252.48 557.63 246.17 553.65 239.77 549.16 233.34 544.2 226.76 539.04 220.3 533.46 214.06 527.52 207.94 521.43 202.25 515.04 197.1 508.39 192.37 501.65 188.37 494.7 185.21 487.6 182.66 480.45 181.04 473.18 180.38 465.83 180.34 458.46 181.2 451.03 182.91 443.58 185 436.12 187.71 428.64 190.94 421.17 194.12 413.7 197.44 406.4 200.74 399.29 203.6 392.17 206.24 385.23 208.62 378.45 210.35 371.65 211.78 365.01 212.93 358.51 213.48 351.96 213.88 345.54 214.19 339.23 214.14 332.85 214.21 326.55 214.49 320.34 214.72 314.02 215.35 307.76 216.45 301.54 217.77 295.21 219.68 288.9 222.22 282.63 225.12 276.23 228.69 269.86 232.9 263.53 237.51 257.1 242.72 250.73 248.46 244.45 254.56 238.12 261.11 231.93 268.04 225.92 275.23 219.95 282.71 214.22 290.4 208.82 298.26 203.55 306.25 198.68 314.31 194.27 322.47 190.12 330.65 186.51 338.79 183.5 346.99 180.84 355.12 178.84 363.15 177.54 371.22 176.62 379.16 176.41 386.95 176.92 394.76 177.77 402.39 179.3 409.81 181.49" stroke-dasharray="0 0" transform="rotate(37.78125, 400, 400)" opacity="0.46"></path><path d="M400.5 191.81C407.4 194.14 413.89 196.93 419.95 200.12 425.99 203.34 431.59 206.84 436.74 210.55 444.18 216.01 456.77 227.06 461.99 232.47 466.89 237.46 475.52 246.96 479.67 251.52 484.4 255.75 495.9 264.3 503.28 268.76 509.16 271.66 515.72 274.75 523.01 278.05 531.09 281.28 539.85 284.75 549.22 288.47 559.11 292.16 569.33 296.13 579.67 300.37 589.95 304.6 599.87 309.11 609.1 313.9 617.5 318.69 624.67 323.75 630.3 329.08 634.44 334.41 636.66 340 636.82 345.82 635.28 351.65 631.71 357.72 626.23 364.01 619.53 370.29 611.45 376.8 602.36 383.52 593.14 390.24 583.97 397.03 575.29 403.85 567.64 410.68 561.08 417.57 555.82 424.5 552.2 431.46 550.01 438.47 549.18 445.54 549.91 452.65 551.71 459.82 554.33 467.06 557.93 474.34 561.83 481.7 565.75 489.1 569.89 496.56 573.56 504.06 576.55 511.57 579.14 519.11 580.74 526.64 581.27 534.11 581.09 541.55 579.75 548.87 577.3 556 574.1 563.02 569.88 569.76 564.76 576.16 559.03 582.31 552.59 588.01 545.57 593.17 538.16 597.96 530.35 602.12 522.29 605.56 514.02 608.52 505.64 610.71 497.24 612.07 488.77 612.92 480.36 612.95 472.09 612.15 463.82 610.91 455.72 608.93 447.82 606.24 439.95 603.31 432.29 599.84 424.86 595.91 417.45 592.04 410.27 587.92 403.33 583.68 396.39 579.8 389.83 576.08 383.64 572.61 377.44 569.71 371.58 567.14 366.06 564.91 357.85 562.69 342.76 560.56 335.74 560.36 328.7 560.81 314.96 561.67 308.04 561.65 300.69 561.33 285.11 558.43 276.75 555.67 270.81 553.49 264.74 550.8 258.57 547.6 252.17 544.21 245.73 540.34 239.34 536.02 232.9 531.53 226.63 526.63 220.66 521.37 214.88 515.97 209.56 510.25 204.81 504.26 200.51 498.17 196.93 491.86 194.17 485.35 192 478.8 190.71 472.09 190.33 465.26 190.51 458.4 191.54 451.45 193.36 444.43 195.52 437.41 198.27 430.33 201.49 423.21 204.67 416.09 207.99 409.1 211.3 402.25 214.2 395.39 216.92 388.66 219.4 382.07 221.27 375.45 222.86 368.94 224.18 362.55 224.92 356.12 225.47 349.78 225.91 343.53 225.96 337.21 226.06 330.96 226.3 324.77 226.4 318.5 226.82 312.27 227.61 306.08 228.52 299.8 229.93 293.54 231.88 287.33 234.11 281.02 236.93 274.75 240.33 268.55 244.08 262.27 248.41 256.08 253.24 250.01 258.42 243.92 264.06 237.99 270.09 232.26 276.4 226.6 283.03 221.2 289.91 216.13 296.99 211.21 304.24 206.7 311.61 202.63 319.11 198.82 326.66 195.54 334.21 192.82 341.84 190.44 349.43 188.67 356.93 187.56 364.47 186.8 371.91 186.7 379.18 187.27 386.48 188.16 393.6 189.67 400.49 191.8" stroke-dasharray="0 0" transform="rotate(40.6875, 400, 400)" opacity="0.80"></path><path d="M391.13 202.12C397.52 204.37 403.53 207.06 409.17 210.12 414.79 213.22 420.02 216.6 424.87 220.19 431.94 225.51 444.27 236.39 449.68 241.79 454.98 246.84 465.15 256.55 470.42 261.24 476.41 265.62 490.7 274.39 499.43 278.9 506.08 281.82 513.31 284.89 521.12 288.13 529.52 291.29 538.42 294.66 547.71 298.24 557.29 301.78 567 305.55 576.62 309.57 586.01 313.57 594.89 317.82 602.99 322.32 610.24 326.81 616.26 331.57 620.82 336.57 624.73 344.19 621.37 360.65 614.22 369.46 607.85 375.41 600.28 381.6 591.81 388.01 583.22 394.42 574.64 400.91 566.44 407.46 559.11 414.02 552.67 420.66 547.32 427.35 543.38 434.06 540.67 440.85 539.16 447.69 539.05 454.56 539.94 461.49 541.64 468.47 544.32 475.49 547.39 482.56 550.63 489.66 554.24 496.78 557.58 503.91 560.47 511.02 563.2 518.13 565.17 525.19 566.29 532.14 566.91 539.03 566.56 545.77 565.24 552.28 563.31 558.64 560.44 564.72 556.72 570.42 552.45 575.87 547.44 580.87 541.81 585.34 535.78 589.47 529.27 592.99 522.4 595.84 515.29 598.27 507.95 599.98 500.47 600.95 492.88 601.48 485.24 601.28 477.64 600.33 469.99 599.03 462.43 597.06 454.99 594.47 447.56 591.69 440.27 588.43 433.17 584.77 426.07 581.16 419.15 577.33 412.43 573.36 405.71 569.72 399.33 566.2 393.28 562.87 387.21 560.05 381.45 557.49 375.96 555.21 367.79 552.78 352.49 549.94 345.22 549.3 337.86 549.3 323.23 549.43 315.77 549.21 307.89 548.82 291.3 546.23 282.54 543.85 276.41 542.01 270.21 539.7 263.96 536.95 257.56 534.06 251.21 530.72 244.97 526.96 238.76 523.07 232.79 518.78 227.16 514.12 221.78 509.36 216.89 504.27 212.59 498.9 208.73 493.44 205.6 487.73 203.24 481.81 201.45 475.84 200.49 469.68 200.37 463.37 200.77 457.04 201.95 450.57 203.86 444 206.07 437.42 208.83 430.74 212.04 423.99 215.21 417.24 218.5 410.57 221.81 403.99 224.74 397.41 227.53 390.92 230.09 384.53 232.1 378.11 233.85 371.78 235.34 365.52 236.28 359.23 237.02 353.01 237.62 346.85 237.82 340.64 238.01 334.48 238.27 328.36 238.34 322.18 238.63 316.03 239.21 309.93 239.82 303.75 240.84 297.61 242.31 291.52 243.97 285.36 246.14 279.26 248.83 273.23 251.79 267.17 255.28 261.22 259.26 255.4 263.54 249.59 268.26 243.96 273.39 238.56 278.78 233.24 284.51 228.2 290.52 223.48 296.73 218.94 303.16 214.78 309.74 211.07 316.45 207.6 323.27 204.64 330.13 202.21 337.07 200.09 344.02 198.55 350.91 197.62 357.84 197.02 364.69 197.02 371.41 197.65 378.15 198.55 384.74 200.05 391.12 202.11" stroke-dasharray="0 0" transform="rotate(43.59375, 400, 400)" opacity="0.28"></path><path d="M382.71 212.43C388.61 214.6 394.21 217.18 399.5 220.1 407.28 224.7 421.32 234.93 427.67 240.34 431.86 243.82 435.84 247.37 439.66 250.95 447.67 257.47 455.55 264.06 463.82 270.68 473.53 276.45 484.56 282.45 497.31 288.77 512.07 294.54 528.6 300.9 546.29 307.95 564.39 314.75 581.64 322.43 596.29 330.99 604.88 337.49 613.64 351.64 613.17 359.3 611.04 364.48 607.35 369.89 602.22 375.53 596.2 381.17 589.13 387.04 581.26 393.14 573.29 399.24 565.29 405.43 557.58 411.7 550.58 417.97 544.31 424.32 538.94 430.73 534.76 437.16 531.63 443.66 529.55 450.21 528.7 456.78 528.76 463.41 529.59 470.07 533.96 483.43 539.43 496.9 544.5 510.2 549.61 523.38 552.15 536.11 551.62 547.98 549.27 559.21 543.67 569.06 535.36 577.01 525.58 583.68 513.93 588 501.15 589.64 494.55 589.9 487.81 589.5 480.99 588.45 474.11 587.11 467.21 585.19 460.36 582.71 453.48 580.1 446.67 577.05 439.97 573.65 433.27 570.3 426.67 566.74 420.21 563.05 413.75 559.64 407.56 556.32 401.63 553.15 395.69 550.41 389.99 547.88 384.51 545.58 376.32 542.98 360.67 539.52 353.09 538.49 342.66 538.22 332.34 537.85 321.95 536.97 310.72 536.5 299.16 534.86 287.32 531.84 274.82 528.54 262.33 523.62 250.32 517.16 238.72 510.27 228.53 501.94 220.47 492.39 215.74 484.95 210.71 468.78 210.52 460.17 211.12 454.35 212.43 448.36 214.42 442.23 216.66 436.1 219.42 429.84 222.59 423.47 225.72 417.1 228.98 410.76 232.27 404.49 235.22 398.21 238.05 391.98 240.68 385.81 242.82 379.62 244.72 373.49 246.38 367.41 247.52 361.3 248.47 355.23 249.26 349.21 249.65 337.06 250.12 325.01 251.16 313.14 252.02 301.08 254.36 289.19 258.37 277.65 263.17 266.08 269.86 255.04 278.18 244.86 287.37 235.08 297.88 226.53 309.25 219.59 315.14 216.47 321.16 213.81 327.27 211.67 333.46 209.81 339.7 208.49 345.92 207.73 352.2 207.27 358.43 207.36 364.57 208.04 370.74 208.96 376.79 210.43 382.7 212.43" stroke-dasharray="0 0" transform="rotate(46.5, 400, 400)" opacity="0.79"></path><path d="M376.13 222.74C387.06 227.02 397.11 232.69 406.28 239.32 415.54 245.77 424.18 252.73 432.42 259.94 441.21 266.47 450.22 273.11 459.86 279.8 470.77 285.74 482.96 291.89 496.58 298.28 511.66 304.15 527.93 310.51 544.7 317.44 561.28 324.09 576.53 331.51 588.97 339.7 598.16 347.79 602.49 356.76 601.14 366.58 595.51 376.37 584.95 387.07 570.71 398.65 556.11 410.22 542.21 422.17 530.67 434.35 523.11 446.56 519.08 459.03 518.2 471.57 520.82 484.12 524.8 496.66 528.86 508.92 533.51 520.97 536.36 532.48 536.82 543.04 536.04 552.95 532.45 561.47 526.33 568.17 518.96 573.74 509.62 577.14 498.91 578.15 487.61 577.95 475.54 575.51 463.16 570.97 450.68 566.03 438.16 559.79 425.83 552.74 413.51 546.69 401.92 541.01 391.01 536 379.95 532.68 369.32 530.04 358.98 527.91 348.2 527.09 337.41 526.23 326.49 525 314.94 524.26 303.13 522.57 291.19 519.75 278.91 516.81 266.85 512.48 255.5 506.77 244.78 500.75 235.57 493.4 228.51 484.86 223.16 476.11 220.5 466.33 220.78 455.72 222.69 445.04 226.97 433.64 233.14 421.68 239.16 409.71 245.39 397.76 251.17 385.95 255.18 374.1 258.36 362.32 260.78 350.68 261.59 338.95 262.31 327.29 263.37 315.81 263.99 304.23 265.76 292.86 268.89 281.88 272.52 270.97 277.8 260.65 284.59 251.21 292.07 242.22 300.87 234.44 310.62 228.22 320.83 222.86 331.66 219.34 342.73 217.89 353.96 217.46 365.19 219.07 376.12 222.74" stroke-dasharray="0 0" transform="rotate(49.40625, 400, 400)" opacity="0.23"></path><path d="M372.09 233.06C382.23 237.13 391.86 242.51 401 248.83 410.24 255.01 419.25 261.75 428.21 268.78 437.71 275.25 447.66 281.88 458.34 288.6 470.07 294.66 482.91 300.91 496.85 307.37 511.72 313.34 527.25 319.72 542.71 326.57 557.54 333.13 570.72 340.35 581 348.24 588.27 356 591.12 364.55 588.99 373.88 583.28 383.16 573.32 393.28 560.16 404.22 546.7 415.16 533.68 426.44 522.5 437.91 514.62 449.39 509.67 461.06 507.47 472.73 508.46 484.35 510.9 495.87 513.79 507 517.64 517.89 520.34 528.14 521.26 537.39 521.48 546.02 519.36 553.29 515 558.85 509.67 563.42 502.4 566.03 493.61 566.51 484.28 566.01 473.92 563.54 462.93 559.25 451.81 554.67 440.32 548.93 428.7 542.43 417.07 536.79 405.84 531.38 395 526.48 384.05 523.02 373.3 520.09 362.67 517.58 351.7 516.26 340.63 514.93 329.44 513.33 317.83 512.27 306.06 510.46 294.33 507.72 282.52 505 271.14 501.08 260.64 495.97 250.93 490.65 242.79 484.12 236.76 476.47 232.33 468.66 230.41 459.84 231.15 450.15 233.33 440.4 237.64 429.88 243.69 418.71 249.6 407.54 255.74 396.27 261.56 385.04 265.8 373.79 269.32 362.53 272.14 351.37 273.41 340.16 274.48 329.01 275.7 318.05 276.3 307.06 277.74 296.31 280.27 286 283 275.84 287.15 266.29 292.64 257.65 298.63 249.48 305.88 242.48 314.13 236.96 322.74 232.24 332.09 229.22 341.88 228.09 351.8 227.87 361.94 229.52 372.08 233.05" stroke-dasharray="0 0" transform="rotate(52.3125, 400, 400)" opacity="0.20"></path><path d="M371.03 243.37C380.47 247.23 389.75 252.32 398.87 258.29 408.12 264.19 417.45 270.66 426.98 277.47 436.99 283.82 447.58 290.38 458.9 297.06 470.98 303.18 483.97 309.49 497.68 315.99 511.86 322.03 526.24 328.43 540.1 335.21 553.03 341.71 564.13 348.76 572.38 356.39 577.9 363.88 579.48 372.05 576.73 380.91 571.03 389.72 561.71 399.28 549.61 409.57 537.26 419.86 525.13 430.42 514.41 441.11 506.37 451.8 500.72 462.6 497.4 473.3 496.91 483.94 497.86 494.37 499.48 504.33 502.29 514.02 504.46 523.02 505.4 531.01 505.5 541.47 495.3 553.71 485.42 554.73 477.86 554.01 469.12 551.58 459.5 547.55 449.74 543.34 439.35 538.09 428.5 532.11 417.65 526.89 406.89 521.77 396.26 517 385.56 513.47 374.85 510.32 364.13 507.5 353.21 505.74 342.13 503.98 330.95 502.02 319.57 500.62 308.15 498.63 296.92 495.88 285.85 493.25 275.36 489.61 265.88 484.95 257.27 480.18 250.25 474.32 245.25 467.44 241.72 460.44 240.48 452.47 241.65 443.64 244.04 434.76 248.35 425.09 254.24 414.73 260 404.36 266.02 393.82 271.82 383.23 276.26 372.65 280.08 362 283.28 351.43 285.04 340.84 286.53 330.3 288.03 319.98 288.79 309.69 290.14 299.66 292.31 290.11 294.45 280.76 297.76 272.05 302.23 264.23 307 256.88 312.94 250.66 319.88 245.82 327.08 241.71 335.1 239.17 343.73 238.35 352.44 238.32 361.6 239.99 371.03 243.37" stroke-dasharray="0 0" transform="rotate(55.21875, 400, 400)" opacity="0.85"></path><path d="M373.07 253.68C381.88 257.33 390.83 262.11 399.89 267.72 409.07 273.31 418.57 279.47 428.43 286 438.66 292.18 449.52 298.6 461 305.18 472.99 311.3 485.62 317.6 498.62 324.08 511.71 330.17 524.62 336.55 536.69 343.25 547.67 349.69 556.74 356.59 563.11 363.96 567.08 371.2 567.59 379.02 564.39 387.42 558.79 395.78 550.12 404.78 539.06 414.4 527.79 424.02 516.57 433.83 506.39 443.69 498.35 453.54 492.2 463.4 487.97 473.09 486.19 482.69 485.76 492 486.1 500.78 487.73 509.3 489.1 517.08 489.7 523.87 490.02 532.68 482.61 542.42 474.76 542.84 468.69 541.97 461.38 539.61 453.03 535.88 444.56 532.04 435.26 527.27 425.26 521.8 415.26 516.98 405.08 512.16 394.83 507.58 384.55 504.01 374.11 500.72 363.58 497.67 352.94 495.53 342.15 493.39 331.32 491.11 320.46 489.37 309.68 487.15 299.23 484.34 289.11 481.7 279.69 478.24 271.35 473.9 263.92 469.54 258.02 464.22 254.03 457.99 251.35 451.68 250.74 444.47 252.27 436.44 254.83 428.36 259.1 419.51 264.78 409.95 270.36 400.39 276.23 390.6 281.96 380.73 286.54 370.87 290.62 360.92 294.17 351.03 296.41 341.15 298.36 331.34 300.23 321.75 301.28 312.24 302.74 303.02 304.78 294.3 306.62 285.81 309.38 277.96 313.13 270.99 316.99 264.46 321.9 259 327.78 254.83 333.8 251.3 340.69 249.2 348.31 248.66 355.97 248.79 364.26 250.46 373.07 253.68" stroke-dasharray="0 0" transform="rotate(58.125, 400, 400)" opacity="0.29"></path><path d="M377.97 263.99C386.21 267.41 394.8 271.87 403.69 277.11 412.68 282.36 422.13 288.18 432.01 294.38 442.14 300.32 452.85 306.55 464.04 312.95 475.48 318.99 487.31 325.22 499.19 331.61 510.9 337.68 522.13 344 532.31 350.58 541.36 356.94 548.53 363.67 553.2 370.78 555.83 377.77 555.47 385.24 551.96 393.18 546.55 401.08 538.55 409.51 528.52 418.44 518.29 427.38 507.99 436.4 498.42 445.4 490.53 454.37 484.07 463.27 479.17 471.92 476.32 480.47 474.65 488.67 473.79 496.29 474.4 506.99 474.58 523.29 472.37 528.18 468.65 530.91 454.28 528.78 444 524.24 436.69 520.76 428.43 516.45 419.32 511.49 410.22 507.07 400.75 502.57 391.07 498.19 381.38 494.66 371.45 491.28 361.38 488.07 351.3 485.64 341.09 483.19 330.92 480.62 320.85 478.56 310.97 476.12 301.54 473.2 292.53 470.5 284.3 467.13 277.19 463.03 270.95 458.96 266.17 454.07 263.14 448.37 261.24 442.65 261.19 436.1 263.02 428.8 265.69 421.46 269.88 413.39 275.33 404.63 280.69 395.87 286.37 386.87 291.98 377.77 296.63 368.68 300.92 359.5 304.76 350.38 307.45 341.29 309.86 332.28 312.14 323.51 313.61 314.85 315.31 306.51 317.43 298.67 319.21 291.06 321.7 284.09 325 277.97 328.27 272.25 332.45 267.53 337.52 263.99 342.64 261.01 348.63 259.31 355.41 259.01 362.2 259.29 369.74 260.94 377.97 263.99" stroke-dasharray="0 0" transform="rotate(61.03125, 400, 400)" opacity="0.96"></path><path d="M385.23 274.3C392.92 277.49 401.08 281.61 409.65 286.47 418.29 291.35 427.43 296.79 436.98 302.63 446.69 308.28 456.85 314.23 467.32 320.38 477.86 326.26 488.53 332.34 499 338.57 509.12 344.55 518.57 350.74 526.86 357.15 534.07 363.37 539.49 369.9 542.69 376.72 544.19 383.44 543.15 390.54 539.47 398 534.32 405.43 527 413.28 517.95 421.5 508.75 429.72 499.38 437.94 490.48 446.05 482.87 454.14 476.31 462.06 470.95 469.67 467.25 477.19 464.56 484.3 462.62 490.82 460.64 506.64 454.16 519.19 448.72 518.8 444.61 517.82 439.4 515.74 433.14 512.63 426.81 509.51 419.52 505.65 411.33 501.18 403.13 497.15 394.48 492.99 385.54 488.85 376.62 485.4 367.41 482.01 358.07 478.71 348.8 476.06 339.44 473.37 330.19 470.58 321.14 468.23 312.37 465.59 304.12 462.57 296.36 459.77 289.39 456.43 283.52 452.5 276.6 446.36 271.62 430.63 273.9 421.01 276.64 414.35 280.69 407.02 285.88 399.06 290.99 391.1 296.42 382.9 301.87 374.61 306.53 366.33 310.94 357.98 315.02 349.69 318.1 341.45 320.95 333.31 323.64 325.43 325.56 317.66 327.62 310.23 329.95 303.29 331.87 296.59 334.33 290.5 337.43 285.2 342.24 278.27 355.77 270.17 364.55 269.43 370.64 269.82 377.54 271.44 385.23 274.3" stroke-dasharray="0 0" transform="rotate(63.9375, 400, 400)" opacity="0.94"></path><path d="M394.06 284.62C401.21 287.55 408.86 291.34 416.92 295.79 425.03 300.29 433.6 305.32 442.51 310.74 451.48 316.04 460.77 321.66 470.19 327.49 479.52 333.12 488.79 338.96 497.67 344.96 506.11 350.75 513.77 356.74 520.26 362.91 525.77 368.93 529.65 375.19 531.6 381.67 532.18 388.08 530.64 394.77 526.94 401.72 522.11 408.65 515.49 415.89 507.41 423.38 499.2 430.88 490.75 438.28 482.58 445.5 475.35 452.69 468.86 459.66 463.26 466.27 458.98 472.79 455.48 478.87 452.65 484.37 448 497.47 439.95 507.31 435.01 506.7 431.39 505.74 426.84 503.83 421.35 501.05 415.83 498.29 409.4 494.86 402.12 490.86 394.83 487.23 387.08 483.41 379.02 479.55 371 476.22 362.71 472.89 354.33 469.58 346.05 466.79 337.75 463.94 329.64 460.99 321.77 458.43 314.24 455.62 307.28 452.51 297.96 447.96 285.15 436.65 282.44 429.67 281.87 424.84 282.69 419.4 284.91 413.38 287.65 407.34 291.54 400.72 296.43 393.54 301.25 386.36 306.4 378.98 311.63 371.52 316.23 364.09 320.68 356.6 324.9 349.19 328.31 341.84 331.52 334.61 334.6 327.65 336.98 320.8 339.43 314.29 342.06 308.27 345.55 299.85 354.55 286.88 360.48 282.8 367 280.29 383.74 281.17 394.06 284.62" stroke-dasharray="0 0" transform="rotate(66.84375, 400, 400)" opacity="0.23"></path><path d="M403.53 294.93C410.11 297.61 417.14 301.04 424.53 305.08 431.95 309.17 439.72 313.77 447.73 318.74 455.72 323.64 463.88 328.86 472 334.3 479.96 339.6 487.69 345.11 494.91 350.78 501.68 356.3 507.64 362 512.47 367.84 516.47 373.58 519.05 379.5 519.98 385.59 519.86 391.61 518 397.84 514.37 404.25 509.92 410.64 504 417.24 496.86 423.99 489.61 430.75 482.09 437.33 474.68 443.68 467.95 450 461.7 456.04 456.06 461.69 449.41 469.84 440.01 483.29 436.51 488.23 430.24 493.69 416.58 492.82 409.65 489.51 404.75 487.1 399.09 484.09 392.68 480.55 386.27 477.31 379.46 473.84 372.38 470.27 365.35 467.13 358.12 463.91 350.84 460.66 343.69 457.83 336.6 454.9 329.74 451.87 323.13 449.17 316.91 446.26 311.28 443.1 303.85 438.5 294.27 427.57 292.69 421.06 292.63 416.6 293.75 411.63 296.05 406.18 298.75 400.73 302.43 394.78 306.98 388.37 311.47 381.95 316.3 375.39 321.25 368.78 325.72 362.2 330.13 355.59 334.4 349.09 338.02 342.64 341.51 336.34 344.89 330.31 349.11 321.59 357.4 306.52 361.99 300.58 366.66 295.73 378.52 290.52 385.96 290.42 391.1 290.98 396.95 292.47 403.53 294.93" stroke-dasharray="0 0" transform="rotate(69.75, 400, 400)" opacity="0.57"></path><path d="M412.61 305.24C424.57 310.21 437.94 317.66 451.79 326.63 465.45 335.47 478.91 345.49 490.52 356.07 500.46 366.28 506.78 377.19 507.88 388.46 505.92 399.57 498.5 411.31 486.31 423.31 473.82 435.3 460.88 446.38 449.29 455.98 440.56 465.34 433.31 472.83 427.03 477.81 422.51 482.19 417.25 483.83 410.48 482.46 403.98 480.77 395.18 476.6 384.03 470.24 372.88 464.79 360.61 458.49 348.33 451.94 336.52 446.68 325.42 440.82 316.35 434.37 308.69 428.59 304.04 421.56 303.34 413.22 304.41 405.01 309.25 395.15 317.53 383.83 325.61 372.5 334.62 360.84 343.48 349.6 350.39 338.55 357.15 328.26 363.92 319.56 369.29 311.49 375.71 305.48 383.6 302.31 391.05 300.12 400.66 300.98 412.61 305.24" stroke-dasharray="0 0" transform="rotate(72.65625, 400, 400)" opacity="0.46"></path><path d="M420.36 315.55C431 319.95 442.49 326.5 453.98 334.43 465.21 342.32 475.78 351.33 484.37 360.89 491.59 370.22 495.61 380.17 495.37 390.34 492.97 400.41 486.27 410.89 475.76 421.36 465.02 431.82 453.58 441.25 442.87 449.21 434.12 457.01 426.32 463.07 419.33 466.95 413.75 470.44 407.84 471.63 401.09 470.35 394.65 468.91 386.67 465.38 377.08 459.93 367.49 455.16 357.32 449.48 347.43 443.42 337.93 438.3 329.33 432.58 322.66 426.33 317.08 420.64 314.11 413.96 314.41 406.31 315.95 398.79 320.58 390.02 328.08 380.17 335.42 370.31 343.75 360.34 352.15 350.88 359.14 341.58 366.17 333.06 373.2 326 379.12 319.43 385.79 314.68 393.48 312.34 400.79 310.74 409.71 311.71 420.36 315.55" stroke-dasharray="0 0" transform="rotate(75.5625, 400, 400)" opacity="0.94"></path><path d="M425.92 325.87C435.17 329.67 444.67 335.31 453.77 342.14 462.61 349.01 470.49 356.9 476.46 365.29 481.4 373.57 483.64 382.38 482.5 391.31 479.95 400.2 474.08 409.32 465.21 418.25 456.18 427.18 446.32 435.04 436.75 441.53 428.42 447.91 420.59 452.75 413.38 455.75 407.19 458.52 400.9 459.41 394.28 458.28 387.94 457.11 380.7 454.19 372.57 449.61 364.45 445.53 356.25 440.54 348.61 435.07 341.26 430.27 334.92 424.86 330.34 419.01 326.51 413.57 324.88 407.36 325.88 400.46 327.69 393.68 331.98 385.99 338.63 377.58 345.15 369.16 352.66 360.83 360.39 353.08 367.18 345.44 374.16 338.58 381.16 333.03 387.37 327.83 394.1 324.19 401.46 322.56 408.52 321.46 416.68 322.47 425.92 325.87" stroke-dasharray="0 0" transform="rotate(78.46875, 400, 400)" opacity="0.08"></path><path d="M428.73 336.18C436.48 339.38 444.02 344.09 450.86 349.8 457.49 355.57 463.03 362.23 466.86 369.34 470 376.41 470.96 383.93 469.36 391.51 466.89 399.07 461.93 406.75 454.66 414.15 447.29 421.55 439.07 427.94 430.83 433.12 423.33 438.22 415.98 442.03 409.05 444.33 402.77 446.51 396.51 447.19 390.24 446.27 384.18 445.36 377.74 443.04 371 439.3 364.25 435.91 357.85 431.65 352.2 426.89 344.53 420.11 336.67 404.57 337.75 395.73 339.63 389.77 343.46 383.2 349.17 376.2 354.81 369.2 361.35 362.45 368.22 356.29 374.51 350.22 381.09 344.88 387.72 340.67 393.84 336.7 400.33 334.02 407.13 332.97 413.73 332.27 420.97 333.27 428.73 336.18" stroke-dasharray="0 0" transform="rotate(81.375, 400, 400)" opacity="0.33"></path><path d="M428.46 346.49C440.85 351.81 450.9 361.68 455.75 373.14 459 384.6 455.28 397.53 444.11 409.28 432.68 421.04 418.82 429.24 406.11 432.79 394.88 436.16 383.34 435 372.51 428.99 361.68 423.84 353.44 415.64 349.86 406.39 347.27 397.84 350.39 387.31 359.72 376.12 368.83 364.92 380.82 355.16 392.87 348.93 403.79 343.27 416.07 341.93 428.46 346.49" stroke-dasharray="0 0" transform="rotate(84.28125, 400, 400)" opacity="0.23"></path><path d="M425.16 356.8C434.38 360.8 440.93 368.18 443.37 376.77 445.05 385.43 441.85 395.17 433.56 403.92 425.13 412.66 414.46 418.67 404.27 421.25 394.77 423.8 385.17 423.06 376.96 418.68 368.74 414.77 363.3 408.34 361.56 401.01 360.22 394.05 363.03 385.74 370.27 377.33 377.39 368.92 386.94 361.97 396.67 357.8 405.91 353.93 415.93 353.24 425.16 356.8" stroke-dasharray="0 0" transform="rotate(87.1875, 400, 400)" opacity="0.25"></path><path d="M419.17 367.12C431.3 372.6 433.67 386.76 423.02 398.33 412.11 409.9 395 414.2 383.86 408.37 372.72 403.36 370.97 391.01 380.82 379.77 390.44 368.51 407.04 362.41 419.17 367.12" stroke-dasharray="0 0" transform="rotate(90.09375, 400, 400)" opacity="0.66"></path></g></svg>