<svg xmlns="http://www.w3.org/2000/svg" version="1.1" xmlns:xlink="http://www.w3.org/1999/xlink" xmlns:svgjs="http://svgjs.dev/svgjs" viewBox="0 0 800 800"><defs><linearGradient x1="50%" y1="0%" x2="50%" y2="100%" id="ccchaos-grad"><stop stop-color="hsl(265, 55%, 30%)" stop-opacity="1" offset="0%"></stop><stop stop-color="hsl(265, 55%, 60%)" stop-opacity="1" offset="100%"></stop></linearGradient></defs><g stroke-width="3" stroke="url(#ccchaos-grad)" fill="none" stroke-linecap="round"><path d="M383.07 75.3C393.51 79.13 403.85 84.39 414.06 90.31 424.28 95.68 434.4 100.37 444.41 103.94 454.46 105.73 464.44 106.32 474.35 106.04 484.34 104.79 494.32 103.72 504.29 103.37 514.41 103.71 524.58 105.7 534.8 109.49 545.22 114.74 555.72 121.77 566.3 130.28 577.07 139.69 587.9 149.88 598.74 160.43 609.69 170.8 620.55 180.9 631.22 190.52 641.81 199.26 652.02 207.36 661.71 214.85 671.03 221.46 679.59 227.7 687.23 233.74 694.18 239.26 700.01 244.92 704.57 250.86 708.27 256.68 710.63 262.99 711.63 269.85 711.85 276.81 710.86 284.37 708.77 292.51 706.33 300.79 703.17 309.6 699.5 318.87 696.17 328.22 692.83 337.96 689.72 348.02 687.62 358.1 686.14 368.45 685.4 379.01 686 389.58 687.35 400.13 689.34 410.65 692.35 421.22 695.61 431.84 698.89 442.56 702.53 453.42 705.69 464.52 708.15 475.9 710.29 487.56 711.35 499.62 711.2 512.12 710.3 524.93 708.04 538.14 704.45 551.67 699.99 565.24 694.27 578.8 687.41 592.05 679.86 604.69 671.38 616.4 662.13 626.74 652.49 635.62 642.31 642.55 631.76 647.25 621.1 650.2 610.24 651.01 599.29 649.96 588.44 648.23 577.58 645.83 566.78 643.56 556.17 642.89 545.63 643.99 535.18 647.54 524.92 654.28 514.71 663.82 504.56 675.77 494.55 689.53 484.54 703.74 474.52 716.99 464.58 728.16 454.58 735.74 444.51 738.77 434.48 737.51 424.35 731.74 414.12 722.37 403.89 711.62 393.55 700.6 383.11 691.19 372.67 685.59 362.37 684.13 352.25 686.82 342.13 693.52 332.2 702.37 322.48 711.71 312.77 720.56 303.3 726.73 294.09 729.15 284.91 727.82 276.01 722.12 267.42 712.64 258.86 700.5 250.61 686.53 242.7 671.96 234.8 658.02 227.24 645.48 220.01 634.92 212.77 626.92 205.84 621.23 199.24 617.54 192.57 615.9 186.18 615.26 180.08 614.96 173.84 615.1 167.86 614.49 162.12 612.73 156.2 610.18 150.51 606.02 145.05 600.27 139.4 593.43 133.97 585.13 128.81 575.64 123.48 565.34 118.43 554.23 113.7 542.56 108.88 530.52 104.43 518.24 100.41 505.92 96.39 493.49 92.85 481.19 89.86 469.1 86.95 457.03 84.65 445.21 82.99 433.7 81.5 422.21 80.68 411.01 80.6 400.14 80.7 389.26 81.53 378.94 83.04 369.16 84.72 359.35 87.04 350.06 89.95 341.25 92.95 332.38 96.49 323.92 100.51 315.85 104.53 307.59 108.96 299.58 113.77 291.72 118.48 283.5 123.52 275.24 128.83 266.82 133.97 257.84 139.37 248.54 145 238.83 150.44 228.51 156.11 217.8 162 206.77 167.72 195.44 173.69 184.11 179.9 173.06 185.99 162.4 192.37 152.58 199.04 143.93 205.64 136.39 212.57 130.41 219.81 126.12 227.04 123 234.61 121.28 242.51 120.71 250.43 120.29 258.69 120.09 267.27 119.62 275.87 117.91 284.79 115.16 293.98 111.23 303.2 105.73 312.68 99.38 322.4 92.69 332.13 85.86 342.07 79.99 352.2 75.75 362.33 73.18 372.62 73.02 383.06 75.3" stroke-dasharray="0 0" transform="rotate(0, 400, 400)" opacity="0.59"></path><path d="M383.76 85.57C393.87 89.34 403.92 94.51 413.88 100.35 423.86 105.75 433.78 110.56 443.62 114.37 453.51 116.49 463.36 117.43 473.18 117.45 483.09 116.4 493 115.33 502.92 114.75 512.98 114.62 523.09 115.9 533.25 118.8 543.56 123.05 553.94 129.05 564.36 136.6 574.92 145.18 585.49 154.77 596.01 164.98 606.57 175.29 616.98 185.59 627.13 195.64 637.12 205.04 646.7 213.9 655.7 222.21 664.29 229.69 672.11 236.7 679.01 243.4 685.25 249.48 690.39 255.5 694.34 261.61 697.5 267.44 699.43 273.58 700.1 280.13 700.1 286.63 699.01 293.64 696.93 301.17 694.6 308.74 691.62 316.85 688.21 325.45 685.15 334.09 682.09 343.18 679.25 352.69 677.35 362.21 676 372.11 675.32 382.37 675.87 392.64 677.09 403.03 678.88 413.55 681.63 424.12 684.61 434.87 687.62 445.83 691 456.91 693.97 468.29 696.32 479.99 698.43 491.88 699.58 504.12 699.64 516.68 699.06 529.36 697.23 542.24 694.16 555.16 690.32 567.86 685.27 580.23 679.12 591.96 672.32 602.85 664.58 612.56 656.05 620.72 647.11 627.47 637.58 632.31 627.62 635.14 617.5 636.61 607.1 636.4 596.55 634.89 586.03 633.28 575.45 631.56 564.87 630.49 554.42 631.33 544.01 634.11 533.67 639.31 523.48 647.42 513.34 657.91 503.26 670.29 493.3 683.89 483.36 697.43 473.43 709.61 463.58 719.51 453.71 725.84 443.8 727.84 433.93 725.9 424 719.88 414.02 710.69 404.04 700.37 393.99 689.89 383.88 680.93 373.76 675.49 363.83 673.86 354.08 676.06 344.34 682.07 334.8 690.21 325.49 699.05 316.19 707.74 307.13 714.23 298.34 717.49 289.56 717.43 281.06 713.29 272.86 705.45 264.67 694.84 256.79 682.04 249.22 668.16 241.65 654.32 234.39 641.26 227.44 629.69 220.46 620.2 213.77 612.79 207.37 607.35 200.89 604 194.67 601.96 188.71 600.67 182.61 600.25 176.74 599.6 171.1 598.29 165.28 596.64 159.67 593.76 154.28 589.54 148.7 584.48 143.35 578.03 138.24 570.37 132.98 561.93 128 552.53 123.33 542.39 118.58 531.8 114.19 520.75 110.22 509.46 106.25 497.98 102.77 486.44 99.81 474.97 96.95 463.45 94.68 452.09 93.04 440.94 91.57 429.81 90.77 418.9 90.68 408.28 90.79 397.65 91.61 387.53 93.1 377.89 94.75 368.22 97.04 358.99 99.91 350.16 102.87 341.24 106.37 332.63 110.33 324.27 114.29 315.7 118.67 307.24 123.42 298.81 128.07 290 133.04 281.05 138.28 271.88 143.36 262.21 148.69 252.22 154.24 241.89 159.61 231.12 165.2 220.12 170.99 209.01 176.61 197.86 182.46 186.96 188.54 176.59 194.49 166.83 200.69 158.08 207.17 150.61 213.55 144.28 220.24 139.47 227.22 136.2 234.17 133.89 241.43 132.74 249.01 132.44 256.58 132.03 264.47 131.61 272.67 130.73 280.88 128.53 289.39 125.29 298.17 120.93 306.98 115.14 316.05 108.67 325.36 102 334.67 95.33 344.22 89.69 353.96 85.7 363.71 83.33 373.64 83.27 383.75 85.56" stroke-dasharray="0 0" transform="rotate(3.206896551724138, 400, 400)" opacity="0.52"></path><path d="M385.14 95.83C394.93 99.54 404.7 104.61 414.42 110.37 424.15 115.77 433.86 120.69 443.53 124.71 453.25 127.15 462.96 128.46 472.66 128.81 482.44 128.02 492.24 127.03 502.07 126.32 512 125.83 521.99 126.5 532.01 128.6 542.15 131.88 552.33 136.84 562.52 143.36 572.79 150.99 583.02 159.79 593.13 169.42 603.24 179.4 613.13 189.64 622.7 199.85 632.07 209.68 640.98 219.14 649.27 228.15 657.15 236.44 664.24 244.28 670.42 251.72 675.98 258.52 680.49 265.13 683.87 271.67 686.55 277.82 688.09 284.12 688.48 290.66 688.31 297.05 687.16 303.81 685.12 311.02 682.9 318.18 680.12 325.82 676.97 333.95 674.17 342.08 671.39 350.69 668.8 359.77 667.09 368.84 665.87 378.38 665.24 388.37 665.74 398.36 666.84 408.59 668.45 419.04 670.94 429.52 673.65 440.27 676.39 451.29 679.51 462.38 682.28 473.78 684.51 485.46 686.57 497.22 687.77 509.23 688 521.39 687.69 533.49 686.24 545.56 683.64 557.4 680.36 568.82 675.94 579.64 670.47 589.56 664.38 598.54 657.36 606.21 649.56 612.3 641.33 617.12 632.48 620.22 623.14 621.61 613.61 622.1 603.74 621.39 593.65 619.93 583.54 618.87 573.31 618.18 563.03 618.53 552.83 620.94 542.63 625.35 532.47 632.04 522.43 641.26 512.41 652.44 502.46 664.97 492.6 678.19 482.77 690.89 472.97 701.92 463.25 710.56 453.52 715.68 443.78 716.73 434.09 714.2 424.37 708 414.62 699.01 404.89 689.13 395.12 679.18 385.32 670.66 375.52 665.4 365.92 663.62 356.54 665.36 347.16 670.69 337.99 678.13 329.06 686.42 320.14 694.86 311.46 701.56 303.05 705.5 294.64 706.56 286.5 703.88 278.66 697.64 270.81 688.62 263.25 677.18 255.99 664.25 248.71 650.85 241.72 637.68 235.02 625.46 228.26 614.83 221.78 605.94 215.56 598.85 209.25 593.78 203.17 590.16 197.34 587.57 191.36 586.15 185.59 584.95 180.03 583.54 174.3 582.22 168.76 580.06 163.43 576.89 157.93 573.17 152.65 568.25 147.6 562.19 142.41 555.47 137.5 547.73 132.89 539.16 128.21 530.12 123.89 520.46 119.97 510.38 116.08 500.06 112.65 489.5 109.73 478.84 106.93 468.1 104.69 457.36 103.07 446.72 101.63 436.06 100.85 425.54 100.76 415.18 100.87 404.83 101.68 394.87 103.14 385.31 104.77 375.71 107.02 366.44 109.84 357.46 112.76 348.37 116.2 339.48 120.1 330.72 124 321.74 128.32 312.77 132.99 303.72 137.58 294.33 142.48 284.76 147.65 274.95 152.67 264.75 157.94 254.3 163.42 243.62 168.72 232.72 174.23 221.76 179.94 210.91 185.47 200.25 191.22 190.07 197.18 180.63 203 171.94 209.06 164.38 215.36 158.16 221.56 153.01 228.04 149.26 234.79 146.89 241.48 145.22 248.47 144.46 255.76 144.26 263.01 143.73 270.58 142.97 278.43 141.62 286.28 138.92 294.42 135.2 302.84 130.44 311.25 124.41 319.94 117.86 328.87 111.26 337.8 104.79 346.97 99.4 356.35 95.65 365.74 93.48 375.34 93.54 385.13 95.83" stroke-dasharray="0 0" transform="rotate(6.413793103448276, 400, 400)" opacity="0.61"></path><path d="M387.14 106.1C396.63 109.74 406.12 114.69 415.6 120.36 425.09 125.75 434.58 130.75 444.06 134.96 453.58 137.71 463.12 139.38 472.67 140.08 482.28 139.6 491.93 138.78 501.6 138.04 511.36 137.31 521.16 137.49 530.97 138.88 540.87 141.27 550.78 145.22 560.64 150.68 570.55 157.26 580.37 165.12 590.02 173.97 599.61 183.38 608.93 193.28 617.89 203.39 626.61 213.37 634.83 223.18 642.42 232.69 649.59 241.66 655.98 250.23 661.47 258.41 666.39 265.99 670.32 273.3 673.19 280.43 675.44 287.12 676.64 293.82 676.8 300.63 676.5 307.18 675.31 314 673.34 321.14 671.25 328.17 668.68 335.6 665.78 343.47 663.24 351.3 660.71 359.6 658.37 368.36 656.83 377.12 655.74 386.36 655.16 396.09 655.62 405.83 656.6 415.85 658.03 426.12 660.29 436.43 662.74 447.01 665.22 457.85 668.08 468.72 670.64 479.83 672.73 491.13 674.72 502.41 675.95 513.79 676.3 525.14 676.21 536.27 675.08 547.16 672.91 557.57 670.13 567.44 666.29 576.51 661.45 584.53 656.04 591.63 649.73 597.39 642.64 601.65 635.12 604.89 626.96 606.69 618.28 607.16 609.36 607.17 600.07 606.46 590.5 605.5 580.87 605.34 571.06 605.93 561.15 607.8 551.28 611.77 541.37 617.67 531.45 625.63 521.62 635.7 511.81 647.27 502.03 659.7 492.34 672.34 482.67 684.08 473.04 693.91 463.47 701.29 453.91 705.28 444.37 705.45 434.87 702.41 425.37 696.1 415.87 687.34 406.38 677.91 396.88 668.49 387.39 660.4 377.89 655.31 368.61 653.39 359.57 654.71 350.52 659.4 341.7 666.14 333.13 673.85 324.55 681.97 316.22 688.74 308.16 693.21 300.08 695.24 292.28 693.88 284.75 689.19 277.21 681.78 269.94 671.8 262.96 660.04 255.93 647.41 249.18 634.49 242.69 622.01 236.14 610.61 229.83 600.57 223.77 592.06 217.6 585.36 211.65 580.12 205.92 576.08 200.05 573.36 194.36 571.2 188.88 569.22 183.23 567.67 177.76 565.69 172.5 563.04 167.07 560.16 161.85 556.32 156.87 551.5 151.76 546.2 146.91 539.93 142.37 532.8 137.77 525.24 133.53 516.98 129.68 508.16 125.86 499.08 122.49 489.61 119.63 479.88 116.88 470.04 114.69 460.06 113.11 450.01 111.7 439.94 110.93 429.86 110.84 419.82 110.95 409.77 111.74 399.99 113.17 390.47 114.78 380.91 116.98 371.56 119.74 362.38 122.61 353.09 125.99 343.89 129.81 334.71 133.66 325.34 137.9 315.89 142.49 306.32 147.02 296.48 151.85 286.45 156.94 276.22 161.9 265.76 167.1 255.14 172.5 244.44 177.74 233.72 183.18 223.14 188.81 212.87 194.27 203 199.93 193.78 205.78 185.46 211.49 177.96 217.42 171.63 223.57 166.62 229.62 162.56 235.91 159.75 242.46 158.09 248.93 156.89 255.69 156.33 262.71 156.09 269.69 155.31 276.96 154.13 284.5 152.26 292.02 149.06 299.83 144.87 307.9 139.76 315.97 133.55 324.3 126.97 332.88 120.48 341.46 114.23 350.28 109.1 359.33 105.6 368.37 103.64 377.64 103.8 387.13 106.09" stroke-dasharray="0 0" transform="rotate(9.620689655172413, 400, 400)" opacity="0.52"></path><path d="M389.69 116.36C398.88 119.93 408.1 124.77 417.32 130.32 426.56 135.68 435.83 140.74 445.1 145.11 454.4 148.15 463.74 150.18 473.09 151.26 482.5 151.12 491.94 150.53 501.4 149.86 510.92 149 520.46 148.82 530 149.62 539.59 151.22 549.15 154.22 558.63 158.64 568.11 164.14 577.45 170.95 586.59 178.86 595.61 187.48 604.33 196.79 612.65 206.52 620.71 216.36 628.24 226.24 635.13 236 641.61 245.42 647.32 254.55 652.18 263.35 656.5 271.65 659.9 279.66 662.31 287.43 664.18 294.78 665.1 302.02 665.08 309.26 664.67 316.21 663.48 323.29 661.6 330.58 659.66 337.71 657.29 345.15 654.63 352.95 652.35 360.67 650.07 368.81 647.95 377.37 646.59 385.92 645.61 394.92 645.08 404.4 645.5 413.88 646.37 423.63 647.63 433.61 649.66 443.61 651.86 453.84 654.1 464.25 656.71 474.66 659.06 485.21 661 495.81 662.89 506.31 664.11 516.73 664.56 526.93 664.64 536.83 663.79 546.29 661.99 555.1 659.65 563.32 656.34 570.62 652.09 576.83 647.32 582.21 641.68 586.34 635.27 589.16 628.45 591.26 620.98 592.25 612.97 592.31 604.7 592.33 596.02 592.07 587.02 591.97 577.91 592.98 568.59 594.98 559.12 598.39 549.64 603.81 540.08 611.02 530.49 619.97 520.94 630.62 511.38 642.31 501.85 654.38 492.37 666.26 482.92 676.94 473.5 685.55 464.13 691.71 454.78 694.63 445.46 694.03 436.17 690.56 426.9 684.19 417.65 675.69 408.41 666.71 399.18 657.8 389.98 650.13 380.78 645.22 371.81 643.19 363.09 644.12 354.35 648.18 345.85 654.24 337.61 661.35 329.35 669.07 321.34 675.81 313.59 680.66 305.83 683.5 298.32 683.33 291.08 680.08 283.81 674.24 276.8 665.81 270.06 655.38 263.26 643.76 256.71 631.44 250.41 619.08 244.03 607.32 237.88 596.49 231.95 586.87 225.91 578.76 220.07 572 214.44 566.47 208.65 562.3 203.05 558.91 197.63 555.99 192.06 553.76 186.66 551.46 181.46 548.83 176.11 546.25 170.96 543 166.05 538.99 161.02 534.7 156.25 529.56 151.79 523.61 147.27 517.34 143.11 510.32 139.33 502.68 135.6 494.81 132.3 486.43 129.5 477.65 126.82 468.76 124.68 459.58 123.13 450.19 121.76 440.77 121.01 431.19 120.92 421.49 121.03 411.8 121.8 402.22 123.2 392.76 124.77 383.28 126.92 373.87 129.62 364.51 132.43 355.07 135.73 345.61 139.47 336.1 143.25 326.45 147.41 316.68 151.91 306.77 156.37 296.69 161.12 286.46 166.13 276.11 171.03 265.68 176.15 255.22 181.48 244.85 186.66 234.64 192.03 224.74 197.58 215.34 202.97 206.47 208.55 198.39 214.31 191.29 219.92 185.02 225.74 179.9 231.77 176 237.68 172.89 243.81 170.84 250.18 169.71 256.47 168.79 263.01 168.27 269.8 167.82 276.53 166.68 283.54 165.02 290.81 162.62 298.04 158.92 305.55 154.31 313.31 148.9 321.06 142.57 329.07 136 337.32 129.66 345.57 123.66 354.06 118.81 362.8 115.57 371.52 113.81 380.48 114.07 389.68 116.36" stroke-dasharray="0 0" transform="rotate(12.827586206896552, 400, 400)" opacity="0.12"></path><path d="M392.67 126.62C401.57 130.11 410.52 134.82 419.48 140.26 428.46 145.56 437.47 150.66 446.5 155.17 455.57 158.48 464.66 160.85 473.78 162.3 482.93 162.54 492.12 162.24 501.3 161.72 510.53 160.85 519.77 160.44 528.96 160.79 538.18 161.72 547.33 163.86 556.36 167.3 565.36 171.72 574.18 177.44 582.75 184.31 591.19 191.97 599.28 200.47 606.94 209.57 614.33 218.98 621.18 228.63 627.4 238.36 633.21 247.94 638.29 257.38 642.55 266.6 646.33 275.45 649.25 284.05 651.26 292.42 652.8 300.4 653.48 308.22 653.32 315.96 652.85 323.41 651.68 330.89 649.9 338.46 648.12 345.87 645.95 353.47 643.55 361.32 641.5 369.09 639.46 377.18 637.56 385.62 636.36 394.04 635.48 402.84 635 412.05 635.38 421.26 636.15 430.66 637.26 440.23 639.07 449.8 641.04 459.51 643.03 469.29 645.4 479.04 647.53 488.79 649.31 498.44 651.09 507.93 652.28 517.19 652.78 526.06 652.99 534.58 652.37 542.53 650.89 549.72 647.53 559.19 635.72 572.1 627.47 575.38 621.32 576.82 614.53 577.49 607.19 577.63 599.59 578.09 591.54 578.64 583.13 579.67 574.6 581.98 565.8 585.43 556.81 590.3 547.79 597.01 538.65 605.27 529.43 614.94 520.24 625.86 511 637.4 501.76 648.92 492.57 659.9 483.37 669.44 474.2 676.82 465.08 681.81 455.97 683.75 446.9 682.45 437.85 678.63 428.83 672.26 419.84 664.06 410.87 655.53 401.92 647.13 393 639.87 384.09 635.13 375.42 633 366.99 633.57 358.56 637.05 350.36 642.44 342.42 648.93 334.46 656.2 326.74 662.8 319.28 667.9 311.79 671.38 304.55 672.24 297.57 670.3 290.54 665.98 283.76 659.09 277.22 650.11 270.63 639.72 264.26 628.27 258.12 616.39 251.89 604.67 245.88 593.44 240.07 583.06 234.14 573.85 228.39 565.79 222.84 558.87 217.14 553.24 211.62 548.51 206.27 544.43 200.77 541.19 195.44 538.17 190.31 535.12 185.03 532.36 179.96 529.21 175.12 525.55 170.18 521.81 165.5 517.39 161.12 512.28 156.71 506.97 152.63 500.95 148.94 494.3 145.29 487.47 142.08 480.07 139.35 472.18 136.74 464.2 134.66 455.81 133.15 447.07 131.81 438.31 131.09 429.26 131 419.96 131.11 410.66 131.86 401.33 133.22 391.99 134.75 382.64 136.85 373.26 139.47 363.83 142.21 354.35 145.44 344.78 149.09 335.11 152.78 325.36 156.85 315.48 161.26 305.5 165.63 295.45 170.3 285.32 175.22 275.18 180.05 265.1 185.1 255.13 190.35 245.41 195.46 235.99 200.76 227.03 206.24 218.71 211.56 210.99 217.06 204.13 222.73 198.27 228.27 193.19 233.99 189.18 239.89 186.25 245.69 183.91 251.69 182.43 257.9 181.62 264.02 180.79 270.38 180.14 276.96 179.37 283.49 177.79 290.26 175.61 297.28 172.66 304.26 168.49 311.5 163.52 318.98 157.87 326.44 151.46 334.15 144.97 342.11 138.81 350.05 133.08 358.24 128.53 366.67 125.55 375.09 123.99 383.76 124.35 392.66 126.62" stroke-dasharray="0 0" transform="rotate(16.03448275862069, 400, 400)" opacity="0.58"></path><path d="M395.96 136.89C404.58 140.29 413.24 144.87 421.93 150.17 430.63 155.4 439.37 160.5 448.14 165.13 456.93 168.68 465.75 171.37 474.58 173.2 483.44 173.84 492.32 173.88 501.18 173.59 510.07 172.81 518.93 172.29 527.72 172.32 536.51 172.72 545.21 174.14 553.75 176.68 562.22 180.08 570.48 184.72 578.46 190.49 586.28 197.08 593.74 204.6 600.74 212.87 607.47 221.58 613.66 230.73 619.22 240.13 624.42 249.57 628.9 259.03 632.62 268.4 635.91 277.57 638.39 286.56 640.05 295.35 641.32 303.85 641.8 312.18 641.54 320.38 641.03 328.32 639.91 336.22 638.26 344.13 636.63 351.87 634.68 359.7 632.51 367.68 630.69 375.58 628.88 383.69 627.19 392.05 626.13 400.38 625.36 408.99 624.92 417.9 625.26 426.8 625.94 435.8 626.9 444.85 628.51 453.89 630.25 462.95 632.01 471.95 634.14 480.89 636.06 489.69 637.68 498.25 639.33 506.63 640.47 514.63 641 522.13 641.08 532.54 636.84 548.93 632.41 554.52 626.56 558.56 610.67 562.61 600.92 563.66 593.97 564.9 586.56 566.51 578.78 568.83 570.84 572.48 562.6 577.31 554.15 583.48 545.63 591.24 536.95 600.28 528.17 610.37 519.38 621.29 510.52 632.44 501.63 643.21 492.77 653.18 483.88 661.55 475.01 667.72 466.18 671.6 457.35 672.64 448.55 670.75 439.77 666.65 431.02 660.34 422.31 652.45 413.61 644.37 404.94 636.46 396.32 629.6 387.7 625.05 379.31 622.84 371.17 623.08 363.03 626.01 355.12 630.74 347.45 636.6 339.77 643.38 332.32 649.75 325.12 654.96 317.88 658.92 310.88 660.64 304.12 659.88 297.31 656.97 290.73 651.6 284.38 644.1 277.96 635.08 271.75 624.75 265.76 613.65 259.67 602.33 253.77 591.11 248.06 580.36 242.24 570.41 236.58 561.36 231.1 553.28 225.49 546.32 220.04 540.26 214.76 534.94 209.34 530.51 204.09 526.5 199.02 522.7 193.84 519.36 188.85 515.89 184.09 512.15 179.25 508.51 174.67 504.4 170.38 499.74 166.07 495.01 162.09 489.68 158.5 483.75 154.95 477.71 151.83 471.11 149.18 463.97 146.64 456.77 144.62 449.08 143.16 440.98 141.87 432.84 141.16 424.32 141.08 415.44 141.19 406.57 141.92 397.55 143.23 388.43 144.72 379.31 146.75 370.07 149.3 360.72 151.97 351.36 155.1 341.87 158.65 332.27 162.25 322.66 166.23 312.94 170.53 303.18 174.82 293.45 179.39 283.73 184.21 274.12 188.96 264.68 193.92 255.49 199.09 246.68 204.13 238.26 209.36 230.42 214.75 223.3 220.01 216.78 225.44 211.15 231.03 206.48 236.48 202.47 242.11 199.41 247.91 197.26 253.6 195.5 259.48 194.36 265.55 193.67 271.53 192.76 277.72 191.83 284.13 190.64 290.47 188.56 297.04 185.84 303.83 182.37 310.59 177.78 317.58 172.49 324.81 166.66 332 160.25 339.44 153.88 347.12 147.94 354.78 142.51 362.69 138.27 370.83 135.55 378.96 134.18 387.33 134.63 395.95 136.89" stroke-dasharray="0 0" transform="rotate(19.241379310344826, 400, 400)" opacity="0.83"></path><path d="M399.42 147.15C407.75 150.46 416.12 154.9 424.52 160.05 432.93 165.19 441.38 170.28 449.85 175 458.33 178.75 466.84 181.75 475.35 183.93 483.87 184.98 492.4 185.4 500.88 185.4 509.38 184.81 517.82 184.3 526.17 184.15 534.49 184.17 542.68 185 550.69 186.78 558.61 189.26 566.29 192.86 573.66 197.55 580.86 203.02 587.67 209.47 594.03 216.74 600.12 224.56 605.68 232.95 610.63 241.74 615.24 250.75 619.18 259.93 622.4 269.16 625.24 278.34 627.36 287.45 628.72 296.43 629.75 305.24 630.09 313.91 629.76 322.43 629.25 330.77 628.2 339.02 626.67 347.2 625.21 355.25 623.46 363.31 621.53 371.41 619.93 379.45 618.34 387.58 616.83 395.85 615.92 404.09 615.24 412.5 614.84 421.07 615.14 429.64 615.73 438.17 616.56 446.63 617.98 455.08 619.51 463.41 621.05 471.55 622.95 479.62 624.66 487.42 626.11 494.87 627.62 502.14 628.68 508.94 629.21 515.16 629.42 523.73 625.95 536.73 622.14 541.06 617.04 544.37 602.93 548.74 594.13 550.89 587.83 553.12 581.06 555.94 573.9 559.58 566.58 564.52 558.93 570.58 551.03 577.82 543.05 586.37 534.88 595.88 526.57 606.09 518.24 616.75 509.8 627.3 501.31 637.17 492.82 646.05 484.3 653.23 475.77 658.23 467.26 661.09 458.75 661.32 450.26 658.92 441.78 654.63 433.33 648.41 424.91 640.85 416.5 633.23 408.12 625.8 399.79 619.34 391.46 614.97 383.36 612.7 375.5 612.63 367.63 615.04 359.99 619.15 352.59 624.39 345.16 630.63 337.96 636.68 331 641.89 324 646.18 317.21 648.59 310.66 648.84 304.05 647.2 297.65 643.27 291.46 637.27 285.2 629.7 279.13 620.65 273.26 610.59 267.3 599.99 261.51 589.15 255.9 578.42 250.17 568.14 244.6 558.46 239.2 549.51 233.68 541.47 228.3 534.24 223.09 527.74 217.76 522.1 212.59 516.98 207.61 512.23 202.52 508.04 197.63 503.93 192.96 499.76 188.23 495.84 183.75 491.64 179.57 487.07 175.37 482.55 171.51 477.55 168.01 472.06 164.57 466.53 161.55 460.47 158.98 453.91 156.53 447.3 154.58 440.21 153.16 432.65 151.92 425.07 151.24 417.05 151.16 408.62 151.27 400.19 151.97 391.55 153.24 382.76 154.67 373.97 156.64 365.01 159.11 355.93 161.69 346.86 164.73 337.66 168.17 328.39 171.67 319.15 175.54 309.87 179.73 300.62 183.91 291.48 188.38 282.45 193.1 273.63 197.75 265.08 202.62 256.87 207.69 249.15 212.66 241.87 217.8 235.22 223.11 229.32 228.3 223.99 233.65 219.49 239.15 215.88 244.53 212.77 250.07 210.46 255.77 208.88 261.37 207.46 267.14 206.46 273.08 205.71 278.93 204.56 284.98 203.24 291.22 201.54 297.4 198.93 303.78 195.68 310.38 191.72 316.93 186.77 323.7 181.23 330.69 175.3 337.65 168.94 344.84 162.74 352.26 157.07 359.65 151.95 367.28 148.01 375.15 145.56 383 144.38 391.09 144.92 399.41 147.15" stroke-dasharray="0 0" transform="rotate(22.448275862068968, 400, 400)" opacity="0.76"></path><path d="M402.91 157.42C410.93 160.63 419 164.92 427.1 169.91 435.2 174.94 443.33 179.99 451.47 184.76 459.62 188.69 467.79 191.95 475.93 194.48 484.08 195.94 492.21 196.76 500.28 197.11 508.35 196.77 516.33 196.39 524.19 196.19 532.01 195.98 539.67 196.39 547.12 197.56 554.47 199.24 561.55 201.92 568.3 205.58 574.89 209.95 581.08 215.29 586.81 221.47 592.29 228.25 597.25 235.7 601.63 243.66 605.7 251.96 609.14 260.58 611.92 269.38 614.38 278.27 616.17 287.2 617.28 296.11 618.13 304.95 618.36 313.71 617.99 322.36 617.5 330.89 616.53 339.33 615.15 347.67 613.86 355.91 612.31 364.11 610.6 372.26 609.21 380.37 607.82 388.48 606.5 396.61 605.71 404.73 605.12 412.89 604.76 421.09 605.03 429.29 605.54 437.33 606.24 445.17 607.49 452.99 608.81 460.58 610.14 467.87 611.81 475.09 613.33 481.94 614.6 488.36 616.45 497.5 617.73 512.66 616.82 518.47 614.89 523.37 607.2 530.31 601.49 532.95 597.17 535.01 592.27 537.18 586.84 539.68 581.16 543.03 575.02 547.08 568.48 551.97 561.77 558.05 554.72 565.12 547.4 573.16 539.98 582.19 532.34 591.88 524.54 601.93 516.7 612.1 508.72 621.86 500.67 630.73 492.61 638.47 484.48 644.47 476.33 648.36 468.18 650.28 460.02 649.8 451.87 646.99 443.72 642.56 435.59 636.48 427.48 629.28 419.38 622.12 411.3 615.16 403.27 609.07 395.23 604.89 387.42 602.58 379.84 602.24 372.24 604.16 364.86 607.67 357.71 612.28 350.53 617.96 343.57 623.64 336.82 628.72 330.04 633.2 323.46 636.13 317.08 637.22 310.66 636.71 304.42 634.11 298.38 629.54 292.27 623.44 286.34 615.79 280.58 606.94 274.74 597.34 269.05 587.19 263.53 576.86 257.91 566.64 252.43 556.72 247.11 547.28 241.67 538.49 236.38 530.34 231.25 522.84 226.02 516.1 220.94 509.91 216.05 504.16 211.06 498.99 206.28 494.06 201.72 489.23 197.11 484.74 192.75 480.15 188.68 475.36 184.61 470.71 180.86 465.74 177.48 460.4 174.16 455.08 171.24 449.33 168.76 443.14 166.4 436.93 164.53 430.27 163.16 423.16 161.97 416.04 161.32 408.49 161.24 400.51 161.34 392.53 162.02 384.33 163.24 375.96 164.62 367.59 166.52 359.07 168.89 350.43 171.39 341.83 174.32 333.13 177.65 324.41 181.04 315.77 184.79 307.16 188.86 298.66 192.92 290.32 197.27 282.19 201.87 274.37 206.42 266.85 211.19 259.76 216.16 253.21 221.03 247.09 226.09 241.62 231.3 236.88 236.41 232.62 241.67 229.1 247.09 226.35 255.11 223.04 271.77 219.08 280.43 217.56 286.17 216.05 292.08 214.25 298.17 212.01 304.2 208.87 310.42 205.12 316.83 200.73 323.19 195.47 329.75 189.77 336.53 183.8 343.26 177.55 350.22 171.57 357.38 166.19 364.53 161.4 371.9 157.78 379.49 155.58 387.06 154.59 394.87 155.21 402.9 157.42" stroke-dasharray="0 0" transform="rotate(25.655172413793103, 400, 400)" opacity="0.85"></path><path d="M406.27 167.68C413.99 170.79 421.75 174.92 429.51 179.75 437.29 184.65 445.08 189.64 452.86 194.42 460.66 198.49 468.44 201.99 476.19 204.84 483.94 206.68 491.64 207.91 499.26 208.64 506.86 208.65 514.35 208.49 521.7 208.36 529 208.07 536.11 208.2 542.98 208.92 549.75 209.98 556.24 211.87 562.38 214.62 568.37 217.96 573.95 222.21 579.08 227.3 583.99 232.96 588.39 239.35 592.24 246.33 595.83 253.71 598.83 261.52 601.22 269.64 603.34 277.95 604.86 286.43 605.77 294.97 606.47 303.56 606.62 312.14 606.25 320.66 605.8 329.15 604.93 337.56 603.7 345.87 602.57 354.13 601.22 362.31 599.72 370.4 598.53 378.46 597.33 386.45 596.18 394.38 595.52 402.3 595.01 410.17 594.68 417.96 594.92 425.76 595.35 433.29 595.94 440.52 597.02 447.74 598.16 454.63 599.29 461.15 601.4 470.62 604.81 487.13 605.7 494 604.85 504.93 597.05 517.11 592.05 520.66 588.25 523.53 583.9 526.68 579.04 530.3 573.96 534.77 568.42 539.96 562.48 545.95 556.37 552.94 549.92 560.74 543.19 569.28 536.34 578.5 529.26 588.08 521.98 597.72 514.66 607.19 507.18 616.03 499.59 623.82 491.98 630.4 484.29 635.26 476.55 638.12 468.8 639.18 461.02 638.1 453.23 634.96 445.44 630.47 437.65 624.57 429.87 617.74 422.1 611.02 414.34 604.52 406.61 598.81 398.88 594.81 391.36 592.47 384.04 591.89 376.72 593.37 369.6 596.3 362.69 600.31 355.75 605.4 349.01 610.64 342.47 615.52 335.9 620.04 329.51 623.33 323.31 625.09 317.06 625.53 310.98 624.11 305.08 620.88 299.12 616.22 293.31 609.99 287.67 602.47 281.94 594.06 276.36 584.89 270.93 575.26 265.41 565.48 260.03 555.71 254.79 546.16 249.46 536.99 244.26 528.27 239.23 520.06 234.1 512.45 229.13 505.33 224.34 498.68 219.48 492.56 214.81 486.75 210.37 481.16 205.89 475.95 201.67 470.78 197.72 465.57 193.79 460.55 190.17 455.36 186.91 449.93 183.71 444.58 180.9 438.91 178.52 432.9 176.26 426.9 174.46 420.53 173.16 413.77 172.02 407.01 171.39 399.85 171.32 392.32 171.42 384.79 172.07 377.06 173.24 369.19 174.56 361.34 176.38 353.37 178.66 345.32 181.06 337.32 183.88 329.3 187.08 321.32 190.35 313.44 193.97 305.66 197.91 298.08 201.85 290.69 206.07 283.59 210.54 276.86 214.97 270.43 219.63 264.47 224.47 259.07 229.24 254.05 234.2 249.65 239.31 245.92 246.91 241.18 262.7 234.98 270.88 233.07 276.29 231.72 281.84 230.44 287.55 229.07 293.17 227.11 298.96 224.79 304.91 221.99 310.79 218.35 316.85 214.13 323.08 209.38 329.27 203.91 335.64 198.11 342.21 192.18 348.73 186.1 355.46 180.38 362.39 175.31 369.29 170.87 376.4 167.57 383.72 165.63 391.02 164.81 398.54 165.5 406.26 167.68" stroke-dasharray="0 0" transform="rotate(28.862068965517242, 400, 400)" opacity="0.11"></path><path d="M409.37 177.95C416.77 180.95 424.2 184.92 431.62 189.56 439.05 194.32 446.48 199.21 453.89 203.99 461.29 208.16 468.67 211.86 476 214.99 483.31 217.2 490.56 218.84 497.7 219.97 504.82 220.35 511.8 220.49 518.62 220.55 525.38 220.31 531.93 220.33 538.23 220.76 544.43 221.37 550.33 222.64 555.89 224.62 561.29 227.07 566.3 230.33 570.88 234.36 575.25 238.92 579.14 244.21 582.52 250.12 585.66 256.46 588.27 263.3 590.33 270.53 592.16 278.03 593.46 285.8 594.21 293.73 594.8 301.78 594.91 309.92 594.55 318.06 594.16 326.24 593.4 334.38 592.32 342.45 591.36 350.52 590.2 358.5 588.9 366.37 587.9 374.23 586.88 381.99 585.88 389.63 585.33 397.27 584.89 404.78 584.6 412.15 584.81 419.52 585.17 426.55 585.66 433.23 586.58 439.89 587.54 446.17 588.49 452.05 590.31 460.59 593.24 475.33 594.01 481.49 593.35 491.91 586.64 505.44 582.26 510.19 578.93 513.98 575.09 518.16 570.76 522.86 566.23 528.35 561.27 534.5 555.91 541.34 550.39 548.98 544.52 557.22 538.36 565.95 532.09 575.06 525.57 584.27 518.83 593.27 512.04 601.89 505.07 609.71 497.97 616.37 490.84 621.82 483.61 625.6 476.3 627.51 468.98 627.82 461.61 626.23 454.2 622.84 446.8 618.35 439.37 612.67 431.94 606.22 424.51 599.95 417.09 593.89 409.67 588.54 402.26 584.73 395.03 582.39 387.99 581.59 380.95 582.66 374.08 585.05 367.41 588.47 360.71 592.97 354.19 597.73 347.86 602.31 341.49 606.75 335.28 610.25 329.25 612.5 323.18 613.71 317.26 613.31 311.49 611.29 305.67 607.97 299.99 603.14 294.47 597.01 288.86 589.91 283.4 581.9 278.07 573.24 272.66 564.21 267.38 554.95 262.24 545.66 257.02 536.51 251.94 527.6 247.01 519.02 242 510.84 237.15 503.08 232.48 495.71 227.76 488.79 223.22 482.2 218.92 475.89 214.59 469.93 210.5 464.12 206.69 458.39 202.91 452.87 199.43 447.31 196.3 441.64 193.23 436.08 190.55 430.33 188.27 424.35 186.11 418.41 184.4 412.2 183.15 405.69 182.06 399.19 181.47 392.38 181.4 385.28 181.5 378.17 182.12 370.94 183.23 363.63 184.5 356.34 186.23 348.99 188.41 341.64 190.7 334.34 193.41 327.09 196.48 319.96 199.62 312.93 203.11 306.09 206.89 299.51 210.7 293.11 214.78 287.05 219.11 281.41 223.41 276.03 227.93 271.13 232.64 266.78 239.71 260.95 254.56 252.46 262.3 249.62 270.04 247.16 286.09 242.76 294.39 240.09 299.9 237.63 305.56 234.76 311.36 231.43 317.1 227.33 323.01 222.73 329.07 217.7 335.08 212.08 341.27 206.27 347.63 200.45 353.95 194.6 360.46 189.18 367.14 184.45 373.81 180.37 380.66 177.38 387.7 175.69 394.73 175.05 401.95 175.81 409.36 177.95" stroke-dasharray="0 0" transform="rotate(32.06896551724138, 400, 400)" opacity="0.12"></path><path d="M412.07 188.21C419.15 191.1 426.23 194.9 433.3 199.36 440.36 203.95 447.41 208.73 454.41 213.46 461.42 217.69 468.37 221.54 475.25 224.92 482.12 227.47 488.89 229.49 495.54 231.02 502.16 231.82 508.63 232.32 514.91 232.64 524.12 232.61 541.17 233.69 548.83 235.5 555.92 238.42 567.81 248.37 572.48 255.32 575.24 260.56 577.52 266.35 579.29 272.58 580.88 279.11 581.99 285.98 582.62 293.1 583.14 300.4 583.23 307.86 582.91 315.4 582.59 323.03 581.94 330.68 581.02 338.3 580.22 345.96 579.24 353.55 578.14 361.05 577.31 368.56 576.45 375.96 575.6 383.22 575.15 390.48 574.78 397.59 574.52 404.52 574.71 411.45 575 418.02 575.39 424.22 576.57 433.3 579.28 449.48 580.52 456.54 582.2 468.97 580.97 485.05 578.86 490.11 576.01 495.78 567.57 509.13 562.04 517.34 558.02 523.65 553.59 530.52 548.77 537.93 543.82 545.91 538.51 554.28 532.91 562.89 527.2 571.64 521.23 580.25 515.04 588.44 508.78 596.09 502.34 602.83 495.74 608.36 489.1 612.71 482.34 615.49 475.49 616.55 468.62 616.22 461.67 614.21 454.67 610.66 447.67 606.22 440.63 600.79 433.56 594.73 426.5 588.89 419.41 583.27 412.33 578.28 405.24 574.66 398.31 572.32 391.56 571.34 384.79 572.03 378.19 573.92 371.76 576.77 365.3 580.69 359.01 584.93 352.87 589.15 346.71 593.41 340.7 596.97 334.84 599.55 328.93 601.34 323.17 601.78 317.55 600.8 311.88 598.7 306.34 595.19 300.93 590.41 295.47 584.68 290.12 577.95 284.91 570.44 279.62 562.41 274.47 553.95 269.44 545.26 264.35 536.5 259.39 527.76 254.59 519.18 249.72 510.82 245.01 502.72 240.47 494.93 235.9 487.47 231.52 480.3 227.36 473.41 223.19 466.82 219.26 460.43 215.6 454.19 211.98 448.16 208.65 442.19 205.65 436.22 202.73 430.37 200.17 424.45 198 418.41 195.95 412.43 194.32 406.29 193.14 399.96 192.11 393.65 191.54 387.14 191.48 380.43 191.57 373.73 192.16 366.99 193.22 360.25 194.42 353.53 196.07 346.84 198.15 340.22 200.33 333.66 202.91 327.22 205.84 320.96 208.85 314.81 212.18 308.9 215.81 303.29 219.47 297.85 223.4 292.77 227.57 288.11 233.91 281.66 247.53 271.41 254.73 267.62 261.99 264.36 277.1 259.26 284.94 256.91 290.13 254.97 295.45 252.86 300.9 250.5 306.29 247.51 311.81 244.12 317.47 240.31 323.07 235.81 328.81 230.92 334.7 225.7 340.54 220.04 346.54 214.29 352.69 208.65 358.81 203.07 365.09 197.99 371.54 193.62 377.96 189.89 384.55 187.23 391.31 185.78 398.06 185.3 404.98 186.12 412.06 188.21" stroke-dasharray="0 0" transform="rotate(35.275862068965516, 400, 400)" opacity="0.36"></path><path d="M414.26 198.48C421 201.25 427.73 204.88 434.41 209.13 441.1 213.55 447.75 218.18 454.34 222.84 460.93 227.09 467.44 231.05 473.86 234.62 480.26 237.47 486.56 239.85 492.71 241.78 501.79 243.44 518.93 244.87 526.86 245.32 534.36 245.84 547.56 249.16 553.14 252.35 558.08 256.62 565.59 268.65 568.12 276.22 569.52 281.71 570.49 287.59 571.04 293.77 571.5 300.16 571.6 306.78 571.34 313.54 571.09 320.43 570.57 327.41 569.79 334.41 569.15 341.47 568.35 348.52 567.43 355.5 566.76 362.52 566.05 369.45 565.34 376.24 564.98 383.05 564.67 389.72 564.44 396.21 564.72 405.78 566.12 423.18 567.06 431 568.32 438.48 570.32 451.85 570.82 457.87 571.03 463.84 569.52 475.52 567.67 481.61 566.17 486.07 564.22 490.77 561.82 495.78 559.28 501.28 556.29 507.2 552.89 513.55 549.35 520.43 545.4 527.73 541.1 535.41 536.66 543.43 531.89 551.63 526.83 559.85 521.66 568.01 516.23 575.83 510.57 583.07 504.85 589.69 498.92 595.32 492.82 599.75 486.69 603.07 480.41 604.94 474.02 605.26 467.62 604.39 461.11 602.07 454.53 598.43 447.95 594.09 441.3 588.93 434.61 583.27 427.93 577.86 421.2 572.66 414.46 568.01 407.71 564.58 401.1 562.26 394.63 561.13 388.16 561.49 381.83 562.91 375.64 565.22 369.44 568.56 363.38 572.27 357.45 576.07 351.5 580.05 345.68 583.55 340 586.3 331.49 589.04 315.02 587.26 307.05 582.61 301.73 578.21 296.52 572.8 291.44 566.54 286.3 559.69 281.28 552.26 276.39 544.44 271.45 536.38 266.63 528.16 261.97 519.93 257.26 511.73 252.7 503.66 248.32 495.78 243.92 488.09 239.71 480.62 235.71 473.4 231.71 466.39 227.95 459.58 224.45 452.96 221 446.52 217.83 440.19 214.98 433.95 212.2 427.82 209.78 421.72 207.72 415.61 205.78 409.55 204.24 403.44 203.13 397.26 202.15 391.1 201.62 384.85 201.56 378.51 201.65 372.17 202.2 365.9 203.2 359.73 204.34 353.56 205.9 347.51 207.87 341.61 209.94 335.75 212.38 330.08 215.17 324.65 219.62 316.78 230.05 302.78 235.93 296.8 242.03 291.43 255.17 282.86 262.14 279.56 269.19 276.51 283.89 271 291.51 268.1 296.58 265.7 301.76 263.09 307.07 260.19 312.32 256.7 317.69 252.85 323.19 248.62 328.63 243.83 334.21 238.73 339.91 233.41 345.58 227.79 351.39 222.19 357.32 216.79 363.23 211.53 369.29 206.81 375.48 202.82 381.66 199.45 387.98 197.1 394.44 195.89 400.9 195.56 407.51 196.43 414.25 198.47" stroke-dasharray="0 0" transform="rotate(38.48275862068965, 400, 400)" opacity="0.57"></path><path d="M415.85 208.74C422.24 211.39 428.59 214.84 434.89 218.88 441.19 223.11 447.43 227.58 453.59 232.12 459.75 236.35 465.82 240.38 471.77 244.1 477.71 247.2 483.51 249.9 489.17 252.19 500.36 254.83 510.8 256.42 520.24 257.7 529.34 258.16 537.23 259.8 543.69 263.1 549.65 267.23 554.08 273.52 556.87 281.7 559.28 290.9 560.23 301.6 559.84 313.26 559.68 319.29 559.28 325.47 558.66 331.74 558.16 338.08 557.52 344.46 556.77 350.83 556.25 357.24 555.68 363.61 555.09 369.9 554.81 376.2 554.56 382.4 554.36 388.47 554.59 397.43 555.69 413.91 556.43 421.45 557.44 428.76 558.99 442.29 559.34 448.69 559.72 457.54 558.78 466.36 556.41 475.61 553.66 486.24 549.29 498.04 543.39 511.2 537 525.81 529.17 541.25 520.13 556.56 510.75 570.94 500.36 582.79 489.2 590.54 483.57 592.92 477.78 593.97 471.85 593.66 465.91 592.35 459.85 589.8 453.71 586.15 447.55 581.96 441.32 577.1 435.02 571.84 428.72 566.86 422.37 562.06 415.98 557.75 409.58 554.51 403.3 552.22 397.14 550.97 390.97 551.02 384.92 552.02 378.99 553.83 373.05 556.6 367.22 559.77 361.52 563.11 355.8 566.75 350.19 570.06 344.7 572.84 333.63 577.17 322.97 577.5 312.79 573.57 302.44 566.5 292.51 555.82 283.08 542.69 273.49 528.2 264.43 512.86 256.04 497.55 247.6 482.5 239.93 468.03 233.25 454.31 229.97 447.63 226.97 441.1 224.28 434.7 221.66 428.39 219.37 422.17 217.43 416.02 215.61 409.92 214.16 403.86 213.11 397.82 212.19 391.8 211.69 385.79 211.64 379.8 211.98 370.88 214.99 353.9 217.57 345.9 220.68 338.18 228.68 324.13 233.48 317.92 240.16 310.06 247.83 303.57 256.26 298.48 264.64 293.36 273.68 289.17 283.24 285.49 292.63 280.67 302.54 275.37 312.86 269.09 323 260.74 333.62 251.19 344.66 240.88 350.14 235.39 355.74 230.01 361.45 224.9 367.14 220 372.96 215.67 378.89 212.06 384.81 209.06 390.85 207.01 397.01 206.02 403.17 205.84 409.45 206.75 415.84 208.74" stroke-dasharray="0 0" transform="rotate(41.689655172413794, 400, 400)" opacity="0.57"></path><path d="M416.77 219.01C428.82 224.54 440.66 232.43 452.12 241.32 463.55 249.31 474.55 256.44 484.91 262.23 495.13 265.69 504.59 268.07 513.05 269.91 521.21 270.66 528.23 272.1 533.92 274.74 539.21 277.77 543.12 282.58 545.58 289.1 547.77 296.41 548.69 305.22 548.44 315.13 548.37 325.54 547.54 336.63 546.17 348.02 545.61 359.55 544.95 371.12 544.28 382.45 544.83 393.77 545.39 404.29 545.85 414.02 547.15 423.86 547.91 433.17 547.95 442.19 548.19 451.77 547.27 461.63 545.11 472.09 542.68 483.68 538.82 496.31 533.58 509.89 527.94 524.29 520.98 538.91 512.87 552.76 504.46 565.24 495.05 574.97 484.87 580.72 474.54 582.91 463.57 580.48 452.15 573.84 440.71 565.66 428.88 556.22 416.82 547.48 404.77 542.47 393.04 540.91 381.74 542.59 370.4 547.8 359.43 553.9 348.88 559.28 338.25 563.95 327.98 565.45 318.15 563.35 308.18 558.59 298.61 550.41 289.53 539.62 280.33 527.26 271.64 513.59 263.62 499.45 255.6 485.15 248.32 471.06 242.01 457.52 235.88 444.25 230.85 431.49 227.13 419.27 223.82 407.2 221.96 395.45 221.72 384.1 222.01 372.75 223.92 362.29 227.27 352.82 231.03 343.41 236.08 335.09 242.23 328 248.56 320.98 255.84 315.13 263.86 310.35 271.87 305.26 280.54 300.71 289.72 296.32 298.77 290.67 308.32 284.39 318.26 277.18 328.06 268.21 338.31 258.36 348.91 248.14 359.43 237.61 370.38 228.29 381.7 221.35 392.99 216.71 404.7 215.83 416.76 219" stroke-dasharray="0 0" transform="rotate(44.896551724137936, 400, 400)" opacity="0.25"></path><path d="M416.98 229.27C428.29 234.5 439.31 241.94 449.9 250.45 460.47 258.32 470.55 265.63 479.97 271.87 489.26 276.08 497.77 279.26 505.33 281.78 515.76 283.84 530.35 291.21 534.29 298.29 536.31 304.02 537.23 311.17 537.13 319.47 537.25 328.16 536.69 337.71 535.62 347.78 535.28 357.98 534.78 368.47 534.2 379.04 534.67 389.61 535.07 399.74 535.32 409.45 536.32 419.29 536.82 428.96 536.67 438.65 536.75 448.85 535.82 459.5 533.8 470.77 531.63 482.87 528.18 495.75 523.51 509.14 518.54 522.8 512.35 536.14 505.09 548.24 497.57 558.72 489.1 566.38 479.84 570.31 470.46 571.19 460.4 568.11 449.86 561.52 439.28 553.87 428.27 545.23 416.96 537.22 405.65 532.44 394.59 530.58 383.86 531.51 373.1 535.67 362.64 540.83 352.55 545.69 342.4 550.4 332.56 552.68 323.12 552.02 313.58 549.26 304.42 543.37 295.73 534.92 286.97 524.87 278.71 513.2 271.09 500.67 263.51 487.68 256.66 474.53 250.72 461.65 244.98 448.84 240.29 436.43 236.83 424.58 233.75 412.82 232.01 401.51 231.8 390.77 232.06 380.03 233.84 370.33 236.97 361.68 240.46 353.04 245.19 345.47 250.95 338.98 256.9 332.42 263.76 326.78 271.35 321.89 278.95 316.49 287.2 311.33 295.95 306.07 304.62 299.58 313.76 292.42 323.28 284.45 332.69 275.1 342.51 265.18 352.64 255.26 362.71 245.37 373.15 236.86 383.89 230.71 394.6 226.71 405.66 226.16 416.97 229.27" stroke-dasharray="0 0" transform="rotate(48.10344827586207, 400, 400)" opacity="0.16"></path><path d="M416.47 239.54C427.01 244.45 437.21 251.43 446.95 259.5 456.66 267.16 465.85 274.53 474.37 281.11 482.77 285.97 490.42 289.91 497.16 293.15 506.46 296.07 519.45 303.11 523.02 308.97 524.93 313.51 525.88 319.33 525.94 326.26 526.23 333.47 525.92 341.61 525.12 350.47 524.97 359.42 524.62 368.9 524.12 378.76 524.52 388.62 524.78 398.4 524.84 408.08 525.57 417.88 525.83 427.81 525.49 437.96 525.41 448.52 524.45 459.58 522.54 471.16 520.55 483.25 517.45 495.8 513.26 508.44 508.86 520.91 503.35 532.64 496.85 542.8 490.16 551.27 482.54 557 474.17 559.34 465.68 559.14 456.52 555.61 446.83 549.2 437.11 542.12 426.92 534.27 416.38 526.95 405.84 522.43 395.46 520.32 385.34 520.59 375.2 523.76 365.3 527.96 355.71 532.17 346.07 536.66 336.71 539.37 327.72 539.75 318.67 538.59 309.96 534.7 301.71 528.41 293.43 520.66 285.63 511.14 278.46 500.5 271.35 489.22 264.94 477.45 259.41 465.65 254.07 453.76 249.72 442.09 246.52 430.87 243.67 419.69 242.07 408.96 241.88 398.83 242.12 388.69 243.76 379.6 246.65 371.53 249.89 363.41 254.27 356.26 259.63 350.02 265.19 343.57 271.61 337.79 278.72 332.5 285.89 326.58 293.68 320.69 301.96 314.55 310.19 307.29 318.89 299.43 327.92 290.95 336.9 281.46 346.24 271.72 355.86 262.28 365.43 253.14 375.32 245.49 385.44 240.13 395.55 236.76 405.93 236.5 416.47 239.54" stroke-dasharray="0 0" transform="rotate(51.310344827586206, 400, 400)" opacity="0.92"></path><path d="M415.27 249.8C425.03 254.4 434.41 260.89 443.31 268.48 452.18 275.86 460.51 283.18 468.18 289.95 475.75 295.32 482.6 299.93 488.6 303.87 496.9 307.82 508.54 315.43 511.82 320.65 513.65 324.44 514.64 329.31 514.86 335.2 515.31 341.23 515.22 348.22 514.67 356.03 514.69 363.89 514.46 372.46 514.04 381.66 514.37 390.85 514.51 400.24 514.42 409.79 514.9 419.43 514.94 429.39 514.44 439.67 514.2 450.22 513.18 461.23 511.35 472.6 509.49 484.15 506.67 495.86 502.89 507.29 498.97 518.23 494.06 528.14 488.25 536.33 482.28 542.87 475.47 546.86 467.92 547.85 460.27 546.81 451.97 543.01 443.12 536.9 434.23 530.41 424.86 523.33 415.11 516.69 405.35 512.43 395.68 510.14 386.2 509.84 376.72 512.08 367.41 515.34 358.37 518.81 349.3 522.86 340.47 525.66 331.98 526.71 323.45 526.72 315.25 524.45 307.49 520.07 299.73 514.43 292.44 507.04 285.74 498.38 279.13 489.01 273.19 478.91 268.07 468.51 263.15 457.9 259.14 447.29 256.21 436.94 253.59 426.58 252.13 416.56 251.96 407.05 252.18 397.54 253.68 388.95 256.34 381.25 259.31 373.49 263.35 366.5 268.29 360.21 273.43 353.65 279.39 347.53 286.01 341.65 292.71 335.16 300.01 328.55 307.76 321.64 315.52 313.81 323.71 305.49 332.22 296.78 340.7 287.41 349.51 278.07 358.57 269.27 367.6 260.98 376.9 254.21 386.37 249.63 395.84 246.85 405.51 246.86 415.27 249.8" stroke-dasharray="0 0" transform="rotate(54.51724137931034, 400, 400)" opacity="0.63"></path><path d="M413.42 260.07C422.4 264.33 430.97 270.33 439.04 277.4 447.09 284.42 454.61 291.56 461.49 298.38 468.29 304.11 474.41 309.25 479.74 313.81 487.17 318.84 497.65 327.65 500.71 332.75 503.01 338.35 504.56 353.95 504.28 363.97 504.43 370.95 504.32 378.74 503.96 387.29 504.23 395.84 504.27 404.77 504.05 414.01 504.32 423.31 504.16 433.01 503.51 443.03 503.11 453.18 502.04 463.67 500.26 474.3 498.5 484.89 495.9 495.34 492.47 505.22 488.95 514.44 484.56 522.46 479.36 528.72 474.05 533.51 467.96 535.99 461.18 535.9 454.32 534.25 446.82 530.35 438.79 524.62 430.72 518.75 422.16 512.42 413.19 506.42 404.23 502.44 395.29 500.04 386.49 499.25 377.69 500.66 369.02 503.01 360.58 505.69 352.12 509.14 343.87 511.77 335.93 513.12 327.98 513.89 320.34 512.83 313.11 509.98 305.9 506.16 299.15 500.7 292.96 493.93 286.87 486.52 281.41 478.2 276.72 469.35 272.21 460.24 268.56 450.91 265.89 441.61 263.51 432.27 262.19 423.09 262.04 414.23 262.23 405.36 263.6 397.21 266.02 389.76 268.72 382.23 272.41 375.26 276.94 368.76 281.65 361.99 287.13 355.45 293.24 349 299.43 341.99 306.19 334.8 313.4 327.34 320.62 319.18 328.26 310.7 336.2 302.04 344.14 293.05 352.38 284.31 360.83 276.29 369.26 268.91 377.93 263.05 386.72 259.22 395.51 256.99 404.45 257.24 413.42 260.07" stroke-dasharray="0 0" transform="rotate(57.724137931034484, 400, 400)" opacity="0.97"></path><path d="M411.01 270.33C419.19 274.26 426.96 279.76 434.25 286.27 441.51 292.86 448.25 299.71 454.4 306.43 460.49 312.35 465.94 317.86 470.69 322.92 477.34 328.92 486.85 339.27 489.74 344.62 492.02 350.09 493.94 364.4 493.93 373.48 494.19 379.78 494.18 386.9 493.88 394.82 494.1 402.74 494.05 411.11 493.72 419.82 493.81 428.57 493.49 437.7 492.72 447.07 492.18 456.46 491.05 466.02 489.3 475.51 487.61 484.79 485.2 493.71 482.06 501.86 478.88 509.29 474.94 515.46 470.29 519.96 465.55 523.2 460.12 524.45 454.04 523.55 447.92 521.5 441.19 517.66 433.94 512.38 426.66 507.13 418.9 501.52 410.72 496.16 402.55 492.47 394.37 490 386.28 488.81 378.19 489.5 370.2 491 362.39 492.89 354.59 495.62 346.97 497.87 339.63 499.23 332.29 500.36 325.25 500.1 318.59 498.37 311.98 495.98 305.79 492.15 300.13 487.07 294.58 481.44 289.61 474.85 285.36 467.57 281.28 460.04 277.98 452.07 275.59 443.93 273.44 435.72 272.25 427.45 272.12 419.27 272.29 411.09 273.52 403.38 275.7 396.13 278.14 388.8 281.47 381.81 285.57 375.09 289.85 368.13 294.84 361.24 300.41 354.34 306.07 347 312.27 339.47 318.89 331.74 325.55 323.56 332.59 315.21 339.92 306.9 347.26 298.5 354.88 290.54 362.68 283.41 370.48 276.99 378.47 272.01 386.55 268.9 394.64 267.18 402.83 267.63 411.01 270.33" stroke-dasharray="0 0" transform="rotate(60.93103448275862, 400, 400)" opacity="0.90"></path><path d="M408.13 280.6C415.51 284.19 422.5 289.17 429.03 295.1 435.54 301.19 441.56 307.64 447.02 314.13 452.45 320.06 457.31 325.76 461.54 331.13 467.49 337.93 476.16 349.82 478.92 355.64 481.19 361.33 483.41 375.07 483.63 383.49 483.98 389.3 484.04 395.84 483.8 403.12 483.98 410.4 483.86 418.09 483.45 426.08 483.38 434.08 482.92 442.36 482.06 450.76 481.4 459.09 480.22 467.42 478.51 475.49 476.87 483.27 474.61 490.52 471.73 496.91 467.07 504.86 454.48 512.18 446.64 510.86 441.18 508.61 435.18 504.96 428.68 500.19 422.16 495.57 415.18 490.65 407.8 485.89 400.42 482.5 393 480.03 385.65 478.54 378.3 478.6 371.02 479.34 363.89 480.46 356.78 482.44 349.82 484.15 343.12 485.28 336.45 486.45 330.03 486.59 323.99 485.6 317.99 484.21 312.39 481.61 307.28 477.91 302.28 473.8 297.82 468.73 294.01 462.91 290.36 456.86 287.41 450.25 285.28 443.26 283.36 436.21 282.31 428.9 282.2 421.44 282.34 413.99 283.44 406.74 285.39 399.72 287.56 392.65 290.54 385.72 294.21 378.89 298.05 371.87 302.53 364.82 307.55 357.7 312.67 350.29 318.29 342.72 324.29 335.06 330.34 327.15 336.76 319.23 343.44 311.52 350.14 303.92 357.09 296.86 364.21 290.7 371.33 285.24 378.61 281.13 385.96 278.69 393.32 277.43 400.74 278.04 408.13 280.6" stroke-dasharray="0 0" transform="rotate(64.13793103448276, 400, 400)" opacity="0.15"></path><path d="M404.9 290.86C411.5 294.1 417.73 298.56 423.53 303.9 429.31 309.43 434.65 315.39 439.49 321.51 444.31 327.28 448.62 332.96 452.38 338.46 457.72 345.76 465.65 358.93 468.28 365.25 470.52 371.3 472.98 384.94 473.38 392.88 473.8 398.31 473.91 404.33 473.72 410.95 473.86 417.57 473.68 424.49 473.22 431.59 473.03 438.69 472.47 445.91 471.54 453.11 470.79 460.21 469.58 467.13 467.91 473.67 465.25 482.7 457.3 495.89 451.97 499.12 446.06 499.9 431.59 493.96 423.15 488.06 417.36 484.06 411.14 479.81 404.55 475.63 397.96 472.54 391.31 470.12 384.71 468.42 378.11 467.98 371.57 468.06 365.15 468.48 358.76 469.69 352.51 470.79 346.48 471.53 337.62 472.59 321.47 470.41 314.44 466.83 308.01 461.97 298.15 448.02 294.98 439.43 293.3 433.48 292.37 427.11 292.28 420.41 292.4 413.71 293.37 406.99 295.09 400.32 296.99 393.62 299.62 386.89 302.87 380.15 306.26 373.29 310.23 366.33 314.7 359.31 319.25 352.12 324.26 344.84 329.63 337.57 335.05 330.22 340.81 323 346.81 316.1 352.83 309.43 359.09 303.37 365.49 298.21 371.9 293.7 378.45 290.41 385.05 288.58 391.66 287.73 398.3 288.47 404.9 290.86" stroke-dasharray="0 0" transform="rotate(67.3448275862069, 400, 400)" opacity="0.47"></path><path d="M401.47 301.13C413.11 307.46 423.38 317.3 431.92 328.62 440.4 339.19 447.14 349.73 451.93 359.7 456.8 368.2 459.98 376.91 461.42 386.21 463.44 395.01 464.21 405.28 463.64 417.15 464.11 429.01 463.25 441.41 461.16 453.34 459.66 464.79 456.44 474.78 451.54 481.79 446.74 487.02 439.99 488.17 431.52 484.81 422.99 480.35 412.73 473.3 401.11 465.36 389.48 460.81 377.66 458.11 366.29 456.96 355 458.58 344.24 459.4 334.67 458.27 325.32 457.1 317.32 452.85 311.36 445.7 305.88 438.15 302.67 428.18 302.36 416.33 302.74 404.47 306.01 391.94 311.54 379.21 317.55 366.26 325.58 352.82 334.96 339.64 344.56 326.65 355.33 314.87 366.63 306 378.01 299.44 389.83 297.49 401.47 301.13" stroke-dasharray="0 0" transform="rotate(70.55172413793103, 400, 400)" opacity="0.38"></path><path d="M397.98 311.39C408.08 316.91 416.99 325.47 424.43 335.51 431.84 345.28 437.81 355.38 442.14 365.19 446.59 374.01 449.61 382.92 451.15 392.04 453.14 400.76 453.99 410.35 453.56 420.78 453.91 431.21 452.98 441.51 450.92 450.9 447.79 463.51 434.45 475.02 424.05 471.6 416.61 467.7 407.71 461.82 397.61 455.1 387.52 450.95 377.26 447.92 367.4 445.96 357.61 446.26 348.31 446.11 340.06 444.66 332.01 443.56 325.16 440.15 320.09 434.34 315.41 428.36 312.68 420.09 312.44 409.8 312.74 399.52 315.52 388.28 320.25 376.7 325.37 365.08 332.26 353.11 340.34 341.66 348.61 330.68 357.93 321.05 367.74 314.13 377.61 309.14 387.88 307.98 397.98 311.39" stroke-dasharray="0 0" transform="rotate(73.75862068965517, 400, 400)" opacity="0.46"></path><path d="M394.57 321.66C403.16 326.35 410.76 333.6 417.16 342.24 423.54 350.91 428.76 360.15 432.64 369.33 436.63 377.93 439.45 386.62 441.01 395.25 442.92 403.62 443.8 412.36 443.48 421.31 443.72 430.26 442.78 438.55 440.82 445.64 437.78 454.94 425.81 461.85 416.8 458.39 410.41 455.16 402.8 450.4 394.22 444.83 385.64 441.14 376.94 438 368.6 435.49 360.32 434.71 352.47 433.63 345.55 431.71 338.79 430.3 333.06 427.24 328.86 422.33 324.96 417.41 322.7 410.54 322.52 401.82 322.75 393.1 325.06 383.42 329.01 373.43 333.25 363.51 339.01 353.45 345.8 344.05 352.75 335.23 360.62 327.74 368.91 322.64 377.27 319.04 385.98 318.54 394.57 321.66" stroke-dasharray="0 0" transform="rotate(76.9655172413793, 400, 400)" opacity="0.24"></path><path d="M391.39 331.92C398.49 335.8 404.83 341.74 410.2 348.89 415.58 356.22 420.04 364.23 423.45 372.34 426.95 380.19 429.51 388.15 431.01 395.92 432.77 403.55 433.62 411.23 433.4 418.66 433.11 429.32 428.01 444.38 423.18 447.57 417.51 448.3 401.34 440.89 391.08 434.57 383.98 431.38 376.82 428.33 369.98 425.55 363.19 424 356.79 422.18 351.18 419.82 343.37 416.47 333.63 403.6 332.6 393.56 332.77 386.37 334.62 378.44 337.81 370.33 341.22 362.35 345.88 354.41 351.4 347.21 357.04 340.52 363.46 335.06 370.27 331.57 377.12 329.17 384.29 329.15 391.39 331.92" stroke-dasharray="0 0" transform="rotate(80.17241379310344, 400, 400)" opacity="0.14"></path><path d="M388.58 342.19C399.86 348.92 408.91 361.17 414.61 374.53 420.59 387.68 423.84 401.41 423.32 413.22 423.75 425.02 420.43 432.47 414.39 434.28 408.65 435.61 399.58 431.84 388.31 424.3 377.03 419.98 365.78 414.94 357 409.3 348.55 405.21 343.03 397.64 342.68 386.26 343.11 374.87 348.69 361.99 357.18 351.46 366.02 342.47 377.29 338.32 388.58 342.19" stroke-dasharray="0 0" transform="rotate(83.37931034482759, 400, 400)" opacity="0.10"></path><path d="M386.24 352.45C394.66 357.36 401.59 366.31 406.14 376.3 410.86 386.41 413.53 397.04 413.24 405.8 412.1 417.13 397.92 420.6 386.03 414.04 377.62 410.49 369.39 405.71 363.05 400.37 356.92 395.99 352.96 389.49 352.76 381.01 353.01 372.54 357.03 363.73 363.2 357.09 369.57 351.37 377.82 349.19 386.24 352.45" stroke-dasharray="0 0" transform="rotate(86.58620689655172, 400, 400)" opacity="0.25"></path><path d="M384.49 362.72C395.66 369.65 403.66 385.96 403.16 397.52 403.57 409.07 395.51 411.11 384.34 403.78 373.17 399.57 363.21 389.86 362.84 378.6 363.29 367.33 373.31 358.74 384.49 362.72" stroke-dasharray="0 0" transform="rotate(89.79310344827587, 400, 400)" opacity="0.91"></path></g></svg>