<?xml version="1.0" encoding="utf-8"?>
<!-- Generator: Adobe Illustrator 24.1.2, SVG Export Plug-In . SVG Version: 6.00 Build 0)  -->
<svg version="1.1" id="Laag_1" xmlns="http://www.w3.org/2000/svg" xmlns:xlink="http://www.w3.org/1999/xlink" x="0px" y="0px"
	 viewBox="0 0 2500 2438" style="enable-background:new 0 0 2500 2438;" xml:space="preserve">
<style type="text/css">
	.st0{fill:#FFFFFF;}
</style>
<rect width="2500" height="2438"/>
<path class="st0" d="M659.4,558.6c-8.3,0-10.4,5.2-10.4,12.5l0,0h-1v1119.8c0,9.4,4.2,12.5,12.5,12.5h160.4
	c9.4,0,12.5-4.2,12.5-12.5v-400c28.1,0,41.7,2.1,81.3,2.1c235.4,0,427.1-113.5,427.1-378.1c0-203.1-126-361.5-414.6-361.5
	C824,553.4,726,555.5,659.4,558.6z M1154.2,918c0,165.6-114.6,208.3-236.5,208.3c-41.7,0-60.4,0-84.4-2.1h0V722.1
	c18.8-1,58.3-3.1,100-3.1C1072.9,719,1154.2,785.7,1154.2,918z"/>
<path class="st0" d="M1500,1691.9c0,9.4,4.2,12.5,12.5,12.5H1676c9.4,0,12.5-4.2,12.5-12.5v-656.3c36.5-15.6,131.2-24,196.9-20.8
	c8.3,0,11.5-2.1,11.5-10.4v-151c0-8.3-4.2-10.4-12.5-10.4c-168.7,0-317.7,45.8-381.2,71.9c-7.3,3.1-8.3,5.2-8.3,13.5
	c5.2,58.3,5.2,88.5,5.2,101h0V1691.9z"/>
</svg>
