<?xml version="1.0"?>
<svg xmlns="http://www.w3.org/2000/svg" viewBox="0 0 396 68">
<path d="m394 3.18h-28.82v27.42h24.94v3.08h-24.94v30.9h29.91v3.18h-33.38v-67.77h32.79zm-54.54 64.59h-3.38l-3.68-33.78c-1.19-11.13-2.58-24.34-3.08-30.9l-18.88 56.44h-3.28l-19.25-56.47c-.4 5.86-1.89 19.38-3 30.11l-3.38 34.58h-3.38l7-67.77h5.17l18.58 55.35 18.18-55.35h5.27zm-86.25-19.58h-30.5l-6.56 19.58h-3.48l23.25-67.77h4.27l23.25 67.77h-3.68zm-1.09-3.18-14.11-42.23-14.21 42.28h28.32zm-73.32-8.84h-15.7v31.6h-3.48v-67.77h15.4c15.9 0 23 6.36 23 17.89 0 10.43-6.06 15.5-15.4 17.69l18.88 32.19h-4.37zm-3.08-3.18c11.73 0 18.58-4.67 18.58-15.1 0-9.54-5.27-14.81-19.57-14.81h-11.63v29.91zm-36.27-29.81h-28.32v28.82h24.44v3.06h-24.44v32.69h-3.48v-67.77h32.26zm-77.9 31.88h24.94v3.18h-24.94zm-20.96 13.13h-30.5l-6.56 19.58h-3.48l23.25-67.77h4.27l23.25 67.77h-3.68zm-1.09-3.18-14.11-42.23-14.21 42.28h28.32z" fill="#ef2d5e"/>
</svg>
