<?xml version="1.0" encoding="utf-8"?>
<!-- Generator: Adobe Illustrator 24.1.2, SVG Export Plug-In . SVG Version: 6.00 Build 0)  -->
<svg version="1.1" id="Laag_1" xmlns="http://www.w3.org/2000/svg" xmlns:xlink="http://www.w3.org/1999/xlink" x="0px" y="0px"
	 viewBox="0 0 240 240" style="enable-background:new 0 0 240 240;" xml:space="preserve">
<style type="text/css">
	.st0{stroke:#FFFDFD;stroke-miterlimit:10;}
	.st1{stroke:#FFFFFF;stroke-miterlimit:10;}
</style>
<path class="st0" d="M93.8,0.7H0.7l10.3,93.1l36.2,10.3l36.2-10.3L93.8,0.7z M72.2,32.2H32.6l0.9,11.3h37.7l-2.8,33.3l-21.2,6.7
	l-0.2-0.1l-20.9-6.7L25,63.1h10.3l0.4,5.3L47.4,71l11.5-2.6l1.2-14.2H24.2l-2.8-32.8h51.7L72.2,32.2z"/>
<path class="st1" d="M73.5,68.7l10.3,93.1l36.1,10.3l36.2-10.3l10.3-93.1H73.5z M144.4,111.8l-2,32.3l-22.3,7.3l-22.3-7.3L97,128.7
	h11.3l0.3,7l11.6,3.9l11.6-3.9l0.8-12.6h-24.9l-0.6-11.2h26l0.8-11.2H95l-0.8-11.2h51.7L144.4,111.8z"/>
<path class="st1" d="M232.7,135.9h-90.3c-3.6,0-6.6,2.9-6.6,6.6v90.3c0,3.6,2.9,6.6,6.6,6.6h90.3c3.6,0,6.6-2.9,6.6-6.6v-90.3
	C239.2,138.8,236.3,135.9,232.7,135.9z M192.4,215.1c0,9.8-5.8,14.3-14.2,14.3c-7.6,0-13.1-5.1-15.3-9.8l7.7-4.7
	c1.5,2.6,3.8,4.7,7,4.7c3.1,0,4.9-1.2,4.9-6v-31h9.8V215.1z M213.8,229.4c-8.7,0-13.7-4.4-16.4-9.8l7.4-4.9c2,3.3,4.2,6.4,8.8,6.4
	c3.9,0,5.9-1.9,5.9-4.6c0-3.2-2.1-4.4-6.4-6.2l-2.3-1c-6.8-2.9-11.3-6.5-11.3-14.2c0-7,5.4-12.4,13.8-12.4c6,0,10.3,2.1,13.4,7.5
	l-7.3,4.7c-1.6-2.9-3.3-4-6-4c-2.8,0-4.5,1.8-4.5,4c0,2.8,1.7,4,5.8,5.7l2.3,1c8,3.4,12.5,6.9,12.5,14.8
	C229.4,224.8,222.7,229.4,213.8,229.4z"/>
</svg>
