<svg version="1.1" id="Laag_1" xmlns="http://www.w3.org/2000/svg" xmlns:xlink="http://www.w3.org/1999/xlink" x="0px" y="0px"
	 viewBox="0 0 128 160" style="enable-background:new 0 0 128 160;" xml:space="preserve">
<g>
	<path fill="#fff" d="M100.3,110.3c-4.8,5.6-10.8,10.2-17.6,13.3H128v-13.3H100.3z"/>
	<path fill="#fff" d="M108.2,75.9c0-26.3-21.4-47.8-47.8-47.8c-14.9,0-28.2,6.8-36.9,17.5c-1.7-0.5-3.2-1.3-4.4-2.5c-2.1-2-3.4-4.7-3.4-7.8
		c0-5.9,4.8-10.7,10.7-10.7c0.9,0,1.8,0.1,2.7,0.4l-4.1,8.4l9.1-3.1L46.6,26l-0.3-0.9l-7-20.8L35,12.9c-2.7-1.1-5.6-1.6-8.6-1.6
		c-13.3,0-24.1,10.8-24.1,24.1c0,7.9,3.9,15,9.8,19.3c1.3,1,2.8,1.8,4.3,2.5c-2.4,5.7-3.8,12-3.8,18.6c0,5.8,1.1,11.5,3.2,16.9
		l-8.9,3.8l21.3,8.4l8.4-21.3L28,87.5c-1.3-3.7-2.1-7.6-2.1-11.6c0-19,15.5-34.4,34.4-34.4s34.4,15.5,34.4,34.4
		c0,19-15.5,34.4-34.4,34.4H0v13.3h60.4C86.8,123.7,108.2,102.2,108.2,75.9z"/>
</g>
</svg>
