<?xml version="1.0" encoding="utf-8"?>
<!-- Generator: Adobe Illustrator 24.1.2, SVG Export Plug-In . SVG Version: 6.00 Build 0)  -->
<svg version="1.1" xmlns="http://www.w3.org/2000/svg" xmlns:xlink="http://www.w3.org/1999/xlink" x="0px" y="0px"
	 viewBox="0 0 96 96" style="enable-background:new 0 0 96 96;" xml:space="preserve">
<style type="text/css">
	.st0{fill:#FFFFFF;}
</style>
<g id="Laag_2">
	<ellipse transform="matrix(1.101772e-02 -0.9999 0.9999 1.101772e-02 -0.6118 94.9602)" cx="47.7" cy="47.8" rx="37.8" ry="38.2"/>
</g>
<g id="Laag_1">
	<path class="st0" d="M48,9C26.5,9,9,26.5,9,48s17.5,39,39,39s39-17.5,39-39S69.5,9,48,9z M48,15c18.3,0,33,14.7,33,33
		S66.3,81,48,81S15,66.3,15,48S29.7,15,48,15z M48,24c-14.3,2.5-27,15.7-27,30c7-12.3,11.6-13.2,12.9-13.2c1.3,0,2,0.7,2,2.2v18.4
		c0,2.3-4.4,1.9-5.9,1.7c5.4,8.1,18,9,18,9l6-6l6,3c9.5-4.3,15-13.6,15-15c-4.1,4.5-8.2,6-9,6s-3-0.4-3-1.5V36.7
		c0-1.9,4.4-7.7,6-9.8c-10.8,2.8-14,7.8-14,7.8S54.2,33,51,33c1.2,1,3,3.8,3,6v18.4c0,0-3.9,2.6-6,2.6c-2.1,0-3.1-0.8-3.1-2.4
		S45,36,45,36s-3,1.1-3-5.1C42,27.9,48,24,48,24z"/>
</g>
</svg>
