<?xml version="1.0" encoding="utf-8"?>
<!-- Generator: Adobe Illustrator 24.1.2, SVG Export Plug-In . SVG Version: 6.00 Build 0)  -->
<svg version="1.1" id="Laag_1" xmlns="http://www.w3.org/2000/svg" xmlns:xlink="http://www.w3.org/1999/xlink" x="0px" y="0px"
	 viewBox="0 0 2500 2438" style="enable-background:new 0 0 2500 2438;" xml:space="preserve">
<style type="text/css">
	.st0{fill:#FFFFFF;}
</style>
<rect width="2500" height="2438"/>
<path class="st0" d="M740.6,653.4L444.8,1687.8c-2.1,12.5,0,15.6,10.4,15.6h153.1c10.4,0,13.5-3.1,15.6-11.5l82.3-311.5v0h334.4
	L1126,1693c2.1,7.3,7.3,10.4,15.6,10.4h171.9c8.3,0,10.4-5.2,8.3-13.5L990.6,568c-2.1-8.3-5.2-10.4-12.5-10.4H759.4 M870.8,722.1
	h2.1c26,121.9,96.9,374,126,489.6H749C791.7,1050.2,849,844,870.8,722.1z"/>
<path class="st0" d="M2004.2,1312.8c8.3-2.1,11.5-5.2,13.5-13.5c5.2-19.8,8.3-60.4,8.3-110.4c0-155.2-79.2-345.8-306.3-345.8
	c-224,0-351,201-351,446.9c0,226,103.1,429.2,378.1,429.2c85.4,0,154.2-12.5,209.4-39.6c7.3-5.2,10.4-10.4,10.4-20.8v-130.2
	c0-9.4-5.2-10.4-12.5-7.3c-55.2,24-108.3,32.3-169.8,32.3c-157.5,0-224.3-93.9-227-233.3h272.9
	C1921.9,1320,1983.3,1315.9,2004.2,1312.8z M1559.4,1175.3c10.4-92.7,53.1-180.2,153.1-180.2c108.3,0,135.4,104.2,135.4,160.4
	c0,5.2-2.1,10.4-2.1,17.7c-5.2,2.1-24,2.1-77.1,2.1H1559.4z"/>
</svg>
