<?xml version="1.0" encoding="utf-8"?>
<!-- Generator: Adobe Illustrator 24.1.2, SVG Export Plug-In . SVG Version: 6.00 Build 0)  -->
<svg version="1.1" id="Laag_1" xmlns="http://www.w3.org/2000/svg" xmlns:xlink="http://www.w3.org/1999/xlink" x="0px" y="0px"
	 viewBox="0 0 240 240" style="enable-background:new 0 0 240 240;" xml:space="preserve">
<path d="M174.7,112.4c-5.8-4.6-13.6-7.4-22.2-7.4c-8.5,0-16.4,2.8-22.2,7.4c-5.9,4.7-9.8,11.3-10.3,18.7c-0.5,7.7,2.9,14.8,8.7,20.1
	c5.9,5.4,14.4,8.8,23.8,8.8c9.4,0,17.9-3.4,23.8-8.8c5.8-5.3,9.1-12.4,8.7-20.1C184.5,123.7,180.6,117.1,174.7,112.4z"/>
<path d="M229.4,129.7c-1.3-9.1-4.5-17.7-9.3-25.5c-4.5-7.2-10.2-13.4-17-18.7l0,0l-0.2-0.1c-0.1-0.1-0.3-0.3-0.4-0.4l-71.3-52.8
	c-4.3-3.4-10.6-2.8-14.1,1.6c-3.5,4.3-2.8,10.6,1.6,14.1L148.7,70H52.5C45.6,70,40,75.6,40,82.5S45.6,95,52.5,95h35.8l-73.9,63
	c-5.2,4.5-5.9,12.4-1.4,17.6c2.5,2.9,6,4.4,9.5,4.4c2.9,0,5.8-1,8.1-3l44.8-38.4c-0.1,4-0.2,7.7-0.2,8.8C75.2,165,95,210,153.4,210
	c41.6,0,76.4-25,76.4-66.3C230.2,139,230,134.3,229.4,129.7z M197.6,145.8c-2,5.4-5.2,10.5-9.7,15c-9.1,9.1-21.7,14.3-35.4,14.3
	c-13.7,0-26.4-5.1-35.5-14.2c-4.4-4.4-7.7-9.5-9.7-14.9c-2-5.3-2.7-11-2.2-16.7c0.5-5.6,2.2-10.9,4.9-15.7c2.6-4.7,6.3-9,10.8-12.6
	c8.8-7.1,20-10.9,31.7-10.9c11.7,0,22.9,3.8,31.7,10.8c4.5,3.6,8.1,7.9,10.8,12.6c2.7,4.8,4.4,10.1,4.9,15.7
	C200.4,134.8,199.6,140.4,197.6,145.8z"/>
</svg>
