<?xml version="1.0" standalone="no"?>
<!DOCTYPE svg PUBLIC "-//W3C//DTD SVG 20010904//EN"
 "http://www.w3.org/TR/2001/REC-SVG-20010904/DTD/svg10.dtd">
<svg version="1.0" xmlns="http://www.w3.org/2000/svg"
 width="1200.000000pt" height="1200.000000pt" viewBox="0 0 1200.000000 1200.000000"
 preserveAspectRatio="xMidYMid meet">

<g transform="translate(0.000000,1200.000000) scale(0.100000,-0.100000)"
fill="#000000" stroke="none">
<path d="M5987 11608 c-40 -61 -3565 -6173 -3599 -6238 -161 -311 -169 -713
-22 -1046 36 -82 1514 -2640 1585 -2744 186 -273 422 -506 695 -689 303 -202
622 -326 989 -383 112 -17 185 -21 365 -21 259 0 414 19 636 78 571 151 1088
525 1427 1032 72 108 1494 2567 1556 2691 161 324 163 745 4 1067 -14 28 -347
609 -741 1292 l-717 1241 -21 -36 c-12 -21 -497 -860 -1078 -1867 -581 -1006
-1060 -1831 -1064 -1832 -5 -2 -378 636 -390 666 -1 5 450 793 1004 1752 554
959 1015 1767 1025 1794 46 132 48 273 4 398 -25 74 -556 1000 -566 989 -4 -4
-640 -1105 -1414 -2447 -775 -1342 -1414 -2449 -1421 -2460 -11 -18 56 -138
625 -1125 629 -1091 638 -1106 716 -1185 87 -88 162 -132 276 -161 88 -23 249
-15 338 16 87 31 206 114 259 180 24 30 416 700 871 1489 455 788 831 1433
836 1433 5 0 95 -150 201 -334 l193 -333 -23 -40 c-13 -22 -344 -596 -736
-1275 -392 -679 -733 -1264 -758 -1300 -64 -91 -223 -247 -314 -308 -319 -214
-681 -279 -1041 -188 -304 77 -584 277 -752 536 -95 147 -1480 2557 -1480
2575 1 11 692 1218 1538 2682 846 1465 1546 2682 1556 2705 58 138 62 290 11
435 -15 42 -486 876 -546 966 -12 18 -13 18 -27 -5z"/>
</g>
</svg>
