<?xml version="1.0" encoding="utf-8"?>
<!-- Generator: Adobe Illustrator 24.2.1, SVG Export Plug-In . SVG Version: 6.00 Build 0)  -->
<svg version="1.1" id="Laag_1" xmlns="http://www.w3.org/2000/svg" xmlns:xlink="http://www.w3.org/1999/xlink" x="0px" y="0px"
	 viewBox="0 0 107 120.9" style="enable-background:new 0 0 107 120.9;" xml:space="preserve">
<path d="M102.8,26.8L58.7,1.2c-2.8-1.6-6.4-1.6-9.2,0L4.9,26.8C2,28.4,0,31.5,0,34.9V86c0,3.3,2.1,6.4,5,8.1l11.8,6.7
	c5.6,2.8,7.6,2.8,10.2,2.8c8.3,0,13.1-5,13.1-13.8V39.2c0-0.7-0.4-1.8-1.1-1.8h-5.6c-0.7,0-2.3,1.1-2.3,1.8v50.5
	c0,3.9-3.5,7.8-10.1,4.5l-12.2-7C8.3,87,8,86.5,8,86V34.9c0-0.5,0.6-1,1-1.2L53.4,8.1c0.4-0.2,1-0.2,1.4,0l43.9,25.6
	c0.4,0.3,0.3,0.7,0.3,1.2V86c0,0.5,0.2,1-0.2,1.2l-44.1,25.6c-0.4,0.2-0.8,0.2-1.3,0L42.1,106c-0.3-0.2-0.7-0.3-1.1-0.1
	c-3.1,1.8-3.7,2-6.7,3c-0.7,0.3-1.8,0.7,0.4,1.9l14.8,8.8c1.4,0.8,3,1.2,4.6,1.2c1.6,0,3.3-0.4,4.7-1.2l43.9-25.6
	c2.9-1.7,4.2-4.8,4.2-8.1V34.9C107,31.5,105.6,28.5,102.8,26.8z M67.9,77.9c-11.7,0-14.3-3.2-15.2-9.1c-0.1-0.6-0.6-1.4-1.3-1.4
	h-5.7c-0.7,0-1.3,0.9-1.3,1.6c0,7.5,4.1,16.5,23.5,16.5c14,0,22.1-5.5,22.1-15.1c0-9.6-6.5-12.1-20.1-13.9
	c-13.8-1.8-15.2-2.7-15.2-6c0-2.7,1.2-6.2,11.4-6.2c9.1,0,12.5,2,13.8,8.1c0.1,0.6,0.6,1,1.2,1H87c0.4,0,0.7-0.1,0.9-0.4
	c0.2-0.3,0.4-0.6,0.3-1c-0.9-10.6-7.9-15.5-22.1-15.5C53.5,36.6,46,41.9,46,50.9c0,9.7,7.5,12.4,19.6,13.6
	c14.5,1.4,15.6,3.5,15.6,6.4C81.2,75.8,77.2,77.9,67.9,77.9z"/>
</svg>
