<svg xmlns="http://www.w3.org/2000/svg" version="1.1" xmlns:xlink="http://www.w3.org/1999/xlink" xmlns:svgjs="http://svgjs.dev/svgjs" viewBox="0 0 800 800"><defs><linearGradient x1="50%" y1="0%" x2="50%" y2="100%" id="ccchaos-grad"><stop stop-color="#4c1d95" stop-opacity="1" offset="0%"></stop><stop stop-color="#d946ef" stop-opacity="1" offset="100%"></stop></linearGradient></defs><g stroke-width="2" stroke="url(#ccchaos-grad)" fill="none" stroke-linecap="round"><path d="M366.61 77.64C377.19 78.82 387.46 79.48 397.41 79.64 407.35 78.8 416.98 77.74 426.29 76.68 435.63 75.31 444.7 74.48 453.53 74.44 462.47 74.88 471.25 76.53 479.94 79.48 488.85 83.31 497.8 88.51 506.85 94.97 516.29 102.2 525.98 110.44 536.02 119.48 546.59 128.82 557.63 138.61 569.19 148.63 581.38 158.48 594.15 168.29 607.47 177.97 621.36 187.17 635.73 196.14 650.45 204.89 665.46 213.1 680.54 221.15 695.47 229.11 710.17 236.63 724.27 244.19 737.44 251.87 749.7 259.28 760.52 266.93 769.58 274.89 777.07 282.72 782.39 290.94 785.31 299.57 786.32 308.15 784.83 317.18 780.82 326.68 775.12 336.14 767.21 346.08 757.36 356.48 746.64 366.87 734.69 377.72 721.96 389.04 709.63 400.36 697.69 411.91 686.57 423.66 676.95 435.45 668.68 447.47 661.93 459.73 657.18 472.06 654.01 484.65 652.34 497.48 652.53 510.39 653.87 523.52 656.11 536.8 659.59 550.08 663.43 563.39 667.32 576.59 671.68 589.55 675.56 602.15 678.71 614.14 681.66 625.49 683.51 635.9 684.13 645.08 683.43 656.51 673.97 669.45 665.35 670.86 658.48 670.52 650.49 669.09 641.51 666.94 632.01 665.21 621.7 663.71 610.75 662.98 599.48 664.07 587.72 666.78 575.62 671.45 563.36 678.59 550.88 687.72 538.28 698.57 525.63 710.98 512.94 723.97 500.28 736.7 487.62 748.68 475.03 758.68 462.55 765.84 450.08 770.06 437.72 770.48 425.5 766.95 413.27 760.36 401.44 750.86 389.99 739.37 378.51 727.24 367.37 715.04 356.56 703.67 345.67 694.2 335.06 686.77 324.72 681.63 314.26 679.26 304.02 678.99 293.99 680.41 283.8 683.61 273.78 687.39 263.92 691.09 253.88 694.83 243.97 697.38 234.21 698.33 224.27 698.01 214.47 695.59 204.83 691.06 195.06 684.93 185.47 676.85 176.12 667.09 166.71 656.15 157.58 644.02 148.8 631.07 140.06 617.61 131.73 603.79 123.88 589.88 116.17 575.99 109 562.27 102.42 548.86 96.07 535.71 90.36 522.93 85.33 510.52 80.56 498.41 76.48 486.6 73.12 475.05 70.01 463.71 67.59 452.51 65.88 441.42 64.38 430.44 63.55 419.46 63.41 408.47 63.39 397.51 64.02 386.48 65.3 375.4 66.62 364.31 68.51 353.42 70.94 342.77 73.31 332.13 76.16 321.77 79.43 311.72 82.57 301.74 86.09 292.12 89.94 282.95 93.57 273.86 97.49 265.26 101.68 257.18 105.59 249.2 109.74 241.74 114.12 234.81 118.22 227.91 122.57 221.47 127.15 215.46 131.5 209.29 136.14 203.38 141.06 197.65 145.85 191.52 151 185.37 156.5 179.1 161.97 172.21 167.86 165.05 174.16 157.59 180.52 149.46 187.33 141.06 194.58 132.47 201.95 123.47 209.76 114.55 217.99 105.91 226.36 97.42 235.13 89.63 244.26 82.79 253.51 76.68 263.09 71.85 272.93 68.46 282.87 66.03 293.04 65.03 303.37 65.38 313.76 66.33 324.27 68.21 334.83 70.76 345.42 73.07 356.03 75.44 366.61 77.64" stroke-dasharray="0 0" transform="rotate(0, 400, 400)" opacity="0.44"></path><path d="M363.84 89.52C373.97 90.72 383.88 91.42 393.54 91.63 403.2 90.87 412.63 89.87 421.83 88.83 431.06 87.43 440.13 86.49 449.04 86.25 458.06 86.39 467.02 87.64 475.96 90.09 485.13 93.37 494.4 97.95 503.83 103.77 513.62 110.38 523.71 118.03 534.14 126.54 545.05 135.47 556.4 144.94 568.23 154.76 580.59 164.54 593.44 174.4 606.74 184.22 620.48 193.68 634.56 202.98 648.85 212.09 663.29 220.72 677.68 229.18 691.77 237.52 705.53 245.43 718.6 253.31 730.69 261.24 741.83 268.86 751.55 276.65 759.54 284.66 766.05 292.48 770.5 300.63 772.71 309.13 773.18 317.53 771.32 326.34 767.16 335.58 761.48 344.78 753.8 354.42 744.33 364.53 734.1 374.62 722.74 385.19 710.64 396.24 698.91 407.29 687.5 418.59 676.8 430.11 667.45 441.66 659.29 453.46 652.48 465.48 647.49 477.53 643.93 489.82 641.74 502.27 641.27 514.75 641.89 527.34 643.39 539.97 646.1 552.49 649.23 564.9 652.49 577.03 656.29 588.81 659.75 600.07 662.65 610.59 665.48 620.42 667.39 629.22 668.25 636.75 668.21 645.87 660.95 655.14 653.76 655.56 647.94 654.99 641.03 653.67 633.15 651.96 624.76 650.93 615.56 650.36 605.66 650.73 595.43 652.91 584.67 656.71 573.48 662.31 562.12 670.14 550.46 679.69 538.6 690.66 526.68 702.86 514.63 715.39 502.54 727.47 490.43 738.69 478.32 747.94 466.26 754.47 454.2 758.25 442.19 758.49 430.26 755.06 418.32 748.82 406.73 739.84 395.46 728.96 384.17 717.4 373.18 705.62 362.48 694.47 351.71 684.94 341.18 677.16 330.9 671.41 320.5 668.2 310.31 666.97 300.3 667.42 290.15 669.68 280.15 672.7 270.31 675.91 260.3 679.45 250.43 682.16 240.71 683.62 230.84 684.16 221.11 682.89 211.55 679.75 201.89 675.19 192.43 668.77 183.21 660.69 173.96 651.42 165 640.84 156.39 629.28 147.85 617.06 139.72 604.26 132.06 591.16 124.57 577.89 117.6 564.6 111.22 551.44 105.08 538.41 99.56 525.62 94.7 513.14 90.12 500.86 86.22 488.87 83.01 477.15 80.07 465.61 77.82 454.27 76.27 443.11 74.93 432.05 74.26 421.09 74.27 410.22 74.42 399.38 75.2 388.59 76.62 377.84 78.08 367.1 80.1 356.65 82.62 346.51 85.09 336.39 88 326.6 91.32 317.19 94.49 307.81 98.01 298.84 101.84 290.32 105.44 281.84 109.32 273.84 113.43 266.32 117.27 258.83 121.33 251.8 125.6 245.23 129.59 238.59 133.81 232.32 138.24 226.36 142.43 220.15 146.89 214.11 151.61 208.14 156.18 201.71 161.07 195.19 166.3 188.51 171.45 181.21 177 173.65 182.93 165.82 188.87 157.41 195.25 148.8 202.03 140.1 208.89 131.13 216.18 122.34 223.87 113.95 231.65 105.8 239.84 98.43 248.37 92.06 257 86.45 265.95 82.11 275.18 79.16 284.5 77.13 294.05 76.45 303.78 77.03 313.57 78.14 323.5 80.11 333.53 82.68 343.58 84.99 353.69 87.35 363.83 89.52" stroke-dasharray="0 0" transform="rotate(1.7857142857142856, 400, 400)" opacity="0.68"></path><path d="M362.3 101.41C372.04 102.62 381.61 103.36 391.01 103.62 400.43 102.94 409.68 102.01 418.8 101.01 427.95 99.6 437.02 98.59 446.01 98.18 455.12 98.05 464.24 98.93 473.41 100.92 482.8 103.65 492.34 107.62 502.08 112.79 512.15 118.75 522.53 125.76 533.24 133.69 544.37 142.1 555.92 151.15 567.87 160.65 580.26 170.23 593.05 180.01 606.18 189.84 619.63 199.44 633.3 208.96 647.05 218.34 660.83 227.33 674.43 236.17 687.63 244.87 700.42 253.17 712.45 261.41 723.45 269.64 733.51 277.56 742.16 285.57 749.14 293.73 754.73 301.68 758.38 309.87 759.93 318.35 759.91 326.7 757.75 335.41 753.48 344.5 747.86 353.52 740.41 362.96 731.33 372.84 721.59 382.69 710.8 393 699.32 403.77 688.17 414.55 677.29 425.57 667.01 436.79 657.95 448.03 649.92 459.49 643.1 471.12 637.91 482.76 634.01 494.57 631.35 506.45 630.28 518.3 630.24 530.16 631.03 541.92 633 553.5 635.41 564.83 638.03 575.73 641.25 586.23 644.24 596.09 646.81 605.1 650.37 617.06 652.69 633.81 650.92 638.21 647.23 640.26 633.42 639.1 623.57 637.52 616.23 637.3 608.06 637.73 599.18 639.19 589.97 642.43 580.18 647.2 569.91 653.62 559.45 662.01 548.63 671.85 537.54 682.81 526.37 694.72 515 706.73 503.52 718.14 492.01 728.6 480.42 737.13 468.81 743.05 457.2 746.42 445.58 746.5 433.98 743.18 422.37 737.27 411.04 728.81 400 718.51 388.93 707.52 378.11 696.2 367.54 685.3 356.91 675.77 346.49 667.73 336.28 661.47 325.98 657.51 315.85 655.39 305.89 654.88 295.81 656.2 285.86 658.39 276.06 660.99 266.13 664.16 256.33 666.81 246.67 668.55 236.9 669.68 227.28 669.31 217.83 667.32 208.32 664.15 199.01 659.26 189.95 652.76 180.9 645.13 172.14 636.15 163.73 626.07 155.42 615.25 147.52 603.68 140.08 591.62 132.82 579.25 126.08 566.67 119.92 554.06 114 541.43 108.7 528.92 104.04 516.61 99.66 504.41 95.95 492.45 92.92 480.75 90.16 469.17 88.08 457.81 86.69 446.67 85.52 435.62 85.01 424.73 85.17 414 85.47 403.31 86.39 392.73 87.94 382.3 89.54 371.87 91.66 361.8 94.27 352.12 96.82 342.43 99.8 333.13 103.15 324.25 106.35 315.37 109.88 306.91 113.69 298.9 117.28 290.89 121.11 283.32 125.17 276.19 128.95 269.02 132.95 262.25 137.13 255.85 141.03 249.3 145.13 243.03 149.44 236.97 153.5 230.6 157.81 224.3 162.36 218 166.73 211.22 171.4 204.3 176.38 197.19 181.26 189.52 186.5 181.6 192.09 173.47 197.67 164.86 203.65 156.14 210.01 147.43 216.41 138.58 223.21 130.01 230.39 121.93 237.64 114.2 245.28 107.3 253.25 101.43 261.3 96.33 269.68 92.49 278.34 89.98 287.05 88.34 296.03 87.96 305.21 88.75 314.43 90.01 323.83 92.04 333.36 94.62 342.9 96.92 352.56 99.25 362.29 101.41" stroke-dasharray="0 0" transform="rotate(3.571428571428571, 400, 400)" opacity="0.37"></path><path d="M362.06 113.29C371.43 114.51 380.7 115.29 389.88 115.61 399.07 115.02 408.18 114.17 417.21 113.22 426.3 111.83 435.36 110.76 444.42 110.21 453.6 109.87 462.85 110.41 472.2 111.97 481.76 114.18 491.5 117.56 501.47 122.08 511.73 127.36 522.29 133.71 533.18 140.98 544.41 148.8 556.01 157.33 567.95 166.39 580.23 175.65 592.83 185.21 605.66 194.93 618.7 204.53 631.85 214.14 644.95 223.68 657.99 232.92 670.75 242.05 683.01 251.06 694.81 259.72 705.79 268.31 715.72 276.85 724.73 285.09 732.35 293.37 738.38 301.73 743.11 309.89 746.03 318.21 746.99 326.74 746.54 335.15 744.13 343.84 739.78 352.84 734.24 361.78 727.04 371.08 718.36 380.75 709.1 390.41 698.88 400.48 688 410.97 677.43 421.46 667.06 432.14 657.21 442.99 648.44 453.84 640.58 464.85 633.77 475.97 628.43 487.07 624.24 498.24 621.17 509.4 619.56 520.47 618.9 531.44 619.03 542.18 620.29 552.69 622.01 562.83 623.99 572.44 626.6 581.62 629.09 590.07 631.27 597.63 634.33 619.55 621.39 624.3 612.88 623.75 606.5 624.43 599.29 625.87 591.36 628.39 583.12 632.6 574.27 638.23 564.9 645.34 555.34 654.15 545.36 664.15 535.04 675.01 524.64 686.55 513.97 698 503.12 708.71 492.23 718.43 481.2 726.24 470.09 731.59 458.96 734.57 447.77 734.5 436.53 731.29 425.29 725.72 414.27 717.74 403.47 708.03 392.65 697.6 382.04 686.76 371.63 676.17 361.18 666.7 350.9 658.48 340.8 651.8 330.62 647.17 320.59 644.23 310.7 642.83 300.73 643.19 290.87 644.53 281.15 646.42 271.34 649.07 261.64 651.47 252.09 653.27 242.46 654.74 232.98 655.03 223.68 653.95 214.35 651.93 205.23 648.37 196.37 643.32 187.54 637.25 179.01 629.82 170.84 621.26 162.78 611.91 155.13 601.71 147.94 590.87 140.94 579.6 134.46 567.97 128.54 556.15 122.87 544.19 117.79 532.21 113.36 520.32 109.2 508.45 105.69 496.74 102.86 485.24 100.29 473.8 98.38 462.58 97.16 451.58 96.15 440.64 95.8 429.89 96.1 419.36 96.54 408.84 97.6 398.51 99.26 388.37 100.97 378.23 103.2 368.5 105.88 359.2 108.51 349.88 111.53 340.98 114.92 332.5 118.14 324 121.68 315.92 125.48 308.27 129.06 300.58 132.87 293.28 136.88 286.37 140.63 279.37 144.56 272.69 148.67 266.3 152.5 259.71 156.52 253.3 160.73 247.01 164.69 240.39 168.86 233.76 173.26 227.08 177.48 219.92 181.96 212.61 186.72 205.11 191.37 197.11 196.34 188.91 201.64 180.56 206.89 171.85 212.51 163.12 218.49 154.5 224.47 145.86 230.84 137.61 237.56 129.92 244.33 122.66 251.46 116.27 258.93 110.93 266.45 106.36 274.29 103 282.42 100.93 290.59 99.65 299.03 99.55 307.7 100.54 316.39 101.92 325.29 104.01 334.36 106.59 343.45 108.87 352.68 111.17 362.05 113.29" stroke-dasharray="0 0" transform="rotate(5.357142857142857, 400, 400)" opacity="0.47"></path><path d="M363.12 125.18C372.15 126.41 381.16 127.22 390.12 127.6 399.1 127.09 408.07 126.33 417.03 125.45 426.04 124.1 435.09 123.01 444.19 122.35 453.41 121.82 462.75 122.07 472.22 123.24 481.88 124.96 491.75 127.78 501.85 131.67 512.2 136.27 522.84 141.92 533.77 148.51 544.99 155.67 556.51 163.59 568.31 172.12 580.36 180.93 592.63 190.14 605.05 199.6 617.57 209.06 630.09 218.62 642.47 228.18 654.7 237.55 666.56 246.86 677.87 256.08 688.66 265.03 698.6 273.9 707.49 282.71 715.48 291.26 722.14 299.8 727.27 308.39 731.21 316.77 733.46 325.26 733.9 333.89 733.07 342.4 730.45 351.12 726.07 360.08 720.64 368.98 713.7 378.17 705.42 387.67 696.64 397.15 686.96 406.98 676.68 417.16 666.67 427.34 656.81 437.65 647.39 448.04 638.93 458.44 631.25 468.91 624.49 479.4 619.05 489.86 614.62 500.28 611.19 510.59 609.1 520.78 607.87 530.76 607.39 540.4 607.98 549.79 609.04 558.71 610.38 567.02 612.37 574.91 614.33 582.04 616.09 588.27 619.1 605.62 608.55 610.11 601.21 610.76 595.68 612.37 589.35 614.81 582.29 618.31 574.96 623.4 567 629.78 558.49 637.43 549.79 646.53 540.63 656.57 531.09 667.22 521.45 678.33 511.5 689.17 501.3 699.18 491.05 708.16 480.61 715.29 470.01 720.09 459.41 722.71 448.67 722.5 437.83 719.41 426.99 714.15 416.31 706.66 405.79 697.52 395.27 687.65 384.9 677.29 374.69 667.05 364.45 657.71 354.35 649.39 344.39 642.38 334.38 637.18 324.49 633.51 314.72 631.26 304.89 630.71 295.17 631.17 285.57 632.29 275.9 634.3 266.36 636.31 256.96 637.96 247.51 639.54 238.21 640.23 229.11 639.81 220 638.7 211.1 636.25 202.48 632.46 193.9 627.78 185.64 621.82 177.73 614.72 169.95 606.86 162.58 598.07 155.67 588.54 148.96 578.54 142.75 568.02 137.09 557.18 131.69 546.11 126.87 534.89 122.67 523.63 118.75 512.32 115.45 501.07 112.82 489.96 110.45 478.86 108.73 467.93 107.67 457.19 106.83 446.49 106.63 435.99 107.06 425.7 107.64 415.43 108.82 405.35 110.58 395.49 112.4 385.64 114.71 376.21 117.45 367.22 120.14 358.2 123.21 349.61 126.62 341.43 129.87 333.21 133.42 325.39 137.21 317.95 140.78 310.44 144.57 303.28 148.55 296.44 152.26 289.47 156.16 282.74 160.21 276.22 163.99 269.48 167.95 262.83 172.07 256.25 175.95 249.31 180.02 242.33 184.3 235.25 188.38 227.74 192.71 220.07 197.29 212.24 201.74 203.99 206.48 195.6 211.52 187.14 216.5 178.43 221.8 169.8 227.45 161.39 233.07 153.06 239.05 145.19 245.37 137.97 251.7 131.22 258.38 125.38 265.39 120.58 272.42 116.54 279.78 113.66 287.43 112.01 295.1 111.08 303.05 111.24 311.25 112.4 319.46 113.89 327.91 116.01 336.57 118.57 345.22 120.82 354.08 123.08 363.11 125.18" stroke-dasharray="0 0" transform="rotate(7.142857142857142, 400, 400)" opacity="0.80"></path><path d="M365.44 137.06C374.17 138.3 382.92 139.14 391.69 139.58 400.47 139.17 409.3 138.5 418.17 137.7 427.09 136.41 436.11 135.32 445.21 134.59 454.42 133.91 463.79 133.92 473.31 134.73 483 136.01 492.91 138.29 503.04 141.58 513.39 145.52 524 150.47 534.85 156.34 545.93 162.8 557.26 170.05 568.78 177.95 580.48 186.21 592.32 194.94 604.2 204.02 616.11 213.19 627.93 222.54 639.52 231.98 650.9 241.33 661.83 250.68 672.16 259.99 681.95 269.11 690.88 278.17 698.76 287.17 705.78 295.95 711.52 304.72 715.83 313.49 719.04 322.08 720.68 330.73 720.67 339.46 719.51 348.08 716.73 356.85 712.36 365.78 707.06 374.65 700.4 383.75 692.51 393.08 684.2 402.38 675.07 411.96 665.36 421.79 655.89 431.63 646.55 441.51 637.56 451.4 629.41 461.28 621.94 471.14 615.25 480.93 609.75 490.67 605.13 500.28 601.4 509.67 598.88 518.93 597.15 527.87 596.11 536.4 596.07 544.68 596.49 552.42 597.22 559.5 599.31 569.19 603.5 583.79 604.83 588.52 604.35 593.36 595.04 596.68 588.71 598.62 583.91 601.16 578.36 604.55 572.1 608.96 565.6 614.8 558.46 621.78 550.75 629.84 542.88 639.09 534.51 649.06 525.72 659.42 516.84 670.03 507.59 680.24 498.04 689.54 488.45 697.79 478.61 704.27 468.55 708.56 458.49 710.83 448.24 710.5 437.83 707.52 427.43 702.57 417.12 695.55 406.93 686.97 396.73 677.66 386.64 667.8 376.68 657.93 366.69 648.78 356.8 640.44 347.03 633.18 337.23 627.52 327.52 623.2 317.92 620.18 308.28 618.76 298.74 618.35 289.31 618.68 279.84 619.97 270.49 621.44 261.29 622.78 252.06 624.27 243 625.11 234.13 625.11 225.28 624.65 216.65 623.07 208.3 620.33 200.02 616.86 192.05 612.2 184.44 606.45 176.97 600.01 169.9 592.62 163.29 584.43 156.89 575.74 150.98 566.45 145.61 556.71 140.49 546.7 135.94 536.4 131.99 525.96 128.31 515.4 125.25 504.79 122.83 494.23 120.66 483.65 119.13 473.16 118.24 462.82 117.56 452.49 117.5 442.32 118.06 432.34 118.77 422.38 120.05 412.6 121.9 403.03 123.81 393.46 126.19 384.3 128.98 375.57 131.72 366.81 134.83 358.44 138.25 350.46 141.53 342.43 145.07 334.75 148.86 327.41 152.43 319.98 156.2 312.84 160.15 305.94 163.85 298.89 167.71 292.03 171.73 285.3 175.47 278.32 179.38 271.39 183.44 264.47 187.26 257.21 191.25 249.88 195.43 242.44 199.41 234.63 203.62 226.68 208.05 218.6 212.33 210.2 216.88 201.74 221.71 193.28 226.44 184.69 231.49 176.27 236.84 168.16 242.15 160.22 247.79 152.82 253.75 146.11 259.7 139.93 265.98 134.65 272.58 130.41 279.19 126.89 286.11 124.49 293.33 123.23 300.55 122.62 308.07 123.02 315.84 124.33 323.62 125.9 331.66 128.05 339.93 130.58 348.2 132.79 356.71 135.01 365.43 137.06" stroke-dasharray="0 0" transform="rotate(8.928571428571429, 400, 400)" opacity="0.79"></path><path d="M368.95 148.95C377.39 150.18 385.9 151.05 394.47 151.55 403.06 151.24 411.74 150.67 420.5 149.96 429.31 148.76 438.25 147.69 447.31 146.92 456.47 146.13 465.8 145.93 475.3 146.44 484.94 147.33 494.8 149.12 504.86 151.83 515.09 155.13 525.55 159.39 536.21 164.54 547.04 170.27 558.06 176.8 569.2 184.01 580.44 191.63 591.74 199.78 603.01 208.34 614.23 217.08 625.28 226.09 636.03 235.26 646.52 244.43 656.51 253.67 665.86 262.93 674.67 272.07 682.61 281.19 689.52 290.27 695.63 299.19 700.52 308.09 704.06 316.97 706.62 325.71 707.72 334.47 707.3 343.26 705.88 351.96 702.98 360.75 698.64 369.63 693.5 378.47 687.12 387.44 679.63 396.57 671.78 405.69 663.18 414.98 654.03 424.45 645.11 433.91 636.26 443.33 627.7 452.66 619.89 461.98 612.63 471.19 606.06 480.23 600.53 489.22 595.77 497.98 591.79 506.44 588.9 514.76 586.72 522.7 585.17 530.16 584.46 540.72 585.74 558.21 586.99 564.87 588.62 577.02 581.02 584.13 575.52 587.4 571.35 590.82 566.48 595.08 560.92 600.29 555.16 606.76 548.77 614.2 541.81 622.53 534.7 631.81 527.08 641.6 519.02 651.58 510.86 661.65 502.3 671.2 493.41 679.78 484.47 687.33 475.23 693.18 465.73 696.98 456.22 698.93 446.48 698.5 436.54 695.64 426.6 690.99 416.7 684.42 406.87 676.38 397.04 667.63 387.27 658.29 377.59 648.82 367.89 639.91 358.27 631.61 348.74 624.2 339.19 618.16 329.71 613.29 320.33 609.59 310.93 607.37 301.61 606.11 292.4 605.63 283.18 606.16 274.08 607 265.12 607.88 256.17 609.1 247.37 609.9 238.78 610.08 230.23 610.02 221.91 609.06 213.86 607.12 205.91 604.63 198.27 601.08 190.99 596.53 183.86 591.37 177.13 585.29 170.84 578.39 164.77 571.02 159.17 562.98 154.11 554.41 149.29 545.53 145.02 536.28 141.34 526.77 137.92 517.11 135.09 507.3 132.88 497.43 130.93 487.51 129.58 477.6 128.85 467.77 128.34 457.93 128.42 448.19 129.1 438.59 129.92 429 131.29 419.56 133.23 410.28 135.21 401.01 137.64 392.12 140.47 383.6 143.25 375.06 146.38 366.87 149.81 359.01 153.1 351.11 156.65 343.5 160.43 336.16 163.99 328.73 167.76 321.51 171.68 314.49 175.37 307.3 179.21 300.23 183.19 293.24 186.92 286.02 190.79 278.8 194.8 271.55 198.58 264 202.52 256.36 206.63 248.64 210.53 240.6 214.63 232.46 218.95 224.26 223.1 215.83 227.5 207.41 232.15 199.08 236.69 190.72 241.51 182.62 246.62 174.89 251.66 167.43 257.01 160.56 262.67 154.42 268.29 148.81 274.22 144.12 280.47 140.43 286.7 137.43 293.24 135.48 300.07 134.59 306.9 134.29 314.02 134.9 321.42 136.33 328.81 137.97 336.47 140.11 344.4 142.61 352.32 144.77 360.5 146.93 368.94 148.94" stroke-dasharray="0 0" transform="rotate(10.714285714285714, 400, 400)" opacity="0.79"></path><path d="M373.52 160.83C381.69 162.06 389.97 162.96 398.34 163.51 406.73 163.3 415.24 162.84 423.86 162.23 432.54 161.12 441.36 160.11 450.32 159.33 459.36 158.46 468.59 158.1 477.98 158.36 487.49 158.9 497.2 160.25 507.09 162.44 517.11 165.13 527.32 168.73 537.68 173.17 548.15 178.16 558.75 183.94 569.41 190.42 580.1 197.32 590.78 204.8 601.36 212.74 611.83 220.94 622.06 229.46 631.94 238.22 641.52 247.06 650.57 256.04 658.95 265.09 666.8 274.1 673.8 283.13 679.8 292.15 685.05 301.08 689.15 309.99 692 318.88 693.96 327.67 694.58 336.45 693.82 345.23 692.18 353.95 689.21 362.69 684.92 371.48 679.96 380.23 673.87 389.05 666.79 397.95 659.4 406.83 651.31 415.81 642.71 424.87 634.31 433.93 625.96 442.85 617.82 451.61 610.35 460.35 603.33 468.89 596.9 477.18 591.38 485.41 586.52 493.35 582.34 500.91 579.15 508.35 576.58 515.36 574.57 521.86 573.07 531.02 572.67 545.93 573.17 551.52 573.61 562.97 566.67 572.56 561.83 577.12 558.19 581.36 553.88 586.39 548.94 592.25 543.82 599.22 538.1 606.98 531.83 615.43 525.41 624.63 518.49 634.14 511.1 643.67 503.63 653.15 495.74 662.03 487.48 669.9 479.18 676.77 470.54 682.02 461.61 685.36 452.66 687.02 443.44 686.5 433.99 683.75 424.53 679.39 415.07 673.27 405.64 665.76 396.21 657.56 386.8 648.73 377.45 639.69 368.09 631.06 358.78 622.88 349.53 615.4 340.28 609.09 331.09 603.77 321.97 599.48 312.86 596.52 303.82 594.49 294.89 593.22 285.96 592.96 277.15 593.11 268.48 593.44 259.85 594.23 251.37 594.8 243.1 594.96 234.9 595.07 226.92 594.48 219.22 593.1 211.63 591.35 204.34 588.68 197.42 585.13 190.65 581.08 184.28 576.17 178.34 570.46 172.62 564.32 167.36 557.49 162.61 550.08 158.11 542.37 154.13 534.21 150.72 525.7 147.57 517.01 144.99 508.09 143 499.02 141.25 489.87 140.09 480.65 139.53 471.41 139.16 462.16 139.38 452.93 140.17 443.78 141.09 434.62 142.55 425.56 144.55 416.61 146.59 407.66 149.07 399.02 151.92 390.7 154.73 382.36 157.87 374.31 161.3 366.53 164.6 358.7 168.15 351.11 171.9 343.73 175.47 336.25 179.21 328.93 183.12 321.73 186.8 314.39 190.62 307.1 194.58 299.86 198.29 292.4 202.14 284.92 206.12 277.4 209.87 269.62 213.77 261.77 217.83 253.85 221.67 245.7 225.71 237.5 229.93 229.3 233.98 220.96 238.26 212.71 242.77 204.63 247.15 196.61 251.8 188.92 256.7 181.68 261.52 174.76 266.63 168.47 272.02 162.92 277.37 157.92 283.01 153.81 288.94 150.67 294.85 148.17 301.06 146.64 307.56 146.1 314.04 146.06 320.81 146.86 327.87 148.39 334.92 150.08 342.25 152.21 349.86 154.65 357.46 156.77 365.35 158.87 373.52 160.83" stroke-dasharray="0 0" transform="rotate(12.5, 400, 400)" opacity="0.53"></path><path d="M379.01 172.72C386.92 173.94 394.96 174.87 403.12 175.47 411.29 175.36 419.61 175.01 428.06 174.5 436.56 173.5 445.21 172.56 454.01 171.8 462.88 170.9 471.93 170.42 481.13 170.47 490.43 170.73 499.9 171.69 509.52 173.4 519.23 175.55 529.09 178.51 539.05 182.27 549.07 186.53 559.16 191.56 569.25 197.28 579.32 203.42 589.31 210.17 599.13 217.42 608.81 224.95 618.2 232.88 627.19 241.1 635.86 249.46 643.98 258.03 651.42 266.72 658.35 275.44 664.44 284.24 669.59 293.05 674.05 301.84 677.43 310.63 679.65 319.39 681.08 328.1 681.29 336.8 680.24 345.48 678.43 354.11 675.41 362.74 671.22 371.35 666.45 379.95 660.66 388.56 653.98 397.18 647.03 405.79 639.45 414.41 631.39 423.04 623.51 431.66 615.63 440.07 607.93 448.24 600.79 456.4 594.04 464.28 587.76 471.85 582.29 479.37 577.39 486.53 573.06 493.28 569.61 499.93 566.71 506.12 564.31 511.8 561.11 526.29 560.15 541.89 560.08 545.17 558.84 551.07 552.17 562.03 547.84 567.79 544.61 572.75 540.77 578.41 536.35 584.8 531.78 592.11 526.64 600.05 520.97 608.51 515.18 617.5 508.89 626.65 502.13 635.67 495.3 644.53 488.04 652.72 480.39 659.91 472.7 666.11 464.65 670.8 456.29 673.71 447.9 675.09 439.22 674.49 430.27 671.87 421.32 667.79 412.33 662.09 403.32 655.09 394.32 647.44 385.32 639.13 376.33 630.55 367.35 622.25 358.4 614.24 349.48 606.77 340.58 600.28 331.71 594.61 322.92 589.83 314.14 586.23 305.43 583.48 296.82 581.46 288.24 580.43 279.77 579.85 271.45 579.56 263.17 579.82 255.06 580.01 247.15 579.97 239.32 580.04 231.73 579.6 224.41 578.55 217.21 577.29 210.31 575.27 203.77 572.49 197.39 569.35 191.4 565.41 185.83 560.74 180.47 555.7 175.56 549.99 171.15 543.68 166.97 537.08 163.3 529.99 160.17 522.49 157.28 514.81 154.95 506.82 153.18 498.6 151.64 490.28 150.66 481.81 150.26 473.24 150.05 464.64 150.38 455.99 151.27 447.33 152.29 438.67 153.82 430.02 155.87 421.42 157.96 412.82 160.47 404.45 163.33 396.33 166.16 388.19 169.3 380.27 172.72 372.56 176.01 364.79 179.55 357.2 183.28 349.76 186.84 342.23 190.57 334.8 194.45 327.45 198.12 319.96 201.93 312.49 205.87 305.04 209.57 297.4 213.41 289.74 217.37 282.03 221.1 274.13 224.97 266.17 228.99 258.19 232.8 250.05 236.78 241.92 240.94 233.84 244.92 225.73 249.11 217.77 253.5 210.05 257.76 202.48 262.26 195.3 267 188.61 271.65 182.28 276.56 176.6 281.74 171.68 286.85 167.29 292.24 163.76 297.91 161.14 303.54 159.11 309.47 157.98 315.67 157.75 321.85 157.96 328.32 158.91 335.08 160.52 341.82 162.23 348.85 164.34 356.17 166.72 363.48 168.77 371.09 170.8 379 172.71" stroke-dasharray="0 0" transform="rotate(14.285714285714285, 400, 400)" opacity="0.11"></path><path d="M385.21 184.6C392.86 185.82 400.66 186.76 408.59 187.42 416.54 187.4 424.64 187.16 432.87 186.77 441.15 185.89 449.58 185.04 458.16 184.32 466.79 183.42 475.59 182.88 484.52 182.77 493.52 182.79 502.67 183.43 511.93 184.72 521.26 186.37 530.68 188.76 540.15 191.88 549.64 195.44 559.14 199.73 568.59 204.69 577.97 210.06 587.23 216.03 596.26 222.53 605.12 229.33 613.65 236.57 621.74 244.14 629.51 251.91 636.72 259.92 643.26 268.12 649.31 276.41 654.57 284.81 658.92 293.28 662.65 301.77 665.37 310.28 667.03 318.8 668 327.3 667.85 335.78 666.57 344.24 664.63 352.68 661.61 361.09 657.54 369.46 652.97 377.82 647.49 386.14 641.2 394.42 634.7 402.7 627.61 410.94 620.07 419.11 612.69 427.28 605.28 435.17 598.01 442.77 591.22 450.35 584.74 457.62 578.65 464.53 573.27 471.39 568.35 477.87 563.93 483.92 558.69 492.65 551.5 507.57 549.28 513.7 546.52 529.22 542.97 542.26 540.6 546.72 538.83 550.46 536.53 554.65 533.71 559.38 530.8 564.94 527.33 571.1 523.33 577.86 519.22 585.37 514.58 593.36 509.44 601.69 504.2 610.39 498.47 619.09 492.3 627.56 486.05 635.78 479.38 643.28 472.31 649.79 465.2 655.36 457.73 659.5 449.92 662.01 442.09 663.15 433.95 662.49 425.52 659.99 417.09 656.18 408.58 650.89 400.03 644.39 391.49 637.27 382.92 629.49 374.34 621.37 365.78 613.43 357.22 605.66 348.68 598.28 340.17 591.7 331.68 585.78 323.26 580.61 314.86 576.47 306.53 573.09 298.29 570.38 290.1 568.61 282.02 567.32 274.08 566.37 266.21 566.02 258.5 565.73 250.99 565.35 243.58 565.19 236.4 564.7 229.49 563.77 222.71 562.77 216.23 561.17 210.09 558.93 204.12 556.46 198.52 553.3 193.34 549.47 188.36 545.36 183.81 540.62 179.74 535.29 175.89 529.71 172.53 523.62 169.69 517.08 167.08 510.38 164.99 503.31 163.44 495.94 162.11 488.47 161.31 480.77 161.06 472.91 160.99 465 161.44 456.96 162.42 448.84 163.52 440.71 165.11 432.51 167.19 424.29 169.32 416.06 171.84 407.99 174.7 400.08 177.53 392.16 180.66 384.38 184.06 376.75 187.34 369.07 190.85 361.5 194.55 354.02 198.1 346.47 201.81 338.97 205.67 331.51 209.32 323.93 213.12 316.36 217.03 308.78 220.73 301.06 224.56 293.31 228.5 285.53 232.22 277.62 236.08 269.7 240.07 261.78 243.86 253.79 247.81 245.86 251.91 238.06 255.85 230.29 259.97 222.74 264.27 215.49 268.45 208.45 272.84 201.84 277.44 195.76 281.95 190.07 286.7 185.03 291.69 180.73 299.21 175.46 315.49 169.89 324.28 169.55 330.2 169.97 336.4 171.05 342.89 172.71 349.35 174.43 356.11 176.5 363.17 178.8 370.2 180.78 377.55 182.74 385.2 184.6" stroke-dasharray="0 0" transform="rotate(16.071428571428573, 400, 400)" opacity="0.54"></path><path d="M391.92 196.48C399.31 197.69 406.85 198.65 414.53 199.35 422.23 199.43 430.07 199.3 438.05 199.03 446.06 198.28 454.22 197.54 462.51 196.88 470.85 196.02 479.33 195.44 487.92 195.23 496.55 195.08 505.3 195.45 514.12 196.39 522.98 197.6 531.88 199.47 540.79 202.01 549.69 204.92 558.55 208.5 567.29 212.73 575.95 217.33 584.44 222.52 592.65 228.23 600.68 234.26 608.35 240.74 615.57 247.59 622.46 254.66 628.8 262.02 634.48 269.61 639.71 277.33 644.17 285.21 647.8 293.19 650.86 301.24 653 309.34 654.17 317.47 654.73 325.62 654.29 333.77 652.83 341.89 650.8 350.02 647.8 358.11 643.87 366.14 639.52 374.17 634.35 382.15 628.46 390.04 622.39 397.94 615.78 405.75 608.75 413.44 601.85 421.14 594.92 428.52 588.06 435.58 581.63 442.63 575.44 449.32 569.56 455.65 564.29 461.94 559.4 467.84 554.93 473.33 549.43 481.26 541.32 494.85 538.48 500.52 535.3 510.18 531.79 522.66 530.29 526.83 528.62 531.81 523.38 544.12 519.65 551.84 516.95 557.86 513.77 564.37 510.11 571.36 506.37 578.93 502.15 586.83 497.46 594.92 492.69 603.24 487.46 611.44 481.81 619.31 476.09 626.87 469.96 633.69 463.44 639.54 456.88 644.51 449.95 648.15 442.69 650.29 435.4 651.2 427.8 650.48 419.89 648.1 411.98 644.56 403.98 639.66 395.91 633.65 387.85 627.05 379.74 619.79 371.61 612.16 363.49 604.62 355.37 597.13 347.26 589.91 339.17 583.32 331.11 577.25 323.1 571.79 315.12 567.22 307.21 563.3 299.4 559.99 291.63 557.54 283.98 555.56 276.47 553.95 269.03 552.96 261.76 552.11 254.69 551.29 247.73 550.78 240.99 550.07 234.52 549.07 228.18 548.11 222.13 546.71 216.42 544.8 208.29 541.47 194.22 531.62 188.41 525.14 184.9 520.44 181.85 515.23 179.3 509.57 176.96 503.75 175.11 497.54 173.78 490.99 172.65 484.35 172.03 477.42 171.92 470.25 171.98 463.03 172.54 455.63 173.6 448.06 174.77 440.48 176.41 432.77 178.51 424.94 180.66 417.12 183.18 409.37 186.03 401.71 188.85 394.04 191.96 386.45 195.32 378.93 198.58 371.38 202.05 363.88 205.72 356.42 209.24 348.91 212.92 341.41 216.74 333.92 220.39 326.35 224.16 318.76 228.05 311.16 231.75 303.48 235.56 295.77 239.48 288.06 243.2 280.28 247.05 272.52 251.02 264.82 254.8 257.11 258.72 249.52 262.79 242.11 266.69 234.8 270.76 227.76 275 221.07 279.11 214.63 283.41 208.65 287.92 203.22 292.31 198.18 296.94 193.79 301.78 190.11 309.06 185.69 324.76 181.42 333.23 181.5 338.92 182.09 344.89 183.26 351.13 184.96 357.35 186.67 363.85 188.68 370.65 190.9 377.43 192.8 384.52 194.69 391.91 196.48" stroke-dasharray="0 0" transform="rotate(17.857142857142858, 400, 400)" opacity="0.75"></path><path d="M398.9 208.37C406.03 209.55 413.3 210.53 420.7 211.27 428.11 211.44 435.67 211.43 443.35 211.27 451.05 210.66 458.89 210.03 466.84 209.47 474.82 208.68 482.91 208.1 491.09 207.83 499.29 207.55 507.57 207.72 515.89 208.37 524.21 209.22 532.54 210.65 540.83 212.66 549.08 214.99 557.25 217.92 565.26 221.45 573.17 225.31 580.86 229.73 588.26 234.67 595.46 239.9 602.28 245.59 608.64 251.67 614.7 257.98 620.21 264.62 625.08 271.51 629.54 278.55 633.29 285.8 636.25 293.19 638.72 300.66 640.34 308.24 641.08 315.86 641.3 323.53 640.61 331.23 639.02 338.9 636.94 346.6 634 354.28 630.23 361.89 626.11 369.51 621.26 377.06 615.75 384.52 610.11 391.98 603.97 399.33 597.42 406.55 591.01 413.77 584.53 420.66 578.09 427.22 572.02 433.77 566.13 439.97 560.48 445.81 555.35 451.62 550.53 457.06 546.06 462.11 540.38 469.46 531.51 482.22 528.15 487.7 523.75 497.64 518.6 511.71 516.74 516.76 514.81 522.64 509.43 536.68 505.83 545.09 503.27 551.42 500.3 558.14 496.9 565.2 493.45 572.7 489.56 580.39 485.25 588.15 480.88 596.01 476.09 603.66 470.89 610.91 465.64 617.8 460 623.95 453.99 629.16 447.94 633.56 441.54 636.72 434.8 638.52 428.04 639.23 420.96 638.47 413.58 636.22 406.2 632.93 398.7 628.42 391.13 622.88 383.57 616.78 375.95 610.05 368.29 602.91 360.65 595.79 352.99 588.63 345.34 581.63 337.72 575.11 330.12 568.99 322.56 563.35 315.05 558.45 307.6 554.09 300.24 550.28 292.94 547.22 285.75 544.61 278.71 542.37 271.74 540.74 264.94 539.3 258.34 537.97 251.84 537.01 245.57 535.96 239.56 534.74 230.89 532.96 215.33 527.54 208.57 523.67 202.46 519.13 192.65 507.35 189.01 500.2 186.94 495.16 185.34 489.72 184.22 483.91 183.28 478.02 182.82 471.81 182.86 465.31 183.04 458.77 183.69 451.98 184.82 444.97 186.05 437.95 187.72 430.73 189.83 423.33 191.99 415.94 194.5 408.55 197.33 401.17 200.12 393.8 203.19 386.44 206.5 379.09 209.72 371.73 213.16 364.37 216.77 357.02 220.26 349.63 223.9 342.22 227.68 334.82 231.3 327.36 235.05 319.88 238.91 312.4 242.59 304.87 246.39 297.34 250.29 289.85 254.01 282.33 257.84 274.88 261.79 267.53 265.57 260.23 269.47 253.09 273.5 246.18 277.39 239.43 281.42 232.98 285.61 226.92 289.67 221.13 293.9 215.82 298.32 211.06 304.89 204.8 318.95 196.24 326.49 194.06 334.17 193.16 350.71 194.94 359.6 197.26 365.59 198.94 371.86 200.89 378.41 203.01 384.94 204.83 391.77 206.64 398.89 208.37" stroke-dasharray="0 0" transform="rotate(19.642857142857142, 400, 400)" opacity="0.42"></path><path d="M405.93 220.25C412.77 221.42 419.75 222.4 426.84 223.18 433.95 223.44 441.18 223.53 448.52 223.49 455.87 223.02 463.34 222.53 470.89 222.07 478.46 221.36 486.11 220.83 493.82 220.54 501.53 220.2 509.29 220.22 517.04 220.65 524.78 221.21 532.49 222.27 540.12 223.83 547.69 225.64 555.14 227.99 562.4 230.88 569.54 234.06 576.44 237.75 583.03 241.94 589.42 246.39 595.42 251.3 600.97 256.59 606.23 262.11 610.96 267.97 615.09 274.11 618.84 280.41 621.94 286.94 624.31 293.65 626.24 300.46 627.42 307.41 627.79 314.43 627.72 321.52 626.85 328.66 625.16 335.8 623.07 342.98 620.21 350.15 616.62 357.27 612.73 364.41 608.2 371.48 603.08 378.46 597.85 385.44 592.16 392.32 586.1 399.06 580.15 405.8 574.12 412.23 568.1 418.34 562.39 424.44 556.8 430.22 551.41 435.66 546.45 441.08 541.74 446.17 537.3 450.92 531.52 457.88 522.07 470.24 518.27 475.76 515.28 481.17 510.31 491.44 508.07 496.58 506.1 502.2 501.62 514.73 498.9 521.93 497.06 527.31 494.9 533.01 492.42 539.04 489.94 545.52 487.1 552.3 483.9 559.3 480.66 566.6 477.04 573.98 473.04 581.32 469.01 588.66 464.58 595.72 459.79 602.33 454.96 608.56 449.76 614.06 444.21 618.66 438.64 622.51 432.72 625.24 426.48 626.73 420.23 627.25 413.66 626.46 406.8 624.33 399.94 621.29 392.96 617.15 385.9 612.06 378.85 606.46 371.73 600.24 364.57 593.6 357.43 586.92 350.27 580.14 343.11 573.41 335.98 567.05 328.86 560.96 321.8 555.23 314.78 550.12 307.82 545.44 300.95 541.21 294.15 537.64 287.45 534.48 280.9 531.67 274.43 529.43 268.12 527.42 262.01 525.55 253.11 523.34 236.72 518.94 229.34 516.35 222.5 513.53 210.84 505.95 206.1 501.08 202.05 495.65 196.35 482.58 194.75 475.02 194 469.79 193.7 464.22 193.86 458.33 194.16 452.42 194.89 446.21 196.07 439.75 197.35 433.27 199.04 426.55 201.16 419.6 203.31 412.66 205.79 405.65 208.57 398.62 211.33 391.58 214.35 384.51 217.6 377.42 220.77 370.32 224.15 363.18 227.7 356.03 231.14 348.86 234.73 341.67 238.46 334.46 242.04 327.23 245.75 319.99 249.57 312.76 253.23 305.53 257.01 298.32 260.88 291.17 264.59 284.05 268.41 277.03 272.33 270.15 276.1 263.37 279.99 256.79 283.99 250.48 287.86 244.35 291.86 238.56 296 233.17 302.11 225.75 315.01 214.05 321.84 209.98 328.75 207.12 343.53 205.09 351.45 205.8 356.76 206.64 362.31 207.93 368.11 209.61 373.89 211.25 379.92 213.11 386.22 215.14 392.51 216.87 399.07 218.59 405.92 220.25" stroke-dasharray="0 0" transform="rotate(21.428571428571427, 400, 400)" opacity="0.47"></path><path d="M412.75 232.14C419.3 233.27 425.96 234.26 432.72 235.07 439.48 235.41 446.35 235.6 453.31 235.68 460.27 235.35 467.32 235 474.43 234.66 481.55 234.07 488.71 233.61 495.9 233.33 503.08 232.97 510.27 232.91 517.42 233.18 524.54 233.52 531.6 234.28 538.54 235.48 545.41 236.85 552.13 238.71 558.64 241.04 565.02 243.59 571.14 246.62 576.94 250.11 582.55 253.82 587.77 257.97 592.55 262.5 597.06 267.23 601.07 272.3 604.52 277.67 607.64 283.2 610.14 288.98 611.99 294.96 613.47 301.05 614.25 307.29 614.32 313.65 614.02 320.08 613 326.59 611.26 333.13 609.19 339.72 606.45 346.32 603.04 352.89 599.4 359.49 595.19 366.04 590.45 372.51 585.62 378.99 580.38 385.39 574.78 391.66 569.28 397.93 563.69 403.93 558.08 409.64 552.74 415.34 547.47 420.76 542.34 425.88 537.58 431 533 435.84 528.64 440.4 522.84 447.13 512.97 459.43 508.83 465.12 505.39 470.83 499.45 482.09 496.75 487.88 494.33 494.17 489.15 508.05 486.22 515.83 484.26 521.48 482.06 527.4 479.58 533.56 477.13 540.06 474.37 546.75 471.3 553.56 468.22 560.55 464.81 567.53 461.07 574.39 457.3 581.16 453.19 587.6 448.75 593.56 444.28 599.13 439.48 604 434.36 608.03 426.48 612.53 409.17 614.86 399.79 612.45 393.44 609.65 386.98 605.85 380.43 601.21 373.89 596.08 367.29 590.37 360.64 584.24 354.02 578.02 347.36 571.63 340.72 565.23 334.1 559.09 327.5 553.12 320.95 547.41 314.45 542.17 308.01 537.28 301.66 532.76 295.37 528.79 289.19 525.17 283.15 521.87 277.2 519.08 271.4 516.52 265.8 514.14 257.65 511.18 242.71 505.67 236.01 502.77 229.84 499.83 219.37 492.58 215.17 488.11 211.59 483.24 206.69 471.56 205.39 464.78 204.74 457.59 205.74 441.55 207.37 432.77 208.68 426.81 210.38 420.58 212.48 414.09 214.61 407.6 217.06 401.02 219.78 394.37 222.49 387.72 225.44 381.01 228.62 374.24 231.73 367.48 235.03 360.66 238.51 353.82 241.88 346.97 245.41 340.09 249.07 333.21 252.61 326.33 256.27 319.45 260.03 312.6 263.66 305.78 267.39 299.01 271.23 292.34 274.91 285.73 278.71 279.25 282.6 272.95 286.35 266.78 290.22 260.83 294.19 255.18 298.03 249.73 302 244.63 306.1 239.95 312.15 233.56 324.85 223.76 331.55 220.51 338.31 218.32 352.69 217.21 360.35 218.15 368.17 219.72 384.91 224.48 393.86 227.28 399.9 228.91 406.19 230.55 412.74 232.14" stroke-dasharray="0 0" transform="rotate(23.214285714285715, 400, 400)" opacity="0.68"></path><path d="M419.13 244.02C431.59 245.8 444.43 247.07 457.49 247.84 470.58 247.13 483.88 246.46 497.15 246.18 510.38 245.44 523.43 245.83 535.99 247.57 548.25 249.76 559.71 253.67 569.97 259.21 579.51 265.49 587.46 273.33 593.4 282.41 598.22 292.07 600.72 302.7 600.7 313.94 599.43 325.48 595.68 337.38 589.5 349.34 582.58 361.4 573.78 373.37 563.46 385.01 553.47 396.65 543.24 407.37 533.26 417.12 524.51 426.9 516.34 435.83 508.9 443.99 502.89 452.41 497.43 460.39 492.4 468.15 488.45 476.65 484.51 485.44 480.34 494.74 476.74 505.23 472.49 516.53 467.44 528.53 462.55 541.47 456.6 554.62 449.53 567.29 442.43 579.43 434.13 589.75 424.66 597.27 415.14 602.36 404.48 603.58 392.78 600.56 381.08 594.81 368.98 585.86 356.71 574.81 344.53 563.3 332.27 551.36 320.19 539.82 308.29 529.76 296.67 520.77 285.58 512.94 274.8 506.87 264.67 501.54 255.45 496.56 246.68 492.6 238.95 488.27 232.48 483.25 226.56 478.48 221.99 472.59 218.93 465.48 216.44 458.29 215.47 449.81 216.1 440.09 217.16 430.3 219.72 419.33 223.8 407.3 228.02 395.26 233.35 382.77 239.55 370.03 245.55 357.33 252.26 344.41 259.51 331.49 266.33 318.68 273.63 305.98 281.31 293.69 288.48 281.77 296.07 270.56 304.04 260.47 311.56 251.18 319.56 243.4 328.06 237.5 336.22 232.7 345 229.94 354.43 229.29 363.65 229.44 373.64 231.26 384.41 234.46 395.09 237.31 406.66 240.63 419.12 244.02" stroke-dasharray="0 0" transform="rotate(25, 400, 400)" opacity="0.48"></path><path d="M424.86 255.91C436.64 257.66 448.7 259.01 460.86 259.95 473.04 259.54 485.31 259.15 497.43 259.05 509.48 258.4 521.24 258.66 532.42 260.03 543.29 261.64 553.31 264.71 562.14 269.21 570.31 274.28 576.97 280.77 581.78 288.45 585.63 296.62 587.41 305.78 586.94 315.64 585.46 325.76 581.8 336.35 576.01 347.14 569.63 358.02 561.58 368.95 552.14 379.73 542.98 390.5 533.52 400.59 524.18 409.95 515.85 419.35 507.92 428.17 500.54 436.47 494.35 445.05 488.6 453.43 483.21 461.77 478.77 470.77 474.36 480.11 469.8 489.93 465.78 500.68 461.28 512.03 456.14 523.81 451.19 536.17 445.38 548.44 438.64 559.99 431.91 570.87 424.15 579.93 415.38 586.38 406.57 590.68 396.76 591.55 386.03 588.68 375.29 583.45 364.2 575.36 352.98 565.3 341.85 554.71 330.66 543.51 319.66 532.43 308.84 522.43 298.3 513.19 288.28 504.86 278.55 498.01 269.46 491.83 261.22 486.09 253.4 481.32 246.55 476.42 240.87 471.09 235.69 466.13 231.75 460.33 229.21 453.56 227.16 446.82 226.51 438.98 227.33 430.02 228.53 421.03 231.12 410.95 235.12 399.84 239.25 388.73 244.41 377.16 250.4 365.35 256.22 353.6 262.73 341.66 269.76 329.79 276.44 318.07 283.58 306.56 291.09 295.56 298.17 284.96 305.66 275.16 313.49 266.5 320.93 258.59 328.82 252.13 337.14 247.41 345.17 243.63 353.75 241.65 362.89 241.52 371.85 241.98 381.49 243.87 391.8 246.94 402.04 249.62 413.06 252.71 424.85 255.91" stroke-dasharray="0 0" transform="rotate(26.785714285714285, 400, 400)" opacity="0.70"></path><path d="M429.73 267.79C440.8 269.51 452.02 270.93 463.24 272.02 474.47 271.9 485.66 271.79 496.61 271.9 507.46 271.41 517.94 271.65 527.77 272.79 537.3 273.98 545.96 276.41 553.46 280.06 560.38 284.1 565.88 289.42 569.7 295.85 572.71 302.67 573.89 310.45 573.08 318.98 571.46 327.74 567.94 337.05 562.56 346.69 556.73 356.41 549.4 366.33 540.82 376.28 532.47 386.24 523.77 395.74 515.09 404.76 507.22 413.84 499.6 422.56 492.37 431 486.12 439.71 480.2 448.38 474.57 457.13 469.75 466.44 464.97 476.1 460.1 486.14 455.73 496.85 450.99 507.97 445.76 519.25 440.74 530.82 435.03 542.07 428.57 552.44 422.14 562.06 414.86 569.91 406.73 575.37 398.57 578.95 389.56 579.51 379.75 576.79 369.94 572.08 359.84 564.81 349.67 555.72 339.56 546.06 329.45 535.67 319.54 525.17 309.78 515.43 300.33 506.16 291.38 497.56 282.68 490.16 274.61 483.32 267.34 476.91 260.44 471.41 254.44 465.91 249.53 460.2 245.05 454.91 241.71 449.03 239.65 442.43 238.02 435.94 237.66 428.54 238.65 420.22 239.96 411.89 242.55 402.6 246.44 392.39 250.45 382.19 255.42 371.6 261.17 360.81 266.78 350.09 273.05 339.27 279.83 328.58 286.31 318.07 293.26 307.86 300.56 298.24 307.5 289.02 314.83 280.63 322.49 273.37 329.81 266.78 337.54 261.56 345.66 257.91 353.52 255.01 361.86 253.7 370.69 253.98 379.37 254.65 388.63 256.55 398.46 259.46 408.23 261.94 418.66 264.81 429.73 267.79" stroke-dasharray="0 0" transform="rotate(28.57142857142857, 400, 400)" opacity="0.50"></path><path d="M433.58 279.68C443.89 281.35 454.24 282.81 464.49 284.05 474.73 284.2 484.83 284.37 494.61 284.7 504.28 284.43 513.5 284.74 522.03 285.76 530.29 286.71 537.68 288.66 543.96 291.66 549.75 294.89 554.22 299.23 557.19 304.58 559.5 310.21 560.18 316.77 559.13 324.09 557.45 331.58 554.11 339.69 549.16 348.25 543.87 356.86 537.25 365.82 529.49 374.99 521.93 384.16 513.99 393.11 505.97 401.79 498.61 410.54 491.36 419.14 484.37 427.63 478.18 436.35 472.2 445.17 466.45 454.12 461.38 463.5 456.33 473.19 451.24 483.14 446.59 493.54 441.67 504.15 436.38 514.71 431.3 525.32 425.68 535.45 419.46 544.6 413.31 552.98 406.45 559.7 398.91 564.23 391.36 567.16 383.09 567.45 374.17 564.91 365.24 560.68 356.11 554.2 346.95 546.05 337.85 537.34 328.79 527.81 319.95 518.01 311.25 508.69 302.86 499.6 294.96 490.96 287.28 483.24 280.19 475.96 273.86 469.07 267.84 462.96 262.67 456.93 258.49 450.84 254.67 445.18 251.9 439.14 250.28 432.6 249.02 426.2 248.92 419.12 250.05 411.32 251.44 403.53 254.01 394.96 257.76 385.64 261.62 376.32 266.38 366.72 271.85 357.02 277.22 347.38 283.22 337.74 289.7 328.32 295.95 319.08 302.65 310.22 309.69 301.99 316.45 294.14 323.57 287.12 330.99 281.19 338.15 275.82 345.67 271.69 353.52 268.97 361.17 266.83 369.24 266.05 377.72 266.63 386.06 267.44 394.9 269.29 404.21 272 413.48 274.27 423.28 276.9 433.58 279.68" stroke-dasharray="0 0" transform="rotate(30.357142857142854, 400, 400)" opacity="0.83"></path><path d="M436.29 291.56C445.79 293.17 455.23 294.67 464.49 296.01 473.74 296.41 482.75 296.84 491.37 297.41 499.88 297.4 507.9 297.83 515.21 298.84 525.4 300.51 540.27 308.26 544.3 314.52 546.03 319.16 546.33 324.67 545.13 330.93 543.45 337.31 540.33 344.34 535.82 351.9 531.06 359.5 525.13 367.55 518.17 375.97 511.37 384.39 504.18 392.78 496.84 401.1 490.01 409.46 483.19 417.85 476.52 426.25 470.49 434.84 464.57 443.59 458.81 452.48 453.61 461.68 448.43 471.11 443.21 480.69 438.38 490.52 433.34 500.39 428.03 510.04 422.93 519.58 417.41 528.52 411.44 536.45 405.54 543.63 399.09 549.27 392.1 552.97 385.11 555.32 377.55 555.39 369.47 553.02 361.38 549.26 353.18 543.53 345.01 536.3 336.89 528.52 328.85 519.9 321.05 510.88 313.37 502.14 306 493.42 299.12 484.96 292.42 477.17 286.28 469.68 280.84 462.51 275.66 455.97 271.26 449.56 267.76 443.18 264.56 437.18 262.31 430.97 261.1 424.45 260.18 418.1 260.3 411.26 261.53 403.91 262.98 396.58 265.49 388.67 269.09 380.19 272.77 371.72 277.28 363.1 282.44 354.51 287.54 345.96 293.23 337.52 299.38 329.38 305.35 321.41 311.75 313.88 318.48 307 324.98 300.45 331.84 294.71 338.97 289.99 345.89 285.7 353.15 282.53 360.69 280.59 368.06 279.05 375.8 278.68 383.87 279.45 391.84 280.33 400.21 282.08 408.95 284.56 417.65 286.62 426.78 289 436.29 291.56" stroke-dasharray="0 0" transform="rotate(32.142857142857146, 400, 400)" opacity="0.08"></path><path d="M437.74 303.45C446.41 304.99 454.93 306.48 463.19 307.9 471.44 308.52 479.38 309.19 486.88 309.99 494.29 310.25 501.16 310.87 507.35 311.94 515.93 313.53 528.04 320.18 531.1 325.48 532.35 331.67 528.03 347.83 522.54 357.55 518.3 364.23 513.03 371.45 506.84 379.15 500.79 386.84 494.32 394.65 487.67 402.51 481.41 410.43 475.08 418.47 468.8 426.6 463.02 434.87 457.28 443.32 451.62 451.89 446.42 460.66 441.21 469.58 435.98 478.52 431.07 487.56 426 496.51 420.75 505.1 415.68 513.49 410.29 521.22 404.58 527.95 398.94 533.99 392.89 538.65 386.43 541.59 379.98 543.43 373.1 543.32 365.82 541.14 358.54 537.82 351.23 532.8 344 526.45 336.81 519.59 329.75 511.9 322.95 503.74 316.24 495.7 309.86 487.52 303.94 479.44 298.16 471.81 292.92 464.36 288.32 457.14 283.93 450.4 280.25 443.78 277.38 437.24 274.75 431.03 272.97 424.72 272.11 418.26 271.49 411.95 271.8 405.33 273.1 398.4 274.57 391.5 277 384.2 280.41 376.55 283.89 368.88 288.12 361.23 292.96 353.71 297.74 346.23 303.08 338.97 308.86 332.06 314.5 325.3 320.55 319.03 326.91 313.4 333.11 308.04 339.63 303.44 346.41 299.76 353.03 296.41 359.94 294.03 367.1 292.7 374.14 291.64 381.47 291.56 389.07 292.42 396.6 293.3 404.44 294.91 412.56 297.14 420.66 298.96 429.07 301.1 437.74 303.45" stroke-dasharray="0 0" transform="rotate(33.92857142857143, 400, 400)" opacity="0.49"></path><path d="M437.9 315.33C445.71 316.78 453.29 318.26 460.57 319.73 467.82 320.53 474.73 321.41 481.17 322.42 490.44 323.35 505.63 326.59 511.14 329.34 515.37 332.59 518.41 342.45 517.04 349.08 515.5 353.73 512.92 359.02 509.32 364.9 505.59 370.78 500.97 377.23 495.52 384.2 490.18 391.18 484.44 398.37 478.48 405.7 472.81 413.06 467.01 420.61 461.19 428.28 455.74 436.04 450.27 443.97 444.84 451.97 439.76 460.08 434.65 468.25 429.51 476.34 424.64 484.43 419.64 492.31 414.52 499.77 409.55 506.97 404.36 513.5 398.94 519.09 393.59 524.07 387.94 527.82 382 530.1 376.08 531.49 369.85 531.24 363.34 529.25 356.83 526.36 350.37 522.01 344.04 516.51 337.73 510.55 331.6 503.79 325.75 496.54 319.96 489.29 314.5 481.8 309.48 474.28 304.58 467.03 300.16 459.85 296.34 452.81 292.68 446.11 289.65 439.5 287.35 432.98 285.24 426.73 283.87 420.44 283.33 414.12 282.96 407.93 283.42 401.58 284.75 395.07 286.22 388.6 288.54 381.91 291.73 375.03 294.98 368.15 298.91 361.41 303.38 354.92 307.83 348.45 312.78 342.28 318.14 336.53 323.4 330.88 329.05 325.73 334.99 321.22 340.81 316.89 346.93 313.27 353.29 310.47 359.53 307.88 366.03 306.13 372.74 305.26 379.35 304.54 386.22 304.63 393.29 305.51 400.3 306.33 407.56 307.76 415.01 309.72 422.44 311.32 430.1 313.21 437.9 315.33" stroke-dasharray="0 0" transform="rotate(35.714285714285715, 400, 400)" opacity="0.51"></path><path d="M436.76 327.22C443.68 328.57 450.33 330 456.64 331.48 465.89 332.94 482.1 335.92 488.78 337.74 498.47 342.37 504.38 353.91 503.01 359.7 501.6 363.73 499.32 368.36 496.16 373.53 492.93 378.71 488.93 384.43 484.2 390.7 479.55 396.96 474.52 403.48 469.24 410.17 464.19 416.88 458.95 423.79 453.65 430.81 448.62 437.88 443.52 445.08 438.42 452.31 433.57 459.56 428.67 466.8 423.75 473.89 419.03 480.91 414.21 487.65 409.31 493.94 404.53 499.96 399.6 505.33 394.52 509.85 386.89 515.32 370.69 519.33 362.12 517.37 356.35 514.88 350.7 511.16 345.21 506.47 339.75 501.38 334.49 495.55 329.51 489.23 324.59 482.84 319.99 476.14 315.8 469.33 311.7 462.66 308.05 455.96 304.93 449.32 301.93 442.9 299.49 436.52 297.7 430.24 296.04 424.13 295.04 418.04 294.75 411.99 294.6 406.03 295.17 400.03 296.5 393.99 297.93 387.99 300.1 381.9 303.05 375.78 306.05 369.66 309.64 363.79 313.73 358.24 317.8 352.7 322.33 347.53 327.22 342.79 332.06 338.13 337.25 333.97 342.71 330.39 348.09 326.94 353.74 324.12 359.61 322 365.39 320.02 371.4 318.73 377.58 318.18 383.71 317.69 390.03 317.86 396.5 318.68 402.93 319.4 409.54 320.63 416.27 322.31 422.99 323.67 429.84 325.33 436.76 327.22" stroke-dasharray="0 0" transform="rotate(37.5, 400, 400)" opacity="0.42"></path><path d="M434.36 339.1C446.4 341.13 457.23 343.7 466.34 346.65 478.67 349.58 490.64 360.94 489 370.76 486.41 377.83 480.99 386.96 472.88 398.04 465.01 409.12 455.83 421.2 446.18 433.63 437.29 446.11 427.98 458.85 418.62 470.92 409.87 482.55 400.7 492.76 391.29 500.21 382.08 506.03 372.29 508.08 362.2 505.49 352.11 500.77 342.65 492.37 334.3 481.76 326.07 470.74 319.17 458.63 314.1 446.44 309.36 434.73 306.66 423 306.39 411.65 306.5 400.58 309.09 389.49 314.37 378.73 319.83 367.97 327.3 358.51 336.12 350.75 344.79 343.15 354.73 337.52 365.38 334.24 375.83 331.2 387.1 330.42 398.72 331.9 410.26 332.91 422.32 335.4 434.36 339.1" stroke-dasharray="0 0" transform="rotate(39.285714285714285, 400, 400)" opacity="0.17"></path><path d="M430.78 350.98C441.02 352.87 450.04 355.41 457.45 358.4 467.44 361.78 476.66 372.94 475.06 381.74 472.87 387.99 468.34 395.95 461.56 405.55 454.95 415.16 447.11 425.58 438.74 436.18 430.88 446.76 422.52 457.38 414.07 467.19 406.04 476.57 397.67 484.56 389.21 490.19 380.9 494.57 372.26 495.93 363.58 493.6 354.89 489.74 346.96 482.87 340.11 474.1 333.34 464.89 327.8 454.54 323.86 443.91 320.14 433.5 318.16 422.96 318.24 412.78 318.57 402.77 320.99 392.91 325.69 383.62 330.53 374.33 337.1 366.42 344.82 360.16 352.48 353.95 361.25 349.49 370.62 347 379.89 344.54 389.83 343.92 399.98 345.11 410.11 345.84 420.54 347.85 430.78 350.98" stroke-dasharray="0 0" transform="rotate(41.07142857142857, 400, 400)" opacity="0.42"></path><path d="M426.15 362.87C434.59 364.57 441.88 366.96 447.76 369.86 455.65 373.48 462.62 384.3 461.19 392.15 459.41 397.65 455.75 404.48 450.23 412.57 444.84 420.65 438.34 429.28 431.31 437.93 424.59 446.51 417.36 454.93 410 462.53 402.91 469.75 395.54 475.74 388.17 479.77 380.91 482.93 373.49 483.74 366.2 481.72 358.91 478.64 352.42 473.21 346.94 466.21 341.5 458.81 337.17 450.33 334.2 441.49 331.36 432.68 329.99 423.66 330.3 414.92 330.76 406.26 332.95 397.81 337.02 389.99 341.18 382.17 346.78 375.68 353.35 370.64 359.9 365.61 367.39 362.05 375.37 360.08 383.31 358.04 391.79 357.45 400.37 358.3 408.96 358.75 417.7 360.28 426.15 362.87" stroke-dasharray="0 0" transform="rotate(42.857142857142854, 400, 400)" opacity="0.12"></path><path d="M420.61 374.75C430.12 377.29 443.46 384.6 446.82 389.49 448.6 394.69 444.62 409.07 438.91 418.44 434.69 424.96 429.53 431.75 423.87 438.39 418.4 444.98 412.43 451.28 406.32 456.8 400.37 462.05 394.19 466.27 388.05 468.97 381.98 471.11 375.87 471.51 369.99 469.83 364.1 467.49 358.96 463.38 354.73 458.05 350.52 452.42 347.25 445.85 345.11 438.89 343.03 431.89 342.13 424.63 342.57 417.54 343.09 410.48 344.97 403.6 348.34 397.28 351.77 390.95 356.35 385.75 361.7 381.75 367.06 377.73 373.17 374.87 379.67 373.25 386.16 371.52 393.06 370.9 399.99 371.41 406.94 371.6 413.94 372.71 420.61 374.75" stroke-dasharray="0 0" transform="rotate(44.642857142857146, 400, 400)" opacity="0.60"></path><path d="M414.37 386.64C424.23 388.64 430.84 393.21 433.37 399.32 435.7 404.79 433.89 412.77 427.59 422.63 421.46 432.48 412.46 442.38 402.94 449.92 393.74 456.78 383.74 460.16 374.8 457.95 365.85 454.26 359.5 445.91 356.55 435.88 353.71 425.62 354.48 414.4 359.66 404.81 364.98 395.21 373.72 388.92 383.57 386.28 393.46 383.29 404.51 383.32 414.37 386.64" stroke-dasharray="0 0" transform="rotate(46.42857142857143, 400, 400)" opacity="0.89"></path><path d="M407.64 398.52C420.58 400.91 424.46 411.58 416.27 424.76 408.36 437.94 392.57 448.62 380.48 446.06 368.37 440.94 363.91 424.83 370.98 411.9 378.31 398.96 394.69 393.75 407.64 398.52" stroke-dasharray="0 0" transform="rotate(48.214285714285715, 400, 400)" opacity="0.23"></path></g></svg>