<svg xmlns="http://www.w3.org/2000/svg" version="1.1" xmlns:xlink="http://www.w3.org/1999/xlink" xmlns:svgjs="http://svgjs.dev/svgjs" viewBox="0 0 1422 800" opacity="1"><defs><linearGradient x1="50%" y1="0%" x2="50%" y2="100%" id="ccchaos-grad"><stop stop-color="hsl(206, 75%, 49%)" stop-opacity="1" offset="0%"></stop><stop stop-color="hsl(331, 90%, 56%)" stop-opacity="1" offset="100%"></stop></linearGradient></defs><g stroke-width="1.5" stroke="url(#ccchaos-grad)" fill="none" stroke-linecap="round"><path d="M691.54 46.51C700.31 44.79 717.49 42.07 725.89 41.14 734.21 40.46 750.52 40.21 758.53 40.7 766.51 41.55 782.33 44.62 790.22 46.84 800.9 50.3 811.66 54.72 822.6 60.04 833.97 65.76 845.72 72.29 857.94 79.56 870.74 87.08 884.12 95.21 898.07 103.85 912.53 112.57 927.42 121.68 942.54 131.1 957.67 140.44 972.52 150.01 986.69 159.75 999.93 169.3 1011.74 178.99 1021.62 188.79 1029.65 198.36 1035.21 208.04 1038.07 217.84 1038.93 227.42 1037.34 237.14 1033.66 247.03 1029.22 256.73 1023.97 266.64 1018.72 276.76 1015.03 286.76 1012.98 297.02 1013.26 307.57 1014.63 312.81 1016.73 318.12 1019.58 323.52 1023.27 328.89 1027.65 334.36 1032.68 339.9 1038.38 345.43 1044.55 351.05 1051.08 356.76 1057.93 362.46 1064.86 368.25 1071.72 374.14 1078.45 380.01 1084.79 385.99 1090.57 392.05 1095.76 398.12 1100.11 404.28 1103.48 410.54 1105.93 416.8 1107.2 423.08 1107.3 429.39 1106.38 435.69 1104.31 442.02 1101.16 448.37 1097.15 454.72 1092.23 461.09 1086.54 467.47 1080.32 473.86 1073.59 480.26 1066.51 486.67 1059.32 493.07 1052.06 499.49 1044.88 505.9 1037.99 512.3 1031.42 518.71 1025.28 525.09 1014.86 537.84 1006.93 550.5 1001.62 562.97 999.31 575.34 999.16 587.44 1000.58 599.15 1003.6 610.64 1006.85 621.62 1009.62 631.96 1012.07 641.91 1012.93 651.09 1011.88 659.37 1009.34 667.12 1004.56 673.85 997.66 679.49 989.2 684.55 978.93 688.5 967.21 691.34 954.51 693.73 940.89 695.17 926.72 695.73 912.23 696.23 897.6 696.18 883.05 695.78 868.61 695.86 854.43 696.03 840.6 696.48 827.02 698.01 813.78 700.2 800.87 703.2 794.5 705.22 788.2 707.48 781.96 709.96 775.76 712.8 769.62 715.86 763.52 719.12 757.45 722.7 751.42 726.46 745.42 730.37 739.44 734.51 733.48 738.75 727.54 743.04 721.62 747.46 715.7 751.86 709.8 756.18 703.9 760.51 698 764.68 692.12 768.62 686.24 772.44 680.43 775.9 674.7 778.97 666.14 782.97 649.42 788.09 641.26 789.11 633.2 789.01 617.52 785.58 609.92 782.29 604.89 779.58 599.96 776.41 595.13 772.81 585.46 764.76 576.19 755.31 567.33 744.77 558.41 733.76 549.85 722.15 541.62 710.23 533.23 698.5 525.07 686.83 517.12 675.41 508.86 664.61 500.69 654.22 492.58 644.29 484.07 635.11 475.56 626.37 467.07 618.01 458.21 610.32 449.42 602.86 440.78 595.54 431.98 588.68 423.48 581.78 415.41 574.74 407.48 567.94 400.17 560.86 393.58 553.41 387.35 546.05 381.95 538.22 377.41 529.91 373.24 521.59 369.88 512.74 367.29 503.35 365.53 496.22 362.8 481.27 361.77 473.46 360.81 465.5 359.32 448.96 358.75 440.38 358.32 434.62 357.96 428.74 357.69 422.76 357.33 416.77 357.05 410.67 356.85 404.46 356.58 398.26 356.41 392.03 356.33 385.78 356.2 379.53 356.19 373.26 356.3 366.98 356.39 360.7 356.62 354.41 357 348.12 357.4 341.83 357.96 335.55 358.7 329.26 359.49 322.99 360.47 316.72 361.65 310.47 362.9 304.23 364.37 298 366.05 291.8 369.67 279.43 374.17 267.18 379.48 255.11 385.1 243.13 391.43 231.37 398.34 219.89 405.31 208.56 412.68 197.56 420.32 186.99 427.72 176.62 435.23 166.74 442.8 157.4 449.95 148.33 457.13 139.86 464.34 132.04 471.16 124.53 478.11 117.69 485.24 111.57 492.14 105.7 499.36 100.52 506.94 96.03 514.5 91.68 522.52 87.94 531 84.76 539.6 81.55 548.71 78.79 558.29 76.42 568.02 73.81 578.21 71.47 588.77 69.34 596.81 67.54 613.33 63.94 621.77 62.13 627.44 60.81 633.16 59.52 638.92 58.26 644.7 56.88 650.5 55.55 656.34 54.25 662.18 52.86 668.03 51.53 673.9 50.26 679.77 48.92 685.65 47.67 691.53 46.51" stroke-dasharray="0 0" transform="rotate(0, 711, 400)" opacity="0.24"></path><path d="M689.99 55.11C698.54 53.38 715.36 50.63 723.63 49.67 731.86 48.94 748.1 48.59 756.14 48.99 766.9 49.95 777.61 51.86 788.33 54.69 799.28 57.96 810.39 62.18 821.75 67.27 833.5 72.76 845.64 79.06 858.25 86.09 871.34 93.39 884.93 101.3 898.97 109.73 913.34 118.28 927.97 127.22 942.62 136.5 957.09 145.73 971.06 155.2 984.15 164.86 996.19 174.36 1006.68 184.02 1015.19 193.78 1021.9 203.35 1026.24 213.03 1028.07 222.82 1028.14 232.4 1026.06 242.13 1022.2 251.99 1017.89 261.69 1013.05 271.57 1008.45 281.65 1005.52 291.6 1004.28 301.8 1005.33 312.25 1009.53 322.61 1016.46 333.27 1025.92 344.23 1031.59 349.7 1037.69 355.24 1044.08 360.87 1050.75 366.48 1057.47 372.19 1064.09 377.97 1070.57 383.76 1076.65 389.63 1082.2 395.59 1087.18 401.55 1091.35 407.6 1094.6 413.73 1096.96 419.87 1098.23 426.03 1098.38 432.21 1097.57 438.38 1095.67 444.57 1092.74 450.78 1088.98 456.98 1084.36 463.2 1078.98 469.43 1073.07 475.65 1066.65 481.89 1059.85 488.12 1045.96 500.58 1032.15 513.02 1019.37 525.37 1008.68 537.68 1000.22 549.85 994.18 561.81 990.99 573.64 989.92 585.16 990.48 596.26 992.75 607.12 995.48 617.45 998.01 627.12 1000.5 636.42 1001.73 644.93 1001.32 652.56 999.69 659.69 996.01 665.85 990.34 670.96 983.2 675.57 974.27 679.14 963.82 681.68 952.34 683.87 939.82 685.2 926.57 685.75 912.88 686.32 898.88 686.43 884.8 686.27 870.71 686.63 856.75 687.12 843.04 687.92 829.51 689.76 816.26 692.25 803.32 695.5 790.56 700.07 778.07 705.5 765.81 711.72 759.73 715.28 753.69 718.99 747.7 722.84 741.73 726.9 735.79 731.04 729.89 735.22 724 739.53 718.13 743.8 712.3 747.99 706.47 752.18 700.66 756.21 694.87 760.03 689.09 763.72 683.4 767.08 677.79 770.06 669.43 773.96 653.14 779.05 645.23 780.13 639.98 780.32 634.82 780 629.76 779.17 619.63 776.42 609.88 771.73 600.53 765.28 591.14 757.71 582.13 748.76 573.5 738.7 564.76 728.13 556.34 716.92 548.2 705.33 539.86 693.84 531.72 682.33 523.72 670.99 515.4 660.17 507.15 649.7 498.92 639.62 490.31 630.22 481.71 621.23 473.12 612.6 464.21 604.6 455.4 596.84 446.76 589.25 438.01 582.13 429.6 575 421.65 567.78 413.88 560.84 406.75 553.66 400.36 546.18 394.35 538.82 389.16 531.06 384.84 522.86 380.89 514.68 377.74 506.01 375.34 496.85 373.11 487.66 371.46 477.97 370.34 467.78 369.48 460.06 368.14 444.01 367.62 435.68 367.05 427.24 366.11 409.81 365.74 400.82 365.44 394.8 365.23 388.75 365.1 382.68 364.93 376.61 364.86 370.52 364.9 364.41 364.93 358.31 365.09 352.2 365.39 346.09 365.71 339.98 366.2 333.88 366.86 327.77 368.33 315.59 370.61 303.45 373.73 291.4 377.21 279.42 381.56 267.55 386.74 255.88 392.24 244.3 398.47 232.95 405.3 221.9 412.22 211 419.55 200.45 427.19 190.32 434.61 180.41 442.17 170.97 449.79 162.07 457.01 153.44 464.25 145.4 471.51 138 478.37 130.87 485.31 124.4 492.38 118.62 499.19 113.06 506.26 108.16 513.63 103.9 520.91 99.76 528.6 96.19 536.71 93.15 544.88 90.05 553.52 87.36 562.6 85.03 571.8 82.46 581.45 80.13 591.48 78 601.61 75.47 612.1 73.05 622.86 70.76 631 68.78 647.56 64.82 655.96 62.86 664.4 60.8 681.42 56.9 689.98 55.11" stroke-dasharray="0 0" transform="rotate(2.951219512195122, 711, 400)" opacity="0.76"></path><path d="M689.5 63.71C700.63 61.28 711.64 59.43 722.51 58.21 733.4 57.11 744.21 56.8 754.95 57.31 765.79 58.15 776.67 59.91 787.63 62.57 798.82 65.66 810.22 69.66 821.91 74.52 833.95 79.78 846.37 85.84 859.22 92.62 872.44 99.69 886.07 107.37 900 115.59 914.12 123.93 928.31 132.7 942.32 141.81 955.97 150.9 968.95 160.26 980.88 169.82 991.68 179.25 1000.85 188.85 1008.04 198.57 1013.52 208.11 1016.76 217.77 1017.68 227.54 1017.1 237.12 1014.66 246.83 1010.76 256.68 1006.68 266.36 1002.32 276.21 998.4 286.24 996.23 296.15 995.79 306.28 997.57 316.64 1002.33 326.92 1009.61 337.46 1019.18 348.29 1030.91 359.06 1043.66 370.14 1056.44 381.53 1068.61 392.9 1078.71 404.61 1085.71 416.64 1089.42 428.66 1088.89 440.75 1084.29 452.85 1076.55 464.96 1065.85 477.09 1053.15 489.18 1039.74 501.27 1026.24 513.29 1013.54 525.2 1002.64 537.05 993.72 548.73 987.03 560.14 983 571.42 981.03 582.36 980.73 592.85 982.21 603.09 984.34 612.78 986.52 621.81 988.91 630.47 990.33 638.35 990.4 645.37 989.5 651.93 986.78 657.56 982.21 662.21 976.31 666.41 968.66 669.65 959.47 671.96 949.24 673.99 937.87 675.25 925.64 675.84 912.87 676.51 899.64 676.8 886.18 676.89 872.59 677.54 859.01 678.34 845.57 679.47 832.22 681.62 819.09 684.38 806.23 687.87 793.51 692.6 781.03 698.11 768.81 704.34 756.69 711.64 744.77 719.41 733.04 727.4 721.35 735.84 709.82 743.97 698.43 751.43 687.05 758.43 676.06 763.99 665.46 767.92 654.84 770.7 644.61 771.54 634.77 770.45 624.9 768.01 615.41 763.69 606.3 757.68 597.12 750.58 588.3 742.12 579.81 732.55 571.19 722.43 562.85 711.63 554.74 700.39 546.4 689.18 538.21 677.88 530.14 666.66 521.73 655.87 513.36 645.35 505.02 635.17 496.31 625.61 487.6 616.4 478.94 607.53 469.99 599.26 461.17 591.23 452.56 583.39 443.9 576 435.6 568.64 427.8 561.25 420.22 554.14 413.3 546.85 407.13 539.32 401.35 531.92 396.4 524.18 392.31 516.07 388.59 507.99 385.65 499.47 383.46 490.5 381.4 481.53 379.92 472.08 378.94 462.16 377.81 452.23 377.01 441.83 376.51 430.99 375.65 420.14 375.02 408.85 374.63 397.17 373.9 385.48 373.51 373.69 373.52 361.84 373.43 350.01 373.92 338.15 375.04 326.3 376.36 314.5 378.48 302.74 381.42 291.08 384.74 279.49 388.94 268.03 393.96 256.77 399.33 245.61 405.44 234.7 412.16 224.08 419.02 213.63 426.31 203.53 433.92 193.85 441.36 184.39 448.95 175.4 456.63 166.95 463.93 158.75 471.25 151.13 478.57 144.13 485.49 137.38 492.47 131.26 499.53 125.8 506.3 120.54 513.27 115.9 520.49 111.87 527.57 107.92 535 104.5 542.8 101.58 550.6 98.57 558.84 95.95 567.5 93.66 576.22 91.12 585.38 88.79 594.92 86.65 604.54 84.11 614.52 81.69 624.8 79.37 635.13 76.6 645.73 73.95 656.53 71.45 667.35 68.59 678.35 65.98 689.49 63.71" stroke-dasharray="0 0" transform="rotate(5.902439024390244, 711, 400)" opacity="0.87"></path><path d="M690.07 72.3C700.94 69.88 711.77 68.01 722.54 66.75 733.33 65.61 744.13 65.23 754.93 65.64 765.84 66.37 776.86 67.98 788.02 70.48 799.39 73.37 811.02 77.16 822.94 81.8 835.15 86.82 847.73 92.64 860.65 99.17 873.85 105.99 887.34 113.43 900.99 121.41 914.68 129.55 928.26 138.11 941.49 147.04 954.21 155.98 966.11 165.19 976.83 174.63 986.38 183.97 994.26 193.49 1000.2 203.13 1004.56 212.63 1006.81 222.26 1006.98 231.98 1005.9 241.55 1003.24 251.24 999.4 261.05 995.63 270.71 991.81 280.53 988.6 290.5 987.2 300.37 987.52 310.43 989.98 320.7 995.24 330.89 1002.82 341.32 1012.47 352 1024.03 362.64 1036.44 373.56 1048.76 384.75 1060.44 395.93 1070.11 407.41 1076.82 419.18 1080.44 430.95 1080.05 442.75 1075.81 454.54 1068.59 466.33 1058.49 478.1 1046.38 489.81 1033.48 501.51 1020.32 513.11 1007.75 524.55 996.72 535.93 987.43 547.09 980.15 557.96 975.35 568.69 972.53 579.05 971.37 588.93 972.03 598.57 973.5 607.64 975.22 616.04 977.38 624.09 978.84 631.38 979.23 637.83 977.93 646.45 965.36 658.6 954.16 662.2 945.17 664.12 934.97 665.36 923.82 666.01 912.06 666.81 899.7 667.3 886.98 667.66 874.03 668.59 860.97 669.7 847.94 671.15 834.91 673.59 822.03 676.61 809.35 680.31 796.77 685.17 784.41 690.75 772.29 696.97 760.25 704.18 748.42 711.79 736.8 719.58 725.23 727.76 713.83 735.62 702.61 742.83 691.4 749.61 680.6 755.02 670.22 758.87 659.82 761.65 649.8 762.6 640.18 761.71 630.51 759.54 621.21 755.59 612.28 750 603.25 743.37 594.55 735.39 586.14 726.3 577.58 716.65 569.25 706.27 561.12 695.41 552.73 684.5 544.47 673.44 536.28 662.38 527.77 651.68 519.29 641.17 510.82 630.94 502.01 621.25 493.23 611.87 484.5 602.81 475.55 594.3 466.75 586.03 458.2 577.95 449.65 570.32 441.51 562.74 433.89 555.16 426.52 547.88 419.83 540.46 413.9 532.86 408.38 525.41 403.68 517.67 399.83 509.6 396.35 501.59 393.62 493.19 391.62 484.39 389.75 475.59 388.43 466.36 387.58 456.7 386.56 447.03 385.85 436.92 385.4 426.39 384.58 415.85 383.94 404.9 383.52 393.57 382.73 382.24 382.26 370.81 382.16 359.33 381.95 347.87 382.29 336.38 383.27 324.92 384.42 313.51 386.37 302.14 389.14 290.89 392.29 279.7 396.31 268.66 401.16 257.83 406.38 247.11 412.35 236.63 418.95 226.47 425.71 216.46 432.93 206.82 440.5 197.6 447.95 188.59 455.57 180.04 463.29 172.03 470.67 164.26 478.08 157.04 485.48 150.43 492.49 144.05 499.53 138.27 506.62 133.12 513.4 128.14 520.32 123.73 527.45 119.91 534.39 116.14 541.63 112.86 549.19 110.04 556.7 107.12 564.61 104.55 572.9 102.29 581.22 99.77 589.95 97.44 599.06 95.29 608.22 92.75 617.74 90.31 627.59 87.97 637.47 85.2 647.65 82.54 658.08 80.04 668.52 77.19 679.19 74.58 690.06 72.3" stroke-dasharray="0 0" transform="rotate(8.853658536585366, 711, 400)" opacity="0.82"></path><path d="M691.69 80.9C702.32 78.48 712.98 76.6 723.66 75.31 734.37 74.13 745.14 73.68 755.99 74 766.95 74.62 778.06 76.09 789.36 78.41 800.84 81.12 812.59 84.7 824.63 89.11 836.9 93.89 849.48 99.46 862.33 105.73 875.34 112.3 888.52 119.49 901.73 127.23 914.83 135.13 927.67 143.48 939.99 152.2 951.7 160.96 962.46 170.02 971.95 179.31 980.27 188.53 986.93 197.94 991.71 207.5 995.05 216.93 996.46 226.5 996.01 236.17 994.57 245.7 991.81 255.35 988.15 265.11 984.77 274.74 981.54 284.51 979.05 294.42 978.4 304.23 979.45 314.22 982.55 324.39 988.26 334.49 996.1 344.81 1005.77 355.34 1017.15 365.84 1029.2 376.59 1041.07 387.58 1052.26 398.56 1061.5 409.81 1067.93 421.31 1071.46 432.82 1071.21 444.32 1067.3 455.78 1060.58 467.24 1051.07 478.65 1039.56 489.96 1027.18 501.25 1014.4 512.41 1002 523.37 990.91 534.27 981.32 544.92 973.53 555.24 968.02 565.43 964.39 575.2 962.4 584.49 962.23 593.54 962.98 602.01 964.16 609.82 966.66 620.67 967.3 637.91 963.86 644.14 960.07 647.69 954.71 650.44 947.88 652.42 940.09 654.28 931.05 655.53 921 656.28 910.31 657.23 898.9 657.94 887.02 658.56 874.83 659.77 862.41 661.19 849.9 662.95 837.33 665.66 824.81 668.92 812.43 672.81 800.1 677.79 787.93 683.41 775.99 689.62 764.1 696.72 752.41 704.17 740.95 711.74 729.51 719.67 718.26 727.27 707.21 734.24 696.17 740.79 685.55 746.04 675.35 749.82 665.12 752.59 655.28 753.63 645.82 752.93 636.31 751.04 627.15 747.43 618.33 742.25 609.39 736.07 600.75 728.56 592.37 719.96 583.81 710.77 575.45 700.84 567.25 690.37 558.79 679.8 550.42 669 542.11 658.15 533.49 647.57 524.89 637.12 516.3 626.88 507.42 617.12 498.58 607.63 489.82 598.41 480.89 589.7 472.15 581.22 463.7 572.93 455.3 565.07 447.33 557.29 439.92 549.53 432.8 542.07 426.36 534.52 420.7 526.83 415.45 519.31 411.01 511.55 407.41 503.51 404.17 495.55 401.66 487.24 399.85 478.58 398.16 469.93 396.98 460.89 396.25 451.46 395.34 442.03 394.7 432.19 394.3 421.96 393.5 411.72 392.86 401.09 392.41 390.11 391.57 379.13 391.02 368.06 390.82 356.95 390.49 345.86 390.71 334.76 391.52 323.7 392.52 312.67 394.3 301.71 396.89 290.88 399.85 280.11 403.69 269.5 408.35 259.11 413.4 248.82 419.2 238.79 425.66 229.09 432.31 219.54 439.44 210.35 446.95 201.59 454.38 193.02 462.01 184.92 469.76 177.34 477.22 169.98 484.71 163.16 492.2 156.92 499.31 150.89 506.44 145.43 513.6 140.57 520.42 135.84 527.35 131.66 534.44 128.03 541.31 124.42 548.42 121.26 555.82 118.54 563.11 115.69 570.75 113.17 578.75 110.93 586.73 108.42 595.1 106.09 603.85 103.92 612.6 101.37 621.73 98.91 631.2 96.56 640.68 93.79 650.48 91.13 660.57 88.62 670.67 85.78 681.04 83.18 691.68 80.9" stroke-dasharray="0 0" transform="rotate(11.804878048780488, 711, 400)" opacity="0.61"></path><path d="M694.27 89.5C704.69 87.08 715.2 85.19 725.78 83.88 736.39 82.66 747.13 82.15 757.99 82.38 768.95 82.88 780.1 84.22 791.46 86.38 802.97 88.91 814.75 92.28 826.77 96.45 838.97 101 851.41 106.31 864.02 112.32 876.7 118.62 889.43 125.55 902.04 133.03 914.42 140.68 926.4 148.8 937.73 157.3 948.37 165.86 957.97 174.74 966.25 183.86 973.39 192.94 978.9 202.23 982.62 211.67 985.07 221.01 985.78 230.49 984.86 240.09 983.18 249.56 980.45 259.15 977.06 268.84 974.14 278.42 971.54 288.13 969.78 297.97 969.86 307.72 971.6 317.62 975.28 327.69 981.39 337.69 989.42 347.88 999.09 358.27 1010.25 368.62 1021.93 379.19 1033.34 389.98 1044.06 400.75 1052.89 411.76 1059.04 422.99 1062.48 434.22 1062.35 445.41 1058.77 456.53 1052.52 467.65 1043.58 478.68 1032.67 489.59 1020.83 500.46 1008.45 511.17 996.28 521.66 985.19 532.07 975.37 542.21 967.15 551.99 961.02 561.63 956.63 570.84 953.83 579.55 952.84 588.04 952.85 595.94 953.43 603.19 955.36 613.26 956.37 629.16 953.82 634.89 950.87 638.2 946.47 640.78 940.69 642.67 934.02 644.49 926.12 645.8 917.16 646.67 907.55 647.79 897.14 648.73 886.16 649.62 874.82 651.11 863.13 652.82 851.25 654.87 839.25 657.83 827.2 661.31 815.21 665.37 803.23 670.44 791.36 676.1 779.66 682.27 768 689.26 756.51 696.54 745.22 703.9 733.96 711.58 722.89 718.92 712 725.64 701.12 731.97 690.66 737.06 680.62 740.76 670.54 743.52 660.84 744.65 651.51 744.13 642.11 742.49 633.03 739.21 624.27 734.43 615.38 728.68 606.75 721.64 598.35 713.51 589.77 704.8 581.34 695.31 573.04 685.26 564.49 675.05 556 664.56 547.56 653.94 538.84 643.53 530.13 633.18 521.44 622.99 512.51 613.21 503.64 603.64 494.89 594.32 486.02 585.45 477.38 576.8 469.06 568.33 460.84 560.26 453.09 552.29 445.92 544.37 439.07 536.75 432.91 529.06 427.53 521.28 422.57 513.68 418.4 505.88 415.06 497.85 412.05 489.91 409.76 481.68 408.14 473.13 406.61 464.61 405.58 455.74 404.96 446.52 404.14 437.3 403.57 427.71 403.2 417.77 402.43 407.81 401.79 397.51 401.3 386.86 400.41 376.22 399.8 365.51 399.5 354.78 399.07 344.06 399.15 333.35 399.82 322.68 400.66 312.06 402.27 301.51 404.66 291.1 407.44 280.76 411.08 270.58 415.54 260.63 420.4 250.79 426.02 241.22 432.3 231.97 438.81 222.87 445.83 214.13 453.25 205.82 460.64 197.69 468.27 190.03 476.04 182.87 483.56 175.9 491.12 169.46 498.7 163.58 505.92 157.88 513.15 152.73 520.39 148.13 527.3 143.65 534.28 139.68 541.37 136.21 548.22 132.75 555.27 129.7 562.56 127.06 569.7 124.27 577.16 121.78 584.93 119.56 592.65 117.06 600.73 114.72 609.17 112.54 617.59 109.97 626.38 107.5 635.52 105.14 644.65 102.36 654.13 99.7 663.93 97.19 673.72 94.36 683.83 91.77 694.26 89.5" stroke-dasharray="0 0" transform="rotate(14.75609756097561, 711, 400)" opacity="0.60"></path><path d="M697.68 98.09C707.91 95.69 718.26 93.79 728.74 92.45 739.25 91.2 749.92 90.63 760.74 90.78 771.66 91.18 782.78 92.38 794.11 94.38 805.55 96.72 817.24 99.89 829.13 103.83 841.12 108.14 853.28 113.19 865.52 118.93 877.73 124.97 889.86 131.63 901.74 138.83 913.31 146.23 924.35 154.1 934.63 162.36 944.17 170.7 952.62 179.37 959.72 188.3 965.74 197.22 970.2 206.36 973 215.65 974.69 224.88 974.84 234.26 973.58 243.75 971.8 253.14 969.2 262.65 966.17 272.26 963.76 281.77 961.8 291.41 960.77 301.15 961.55 310.82 963.94 320.63 968.16 330.58 974.61 340.47 982.79 350.53 992.41 360.76 1003.33 370.95 1014.64 381.34 1025.6 391.91 1035.84 402.47 1044.27 413.23 1050.15 424.17 1053.5 435.12 1053.49 445.99 1050.22 456.76 1044.43 467.53 1036.05 478.18 1025.72 488.67 1014.43 499.12 1002.48 509.38 990.58 519.39 979.55 529.32 969.58 538.94 961 548.19 954.31 557.3 949.24 565.97 945.68 574.13 943.88 582.08 943.12 589.45 943.05 596.17 944.28 605.52 945.23 620.23 943.34 625.55 939.29 629.89 923.59 635.48 912.26 637.2 903.72 638.5 894.33 639.67 884.28 640.83 873.84 642.6 862.96 644.59 851.78 646.92 840.44 650.1 828.96 653.78 817.46 657.99 805.92 663.14 794.42 668.81 783.04 674.93 771.67 681.8 760.44 688.9 749.38 696.05 738.33 703.48 727.45 710.57 716.74 717.04 706.04 723.16 695.73 728.09 685.82 731.71 675.87 734.45 666.29 735.66 657.04 735.3 647.72 733.89 638.7 730.93 629.95 726.53 621.09 721.2 612.44 714.62 603.98 706.97 595.34 698.73 586.82 689.7 578.41 680.07 569.76 670.24 561.16 660.08 552.6 649.74 543.79 639.54 534.99 629.34 526.24 619.23 517.29 609.47 508.43 599.88 499.72 590.49 490.96 581.52 482.46 572.73 474.31 564.12 466.31 555.88 458.82 547.74 451.92 539.68 445.35 531.89 439.5 524.09 434.42 516.21 429.75 508.52 425.87 500.68 422.78 492.65 420.01 484.72 417.93 476.54 416.49 468.1 415.12 459.69 414.21 450.97 413.7 441.94 412.96 432.92 412.45 423.56 412.11 413.89 411.35 404.21 410.71 394.2 410.18 383.9 409.26 373.59 408.58 363.23 408.19 352.88 407.66 342.53 407.63 332.2 408.16 321.94 408.85 311.72 410.28 301.59 412.48 291.61 415.06 281.69 418.49 271.96 422.73 262.46 427.38 253.06 432.8 243.93 438.89 235.14 445.24 226.49 452.13 218.2 459.43 210.33 466.76 202.63 474.34 195.38 482.11 188.62 489.67 182.04 497.3 175.97 504.96 170.43 512.29 165.04 519.62 160.16 526.97 155.82 533.97 151.56 541.04 147.78 548.18 144.46 555.06 141.13 562.1 138.18 569.33 135.6 576.4 132.87 583.73 130.41 591.35 128.19 598.87 125.69 606.73 123.34 614.93 121.14 623.09 118.56 631.6 116.08 640.46 113.7 649.31 110.92 658.5 108.26 668.05 105.76 677.57 102.94 687.45 100.36 697.68 98.09" stroke-dasharray="0 0" transform="rotate(17.70731707317073, 711, 400)" opacity="0.82"></path><path d="M701.76 106.69C711.8 104.3 722 102.4 732.35 101.04 742.73 99.76 753.3 99.13 764.04 99.2 774.84 99.5 785.86 100.57 797.06 102.41 808.35 104.58 819.83 107.54 831.46 111.25 843.13 115.31 854.88 120.11 866.6 125.58 878.22 131.34 889.65 137.72 900.71 144.65 911.38 151.78 921.43 159.38 930.63 167.38 939.08 175.49 946.4 183.93 952.4 192.65 957.39 201.38 960.92 210.34 962.92 219.47 963.99 228.56 963.72 237.8 962.26 247.16 960.49 256.45 958.12 265.85 955.51 275.36 953.65 284.78 952.36 294.32 952.04 303.96 953.49 313.53 956.48 323.22 961.17 333.04 967.91 342.81 976.2 352.73 985.74 362.78 996.4 372.81 1007.32 383 1017.82 393.35 1027.6 403.68 1035.64 414.18 1041.27 424.84 1044.51 435.49 1044.61 446.04 1041.64 456.45 1036.28 466.86 1028.45 477.12 1018.71 487.19 1007.96 497.23 996.47 507.04 984.88 516.56 973.97 526.02 963.92 535.14 955.07 543.87 947.9 552.47 942.21 560.62 937.93 568.26 935.35 575.7 933.84 582.57 933.09 588.82 933.51 597.52 934.03 611.19 932.55 616.17 929.36 620.31 916.19 625.94 906.34 627.87 898.82 629.37 890.43 630.78 881.32 632.21 871.81 634.24 861.77 636.5 851.36 639.08 840.75 642.48 829.91 646.33 818.96 650.67 807.94 655.87 796.89 661.54 785.89 667.6 774.89 674.34 763.96 681.26 753.16 688.2 742.38 695.38 731.71 702.21 721.19 708.45 710.68 714.35 700.53 719.12 690.74 722.65 680.92 725.38 671.42 726.65 662.24 726.44 652.98 725.25 643.98 722.6 635.23 718.55 626.35 713.64 617.66 707.5 609.13 700.32 600.42 692.55 591.82 683.98 583.3 674.79 574.56 665.36 565.86 655.55 557.19 645.52 548.32 635.56 539.47 625.55 530.7 615.58 521.77 605.89 512.96 596.32 504.35 586.92 495.73 577.88 487.41 569 479.48 560.28 471.74 551.91 464.52 543.64 457.92 535.45 451.68 527.53 446.14 519.61 441.37 511.65 437 503.88 433.4 495.99 430.57 487.96 428.04 480.03 426.17 471.89 424.9 463.53 423.68 455.21 422.89 446.63 422.47 437.78 421.8 428.94 421.34 419.81 421.02 410.39 420.28 400.97 419.62 391.26 419.07 381.28 418.11 371.3 417.37 361.29 416.91 351.3 416.29 341.32 416.14 331.38 416.53 321.53 417.07 311.7 418.33 301.99 420.34 292.44 422.71 282.95 425.92 273.65 429.94 264.59 434.37 255.64 439.56 246.96 445.44 238.61 451.6 230.4 458.32 222.55 465.49 215.11 472.71 207.82 480.24 200.98 487.97 194.61 495.54 188.39 503.22 182.66 510.94 177.44 518.37 172.34 525.81 167.73 533.25 163.61 540.38 159.55 547.54 155.94 554.76 152.77 561.71 149.55 568.79 146.68 576.02 144.16 583.06 141.47 590.32 139.03 597.84 136.81 605.24 134.3 612.95 131.95 620.96 129.72 628.92 127.14 637.21 124.64 645.85 122.24 654.46 119.47 663.42 116.81 672.74 114.31 682.04 111.51 691.71 108.95 701.76 106.69" stroke-dasharray="0 0" transform="rotate(20.658536585365855, 711, 400)" opacity="0.80"></path><path d="M706.29 115.29C716.16 112.91 726.19 111.01 736.39 109.64 746.62 108.33 757.04 107.65 767.62 107.64 778.26 107.85 789.09 108.79 800.07 110.47 811.1 112.47 822.28 115.23 833.52 118.71 844.76 122.54 855.98 127.07 867.09 132.27 878.01 137.75 888.65 143.85 898.82 150.48 908.55 157.33 917.57 164.65 925.7 172.39 933.09 180.24 939.35 188.43 944.33 196.91 948.4 205.43 951.12 214.19 952.45 223.13 953.04 232.05 952.48 241.14 950.95 250.35 949.3 259.5 947.24 268.78 945.12 278.15 943.84 287.46 943.21 296.88 943.59 306.39 945.67 315.85 949.21 325.41 954.32 335.08 961.3 344.71 969.65 354.47 979.06 364.34 989.45 374.19 999.98 384.17 1010.03 394.28 1019.36 404.38 1027 414.62 1032.38 424.97 1035.53 435.32 1035.73 445.54 1033.03 455.59 1028.1 465.64 1020.8 475.51 1011.62 485.15 1001.43 494.77 990.42 504.13 979.18 513.19 968.44 522.18 958.38 530.82 949.32 539.05 941.75 547.17 935.51 554.82 930.59 561.96 927.27 568.94 925.01 575.35 923.57 581.16 922.97 595.66 919.01 610.77 914.43 613.79 910.48 615.72 905.46 617.34 899.44 618.71 892.88 620.41 885.44 622.06 877.25 623.75 868.66 626.03 859.49 628.54 849.87 631.36 840.03 634.95 829.88 638.96 819.53 643.4 809.1 648.64 798.56 654.29 787.99 660.28 777.41 666.87 766.85 673.62 756.35 680.33 745.87 687.26 735.45 693.85 725.14 699.85 714.83 705.54 704.84 710.16 695.17 713.6 685.48 716.3 676.07 717.62 666.93 717.55 657.72 716.58 648.74 714.2 639.96 710.51 631.07 705.99 622.33 700.29 613.72 693.56 604.95 686.26 596.27 678.15 587.65 669.4 578.83 660.39 570.06 650.96 561.33 641.26 552.43 631.59 543.58 621.8 534.82 612.01 525.96 602.44 517.26 592.94 508.79 583.57 500.36 574.5 492.26 565.58 484.59 556.8 477.14 548.32 470.24 539.95 463.96 531.67 458.05 523.63 452.85 515.62 448.4 507.59 444.34 499.74 441.03 491.81 438.46 483.78 436.15 475.84 434.47 467.75 433.37 459.46 432.29 451.23 431.61 442.77 431.26 434.09 430.66 425.42 430.23 416.49 429.93 407.32 429.21 398.15 428.54 388.72 427.96 379.06 426.97 369.39 426.18 359.73 425.64 350.11 424.94 340.49 424.68 330.94 424.94 321.48 425.34 312.05 426.43 302.75 428.24 293.63 430.41 284.56 433.4 275.69 437.18 267.08 441.37 258.55 446.32 250.31 451.96 242.41 457.91 234.62 464.44 227.19 471.43 220.17 478.53 213.28 485.96 206.82 493.63 200.82 501.19 194.94 508.88 189.53 516.63 184.61 524.14 179.78 531.68 175.41 539.22 171.5 546.47 167.63 553.74 164.17 561.06 161.12 568.1 157.99 575.24 155.2 582.51 152.72 589.57 150.06 596.83 147.64 604.29 145.41 611.63 142.9 619.23 140.53 627.12 138.29 634.93 135.69 643.06 133.18 651.53 130.77 659.94 128 668.71 125.35 677.84 122.86 686.95 120.08 696.43 117.53 706.29 115.29" stroke-dasharray="0 0" transform="rotate(23.609756097560975, 711, 400)" opacity="0.36"></path><path d="M711.06 123.88C720.75 121.53 730.6 119.63 740.62 118.24 750.66 116.91 760.88 116.19 771.24 116.1 781.65 116.22 792.21 117.04 802.88 118.57 813.56 120.4 824.33 122.96 835.09 126.23 845.8 129.81 856.4 134.09 866.8 139.01 876.96 144.21 886.74 150.01 895.98 156.35 904.75 162.91 912.76 169.94 919.85 177.39 926.23 184.97 931.51 192.9 935.57 201.12 938.84 209.41 940.88 217.94 941.69 226.67 941.93 235.4 941.21 244.3 939.73 253.33 938.29 262.32 936.61 271.45 935.01 280.67 934.34 289.84 934.37 299.11 935.41 308.47 938.08 317.79 942.12 327.2 947.59 336.71 954.75 346.18 963.12 355.76 972.39 365.43 982.47 375.09 992.6 384.85 1002.21 394.71 1011.09 404.57 1018.36 414.52 1023.49 424.56 1026.55 434.6 1026.83 444.48 1024.4 454.17 1019.88 463.86 1013.08 473.33 1004.47 482.56 994.83 491.76 984.31 500.69 973.45 509.29 962.94 517.83 952.93 526 943.74 533.76 935.86 541.41 929.15 548.6 923.64 555.29 918.15 564.83 913.11 580.84 912.21 587.25 910.09 597.09 899.03 607.27 891.66 609.71 885.96 611.62 879.4 613.51 872.08 615.46 864.38 617.98 856.06 620.72 847.24 623.76 838.18 627.52 828.75 631.66 819.05 636.18 809.24 641.45 799.26 647.06 789.17 652.96 779.06 659.41 768.9 665.96 758.75 672.46 748.59 679.15 738.46 685.48 728.38 691.25 718.29 696.73 708.48 701.2 698.95 704.54 689.39 707.21 680.06 708.58 670.97 708.64 661.82 707.86 652.85 705.75 644.05 702.39 635.15 698.25 626.37 692.97 617.7 686.7 608.88 679.85 600.13 672.21 591.44 663.91 582.59 655.33 573.78 646.3 565.03 636.95 556.14 627.59 547.34 618.07 538.65 608.49 529.91 599.08 521.37 589.69 513.08 580.4 504.89 571.36 497.06 562.44 489.68 553.63 482.56 545.1 476 536.66 470.07 528.31 464.51 520.19 459.65 512.11 455.53 504.03 451.78 496.12 448.75 488.16 446.43 480.12 444.35 472.19 442.86 464.13 441.91 455.92 440.95 447.77 440.37 439.43 440.09 430.9 439.54 422.39 439.14 413.66 438.85 404.72 438.13 395.79 437.46 386.64 436.85 377.29 435.83 367.93 434.99 358.61 434.39 349.34 433.61 340.08 433.26 330.91 433.4 321.84 433.66 312.81 434.58 303.92 436.2 295.21 438.16 286.56 440.92 278.11 444.45 269.93 448.39 261.83 453.09 254.02 458.48 246.53 464.19 239.16 470.49 232.14 477.29 225.51 484.23 219 491.53 212.91 499.09 207.25 506.61 201.7 514.28 196.59 522.04 191.94 529.61 187.36 537.21 183.21 544.84 179.49 552.2 175.78 559.58 172.46 567 169.51 574.15 166.47 581.38 163.74 588.71 161.29 595.83 158.66 603.11 156.23 610.57 154 617.88 151.49 625.44 149.1 633.24 146.83 640.96 144.22 648.98 141.7 657.3 139.28 665.57 136.52 674.18 133.88 683.14 131.39 692.07 128.64 701.38 126.11 711.06 123.88" stroke-dasharray="0 0" transform="rotate(26.5609756097561, 711, 400)" opacity="0.41"></path><path d="M715.83 132.48C725.33 130.15 734.98 128.26 744.78 126.86 754.6 125.51 764.56 124.75 774.65 124.59 784.76 124.62 794.98 125.33 805.25 126.71 815.51 128.37 825.78 130.74 835.98 133.79 846.07 137.13 855.99 141.15 865.61 145.8 874.96 150.72 883.86 156.23 892.15 162.26 899.97 168.52 907 175.25 913.11 182.4 918.56 189.69 922.96 197.34 926.22 205.29 928.81 213.32 930.3 221.6 930.73 230.09 930.76 238.6 930 247.29 928.66 256.12 927.51 264.93 926.27 273.87 925.23 282.91 925.16 291.91 925.83 301.02 927.5 310.21 930.71 319.36 935.19 328.61 940.97 337.93 948.27 347.22 956.61 356.61 965.7 366.06 975.47 375.51 985.2 385.04 994.36 394.64 1002.81 404.24 1009.72 413.91 1014.6 423.63 1017.56 433.35 1017.93 442.89 1015.75 452.22 1011.61 461.53 1005.31 470.62 997.25 479.45 988.16 488.24 978.15 496.73 967.7 504.9 957.46 513 947.55 520.73 938.31 528.04 930.19 535.25 923.09 542.02 917.07 548.29 910.61 557.24 903.6 572.27 901.91 578.32 899.3 587.82 889.51 598.2 883.12 600.91 878.17 603.02 872.4 605.14 865.88 607.34 859.02 610.08 851.51 613.04 843.46 616.27 835.18 620.18 826.48 624.43 817.43 629.02 808.27 634.28 798.87 639.85 789.3 645.65 779.69 651.94 769.97 658.3 760.19 664.58 750.41 671.02 740.58 677.11 730.75 682.66 720.92 687.93 711.31 692.24 701.91 695.49 692.5 698.12 683.27 699.53 674.24 699.71 665.15 699.11 656.21 697.25 647.4 694.21 638.51 690.43 629.71 685.56 620.99 679.72 612.16 673.33 603.38 666.14 594.66 658.3 585.82 650.16 577.02 641.54 568.29 632.57 559.48 623.54 550.77 614.32 542.21 604.99 533.65 595.78 525.31 586.56 517.26 577.39 509.35 568.42 501.83 559.54 494.79 550.76 488.02 542.21 481.82 533.75 476.26 525.36 471.06 517.2 466.55 509.06 462.76 500.95 459.33 493.01 456.57 485.03 454.49 477 452.63 469.08 451.31 461.06 450.5 452.92 449.66 444.85 449.16 436.62 448.93 428.24 448.43 419.89 448.06 411.35 447.77 402.64 447.05 393.94 446.37 385.05 445.74 376 444.7 366.95 443.82 357.95 443.16 349.04 442.32 340.13 441.87 331.32 441.9 322.64 442.02 313.99 442.78 305.5 444.22 297.2 445.97 288.95 448.49 280.92 451.77 273.16 455.45 265.47 459.88 258.06 464.99 250.99 470.45 244.01 476.51 237.37 483.07 231.13 489.82 224.98 496.95 219.22 504.38 213.89 511.81 208.64 519.42 203.81 527.16 199.41 534.74 195.06 542.39 191.1 550.08 187.56 557.53 183.99 565.01 180.79 572.52 177.92 579.79 174.96 587.11 172.28 594.52 169.85 601.72 167.24 609.05 164.81 616.53 162.57 623.86 160.04 631.4 157.64 639.16 155.35 646.82 152.73 654.76 150.2 662.97 147.78 671.13 145.03 679.61 142.39 688.42 139.92 697.2 137.2 706.33 134.69 715.83 132.48" stroke-dasharray="0 0" transform="rotate(29.51219512195122, 711, 400)" opacity="0.44"></path><path d="M720.36 141.07C729.65 138.77 739.09 136.89 748.63 135.49 758.18 134.12 767.85 133.32 777.6 133.1 787.35 133.05 797.16 133.65 806.97 134.89 816.74 136.39 826.44 138.57 836 141.4 845.43 144.52 854.61 148.28 863.41 152.65 871.94 157.29 879.95 162.5 887.31 168.23 894.22 174.18 900.33 180.6 905.52 187.44 910.14 194.43 913.77 201.78 916.36 209.44 918.4 217.19 919.48 225.2 919.65 233.43 919.58 241.7 918.9 250.15 917.79 258.75 917 267.35 916.24 276.08 915.78 284.91 916.31 293.73 917.6 302.64 919.86 311.63 923.56 320.6 928.43 329.65 934.46 338.77 941.84 347.86 950.12 357.04 959.01 366.26 968.44 375.48 977.77 384.76 986.49 394.09 994.51 403.42 1001.07 412.8 1005.71 422.19 1008.58 431.59 1009.01 440.79 1007.07 449.75 1003.3 458.7 997.48 467.4 989.96 475.82 981.42 484.22 971.92 492.3 961.9 500.04 951.97 507.73 942.24 515.04 933.01 521.93 924.72 528.74 917.31 535.11 910.86 541 903.53 549.43 894.59 563.61 892.08 569.36 888.68 578.63 879.57 589.3 873.95 592.3 869.63 594.61 864.55 596.95 858.74 599.38 852.64 602.33 845.88 605.48 838.57 608.89 831.04 612.92 823.03 617.26 814.65 621.89 806.14 627.14 797.33 632.65 788.3 638.34 779.21 644.47 769.95 650.64 760.57 656.7 751.18 662.89 741.69 668.74 732.14 674.06 722.59 679.12 713.19 683.28 703.96 686.44 694.71 689.02 685.61 690.47 676.65 690.75 667.65 690.31 658.76 688.7 649.97 685.95 641.12 682.52 632.33 678.04 623.61 672.63 614.8 666.68 606.04 659.95 597.34 652.57 588.55 644.86 579.82 636.67 571.18 628.1 562.49 619.44 553.94 610.54 545.56 601.5 537.23 592.52 529.14 583.5 521.39 574.49 513.8 565.65 506.63 556.85 499.94 548.13 493.56 539.61 487.74 531.16 482.56 522.79 477.73 514.6 473.58 506.46 470.12 498.34 466.99 490.38 464.5 482.4 462.66 474.4 460.99 466.5 459.84 458.52 459.15 450.47 458.42 442.48 457.99 434.36 457.8 426.13 457.34 417.93 456.98 409.58 456.69 401.1 455.97 392.62 455.28 383.99 454.63 375.23 453.57 366.48 452.65 357.8 451.94 349.22 451.04 340.65 450.52 332.2 450.44 323.91 450.44 315.63 451.04 307.52 452.29 299.62 453.84 291.77 456.13 284.14 459.15 276.78 462.56 269.48 466.71 262.47 471.54 255.78 476.71 249.18 482.5 242.91 488.81 237.02 495.33 231.2 502.26 225.77 509.51 220.73 516.81 215.77 524.33 211.19 532 207.01 539.57 202.87 547.22 199.09 554.93 195.69 562.45 192.26 570.01 189.15 577.59 186.36 584.96 183.46 592.38 180.81 599.86 178.4 607.15 175.8 614.54 173.37 622.06 171.11 629.43 168.57 636.97 166.15 644.71 163.84 652.35 161.22 660.23 158.68 668.36 156.25 676.43 153.51 684.79 150.9 693.46 148.44 702.09 145.74 711.06 143.27 720.36 141.07" stroke-dasharray="0 0" transform="rotate(32.463414634146346, 711, 400)" opacity="0.13"></path><path d="M724.42 149.67C733.5 147.39 742.68 145.53 751.93 144.12 761.19 142.75 770.52 141.91 779.87 141.63 789.22 141.5 798.56 142 807.85 143.11 817.07 144.45 826.16 146.45 835.04 149.07 843.77 151.96 852.18 155.47 860.17 159.56 867.86 163.92 875.01 168.83 881.48 174.26 887.53 179.89 892.8 186 897.19 192.51 901.08 199.19 904.06 206.23 906.1 213.58 907.73 221.04 908.52 228.76 908.57 236.71 908.51 244.71 907.99 252.9 907.2 261.25 906.81 269.61 906.57 278.11 906.69 286.71 907.81 295.31 909.68 304 912.47 312.77 916.61 321.53 921.81 330.36 928.03 339.25 935.46 348.13 943.63 357.07 952.29 366.05 961.39 375.02 970.3 384.05 978.59 393.09 986.2 402.14 992.41 411.21 996.82 420.28 999.59 429.35 1000.09 438.2 998.37 446.8 994.95 455.39 989.59 463.71 982.59 471.75 974.59 479.75 965.61 487.44 956.05 494.79 946.47 502.08 936.96 508.99 927.8 515.51 919.43 521.94 911.8 527.95 904.99 533.5 896.89 541.46 886.14 554.92 882.77 560.43 878.35 569.57 869.36 580.61 864.33 583.89 860.51 586.4 855.99 588.95 850.8 591.59 845.36 594.73 839.29 598.06 832.65 601.62 825.81 605.75 818.48 610.16 810.73 614.82 802.85 620.03 794.64 625.46 786.14 631.03 777.58 637 768.8 642.96 759.84 648.8 750.86 654.76 741.73 660.36 732.48 665.46 723.22 670.32 714.07 674.32 705.03 677.39 695.98 679.93 687.02 681.39 678.17 681.77 669.29 681.49 660.48 680.09 651.75 677.63 642.96 674.52 634.23 670.42 625.56 665.42 616.82 659.91 608.13 653.63 599.5 646.7 590.82 639.44 582.22 631.68 573.72 623.52 565.22 615.24 556.88 606.69 548.74 597.97 540.69 589.27 532.92 580.49 525.5 571.68 518.27 563 511.48 554.33 505.19 545.72 499.2 537.27 493.78 528.88 488.99 520.55 484.54 512.38 480.74 504.26 477.6 496.17 474.76 488.22 472.54 480.26 470.91 472.31 469.44 464.44 468.43 456.53 467.86 448.57 467.22 440.66 466.85 432.67 466.7 424.59 466.25 416.53 465.9 408.37 465.61 400.1 464.89 391.84 464.19 383.47 463.51 375 462.44 366.52 461.5 358.15 460.74 349.91 459.79 341.67 459.2 333.57 459.02 325.64 458.9 317.72 459.36 309.99 460.43 302.47 461.77 294.99 463.83 287.75 466.59 280.77 469.73 273.85 473.59 267.21 478.12 260.9 483 254.64 488.49 248.72 494.51 243.16 500.77 237.66 507.47 232.52 514.51 227.76 521.64 223.04 529.02 218.7 536.58 214.73 544.08 210.76 551.7 207.15 559.4 203.88 566.95 200.56 574.54 197.54 582.17 194.81 589.62 191.95 597.12 189.33 604.66 186.94 612.03 184.34 619.49 181.9 627.04 179.62 634.46 177.08 642.03 174.64 649.75 172.31 657.38 169.68 665.22 167.14 673.27 164.71 681.27 161.99 689.53 159.39 698.05 156.95 706.54 154.29 715.33 151.84 724.42 149.67" stroke-dasharray="0 0" transform="rotate(35.41463414634146, 711, 400)" opacity="0.84"></path><path d="M727.81 158.27C736.66 156.02 745.56 154.18 754.49 152.77 763.41 151.39 772.36 150.52 781.28 150.18 790.18 149.99 799.02 150.38 807.74 151.36 816.38 152.56 824.83 154.38 833.01 156.79 841.02 159.46 848.66 162.72 855.84 166.55 862.74 170.63 869.06 175.24 874.72 180.36 879.99 185.68 884.5 191.46 888.19 197.65 891.47 204 893.92 210.72 895.55 217.75 896.89 224.89 897.53 232.31 897.56 239.96 897.61 247.67 897.34 255.58 896.92 263.65 896.98 271.75 897.26 279.99 897.97 288.34 899.64 296.69 902.06 305.14 905.34 313.67 909.86 322.19 915.33 330.79 921.7 339.43 929.12 348.06 937.15 356.75 945.56 365.47 954.3 374.18 962.81 382.93 970.67 391.68 977.87 400.43 983.75 409.19 987.93 417.93 990.6 426.67 991.16 435.17 989.65 443.41 986.56 451.64 981.64 459.6 975.15 467.26 967.69 474.89 959.23 482.21 950.14 489.17 940.94 496.09 931.7 502.65 922.68 508.8 914.3 514.9 906.51 520.58 899.43 525.83 893.34 531.01 888.02 535.76 883.42 540.06 878.23 546.23 871.06 556.51 868.24 560.74 862.4 568.47 848.94 579.76 842.22 583.97 837.33 587.28 831.85 590.76 825.81 594.44 819.6 598.66 812.88 603.11 805.73 607.78 798.46 612.95 790.82 618.28 782.84 623.72 774.82 629.52 766.51 635.28 757.98 640.9 749.43 646.61 740.67 651.99 731.74 656.87 722.81 661.53 713.92 665.37 705.1 668.34 696.28 670.82 687.5 672.31 678.79 672.77 670.06 672.62 661.38 671.43 652.75 669.24 644.09 666.45 635.46 662.71 626.89 658.11 618.28 653.02 609.71 647.18 601.22 640.69 592.71 633.88 584.29 626.56 576 618.83 567.75 610.94 559.68 602.77 551.84 594.38 544.12 585.99 536.7 577.48 529.65 568.92 522.82 560.44 516.43 551.94 510.56 543.48 504.98 535.15 499.97 526.85 495.57 518.6 491.5 510.5 488.04 502.43 485.22 494.39 482.67 486.48 480.69 478.58 479.27 470.69 477.97 462.88 477.1 455.05 476.62 447.19 476.05 439.38 475.73 431.51 475.61 423.58 475.18 415.68 474.83 407.71 474.53 399.66 473.81 391.61 473.1 383.49 472.4 375.29 471.32 367.1 470.35 359.03 469.56 351.11 468.57 343.19 467.91 335.43 467.64 327.85 467.42 320.28 467.73 312.91 468.63 305.76 469.78 298.64 471.61 291.76 474.11 285.15 476.98 278.58 480.54 272.3 484.76 266.32 489.32 260.4 494.5 254.8 500.22 249.55 506.19 244.33 512.62 239.47 519.41 234.96 526.33 230.47 533.52 226.33 540.93 222.54 548.32 218.74 555.86 215.27 563.5 212.11 571.03 208.88 578.63 205.93 586.27 203.25 593.76 200.44 601.3 197.84 608.88 195.44 616.32 192.85 623.82 190.4 631.41 188.1 638.87 185.55 646.45 183.09 654.16 180.75 661.79 178.12 669.58 175.58 677.56 173.15 685.49 170.44 693.64 167.87 702.01 165.45 710.36 162.82 718.96 160.41 727.81 158.27" stroke-dasharray="0 0" transform="rotate(38.36585365853659, 711, 400)" opacity="0.38"></path><path d="M730.36 166.86C738.96 164.65 747.55 162.83 756.13 161.42 764.7 160.04 773.23 159.15 781.69 158.76 790.11 158.5 798.42 158.8 806.54 159.66 814.58 160.72 822.38 162.36 829.86 164.58 837.17 167.03 844.07 170.05 850.48 173.61 856.63 177.41 862.19 181.73 867.11 186.53 871.68 191.54 875.55 197 878.66 202.86 881.45 208.88 883.5 215.26 884.85 221.96 886.01 228.78 886.6 235.87 886.73 243.2 886.97 250.6 887.01 258.21 887 265.98 887.54 273.8 888.35 281.75 889.61 289.82 891.82 297.91 894.73 306.1 898.45 314.35 903.29 322.62 908.97 330.95 915.43 339.32 922.8 347.7 930.67 356.12 938.8 364.56 947.18 372.99 955.28 381.45 962.73 389.9 969.53 398.35 975.08 406.79 979.05 415.2 981.62 423.6 982.23 431.76 980.91 439.65 978.13 447.53 973.63 455.13 967.64 462.43 960.7 469.71 952.76 476.66 944.16 483.28 935.37 489.85 926.43 496.07 917.61 501.9 909.29 507.68 901.42 513.08 894.15 518.06 887.73 523 881.99 527.53 876.92 531.66 870.9 537.62 862.13 547.71 858.68 551.98 855.74 556.15 848.83 563.88 844.4 567.71 839.33 572.04 826.24 581.78 818.22 587.37 812.56 591.65 806.4 596.12 799.79 600.78 793.08 605.88 785.97 611.11 778.51 616.42 770.99 622.03 763.16 627.59 755.05 632.99 746.93 638.47 738.56 643.6 729.97 648.27 721.39 652.73 712.79 656.43 704.22 659.29 695.65 661.72 687.09 663.21 678.56 663.75 670.03 663.73 661.52 662.73 653.04 660.79 644.55 658.29 636.08 654.9 627.66 650.68 619.23 645.99 610.86 640.58 602.56 634.54 594.29 628.18 586.12 621.3 578.1 613.99 570.15 606.52 562.4 598.73 554.91 590.72 547.56 582.66 540.54 574.46 533.9 566.16 527.49 557.93 521.53 549.65 516.08 541.37 510.93 533.19 506.33 525.03 502.32 516.91 498.62 508.9 495.5 500.92 492.98 492.98 490.7 485.15 488.96 477.32 487.72 469.52 486.58 461.79 485.83 454.06 485.43 446.31 484.93 438.61 484.64 430.88 484.53 423.12 484.12 415.38 483.77 407.59 483.45 399.75 482.73 391.92 482 384.04 481.29 376.12 480.2 368.2 479.21 360.42 478.39 352.81 477.37 345.2 476.65 337.77 476.3 330.52 475.98 323.29 476.17 316.26 476.9 309.46 477.86 302.68 479.47 296.14 481.72 289.88 484.3 283.64 487.57 277.69 491.47 272.04 495.71 266.43 500.56 261.12 505.95 256.15 511.61 251.2 517.73 246.58 524.24 242.29 530.9 238.02 537.87 234.06 545.08 230.44 552.31 226.78 559.72 223.42 567.25 220.36 574.71 217.22 582.26 214.33 589.87 211.68 597.37 208.9 604.91 206.31 612.5 203.92 619.97 201.32 627.5 198.86 635.09 196.55 642.58 193.98 650.16 191.51 657.84 189.16 665.45 186.53 673.2 183.99 681.09 181.57 688.94 178.88 696.97 176.33 705.18 173.94 713.37 171.35 721.77 168.98 730.36 166.86" stroke-dasharray="0 0" transform="rotate(41.31707317073171, 711, 400)" opacity="0.59"></path><path d="M731.95 175.46C740.27 173.29 748.54 171.49 756.73 170.09 764.92 168.71 773.02 167.8 780.99 167.36 788.92 167.04 796.68 167.25 804.21 168 811.65 168.92 818.8 170.4 825.6 172.42 832.23 174.66 838.43 177.45 844.13 180.76 849.59 184.28 854.49 188.31 858.75 192.81 862.74 197.5 866.07 202.63 868.72 208.15 871.13 213.84 872.91 219.88 874.09 226.24 875.19 232.72 875.84 239.48 876.14 246.47 876.64 253.55 877.04 260.84 877.49 268.29 878.5 275.8 879.83 283.45 881.63 291.22 884.32 299.02 887.68 306.92 891.78 314.89 896.88 322.87 902.72 330.92 909.22 339.01 916.51 347.1 924.18 355.23 932.02 363.37 940.03 371.52 947.72 379.68 954.75 387.81 961.17 395.95 966.4 404.07 970.16 412.14 972.63 420.2 973.28 428.02 972.15 435.56 969.67 443.1 965.56 450.36 960.05 457.31 953.62 464.25 946.21 470.87 938.09 477.15 929.74 483.41 921.15 489.31 912.58 494.86 904.37 500.36 896.51 505.5 889.11 510.25 882.45 514.98 876.38 519.33 870.9 523.31 864.13 529.1 853.82 539.09 849.71 543.42 846.23 547.72 838.84 555.85 834.45 559.93 829.63 564.51 817.47 574.67 810.07 580.4 804.87 584.71 799.19 589.19 793.07 593.81 786.86 598.83 780.24 603.95 773.25 609.11 766.22 614.54 758.84 619.89 751.16 625.07 743.46 630.31 735.49 635.22 727.26 639.67 719.03 643.94 710.75 647.48 702.46 650.25 694.17 652.62 685.87 654.11 677.57 654.7 669.28 654.8 660.98 653.98 652.71 652.27 644.44 650.05 636.19 646.98 627.99 643.13 619.8 638.84 611.68 633.85 603.64 628.24 595.66 622.32 587.79 615.88 580.1 609.01 572.51 601.96 565.13 594.58 558.03 586.94 551.1 579.25 544.5 571.38 538.3 563.39 532.33 555.43 526.82 547.39 521.81 539.34 517.08 531.36 512.89 523.38 509.26 515.41 505.92 507.54 503.13 499.69 500.9 491.88 498.87 484.15 497.33 476.44 496.27 468.75 495.26 461.13 494.62 453.51 494.3 445.9 493.84 438.33 493.58 430.75 493.47 423.15 493.06 415.58 492.7 407.98 492.37 400.36 491.64 392.75 490.9 385.11 490.18 377.46 489.08 369.81 488.09 362.32 487.24 355.01 486.19 347.7 485.43 340.57 485.01 333.65 484.6 326.73 484.66 320.03 485.24 313.56 486.02 307.1 487.41 300.89 489.41 294.95 491.73 289.03 494.69 283.38 498.27 278.03 502.19 272.7 506.69 267.67 511.74 262.95 517.06 258.24 522.85 253.84 529.05 249.76 535.42 245.67 542.11 241.88 549.08 238.39 556.1 234.86 563.32 231.61 570.69 228.62 578.04 225.55 585.49 222.71 593.01 220.09 600.46 217.33 607.97 214.76 615.52 212.35 622.98 209.75 630.5 207.29 638.06 204.95 645.54 202.37 653.1 199.9 660.73 197.53 668.3 194.91 675.98 192.38 683.77 189.96 691.53 187.31 699.42 184.78 707.45 182.42 715.46 179.88 723.63 177.54 731.95 175.46" stroke-dasharray="0 0" transform="rotate(44.26829268292683, 711, 400)" opacity="0.72"></path><path d="M732.49 184.06C740.51 181.92 748.44 180.15 756.24 178.76 764.03 177.39 771.68 176.46 779.15 175.99 786.59 175.61 793.8 175.74 800.75 176.37 807.6 177.17 814.14 178.49 820.29 180.33 826.29 182.37 831.85 184.93 836.91 187.98 843.92 193.11 854.76 205.96 858.53 213.55 860.68 218.89 862.29 224.59 863.42 230.6 864.55 236.73 865.34 243.14 865.89 249.8 866.7 256.53 867.5 263.48 868.4 270.61 869.89 277.78 871.72 285.12 874.02 292.57 877.16 300.05 880.91 307.64 885.32 315.3 890.63 322.99 896.57 330.73 903.07 338.52 910.22 346.31 917.67 354.14 925.2 361.97 932.84 369.82 940.12 377.66 946.75 385.47 952.8 393.3 957.72 401.09 961.27 408.82 963.64 416.54 964.33 424.02 963.37 431.23 961.16 438.44 957.44 445.36 952.38 451.99 946.45 458.6 939.56 464.9 931.94 470.88 924.04 476.84 915.83 482.47 907.55 487.75 899.52 493 891.73 497.91 884.3 502.47 877.47 507.01 871.14 511.22 865.33 515.09 857.92 520.75 846.17 530.7 841.39 535.11 837.33 539.54 829.25 548.07 824.77 552.38 820.04 557.18 808.49 567.68 801.58 573.51 796.75 577.84 791.47 582.3 785.77 586.87 780 591.8 773.82 596.8 767.27 601.8 760.67 607.03 753.73 612.18 746.46 617.14 739.18 622.15 731.59 626.83 723.73 631.08 715.87 635.15 707.94 638.54 699.95 641.2 691.98 643.51 683.96 644.99 675.94 645.65 667.92 645.85 659.89 645.19 651.88 643.7 643.88 641.74 635.9 638.98 627.98 635.48 620.09 631.56 612.27 626.98 604.56 621.79 596.92 616.3 589.41 610.3 582.1 603.87 574.9 597.24 567.94 590.28 561.27 583.04 554.78 575.73 548.64 568.21 542.89 560.55 537.38 552.9 532.32 545.15 527.75 537.35 523.45 529.61 519.65 521.84 516.4 514.07 513.4 506.38 510.92 498.69 508.95 491.03 507.16 483.45 505.82 475.88 504.91 468.33 504.02 460.85 503.47 453.37 503.2 445.91 502.78 438.49 502.54 431.07 502.42 423.66 502.01 416.26 501.64 408.86 501.29 401.46 500.55 394.07 499.8 386.67 499.07 379.28 497.97 371.89 496.97 364.68 496.1 357.66 495.04 350.64 494.24 343.81 493.75 337.19 493.26 330.58 493.22 324.19 493.65 318.03 494.26 311.88 495.45 305.97 497.21 300.33 499.26 294.7 501.92 289.33 505.18 284.25 508.76 279.19 512.92 274.4 517.61 269.91 522.57 265.42 528.01 261.23 533.86 257.32 539.9 253.4 546.29 249.75 552.96 246.38 559.73 242.96 566.72 239.8 573.88 236.88 581.05 233.86 588.35 231.06 595.73 228.46 603.08 225.72 610.5 223.15 617.97 220.74 625.37 218.14 632.82 215.66 640.32 213.31 647.76 210.73 655.25 208.25 662.8 205.87 670.3 203.26 677.88 200.74 685.54 198.34 693.17 195.72 700.91 193.22 708.73 190.9 716.55 188.4 724.48 186.1 732.49 184.06" stroke-dasharray="0 0" transform="rotate(47.21951219512195, 711, 400)" opacity="0.97"></path><path d="M731.97 192.65C739.67 190.56 747.23 188.82 754.63 187.45 762.01 186.09 769.22 185.14 776.2 184.63 783.14 184.21 789.82 184.26 796.21 184.79 805.49 186.06 821.95 191.32 828.95 195.3 835.2 200.03 844.83 211.96 848.22 219.05 850.21 224.06 851.77 229.41 852.94 235.07 854.18 240.85 855.18 246.9 856.03 253.2 857.19 259.59 858.4 266.19 859.77 272.96 861.72 279.8 864.02 286.79 866.77 293.91 870.3 301.06 874.39 308.33 879.05 315.66 884.51 323.03 890.51 330.45 896.95 337.92 903.94 345.4 911.14 352.91 918.35 360.42 925.61 367.95 932.49 375.47 938.73 382.96 944.41 390.45 949.03 397.91 952.38 405.31 954.66 412.7 955.38 419.85 954.56 426.73 952.62 433.6 949.26 440.21 944.64 446.53 939.2 452.83 932.81 458.84 925.69 464.54 918.26 470.22 910.46 475.59 902.5 480.64 894.72 485.67 887.06 490.39 879.66 494.78 872.75 499.17 866.25 503.25 860.18 507.03 852.23 512.6 839.18 522.55 833.76 527.06 829.1 531.62 820.18 540.52 815.51 545.05 810.73 550.03 799.53 560.81 792.96 566.71 788.41 571.03 783.46 575.46 778.1 579.97 772.7 584.79 766.91 589.65 760.75 594.48 754.56 599.53 748.01 604.46 741.14 609.2 734.26 613.98 727.06 618.44 719.57 622.48 712.09 626.37 704.51 629.61 696.86 632.16 689.22 634.4 681.53 635.87 673.81 636.57 666.11 636.86 658.4 636.35 650.69 635.06 643.02 633.35 635.37 630.88 627.78 627.71 620.23 624.16 612.77 619.96 605.44 615.19 598.18 610.12 591.09 604.55 584.2 598.55 577.44 592.36 570.92 585.82 564.72 578.99 558.69 572.07 553.01 564.93 547.74 557.63 542.69 550.31 538.08 542.87 533.94 535.36 530.05 527.89 526.64 520.36 523.75 512.83 521.07 505.35 518.87 497.86 517.16 490.4 515.58 482.98 514.41 475.59 513.63 468.21 512.85 460.89 512.37 453.58 512.14 446.29 511.75 439.04 511.51 431.8 511.38 424.58 510.96 417.38 510.57 410.18 510.2 403.01 509.46 395.84 508.7 388.68 507.96 381.55 506.86 374.41 505.86 367.47 504.98 360.73 503.9 353.99 503.07 347.45 502.54 341.13 501.98 334.8 501.84 328.7 502.14 322.83 503.08 314.16 508.09 298.07 512.22 290.68 515.46 285.85 519.26 281.29 523.58 277.01 528.17 272.72 533.24 268.7 538.72 264.95 544.41 261.18 550.46 257.66 556.8 254.39 563.27 251.07 569.98 247.97 576.87 245.11 583.81 242.14 590.9 239.37 598.1 236.79 605.28 234.06 612.55 231.49 619.88 229.07 627.17 226.47 634.52 223.98 641.9 221.62 649.24 219.04 656.63 216.55 664.06 214.18 671.45 211.58 678.9 209.08 686.4 206.69 693.88 204.1 701.42 201.65 709.02 199.36 716.61 196.91 724.27 194.66 731.97 192.65" stroke-dasharray="0 0" transform="rotate(50.170731707317074, 711, 400)" opacity="0.75"></path><path d="M730.4 201.25C737.76 199.21 744.95 197.5 751.94 196.15 758.92 194.79 765.67 193.84 772.18 193.3 781.73 192.83 799.19 194.34 806.94 196.35 814.11 199.07 826.03 207.05 830.71 212.24 834.77 218.09 840.67 231.86 842.76 239.66 844.18 245.09 845.44 250.78 846.63 256.72 848.16 262.74 849.79 268.98 851.61 275.4 853.99 281.89 856.72 288.53 859.88 295.29 863.74 302.1 868.1 309.02 872.96 316.02 878.52 323.05 884.52 330.14 890.86 337.28 897.67 344.43 904.59 351.61 911.47 358.79 918.35 365.98 924.83 373.17 930.68 380.33 936 387.5 940.34 394.62 943.49 401.68 945.67 408.74 946.41 415.56 945.74 422.13 944.04 428.68 941.02 434.98 936.82 441.01 931.85 447.02 925.96 452.75 919.34 458.19 912.38 463.62 905.01 468.76 897.43 473.6 889.92 478.44 882.45 482.98 875.16 487.23 868.25 491.48 861.65 495.46 855.42 499.18 847.05 504.68 832.87 514.68 826.84 519.29 821.59 523.98 811.76 533.22 806.81 537.93 801.88 543.06 790.77 554.06 784.44 559.98 780.09 564.28 775.38 568.66 770.31 573.08 765.21 577.79 759.75 582.5 753.94 587.16 748.1 592.01 741.92 596.73 735.43 601.25 728.91 605.8 722.1 610.04 714.99 613.89 707.88 617.58 700.66 620.67 693.37 623.13 686.09 625.29 678.75 626.75 671.39 627.48 664.04 627.85 656.67 627.47 649.33 626.37 642.02 624.88 634.74 622.69 627.53 619.83 620.38 616.62 613.32 612.8 606.4 608.42 599.58 603.77 592.93 598.62 586.49 593.06 580.2 587.29 574.16 581.18 568.43 574.77 562.88 568.25 557.68 561.5 552.88 554.58 548.29 547.61 544.12 540.51 540.4 533.32 536.91 526.14 533.87 518.9 531.31 511.63 528.94 504.4 527.01 497.14 525.51 489.9 524.12 482.69 523.1 475.5 522.44 468.32 521.75 461.19 521.31 454.07 521.11 446.98 520.73 439.92 520.49 432.87 520.35 425.86 519.91 418.86 519.5 411.88 519.11 404.94 518.36 398 517.6 391.08 516.85 384.21 515.76 377.33 514.76 370.66 513.87 364.19 512.79 357.72 511.94 351.45 511.36 345.4 510.63 336.44 511.4 319.66 513.12 311.87 515.71 304.33 524.02 290.5 529.69 284.22 533.91 280.11 538.58 276.24 543.68 272.64 548.99 268.99 554.66 265.58 560.65 262.4 566.77 259.16 573.15 256.13 579.74 253.31 586.4 250.38 593.23 247.63 600.17 245.06 607.14 242.35 614.21 239.78 621.34 237.35 628.47 234.74 635.65 232.25 642.86 229.88 650.06 227.3 657.29 224.82 664.55 222.44 671.79 219.86 679.07 217.38 686.37 215.02 693.66 212.48 700.98 210.06 708.32 207.81 715.66 205.41 723.03 203.21 730.4 201.25" stroke-dasharray="0 0" transform="rotate(53.1219512195122, 711, 400)" opacity="0.82"></path><path d="M727.86 209.85C734.88 207.86 741.69 206.19 748.27 204.85 754.84 203.52 761.17 202.56 767.22 201.99 776.09 201.46 792.15 202.67 799.21 204.46 805.75 206.9 816.62 214.18 820.93 218.96 824.75 224.35 830.65 237.12 832.97 244.4 834.63 249.47 836.19 254.8 837.73 260.37 839.64 266.03 841.67 271.91 843.92 277.96 846.7 284.08 849.82 290.36 853.32 296.76 857.46 303.22 862.03 309.78 867.03 316.43 872.63 323.11 878.58 329.85 884.79 336.64 891.37 343.45 898.01 350.29 904.54 357.14 911.04 363.99 917.13 370.85 922.61 377.67 927.58 384.5 931.64 391.29 934.6 398.02 936.68 404.75 937.44 411.25 936.9 417.51 935.43 423.76 932.73 429.76 928.93 435.51 924.41 441.24 919 446.72 912.88 451.92 906.4 457.12 899.48 462.05 892.29 466.71 885.11 471.36 877.89 475.75 870.76 479.88 863.92 484.03 857.31 487.93 850.98 491.59 845.1 495.3 839.53 498.79 834.28 502.1 827.22 507.1 814.85 516.62 809.25 521.27 804.08 526.16 793.65 536.28 788.12 541.61 784.43 545.46 780.48 549.37 776.24 553.34 772.02 557.59 767.49 561.89 762.64 566.22 757.78 570.79 752.59 575.35 747.08 579.84 741.55 584.48 735.7 588.99 729.55 593.29 723.39 597.62 716.94 601.65 710.2 605.29 703.47 608.8 696.62 611.74 689.71 614.09 682.8 616.18 675.84 617.61 668.85 618.38 661.88 618.81 654.9 618.56 647.95 617.63 641.04 616.35 634.17 614.41 627.38 611.85 620.66 608.97 614.04 605.5 607.58 601.51 601.21 597.25 595.03 592.52 589.08 587.37 583.26 582.04 577.71 576.35 572.47 570.36 567.41 564.26 562.68 557.91 558.34 551.37 554.2 544.78 550.46 538.04 547.15 531.19 544.03 524.34 541.34 517.41 539.09 510.43 536.99 503.47 535.3 496.48 534.01 489.49 532.78 482.52 531.89 475.56 531.32 468.61 530.69 461.69 530.3 454.79 530.11 447.91 529.74 441.06 529.49 434.24 529.32 427.44 528.86 420.66 528.43 413.91 528.02 407.2 527.26 400.5 526.49 393.83 525.73 387.21 524.66 380.59 523.66 374.17 522.78 367.97 521.27 358.76 519.41 341.4 519.33 333.28 519.82 325.38 523.46 310.74 526.71 304.02 530.84 297.51 541.94 285.68 548.77 280.33 553.68 276.79 558.96 273.48 564.55 270.38 570.3 267.21 576.32 264.23 582.56 261.44 588.89 258.55 595.4 255.83 602.05 253.26 608.75 250.56 615.55 247.99 622.44 245.56 629.33 242.96 636.29 240.46 643.29 238.08 650.29 235.51 657.32 233.04 664.36 230.67 671.4 228.12 678.46 225.67 685.53 223.33 692.59 220.83 699.66 218.46 706.72 216.25 713.78 213.91 720.84 211.77 727.86 209.85" stroke-dasharray="0 0" transform="rotate(56.07317073170732, 711, 400)" opacity="0.18"></path><path d="M724.48 218.44C731.14 216.51 737.58 214.88 743.76 213.56 752.9 211.78 769.73 210.11 777.34 210.31 784.54 211.06 797.05 214.82 802.32 217.82 807.13 221.42 814.93 230.75 818.05 236.39 821.04 242.55 826.53 256.51 829.37 264.2 831.64 269.49 834.07 274.99 836.7 280.67 839.84 286.42 843.28 292.33 847.08 298.37 851.43 304.46 856.16 310.66 861.24 316.94 866.83 323.26 872.68 329.65 878.73 336.09 885.06 342.55 891.39 349.04 897.57 355.54 903.69 362.05 909.39 368.56 914.51 375.05 919.15 381.54 922.94 388 925.72 394.4 927.69 400.8 928.47 406.99 928.05 412.95 926.78 418.9 924.39 424.62 920.97 430.1 916.87 435.58 911.94 440.81 906.31 445.8 900.3 450.78 893.84 455.52 887.07 460.01 880.25 464.5 873.33 468.76 866.42 472.79 859.73 476.83 853.18 480.67 846.84 484.29 840.86 487.96 835.13 491.46 829.67 494.78 822.2 499.84 808.88 509.55 802.82 514.33 797.22 519.34 786.16 529.67 780.46 535.06 774.73 540.87 762.21 553.05 755.32 559.38 750.63 563.8 745.67 568.2 740.41 572.51 735.15 576.95 729.6 581.24 723.77 585.33 717.93 589.43 711.82 593.24 705.46 596.69 699.09 600.02 692.62 602.82 686.09 605.06 679.57 607.07 672.99 608.47 666.4 609.26 659.84 609.75 653.27 609.6 646.74 608.83 640.26 607.74 633.83 606.04 627.49 603.76 621.22 601.18 615.07 598.06 609.09 594.43 603.2 590.56 597.51 586.23 592.05 581.49 586.72 576.58 581.66 571.31 576.91 565.74 572.32 560.06 568.06 554.12 564.17 547.98 560.45 541.78 557.12 535.42 554.19 528.93 551.42 522.42 549.05 515.82 547.08 509.16 545.23 502.51 543.75 495.81 542.63 489.09 541.55 482.4 540.77 475.69 540.27 469 539.69 462.32 539.33 455.66 539.13 449.02 538.76 442.4 538.49 435.81 538.29 429.25 537.81 422.71 537.36 416.19 536.92 409.73 536.15 403.27 535.38 396.85 534.62 390.48 533.56 384.12 532.58 377.96 531.7 372.01 530.2 363.18 528.24 346.58 528.03 338.82 528.32 331.27 531.35 317.27 534.18 310.83 537.83 304.59 547.81 293.19 554.04 288.01 558.54 284.58 563.4 281.34 568.59 278.31 573.93 275.2 579.55 272.27 585.4 269.51 591.37 266.65 597.52 263.95 603.83 261.39 610.2 258.7 616.7 256.14 623.28 253.7 629.89 251.1 636.58 248.61 643.31 246.23 650.05 243.67 656.82 241.22 663.61 238.86 670.4 236.34 677.21 233.92 684 231.62 690.79 229.17 697.58 226.85 704.33 224.69 711.09 222.41 717.82 220.31 724.48 218.44" stroke-dasharray="0 0" transform="rotate(59.02439024390244, 711, 400)" opacity="0.16"></path><path d="M720.43 227.04C726.73 225.16 732.79 223.57 738.6 222.29 747.16 220.53 762.84 218.8 769.91 218.9 776.59 219.5 793.47 225.33 801.72 232.77 806.9 238.7 811.2 245.98 814.94 254.39 819.57 263.21 824.43 273.01 829.95 283.57 837.29 294.38 845.83 305.8 855.57 317.61 861.09 323.56 866.82 329.59 872.66 335.67 878.72 341.77 884.73 347.91 890.56 354.06 896.3 360.22 901.62 366.39 906.38 372.54 910.7 378.7 914.23 384.83 916.83 390.9 919.1 399.92 917.04 416.92 912.93 424.87 909.24 430.1 904.76 435.11 899.61 439.89 894.09 444.67 888.09 449.23 881.76 453.57 868.9 462.29 855.72 470.2 842.92 477.32 831.25 484.68 820.41 491.47 810.41 497.79 801.66 504.63 793.37 511.28 785.25 517.84 777.81 525.21 769.99 532.7 761.59 540.24 757.46 544.35 753.12 548.46 748.56 552.55 744.01 556.82 739.22 561.04 734.18 565.17 729.14 569.4 723.86 573.48 718.32 577.35 712.78 581.24 707 584.84 700.99 588.1 694.97 591.24 688.88 593.9 682.73 596.03 676.6 597.96 670.43 599.33 664.25 600.13 658.1 600.67 651.97 600.61 645.88 599.98 639.84 599.07 633.86 597.59 627.99 595.57 616.47 590.73 605.52 583.89 595.46 575.42 585.9 566.24 577.45 555.77 570.37 544.39 563.88 532.72 558.82 520.42 555.28 507.79 552.08 495.14 550.12 482.28 549.27 469.42 548.73 463.02 548.38 456.61 548.17 450.24 547.79 443.87 547.49 437.53 547.26 431.22 546.76 424.92 546.28 418.66 545.81 412.44 545.04 406.23 544.27 400.07 543.51 393.96 541.98 384.9 539.15 367.8 538.05 359.76 537.12 351.91 536.92 337.27 537.83 330.47 539.79 321.5 543.57 313.37 549.08 306.1 555.45 298.69 563.45 292.04 572.8 286.16 582.79 279.98 593.84 274.4 605.6 269.43 617.68 263.95 630.25 258.9 643.04 254.31 649.47 251.78 655.95 249.34 662.43 247.01 668.93 244.52 675.44 242.14 681.92 239.88 688.42 237.48 694.89 235.22 701.32 233.11 707.75 230.89 714.13 228.86 720.43 227.04" stroke-dasharray="0 0" transform="rotate(61.97560975609756, 711, 400)" opacity="0.73"></path><path d="M715.91 235.64C727.78 231.95 738.68 229.46 748.49 228.21 758.23 227.12 766.81 227.46 774.16 229.2 781.44 231.33 787.57 234.93 792.63 239.87 797.92 245.26 802.54 251.92 806.81 259.67 812 267.79 817.5 276.87 823.65 286.69 831.43 296.75 840.24 307.42 850 318.49 861.11 329.69 872.54 341.18 883.5 352.77 894.02 364.41 902.51 376.08 907.94 387.6 910.82 399.12 909.66 409.91 904.82 419.89 897.7 429.87 887.9 439.07 876.33 447.45 864.25 455.9 851.65 463.65 839.18 470.71 827.57 478.01 816.56 484.83 806.26 491.24 797.06 498.15 788.3 504.9 779.8 511.54 771.96 518.91 763.91 526.35 755.45 533.79 747.22 541.96 738.29 550.06 728.59 557.82 718.9 565.92 708.36 573.3 697.01 579.5 685.67 585.31 674.12 589.17 662.59 590.99 651.15 591.89 639.88 590.61 629.03 587.28 618.44 583 608.47 576.85 599.4 569.13 590.77 560.76 583.21 551.12 576.96 540.56 571.2 529.69 566.75 518.16 563.68 506.25 560.83 494.28 559.08 482.07 558.32 469.81 557.16 457.59 556.52 445.36 556.22 433.26 554.91 421.21 553.62 409.26 552.4 397.57 550.1 385.88 548.24 374.95 547.02 364.84 545.52 354.7 545.23 345.34 546.31 336.81 547.87 328.21 551.11 320.38 555.96 313.36 561.58 306.18 568.77 299.7 577.26 293.92 586.38 287.84 596.56 282.33 607.49 277.37 618.77 271.93 630.57 266.92 642.64 262.34 654.85 257.18 667.2 252.41 679.48 248.12 691.82 243.32 704.03 239.09 715.91 235.64" stroke-dasharray="0 0" transform="rotate(64.92682926829269, 711, 400)" opacity="0.50"></path><path d="M711.14 244.23C722.3 240.68 732.51 238.25 741.7 236.99 750.84 235.86 758.92 236.07 765.92 237.58 772.9 239.43 778.92 242.65 784.09 247.12 789.55 251.98 794.54 258.05 799.34 265.16 805.05 272.59 811.11 280.96 817.78 290.05 825.87 299.36 834.83 309.29 844.51 319.62 855.26 330.07 866.12 340.84 876.39 351.73 886.17 362.67 894.02 373.67 899.05 384.56 901.81 395.45 900.9 405.69 896.63 415.22 890.3 424.74 881.41 433.58 870.77 441.7 859.51 449.9 847.57 457.49 835.56 464.49 824.15 471.72 813.14 478.55 802.7 485.03 793.18 491.96 784.07 498.75 775.26 505.43 767.07 512.75 758.79 520.1 750.28 527.38 742 535.3 733.21 543.07 723.82 550.46 714.47 558.13 704.43 565.07 693.74 570.9 683.05 576.38 672.26 580.05 661.57 581.84 650.97 582.83 640.59 581.8 630.7 578.89 621.03 575.14 612.01 569.64 603.89 562.65 596.14 555.05 589.43 546.22 583.93 536.48 578.83 526.42 574.92 515.68 572.25 504.51 569.7 493.26 568.12 481.72 567.41 470.11 566.26 458.5 565.56 446.85 565.18 435.31 563.82 423.81 562.51 412.4 561.29 401.23 559.06 390.06 557.24 379.62 556.02 369.96 554.5 360.26 554.08 351.31 554.9 343.13 556.1 334.87 558.84 327.33 563.08 320.53 567.98 313.56 574.37 307.24 582.01 301.56 590.24 295.59 599.53 290.13 609.58 285.2 620 279.82 630.98 274.84 642.26 270.29 653.7 265.23 665.31 260.54 676.87 256.34 688.49 251.68 699.99 247.58 711.14 244.23" stroke-dasharray="0 0" transform="rotate(67.87804878048782, 711, 400)" opacity="0.09"></path><path d="M706.37 252.83C716.82 249.41 726.4 247.06 735.04 245.8 743.65 244.64 751.33 244.73 758.07 246.03 764.86 247.62 770.86 250.48 776.19 254.51 781.87 258.88 787.25 264.38 792.55 270.86 798.7 277.64 805.23 285.31 812.31 293.69 820.6 302.26 829.58 311.45 839.07 321.05 849.39 330.76 859.66 340.81 869.23 351.01 878.28 361.24 885.51 371.58 890.16 381.85 892.8 392.13 892.12 401.84 888.38 410.91 882.78 420 874.78 428.48 865.06 436.35 854.66 444.3 843.46 451.73 832 458.66 820.93 465.81 810.08 472.62 799.65 479.12 789.96 486.04 780.63 492.83 771.6 499.5 763.13 506.72 754.68 513.93 746.11 521.02 737.79 528.65 729.11 536.08 720.02 543.09 710.97 550.33 701.39 556.85 691.32 562.31 681.26 567.46 671.2 570.93 661.34 572.68 651.55 573.73 642.06 572.94 633.08 570.42 624.31 567.15 616.2 562.25 608.97 555.95 602.04 549.1 596.1 541.06 591.29 532.12 586.76 522.88 583.32 512.93 580.98 502.53 578.67 492.02 577.22 481.19 576.52 470.23 575.36 459.27 574.6 448.24 574.12 437.29 572.74 426.35 571.4 415.5 570.18 404.86 568.01 394.22 566.26 384.27 565.06 375.05 563.53 365.79 563.01 357.22 563.61 349.37 564.49 341.44 566.78 334.17 570.44 327.58 574.67 320.82 580.29 314.65 587.09 309.07 594.45 303.2 602.83 297.82 612 292.91 621.52 287.61 631.62 282.69 642.06 278.18 652.68 273.22 663.5 268.63 674.3 264.53 685.16 260.02 695.92 256.06 706.37 252.83" stroke-dasharray="0 0" transform="rotate(70.82926829268293, 711, 400)" opacity="0.51"></path><path d="M701.83 261.43C711.59 258.14 720.57 255.87 728.74 254.63 736.89 253.45 744.24 253.44 750.81 254.55 757.47 255.9 763.52 258.42 769.05 262.03 774.97 265.94 780.7 270.9 786.44 276.79 792.96 282.94 799.85 289.93 807.19 297.61 815.56 305.47 824.45 313.93 833.66 322.81 843.5 331.79 853.14 341.12 862.01 350.64 870.36 360.19 877 369.87 881.27 379.53 883.78 389.2 883.3 398.39 880.06 407.03 875.15 415.69 868 423.83 859.19 431.45 849.67 439.15 839.25 446.41 828.44 453.24 817.84 460.29 807.29 467.04 797.02 473.53 787.32 480.39 777.9 487.13 768.78 493.73 760.14 500.81 751.57 507.84 743 514.7 734.66 522.01 726.09 529.08 717.27 535.71 708.51 542.51 699.36 548.61 689.89 553.71 680.41 558.54 671.07 561.81 662 563.51 652.98 564.61 644.33 564.03 636.24 561.85 628.3 559.03 621.04 554.7 614.63 549.06 608.46 542.92 603.21 535.65 598.99 527.49 594.97 519.04 591.92 509.89 589.85 500.25 587.73 490.51 586.36 480.4 585.65 470.14 584.46 459.85 583.62 449.46 583.05 439.11 581.63 428.77 580.29 418.49 579.07 408.39 576.98 398.29 575.29 388.82 574.12 380.03 572.61 371.2 572.01 363.01 572.42 355.48 573.04 347.87 574.92 340.86 578.05 334.46 581.66 327.91 586.54 321.89 592.56 316.41 599.05 310.66 606.54 305.36 614.81 300.51 623.41 295.29 632.62 290.44 642.2 286 651.96 281.15 661.95 276.68 671.97 272.69 682.05 268.34 692.07 264.53 701.83 261.43" stroke-dasharray="0 0" transform="rotate(73.78048780487805, 711, 400)" opacity="0.78"></path><path d="M697.74 270.02C706.83 266.89 715.27 264.7 723.01 263.48 730.75 262.3 737.84 262.2 744.3 263.14 750.88 264.27 756.99 266.48 762.74 269.7 768.86 273.17 774.9 277.63 781 282.95 787.79 288.49 794.91 294.84 802.41 301.85 810.73 309.02 819.42 316.77 828.28 324.94 837.57 333.21 846.56 341.84 854.74 350.68 862.39 359.54 868.46 368.58 872.38 377.65 874.76 386.73 874.46 395.4 871.67 403.62 867.4 411.84 861.06 419.65 853.14 427.01 844.51 434.45 834.92 441.53 824.83 448.24 814.81 455.15 804.68 461.82 794.71 468.25 785.15 475 775.8 481.63 766.71 488.12 758.01 495.01 749.42 501.81 740.9 508.42 732.59 515.38 724.17 522.08 715.62 528.31 707.14 534.68 698.41 540.37 689.51 545.11 680.6 549.62 671.92 552.7 663.6 554.34 655.32 555.47 647.46 555.06 640.18 553.2 633.03 550.79 626.54 546.98 620.87 541.96 615.37 536.49 610.72 529.96 607.02 522.56 603.42 514.89 600.7 506.53 598.83 497.67 596.85 488.68 595.52 479.32 594.77 469.76 593.54 460.17 592.63 450.43 591.97 440.71 590.52 430.99 589.17 421.29 587.95 411.74 585.95 402.18 584.34 393.2 583.2 384.84 581.73 376.44 581.09 368.62 581.35 361.4 581.73 354.11 583.26 347.35 585.91 341.16 588.95 334.81 593.16 328.94 598.42 323.57 604.09 317.96 610.72 312.75 618.11 307.97 625.81 302.86 634.11 298.1 642.82 293.75 651.7 289.03 660.85 284.69 670.08 280.83 679.37 276.65 688.65 273 697.74 270.02" stroke-dasharray="0 0" transform="rotate(76.73170731707317, 711, 400)" opacity="0.96"></path><path d="M694.32 278.62C702.77 275.64 710.69 273.55 718.05 272.35 725.42 271.18 732.28 271.01 738.66 271.79 745.17 272.72 751.35 274.66 757.28 277.52 763.56 280.58 769.84 284.56 776.19 289.34 783.15 294.32 790.38 300.05 797.89 306.41 806.06 312.91 814.46 319.98 822.88 327.47 831.59 335.04 839.92 342.98 847.41 351.16 854.4 359.36 859.92 367.76 863.5 376.25 865.74 384.74 865.59 392.91 863.21 400.69 859.54 408.5 853.98 415.96 846.91 423.05 839.16 430.21 830.43 437.08 821.12 443.65 811.75 450.39 802.17 456.92 792.63 463.24 783.36 469.85 774.21 476.33 765.28 482.65 756.65 489.31 748.14 495.85 739.75 502.16 731.54 508.76 723.31 515.07 715.06 520.9 706.86 526.84 698.56 532.12 690.19 536.52 681.83 540.7 673.79 543.59 666.16 545.16 658.57 546.3 651.44 546.04 644.91 544.47 638.46 542.43 632.67 539.11 627.65 534.67 622.73 529.83 618.61 523.99 615.33 517.33 612.09 510.42 609.62 502.82 607.9 494.73 606.01 486.51 604.69 477.89 603.88 469.04 602.61 460.16 601.62 451.11 600.86 442.02 599.4 432.93 598.04 423.83 596.84 414.84 594.93 405.84 593.4 397.35 592.31 389.42 590.9 381.45 590.23 374.01 590.37 367.1 590.57 360.11 591.79 353.62 594.02 347.63 596.55 341.49 600.15 335.79 604.71 330.55 609.62 325.08 615.43 319.99 621.97 315.29 628.78 310.31 636.2 305.67 644.05 301.42 652.05 296.86 660.36 292.67 668.81 288.95 677.31 284.95 685.86 281.46 694.32 278.62" stroke-dasharray="0 0" transform="rotate(79.6829268292683, 711, 400)" opacity="0.33"></path><path d="M691.72 287.22C699.56 284.39 707 282.4 714 281.24 721.03 280.09 727.68 279.86 733.98 280.5 740.41 281.26 746.63 282.94 752.69 285.46 759.07 288.15 765.49 291.69 771.99 295.97 778.99 300.41 786.21 305.55 793.61 311.3 801.51 317.16 809.54 323.57 817.46 330.41 825.55 337.3 833.2 344.58 840.02 352.11 846.36 359.67 851.36 367.45 854.61 375.36 856.71 383.27 856.69 390.94 854.69 398.29 851.58 405.67 846.73 412.78 840.49 419.58 833.6 426.45 825.74 433.08 817.25 439.46 808.62 445.99 799.67 452.35 790.66 458.52 781.82 464.92 773.02 471.2 764.37 477.31 755.94 483.7 747.63 489.93 739.45 495.92 731.43 502.14 723.44 508.04 715.52 513.48 707.65 518.98 699.76 523.87 691.92 527.92 684.07 531.79 676.63 534.48 669.65 535.97 662.69 537.11 656.23 536.99 650.36 535.67 644.54 533.96 639.36 531.08 634.9 527.18 630.49 522.93 626.8 517.75 623.87 511.8 620.91 505.62 618.63 498.77 617.01 491.42 615.18 483.96 613.85 476.09 612.97 467.96 611.64 459.79 610.57 451.42 609.73 442.98 608.26 434.54 606.91 426.05 605.73 417.61 603.92 409.18 602.47 401.19 601.45 393.69 600.11 386.17 599.43 379.1 599.48 372.5 599.54 365.84 600.51 359.61 602.37 353.83 604.46 347.93 607.5 342.41 611.43 337.31 615.63 332.01 620.67 327.05 626.42 322.47 632.39 317.65 638.96 313.14 645.98 309.02 653.13 304.63 660.62 300.61 668.31 297.03 676.03 293.23 683.88 289.92 691.72 287.22" stroke-dasharray="0 0" transform="rotate(82.63414634146342, 711, 400)" opacity="0.67"></path><path d="M690.09 295.81C697.34 293.15 704.31 291.27 710.97 290.15 717.66 289.04 724.1 288.76 730.3 289.28 736.62 289.89 742.83 291.33 748.94 293.55 755.33 295.9 761.79 299.02 768.31 302.83 775.24 306.77 782.33 311.37 789.51 316.53 797.06 321.79 804.62 327.57 812 333.77 819.45 340.02 826.42 346.65 832.58 353.56 838.29 360.49 842.79 367.66 845.72 375 847.68 382.35 847.77 389.51 846.11 396.43 843.5 403.37 839.32 410.1 833.88 416.59 827.82 423.15 820.82 429.51 813.17 435.67 805.32 441.95 797.1 448.09 788.72 454.05 780.41 460.2 772.07 466.24 763.83 472.08 755.74 478.16 747.73 484.06 739.86 489.7 732.11 495.51 724.44 501.01 716.88 506.04 709.37 511.11 701.92 515.6 694.59 519.32 687.26 522.89 680.38 525.38 674 526.79 664.68 527.89 648.88 524.14 642.56 519.5 638.58 515.81 635.25 511.24 632.58 505.96 629.85 500.47 627.7 494.34 626.13 487.73 624.34 481 622.98 473.87 622.02 466.45 620.63 459 619.49 451.32 618.58 443.53 617.1 435.75 615.76 427.87 614.62 420.02 612.91 412.16 611.55 404.68 610.6 397.62 609.35 390.54 608.69 383.86 608.68 377.59 608.64 371.27 609.4 365.32 610.95 359.77 612.66 354.11 615.22 348.79 618.58 343.85 622.15 338.74 626.49 333.95 631.5 329.51 636.68 324.86 642.46 320.52 648.69 316.55 655.02 312.35 661.73 308.5 668.68 305.1 675.67 301.5 682.84 298.36 690.09 295.81" stroke-dasharray="0 0" transform="rotate(85.58536585365853, 711, 400)" opacity="0.28"></path><path d="M689.5 304.41C696.18 301.92 702.7 300.15 709.02 299.08 715.37 298.01 721.57 297.69 727.63 298.11 733.8 298.59 739.92 299.83 745.99 301.76 752.3 303.8 758.68 306.54 765.1 309.92 771.84 313.39 778.68 317.48 785.53 322.09 792.64 326.78 799.68 331.96 806.47 337.56 813.26 343.19 819.55 349.2 825.08 355.5 830.19 361.81 834.2 368.39 836.83 375.17 838.65 381.95 838.83 388.61 837.48 395.09 835.31 401.59 831.76 407.93 827.06 414.09 821.8 420.29 815.65 426.36 808.84 432.25 801.81 438.24 794.36 444.11 786.69 449.82 779.02 455.68 771.25 461.41 763.51 466.96 755.87 472.68 748.28 478.22 740.82 483.48 733.44 488.88 726.15 493.96 719.01 498.58 711.91 503.23 704.91 507.34 698.08 510.73 691.26 513.99 684.91 516.28 679.07 517.6 670.56 518.71 656.24 515.65 650.53 511.65 645.38 506.47 637.8 492.27 635.23 483.65 633.45 477.64 632.05 471.22 631.01 464.51 629.58 457.76 628.38 450.77 627.4 443.64 625.93 436.51 624.62 429.26 623.51 421.99 621.9 414.71 620.65 407.75 619.77 401.15 618.61 394.53 618 388.24 617.95 382.31 618.14 373.51 622.2 357.45 626.14 350.16 629.15 345.27 632.87 340.66 637.21 336.39 641.68 331.94 646.71 327.79 652.21 323.99 657.78 320 663.75 316.36 670.01 313.13 676.29 309.75 682.81 306.81 689.5 304.41" stroke-dasharray="0 0" transform="rotate(88.53658536585365, 711, 400)" opacity="0.89"></path><path d="M689.98 313.01C696.11 310.69 702.17 309.04 708.14 308.03 714.13 307.01 720.06 306.68 725.91 307 731.86 307.37 737.82 308.42 743.76 310.11 749.88 311.87 756.07 314.26 762.28 317.23 768.71 320.27 775.19 323.88 781.63 327.98 788.22 332.13 794.69 336.75 800.86 341.77 806.98 346.81 812.61 352.23 817.51 357.94 822.04 363.66 825.6 369.66 827.94 375.88 829.62 382.1 829.87 388.25 828.78 394.27 827.03 400.31 824.05 406.25 820.03 412.03 815.54 417.87 810.2 423.59 804.23 429.17 798.03 434.83 791.38 440.39 784.47 445.79 777.51 451.31 770.4 456.71 763.26 461.92 756.18 467.26 749.1 472.41 742.13 477.27 735.21 482.24 728.38 486.89 721.7 491.11 715.06 495.34 708.54 499.06 702.22 502.13 692.98 506.14 676.94 509.51 670.18 508.86 663.92 507.04 653.97 499.17 650.24 493.38 646.82 486.77 641.77 470.98 639.93 462.1 638.46 456.05 637.22 449.74 636.19 443.27 634.74 436.79 633.46 430.17 632.4 423.49 630.91 416.81 629.75 410.37 628.96 404.24 627.63 395.15 627.39 378.38 628.72 370.69 630.75 363.18 638.21 349.39 643.53 343.13 647.37 338.91 651.73 334.97 656.55 331.36 661.43 327.6 666.71 324.17 672.32 321.15 677.94 317.98 683.84 315.24 689.98 313.01" stroke-dasharray="0 0" transform="rotate(91.48780487804878, 711, 400)" opacity="0.85"></path><path d="M691.5 321.6C702.69 317.29 713.99 315.46 725.08 315.95 736.49 316.55 748.15 319.59 759.74 324.75 771.94 330.11 784.08 337.47 795.15 346.39 805.92 355.38 814.41 365.76 819.06 377.1 821.52 388.43 819.12 399.67 812.8 410.41 804.85 421.31 794.12 431.95 781.97 441.95 769.53 452.33 756.43 462.23 743.59 471.06 730.88 480.17 718.41 487.96 706.79 493.53 695.17 498.76 685.36 500.78 677.49 499.82 669.51 498.16 663.34 493.57 659.04 486.65 654.26 479.25 650.86 469.87 648.77 459.22 645.48 448.43 642.92 436.65 641.29 424.48 638.21 412.32 636.63 400.9 636.67 390.58 636.32 380.11 638.25 370.51 642.38 362.05 646.71 353.22 653.3 345.29 661.69 338.65 670.22 331.53 680.31 325.65 691.5 321.6" stroke-dasharray="0 0" transform="rotate(94.4390243902439, 711, 400)" opacity="0.15"></path><path d="M694 330.2C704.13 326.27 714.59 324.57 725.02 324.94 735.67 325.38 746.61 327.98 757.4 332.46 768.58 337.09 779.53 343.52 789.33 351.4 798.77 359.33 806.14 368.58 810.17 378.81 812.45 389.03 810.6 399.29 805.36 409.19 798.78 419.2 789.65 429.03 779.12 438.27 768.23 447.79 756.57 456.84 745.01 464.84 733.49 473.03 722.15 479.99 711.57 484.94 701 489.61 692.07 491.46 684.89 490.71 677.59 489.43 671.86 485.58 667.73 479.65 663.14 473.34 659.75 465.21 657.52 455.85 654.28 446.38 651.75 435.91 650.17 424.96 647.39 414 646.01 403.59 646.1 394.07 645.77 384.45 647.42 375.54 650.97 367.63 654.61 359.43 660.24 352.05 667.55 345.87 674.94 339.31 683.86 333.91 694 330.2" stroke-dasharray="0 0" transform="rotate(97.39024390243902, 711, 400)" opacity="0.12"></path><path d="M697.34 338.8C706.43 335.26 715.96 333.71 725.57 333.99 735.33 334.29 745.35 336.49 755.17 340.36 765.18 344.31 774.86 349.88 783.39 356.77 791.53 363.69 797.84 371.85 801.28 380.97 803.37 390.09 801.98 399.34 797.73 408.32 792.39 417.39 784.79 426.33 775.84 434.73 766.53 443.33 756.38 451.46 746.18 458.6 735.97 465.86 725.83 472 716.33 476.34 706.82 480.46 698.75 482.14 692.21 481.57 685.53 480.61 680.19 477.42 676.23 472.39 671.84 467.08 668.47 460.13 666.16 452.02 663.01 443.82 660.57 434.63 659.06 424.89 656.58 415.15 655.41 405.79 655.54 397.13 655.28 388.4 656.72 380.24 659.8 372.96 662.87 365.45 667.69 358.68 674.04 353.01 680.42 347.05 688.26 342.16 697.34 338.8" stroke-dasharray="0 0" transform="rotate(100.34146341463415, 711, 400)" opacity="0.18"></path><path d="M701.37 347.39C709.39 344.26 717.92 342.87 726.56 343.07 735.3 343.28 744.25 345.13 752.93 348.42 761.69 351.76 770.05 356.52 777.3 362.47 784.2 368.43 789.5 375.53 792.39 383.55 794.26 391.56 793.27 399.75 789.89 407.76 785.68 415.83 779.5 423.8 772.07 431.29 764.31 438.9 755.71 446.08 746.91 452.35 738.09 458.68 729.22 464 720.81 467.74 712.4 471.33 705.19 472.82 699.26 472.4 690.73 470.39 678.66 457.57 674.68 447.73 671.67 440.74 669.36 432.81 667.95 424.3 665.78 415.78 664.8 407.49 665 399.75 664.83 391.96 666.12 384.63 668.81 378.04 671.42 371.29 675.54 365.19 681.03 360.08 686.51 354.76 693.34 350.39 701.37 347.39" stroke-dasharray="0 0" transform="rotate(103.29268292682927, 711, 400)" opacity="0.76"></path><path d="M705.87 355.99C712.83 353.27 720.27 352.06 727.81 352.2 735.41 352.33 743.16 353.86 750.6 356.63 758.05 359.41 765.07 363.42 771.07 368.46 776.77 373.51 781.12 379.57 783.5 386.47 785.14 393.37 784.47 400.47 781.86 407.45 778.64 414.46 773.76 421.4 767.77 427.92 761.5 434.51 754.41 440.69 747.05 446.06 739.64 451.47 732.08 455.98 724.81 459.15 714.37 462.84 698.21 461.64 692.37 457.17 688.5 453.6 685.37 448.77 683.07 442.99 680.27 437.16 678.12 430.46 676.84 423.18 674.98 415.89 674.2 408.72 674.45 401.95 674.4 395.16 675.57 388.71 677.92 382.88 680.16 376.95 683.69 371.58 688.38 367.07 693.05 362.42 698.92 358.6 705.87 355.99" stroke-dasharray="0 0" transform="rotate(106.2439024390244, 711, 400)" opacity="0.24"></path><path d="M710.63 364.59C722.36 359.96 735.8 360.42 748.09 364.95 760.24 369.5 770.36 378.13 774.61 389.69 776.87 401.24 772.01 413.67 762.91 424.59 752.96 435.69 740.34 445.29 728.12 450.55 715.9 455.48 706.25 454.62 699.88 449.25 692.68 443.5 687.57 433.68 685.73 421.56 682.26 409.44 682.85 397.4 687.04 387.49 690.83 377.32 698.9 368.92 710.63 364.59" stroke-dasharray="0 0" transform="rotate(109.19512195121952, 711, 400)" opacity="0.12"></path><path d="M715.41 373.18C724.89 369.45 735.65 369.79 745.31 373.39 754.78 376.97 762.52 383.83 765.73 393.12 767.67 402.41 764.23 412.46 757.46 421.28 750.12 430.17 740.4 437.82 730.58 441.95 720.75 445.89 712.61 445.29 706.95 441.16 700.75 436.79 696.27 429.14 694.62 419.48 691.9 409.82 692.57 400.03 696.11 391.88 699.32 383.59 705.92 376.73 715.41 373.18" stroke-dasharray="0 0" transform="rotate(112.14634146341464, 711, 400)" opacity="0.08"></path><path d="M719.97 381.78C727.16 378.95 735.16 379.19 742.18 381.89 749.06 384.55 754.59 389.7 756.84 396.71 758.39 403.71 756.15 411.3 751.45 417.95 746.42 424.61 739.45 430.3 732.06 433.36 721.44 436.1 706.71 427.01 703.51 416.99 701.51 409.76 702.19 402.32 705.03 396.07 707.65 389.75 712.77 384.5 719.97 381.78" stroke-dasharray="0 0" transform="rotate(115.09756097560975, 711, 400)" opacity="0.49"></path><path d="M724.08 390.37C733.75 386.54 744.87 390.97 747.95 400.36 749.82 409.75 742.35 420.73 732.49 424.76 722.62 428.6 714.12 423.71 712.39 414.13 709.55 404.54 714.39 394.02 724.08 390.37" stroke-dasharray="0 0" transform="rotate(118.04878048780488, 711, 400)" opacity="0.37"></path></g></svg>