<svg xmlns="http://www.w3.org/2000/svg" version="1.1" xmlns:xlink="http://www.w3.org/1999/xlink" xmlns:svgjs="http://svgjs.dev/svgjs" viewBox="0 0 1422 800" opacity="1"><defs><linearGradient x1="50%" y1="0%" x2="50%" y2="100%" id="ccchaos-grad"><stop stop-color="hsl(206, 75%, 49%)" stop-opacity="1" offset="0%"></stop><stop stop-color="hsl(331, 90%, 56%)" stop-opacity="1" offset="100%"></stop></linearGradient></defs><g stroke-width="2" stroke="url(#ccchaos-grad)" fill="none" stroke-linecap="round"><path d="M689.58 44.06C695.42 45.63 701.23 47.3 706.98 49.04 712.74 50.68 718.46 52.34 724.13 54.01 732.65 56.26 749.6 60.3 758.08 62.04 763.79 62.99 769.52 63.9 775.3 64.77 781.15 65.46 787.07 66.14 793.08 66.82 805.4 67.8 818.23 69 831.7 70.56 845.74 72.07 860.5 74.26 875.95 77.24 891.78 80.59 907.98 84.94 924.21 90.3 939.96 96.24 954.89 103.22 968.35 111.15 980.01 119.64 989.22 128.97 995.46 139.02 999.16 149.43 999.81 160.39 997.7 171.76 994.35 183.27 989.89 195.05 985.51 207 983.25 218.91 983.53 230.92 987.41 242.98 995.82 254.9 1008.29 266.85 1024.17 278.83 1042.32 290.66 1060.74 302.54 1077.27 314.49 1084.28 320.42 1090.08 326.37 1094.46 332.35 1097.38 338.32 1098.65 344.31 1098.21 350.34 1096.26 356.35 1092.74 362.41 1087.78 368.51 1081.83 374.59 1074.94 380.73 1067.43 386.91 1059.86 393.09 1052.36 399.33 1045.31 405.61 1039.22 411.89 1034.21 418.23 1030.54 424.62 1028.54 431.01 1028.18 437.37 1029.41 443.71 1032.31 450.05 1036.56 456.36 1041.92 462.63 1048.3 468.9 1055.2 475.13 1062.28 481.31 1069.41 487.47 1076.04 493.59 1081.88 499.63 1086.85 505.66 1090.52 511.6 1092.73 517.46 1093.55 523.29 1092.74 529.02 1090.32 534.63 1081.33 545.72 1067.29 556.26 1049.99 566.12 1031.49 575.68 1013.51 584.45 997.65 592.33 985.21 599.81 976.54 606.33 971.54 611.86 974.49 624.37 977.72 638.11 970.02 643.29 961.94 648.08 951.55 653.75 939.32 660.53 925.78 668.9 911.19 678.52 896.05 689.33 880.55 701.44 865.07 714.3 849.86 727.5 834.83 740.86 820.28 753.57 806.24 765.01 799.33 770.22 792.53 774.9 785.86 779 779.25 782.57 772.74 785.45 766.32 787.58 759.96 789.09 753.67 789.81 747.46 789.72 741.28 789 735.15 787.5 729.09 785.24 723.03 782.45 717.02 778.99 711.05 774.93 705.09 770.54 699.15 765.71 693.25 760.52 687.35 755.27 681.55 749.93 675.84 744.6 670.14 739.49 664.53 734.56 659.03 729.91 653.53 725.71 648.12 721.9 642.83 718.53 634.95 714.62 619.75 710.24 612.45 709.72 607.62 710.1 602.91 710.86 598.32 711.96 589.12 715.4 580.35 719.44 571.99 723.52 563.46 727.83 555.2 731.14 547.12 733.06 538.65 733.94 530.17 732.84 521.59 729.7 512.42 725.02 503.04 718.31 493.41 709.77 483.26 699.95 472.98 688.68 462.71 676.31 452.32 663.25 442.3 649.54 432.86 635.48 423.88 621.3 415.82 607.1 408.84 593.04 402.56 579.21 397.36 565.65 393.16 552.42 389.3 539.54 386.06 526.95 383.26 514.65 380.14 502.64 377.08 490.82 374.01 479.13 372.24 473.35 370.47 467.59 368.7 461.84 366.81 456.12 364.96 450.39 363.17 444.66 361.32 438.95 359.57 433.22 357.97 427.47 356.39 421.73 355 415.96 353.83 410.16 352.75 404.37 351.92 398.54 351.37 392.68 350.95 386.82 350.82 380.93 350.98 375 351.27 369.07 351.84 363.17 352.66 357.32 353.55 351.47 354.66 345.66 355.94 339.9 357.94 331.29 362.36 314.37 364.65 306.08 366.75 297.89 370.76 281.95 372.66 274.23 374.85 264.07 377.29 254.35 380.14 245.11 383.1 235.99 386.9 227.38 391.68 219.3 397.1 211.31 403.65 203.83 411.25 196.86 419.41 189.85 428.36 183.26 437.84 177.04 447.32 170.61 456.94 164.39 466.52 158.32 475.56 151.82 484.37 145.32 492.92 138.76 500.81 131.62 508.54 124.34 516.23 116.93 523.48 108.97 530.91 100.96 538.62 92.97 546.22 84.72 554.29 76.74 562.86 69.21 571.52 61.87 580.74 55.29 590.48 49.67 597.92 45.95 613.43 40.27 621.46 38.39 629.62 37.13 646.34 36.53 654.86 37.14 660.57 37.78 666.32 38.69 672.11 39.84 677.9 41.06 683.72 42.47 689.57 44.06" stroke-dasharray="0 0" transform="rotate(0, 711, 400)" opacity="0.74"></path><path d="M689.95 52.59C695.66 54.16 701.36 55.84 707.05 57.58 712.75 59.22 718.44 60.89 724.13 62.57 729.83 64.09 735.54 65.59 741.26 67.05 747.01 68.33 752.8 69.55 758.62 70.73 770.4 72.5 782.47 74.12 794.92 75.66 807.73 76.66 821.07 77.84 835 79.33 849.35 80.72 864.27 82.73 879.64 85.46 895.11 88.51 910.63 92.5 925.8 97.44 940.2 102.92 953.43 109.41 964.93 116.84 974.54 124.83 981.64 133.66 985.91 143.23 987.97 153.19 987.41 163.74 984.64 174.75 981.26 185.94 977.38 197.45 974.17 209.18 973.42 220.93 975.45 232.81 981.05 244.75 990.87 256.62 1004.3 268.53 1020.54 280.47 1038.42 292.29 1056.02 304.16 1071.34 316.07 1082.89 327.89 1088.97 339.79 1088.7 351.78 1086.44 357.75 1082.72 363.76 1077.71 369.79 1071.8 375.82 1065.06 381.88 1057.79 387.98 1050.49 394.07 1043.31 400.2 1036.57 406.37 1030.76 412.54 1025.98 418.74 1022.45 424.98 1020.5 431.22 1020.08 437.42 1021.17 443.58 1023.84 449.74 1027.79 455.85 1032.81 461.91 1038.83 467.97 1045.38 473.96 1052.15 479.9 1059.04 485.82 1065.53 491.67 1071.34 497.43 1080.5 508.91 1084.35 519.99 1082.24 530.6 1074.76 541.03 1062.22 550.87 1046.15 560.02 1028.44 568.9 1010.62 576.99 994.29 584.21 980.75 591.11 970.56 597.12 963.82 602.22 962.78 614.34 966.81 629.33 961.57 635.45 955.47 640.89 947.07 647.23 936.73 654.64 924.99 663.52 911.95 673.53 898.07 684.58 883.6 696.75 868.86 709.49 854.15 722.4 839.42 735.32 824.99 747.47 810.96 758.28 797.11 767.64 783.69 774.72 770.69 779.09 764.25 780.38 757.9 780.93 751.64 780.71 745.4 779.89 739.24 778.34 733.16 776.08 727.09 773.31 721.09 769.92 715.15 765.97 709.22 761.7 703.34 757.01 697.52 751.99 691.69 746.91 685.99 741.73 680.41 736.56 674.82 731.59 669.35 726.78 664 722.22 658.64 718.08 653.4 714.29 648.28 710.91 643.15 708.08 638.13 705.71 633.24 703.81 623.42 701.8 614.06 701.55 605.14 702.77 596.13 705.71 587.49 709.31 579.17 713.06 570.61 717.16 562.23 720.46 553.94 722.56 545.21 723.81 536.4 723.28 527.43 720.86 517.91 717.04 508.17 711.28 498.23 703.74 487.86 694.94 477.46 684.67 467.18 673.22 456.92 661.02 447.12 648.06 438.01 634.62 429.44 620.95 421.85 607.13 415.35 593.34 409.54 579.67 404.77 566.19 400.95 552.96 397.4 540.01 394.39 527.32 391.75 514.9 388.71 502.74 385.68 490.79 382.59 479 378.86 467.38 375.12 455.84 371.52 444.36 369.62 438.64 367.83 432.93 366.18 427.21 364.57 421.5 363.14 415.79 361.93 410.06 360.41 401.46 358.95 384.18 359.07 375.5 359.7 366.84 362.38 349.77 364.3 341.38 366.39 333.06 370.96 316.77 373.3 308.82 376.02 298.3 378.7 288.12 381.33 278.36 383.43 268.66 385.71 259.39 388.34 250.61 391.02 241.91 394.49 233.69 398.89 225.97 403.9 218.29 410.04 211.08 417.25 204.32 425.09 197.47 433.78 190.98 443.11 184.8 452.55 178.36 462.24 172.08 471.97 165.9 481.28 159.28 490.39 152.62 499.26 145.88 507.5 138.58 515.53 131.16 523.44 123.61 530.84 115.58 538.32 107.51 545.97 99.53 553.4 91.33 561.18 83.46 569.38 76.07 577.58 68.9 586.27 62.53 595.46 57.12 604.72 52.34 614.46 48.75 624.63 46.44 632.34 45.3 648.23 44.89 656.38 45.56 664.61 46.7 681.39 50.28 689.94 52.59" stroke-dasharray="0 0" transform="rotate(2.951219512195122, 711, 400)" opacity="0.92"></path><path d="M692.11 61.12C703.32 64.23 714.62 67.62 726.01 71.12 737.47 74.03 749.11 76.81 760.98 79.4 773.03 81.23 785.43 82.91 798.25 84.5 811.36 85.53 824.97 86.71 839.07 88.15 853.41 89.44 868.14 91.29 883.06 93.8 897.82 96.57 912.31 100.2 926.12 104.75 938.94 109.79 950.35 115.8 959.83 122.73 967.46 130.19 972.64 138.51 975.21 147.58 975.96 157.06 974.56 167.16 971.53 177.75 968.46 188.58 965.46 199.76 963.59 211.21 964.44 222.73 968.18 234.41 975.37 246.2 986.41 257.95 1000.58 269.76 1016.98 281.6 1034.42 293.37 1051.09 305.18 1065.15 317.01 1075.36 328.77 1080.22 340.59 1079.08 352.46 1072.86 364.29 1061.97 376.21 1048.16 388.21 1034.48 400.2 1022.49 412.29 1014.36 424.45 1012.14 436.62 1015.55 448.57 1023.74 460.26 1035.8 471.93 1048.9 483.3 1060.78 494.31 1070.18 505.24 1074.78 515.73 1073.85 525.7 1067.83 535.5 1056.8 544.7 1042.06 553.2 1025.28 561.46 1007.84 568.96 991.29 575.64 976.93 582.06 965.42 587.66 957.07 592.46 951.11 599.12 952.27 609.88 954.51 614.88 955.4 618.87 954.56 623.21 951.71 628.11 947.34 634.18 940.79 641.14 932.3 649.1 922.41 658.42 911.05 668.75 898.62 679.97 885.45 692.13 871.74 704.69 857.8 717.26 843.69 729.69 829.66 741.27 815.89 751.45 802.2 760.17 788.84 766.67 775.87 770.54 763.01 772.16 750.5 770.93 738.35 766.91 726.25 761.03 714.44 753.04 702.93 743.46 691.42 733.65 680.43 723.79 669.95 714.53 659.44 706.8 649.41 700.54 639.85 695.96 630.22 693.63 621.01 692.95 612.21 693.69 603.25 696.13 594.59 699.28 586.18 702.67 577.46 706.54 568.85 709.77 560.24 711.98 551.18 713.52 542 713.46 532.64 711.68 522.77 708.65 512.72 703.78 502.54 697.19 492.05 689.39 481.62 680.12 471.42 669.62 461.37 658.31 451.9 646.17 443.2 633.43 435.1 620.37 428.02 607.03 422.03 593.62 416.7 580.23 412.36 566.93 408.9 553.81 405.62 540.89 402.82 528.2 400.29 515.75 397.31 503.52 394.28 491.49 391.14 479.65 387.35 467.96 383.52 456.39 379.82 444.92 375.92 433.54 372.57 422.18 370.02 410.84 367.91 399.53 366.93 388.21 367.16 376.88 368.01 365.55 369.91 354.48 372.63 343.69 375.42 332.9 378.59 322.42 381.92 312.28 384.71 302.16 387.42 292.42 390.03 283.09 392.07 273.8 394.22 264.95 396.66 256.56 399.07 248.21 402.21 240.33 406.23 232.91 410.82 225.48 416.52 218.47 423.31 211.86 430.76 205.12 439.12 198.67 448.21 192.48 457.54 185.99 467.21 179.62 477.03 173.3 486.55 166.54 495.94 159.71 505.13 152.79 513.73 145.35 522.11 137.79 530.32 130.13 537.99 122.04 545.63 113.95 553.36 105.99 560.77 97.88 568.43 90.12 576.43 82.89 584.32 75.92 592.64 69.77 601.42 64.58 610.19 60.03 619.44 56.64 629.14 54.52 638.85 53.13 648.99 52.97 659.5 54 670.02 55.51 680.89 57.93 692.1 61.12" stroke-dasharray="0 0" transform="rotate(5.902439024390244, 711, 400)" opacity="0.52"></path><path d="M695.88 69.65C706.91 72.76 718.14 76.16 729.56 79.66 741.03 82.59 752.78 85.41 764.83 88.05 777.03 89.95 789.61 91.7 802.6 93.33 815.79 94.41 829.4 95.59 843.36 96.99 857.39 98.21 871.59 99.92 885.72 102.23 899.47 104.74 912.67 108.06 924.91 112.22 936.02 116.84 945.55 122.38 953.08 128.81 958.88 135.76 962.39 143.55 963.58 152.1 963.39 161.07 961.54 170.69 958.62 180.83 956.16 191.23 954.26 202.04 953.87 213.15 956.34 224.37 961.7 235.8 970.34 247.36 982.39 258.93 997.07 270.58 1013.42 282.28 1030.26 293.93 1045.91 305.63 1058.68 317.33 1067.59 328.99 1071.3 340.69 1069.35 352.41 1062.77 364.11 1051.95 375.85 1038.57 387.63 1025.47 399.4 1014.05 411.22 1006.27 423.06 1004.05 434.9 1007.12 446.46 1014.71 457.72 1026.07 468.96 1038.6 479.84 1050.21 490.32 1059.77 500.72 1065.03 510.64 1065.18 520.02 1060.55 529.25 1051.01 537.86 1037.64 545.79 1021.93 553.51 1005.09 560.51 988.56 566.74 973.63 572.78 961.06 578.09 951.28 582.7 942.79 589.28 939.99 600.63 941.55 606.3 942.64 610.82 942.48 615.75 940.7 621.28 937.75 627.94 932.82 635.46 926.04 643.92 917.96 653.6 908.31 664.17 897.43 675.47 885.72 687.54 873.25 699.86 860.33 712.05 847.09 723.98 833.73 734.96 820.46 744.51 807.16 752.61 794.08 758.53 781.3 761.94 768.59 763.21 756.19 761.79 744.14 757.74 732.13 751.96 720.42 744.2 709.03 734.94 697.64 725.45 686.79 715.88 676.46 706.84 666.08 699.21 656.18 692.91 646.72 688.17 637.17 685.53 627.99 684.45 619.16 684.74 610.13 686.69 601.34 689.38 592.71 692.39 583.75 695.98 574.82 699.08 565.85 701.34 556.43 703.09 546.87 703.43 537.15 702.21 526.99 699.88 516.7 695.84 506.36 690.15 495.84 683.31 485.5 675.01 475.5 665.46 465.76 655.09 456.7 643.8 448.48 631.82 440.91 619.45 434.37 606.7 428.9 593.76 424.06 580.75 420.13 567.75 417 554.85 413.97 542.07 411.33 529.46 408.88 517.06 405.93 504.84 402.87 492.81 399.65 480.97 395.78 469.27 391.86 457.71 388.07 446.29 384.1 434.94 380.69 423.67 378.09 412.47 375.97 401.29 374.99 390.16 375.25 379.07 376.16 367.99 378.13 357.21 380.94 346.75 383.83 336.29 387.1 326.17 390.51 316.41 393.37 306.66 396.13 297.3 398.75 288.35 400.75 279.42 402.8 270.92 405.07 262.87 407.25 254.83 410.08 247.21 413.72 240.03 417.88 232.79 423.12 225.92 429.44 219.4 436.45 212.71 444.43 206.27 453.21 200.02 462.33 193.45 471.9 186.96 481.73 180.49 491.38 173.57 500.99 166.58 510.46 159.49 519.42 151.91 528.16 144.23 536.71 136.48 544.71 128.35 552.63 120.28 560.54 112.36 568.08 104.36 575.78 96.75 583.72 89.7 591.47 82.94 599.58 77.01 608.09 72.06 616.54 67.73 625.43 64.56 634.77 62.61 644.09 61.38 653.86 61.34 664.05 62.45 674.23 64.01 684.84 66.46 695.87 69.65" stroke-dasharray="0 0" transform="rotate(8.853658536585366, 711, 400)" opacity="1.00"></path><path d="M700.94 78.18C711.83 81.29 722.97 84.68 734.37 88.18 745.83 91.14 757.6 94 769.7 96.68 781.91 98.65 794.49 100.46 807.42 102.16 820.45 103.29 833.79 104.49 847.31 105.87 860.74 107.03 874.12 108.63 887.18 110.76 899.69 113.04 911.41 116.06 921.97 119.87 931.34 124.08 939.04 129.17 944.77 135.12 948.96 141.55 951.1 148.81 951.27 156.83 950.52 165.28 948.58 174.38 946.1 184.03 944.52 193.98 943.9 204.36 945.06 215.08 949.11 225.95 955.99 237.06 965.87 248.33 978.73 259.66 993.71 271.09 1009.81 282.58 1025.92 294.06 1040.46 305.59 1051.95 317.12 1059.57 328.64 1062.21 340.17 1059.54 351.7 1052.65 363.22 1041.95 374.76 1029 386.28 1016.48 397.81 1005.61 409.34 998.18 420.84 995.97 432.34 998.71 443.52 1005.72 454.35 1016.39 465.15 1028.33 475.56 1039.64 485.53 1049.28 495.43 1055.09 504.82 1056.22 513.66 1052.91 522.37 1044.84 530.47 1032.88 537.9 1018.36 545.17 1002.28 551.76 986.01 557.64 970.78 563.41 957.38 568.53 946.39 573.05 935.53 579.69 928.43 591.86 928.86 598.24 929.77 603.29 929.9 608.81 928.82 614.94 926.93 622.15 923.35 630.17 918.07 639.05 911.64 649.02 903.64 659.75 894.33 671.06 884.17 682.98 873.06 695 861.32 706.76 849.16 718.16 836.69 728.54 824.11 737.46 811.43 744.95 798.82 750.32 786.4 753.28 773.99 754.23 761.83 752.64 749.96 748.56 738.13 742.9 726.57 735.36 715.3 726.41 704.04 717.24 693.3 707.97 683.05 699.15 672.75 691.63 662.89 685.31 653.44 680.42 643.87 677.5 634.63 676.05 625.65 675.9 616.47 677.36 607.45 679.59 598.53 682.22 589.27 685.49 579.99 688.42 570.64 690.66 560.88 692.56 550.98 693.21 540.95 692.46 530.58 690.76 520.16 687.46 509.77 682.61 499.34 676.69 489.19 669.33 479.49 660.73 470.17 651.29 461.6 640.89 453.92 629.73 446.92 618.11 440.93 606.01 436 593.63 431.62 581.11 428.08 568.5 425.24 555.91 422.43 543.38 419.91 530.95 417.5 518.7 414.54 506.57 411.42 494.61 408.12 482.84 404.16 471.18 400.15 459.68 396.27 448.33 392.24 437.06 388.78 425.89 386.14 414.84 384.02 403.81 383.05 392.86 383.34 382.02 384.3 371.17 386.34 360.66 389.22 350.51 392.2 340.35 395.56 330.55 399.05 321.13 402 311.71 404.82 302.68 407.47 294.07 409.46 285.45 411.45 277.25 413.58 269.48 415.55 261.68 418.09 254.27 421.37 247.26 425.1 240.15 429.88 233.37 435.7 226.89 442.23 220.2 449.76 213.71 458.15 207.37 466.98 200.7 476.36 194.07 486.1 187.43 495.79 180.36 505.55 173.2 515.23 165.96 524.51 158.26 533.6 150.48 542.5 142.67 550.88 134.54 559.14 126.49 567.32 118.66 575.11 110.79 582.96 103.34 590.97 96.49 598.74 89.96 606.79 84.27 615.18 79.55 623.44 75.46 632.12 72.5 641.22 70.73 650.27 69.65 659.77 69.72 669.72 70.91 679.65 72.52 690.05 74.99 700.93 78.18" stroke-dasharray="0 0" transform="rotate(11.804878048780488, 711, 400)" opacity="0.29"></path><path d="M706.86 86.71C717.61 89.81 728.66 93.2 739.98 96.69 751.35 99.68 763.04 102.57 775.04 105.29 787.11 107.33 799.5 109.21 812.14 110.97 824.79 112.16 837.6 113.39 850.41 114.77 863.01 115.9 875.33 117.4 887.11 119.38 898.23 121.45 908.38 124.2 917.23 127.69 924.91 131.51 930.93 136.17 935.08 141.65 937.95 147.57 939.06 154.31 938.58 161.8 937.62 169.7 935.95 178.27 934.2 187.41 933.7 196.86 934.46 206.77 937.19 217.05 942.75 227.51 950.99 238.26 961.91 249.19 975.35 260.21 990.41 271.36 1006.09 282.59 1021.35 293.84 1034.74 305.14 1044.93 316.46 1051.33 327.77 1052.96 339.09 1049.64 350.4 1042.51 361.7 1031.96 373 1019.47 384.25 1007.51 395.51 997.18 406.73 990.09 417.88 987.89 429.03 990.32 439.82 996.78 450.23 1006.77 460.61 1018.12 470.57 1029.07 480.06 1038.72 489.49 1044.99 498.41 1047 506.76 1044.92 515.01 1038.27 522.67 1027.74 529.68 1014.48 536.59 999.33 542.86 983.53 548.5 968.25 554.08 954.3 559.11 942.32 563.65 932.86 568.3 925.82 572.64 920.98 576.77 917.82 583.62 917.16 599.37 916.43 609.1 915.24 616.8 912.66 625.25 908.61 634.47 903.61 644.65 897.12 655.45 889.3 666.7 880.65 678.41 870.97 690.08 860.49 701.37 849.54 712.22 838.1 722 826.39 730.3 814.49 737.19 802.52 742.04 790.6 744.57 778.66 745.22 766.86 743.47 755.27 739.39 743.69 733.84 732.32 726.53 721.2 717.88 710.08 709.03 699.43 700.05 689.23 691.45 678.97 684.05 669.1 677.74 659.58 672.73 649.93 669.55 640.55 667.74 631.37 667.18 621.97 668.18 612.68 669.95 603.42 672.17 593.86 675.1 584.24 677.82 574.53 679.99 564.48 681.95 554.31 682.84 544.06 682.49 533.59 681.32 523.15 678.69 512.85 674.61 502.63 669.54 492.79 663.09 483.5 655.4 474.68 646.9 466.66 637.39 459.58 627.08 453.17 616.26 447.75 604.89 443.33 593.14 439.39 581.19 436.2 569.06 433.63 556.88 430.98 544.68 428.54 532.53 426.14 520.5 423.14 508.55 419.94 496.74 416.53 485.11 412.48 473.56 408.38 462.16 404.41 450.94 400.33 439.77 396.83 428.73 394.18 417.84 392.06 406.97 391.12 396.22 391.43 385.6 392.44 374.98 394.53 364.72 397.48 354.85 400.54 344.96 403.98 335.45 407.56 326.33 410.6 317.2 413.5 308.46 416.19 300.13 418.21 291.78 420.16 283.82 422.18 276.26 423.98 268.65 426.26 261.4 429.19 254.5 432.51 247.47 436.81 240.73 442.13 234.24 448.14 227.52 455.17 220.95 463.11 214.49 471.55 207.7 480.65 200.91 490.2 194.11 499.83 186.88 509.63 179.58 519.45 172.2 528.97 164.4 538.36 156.55 547.59 148.7 556.36 140.59 564.98 132.61 573.49 124.88 581.59 117.17 589.7 109.91 597.89 103.27 605.8 96.99 613.92 91.54 622.31 87.07 630.54 83.21 639.12 80.46 648.1 78.87 656.99 77.94 666.32 78.13 676.11 79.38 685.86 81.04 696.11 83.53 706.85 86.71" stroke-dasharray="0 0" transform="rotate(14.75609756097561, 711, 400)" opacity="0.88"></path><path d="M713.14 95.24C723.75 98.34 734.66 101.71 745.83 105.2 757.03 108.2 768.53 111.12 780.28 113.89 792.06 115.99 804.06 117.94 816.19 119.77 828.26 121.02 840.33 122.3 852.21 123.69 863.77 124.79 874.88 126.23 885.26 128.08 894.92 129.98 903.49 132.49 910.7 135.67 919.11 141.27 926.32 156.97 925.79 167.03 924.96 174.38 923.85 182.41 923.06 191.01 923.79 199.93 926 209.34 930.26 219.15 937.21 229.16 946.63 239.48 958.38 250.02 972.17 260.68 987.12 271.49 1002.22 282.41 1016.52 293.37 1028.71 304.39 1037.62 315.44 1042.85 326.5 1043.55 337.57 1039.66 348.61 1032.35 359.66 1021.99 370.68 1009.96 381.63 998.57 392.6 988.76 403.49 982 414.28 979.82 425.07 981.95 435.48 987.88 445.48 997.21 455.45 1007.95 464.99 1018.51 474.04 1028.1 483.04 1034.73 491.53 1037.53 499.46 1036.58 507.32 1031.29 514.6 1022.18 521.29 1010.25 527.9 996.16 533.95 981.02 539.44 965.94 544.93 951.69 549.96 938.97 554.59 928.38 559.4 919.96 563.99 913.64 568.47 909.56 573.41 907.01 578.49 905.46 583.83 905.04 589.93 904.66 596.53 903.88 603.72 903 611.85 901.08 620.66 897.94 630.15 894.09 640.45 888.88 651.26 882.4 662.38 875.18 673.81 866.87 685.09 857.67 695.89 847.98 706.17 837.66 715.33 826.92 723.02 815.94 729.34 804.73 733.67 793.44 735.81 782.09 736.18 770.76 734.29 759.52 730.21 748.29 724.78 737.18 717.7 726.24 709.35 715.29 700.81 704.74 692.12 694.56 683.76 684.33 676.48 674.42 670.19 664.78 665.07 655.03 661.67 645.46 659.53 636.04 658.57 626.42 659.12 616.84 660.44 607.26 662.25 597.42 664.82 587.51 667.28 577.51 669.33 567.25 671.3 556.92 672.35 546.58 672.31 536.13 671.6 525.79 669.55 515.71 666.16 505.81 661.89 496.4 656.29 487.62 649.48 479.37 641.89 471.96 633.28 465.51 623.82 459.7 613.83 454.84 603.23 450.91 592.18 447.38 580.87 444.5 569.3 442.14 557.6 439.61 545.83 437.21 534.05 434.77 522.32 431.7 510.63 428.41 499.05 424.88 487.61 420.73 476.24 416.54 465 412.5 453.94 408.38 442.92 404.86 432.05 402.2 421.34 400.1 410.65 399.18 400.09 399.52 389.69 400.58 379.29 402.71 369.28 405.71 359.66 408.84 350.02 412.36 340.77 416.02 331.91 419.16 323.03 422.14 314.54 424.9 306.44 426.96 298.3 428.91 290.53 430.86 283.13 432.52 275.66 434.57 268.51 437.19 261.67 440.12 254.68 443.96 247.94 448.77 241.39 454.23 234.61 460.72 227.94 468.14 221.34 476.13 214.41 484.85 207.47 494.11 200.51 503.57 193.14 513.31 185.7 523.16 178.2 532.83 170.33 542.45 162.44 551.95 154.59 561.06 146.53 570.04 138.64 578.89 131.04 587.35 123.51 595.77 116.46 604.22 110.05 612.37 104.02 620.66 98.83 629.14 94.61 637.45 90.99 646.05 88.45 654.99 87.04 663.84 86.26 673.08 86.55 682.77 87.87 692.4 89.57 702.52 92.07 713.14 95.24" stroke-dasharray="0 0" transform="rotate(17.70731707317073, 711, 400)" opacity="0.53"></path><path d="M719.23 103.77C729.7 106.85 740.41 110.21 751.35 113.69 762.31 116.7 773.5 119.65 784.85 122.46 796.19 124.63 807.64 126.65 819.09 128.54 830.4 129.87 841.55 131.2 852.35 132.62 862.77 133.72 872.57 135.1 881.51 136.85 889.74 138.6 896.81 140.9 902.54 143.81 909.01 148.89 913.82 163.25 913.19 172.54 912.8 179.35 912.5 186.82 912.85 194.88 914.89 203.26 918.55 212.14 924.24 221.43 932.44 230.96 942.83 240.81 955.19 250.92 969.12 261.16 983.76 271.59 998.13 282.13 1011.4 292.75 1022.37 303.45 1030.03 314.17 1034.14 324.93 1033.99 335.7 1029.61 346.44 1022.18 357.2 1012.04 367.91 1000.48 378.55 989.65 389.19 980.35 399.75 973.91 410.18 971.75 420.6 973.6 430.63 979.02 440.24 987.7 449.83 997.83 458.96 1007.98 467.62 1017.45 476.23 1024.35 484.34 1027.82 491.92 1027.9 499.44 1023.91 506.43 1016.19 512.87 1005.62 519.28 992.69 525.18 978.38 530.61 963.72 536.09 949.43 541.19 936.24 545.98 924.75 551.01 915.14 555.91 907.47 560.78 901.92 566.13 897.97 571.67 895.21 577.52 893.76 584.1 892.69 591.17 891.55 598.8 890.64 607.29 889.01 616.38 886.44 626.05 883.43 636.4 879.23 647.14 873.88 658.05 867.91 669.16 860.85 680.01 852.87 690.29 844.41 699.99 835.22 708.54 825.48 715.63 815.49 721.39 805.14 725.24 794.56 727 783.89 727.11 773.11 725.09 762.31 721.04 751.49 715.73 740.7 708.88 729.97 700.82 719.23 692.59 708.8 684.19 698.65 676.06 688.46 668.92 678.5 662.66 668.74 657.46 658.88 653.85 649.14 651.42 639.48 650.09 629.66 650.2 619.83 651.08 609.98 652.48 599.92 654.67 589.8 656.85 579.62 658.72 569.27 660.64 558.9 661.78 548.6 661.98 538.3 661.64 528.21 660.09 518.47 657.31 509.02 653.76 500.13 648.95 491.95 642.97 484.32 636.26 477.56 628.52 471.74 619.92 466.53 610.78 462.21 600.98 458.74 590.66 455.56 580.05 452.95 569.1 450.74 557.96 448.29 546.69 445.88 535.35 443.39 524 440.22 512.66 436.81 501.37 433.16 490.2 428.91 479.06 424.64 468.05 420.54 457.19 416.39 446.37 412.87 435.69 410.21 425.17 408.14 414.68 407.24 404.33 407.61 394.15 408.71 383.97 410.88 374.19 413.91 364.8 417.11 355.39 420.69 346.37 424.43 337.73 427.67 329.07 430.75 320.77 433.59 312.85 435.72 304.88 437.68 297.26 439.6 289.97 441.16 282.59 443.02 275.5 445.37 268.67 447.94 261.69 451.33 254.9 455.63 248.27 460.54 241.4 466.46 234.61 473.32 227.87 480.78 220.8 489.04 213.72 497.92 206.6 507.09 199.11 516.65 191.56 526.42 183.96 536.13 176.06 545.87 168.16 555.55 160.33 564.95 152.36 574.23 144.59 583.39 137.15 592.21 129.82 600.96 123.01 609.69 116.85 618.14 111.08 626.66 106.15 635.32 102.18 643.78 98.8 652.48 96.47 661.46 95.23 670.34 94.59 679.56 94.99 689.18 96.37 698.75 98.11 708.76 100.62 719.23 103.77" stroke-dasharray="0 0" transform="rotate(20.658536585365855, 711, 400)" opacity="0.30"></path><path d="M724.61 112.3C734.91 115.36 745.39 118.7 756.02 122.16 766.65 125.19 777.41 128.16 788.24 131 799.02 133.24 809.78 135.33 820.41 137.29 830.84 138.7 840.97 140.1 850.61 141.54 859.83 142.66 868.32 144.01 875.88 145.69 885.63 148.37 897.89 156.71 900.37 162.67 901.25 167.19 901.37 172.43 901.07 178.35 901.36 184.63 902.06 191.55 903.67 199.06 907.05 206.88 912.1 215.21 919.11 223.98 928.36 232.98 939.51 242.33 952.24 251.96 966.1 261.75 980.26 271.74 993.79 281.88 1005.97 292.1 1015.7 302.43 1022.16 312.79 1025.23 323.2 1024.31 333.63 1019.5 344.03 1012 354.46 1002.12 364.84 991.04 375.13 980.76 385.44 971.95 395.65 965.82 405.71 963.68 415.77 965.28 425.43 970.2 434.67 978.26 443.89 987.78 452.66 997.48 460.96 1006.77 469.23 1013.85 477.02 1017.89 484.3 1018.91 491.55 1016.11 498.31 1009.75 504.59 1000.56 510.86 988.86 516.7 975.53 522.13 961.49 527.67 947.4 532.91 933.99 537.92 921.87 543.21 911.29 548.44 902.43 553.71 895.51 559.47 890.18 565.46 886.15 571.79 883.53 578.8 881.54 586.29 879.78 594.3 878.51 603.07 876.84 612.37 874.53 622.13 872.01 632.46 868.52 643.05 864.03 653.71 859.07 664.44 853.1 674.83 846.2 684.56 838.87 693.67 830.77 701.62 822.03 708.12 813.02 713.34 803.55 716.73 793.72 718.14 783.79 718.01 773.63 715.89 763.32 711.86 752.98 706.68 742.56 700.05 732.08 692.29 721.6 684.36 711.32 676.25 701.22 668.36 691.1 661.36 681.12 655.15 671.26 649.9 661.33 646.1 651.45 643.4 641.61 641.72 631.63 641.42 621.64 641.87 611.6 642.86 601.43 644.66 591.2 646.53 580.96 648.19 570.65 650 560.39 651.17 550.27 651.52 540.27 651.47 530.56 650.35 521.28 648.1 512.38 645.18 504.09 641.09 496.57 635.89 489.61 630 483.51 623.12 478.33 615.35 473.69 607.06 469.87 598.07 466.81 588.52 463.94 578.64 461.53 568.36 459.43 557.82 457.01 547.13 454.55 536.29 451.96 525.4 448.68 514.46 445.14 503.54 441.36 492.69 437.02 481.85 432.67 471.11 428.52 460.5 424.36 449.92 420.85 439.47 418.2 429.18 416.17 418.91 415.31 408.78 415.7 398.82 416.83 388.86 419.03 379.29 422.09 370.11 425.34 360.92 428.98 352.1 432.79 343.65 436.13 335.17 439.31 327.04 442.24 319.26 444.46 311.42 446.48 303.9 448.39 296.68 449.89 289.35 451.61 282.28 453.71 275.43 455.96 268.42 458.93 261.56 462.75 254.84 467.11 247.86 472.44 240.94 478.71 234.06 485.59 226.86 493.31 219.63 501.71 212.38 510.5 204.79 519.75 197.15 529.32 189.5 538.95 181.58 548.69 173.71 558.45 165.95 568.03 158.09 577.54 150.47 586.95 143.22 596.09 136.12 605.14 129.55 614.15 123.65 622.9 118.16 631.68 113.5 640.54 109.78 649.22 106.64 658.06 104.52 667.12 103.45 676.07 102.95 685.32 103.44 694.88 104.88 704.41 106.65 714.31 109.16 724.61 112.3" stroke-dasharray="0 0" transform="rotate(23.609756097560975, 711, 400)" opacity="0.89"></path><path d="M728.84 120.83C738.93 123.87 749.12 127.19 759.35 130.63 769.58 133.66 779.84 136.64 790.04 139.52 800.17 141.82 810.15 143.98 819.86 146.02 829.36 147.51 838.42 148.97 846.89 150.47 854.94 151.61 862.19 152.96 868.48 154.58 876.49 157.08 886.11 164.72 888.01 170.16 889.1 176.66 891.76 193.43 895.59 203.58 900.28 210.85 906.62 218.62 914.77 226.84 924.88 235.3 936.57 244.13 949.45 253.25 963.05 262.54 976.57 272.07 989.16 281.75 1000.19 291.54 1008.71 301.45 1014 311.42 1016.1 321.44 1014.49 331.49 1009.34 341.53 1001.82 351.59 992.22 361.61 981.62 371.55 971.88 381.5 963.56 391.34 957.73 401.04 955.62 410.74 956.97 420.04 961.43 428.93 968.87 437.8 977.78 446.24 987.01 454.23 996.06 462.2 1003.25 469.71 1007.77 476.77 1009.6 483.81 1007.93 490.41 1002.85 496.58 995.03 502.78 984.62 508.62 972.37 514.12 959.13 519.77 945.47 525.19 932.09 530.47 919.59 536.04 908.3 541.62 898.45 547.29 890.32 553.45 883.69 559.87 878.38 566.63 874.52 574.03 871.46 581.87 868.88 590.19 866.99 599.16 864.98 608.58 862.6 618.36 860.25 628.59 857.17 638.98 853.26 649.32 849.05 659.64 843.92 669.52 837.92 678.7 831.58 687.22 824.45 694.57 816.63 700.5 808.57 705.2 799.95 708.16 790.88 709.23 781.7 708.89 772.18 706.68 762.4 702.68 752.59 697.64 742.57 691.24 732.4 683.76 722.22 676.13 712.13 668.31 702.13 660.65 692.12 653.81 682.17 647.66 672.27 642.37 662.32 638.42 652.38 635.47 642.43 633.47 632.4 632.78 622.33 632.81 612.23 633.39 602.05 634.8 591.87 636.33 581.72 637.75 571.58 639.4 561.57 640.53 551.78 640.98 542.2 641.14 532.99 640.35 524.29 638.56 516.01 636.19 508.4 632.75 501.57 628.25 495.3 623.14 489.86 617.06 485.29 610.11 481.18 602.65 477.81 594.46 475.1 585.68 472.48 576.56 470.22 566.99 468.17 557.1 465.73 547.03 463.19 536.75 460.47 526.36 457.06 515.9 453.38 505.4 449.48 494.93 445.04 484.45 440.63 474.03 436.45 463.72 432.3 453.42 428.8 443.23 426.19 433.19 424.2 423.16 423.37 413.26 423.79 403.53 424.95 393.8 427.17 384.44 430.25 375.46 433.53 366.46 437.23 357.82 441.1 349.53 444.53 341.21 447.81 333.22 450.85 325.54 453.18 317.8 455.28 310.34 457.22 303.16 458.69 295.85 460.31 288.77 462.22 281.87 464.18 274.8 466.79 267.86 470.14 261.03 473.97 253.94 478.72 246.9 484.38 239.88 490.64 232.56 497.76 225.22 505.61 217.85 513.91 210.18 522.75 202.5 532 194.82 541.41 186.93 551.02 179.11 560.74 171.45 570.38 163.74 580 156.3 589.58 149.26 598.94 142.4 608.25 136.1 617.49 130.48 626.52 125.27 635.54 120.89 644.59 117.42 653.49 114.52 662.48 112.6 671.63 111.7 680.68 111.33 689.96 111.92 699.48 113.4 708.96 115.21 718.75 117.72 728.84 120.83" stroke-dasharray="0 0" transform="rotate(26.5609756097561, 711, 400)" opacity="0.70"></path><path d="M731.54 129.36C741.39 132.38 751.23 135.66 761.02 139.08 770.79 142.11 780.47 145.11 789.98 148.02 799.4 150.37 808.56 152.6 817.33 154.71 825.88 156.29 833.9 157.83 841.25 159.38 851.29 161.24 866.18 165.88 870.82 169.08 874.06 172.91 877.51 183.77 879.21 190.92 881.4 196.18 884.43 202.05 888.64 208.48 894.56 215.18 902.04 222.41 911.14 230.07 921.9 237.97 933.9 246.26 946.7 254.86 959.87 263.63 972.63 272.65 984.19 281.86 994.07 291.18 1001.39 300.64 1005.58 310.18 1006.79 319.78 1004.56 329.42 999.13 339.06 991.65 348.73 982.35 358.37 972.25 367.94 963.03 377.51 955.18 386.99 949.64 396.33 947.56 405.67 948.68 414.63 952.7 423.19 959.54 431.74 967.85 439.88 976.6 447.6 985.36 455.31 992.58 462.6 997.47 469.48 1000.02 476.37 999.35 482.86 995.5 488.99 989.01 495.18 979.91 501.07 968.83 506.7 956.53 512.49 943.49 518.13 930.38 523.69 917.77 529.56 906.02 535.49 895.42 541.55 886.27 548.09 878.49 554.89 871.97 562.03 866.86 569.75 862.67 577.87 859.13 586.41 856.41 595.51 853.82 604.97 851.11 614.7 848.62 624.77 845.64 634.88 842.03 644.86 838.28 654.72 833.75 664.09 828.44 672.7 822.88 680.62 816.56 687.39 809.54 692.76 802.32 696.96 794.49 699.51 786.14 700.28 777.69 699.74 768.81 697.45 759.57 693.5 750.29 688.6 740.72 682.42 730.88 675.23 721.05 667.9 711.2 660.36 701.36 652.94 691.52 646.27 681.66 640.19 671.81 634.88 661.92 630.8 652 627.63 642.06 625.34 632.07 624.28 622.05 623.91 612.02 624.09 601.99 625.1 591.98 626.29 582.07 627.44 572.26 628.89 562.64 629.93 553.32 630.41 544.27 630.7 535.66 630.17 527.62 628.75 520.03 626.85 513.13 623.97 507.02 620.12 501.42 615.71 496.62 610.37 492.62 604.19 489 597.53 486.02 590.13 483.59 582.11 481.16 573.76 478.98 564.92 476.93 555.7 474.43 546.29 471.78 536.61 468.91 526.77 465.35 516.83 461.53 506.81 457.5 496.77 452.99 486.7 448.53 476.65 444.33 466.67 440.2 456.69 436.74 446.8 434.17 437.03 432.22 427.26 431.44 417.62 431.88 408.11 433.06 398.61 435.3 389.46 438.38 380.67 441.69 371.86 445.43 363.38 449.35 355.23 452.87 347.04 456.26 339.15 459.41 331.56 461.86 323.89 464.05 316.47 466.06 309.29 467.55 301.98 469.1 294.87 470.88 287.91 472.6 280.78 474.88 273.75 477.81 266.8 481.14 259.61 485.32 252.45 490.36 245.3 495.99 237.89 502.46 230.45 509.7 223 517.43 215.3 525.76 207.6 534.58 199.93 543.64 192.1 553 184.38 562.54 176.85 572.1 169.32 581.71 162.09 591.33 155.29 600.82 148.7 610.27 142.68 619.67 137.34 628.91 132.42 638.12 128.31 647.33 125.1 656.41 122.44 665.54 120.72 674.76 119.97 683.9 119.74 693.18 120.41 702.63 121.94 712.06 123.77 721.69 126.27 731.54 129.36" stroke-dasharray="0 0" transform="rotate(29.51219512195122, 711, 400)" opacity="0.50"></path><path d="M732.49 137.88C742.06 140.88 751.5 144.13 760.8 147.52 770.07 150.54 779.14 153.55 787.93 156.49 796.63 158.9 804.96 161.19 812.82 163.37 820.47 165.03 827.52 166.65 833.88 168.27 842.51 170.2 855.09 174.74 859.03 177.75 862.1 181.26 866.79 191.17 869.86 197.69 873.15 202.48 877.37 207.85 882.81 213.76 889.84 219.93 898.29 226.6 908.13 233.72 919.3 241.07 931.38 248.8 943.93 256.87 956.5 265.1 968.38 273.6 978.86 282.31 987.57 291.13 993.74 300.11 996.89 309.19 997.28 318.34 994.53 327.56 988.89 336.78 981.49 346.04 972.51 355.28 962.9 364.46 954.2 373.66 946.8 382.77 941.55 391.75 939.51 400.74 940.41 409.36 944 417.62 950.28 425.87 957.99 433.75 966.23 441.24 974.67 448.73 981.84 455.84 987.01 462.6 990.16 469.37 990.41 475.81 987.69 481.95 982.48 488.16 974.7 494.14 964.84 499.93 953.6 505.9 941.36 511.78 928.72 517.63 916.25 523.8 904.29 530.06 893.2 536.48 883.26 543.35 874.5 550.49 866.9 557.94 860.61 565.92 855.29 574.25 850.7 582.93 847.03 592.08 843.68 601.51 840.42 611.11 837.54 620.94 834.39 630.73 830.81 640.3 827.23 649.68 823.04 658.51 818.19 666.54 813.19 673.87 807.49 680.07 801.12 684.91 794.6 688.64 787.46 690.8 779.77 691.29 771.98 690.57 763.7 688.22 754.99 684.32 746.25 679.56 737.13 673.61 727.68 666.7 718.22 659.66 708.67 652.4 699.05 645.23 689.44 638.72 679.76 632.73 670.04 627.42 660.31 623.24 650.52 619.87 640.71 617.32 630.89 615.91 621.05 615.17 611.24 614.96 601.48 615.57 591.8 616.4 582.28 617.27 572.91 618.48 563.81 619.38 555.08 619.83 546.66 620.19 538.73 619.84 531.41 618.71 524.55 617.2 518.38 614.8 512.96 611.51 508.02 607.74 503.82 603.08 500.33 597.62 497.13 591.71 494.47 585.07 492.25 577.8 489.94 570.2 487.79 562.08 485.68 553.56 483.08 544.82 480.29 535.77 477.25 526.51 473.54 517.14 469.58 507.63 465.43 498.06 460.85 488.44 456.36 478.8 452.16 469.19 448.06 459.57 444.65 450.01 442.13 440.53 440.25 431.06 439.5 421.67 439.97 412.41 441.17 403.14 443.41 394.2 446.49 385.59 449.82 376.96 453.58 368.63 457.55 360.6 461.15 352.54 464.64 344.74 467.9 337.2 470.49 329.58 472.8 322.19 474.89 314.99 476.43 307.68 477.98 300.52 479.66 293.49 481.21 286.29 483.2 279.17 485.77 272.12 488.63 264.84 492.28 257.59 496.73 250.34 501.7 242.85 507.52 235.35 514.1 227.86 521.19 220.15 528.93 212.47 537.21 204.86 545.81 197.13 554.78 189.54 564.01 182.17 573.35 174.84 582.82 167.86 592.35 161.31 601.83 155 611.31 149.28 620.76 144.23 630.11 139.61 639.43 135.78 648.72 132.83 657.92 130.39 667.13 128.87 676.37 128.28 685.55 128.17 694.81 128.92 704.16 130.49 713.48 132.34 722.93 134.83 732.49 137.88" stroke-dasharray="0 0" transform="rotate(32.463414634146346, 711, 400)" opacity="0.46"></path><path d="M731.61 146.41C740.85 149.37 749.87 152.59 758.65 155.94 767.4 158.96 775.85 161.98 783.94 164.93 791.94 167.38 799.49 169.74 806.52 171.99 816.46 174.59 832.63 179.15 838.65 181.43 847.13 186.71 857.16 198.81 861.75 204.76 866.14 209.12 871.51 214.02 878.05 219.44 886.02 225.09 895.24 231.24 905.59 237.82 916.96 244.61 928.92 251.8 941.02 259.32 952.86 267.01 963.78 274.98 973.15 283.18 980.7 291.49 985.75 299.98 987.95 308.59 987.61 317.27 984.41 326.03 978.62 334.82 971.34 343.65 962.71 352.49 953.58 361.28 945.39 370.09 938.43 378.83 933.46 387.47 931.46 396.1 932.16 404.42 935.35 412.4 941.07 420.37 948.2 428.01 955.93 435.31 964 442.61 971.06 449.59 976.41 456.25 980.07 462.95 981.11 469.38 979.43 475.56 975.44 481.84 968.94 487.94 960.33 493.9 950.24 500.06 938.93 506.18 926.97 512.31 914.86 518.76 902.96 525.32 891.62 532.06 881.13 539.22 871.61 546.63 863.11 554.33 855.77 562.49 849.37 570.96 843.76 579.7 839.07 588.83 834.85 598.14 830.88 607.54 827.41 617.09 823.86 626.51 820.08 635.63 816.43 644.5 812.33 652.77 807.7 660.22 803.02 666.98 797.74 672.61 791.86 676.94 785.87 680.23 779.29 682.02 772.15 682.25 764.93 681.37 757.2 678.98 749 675.15 740.76 670.53 732.1 664.8 723.05 658.17 713.99 651.42 704.78 644.44 695.45 637.52 686.14 631.18 676.72 625.29 667.23 620 657.76 615.73 648.22 612.2 638.66 609.41 629.14 607.68 619.62 606.59 610.16 606.01 600.81 606.23 591.59 606.7 582.58 607.26 573.78 608.21 565.3 608.93 557.24 609.3 549.53 609.66 542.34 609.42 535.77 608.5 526.9 606.3 513.26 597.26 508.39 590.43 505.52 585.22 503.11 579.3 501.03 572.74 498.77 565.88 496.59 558.47 494.39 550.63 491.65 542.58 488.69 534.17 485.47 525.51 481.61 516.73 477.51 507.77 473.27 498.69 468.64 489.55 464.13 480.35 459.94 471.14 455.9 461.92 452.55 452.7 450.09 443.54 448.27 434.38 447.57 425.28 448.06 416.26 449.27 407.25 451.51 398.52 454.58 390.08 457.91 381.63 461.68 373.45 465.69 365.53 469.37 357.57 472.95 349.85 476.33 342.36 479.05 334.79 481.5 327.4 483.7 320.19 485.33 312.86 486.9 305.66 488.53 298.56 489.96 291.3 491.74 284.11 493.99 276.96 496.45 269.62 499.6 262.29 503.48 254.97 507.83 247.44 512.99 239.92 518.89 232.42 525.3 224.75 532.38 217.13 540.05 209.61 548.08 202.02 556.55 194.6 565.34 187.43 574.32 180.34 583.51 173.61 592.81 167.35 602.14 161.34 611.52 155.92 620.9 151.17 630.23 146.85 639.55 143.3 648.83 140.6 658.05 138.39 667.26 137.06 676.45 136.62 685.61 136.62 694.79 137.45 703.98 139.06 713.16 140.92 722.38 143.4 731.61 146.41" stroke-dasharray="0 0" transform="rotate(35.41463414634146, 711, 400)" opacity="0.47"></path><path d="M728.97 154.94C737.84 157.87 746.43 161.04 754.69 164.36 762.92 167.36 770.77 170.37 778.21 173.34 785.56 175.84 792.42 178.25 798.72 180.56 807.65 183.29 822.05 188.07 827.51 190.41 836.11 195.5 848.79 206.71 854.94 212.14 860.38 216.1 866.78 220.57 874.28 225.53 883 230.69 892.77 236.33 903.41 242.4 914.75 248.65 926.4 255.3 937.89 262.29 948.89 269.44 958.78 276.88 967.03 284.56 973.45 292.35 977.45 300.34 978.76 308.46 977.78 316.66 974.2 324.96 968.33 333.32 961.21 341.71 952.95 350.13 944.31 358.53 936.61 366.95 930.07 375.33 925.37 383.63 923.41 391.93 923.92 399.94 926.74 407.66 931.93 415.38 938.48 422.81 945.69 429.94 953.36 437.08 960.25 443.95 965.71 450.56 969.76 457.22 971.49 463.66 970.74 469.91 967.89 476.26 962.62 482.49 955.27 488.64 946.38 494.99 936.11 501.34 924.97 507.73 913.44 514.43 901.82 521.26 890.48 528.27 879.72 535.65 869.67 543.28 860.47 551.15 852.25 559.42 844.89 567.94 838.32 576.67 832.64 585.69 827.5 594.83 822.74 603.97 818.55 613.17 814.44 622.17 810.26 630.81 806.32 639.15 802.09 646.86 797.48 653.74 792.91 659.93 787.85 665.02 782.27 668.86 776.64 671.72 770.47 673.18 763.77 673.18 757.02 672.16 749.75 669.73 742.01 665.97 734.24 661.5 726.03 655.99 717.39 649.64 708.75 643.18 699.92 636.48 690.95 629.8 682 623.65 672.92 617.87 663.76 612.61 654.64 608.28 645.46 604.61 636.27 601.6 627.16 599.59 618.08 598.16 609.11 597.23 600.28 597.08 591.63 597.19 583.24 597.42 575.1 598.09 567.32 598.6 560 598.84 549.8 599.05 532.95 596.37 526.44 593.12 521.03 588.63 513.03 575.46 509.89 566.95 507.62 560.78 505.36 554.06 503.02 546.89 500.11 539.51 496.97 531.75 493.57 523.7 489.56 515.52 485.34 507.11 481 498.55 476.34 489.93 471.83 481.19 467.67 472.4 463.7 463.59 460.43 454.75 458.04 445.93 456.29 437.1 455.64 428.3 456.15 419.54 457.37 410.78 459.59 402.27 462.64 394.01 465.96 385.74 469.74 377.7 473.77 369.89 477.51 362.05 481.18 354.4 484.67 346.95 487.54 339.42 490.13 332.05 492.47 324.82 494.21 317.48 495.85 310.24 497.48 303.09 498.84 295.79 500.46 288.54 502.46 281.33 504.57 273.94 507.29 266.57 510.66 259.22 514.42 251.69 518.93 244.18 524.16 236.72 529.86 229.12 536.25 221.6 543.24 214.22 550.62 206.8 558.49 199.58 566.74 192.64 575.24 185.82 584 179.38 592.94 173.41 601.99 167.71 611.12 162.6 620.29 158.17 629.48 154.14 638.67 150.87 647.83 148.41 656.97 146.43 666.08 145.28 675.14 144.98 684.19 145.1 693.21 146 702.18 147.64 711.16 149.51 720.1 151.97 728.97 154.94" stroke-dasharray="0 0" transform="rotate(38.36585365853659, 711, 400)" opacity="0.89"></path><path d="M724.8 163.47C733.28 166.35 741.42 169.48 749.18 172.76 756.91 175.74 764.22 178.75 771.08 181.72 777.86 184.26 784.14 186.72 789.87 189.09 798.01 191.95 811.3 196.96 816.54 199.36 821.42 201.58 830.41 207.13 835.37 210.73 839.46 213.31 844.09 216.33 849.44 219.8 855.82 223.4 863.12 227.48 871.38 232.02 880.65 236.72 890.73 241.88 901.43 247.46 912.55 253.2 923.71 259.33 934.46 265.81 944.53 272.42 953.36 279.34 960.48 286.51 965.82 293.78 968.84 301.26 969.36 308.91 967.81 316.62 963.93 324.46 958.03 332.38 951.1 340.33 943.22 348.33 935.06 356.35 927.85 364.38 921.72 372.39 917.28 380.37 915.36 388.34 915.71 396.07 918.16 403.56 922.85 411.04 928.84 418.27 935.52 425.26 942.77 432.27 949.43 439.06 954.92 445.63 959.26 452.27 961.57 458.73 961.65 465.06 959.83 471.5 955.74 477.87 949.61 484.19 941.94 490.71 932.8 497.27 922.61 503.89 911.83 510.79 900.71 517.84 889.61 525.06 878.81 532.61 868.5 540.37 858.83 548.35 849.93 556.65 841.8 565.14 834.38 573.78 827.78 582.63 821.76 591.52 816.19 600.34 811.21 609.15 806.43 617.7 801.73 625.83 797.34 633.63 792.81 640.77 788.04 647.08 783.38 652.72 778.35 657.29 772.91 660.67 767.47 663.14 761.57 664.29 755.19 664.07 748.78 662.93 741.9 660.48 734.57 656.8 727.2 652.48 719.4 647.19 711.19 641.11 702.97 634.93 694.55 628.5 685.98 622.07 677.44 616.11 668.77 610.45 660.03 605.25 651.35 600.88 642.62 597.09 633.92 593.91 625.32 591.64 616.78 589.9 608.4 588.64 600.18 588.12 592.19 587.88 584.51 587.79 577.08 588.16 570.04 588.43 563.48 588.5 554.4 588.6 539.61 586.27 533.96 583.47 529.19 579.61 521.87 568.05 518.78 560.46 516.44 554.94 514.05 548.88 511.53 542.35 508.44 535.62 505.11 528.49 501.53 521.04 497.37 513.46 493.04 505.62 488.64 497.58 483.96 489.48 479.47 481.23 475.37 472.88 471.47 464.5 468.29 456.06 465.98 447.58 464.31 439.1 463.71 430.61 464.24 422.12 465.46 413.63 467.67 405.35 470.68 397.27 473.99 389.19 477.76 381.3 481.79 373.6 485.58 365.87 489.33 358.3 492.92 350.89 495.93 343.41 498.68 336.06 501.16 328.83 503.05 321.49 504.79 314.24 506.47 307.05 507.82 299.73 509.34 292.45 511.15 285.21 512.99 277.81 515.33 270.44 518.24 263.09 521.46 255.6 525.36 248.15 529.94 240.76 534.95 233.29 540.63 225.92 546.91 218.7 553.59 211.49 560.79 204.51 568.42 197.84 576.32 191.3 584.55 185.16 593.01 179.51 601.62 174.13 610.39 169.35 619.22 165.22 628.13 161.49 637.06 158.5 645.98 156.28 654.91 154.52 663.82 153.55 672.66 153.38 681.51 153.61 690.29 154.57 698.99 156.23 707.7 158.1 716.31 160.54 724.8 163.47" stroke-dasharray="0 0" transform="rotate(41.31707317073171, 711, 400)" opacity="0.77"></path><path d="M719.44 172C727.53 174.84 735.23 177.91 742.52 181.14 749.79 184.1 756.62 187.09 762.99 190.07 772.22 193.89 788.06 200.56 794.69 203.45 800.83 205.81 811.48 210.55 816.51 213.2 822.2 215.96 836.15 223.13 845.19 227.72 852.39 231 860.39 234.73 869.2 238.89 878.8 243.18 888.98 247.89 899.53 253.01 910.25 258.27 920.76 263.91 930.67 269.89 939.75 275.99 947.49 282.4 953.51 289.07 957.81 295.84 959.93 302.83 959.74 310 957.71 317.23 953.61 324.61 947.73 332.1 941.02 339.61 933.53 347.2 925.85 354.84 919.11 362.48 913.38 370.15 909.19 377.81 907.32 385.46 907.51 392.93 909.63 400.18 913.83 407.44 919.28 414.51 925.44 421.37 932.24 428.26 938.63 434.98 944.06 441.53 948.6 448.15 951.38 454.65 952.17 461.06 951.29 467.58 948.29 474.07 943.34 480.55 936.88 487.21 928.9 493.94 919.76 500.75 909.87 507.81 899.43 515.01 888.78 522.37 878.2 530.02 867.86 537.85 857.96 545.85 848.63 554.1 839.92 562.5 831.83 570.97 824.45 579.58 817.63 588.17 811.29 596.62 805.52 605 800.05 613.07 794.75 620.68 789.81 627.93 784.86 634.51 779.79 640.26 774.9 645.35 769.75 649.43 764.31 652.37 758.91 654.47 753.13 655.33 746.97 654.92 740.79 653.67 734.21 651.23 727.21 647.63 720.19 643.46 712.77 638.4 704.97 632.58 697.16 626.68 689.17 620.52 681.05 614.34 672.95 608.57 664.75 603.05 656.51 597.92 648.32 593.53 640.13 589.66 632 586.31 623.97 583.81 616.06 581.8 608.34 580.22 600.8 579.37 593.52 578.78 586.57 578.37 576.74 578.43 559.78 578.23 552.85 577.42 542.28 573.15 530.78 560.07 527.63 553.32 525.17 548.39 522.62 542.93 519.9 537.01 516.62 530.9 513.09 524.38 509.33 517.52 505.05 510.53 500.63 503.25 496.17 495.74 491.5 488.16 487.06 480.39 483.02 472.49 479.22 464.56 476.14 456.52 473.92 448.41 472.33 440.29 471.78 432.12 472.33 423.91 473.55 415.7 475.73 407.66 478.71 399.78 481.98 391.89 485.72 384.16 489.75 376.58 493.58 368.97 497.39 361.49 501.08 354.14 504.23 346.73 507.13 339.42 509.77 332.19 511.82 324.88 513.69 317.63 515.46 310.44 516.85 303.13 518.34 295.86 520.03 288.62 521.66 281.26 523.7 273.92 526.23 266.62 528.97 259.21 532.33 251.86 536.3 244.6 540.64 237.29 545.62 230.1 551.19 223.09 557.14 216.13 563.62 209.42 570.56 203.03 577.8 196.8 585.4 190.98 593.28 185.66 601.35 180.62 609.62 176.16 618 172.34 626.5 168.91 635.05 166.19 643.61 164.21 652.23 162.66 660.82 161.86 669.35 161.82 677.9 162.14 686.38 163.15 694.74 164.84 703.11 166.71 711.36 169.12 719.44 172" stroke-dasharray="0 0" transform="rotate(44.26829268292683, 711, 400)" opacity="0.96"></path><path d="M713.37 180.53C721.04 183.32 728.33 186.34 735.21 189.51 742.07 192.44 748.5 195.42 754.49 198.38 763.19 202.25 778.34 209.1 784.87 212.12 791.14 214.61 802.79 219.51 808.71 222.15 813.13 223.85 817.82 225.82 822.91 228.07 828.7 230.31 835.08 232.9 842.11 235.86 849.94 238.88 858.45 242.3 867.58 246.11 877.28 250.02 887.35 254.34 897.56 259.04 907.71 263.85 917.45 269.03 926.43 274.55 934.48 280.17 941.15 286.09 946.11 292.29 949.45 298.56 950.75 305.08 949.92 311.79 947.5 318.55 943.24 325.48 937.43 332.54 930.98 339.63 923.88 346.82 916.68 354.08 910.39 361.35 905.04 368.68 901.1 376.03 899.28 383.39 899.32 390.59 901.14 397.64 904.88 404.69 909.8 411.59 915.44 418.34 921.78 425.12 927.85 431.77 933.17 438.31 937.82 444.91 940.95 451.44 942.35 457.91 942.28 464.5 940.28 471.09 936.44 477.69 931.17 484.47 924.36 491.32 916.32 498.26 907.43 505.42 897.82 512.72 887.81 520.15 877.65 527.83 867.53 535.65 857.64 543.59 848.13 551.73 839.06 559.95 830.5 568.2 822.52 576.51 815.04 584.74 808.03 592.78 801.55 600.7 795.4 608.26 789.51 615.33 783.98 622.03 778.54 628.05 773.1 633.25 767.86 637.83 762.49 641.44 756.93 643.97 751.44 645.72 745.69 646.32 739.63 645.74 733.59 644.41 727.21 641.96 720.49 638.46 713.75 634.45 706.67 629.6 699.26 624.05 691.84 618.42 684.29 612.54 676.63 606.6 669 601.03 661.31 595.66 653.61 590.61 645.97 586.23 638.36 582.29 630.85 578.82 623.45 576.11 616.21 573.85 609.19 572 602.35 570.81 595.79 569.9 589.59 569.18 580.84 568.79 565.95 568 559.93 567.09 550.55 563.21 539.7 551.63 536.39 545.6 533.77 541.2 531.02 536.3 528.08 530.93 524.6 525.4 520.89 519.46 516.97 513.15 512.58 506.73 508.09 499.99 503.61 493 498.97 485.94 494.59 478.66 490.63 471.2 486.95 463.72 483.98 456.09 481.86 448.35 480.35 440.61 479.85 432.77 480.42 424.85 481.64 416.94 483.79 409.14 486.71 401.47 489.94 393.79 493.64 386.23 497.65 378.78 501.5 371.31 505.37 363.94 509.14 356.66 512.42 349.34 515.47 342.08 518.27 334.9 520.49 327.64 522.52 320.43 524.41 313.26 525.89 306.01 527.4 298.77 529.04 291.58 530.54 284.29 532.36 277.03 534.58 269.83 536.92 262.56 539.8 255.35 543.22 248.26 546.94 241.14 551.26 234.18 556.15 227.42 561.37 220.74 567.12 214.32 573.34 208.24 579.86 202.34 586.77 196.86 594 191.87 601.44 187.17 609.12 183.04 616.96 179.53 624.93 176.4 633 173.94 641.11 172.19 649.29 170.84 657.48 170.2 665.61 170.29 673.78 170.69 681.87 171.76 689.85 173.46 697.84 175.32 705.7 177.7 713.37 180.53" stroke-dasharray="0 0" transform="rotate(47.21951219512195, 711, 400)" opacity="0.58"></path><path d="M707.1 189.06C714.36 191.79 721.27 194.76 727.78 197.87 734.29 200.76 740.4 203.71 746.12 206.67 754.48 210.57 769.35 217.59 776.02 220.72 782.61 223.34 795.59 228.42 802.48 231.1 807.58 232.79 813.02 234.7 818.88 236.87 825.37 239 832.42 241.43 840.04 244.2 848.3 246.99 857.09 250.14 866.33 253.66 875.93 257.24 885.69 261.2 895.38 265.52 904.83 269.93 913.71 274.69 921.7 279.77 928.72 284.94 934.33 290.42 938.28 296.16 940.73 301.97 941.29 308.03 939.94 314.3 937.19 320.62 932.84 327.12 927.15 333.77 920.98 340.44 914.28 347.24 907.55 354.15 901.69 361.06 896.71 368.05 893.01 375.11 891.24 382.18 891.16 389.13 892.68 395.98 895.98 402.82 900.4 409.57 905.52 416.21 911.39 422.88 917.11 429.46 922.26 435.98 926.93 442.55 930.32 449.09 932.21 455.62 932.85 462.24 931.74 468.89 928.92 475.58 924.78 482.42 919.12 489.35 912.21 496.36 904.39 503.56 895.72 510.89 886.49 518.33 876.96 525.95 867.27 533.69 857.62 541.51 848.15 549.46 838.97 557.45 830.16 565.4 821.78 573.36 813.83 581.19 806.3 588.78 799.22 596.21 792.49 603.25 786.04 609.78 779.95 615.92 774.01 621.39 768.17 626.07 762.54 630.16 756.88 633.32 751.13 635.46 745.48 636.89 739.66 637.26 733.64 636.53 727.64 635.13 721.4 632.7 714.89 629.3 708.38 625.44 701.6 620.81 694.56 615.53 687.51 610.16 680.37 604.54 673.19 598.85 666.03 593.49 658.86 588.27 651.72 583.32 644.64 578.97 637.64 574.99 630.78 571.41 624.02 568.54 617.46 566.06 611.15 563.95 602.07 561.86 585.94 559.38 579.05 558.53 567.92 556.76 555.33 550.82 552.06 547.16 548.54 542.78 540.71 531.24 536.06 524.17 532.39 519.17 528.5 513.76 524.43 507.97 519.96 502.09 515.43 495.87 510.95 489.38 506.36 482.82 502.07 476.02 498.22 469.01 494.66 461.97 491.81 454.75 489.79 447.39 488.37 440.02 487.93 432.52 488.51 424.91 489.72 417.3 491.83 409.76 494.69 402.31 497.87 394.86 501.52 387.48 505.49 380.19 509.35 372.88 513.25 365.63 517.09 358.46 520.49 351.24 523.68 344.08 526.64 336.96 529.05 329.79 531.25 322.65 533.3 315.55 534.9 308.38 536.48 301.24 538.13 294.13 539.57 286.96 541.25 279.83 543.24 272.77 545.27 265.67 547.75 258.66 550.71 251.77 553.88 244.9 557.6 238.2 561.84 231.72 566.36 225.34 571.41 219.25 576.91 213.5 582.7 207.95 588.89 202.82 595.42 198.17 602.17 193.81 609.19 190.01 616.41 186.81 623.77 183.96 631.28 181.76 638.86 180.24 646.52 179.08 654.22 178.59 661.89 178.79 669.6 179.28 677.26 180.39 684.81 182.09 692.39 183.95 699.83 186.29 707.1 189.06" stroke-dasharray="0 0" transform="rotate(50.170731707317074, 711, 400)" opacity="0.95"></path><path d="M701.15 197.59C708.03 200.26 714.58 203.16 720.8 206.22 727.01 209.07 732.88 211.98 738.42 214.92 746.58 218.84 761.53 226.01 768.5 229.24 775.57 231.99 790.03 237.29 797.86 240.02 803.6 241.72 809.69 243.61 816.2 245.73 823.25 247.77 830.78 250.09 838.79 252.7 847.27 255.3 856.13 258.23 865.27 261.49 874.57 264.8 883.84 268.45 892.87 272.43 901.51 276.48 909.46 280.86 916.45 285.55 924.73 292.83 931.64 308.88 929.79 317.55 926.8 323.44 922.41 329.53 916.88 335.79 911.01 342.07 904.72 348.5 898.45 355.06 893.02 361.62 888.39 368.3 884.92 375.08 883.2 381.86 883.01 388.58 884.26 395.22 887.15 401.87 891.08 408.46 895.7 414.98 901.09 421.53 906.43 428.05 911.36 434.52 915.97 441.05 919.52 447.58 921.79 454.12 923.01 460.75 922.68 467.43 920.79 474.15 917.7 481.01 913.16 487.95 907.36 494.98 900.64 502.15 892.99 509.43 884.66 516.8 875.91 524.31 866.83 531.9 857.62 539.52 848.43 547.22 839.37 554.91 830.53 562.51 821.98 570.09 813.76 577.48 805.89 584.59 798.37 591.51 791.18 598.01 784.29 604 777.71 609.6 771.33 614.54 765.1 618.71 759.08 622.33 753.11 625.07 747.15 626.85 741.29 627.99 735.36 628.15 729.32 627.29 723.32 625.83 717.15 623.43 710.82 620.14 704.49 616.44 697.96 612.03 691.25 607 684.54 601.89 677.81 596.55 671.09 591.1 664.4 585.94 657.74 580.9 651.16 576.06 644.64 571.74 638.24 567.75 632.02 564.1 625.88 561.08 619.97 558.42 614.34 556.08 606.24 553.57 592 550.22 585.96 548.99 576.04 546.76 564.3 540.91 560.96 537.56 557.24 533.61 548.79 523.22 543.81 516.81 539.96 512.28 535.92 507.35 531.73 502.05 527.19 496.66 522.65 490.93 518.19 484.91 513.68 478.83 509.5 472.49 505.77 465.92 502.35 459.31 499.63 452.51 497.72 445.52 496.39 438.53 496.01 431.38 496.6 424.08 497.8 416.79 499.86 409.52 502.65 402.31 505.76 395.1 509.36 387.93 513.28 380.81 517.12 373.68 521.04 366.59 524.93 359.54 528.43 352.47 531.76 345.42 534.87 338.42 537.47 331.37 539.86 324.34 542.07 317.35 543.84 310.31 545.54 303.3 547.24 296.33 548.7 289.32 550.31 282.37 552.15 275.49 553.96 268.61 556.14 261.83 558.71 255.19 561.43 248.6 564.61 242.2 568.28 236.03 572.17 229.98 576.55 224.23 581.37 218.83 586.43 213.63 591.91 208.86 597.74 204.56 603.77 200.55 610.1 197.06 616.66 194.17 623.37 191.6 630.25 189.65 637.24 188.34 644.33 187.37 651.48 187.02 658.64 187.32 665.85 187.89 673.03 189.03 680.13 190.74 687.26 192.58 694.28 194.88 701.15 197.59" stroke-dasharray="0 0" transform="rotate(53.1219512195122, 711, 400)" opacity="0.47"></path><path d="M696.05 206.12C702.56 208.73 708.8 211.56 714.77 214.55 720.74 217.35 726.45 220.23 731.89 223.14 739.98 227.07 755.24 234.35 762.63 237.69 770.22 240.56 786.15 246.08 794.83 248.88 801.1 250.61 807.71 252.5 814.71 254.59 822.14 256.58 829.96 258.81 838.13 261.3 846.63 263.76 855.36 266.52 864.18 269.57 873.01 272.63 881.66 276.01 889.91 279.7 897.67 283.44 904.66 287.48 910.62 291.82 917.43 298.55 922 313.43 919.52 321.52 916.35 327.01 911.98 332.71 906.65 338.61 901.09 344.51 895.21 350.59 889.38 356.82 884.37 363.05 880.08 369.43 876.83 375.93 875.17 382.44 874.87 388.92 875.87 395.36 878.38 401.82 881.85 408.25 885.98 414.65 890.89 421.07 895.83 427.49 900.49 433.91 904.98 440.37 908.6 446.86 911.14 453.37 912.83 459.97 913.16 466.62 912.09 473.33 909.95 480.15 906.45 487.05 901.73 494.02 896.11 501.11 889.52 508.28 882.17 515.5 874.3 522.83 865.98 530.2 857.4 537.56 848.69 544.96 839.95 552.29 831.31 559.5 822.81 566.64 814.53 573.56 806.52 580.18 798.76 586.57 791.28 592.55 784.08 597.99 777.13 603.06 770.4 607.48 763.85 611.17 757.5 614.34 751.26 616.69 745.09 618.15 739.03 619.03 732.97 618.99 726.88 618.03 720.84 616.53 714.73 614.17 708.53 610.98 702.34 607.45 696.04 603.24 689.63 598.47 683.23 593.62 676.87 588.54 670.59 583.35 664.33 578.4 658.15 573.52 652.12 568.81 646.12 564.56 640.29 560.57 634.67 556.88 626.46 552.33 611.57 545.51 605.01 543.03 593.82 539.9 580.43 535.45 576.87 533.38 573.22 531 565.71 524.25 561.55 519.79 556.6 514.78 545.21 502.58 538.85 495.47 534.29 490.53 529.75 485.26 525.35 479.68 520.95 474.05 516.88 468.15 513.3 461.99 510.03 455.81 507.45 449.4 505.65 442.79 504.42 436.18 504.09 429.37 504.69 422.4 505.87 415.42 507.88 408.44 510.6 401.49 513.63 394.53 517.15 387.58 521 380.67 524.81 373.74 528.74 366.83 532.66 359.95 536.24 353.05 539.68 346.16 542.94 339.3 545.72 332.41 548.3 325.54 550.7 318.71 552.65 311.84 554.5 305 556.32 298.22 557.84 291.42 559.46 284.69 561.24 278.05 562.91 271.42 564.87 264.91 567.16 258.56 569.51 252.28 572.26 246.2 575.43 240.37 578.77 234.67 582.55 229.28 586.75 224.25 591.14 219.42 595.93 215 601.08 211.06 606.41 207.38 612.05 204.22 617.94 201.62 623.98 199.33 630.21 197.61 636.6 196.51 643.07 195.71 649.64 195.5 656.27 195.89 662.94 196.52 669.62 197.7 676.27 199.4 682.94 201.22 689.54 203.47 696.05 206.12" stroke-dasharray="0 0" transform="rotate(56.07317073170732, 711, 400)" opacity="0.84"></path><path d="M692.22 214.65C698.39 217.19 704.36 219.95 710.13 222.87 715.91 225.61 721.49 228.45 726.9 231.32 735 235.25 750.72 242.62 758.55 246.05 763.94 248.04 769.4 250.04 775 252.07 780.85 253.86 786.93 255.72 793.26 257.67 799.92 259.44 806.89 261.35 814.19 263.43 821.8 265.4 829.7 267.58 837.84 269.98 846.15 272.34 854.55 274.95 862.9 277.83 871.11 280.7 879.01 283.86 886.4 287.3 893.24 290.76 899.24 294.51 904.22 298.55 909.63 304.78 912.12 318.61 909.12 326.16 905.85 331.29 901.56 336.64 896.45 342.18 891.22 347.74 885.75 353.48 880.36 359.4 875.73 365.32 871.77 371.4 868.74 377.64 867.14 383.88 866.75 390.12 867.52 396.37 869.67 402.62 872.69 408.88 876.36 415.14 880.78 421.43 885.31 427.74 889.66 434.06 893.97 440.43 897.58 446.84 900.3 453.29 902.34 459.8 903.21 466.38 902.84 473.02 901.54 479.74 899 486.53 895.29 493.38 890.74 500.32 885.21 507.31 878.88 514.33 871.98 521.42 864.53 528.5 856.7 535.54 848.64 542.59 840.42 549.53 832.17 556.31 823.94 562.99 815.81 569.42 807.85 575.52 800.06 581.39 792.47 586.83 785.12 591.74 777.96 596.3 771.01 600.23 764.25 603.46 757.66 606.21 751.21 608.19 744.88 609.35 738.65 609.99 732.49 609.78 726.37 608.73 720.29 607.21 714.22 604.9 708.14 601.83 702.07 598.45 695.97 594.46 689.84 589.94 683.71 585.35 677.7 580.53 671.82 575.58 665.94 570.85 660.22 566.15 654.67 561.58 649.15 557.41 643.83 553.45 638.75 549.74 631.33 545.04 617.97 537.66 612.11 534.82 601.97 530.93 589.38 525.66 585.78 523.51 581.98 521.15 573.9 514.76 569.39 510.64 564.13 506.04 552.26 494.87 545.79 488.33 541.24 483.8 536.75 478.93 532.43 473.77 528.15 468.55 524.24 463.06 520.8 457.3 517.7 451.53 515.26 445.51 513.58 439.27 512.45 433.02 512.17 426.56 512.78 419.91 513.94 413.27 515.89 406.59 518.53 399.9 521.48 393.22 524.9 386.52 528.68 379.83 532.44 373.14 536.34 366.44 540.27 359.75 543.91 353.06 547.45 346.37 550.84 339.69 553.79 333.01 556.55 326.33 559.14 319.7 561.3 313.05 563.33 306.43 565.3 299.88 566.94 293.33 568.63 286.86 570.41 280.49 572.04 274.16 573.88 267.96 575.97 261.93 578.05 255.99 580.48 250.26 583.25 244.79 586.13 239.46 589.4 234.44 593.05 229.78 598.93 223.3 612.69 212.91 620.44 209.17 628.61 206.4 646.04 204.06 655.12 204.5 661.25 205.19 667.44 206.38 673.63 208.07 679.85 209.87 686.06 212.07 692.22 214.65" stroke-dasharray="0 0" transform="rotate(59.02439024390244, 711, 400)" opacity="0.87"></path><path d="M689.99 223.18C695.85 225.65 701.58 228.33 707.19 231.17 712.81 233.86 718.31 236.64 723.72 239.47 729.17 242.06 734.55 244.68 739.9 247.3 745.33 249.64 750.79 251.98 756.3 254.31 767.8 258.17 779.94 262.15 792.93 266.35 806.95 269.84 821.98 273.91 837.65 278.68 853.52 283.19 868.81 288.66 882.27 295.14 893.38 301.62 900.63 309.19 903.02 317.76 902.03 324.35 893.24 338.72 886.3 346.46 881.4 351.69 876.34 357.12 871.37 362.74 867.12 368.36 863.48 374.16 860.65 380.14 859.11 386.12 858.64 392.13 859.21 398.17 861.02 404.22 863.63 410.3 866.84 416.4 870.8 422.53 874.9 428.69 878.91 434.89 882.98 441.13 886.51 447.42 889.31 453.76 893.24 466.6 892.83 479.71 888.07 492.97 880.21 506.47 868.9 520.05 855.32 533.42 840.52 546.65 824.98 559.22 809.53 570.59 794.36 581.02 779.8 589.54 766.02 595.57 759.3 597.93 752.74 599.58 746.33 600.47 740.01 600.89 733.79 600.54 727.66 599.42 721.59 597.88 715.56 595.63 709.6 592.68 703.65 589.47 697.73 585.69 691.85 581.41 685.97 577.07 680.26 572.5 674.73 567.81 669.21 563.29 663.88 558.78 658.76 554.36 651.22 548.33 637.39 537.88 631.16 533.52 623.12 529.17 616.21 525.44 610.41 522.04 604.44 519.75 599.23 517.13 594.5 513.85 588.86 510.88 583.07 506.76 576.88 501.39 569.22 495.89 561.02 488.99 552.57 480.76 548.05 476.58 543.65 472.09 539.44 467.29 535.31 462.46 531.56 457.34 528.29 451.97 525.36 446.57 523.07 440.92 521.52 435.04 520.48 429.15 520.25 423.04 520.87 416.72 522.01 410.41 523.9 404.04 526.44 397.64 529.3 391.24 532.62 384.82 536.29 378.38 539.99 371.94 543.84 365.48 547.77 359.03 551.45 352.57 555.06 346.11 558.55 339.67 564.33 326.77 569.47 313.94 574.11 301.37 577.43 288.88 580.94 276.77 585.01 265.35 588.84 254.29 593.87 244.2 600.19 235.45 606.9 227.48 614.98 221.17 624.21 216.82 631.46 214.41 647.15 212.57 655.44 213.14 661.05 213.88 666.75 215.09 672.53 216.76 678.31 218.52 684.14 220.67 689.99 223.18" stroke-dasharray="0 0" transform="rotate(61.97560975609756, 711, 400)" opacity="0.87"></path><path d="M689.56 231.71C700.69 236.43 711.66 241.84 722.44 247.58 733.39 252.49 744.45 257.5 755.78 262.47 767.67 266.48 780.24 270.6 793.56 274.91 807.61 278.53 822.36 282.64 837.32 287.35 852.05 291.75 865.8 297.01 877.44 303.16 886.7 309.26 892.24 316.35 893.32 324.4 891.2 332.47 885.16 341.48 876.19 351.35 867.33 361.21 858.87 371.9 852.56 383.35 850.84 394.79 852.73 406.48 857.43 418.31 864.96 430.21 872.41 442.36 878.22 454.67 882.6 467.15 883.27 479.87 880.06 492.67 874.11 505.61 864.8 518.52 853.06 531.1 839.93 543.45 825.69 555.04 811.17 565.37 796.61 574.78 782.37 582.32 768.75 587.51 755.46 591.12 742.7 592.04 730.51 590.08 718.48 586.69 706.79 580.84 695.49 572.88 684.19 564.72 673.74 555.93 664.22 547.15 654.71 539.57 646.17 532.58 638.7 526.33 631.22 521.64 624.73 517.49 619.18 513.68 613.29 510.93 607.95 507.95 602.91 504.47 596.89 501.36 590.65 497.3 583.99 492.16 576.03 486.98 567.66 480.54 559.19 472.89 550.27 465.1 542.2 456.14 535.77 446.1 530.65 435.99 528.23 424.9 528.96 412.94 531.63 400.97 536.86 388.74 543.86 376.42 551.03 364.11 558.63 351.69 566.07 339.33 572.16 327 577.68 314.75 582.69 302.78 586.39 290.95 590.11 279.55 594.18 268.86 597.82 258.57 602.4 249.27 608.08 241.27 613.94 234.03 621.04 228.38 629.27 224.58 637.76 221.72 647.21 220.78 657.37 221.81 667.63 223.51 678.42 226.87 689.56 231.71" stroke-dasharray="0 0" transform="rotate(64.92682926829269, 711, 400)" opacity="0.33"></path><path d="M690.95 240.24C701.57 244.81 712.27 250.05 723.03 255.65 733.94 260.52 745.16 265.52 756.77 270.54 768.82 274.67 781.53 278.92 794.83 283.33 808.56 287.07 822.67 291.25 836.6 295.94 849.98 300.28 862.07 305.38 871.87 311.28 879.37 317.07 883.37 323.77 883.35 331.36 880.65 338.94 874.6 347.42 866.14 356.75 858 366.06 850.28 376.21 844.47 387.15 842.74 398.08 844.17 409.32 848.12 420.74 854.76 432.23 861.53 443.98 867.08 455.89 871.7 467.92 873.21 480.14 871.33 492.37 867.09 504.66 859.67 516.82 849.8 528.53 838.45 539.95 825.72 550.54 812.39 559.85 798.77 568.26 785.18 574.88 772.01 579.28 759.01 582.28 746.48 582.81 734.53 580.73 722.71 577.4 711.32 571.85 700.45 564.35 689.58 556.68 679.67 548.35 670.73 539.96 661.77 532.58 653.77 525.64 646.76 519.3 639.64 514.33 633.38 509.83 627.86 505.65 621.9 502.46 616.31 499.13 610.87 495.42 604.46 492.13 597.77 488.06 590.71 483.06 582.52 478.1 574.06 472.03 565.66 464.86 557 457.6 549.3 449.24 543.24 439.85 538.47 430.4 536.28 419.99 537.05 408.69 539.63 397.4 544.65 385.8 551.38 374.07 558.37 362.37 565.9 350.55 573.4 338.79 579.74 327.08 585.61 315.47 590.99 304.19 595.1 293.08 599.12 282.43 603.32 272.51 606.95 263.02 611.29 254.5 616.53 247.27 621.76 240.74 628.1 235.72 635.5 232.45 643.04 230.01 651.56 229.35 660.88 230.52 670.27 232.27 680.33 235.56 690.95 240.24" stroke-dasharray="0 0" transform="rotate(67.87804878048782, 711, 400)" opacity="0.12"></path><path d="M694.05 248.77C704.19 253.18 714.61 258.25 725.26 263.69 736.05 268.49 747.27 273.47 758.92 278.49 770.89 282.72 783.43 287.08 796.36 291.59 809.46 295.46 822.62 299.71 835.28 304.4 847.15 308.73 857.52 313.72 865.54 319.42 871.41 324.97 874.05 331.35 873.11 338.54 870 345.69 864.06 353.7 856.14 362.53 848.71 371.34 841.72 380.98 836.38 391.4 834.66 401.83 835.68 412.59 838.93 423.56 844.69 434.58 850.74 445.86 855.93 457.28 860.61 468.77 862.72 480.4 861.94 491.97 859.18 503.52 853.5 514.85 845.42 525.66 835.89 536.12 824.8 545.7 812.84 554.01 800.43 561.46 787.78 567.21 775.31 570.89 762.88 573.34 750.8 573.53 739.24 571.36 727.77 568.12 716.76 562.86 706.32 555.82 695.87 548.62 686.41 540.77 677.93 532.77 669.39 525.63 661.76 518.78 655.02 512.41 648.09 507.24 641.87 502.45 636.24 497.94 630.09 494.37 624.17 490.7 618.29 486.75 611.49 483.25 604.41 479.1 597.02 474.18 588.7 469.36 580.24 463.58 571.99 456.8 563.67 450 556.37 442.17 550.71 433.37 546.31 424.53 544.34 414.76 545.14 404.14 547.62 393.51 552.41 382.56 558.85 371.48 565.63 360.42 573.03 349.25 580.52 338.15 587.06 327.12 593.22 316.23 598.95 305.68 603.49 295.33 607.87 285.47 612.31 276.36 616.07 267.67 620.35 259.94 625.34 253.45 630.17 247.62 635.96 243.21 642.71 240.43 649.5 238.39 657.26 237.99 665.87 239.27 674.5 241.05 683.92 244.26 694.05 248.77" stroke-dasharray="0 0" transform="rotate(70.82926829268293, 711, 400)" opacity="0.86"></path><path d="M698.6 257.29C708.28 261.54 718.38 266.42 728.82 271.69 739.38 276.41 750.41 281.32 761.85 286.33 773.48 290.63 785.54 295.07 797.79 299.65 809.98 303.65 821.96 307.97 833.16 312.68 843.46 317.03 852.12 321.95 858.45 327.49 862.86 332.85 864.33 338.96 862.67 345.82 859.29 352.61 853.56 360.2 846.22 368.57 839.49 376.91 833.17 386.05 828.29 395.96 826.59 405.88 827.24 416.13 829.84 426.6 834.77 437.1 840.09 447.85 844.83 458.69 849.4 469.58 851.9 480.53 851.96 491.36 850.45 502.1 846.3 512.56 839.89 522.42 832.13 531.92 822.72 540.51 812.26 547.84 801.22 554.38 789.72 559.32 778.18 562.35 766.56 564.29 755.13 564.2 744.12 561.98 733.15 558.85 722.59 553.88 712.58 547.29 702.56 540.56 693.5 533.18 685.35 525.58 677.13 518.71 669.73 512.01 663.1 505.67 656.24 500.35 649.93 495.34 644.06 490.58 637.66 486.66 631.38 482.69 625.07 478.5 617.93 474.78 610.54 470.53 602.92 465.64 594.57 460.89 586.22 455.32 578.21 448.88 570.28 442.44 563.42 435.08 558.18 426.83 554.15 418.55 552.4 409.4 553.23 399.43 555.61 389.46 560.15 379.19 566.29 368.78 572.81 358.4 580.03 347.92 587.45 337.53 594.1 327.24 600.5 317.1 606.53 307.33 611.49 297.77 616.25 288.73 620.98 280.44 624.99 272.55 629.36 265.61 634.27 259.85 638.91 254.68 644.35 250.85 650.63 248.52 656.87 246.85 664.03 246.68 672.05 248.05 680.06 249.85 688.92 252.96 698.6 257.29" stroke-dasharray="0 0" transform="rotate(73.78048780487805, 711, 400)" opacity="0.50"></path><path d="M704.2 265.82C713.44 269.89 723.16 274.58 733.27 279.66 743.45 284.26 754.1 289.1 765.07 294.06 776.13 298.4 787.46 302.89 798.75 307.53 809.82 311.63 820.45 316.02 830.11 320.75 838.81 325.12 845.83 329.99 850.63 335.4 853.74 340.63 854.24 346.52 852.05 353.07 848.55 359.55 843.1 366.76 836.37 374.7 830.31 382.61 824.65 391.27 820.2 400.67 818.53 410.07 818.85 419.79 820.86 429.7 825 439.64 829.58 449.79 833.81 459.99 838.13 470.2 840.82 480.41 841.49 490.43 840.97 500.33 838.13 509.88 833.21 518.79 827.1 527.32 819.33 534.94 810.4 541.35 800.85 547.03 790.64 551.22 780.18 553.66 769.56 555.16 758.96 554.82 748.61 552.58 738.28 549.57 728.27 544.91 718.71 538.76 709.14 532.49 700.43 525.58 692.54 518.4 684.57 511.82 677.3 505.32 670.66 499.05 663.77 493.67 657.3 488.51 651.14 483.55 644.48 479.35 637.85 475.1 631.16 470.71 623.76 466.77 616.16 462.4 608.43 457.51 600.17 452.8 592.02 447.38 584.33 441.22 576.85 435.09 570.46 428.14 565.66 420.39 562 412.63 560.47 404.06 561.32 394.75 563.59 385.43 567.87 375.84 573.68 366.12 579.92 356.45 586.9 346.7 594.18 337.07 600.87 327.53 607.43 318.18 613.7 309.22 619.03 300.48 624.17 292.27 629.22 284.79 633.55 277.7 638.12 271.52 643.07 266.46 647.69 261.93 652.95 258.64 658.94 256.73 664.82 255.39 671.53 255.43 679.08 256.87 686.59 258.67 694.97 261.68 704.2 265.82" stroke-dasharray="0 0" transform="rotate(76.73170731707317, 711, 400)" opacity="0.15"></path><path d="M710.39 274.35C719.18 278.23 728.45 282.71 738.08 287.59 747.76 292.06 757.83 296.79 768.12 301.67 778.4 306.02 788.77 310.53 798.91 315.19 808.73 319.37 817.92 323.81 826.01 328.55 833.17 332.95 838.67 337.79 842.1 343.09 844.12 348.21 843.85 353.9 841.3 360.19 837.79 366.4 832.7 373.26 826.59 380.79 821.19 388.28 816.14 396.48 812.11 405.35 810.48 414.22 810.52 423.38 812 432.7 815.39 442.04 819.24 451.53 822.91 461.03 826.87 470.51 829.56 479.94 830.63 489.11 830.85 498.13 829.07 506.75 825.44 514.71 820.8 522.3 814.56 528.99 807.11 534.52 799.06 539.41 790.21 542.91 780.92 544.83 771.44 545.94 761.79 545.41 752.23 543.17 742.65 540.3 733.25 535.94 724.18 530.23 715.1 524.42 706.73 517.97 699.04 511.22 691.28 504.96 684.08 498.69 677.37 492.56 670.42 487.17 663.77 481.93 657.33 476.84 650.42 472.42 643.51 467.96 636.53 463.4 628.98 459.26 621.29 454.78 613.58 449.88 605.51 445.17 597.67 439.87 590.38 433.95 583.4 428.08 577.51 421.49 573.15 414.21 569.86 406.93 568.54 398.93 569.41 390.25 571.56 381.58 575.58 372.67 581.04 363.67 586.96 354.72 593.65 345.72 600.73 336.86 607.38 328.11 614 319.57 620.43 311.44 626.08 303.52 631.55 296.13 636.91 289.46 641.59 283.15 646.42 277.7 651.51 273.3 656.23 269.37 661.45 266.58 667.28 265.06 672.95 264.02 679.36 264.23 686.53 265.72 693.65 267.51 701.6 270.4 710.39 274.35" stroke-dasharray="0 0" transform="rotate(79.6829268292683, 711, 400)" opacity="0.45"></path><path d="M716.62 282.88C724.95 286.56 733.69 290.83 742.73 295.48 751.79 299.8 761.12 304.39 770.54 309.16 779.88 313.47 789.14 317.97 798.01 322.62 806.5 326.84 814.23 331.31 820.81 336.04 828.6 342.86 833.64 358.24 830.47 367.05 827.06 373 822.38 379.55 816.89 386.68 812.13 393.78 807.66 401.5 804.02 409.84 802.45 418.18 802.24 426.75 803.24 435.44 805.95 444.14 809.09 452.94 812.17 461.69 815.68 470.41 818.24 479.01 819.5 487.3 820.21 495.44 819.26 503.14 816.67 510.17 813.29 516.84 808.43 522.65 802.35 527.37 795.73 531.52 788.23 534.41 780.15 535.86 771.86 536.65 763.24 535.96 754.54 533.76 745.8 531.04 737.08 526.98 728.52 521.7 719.96 516.33 711.94 510.35 704.45 504.04 696.89 498.12 689.75 492.12 682.97 486.18 675.97 480.85 669.16 475.6 662.49 470.46 655.42 465.88 648.32 461.27 641.18 456.59 633.61 452.28 625.97 447.71 618.41 442.81 610.64 438.09 603.2 432.9 596.39 427.19 589.94 421.54 584.58 415.29 580.66 408.45 577.74 401.61 576.62 394.15 577.5 386.1 579.53 378.06 583.28 369.83 588.37 361.56 593.94 353.33 600.3 345.1 607.1 337.03 613.62 329.07 620.22 321.35 626.72 314.04 632.58 306.93 638.32 300.35 643.94 294.47 648.96 288.9 654.06 284.15 659.33 280.38 664.23 277.01 669.51 274.68 675.27 273.51 680.85 272.74 687.05 273.09 693.93 274.61 700.74 276.36 708.3 279.14 716.62 282.88" stroke-dasharray="0 0" transform="rotate(82.63414634146342, 711, 400)" opacity="0.91"></path><path d="M722.38 291.41C730.21 294.89 738.36 298.92 746.7 303.34 755.03 307.47 763.51 311.9 771.93 316.53 780.22 320.77 788.29 325.21 795.84 329.81 802.99 334.04 809.32 338.51 814.5 343.2 820.4 349.99 823 365.06 819.59 373.55 816.37 379.26 812.14 385.49 807.27 392.23 803.11 398.94 799.19 406.2 795.92 413.99 794.42 421.77 794.02 429.74 794.59 437.77 796.67 445.8 799.14 453.87 801.63 461.85 804.63 469.78 806.93 477.54 808.22 484.96 809.2 492.21 808.82 499.01 807.05 505.14 804.69 510.94 800.99 515.93 796.14 519.9 790.82 523.38 784.6 525.72 777.7 526.78 770.59 527.28 763.02 526.48 755.22 524.34 747.36 521.78 739.37 518.03 731.37 513.17 723.37 508.24 715.73 502.72 708.46 496.86 701.14 491.3 694.08 485.6 687.27 479.9 680.28 474.69 673.39 469.5 666.58 464.37 659.47 459.72 652.32 455.03 645.16 450.27 637.69 445.86 630.24 441.23 622.96 436.34 615.61 431.63 608.65 426.54 602.36 421.04 596.49 415.6 591.67 409.66 588.2 403.23 585.64 396.82 584.71 389.87 585.59 382.45 587.49 375.02 590.96 367.47 595.68 359.93 600.86 352.41 606.84 344.95 613.31 337.68 619.62 330.5 626.1 323.58 632.57 317.09 638.54 310.78 644.45 304.98 650.26 299.85 655.57 294.99 660.91 290.9 666.36 287.7 674.14 283.89 691.16 281.77 700.81 283.53 707.36 285.24 714.54 287.88 722.38 291.41" stroke-dasharray="0 0" transform="rotate(85.58536585365853, 711, 400)" opacity="0.39"></path><path d="M727.16 299.94C734.48 303.2 741.97 306.99 749.53 311.15 757.07 315.09 764.6 319.33 771.96 323.78 779.16 327.91 786.02 332.25 792.27 336.76 800.66 343.16 811.42 356.71 812.99 364.01 812.9 368.82 811.45 374.01 808.71 379.56 805.76 385.04 802 390.96 797.75 397.3 794.15 403.61 790.74 410.4 787.83 417.63 786.4 424.86 785.84 432.2 786.05 439.55 787.56 446.89 789.41 454.23 791.32 461.41 793.78 468.54 795.73 475.46 796.91 482.01 797.96 491.37 793.79 506.72 788.6 512.12 781.87 515.93 764.27 517.41 754.09 514.92 747.12 512.53 739.89 509.08 732.48 504.64 725.08 500.14 717.86 495.07 710.87 489.67 703.83 484.5 696.93 479.13 690.17 473.71 683.28 468.68 676.43 463.62 669.61 458.58 662.58 453.93 655.53 449.22 648.51 444.46 641.3 440 634.18 435.36 627.3 430.52 620.45 425.85 614.05 420.87 608.35 415.57 603.07 410.34 598.79 404.71 595.77 398.69 593.55 392.68 592.81 386.24 593.68 379.42 595.45 372.59 598.63 365.71 602.96 358.88 607.74 352.08 613.31 345.37 619.38 338.88 625.4 332.47 631.66 326.34 637.99 320.64 643.96 315.09 649.92 310.03 655.82 305.61 661.32 301.42 666.83 297.94 672.41 295.27 680.41 292.12 697.4 290.7 706.73 292.48 713.04 294.14 719.85 296.63 727.16 299.94" stroke-dasharray="0 0" transform="rotate(88.53658536585365, 711, 400)" opacity="0.29"></path><path d="M730.57 308.47C737.32 311.51 744.12 315.04 750.85 318.94 757.56 322.65 764.13 326.67 770.4 330.9 776.53 334.89 782.22 339.09 787.26 343.45 793.92 349.73 801.74 362.99 802.4 370.07 801.21 377.24 793.61 393.05 788.31 401.77 785.25 407.69 782.31 413.99 779.74 420.64 778.4 427.3 777.7 434 777.61 440.66 778.61 447.31 779.9 453.89 781.26 460.29 783.93 469.67 786.72 486.55 785.99 493.58 783.91 499.59 774.6 507.11 767.72 508.27 762.74 508.36 757.16 507.44 751.11 505.49 745.02 503.29 738.54 500.15 731.76 496.11 724.99 492.03 718.25 487.42 711.6 482.47 704.92 477.7 698.27 472.7 691.69 467.6 685.01 462.8 678.33 457.93 671.66 453.05 664.87 448.47 658.07 443.83 651.34 439.14 644.54 434.69 637.87 430.1 631.5 425.36 625.24 420.76 619.46 415.93 614.37 410.85 609.7 405.84 605.96 400.52 603.37 394.89 601.48 389.29 600.91 383.35 601.77 377.12 603.4 370.88 606.29 364.66 610.23 358.53 614.59 352.42 619.7 346.44 625.33 340.71 630.98 335.04 636.93 329.68 643.01 324.72 648.85 319.89 654.75 315.54 660.62 311.78 666.19 308.21 671.78 305.28 677.39 303.09 685.52 300.52 702.37 299.69 711.36 301.47 717.41 303.05 723.81 305.39 730.57 308.47" stroke-dasharray="0 0" transform="rotate(91.48780487804878, 711, 400)" opacity="0.90"></path><path d="M732.3 317C744.63 322.53 756.55 329.76 767.17 337.91 777.26 345.29 785.08 353.56 789.5 362.4 792.49 370.6 791.64 379.79 787.13 389.86 782.74 399.69 777.06 410.78 771.65 422.92 770.19 435.06 770.4 447.14 771.48 458.43 774.62 469.5 776.11 479.36 774.96 487.07 773.33 493.98 768.36 498.15 760.49 498.88 752.14 498.51 741.52 494.73 729.27 487.59 717.02 480.26 704.42 471.23 691.92 461.56 679.21 452.8 666.3 443.59 653.78 434.29 641.26 425.77 629.7 416.63 620.45 406.92 612.8 397.44 608.88 386.94 609.86 375.63 613.44 364.32 621.07 353.3 631.18 343.22 641.61 333.36 653.09 324.83 664.68 318.35 675.44 312.47 686.44 309 697.62 308.44 708.37 308.5 719.97 311.33 732.3 317" stroke-dasharray="0 0" transform="rotate(94.4390243902439, 711, 400)" opacity="0.68"></path><path d="M732.22 325.53C743.32 330.6 753.56 337.25 762.26 344.81 770.53 351.77 776.55 359.62 779.55 368 781.6 375.88 780.49 384.61 776.49 394.01 772.88 403.23 768.19 413.44 763.56 424.39 762.08 435.33 761.73 446 762 455.78 764.11 465.38 765 473.73 763.88 480.08 762.66 485.8 758.68 489.09 752.12 489.4 745.25 488.89 736.14 485.44 725.22 479.06 714.3 472.53 702.73 464.4 691.07 455.57 679.34 447.41 667.41 438.71 655.97 429.88 644.75 421.64 634.58 412.9 626.63 403.77 620.12 394.84 616.92 385.18 617.95 375.01 621.14 364.85 627.92 355.14 636.95 346.45 646.47 337.92 657.13 330.68 668.06 325.33 678.5 320.42 689.18 317.66 699.86 317.45 710.26 317.68 721.12 320.35 732.22 325.53" stroke-dasharray="0 0" transform="rotate(97.39024390243902, 711, 400)" opacity="0.86"></path><path d="M730.33 334.06C740.15 338.64 748.82 344.68 755.84 351.58 762.54 358.06 767.11 365.37 769.1 373.18 770.51 380.62 769.39 388.78 766.02 397.44 763.15 405.97 759.38 415.24 755.47 424.98 754.02 434.72 753.23 444.01 752.83 452.36 754.13 464.03 750.21 478.59 743.02 479.85 737.32 479.25 729.55 476.15 719.96 470.53 710.37 464.79 699.99 457.57 689.42 449.63 678.89 442.16 668.2 434.1 658.07 425.87 648.29 418.08 639.58 409.87 632.93 401.41 627.53 393.12 624.98 384.32 626.04 375.28 628.85 366.24 634.75 357.8 642.69 350.39 651.16 343.1 660.83 337.04 670.87 332.69 680.67 328.66 690.75 326.51 700.72 326.55 710.52 326.91 720.51 329.38 730.33 334.06" stroke-dasharray="0 0" transform="rotate(100.34146341463415, 711, 400)" opacity="0.55"></path><path d="M726.79 342.59C735.31 346.67 742.54 352.06 748.13 358.25 753.52 364.15 757 370.83 758.33 377.96 759.37 384.83 758.42 392.31 755.73 400.15 753.57 407.89 750.62 416.17 747.38 424.69 745.99 433.21 744.9 441.16 743.98 448.15 741.97 463.69 725.5 468.24 713.93 462 705.65 457.03 696.59 450.73 687.34 443.72 678.16 437.02 668.91 429.73 660.26 422.22 652 415.04 644.77 407.48 639.38 399.8 635.03 392.24 633.08 384.36 634.13 376.43 636.56 368.5 641.6 361.27 648.41 355.04 655.76 348.9 664.27 343.91 673.22 340.43 682.12 337.17 691.31 335.53 700.35 335.76 709.31 336.19 718.26 338.44 726.79 342.59" stroke-dasharray="0 0" transform="rotate(103.29268292682927, 711, 400)" opacity="0.74"></path><path d="M721.9 351.12C729.12 354.67 735.05 359.38 739.48 364.81 743.79 370.05 746.49 376.01 747.45 382.36 748.33 388.54 747.66 395.22 745.65 402.14 744.14 409.01 741.92 416.23 739.29 423.52 737.37 434.14 734.7 451.13 732.53 456.59 729.76 460.23 717.42 458.79 707.65 453.47 700.66 449.26 693 443.88 685.2 437.83 677.49 431.98 669.8 425.54 662.71 418.89 655.98 412.44 650.2 405.68 646.01 398.87 642.62 392.14 641.21 385.23 642.22 378.42 644.27 371.6 648.46 365.52 654.15 360.38 660.32 355.3 667.56 351.26 675.26 348.53 683.03 345.93 691.09 344.71 699 345.05 706.9 345.52 714.67 347.51 721.9 351.12" stroke-dasharray="0 0" transform="rotate(106.2439024390244, 711, 400)" opacity="0.93"></path><path d="M716.08 359.65C727.96 365.58 735.05 375.35 736.69 386.38 738.43 397.01 736.15 409.39 731.2 421.51 729.86 433.62 727.41 443.08 723.31 448.04 720.32 452.41 713.13 451.68 701.66 444.94 690.18 438.03 676.91 427.33 665.57 415.82 655.44 404.8 649.21 392.58 650.31 381.17 654.34 369.76 664.64 361.22 677.16 356.94 690.15 352.96 704.2 353.56 716.08 359.65" stroke-dasharray="0 0" transform="rotate(109.19512195121952, 711, 400)" opacity="0.39"></path><path d="M709.83 368.18C719.19 373.02 724.74 381.02 726.23 390.08 727.99 398.92 726.75 409.08 723.11 418.74 720.37 432 708.61 442.12 696.46 436.41 687.39 430.94 677.32 422.33 669.02 412.95 661.58 403.83 657.24 393.77 658.4 384.6 661.48 375.42 669.37 368.79 679.1 365.64 689.31 362.62 700.46 363.23 709.83 368.18" stroke-dasharray="0 0" transform="rotate(112.14634146341464, 711, 400)" opacity="0.81"></path><path d="M703.67 376.7C710.59 380.41 714.84 386.53 716.27 393.47 717.96 400.31 717.51 408.09 715.02 415.3 712.47 425.1 701.77 432.17 692.5 427.88 685.77 423.82 678.72 417.35 673.17 410.22 668.15 403.22 665.41 395.49 666.49 388.57 668.68 381.65 674.28 376.78 681.26 374.57 688.6 372.4 696.75 372.94 703.67 376.7" stroke-dasharray="0 0" transform="rotate(115.09756097560975, 711, 400)" opacity="0.50"></path><path d="M698.15 385.23C707.24 390.21 710.43 401.76 706.93 411.31 705.63 420.85 699.04 424.58 690.12 419.35 681.2 414.01 673.37 402.23 674.58 392.95 677.8 383.66 689.04 380.16 698.15 385.23" stroke-dasharray="0 0" transform="rotate(118.04878048780488, 711, 400)" opacity="0.32"></path></g></svg>