<svg xmlns="http://www.w3.org/2000/svg" version="1.1" xmlns:xlink="http://www.w3.org/1999/xlink" xmlns:svgjs="http://svgjs.dev/svgjs" viewBox="0 0 2400 800" opacity="1"><g fill="#4c1d95ff" transform="matrix(1,0,0,1,2.0377197265625,214.18052673339844)"><path d="M-10,10C117.08333333333334,20.416666666666668,347.9166666666667,82.91666666666666,600,60C852.0833333333333,37.083333333333336,950,-108.54166666666667,1200,-100C1450,-91.45833333333333,1550,83.08333333333333,1800,101C2050,118.91666666666667,2222.9166666666665,-76.29166666666667,2400,-14C2577.0833333333335,48.29166666666667,3254.1666666666665,209.58333333333331,2650,400C2045.8333333333335,590.4166666666667,156.25,795.8333333333334,-500,900" transform="matrix(1,0,0,1,0,62)" opacity="0.05"></path><path d="M-10,10C117.08333333333334,20.416666666666668,347.9166666666667,82.91666666666666,600,60C852.0833333333333,37.083333333333336,950,-108.54166666666667,1200,-100C1450,-91.45833333333333,1550,83.08333333333333,1800,101C2050,118.91666666666667,2222.9166666666665,-76.29166666666667,2400,-14C2577.0833333333335,48.29166666666667,3254.1666666666665,209.58333333333331,2650,400C2045.8333333333335,590.4166666666667,156.25,795.8333333333334,-500,900" transform="matrix(1,0,0,1,0,124)" opacity="0.29"></path><path d="M-10,10C117.08333333333334,20.416666666666668,347.9166666666667,82.91666666666666,600,60C852.0833333333333,37.083333333333336,950,-108.54166666666667,1200,-100C1450,-91.45833333333333,1550,83.08333333333333,1800,101C2050,118.91666666666667,2222.9166666666665,-76.29166666666667,2400,-14C2577.0833333333335,48.29166666666667,3254.1666666666665,209.58333333333331,2650,400C2045.8333333333335,590.4166666666667,156.25,795.8333333333334,-500,900" transform="matrix(1,0,0,1,0,186)" opacity="0.53"></path><path d="M-10,10C117.08333333333334,20.416666666666668,347.9166666666667,82.91666666666666,600,60C852.0833333333333,37.083333333333336,950,-108.54166666666667,1200,-100C1450,-91.45833333333333,1550,83.08333333333333,1800,101C2050,118.91666666666667,2222.9166666666665,-76.29166666666667,2400,-14C2577.0833333333335,48.29166666666667,3254.1666666666665,209.58333333333331,2650,400C2045.8333333333335,590.4166666666667,156.25,795.8333333333334,-500,900" transform="matrix(1,0,0,1,0,248)" opacity="0.76"></path><path d="M-10,10C117.08333333333334,20.416666666666668,347.9166666666667,82.91666666666666,600,60C852.0833333333333,37.083333333333336,950,-108.54166666666667,1200,-100C1450,-91.45833333333333,1550,83.08333333333333,1800,101C2050,118.91666666666667,2222.9166666666665,-76.29166666666667,2400,-14C2577.0833333333335,48.29166666666667,3254.1666666666665,209.58333333333331,2650,400C2045.8333333333335,590.4166666666667,156.25,795.8333333333334,-500,900" transform="matrix(1,0,0,1,0,310)" opacity="1.00"></path></g></svg>